<svg xmlns="http://www.w3.org/2000/svg" width="64.944" height="60.104" viewBox="0 0 64.944 60.104">
  <g id="_494_motivation_flatline" data-name="#494_motivation_flatline" transform="translate(-48.096 -59.575)">
    <path id="Tracé_3774" data-name="Tracé 3774" d="M161.621,206l-.911,3.037,8.684-.143c-.468-2.026-4.459-2.892-4.459-2.892Z" transform="translate(-78.408 -101.949)" fill="#fce15c"/>
    <path id="Tracé_3775" data-name="Tracé 3775" d="M160.414,208.8a.155.155,0,0,1-.122-.061.161.161,0,0,1-.024-.134l.9-3.037a.149.149,0,0,1,.146-.109h3.359c.167.036,4.095.911,4.577,3a.149.149,0,0,1-.03.128.155.155,0,0,1-.115.061l-8.684.143Zm1.008-3.037-.8,2.734,8.28-.137c-.607-1.722-4.016-2.533-4.277-2.591Z" transform="translate(-78.097 -101.573)" fill="#1f4076"/>
    <path id="Tracé_3776" data-name="Tracé 3776" d="M193.87,116.859c.091,0,1.865-.589,1.865-.589s1.008-1.865,1.285-1.558a.863.863,0,0,1,.243.607s.7-.793.978-.428.911,2.293.337,2.658-4.492,1.932-4.492,1.932Z" transform="translate(-101.496 -38.365)" fill="#f2f1f7"/>
    <path id="Tracé_3777" data-name="Tracé 3777" d="M193.742,119.289a.158.158,0,0,1-.152-.14l-.213-2.624a.143.143,0,0,1,.033-.109.14.14,0,0,1,.1-.052c.112-.024,1.124-.352,1.78-.565.279-.513.911-1.573,1.279-1.616a.243.243,0,0,1,.222.082,1.121,1.121,0,0,1,.234.395,1.172,1.172,0,0,1,.7-.358.374.374,0,0,1,.3.155,4.4,4.4,0,0,1,.577,2.4.69.69,0,0,1-.282.48c-.586.368-4.356,1.877-4.514,1.941A.131.131,0,0,1,193.742,119.289Zm-.052-2.661.185,2.29c.793-.319,3.788-1.519,4.277-1.841a.407.407,0,0,0,.146-.276,4.193,4.193,0,0,0-.522-2.163.073.073,0,0,0-.067-.033,1.444,1.444,0,0,0-.674.471.155.155,0,0,1-.176.039.152.152,0,0,1-.091-.155.7.7,0,0,0-.185-.471,5.29,5.29,0,0,0-1.057,1.519.149.149,0,0,1-.085.07C194.781,116.282,194.013,116.534,193.691,116.629Z" transform="translate(-101.152 -38.019)" fill="#1f4076"/>
    <path id="Tracé_3778" data-name="Tracé 3778" d="M84.891,236.13s-1.6,3.666-1.519,4.307,3.9,1.9,3.9,1.9l4.365.115A4.556,4.556,0,0,0,90.5,241.1a10.588,10.588,0,0,1-1.993-1.625,19.594,19.594,0,0,1-.319-2.062Z" transform="translate(-24.559 -122.927)" fill="#fce15c"/>
    <path id="Tracé_3779" data-name="Tracé 3779" d="M91.31,242.275h0l-4.365-.115H86.9c-.911-.3-3.9-1.343-4-2.026s1.358-4.009,1.519-4.389a.152.152,0,0,1,.194-.079l3.3,1.279a.164.164,0,0,1,.1.125,19.281,19.281,0,0,0,.3,2.035,6,6,0,0,0,1.2,1c.231.17.483.355.741.553a4.556,4.556,0,0,1,1.2,1.443.155.155,0,0,1-.03.131A.161.161,0,0,1,91.31,242.275Zm-4.338-.419,4.079.106a5.045,5.045,0,0,0-.972-1.072c-.258-.2-.507-.38-.741-.553-.826-.607-1.215-.911-1.3-1.145a16.781,16.781,0,0,1-.3-2l-3.08-1.2a19.223,19.223,0,0,0-1.443,4.091C83.246,240.422,85.19,241.267,86.973,241.856Z" transform="translate(-24.229 -122.596)" fill="#1f4076"/>
    <path id="Tracé_3780" data-name="Tracé 3780" d="M156.87,97.21s4.948,9.067,5.68,8.885,5.99-1.923,5.99-1.923l.929,3.15s-6.421,5.285-8.14,4.186c-2.706-1.731-4.459-6.573-4.459-6.573Z" transform="translate(-75.734 -26.203)" fill="#fce15c"/>
    <rect id="Rectangle_1965" data-name="Rectangle 1965" width="14.012" height="9.085" rx="3.91" transform="translate(51.152 91.473) rotate(19.66)" fill="#f2f1f7"/>
    <path id="Tracé_3781" data-name="Tracé 3781" d="M60.987,178.09a1.3,1.3,0,0,1-.453-.079h0L49.578,174.1a1.352,1.352,0,0,1-.762-.69,1.33,1.33,0,0,1-.049-1.024l2.257-6.321a1.34,1.34,0,0,1,1.707-.811l10.959,3.915a1.343,1.343,0,0,1,.811,1.713L62.245,177.2a1.34,1.34,0,0,1-1.261.887Zm-.358-.364a1.036,1.036,0,0,0,1.324-.626l2.257-6.321a1.039,1.039,0,0,0-.626-1.324l-10.95-3.912a1.036,1.036,0,0,0-1.324.626l-2.257,6.321a1.036,1.036,0,0,0,.641,1.321Z" transform="translate(-0.412 -73.526)" fill="#1f4076"/>
    <path id="Tracé_3782" data-name="Tracé 3782" d="M70.08,177.351a.143.143,0,0,1-.052,0l-10.434-3.736a.151.151,0,1,1,.1-.286l10.434,3.727a.155.155,0,0,1,.094.194.158.158,0,0,1-.143.1Z" transform="translate(-7.934 -79.195)" fill="#5c6f99"/>
    <path id="Tracé_3783" data-name="Tracé 3783" d="M76.428,167.543a.155.155,0,0,1-.052,0l-4.86-1.744a.14.14,0,0,1-.085-.076.146.146,0,0,1,0-.118l.334-.933a1.045,1.045,0,0,1,1.34-.635l3.186,1.139a1.045,1.045,0,0,1,.635,1.34l-.334.933a.155.155,0,0,1-.143.1Zm-4.681-1.987,4.59,1.64.282-.79a.75.75,0,0,0-.453-.954l-3.183-1.139a.75.75,0,0,0-.954.453Z" transform="translate(-16.239 -72.689)" fill="#1f4076"/>
    <path id="Tracé_3784" data-name="Tracé 3784" d="M81.9,154.542s-.337.911-.5,1.57A8.861,8.861,0,0,0,81.272,158c-.179-.176-.443-.2-.629-.352a2.394,2.394,0,0,1-.118.8.814.814,0,0,1-.574.532,1.027,1.027,0,0,1-.428-.03c-.51-.112-1.358-.334-1.519-.911a1.242,1.242,0,0,1,.07-.686,31.689,31.689,0,0,1,2.014-3.76" transform="translate(-20.81 -65.465)" fill="#f2f1f7"/>
    <path id="Tracé_3785" data-name="Tracé 3785" d="M79.473,158.779a1.52,1.52,0,0,1-.337-.046c-.431-.1-1.44-.322-1.634-1.03a1.367,1.367,0,0,1,.073-.771,30.964,30.964,0,0,1,2.029-3.8.152.152,0,0,1,.258.161,28.991,28.991,0,0,0-2,3.727,1.1,1.1,0,0,0-.067.607c.128.471.82.68,1.406.811a.884.884,0,0,0,.368.03.68.68,0,0,0,.462-.437,2.4,2.4,0,0,0,.106-.756.152.152,0,0,1,.091-.134.155.155,0,0,1,.158.021.969.969,0,0,0,.255.137l.115.049a9.666,9.666,0,0,1,.137-1.643c.167-.668.5-1.549.51-1.586a.149.149,0,0,1,.194-.088.152.152,0,0,1,.091.194s-.337.911-.5,1.552a9.059,9.059,0,0,0-.118,1.85.146.146,0,0,1-.036.109.155.155,0,0,1-.2.021h-.018a.853.853,0,0,0-.289-.164l-.091-.039a2.092,2.092,0,0,1-.118.607.975.975,0,0,1-.686.626A.671.671,0,0,1,79.473,158.779Z" transform="translate(-20.456 -65.092)" fill="#1f4076"/>
    <path id="Tracé_3786" data-name="Tracé 3786" d="M95.212,106.423c-.258.143-9.608,11.318-10.874,13.562l-3.037-1.5a80.449,80.449,0,0,1,10.312-15.719C94.723,100.771,95.212,106.423,95.212,106.423Z" transform="translate(-23.119 -29.776)" fill="#fce15c"/>
    <path id="Tracé_3787" data-name="Tracé 3787" d="M106.7,144.28s9.72,4.013,9.963,6.017-3.25,12.73-3.25,12.73h-5.088s2.038-8.614,1.5-9.033-8.414-2.473-8.414-2.473L90.117,174.145,85.4,172.872l8.2-27.319Z" transform="translate(-25.973 -58.976)" fill="#1f4076"/>
    <path id="Tracé_3788" data-name="Tracé 3788" d="M89.771,173.95h-.039l-4.717-1.264a.158.158,0,0,1-.106-.191l8.2-27.319a.155.155,0,0,1,.131-.106l13.082-1.27a.152.152,0,0,1,.073,0c.4.164,9.814,4.07,10.054,6.139.234,2.014-3.113,12.347-3.256,12.785a.143.143,0,0,1-.143.1h-5.076a.146.146,0,0,1-.118-.055.155.155,0,0,1-.027-.131c.963-4.07,1.8-8.5,1.543-8.888-.365-.282-5.079-1.579-8.235-2.4L89.9,173.862A.149.149,0,0,1,89.771,173.95Zm-4.529-1.519,4.45,1.194,11.239-22.514a.152.152,0,0,1,.173-.079c.811.213,7.922,2.072,8.472,2.5s-.762,6.291-1.4,9h4.787c.358-1.112,3.42-10.707,3.208-12.554-.179-1.564-7.126-4.76-9.835-5.878l-12.943,1.258Z" transform="translate(-25.627 -58.639)" fill="#1f4076"/>
    <path id="Tracé_3789" data-name="Tracé 3789" d="M130.194,108.834l-11.044,2.041,2.734-16.314A6.523,6.523,0,0,1,124.9,93.37c1.613,0,2.989,1.245,3.53,1.555C129.432,95.508,130.194,108.834,130.194,108.834Z" transform="translate(-49.472 -23.53)" fill="#f2f1f7"/>
    <path id="Tracé_3790" data-name="Tracé 3790" d="M118.8,110.733a.155.155,0,0,1-.109-.046.152.152,0,0,1-.043-.134l2.734-16.311a.149.149,0,0,1,.061-.1,6.586,6.586,0,0,1,3.1-1.215h0a5.856,5.856,0,0,1,3.2,1.309c.158.112.3.21.4.267,1.011.583,1.7,11.779,1.822,14.018a.152.152,0,0,1-.125.158l-11.044,2.053Zm2.883-16.378-2.7,16.038,10.7-1.99c-.3-5.13-1-13.256-1.668-13.638-.112-.067-.255-.167-.422-.282a5.632,5.632,0,0,0-3.037-1.254h0a6.292,6.292,0,0,0-2.88,1.127Z" transform="translate(-49.119 -23.223)" fill="#1f4076"/>
    <path id="Tracé_3791" data-name="Tracé 3791" d="M111.244,93.62a13.067,13.067,0,0,0,.343,2.694c.249,2,.589,4.04.768,6.039.173,1.923-.58,3.973-.948,5.859a29.19,29.19,0,0,1-1.974,6.282,4.108,4.108,0,0,1-1.419,1.941,3.857,3.857,0,0,1-1.75.471,15.151,15.151,0,0,1-3.1-.058,2.88,2.88,0,0,1-1.133-.331,2.136,2.136,0,0,1-.826-2.178c.213-1.273,1.045-2.491,1.422-3.748a28.175,28.175,0,0,0,.838-4.043c.4-2.782.538-5.592.911-8.377C106.11,94.71,108.212,94.887,111.244,93.62Z" transform="translate(-36.951 -23.704)" fill="#fce15c"/>
    <path id="Tracé_3792" data-name="Tracé 3792" d="M148.348,94.564c.067.015,1.133,4.07,1.154,4.347.267,3.135-1.027,5.881.571,8.857.607,1.127,1.382,2.157,1.99,3.284a.656.656,0,0,1,.109.425.671.671,0,0,1-.361.386c-1.254.756-2.752,1.482-4.125.969a3.387,3.387,0,0,1-1.847-1.956,8.963,8.963,0,0,1-.519-2.706c-.325-4.113.064-8.177-.337-12.268,0-.106-.3-2.485-.352-2.491A22.3,22.3,0,0,0,148.348,94.564Z" transform="translate(-67.212 -23.558)" fill="#fce15c"/>
    <path id="Tracé_3793" data-name="Tracé 3793" d="M123.4,99.25l-.838.817.68.468s-.717,5.328-3.235,6.075a7.641,7.641,0,0,1-3.493.5l-1.388,1.8s2.157.607,2.312.668,4.726-1.015,5.446-3.848a29.427,29.427,0,0,0,.841-5.094l.456-.571Z" transform="translate(-46.673 -27.624)" fill="#1f4076"/>
    <path id="Tracé_3794" data-name="Tracé 3794" d="M126.5,104.108a.149.149,0,0,1-.122-.064l-2.126-2.892a.152.152,0,0,1,0-.2l1.276-1.315-1.592-.413a.155.155,0,0,1-.106-.106.152.152,0,0,1,.036-.146l1.959-2.084a.153.153,0,1,1,.222.21L124.271,99l1.595.416a.161.161,0,0,1,.109.106.152.152,0,0,1-.039.146l-1.364,1.412,2.038,2.8a.155.155,0,0,1-.033.213A.143.143,0,0,1,126.5,104.108Z" transform="translate(-52.724 -25.948)" fill="#5c6f99"/>
    <path id="Tracé_3795" data-name="Tracé 3795" d="M112.945,149.818a.152.152,0,0,1-.14-.091.158.158,0,0,1,.082-.2c1.264-.519,3.557-1.537,3.581-1.546a.152.152,0,0,1,.2.079.149.149,0,0,1-.079.2c-.021,0-2.321,1.03-3.587,1.552A.176.176,0,0,1,112.945,149.818Z" transform="translate(-45.047 -61.544)" fill="#5c6f99"/>
    <path id="Tracé_3796" data-name="Tracé 3796" d="M148.73,103.121a.131.131,0,0,1-.137-.2l1.309-2.907-1.652-.863a.158.158,0,0,1-.076-.094.143.143,0,0,1,.018-.122l1.012-1.613-1.343-.267a.149.149,0,0,1-.118-.176.155.155,0,0,1,.179-.121l1.558.3a.158.158,0,0,1,.109.091.152.152,0,0,1,0,.14l-1.054,1.665,1.634.854a.155.155,0,0,1,.067.2l-1.367,3.037A.149.149,0,0,1,148.73,103.121Z" transform="translate(-69.378 -25.884)" fill="#5c6f99"/>
    <path id="Tracé_3797" data-name="Tracé 3797" d="M121.916,69.011a4.708,4.708,0,0,1-4.4-.814,2.964,2.964,0,0,0,1.048-1.145,1.47,1.47,0,0,1-1.625,0,3.11,3.11,0,0,1-1.093-1.309,4.457,4.457,0,0,0,2.734-1.941,15.571,15.571,0,0,1,2.126-2.676,4.72,4.72,0,0,1,5.209-.453c.374.213,1.027.607,1.172,1.048.125.38-.121.629-.109,1,.018.492.258.738.134,1.273a4.532,4.532,0,0,1-.723,1.461,12.038,12.038,0,0,1-1.215,1.388A7.749,7.749,0,0,1,121.916,69.011Z" transform="translate(-47.174 -0.362)" fill="#f2f1f7"/>
    <path id="Tracé_3798" data-name="Tracé 3798" d="M120.125,69.026a5.009,5.009,0,0,1-3.037-1.069.152.152,0,0,1-.061-.128.14.14,0,0,1,.07-.121,2.807,2.807,0,0,0,.732-.671,1.759,1.759,0,0,1-1.306-.222,3.208,3.208,0,0,1-1.151-1.373.146.146,0,0,1,0-.137.149.149,0,0,1,.112-.082,4.149,4.149,0,0,0,2.624-1.88c.185-.246.361-.5.538-.756a9.276,9.276,0,0,1,1.625-1.944,4.9,4.9,0,0,1,5.385-.477c.456.261,1.084.662,1.239,1.133a1.039,1.039,0,0,1-.033.674,1.109,1.109,0,0,0-.067.371,1.822,1.822,0,0,0,.085.468,1.552,1.552,0,0,1,.046.844,4.723,4.723,0,0,1-.744,1.516,8.7,8.7,0,0,1-.954,1.112l-.282.3a7.852,7.852,0,0,1-3.341,2.22h0A5,5,0,0,1,120.125,69.026Zm-2.685-1.188a4.511,4.511,0,0,0,4.085.674h0a7.566,7.566,0,0,0,3.2-2.126l.286-.3a8.506,8.506,0,0,0,.911-1.072,4.4,4.4,0,0,0,.7-1.412,1.255,1.255,0,0,0-.046-.7,2.257,2.257,0,0,1-.094-.535,1.452,1.452,0,0,1,.079-.471.735.735,0,0,0,.036-.489c-.091-.276-.462-.607-1.1-.966a4.581,4.581,0,0,0-5.039.447,9.113,9.113,0,0,0-1.57,1.883c-.179.258-.358.516-.544.765a4.623,4.623,0,0,1-2.615,1.962,2.715,2.715,0,0,0,.942,1.069,1.321,1.321,0,0,0,1.455,0,.152.152,0,0,1,.228.191A3.11,3.11,0,0,1,117.44,67.839Z" transform="translate(-46.829)" fill="#1f4076"/>
    <path id="Tracé_3799" data-name="Tracé 3799" d="M151.474,78.59s.857,1.613.607,1.9-.911.021-.911.021" transform="translate(-71.766 -13.239)" fill="#f2f1f7"/>
    <path id="Tracé_3800" data-name="Tracé 3800" d="M151.422,80.435a1.734,1.734,0,0,1-.607-.128.152.152,0,0,1,.115-.279c.185.073.607.179.732.024a4.283,4.283,0,0,0-.635-1.737.152.152,0,1,1,.267-.143c.337.635.866,1.747.607,2.072A.586.586,0,0,1,151.422,80.435Z" transform="translate(-71.462 -12.891)" fill="#1f4076"/>
    <path id="Tracé_3801" data-name="Tracé 3801" d="M139.528,67.157c.586.583.264,3.007.191,3.721-.1,1.005-.231,2.011-.383,3.01-.094.635-1.747.489-2.02.27l.015,2.545a3.406,3.406,0,0,1-2.087-.607C133.969,75.349,134,75.04,134,75.04l.389-2.9a2.085,2.085,0,0,0,1.859-1.127,8.756,8.756,0,0,0,.936-3.238S138.954,66.589,139.528,67.157Z" transform="translate(-59.811 -5.172)" fill="#f2f1f7"/>
    <path id="Tracé_3802" data-name="Tracé 3802" d="M136.783,76.514a4,4,0,0,1-1.983-.635c-1.215-.714-1.337-1.078-1.33-1.2l.389-2.91a.155.155,0,0,1,.167-.131,1.942,1.942,0,0,0,1.716-1.054,8.587,8.587,0,0,0,.911-3.171.173.173,0,0,1,.067-.115c.194-.128,1.9-1.236,2.545-.607.522.519.425,2.126.258,3.645l-.021.191c-.106,1.008-.234,2.023-.383,3.016a.608.608,0,0,1-.434.468,2.873,2.873,0,0,1-1.586,0l.015,2.312a.149.149,0,0,1-.125.152A1.216,1.216,0,0,1,136.783,76.514Zm-3.007-1.822c.021.055.185.355,1.179.936a3.754,3.754,0,0,0,1.856.607l-.015-2.4a.152.152,0,0,1,.085-.137.155.155,0,0,1,.161.018,2.43,2.43,0,0,0,1.534.055c.146-.058.228-.134.243-.231.149-.99.276-2,.38-3l.021-.194c.088-.8.322-2.916-.17-3.4-.34-.34-1.443.173-2.1.608A8.626,8.626,0,0,1,136,70.779a2.3,2.3,0,0,1-1.856,1.2Z" transform="translate(-59.442 -4.821)" fill="#1f4076"/>
    <path id="Tracé_3803" data-name="Tracé 3803" d="M148.813,85.171a1.188,1.188,0,0,1-1.273-.881" transform="translate(-69.238 -17.208)" fill="#f2f1f7"/>
    <path id="Tracé_3804" data-name="Tracé 3804" d="M148.364,84.977a1.349,1.349,0,0,1-1.312-.99.155.155,0,0,1,.094-.194.152.152,0,0,1,.191.094,1.036,1.036,0,0,0,1.109.781.152.152,0,0,1,.17.131.149.149,0,0,1-.125.17A.859.859,0,0,1,148.364,84.977Z" transform="translate(-68.893 -16.856)" fill="#1f4076"/>
    <path id="Tracé_3805" data-name="Tracé 3805" d="M141.753,76.835a1.346,1.346,0,0,0-.216-.72,2.041,2.041,0,0,0-.319-.492.668.668,0,0,0-.529-.216.607.607,0,0,0-.425.273,1.194,1.194,0,0,0-.173.489,2.163,2.163,0,0,0,.814,2.008l-.052-.064" transform="translate(-64.038 -11.023)" fill="#f2f1f7"/>
    <path id="Tracé_3806" data-name="Tracé 3806" d="M140.563,77.95a.146.146,0,0,1-.091-.033,2.333,2.333,0,0,1-.872-2.154,1.306,1.306,0,0,1,.2-.547.765.765,0,0,1,.535-.34.8.8,0,0,1,.65.261,2.181,2.181,0,0,1,.349.529,1.519,1.519,0,0,1,.231.8.152.152,0,0,1-.3-.027,1.215,1.215,0,0,0-.2-.635,1.843,1.843,0,0,0-.3-.453.5.5,0,0,0-.4-.173.453.453,0,0,0-.3.21.984.984,0,0,0-.149.422,2.02,2.02,0,0,0,.641,1.774.149.149,0,0,1,.091.058l.052.064a.152.152,0,0,1-.015.2.143.143,0,0,1-.109.043Z" transform="translate(-63.695 -10.652)" fill="#1f4076"/>
    <path id="Tracé_3807" data-name="Tracé 3807" d="M142.229,88.332a2.7,2.7,0,0,1-1.172-.972,2.25,2.25,0,0,0,1.179,2.1Z" transform="translate(-64.723 -19.345)" fill="#1f4076"/>
    <path id="Tracé_3808" data-name="Tracé 3808" d="M141.884,89.3a.137.137,0,0,1-.061,0,2.377,2.377,0,0,1-1.27-2.254.152.152,0,0,1,.282-.067,2.573,2.573,0,0,0,1.1.911.152.152,0,0,1,.094.14v1.133a.146.146,0,0,1-.07.128A.152.152,0,0,1,141.884,89.3Zm-.993-1.759a1.932,1.932,0,0,0,.841,1.364V88.12a3.256,3.256,0,0,1-.841-.58Z" transform="translate(-64.373 -19.027)" fill="#1f4076"/>
    <ellipse id="Ellipse_378" data-name="Ellipse 378" cx="0.361" cy="0.143" rx="0.361" ry="0.143" transform="translate(78.97 64.912) rotate(-74.92)" fill="#1f4076"/>
    <line id="Ligne_115" data-name="Ligne 115" x1="0.671" y1="0.392" transform="translate(78.861 63.954)" fill="#fff"/>
    <path id="Tracé_3809" data-name="Tracé 3809" d="M149.672,74.168a.167.167,0,0,1-.076-.021l-.671-.392a.152.152,0,1,1,.152-.261l.671.389a.155.155,0,0,1,.055.21A.152.152,0,0,1,149.672,74.168Z" transform="translate(-70.141 -9.67)" fill="#1f4076"/>
    <line id="Ligne_116" data-name="Ligne 116" y1="5.659" x2="5.006" transform="translate(65.137 78.731)" fill="#fff"/>
    <path id="Tracé_3810" data-name="Tracé 3810" d="M103.849,128.119a.14.14,0,0,1-.1-.039.149.149,0,0,1-.015-.213l5.009-5.659a.149.149,0,0,1,.213,0,.155.155,0,0,1,0,.216l-4.994,5.644A.155.155,0,0,1,103.849,128.119Z" transform="translate(-38.712 -43.577)" fill="#5c6f99"/>
    <path id="Tracé_3820" data-name="Tracé 3820" d="M68.86,185.075H48.782a.152.152,0,1,1,0-.3H68.708v-5.3a.152.152,0,0,1,.152-.152h13.4v-6.9a.152.152,0,0,1,.152-.152h15.13v-10.68a.152.152,0,0,1,.152-.152h12.627v-7.779a.152.152,0,0,1,.152-.152h2.793a.152.152,0,1,1,0,.3h-2.641v7.785a.152.152,0,0,1-.152.152H97.84v10.68a.152.152,0,0,1-.152.152H82.559v6.9a.155.155,0,0,1-.152.152h-13.4v5.316A.152.152,0,0,1,68.86,185.075Z" transform="translate(-0.372 -65.395)" fill="#1f4076"/>
    <path id="Tracé_3821" data-name="Tracé 3821" d="M158.451,112.258h-.033a.155.155,0,0,1-.115-.182c0-.049,1.094-4.805.377-7.8a.156.156,0,0,1,.3-.07c.732,3.068-.328,7.743-.374,7.94A.155.155,0,0,1,158.451,112.258Z" transform="translate(-76.729 -30.988)" fill="#5c6f99"/>
    <path id="Tracé_3822" data-name="Tracé 3822" d="M201.484,118.869a.152.152,0,0,1-.067-.286.769.769,0,0,0,.34-.608.911.911,0,0,1,0-.513.152.152,0,0,1,.158-.1.158.158,0,0,1,.137.134,2.452,2.452,0,0,1,0,.44l.021.033a.447.447,0,0,0,.377.143.149.149,0,0,0,.149-.061c.155-.231-.076-1.008-.3-1.482a.153.153,0,1,1,.279-.125c.1.216.565,1.321.267,1.774a.459.459,0,0,1-.41.2.89.89,0,0,1-.459-.118.911.911,0,0,1-.447.574A.146.146,0,0,1,201.484,118.869Z" transform="translate(-106.695 -39.531)" fill="#1f4076"/>
  </g>
</svg>
