<svg xmlns="http://www.w3.org/2000/svg" width="40.54" height="59.538" viewBox="0 0 40.54 59.538">
  <g id="Super_Dad_Flatline" data-name="Super Dad_Flatline" transform="translate(-117.601 -23.513)">
    <path id="Tracé_4056" data-name="Tracé 4056" d="M193.85,237.191l1.094,4.071h2.921l-.461-4.672Z" transform="translate(-57.55 -160.82)" fill="#f2f1f7"/>
    <path id="Tracé_4057" data-name="Tracé 4057" d="M197.477,240.995h-2.921a.123.123,0,0,1-.12-.093l-1.1-4.069a.132.132,0,0,1,.017-.1.115.115,0,0,1,.086-.056l3.551-.6a.118.118,0,0,1,.1.025.127.127,0,0,1,.049.088l.464,4.66a.14.14,0,0,1-.032.1A.127.127,0,0,1,197.477,240.995Zm-2.823-.245h2.683l-.434-4.4-3.281.557Z" transform="translate(-57.162 -160.428)" fill="#1f4076"/>
    <path id="Tracé_4058" data-name="Tracé 4058" d="M197.59,252.94l3.026.179s4.113,2.568,3.811,2.779a65.156,65.156,0,0,1-6.531-.159Z" transform="translate(-60.372 -173.161)" fill="#5c6f99"/>
    <path id="Tracé_4059" data-name="Tracé 4059" d="M203.021,255.69c-1.589,0-4.439-.155-5.511-.218a.123.123,0,0,1-.115-.108l-.307-2.786a.13.13,0,0,1,.034-.1.14.14,0,0,1,.1-.039l3.026.179a.12.12,0,0,1,.056.02c1.449.9,3.88,2.475,3.885,2.84a.159.159,0,0,1-.071.135A3.885,3.885,0,0,1,203.021,255.69Zm-5.4-.456c2.207.128,5.609.277,6.266.191a31,31,0,0,0-3.7-2.563l-2.85-.169Z" transform="translate(-59.994 -172.783)" fill="#5c6f99"/>
    <path id="Tracé_4060" data-name="Tracé 4060" d="M159.808,237.191l-.917,4.071H155.97l.522-4.672Z" transform="translate(-28.96 -160.82)" fill="#f2f1f7"/>
    <path id="Tracé_4061" data-name="Tracé 4061" d="M158.52,240.994h-2.914a.128.128,0,0,1-.1-.042.132.132,0,0,1-.032-.1l.52-4.672a.132.132,0,0,1,.051-.088.123.123,0,0,1,.1-.022l3.316.6a.12.12,0,0,1,.083.054.137.137,0,0,1,.017.1l-.915,4.069A.13.13,0,0,1,158.52,240.994Zm-2.779-.245h2.678l.866-3.848-3.053-.557Z" transform="translate(-28.588 -160.428)" fill="#1f4076"/>
    <path id="Tracé_4062" data-name="Tracé 4062" d="M141.6,92.46c1.388.135,2.734.574,4.123.736a5.073,5.073,0,0,0,3.961-.925c.939-.817,1.386-2.121,2.413-2.823,1.56-1.067,3.679-.309,5.552-.49a6.563,6.563,0,0,0,4.785-3.127,20.91,20.91,0,0,1,4.127-5.371A4.035,4.035,0,0,0,167.67,79.2c-.184.392-5.234-1.116-5.724-1.361-1.606-.8-3.22-1.886-4.777-2.82-3.132-1.891-6.188-4.037-9.714-5.008a15.855,15.855,0,0,0-7.274-.262,7.887,7.887,0,0,0-5.02,2.818c-1.66,2.345-.856,4.979-.861,7.6a33.868,33.868,0,0,1-1.1,8.549,8.924,8.924,0,0,1-1.516,3.433c2.239,1.594,4.387,1.1,6.82.52a9.5,9.5,0,0,1,3.1-.213Z" transform="translate(-10.627 -34.669)" fill="#5c6f99"/>
    <path id="Tracé_4063" data-name="Tracé 4063" d="M146.276,92.992a7.846,7.846,0,0,1-.929-.056c-.67-.076-1.337-.221-1.982-.358a18.4,18.4,0,0,0-2.139-.375,9.354,9.354,0,0,0-3.053.211c-2.374.564-4.618,1.1-6.916-.54a.118.118,0,0,1-.051-.081.115.115,0,0,1,.027-.093,9,9,0,0,0,1.491-3.384,33.768,33.768,0,0,0,1.1-8.517c0-.65-.047-1.31-.1-1.947-.145-1.935-.294-3.936.981-5.734a8.082,8.082,0,0,1,5.1-2.867,15.941,15.941,0,0,1,7.333.265,31.93,31.93,0,0,1,8.093,4c.549.338,1.1.677,1.648,1.008.449.27.9.552,1.361.836,1.116.694,2.269,1.413,3.409,1.982.226.113,1.535.527,2.823.876,2.291.616,2.7.544,2.747.522a.123.123,0,0,1,.15-.039.12.12,0,0,1,.059.162,3.887,3.887,0,0,1-1.033,1.2l-.108.1a20.849,20.849,0,0,0-4.1,5.341,6.7,6.7,0,0,1-4.878,3.188,12.134,12.134,0,0,1-2-.029,5.324,5.324,0,0,0-3.495.505A5.491,5.491,0,0,0,150.5,90.64a6.867,6.867,0,0,1-1.094,1.337A4.685,4.685,0,0,1,146.276,92.992Zm-5.94-1.077c.3,0,.611.015.912.044h0a19.15,19.15,0,0,1,2.168.378c.638.137,1.3.28,1.962.356a5.033,5.033,0,0,0,3.87-.893,6.7,6.7,0,0,0,1.052-1.29,5.692,5.692,0,0,1,1.371-1.545,5.52,5.52,0,0,1,3.649-.544,12.192,12.192,0,0,0,1.962.029,6.443,6.443,0,0,0,4.684-3.061,20.975,20.975,0,0,1,4.152-5.4l.108-.093a4.638,4.638,0,0,0,.841-.888,29.393,29.393,0,0,1-5.535-1.435c-1.148-.574-2.308-1.295-3.433-1.991-.456-.285-.91-.567-1.359-.836-.549-.331-1.1-.67-1.648-1.01a31.635,31.635,0,0,0-8.029-3.975,15.715,15.715,0,0,0-7.218-.26,7.888,7.888,0,0,0-4.947,2.769c-1.214,1.714-1.082,3.6-.934,5.572.049.643.1,1.31.1,1.962a34.03,34.03,0,0,1-1.109,8.584,9.276,9.276,0,0,1-1.457,3.372c2.17,1.471,4.233.981,6.622.427A9.6,9.6,0,0,1,140.336,91.915Z" transform="translate(-10.268 -34.289)" fill="#5c6f99"/>
    <path id="Tracé_4064" data-name="Tracé 4064" d="M122.457,105.151a22.905,22.905,0,0,1-1.126,5,8.479,8.479,0,0,1-3.021,4.051,12.88,12.88,0,0,0,5.474,2.1,68.46,68.46,0,0,0,1.082-12.508q0-1.525-.083-3.048c-.037-.75.159-2.5-.228-3.144-.567-.937-1.006.662-1.226,1.373A41.749,41.749,0,0,0,122.457,105.151Z" transform="translate(-0.535 -55.699)" fill="#f2f1f7"/>
    <path id="Tracé_4065" data-name="Tracé 4065" d="M123.378,116.081h-.017a13,13,0,0,1-5.533-2.119.128.128,0,0,1,0-.211,8.43,8.43,0,0,0,2.975-3.99,22.556,22.556,0,0,0,1.118-4.969h0c.091-.657.154-1.346.216-2.013a20.913,20.913,0,0,1,.662-4.169l.034-.108c.245-.836.51-1.589.917-1.641q.272-.034.491.346a5.4,5.4,0,0,1,.245,2.421c0,.314-.015.584,0,.785.049,1.008.078,2.036.083,3.051a68.8,68.8,0,0,1-1.084,12.522A.128.128,0,0,1,123.378,116.081Zm-5.248-2.227a12.728,12.728,0,0,0,5.15,1.962,68.511,68.511,0,0,0,1.059-12.356c0-1.013-.034-2.038-.083-3.041-.012-.211,0-.49,0-.8a5.566,5.566,0,0,0-.218-2.286c-.091-.152-.179-.245-.245-.223-.277.034-.579,1.032-.709,1.471l-.032.108a20.979,20.979,0,0,0-.655,4.125c-.061.67-.123,1.364-.216,2.026h0a22.777,22.777,0,0,1-1.133,5.025A8.718,8.718,0,0,1,118.13,113.854Zm3.924-9.045Z" transform="translate(-0.13 -55.357)" fill="#5c6f99"/>
    <path id="Tracé_4066" data-name="Tracé 4066" d="M155.944,130.033l-1.584,28.24h4.351L161.4,138.1v-8.7Z" transform="translate(-27.744 -79.918)" fill="#1f4076"/>
    <path id="Tracé_4067" data-name="Tracé 4067" d="M158.333,158.016h-4.351a.122.122,0,0,1-.123-.128l1.584-28.23a.12.12,0,0,1,.108-.113l5.454-.647a.125.125,0,0,1,.1.029.13.13,0,0,1,.039.093v8.7l-2.7,20.186A.125.125,0,0,1,158.333,158.016Zm-4.221-.245h4.115l2.671-20.064v-8.539l-5.216.606Z" transform="translate(-27.366 -79.539)" fill="#1f4076"/>
    <path id="Tracé_4068" data-name="Tracé 4068" d="M187.9,130.033l1.584,28.24h-4.351L182.45,138.1v-8.7Z" transform="translate(-48.945 -79.918)" fill="#1f4076"/>
    <path id="Tracé_4069" data-name="Tracé 4069" d="M189.149,158.016H184.8a.12.12,0,0,1-.12-.105L182,137.751V129.02a.122.122,0,0,1,.042-.093.125.125,0,0,1,.1-.029l5.452.635a.118.118,0,0,1,.108.113l1.584,28.243a.125.125,0,0,1-.032.091.12.12,0,0,1-.1.037Zm-4.245-.245h4.115l-1.572-28.01-5.2-.594v8.566Z" transform="translate(-48.606 -79.539)" fill="#1f4076"/>
    <path id="Tracé_4070" data-name="Tracé 4070" d="M133.885,116.88s3.966,3.679,4.169,4.015a6.994,6.994,0,0,1,.557.758,14.375,14.375,0,0,1-.292,3.159.75.75,0,0,1-.123.341.674.674,0,0,1-.694.137,2.288,2.288,0,0,1-1.025-.552c-.108-.1-.208-.28-.1-.383a.289.289,0,0,1,.245-.049l.471.047a1.5,1.5,0,0,1-.562-.834,1.072,1.072,0,0,1,.245-.956c-.262-.191-1.241-1.015-1.5-1.246-.517-.461-1.05-.9-1.56-1.371l-2.043-1.874Z" transform="translate(-10.619 -70.469)" fill="#f2f1f7"/>
    <path id="Tracé_4071" data-name="Tracé 4071" d="M137.4,125.033a1.193,1.193,0,0,1-.3-.039,2.4,2.4,0,0,1-1.084-.584.559.559,0,0,1-.186-.358.287.287,0,0,1,.081-.206.419.419,0,0,1,.351-.083h.105a1.523,1.523,0,0,1-.331-.643,1.226,1.226,0,0,1,.177-.964c-.356-.28-1.167-.964-1.4-1.172s-.422-.37-.633-.554c-.307-.265-.625-.54-.929-.819l-2.043-1.874a.13.13,0,0,1,.025-.206l2.207-1.189a.128.128,0,0,1,.147.017c.407.378,3.985,3.7,4.2,4.042a2.487,2.487,0,0,0,.231.3,2.018,2.018,0,0,1,.334.476,14.6,14.6,0,0,1-.282,3.235.864.864,0,0,1-.147.395.645.645,0,0,1-.522.231Zm-1.226-1.025a.13.13,0,0,0-.076.017.272.272,0,0,0,.1.2,2.139,2.139,0,0,0,.981.522c.125.029.429.081.567-.093a.669.669,0,0,0,.1-.284,16.156,16.156,0,0,0,.3-3.085,1.805,1.805,0,0,0-.294-.414,3.06,3.06,0,0,1-.245-.326c-.147-.245-2.5-2.452-4.091-3.924l-1.977,1.064,1.913,1.754c.3.277.618.549.922.814.213.184.427.368.638.554.26.233,1.226,1.05,1.489,1.241a.12.12,0,0,1,.052.088.13.13,0,0,1-.034.1.954.954,0,0,0-.2.844,1.373,1.373,0,0,0,.515.76.127.127,0,0,1-.088.228l-.471-.049Z" transform="translate(-10.239 -70.05)" fill="#1f4076"/>
    <path id="Tracé_4072" data-name="Tracé 4072" d="M210.623,116.88s-3.968,3.679-4.181,4.015a7,7,0,0,0-.557.758,14.378,14.378,0,0,0,.292,3.159.751.751,0,0,0,.123.341.674.674,0,0,0,.694.137,2.276,2.276,0,0,0,1.025-.552c.11-.1.208-.28.1-.383a.289.289,0,0,0-.245-.049l-.471.047a1.491,1.491,0,0,0,.562-.834,1.069,1.069,0,0,0-.233-.956c.26-.191,1.226-1.015,1.5-1.246.517-.461,1.05-.9,1.56-1.371l2.043-1.874Z" transform="translate(-66.607 -70.469)" fill="#f2f1f7"/>
    <path id="Tracé_4073" data-name="Tracé 4073" d="M206.355,125.062a.645.645,0,0,1-.527-.221.893.893,0,0,1-.147-.395,14.6,14.6,0,0,1-.282-3.235,2.019,2.019,0,0,1,.334-.476,2.484,2.484,0,0,0,.231-.3c.216-.346,3.794-3.664,4.2-4.042a.123.123,0,0,1,.145-.017l2.207,1.189a.13.13,0,0,1,.064.1.125.125,0,0,1-.039.11L210.5,119.65c-.3.28-.62.554-.929.819-.211.184-.424.368-.633.554s-1.047.893-1.4,1.172a1.226,1.226,0,0,1,.177.964,1.518,1.518,0,0,1-.329.643h.1a.41.41,0,0,1,.351.083.277.277,0,0,1,.081.206.559.559,0,0,1-.186.358,2.4,2.4,0,0,1-1.084.584A1.193,1.193,0,0,1,206.355,125.062Zm3.924-8.417c-1.592,1.471-3.946,3.679-4.093,3.924a3.038,3.038,0,0,1-.245.326,1.667,1.667,0,0,0-.294.414,15.952,15.952,0,0,0,.3,3.085.637.637,0,0,0,.1.284c.142.179.468.118.566.093a2.138,2.138,0,0,0,.981-.522.309.309,0,0,0,.108-.179c-.032-.047-.12-.037-.154-.034l-.471.049a.13.13,0,0,1-.13-.081.128.128,0,0,1,.042-.147,1.374,1.374,0,0,0,.515-.76.947.947,0,0,0-.2-.844.13.13,0,0,1-.034-.1.127.127,0,0,1,.051-.088c.245-.191,1.226-1.008,1.489-1.241.211-.186.424-.37.638-.554.3-.265.62-.537.922-.814l1.913-1.753Z" transform="translate(-66.236 -70.08)" fill="#1f4076"/>
    <path id="Tracé_4074" data-name="Tracé 4074" d="M117.62,77.722c.441-1.079,7.112-8.584,9.074-9.513s6.7-.26,6.7-.26h.537s4.743-.672,6.705.26,8.63,8.434,9.074,9.513-7.1,7.193-7.1,7.193l-2.07-2.072,4.66-5.17-3.532-1.766s-2.107,5.592-2.3,8.532h-11.4c-.2-2.943-2.3-8.532-2.3-8.532l-3.532,1.766,4.336,4.625-2.087,2.617S117.179,78.8,117.62,77.722Z" transform="translate(0 -33.361)" fill="#fce15c"/>
    <path id="Tracé_4075" data-name="Tracé 4075" d="M195.171,66.323a109.567,109.567,0,0,0,11.634,7,4.734,4.734,0,0,0,2.987.709,7.416,7.416,0,0,1-5.719,1.636,8.473,8.473,0,0,1-5.241-2.9,8.444,8.444,0,0,0-1.78-1.859,10.515,10.515,0,0,0-1.758-.7,6.347,6.347,0,0,1-2.766-2.077A12.513,12.513,0,0,0,191,66.108a2.4,2.4,0,0,0-2.641-.275,9.749,9.749,0,0,0-2.161.694s1.361-.863,1.3-1.653a8.484,8.484,0,0,1,0-1.4,21.82,21.82,0,0,1,2.965.387,12.22,12.22,0,0,1,3.941,1.962Z" transform="translate(-51.776 -30.144)" fill="#f2f1f7"/>
    <path id="Tracé_4076" data-name="Tracé 4076" d="M204.669,75.434a7.357,7.357,0,0,1-.981-.064,8.615,8.615,0,0,1-5.322-2.943c-.135-.159-.265-.321-.395-.49a4.136,4.136,0,0,0-2.531-1.842c-.189-.061-.378-.125-.564-.2a6.452,6.452,0,0,1-2.811-2.121c-.174-.231-.336-.478-.49-.716a6.224,6.224,0,0,0-1.015-1.29,2.262,2.262,0,0,0-2.519-.245c-.218.069-.459.125-.709.186a4.838,4.838,0,0,0-1.422.49h0a.128.128,0,0,1-.174-.039.125.125,0,0,1,.037-.174c.015,0,1.295-.836,1.241-1.538a8.587,8.587,0,0,1,0-1.425.145.145,0,0,1,.056-.1,18.164,18.164,0,0,1,3.063.375,12.554,12.554,0,0,1,3.983,1.962l.755.508h0A110.317,110.317,0,0,0,206.5,72.768a4.587,4.587,0,0,0,2.9.7.128.128,0,0,1,.108.221,7.519,7.519,0,0,1-4.839,1.746Zm-15.37-10.4a2.063,2.063,0,0,1,1.432.567,6.545,6.545,0,0,1,1.059,1.341c.152.233.311.476.49.7a6.261,6.261,0,0,0,2.7,2.038c.181.071.365.132.552.2a4.373,4.373,0,0,1,2.646,1.923c.13.162.258.321.39.476a8.363,8.363,0,0,0,5.15,2.857,7.357,7.357,0,0,0,5.275-1.332,5.719,5.719,0,0,1-2.617-.775,110.283,110.283,0,0,1-11.649-7.012l-.758-.505a12.145,12.145,0,0,0-3.9-1.94c-.257-.059-2.359-.395-2.815-.395a9.224,9.224,0,0,0,0,1.285,1.669,1.669,0,0,1-.628,1.194c.208-.061.424-.113.638-.162s.49-.115.689-.184A4.429,4.429,0,0,1,189.3,65.033Z" transform="translate(-51.41 -29.729)" fill="#5c6f99"/>
    <path id="Tracé_4077" data-name="Tracé 4077" d="M146.2,66.452a5.268,5.268,0,0,1,3.041-1.18,15.8,15.8,0,0,1,5,1.18s-1.062-.763-1-1.552.115-1.55.115-1.55a15.531,15.531,0,0,0-5.064,1.074C146.433,65.361,146.2,66.452,146.2,66.452Z" transform="translate(-21.586 -30.067)" fill="#f2f1f7"/>
    <path id="Tracé_4078" data-name="Tracé 4078" d="M153.827,66.207a.106.106,0,0,1-.047,0c-.032,0-3.151-1.268-4.959-1.17a5.185,5.185,0,0,0-2.963,1.145.128.128,0,0,1-.147.017.125.125,0,0,1-.061-.137c0-.047.275-1.165,2.168-2.116a15.174,15.174,0,0,1,5.118-1.086.128.128,0,0,1,.132.135s-.054.763-.115,1.552c-.056.711.937,1.432.947,1.44a.128.128,0,0,1-.074.231Zm-4.8-1.44a14.663,14.663,0,0,1,4.221.956,1.709,1.709,0,0,1-.544-1.207c.047-.581.086-1.15.105-1.408a14.831,14.831,0,0,0-4.873,1.055,4.428,4.428,0,0,0-1.827,1.506,5.462,5.462,0,0,1,2.7-.9Z" transform="translate(-21.168 -29.697)" fill="#5c6f99"/>
    <path id="Tracé_4079" data-name="Tracé 4079" d="M176.781,29.129s1-2.421.51-3-.777-.334-.777-.334.491-.422-.245-1.042a6.519,6.519,0,0,0-4.856-.419l.27.464a7.519,7.519,0,0,0-1.226.334l.633.334s-.3.11-.633.753.186,3.806.186,3.806S175.9,30.414,176.781,29.129Z" transform="translate(-39.809 -0.405)" fill="#f2f1f7"/>
    <path id="Tracé_4080" data-name="Tracé 4080" d="M172,29.806c-.932,0-1.653-.052-1.731-.059a.123.123,0,0,1-.115-.105c-.054-.326-.515-3.223-.174-3.885a2.278,2.278,0,0,1,.49-.682l-.446-.233a.123.123,0,0,1-.066-.1.128.128,0,0,1,.044-.113,4.839,4.839,0,0,1,1.116-.324l-.181-.314a.125.125,0,0,1,0-.1.128.128,0,0,1,.071-.076c1.422-.589,4.186-.245,4.986.441a1.052,1.052,0,0,1,.449.765.628.628,0,0,1-.032.2,1.067,1.067,0,0,1,.618.424c.522.616-.385,2.869-.491,3.124a.076.076,0,0,1-.012.025C175.929,29.646,173.636,29.806,172,29.806Zm-1.619-.3c1.506.1,5.216.135,5.913-.839.375-.91.844-2.479.525-2.855s-.53-.365-.6-.314a.13.13,0,0,1-.174-.022.125.125,0,0,1,.015-.174.4.4,0,0,0,.115-.28.836.836,0,0,0-.361-.569A6.543,6.543,0,0,0,171.223,24l.194.338a.135.135,0,0,1,0,.115.128.128,0,0,1-.091.071c-.336.069-.709.157-.944.226l.387.2a.123.123,0,0,1,.066.12.125.125,0,0,1-.081.11s-.265.115-.564.694A12.389,12.389,0,0,0,170.379,29.5Zm6.026-.777Z" transform="translate(-39.437 0)" fill="#1f4076"/>
    <path id="Tracé_4081" data-name="Tracé 4081" d="M192.41,43.714c.164-1.02,1.859-1.273,1.773-.069a1.754,1.754,0,0,1-.451,1.128,1.05,1.05,0,0,1-1.135.265" transform="translate(-56.463 -14.588)" fill="#f2f1f7"/>
    <path id="Tracé_4082" data-name="Tracé 4082" d="M192.545,44.757a.981.981,0,0,1-.4-.083.133.133,0,1,1,.1-.245.932.932,0,0,0,1-.245,1.67,1.67,0,0,0,.414-1.05.545.545,0,0,0-.49-.662.966.966,0,0,0-1.037.76.125.125,0,0,1-.145.105.13.13,0,0,1-.105-.147,1.209,1.209,0,0,1,1.317-.981.79.79,0,0,1,.709.932,1.91,1.91,0,0,1-.49,1.209A1.243,1.243,0,0,1,192.545,44.757Z" transform="translate(-56.058 -14.105)" fill="#1f4076"/>
    <path id="Tracé_4083" data-name="Tracé 4083" d="M169.734,43.714c-.162-1.02-1.857-1.273-1.773-.069a1.78,1.78,0,0,0,.451,1.128,1.05,1.05,0,0,0,1.135.265" transform="translate(-38.007 -14.588)" fill="#f2f1f7"/>
    <path id="Tracé_4084" data-name="Tracé 4084" d="M168.761,44.849a1.241,1.241,0,0,1-.873-.378,1.893,1.893,0,0,1-.49-1.209.787.787,0,0,1,.709-.932,1.212,1.212,0,0,1,1.315.981.125.125,0,0,1-.105.147.128.128,0,0,1-.145-.105.964.964,0,0,0-1.035-.76.55.55,0,0,0-.49.662,1.675,1.675,0,0,0,.417,1.05.927.927,0,0,0,.981.245.125.125,0,0,1,.167.064.128.128,0,0,1-.064.169A.981.981,0,0,1,168.761,44.849Z" transform="translate(-37.574 -14.197)" fill="#1f4076"/>
    <path id="Tracé_4085" data-name="Tracé 4085" d="M175.81,55.121a1.942,1.942,0,0,0,1.8,1,2.158,2.158,0,0,0,1.879-1l-.056-.714-.137-1.658-.125-1.55h-3.046l-.1,1.268-.032.4Z" transform="translate(-43.934 -20.897)" fill="#f2f1f7"/>
    <path id="Tracé_4086" data-name="Tracé 4086" d="M177.212,55.845a2.05,2.05,0,0,1-1.91-1.072.13.13,0,0,1-.012-.061l.311-3.924a.128.128,0,0,1,.125-.118h3.053a.13.13,0,0,1,.128.118l.311,3.924a.176.176,0,0,1-.015.071A2.276,2.276,0,0,1,177.212,55.845Zm-1.668-1.15a1.817,1.817,0,0,0,1.668.9,2.023,2.023,0,0,0,1.749-.9l-.309-3.767h-2.808Z" transform="translate(-43.541 -20.497)" fill="#1f4076"/>
    <path id="Tracé_4087" data-name="Tracé 4087" d="M176.53,56.74a2.747,2.747,0,0,0,1,.88,4.294,4.294,0,0,0,2.438.65l-.137-1.648a7.407,7.407,0,0,1-1.761,0,5.1,5.1,0,0,1-1.518-.292Z" transform="translate(-44.477 -24.769)" fill="#1f4076"/>
    <path id="Tracé_4088" data-name="Tracé 4088" d="M179.267,58.088a4.965,4.965,0,0,1-2.192-.689,2.781,2.781,0,0,1-1.047-.922A.125.125,0,0,1,176,56.4l.029-.41a.12.12,0,0,1,.059-.1.118.118,0,0,1,.11,0,5,5,0,0,0,1.471.284,7.2,7.2,0,0,0,1.763-.025.13.13,0,0,1,.093.027.123.123,0,0,1,.044.086l.132,1.658a.123.123,0,0,1-.1.13A2.011,2.011,0,0,1,179.267,58.088Zm-3.012-1.717a2.6,2.6,0,0,0,.939.8,4.389,4.389,0,0,0,2.246.65l-.113-1.413a7.814,7.814,0,0,1-1.66,0,5.714,5.714,0,0,1-1.4-.245Z" transform="translate(-44.077 -24.432)" fill="#1f4076"/>
    <path id="Tracé_4089" data-name="Tracé 4089" d="M175.722,40.513H176a2.34,2.34,0,0,0,2.337-2.34v-3.7l-2.7.67-2.256-.67v3.7a2.34,2.34,0,0,0,2.342,2.34Z" transform="translate(-42.1 -8.27)" fill="#f2f1f7"/>
    <path id="Tracé_4090" data-name="Tracé 4090" d="M175.619,40.253h-.275a2.47,2.47,0,0,1-2.465-2.467v-3.7a.127.127,0,0,1,.051-.1.12.12,0,0,1,.11-.02l2.227.657,2.658-.652a.123.123,0,0,1,.108.025.12.12,0,0,1,.049.1v3.7A2.47,2.47,0,0,1,175.619,40.253Zm-2.487-6v3.534a2.207,2.207,0,0,0,2.207,2.207h.275a2.207,2.207,0,0,0,2.207-2.207V34.244l-2.526.63a.123.123,0,0,1-.066,0Z" transform="translate(-41.722 -7.882)" fill="#1f4076"/>
    <path id="Tracé_4091" data-name="Tracé 4091" d="M181.594,45.825a2.844,2.844,0,0,1-.343-.02.211.211,0,0,1-.159-.105c-.184-.307.245-1.471.373-1.812a.131.131,0,0,1,.245.091,4.421,4.421,0,0,0-.4,1.579,2.97,2.97,0,0,0,.625,0,.125.125,0,1,1,.032.245A2.943,2.943,0,0,1,181.594,45.825ZM181.309,45.579Z" transform="translate(-47.886 -15.313)" fill="#1f4076"/>
    <path id="Tracé_4092" data-name="Tracé 4092" d="M178.3,51.78a2.611,2.611,0,0,1-1.741-.922.128.128,0,1,1,.194-.164,2.379,2.379,0,0,0,1.6.831,1.655,1.655,0,0,0,1.248-.822.125.125,0,0,1,.177-.029.123.123,0,0,1,.029.174,1.884,1.884,0,0,1-1.444.929Z" transform="translate(-44.473 -20.474)" fill="#1f4076"/>
    <path id="Tracé_4093" data-name="Tracé 4093" d="M177.445,41.412a.13.13,0,0,1-.086-.032.4.4,0,0,0-.576,0,.128.128,0,0,1-.179,0,.125.125,0,0,1,0-.179.645.645,0,0,1,.929,0,.128.128,0,0,1-.083.221Z" transform="translate(-44.505 -13.201)" fill="#1f4076"/>
    <path id="Tracé_4094" data-name="Tracé 4094" d="M186.381,41.412a.123.123,0,0,1-.083-.032.4.4,0,0,0-.579,0,.128.128,0,0,1-.179,0,.13.13,0,0,1,0-.179.647.647,0,0,1,.932,0,.128.128,0,0,1,0,.179.132.132,0,0,1-.091.032Z" transform="translate(-51.251 -13.2)" fill="#1f4076"/>
    <path id="Tracé_4095" data-name="Tracé 4095" d="M215.341,95.881a.123.123,0,0,1-.091-.039.13.13,0,0,1,0-.179,3.978,3.978,0,0,0,.912-1.562.128.128,0,0,1,.157-.086.123.123,0,0,1,.088.154,4.186,4.186,0,0,1-.981,1.675A.125.125,0,0,1,215.341,95.881Z" transform="translate(-73.674 -53.208)" fill="#5c6f99"/>
    <path id="Tracé_4096" data-name="Tracé 4096" d="M147.176,94.609a.123.123,0,0,1-.081-.032,4.553,4.553,0,0,1-.981-2.089.128.128,0,0,1,.245-.071,4.449,4.449,0,0,0,.907,1.962.125.125,0,0,1,0,.177A.123.123,0,0,1,147.176,94.609Z" transform="translate(-21.517 -51.935)" fill="#5c6f99"/>
    <path id="Tracé_4098" data-name="Tracé 4098" d="M179.627,75.359a1.923,1.923,0,0,1-1.028-.321.128.128,0,0,1,.152-.2,1.432,1.432,0,0,0,1.9-.2.126.126,0,0,1,.181.174,1.646,1.646,0,0,1-1.209.554Z" transform="translate(-46.007 -38.552)" fill="#5c6f99"/>
    <path id="Tracé_4099" data-name="Tracé 4099" d="M147.519,252.94l-3.026.179s-4.113,2.568-3.811,2.779a65.157,65.157,0,0,0,6.531-.159Z" transform="translate(-17.408 -173.161)" fill="#5c6f99"/>
    <path id="Tracé_4100" data-name="Tracé 4100" d="M141.335,255.69a3.907,3.907,0,0,1-1.1-.076.164.164,0,0,1-.069-.135c0-.365,2.435-1.935,3.885-2.84a.12.12,0,0,1,.056-.02l3.026-.179a.135.135,0,0,1,.1.039.12.12,0,0,1,.032.1l-.3,2.786a.123.123,0,0,1-.115.108C145.769,255.535,142.924,255.69,141.335,255.69Zm-.876-.262c.633.086,4.059-.066,6.268-.194l.28-2.541-2.85.169A30.976,30.976,0,0,0,140.459,255.427Z" transform="translate(-17.034 -172.783)" fill="#5c6f99"/>
    <path id="Tracé_4101" data-name="Tracé 4101" d="M158.753,142.056h0a.128.128,0,0,1-.123-.13l.179-6.4a.13.13,0,0,1,.13-.123.125.125,0,0,1,.123.13l-.182,6.394a.128.128,0,0,1-.128.132Z" transform="translate(-30.967 -84.447)" fill="#f2f1f7"/>
    <path id="Tracé_4102" data-name="Tracé 4102" d="M162.98,141.087a.128.128,0,0,1-.12-.086.125.125,0,0,1,.081-.159c1.14-.373,1.226-2.34,1.226-2.359a.135.135,0,0,1,.132-.123.125.125,0,0,1,.12.13c0,.088-.091,2.166-1.4,2.592Z" transform="translate(-34.155 -86.681)" fill="#f2f1f7"/>
    <path id="Tracé_4103" data-name="Tracé 4103" d="M199.414,141.1h-.039c-1.3-.427-1.393-2.5-1.4-2.592a.125.125,0,0,1,.123-.13h0a.128.128,0,0,1,.125.123c0,.02.083,1.986,1.226,2.359a.125.125,0,0,1,.081.159A.128.128,0,0,1,199.414,141.1Z" transform="translate(-60.666 -86.696)" fill="#f2f1f7"/>
    <path id="Tracé_4104" data-name="Tracé 4104" d="M182.692,144.182a.128.128,0,0,1-.128-.128V138.38a.128.128,0,1,1,.245,0v5.67a.125.125,0,0,1-.118.132Z" transform="translate(-49.028 -86.573)" fill="#f2f1f7"/>
    <path id="Tracé_4105" data-name="Tracé 4105" d="M229.27,223.9l.275,9.04h1.7l1.02-9.04Z" transform="translate(-84.283 -151.243)" fill="#f2f1f7"/>
    <path id="Tracé_4106" data-name="Tracé 4106" d="M230.867,232.685h-1.7a.123.123,0,0,1-.123-.118l-.275-9.04a.125.125,0,0,1,.037-.091.115.115,0,0,1,.086-.037h2.994a.123.123,0,0,1,.093.042.12.12,0,0,1,.029.1l-1.02,9.04A.123.123,0,0,1,230.867,232.685Zm-1.579-.245h1.471l.981-8.795h-2.72Z" transform="translate(-83.906 -150.865)" fill="#1f4076"/>
    <path id="Tracé_4107" data-name="Tracé 4107" d="M226,260.76v.9s-3.7.245-3.679.02,1.962-.925,1.962-.925Z" transform="translate(-79.037 -179.063)" fill="#1f4076"/>
    <path id="Tracé_4108" data-name="Tracé 4108" d="M222.965,261.545a2.548,2.548,0,0,1-1.059-.113.169.169,0,0,1-.037-.118c0-.071.042-.287,2.048-1.02a.124.124,0,0,1,.042,0h1.7a.12.12,0,0,1,.123.12v.9a.12.12,0,0,1-.113.12C224.748,261.491,223.715,261.545,222.965,261.545ZM222.1,261.374Zm.123-.091a32.82,32.82,0,0,0,3.313-.086v-.667H223.98a13.829,13.829,0,0,0-1.756.753Z" transform="translate(-78.697 -178.71)" fill="#1f4076"/>
    <path id="Tracé_4109" data-name="Tracé 4109" d="M247.351,224.4l-1.189,8.537h-1.7l-.3-9.04Z" transform="translate(-95.521 -151.243)" fill="#f2f1f7"/>
    <path id="Tracé_4110" data-name="Tracé 4110" d="M245.784,232.687h-1.7a.123.123,0,0,1-.123-.118l-.3-9.04a.125.125,0,0,1,.042-.1.123.123,0,0,1,.1-.027l3.188.5a.123.123,0,0,1,.1.137l-1.192,8.537A.12.12,0,0,1,245.784,232.687Zm-1.582-.245h1.471l1.16-8.311-2.926-.461Z" transform="translate(-95.144 -150.867)" fill="#1f4076"/>
    <path id="Tracé_4111" data-name="Tracé 4111" d="M224.679,150.812a1.406,1.406,0,0,0,.135.623,2.6,2.6,0,0,0,2.394,1.513,2.754,2.754,0,0,0,1.844-1.265,3.911,3.911,0,0,0,.071-4.677c-.388-.476-.719-.981-1.371-1.1a1.626,1.626,0,0,0-1.346.368,2.73,2.73,0,0,0-.758,1.557,7.16,7.16,0,0,1-.434,1.7A3.384,3.384,0,0,0,224.679,150.812Z" transform="translate(-80.818 -92.354)" fill="#f2f1f7"/>
    <path id="Tracé_4112" data-name="Tracé 4112" d="M226.759,152.661a2.717,2.717,0,0,1-2.435-1.584,1.55,1.55,0,0,1-.145-.679h0a2.143,2.143,0,0,1,.346-.949c.066-.118.135-.245.2-.38a5.05,5.05,0,0,0,.351-1.28c.025-.132.047-.265.074-.395a2.842,2.842,0,0,1,.8-1.624,1.736,1.736,0,0,1,1.452-.4,2.2,2.2,0,0,1,1.31.981l.132.167a4,4,0,0,1-.069,4.826,2.744,2.744,0,0,1-1.94,1.315Zm-2.335-2.251a1.275,1.275,0,0,0,.125.569,2.452,2.452,0,0,0,2.207,1.44h.076a2.508,2.508,0,0,0,1.749-1.226,3.8,3.8,0,0,0,.076-4.522l-.135-.167a2.011,2.011,0,0,0-1.165-.9,1.5,1.5,0,0,0-1.243.341,2.629,2.629,0,0,0-.719,1.489c-.027.13-.049.26-.074.39a5.173,5.173,0,0,1-.37,1.341c-.069.142-.14.272-.208.395a1.942,1.942,0,0,0-.314.839Z" transform="translate(-80.441 -91.952)" fill="#1f4076"/>
    <path id="Tracé_4113" data-name="Tracé 4113" d="M212.693,168.229a22.346,22.346,0,0,1-3.779,1.055c-.532-.088-2.244-2-2.244-2l.277,2.34s1.435,1.538,2.207,1.633a27.03,27.03,0,0,0,4.5-.981Z" transform="translate(-67.226 -108.508)" fill="#f2f1f7"/>
    <path id="Tracé_4114" data-name="Tracé 4114" d="M208.887,171.031a.875.875,0,0,1-.12,0c-.817-.1-2.232-1.6-2.291-1.668a.125.125,0,0,1-.032-.071l-.277-2.34a.12.12,0,0,1,.071-.125.125.125,0,0,1,.142.029,9.043,9.043,0,0,0,2.173,1.962,20.186,20.186,0,0,0,3.718-1.05.12.12,0,0,1,.152.064l.969,2.033a.125.125,0,0,1,0,.1.13.13,0,0,1-.078.069A30.653,30.653,0,0,1,208.887,171.031Zm-2.207-1.815c.414.439,1.523,1.494,2.114,1.565a22.561,22.561,0,0,0,4.311-.944l-.858-1.805a18.994,18.994,0,0,1-3.735,1.023c-.449-.074-1.545-1.2-2.058-1.758Z" transform="translate(-66.845 -108.159)" fill="#1f4076"/>
    <path id="Tracé_4115" data-name="Tracé 4115" d="M228.123,167.689s4.777-.876,5.722-.056-.245,7.6-.245,7.6l-6.376-.471S226.362,169.924,228.123,167.689Z" transform="translate(-82.579 -108.511)" fill="#fce15c"/>
    <path id="Tracé_4116" data-name="Tracé 4116" d="M254.18,180.446a.837.837,0,0,0-.027-.155c-.334-2.05-2.548-7.622-3.021-8.807-1.106-1.05-1.471,1.442-1.28,2.666.164,1.01,2.367,4.858,3.132,6.325a4.735,4.735,0,0,0-.086,1.415c.194.329.311-.49.311-.49s.216,1.859.5,1.817C254.682,183.077,254.317,181.206,254.18,180.446Z" transform="translate(-99.78 -111.492)" fill="#f2f1f7"/>
    <path id="Tracé_4117" data-name="Tracé 4117" d="M253.343,182.957a.216.216,0,0,1-.128-.044,2.96,2.96,0,0,1-.41-1.317.2.2,0,0,1-.373-.025,3.725,3.725,0,0,1,.064-1.457c-.169-.319-.4-.736-.662-1.226a30.468,30.468,0,0,1-2.452-5.1c-.159-.981.022-2.661.657-3,.174-.091.459-.128.829.223a.14.14,0,0,1,.029.044,58.682,58.682,0,0,1,3.026,8.829,1.187,1.187,0,0,0,.027.152v.059c.125.684.356,1.962-.071,2.546a.736.736,0,0,1-.51.307Zm-.49-2.062h0a.125.125,0,0,1,.12.11,5.611,5.611,0,0,0,.385,1.717.49.49,0,0,0,.324-.2c.365-.508.137-1.758.029-2.359l-.012-.061h0a.836.836,0,0,0-.027-.155,59.173,59.173,0,0,0-3-8.758c-.2-.186-.38-.245-.525-.164-.49.262-.677,1.847-.532,2.742a32.831,32.831,0,0,0,2.438,5.02c.272.49.513.942.682,1.268a.118.118,0,0,1,.012.076,5.641,5.641,0,0,0-.115,1.29,2.038,2.038,0,0,0,.1-.4.125.125,0,0,1,.123-.118Z" transform="translate(-99.422 -111.111)" fill="#1f4076"/>
    <path id="Tracé_4118" data-name="Tracé 4118" d="M231.778,152.008l-.054,1.378s.189.4,1.319.086,1.126-.841,1.126-.841l.039-2.578c0-.135-.061-1.471-.039-2.646-1.373-.022-2.6-.137-2.6-.137.132.132-.356.155-.356.155a2.019,2.019,0,0,0-.65.1,29.913,29.913,0,0,0-.385,3.433C230.368,151.844,231.778,152.008,231.778,152.008Z" transform="translate(-84.957 -93.406)" fill="#f2f1f7"/>
    <path id="Tracé_4119" data-name="Tracé 4119" d="M231.956,153.358c-.525,0-.657-.245-.672-.272a.1.1,0,0,1-.012-.051l.052-1.278c-.346-.056-1.427-.3-1.594-1.113a12.4,12.4,0,0,1,.233-2.386c.064-.432.123-.839.15-1.091a.108.108,0,0,1,.074-.1,2.165,2.165,0,0,1,.684-.105,1.274,1.274,0,0,0,.245-.034.113.113,0,0,1,.012-.056.11.11,0,0,1,.105-.064s1.241.115,2.595.137a.105.105,0,0,1,.079.034.108.108,0,0,1,.032.081c-.02.981.017,2.055.039,2.612v.029h0s0,.1-.042,2.58c0,.022,0,.613-1.2.949A2.857,2.857,0,0,1,231.956,153.358ZM231.5,153c.054.059.314.245,1.177.012,1.015-.284,1.042-.736,1.042-.736s.042-2.538.042-2.575v-.022c-.02-.54-.054-1.562-.039-2.514-1.069-.022-2.04-.1-2.376-.128-.029.052-.115.128-.461.145a2.123,2.123,0,0,0-.554.071c-.027.26-.083.635-.142,1.03a14.9,14.9,0,0,0-.245,2.308c.164.79,1.491.952,1.5.954a.113.113,0,0,1,.1.115Z" transform="translate(-84.617 -93.058)" fill="#1f4076"/>
    <path id="Tracé_4120" data-name="Tracé 4120" d="M236.389,156.9c-.147.262-.294.574-.216.66.142.154.54.051.54.051" transform="translate(-89.476 -100.674)" fill="#f2f1f7"/>
    <path id="Tracé_4121" data-name="Tracé 4121" d="M236.069,157.393a.491.491,0,0,1-.368-.128c-.081-.088-.113-.245.2-.8a.12.12,0,0,1,.167-.047.123.123,0,0,1,.047.167c-.245.424-.223.53-.223.532.049.049.272.034.41,0a.123.123,0,0,1,.061.238A1.268,1.268,0,0,1,236.069,157.393Z" transform="translate(-89.096 -100.298)" fill="#1f4076"/>
    <path id="Tracé_4122" data-name="Tracé 4122" d="M232.407,146.959a1.388,1.388,0,0,0,.434.535,2.972,2.972,0,0,0,1.226.544,2.8,2.8,0,0,0,1.668-.056c.49-.2,1-.7.888-1.258a17.346,17.346,0,0,0-.579-1.839c-.611-1.844-.922-4.692-3.208-5.113-1.717-.319-2.847.1-3.549.981-.856,1.089-.549,2.56,1.067,1.857a1.614,1.614,0,0,0,.9-1.067,2.828,2.828,0,0,0,.9,1.209,1.728,1.728,0,0,1,.387.343,3.016,3.016,0,0,1,.056,2.381C232.448,146.079,232.22,146.515,232.407,146.959Z" transform="translate(-83.945 -87.665)" fill="#f2f1f7"/>
    <path id="Tracé_4123" data-name="Tracé 4123" d="M234.45,147.875a3.867,3.867,0,0,1-.839-.1,3.024,3.024,0,0,1-1.265-.564,1.5,1.5,0,0,1-.466-.589h0a1.637,1.637,0,0,1,.071-1.155c.034-.125.074-.245.108-.4v-.027a2.866,2.866,0,0,0-.044-2.254,1.256,1.256,0,0,0-.282-.26l-.081-.059a2.923,2.923,0,0,1-.814-.981,1.736,1.736,0,0,1-.866.849c-.92.4-1.342.1-1.508-.123a1.656,1.656,0,0,1,.294-1.92,3.544,3.544,0,0,1,3.679-1.033c1.962.361,2.506,2.369,2.992,4.14.105.375.2.736.309,1.057.054.162.113.331.174.49a10.618,10.618,0,0,1,.41,1.351,1.363,1.363,0,0,1-.961,1.4A2.367,2.367,0,0,1,234.45,147.875Zm-2.349-1.346a1.314,1.314,0,0,0,.4.49,2.786,2.786,0,0,0,1.165.52,2.673,2.673,0,0,0,1.594-.049c.468-.191.912-.65.814-1.121a9.847,9.847,0,0,0-.4-1.319c-.059-.172-.12-.341-.174-.505-.108-.331-.206-.689-.311-1.069-.468-1.7-1-3.63-2.8-3.963-1.579-.292-2.7.017-3.433.944a1.442,1.442,0,0,0-.294,1.619c.216.28.647.3,1.226.049a1.471,1.471,0,0,0,.831-.981.128.128,0,0,1,.113-.093.123.123,0,0,1,.123.078,2.7,2.7,0,0,0,.863,1.155l.074.056a1.413,1.413,0,0,1,.338.314,3.132,3.132,0,0,1,.081,2.452v.029c-.034.145-.074.28-.113.407A1.378,1.378,0,0,0,232.1,146.529Z" transform="translate(-83.526 -87.281)" fill="#1f4076"/>
    <path id="Tracé_4124" data-name="Tracé 4124" d="M234.338,160.673h-.059a1.388,1.388,0,0,1-.929-.562.125.125,0,0,1,.027-.172.123.123,0,0,1,.172.029,1.158,1.158,0,0,0,.748.459,1,1,0,0,0,.765-.387.123.123,0,0,1,.181.167A1.243,1.243,0,0,1,234.338,160.673Z" transform="translate(-87.345 -102.951)" fill="#1f4076"/>
    <path id="Tracé_4125" data-name="Tracé 4125" d="M236.584,165.654a2.533,2.533,0,0,0,1.265-.3,4.819,4.819,0,0,1-1.319,1.025Z" transform="translate(-89.762 -107.052)" fill="#1f4076"/>
    <path id="Tracé_4126" data-name="Tracé 4126" d="M236.152,166.1a.127.127,0,0,1-.123-.132l.054-.721a.123.123,0,0,1,.123-.113h.02a2.19,2.19,0,0,0,1.165-.272.123.123,0,0,1,.179.164,4.9,4.9,0,0,1-1.356,1.057.135.135,0,0,1-.061.017Zm.167-.723-.027.373a6.844,6.844,0,0,0,.62-.437,3.8,3.8,0,0,1-.594.071Z" transform="translate(-89.384 -106.663)" fill="#1f4076"/>
    <path id="Tracé_4127" data-name="Tracé 4127" d="M233.517,154.36a.12.12,0,0,1-.108-.064c-.069-.128-.142-.2-.206-.2a.309.309,0,0,0-.181.123.125.125,0,0,1-.172.034.128.128,0,0,1-.032-.172.491.491,0,0,1,.4-.228c.157,0,.294.118.41.331a.12.12,0,0,1-.051.164A.113.113,0,0,1,233.517,154.36Z" transform="translate(-86.945 -98.372)" fill="#1f4076"/>
    <path id="Tracé_4128" data-name="Tracé 4128" d="M239.413,154.36a.12.12,0,0,1-.108-.064c-.069-.128-.14-.2-.2-.2a.3.3,0,0,0-.184.123.123.123,0,1,1-.2-.137.49.49,0,0,1,.395-.228c.157,0,.294.118.41.331a.12.12,0,0,1-.049.164A.13.13,0,0,1,239.413,154.36Z" transform="translate(-91.39 -98.372)" fill="#1f4076"/>
    <path id="Tracé_4129" data-name="Tracé 4129" d="M231.839,198.221s1.94,6.065,2.5,7.789c0,0-5.8,2.58-9.66.527l.79-8.787Z" transform="translate(-80.819 -131.506)" fill="#fce15c"/>
    <path id="Tracé_4130" data-name="Tracé 4130" d="M234.668,197.97a18.318,18.318,0,0,1-3.939-.459.113.113,0,0,1-.086-.132.115.115,0,0,1,.135-.086,15.016,15.016,0,0,0,5.2.375.113.113,0,1,1,.037.223,9.586,9.586,0,0,1-1.346.078Z" transform="translate(-85.318 -131.159)" fill="#5c6f99"/>
    <path id="Tracé_4131" data-name="Tracé 4131" d="M245.39,260.76v.9s4.039.491,4.007.277a12.8,12.8,0,0,0-2.308-1.182Z" transform="translate(-96.45 -179.063)" fill="#1f4076"/>
    <path id="Tracé_4132" data-name="Tracé 4132" d="M248.565,261.731c-.628,0-1.834-.108-3.608-.324a.123.123,0,0,1-.108-.12v-.9a.12.12,0,0,1,.123-.12h1.7a.105.105,0,0,1,.047,0c2.342.981,2.374,1.2,2.384,1.273a.174.174,0,0,1-.039.12A1,1,0,0,1,248.565,261.731ZM248.87,261.606Zm-3.765-.429c1.471.179,3.073.334,3.632.321a19.962,19.962,0,0,0-2.08-.993h-1.552Z" transform="translate(-96.042 -178.685)" fill="#1f4076"/>
  </g>
</svg>
