<svg xmlns="http://www.w3.org/2000/svg" width="36.659" height="65.035" viewBox="0 0 36.659 65.035">
  <g id="_394_credit_card_flatline" data-name="#394_credit_card_flatline" transform="translate(-122.216 -13.53)">
    <path id="Tracé_2962" data-name="Tracé 2962" d="M162.9,65c-2.094.8-10.586,2.013-12.014,3.739a49.15,49.15,0,0,0-3,4.59l4.854-1.734,11.524-1.582Z" transform="translate(-20.944 -39.132)" fill="#fce15c" stroke="#5c6f99" stroke-width="0.3"/>
    <rect id="Rectangle_1518" data-name="Rectangle 1518" width="3.833" height="1.249" rx="0.624" transform="translate(140.167 41.463) rotate(-3.86)" fill="#d1d3d4"/>
    <rect id="Rectangle_1521" data-name="Rectangle 1521" width="1.189" height="0.158" transform="translate(137.163 45.18) rotate(-3.89)" fill="#d1d3d4"/>
    <rect id="Rectangle_1522" data-name="Rectangle 1522" width="1.592" height="0.158" transform="matrix(0.459, -0.888, 0.888, 0.459, 136.129, 46.021)" fill="#d1d3d4"/>
    <path id="Tracé_2968" data-name="Tracé 2968" d="M217.232,198.93s2.335,7.086,1.074,7.1-4.406-3.835-4.406-3.835l2.529-3.243" transform="translate(-70.067 -140.957)" fill="#5c6f99"/>
    <path id="Tracé_2969" data-name="Tracé 2969" d="M217.887,205.744c-1.314,0-4.375-3.728-4.5-3.888a.134.134,0,0,1,0-.163l2.524-3.251a.132.132,0,0,1,.209.163l-2.467,3.167c.916,1.107,3.272,3.708,4.233,3.708h0a.144.144,0,0,0,.127-.07c.479-.654-.535-4.456-1.323-6.853a.132.132,0,0,1,.084-.165.134.134,0,0,1,.165.084c.2.623,1.985,6.115,1.287,7.088a.417.417,0,0,1-.338.18Z" transform="translate(-69.653 -140.543)" fill="#1f4076"/>
    <path id="Tracé_2970" data-name="Tracé 2970" d="M160.567,127.917s-9.687,12.269-10.3,16.634,13.99,3.752,13.99,3.752l1.728-6.386s-7.671.549-6.786-.832,6.254-6.59,6.254-6.59l.815-7.295Z" transform="translate(-21.677 -86.421)" fill="#1f4076"/>
    <path id="Tracé_2971" data-name="Tracé 2971" d="M162.082,148.045c-1.076,0-2.531-.029-4.054-.141-4.1-.3-6.712-1.048-7.774-2.21a1.867,1.867,0,0,1-.508-1.575c.606-4.348,9.924-16.193,10.32-16.694a.132.132,0,0,1,.084-.048l5.705-.719a.134.134,0,0,1,.105.036.125.125,0,0,1,.036.1l-.815,7.3a.125.125,0,0,1-.038.077c-.053.053-5.374,5.216-6.233,6.568-.07.11-.053.173-.026.213.376.63,4.315.594,6.7.424a.113.113,0,0,1,.105.046.127.127,0,0,1,.026.113l-1.728,6.386a.127.127,0,0,1-.117.093C163.851,148.017,163.153,148.045,162.082,148.045Zm-1.848-20.424c-.614.781-9.658,12.377-10.238,16.54a1.606,1.606,0,0,0,.446,1.369c2.3,2.536,12.252,2.28,13.321,2.244l1.656-6.125c-1.16.077-6.211.352-6.755-.559a.434.434,0,0,1,.031-.479c.849-1.335,5.753-6.1,6.233-6.583l.793-7.091Z" transform="translate(-21.277 -86.009)" fill="#1f4076"/>
    <path id="Tracé_2972" data-name="Tracé 2972" d="M191.274,127.27c0,.508-3.152,18.9-5.274,28.44l1.508,8.671a53.221,53.221,0,0,0,8.059-16.78,108.41,108.41,0,0,0,3.874-18.326Z" transform="translate(-48.855 -86.475)" fill="#1f4076"/>
    <path id="Tracé_2973" data-name="Tracé 2973" d="M187.1,164.107h-.031a.122.122,0,0,1-.093-.1l-1.508-8.673a.11.11,0,0,1,0-.048c2.054-9.291,5.274-27.86,5.259-28.411a.127.127,0,0,1,.156-.125l8.177,2a.122.122,0,0,1,.1.134,108.731,108.731,0,0,1-3.876,18.35,60.081,60.081,0,0,1-5.216,12.391,37.36,37.36,0,0,1-2.877,4.43.127.127,0,0,1-.086.048Zm-1.378-8.79,1.453,8.359a54.911,54.911,0,0,0,7.863-16.509,111.034,111.034,0,0,0,3.859-18.194l-7.93-1.942C190.731,128.941,187.711,146.33,185.726,155.316Z" transform="translate(-48.452 -86.076)" fill="#1f4076"/>
    <path id="Tracé_2974" data-name="Tracé 2974" d="M198.87,60.577c-3.279.177-6.976-.2-7.671,3.8-.2,1.139-2.4,14.369-2.589,14.337l13.158,2.05s3.581-15.776,3.222-16.9A7.553,7.553,0,0,0,198.87,60.577Z" transform="translate(-50.84 -35.763)" fill="#fce15c" stroke="#5c6f99" stroke-width="0.3"/>
    <path id="Tracé_2975" data-name="Tracé 2975" d="M211.551,23.791c-.173.036-1.074-1.256-1.218-1.489a8.313,8.313,0,0,1-.9-2.905c-.127-.791-.034-1.812.719-2.088a2.721,2.721,0,0,1,1.652-2.7,7.651,7.651,0,0,1,3.318-.532l-.913,1.2a12.741,12.741,0,0,1,3.9.46.825.825,0,0,1,.515.3.578.578,0,0,1-.189.719,1.664,1.664,0,0,1-.746.259,5.051,5.051,0,0,1,1.549,1.175,1.961,1.961,0,0,0-.983.515,2.781,2.781,0,0,0-.326,1.623,3.045,3.045,0,0,1-1.155,2.4,9.188,9.188,0,0,1-2.023.415Z" transform="translate(-66.633 -0.418)" fill="#f2f1f7"/>
    <path id="Tracé_2976" data-name="Tracé 2976" d="M211.144,23.5c-.348,0-1.326-1.534-1.335-1.549A8.527,8.527,0,0,1,208.886,19c-.137-.844-.01-1.848.71-2.191a2.9,2.9,0,0,1,1.738-2.733,7.844,7.844,0,0,1,3.375-.547h0a.129.129,0,0,1,.117.074.125.125,0,0,1,0,.137l-.746.971a12.882,12.882,0,0,1,3.66.479.93.93,0,0,1,.573.369.719.719,0,0,1-.221.88,1.321,1.321,0,0,1-.455.223,5.273,5.273,0,0,1,1.275,1.038.134.134,0,0,1,.029.122.139.139,0,0,1-.089.091,1.836,1.836,0,0,0-.921.479,1.844,1.844,0,0,0-.278,1.16,3.025,3.025,0,0,1-.017.391,3.129,3.129,0,0,1-1.23,2.5,4.723,4.723,0,0,1-1.422.312c-.24.031-.443.058-.633.1l-3.191.652Zm0-.129ZM211.161,23.246Zm3.282-9.45a6.936,6.936,0,0,0-2.994.515,2.636,2.636,0,0,0-1.58,2.558.129.129,0,0,1-.084.144c-.657.24-.758,1.163-.633,1.944a8.273,8.273,0,0,0,.887,2.86,8.774,8.774,0,0,0,1.107,1.422l3.162-.65c.2-.038.42-.067.652-.1a4.538,4.538,0,0,0,1.338-.3,2.882,2.882,0,0,0,1.086-2.282,2.915,2.915,0,0,1,.017-.376,2.045,2.045,0,0,1,.338-1.321,1.74,1.74,0,0,1,.839-.489,4.95,4.95,0,0,0-1.369-.995.129.129,0,0,1-.072-.134.127.127,0,0,1,.1-.11,1.618,1.618,0,0,0,.69-.24.455.455,0,0,0,.158-.542.719.719,0,0,0-.439-.24A12.549,12.549,0,0,0,213.793,15a.137.137,0,0,1-.12-.072.127.127,0,0,1,.012-.139Z" transform="translate(-66.219)" fill="#1f4076"/>
    <path id="Tracé_2977" data-name="Tracé 2977" d="M217.408,39.956l-.146,2.4a1.241,1.241,0,0,0,1.644,1.021,3.008,3.008,0,0,0,2.023-1.606s.321-5.724.434-7.239a20.791,20.791,0,0,1-2.733,0,15.231,15.231,0,0,1-2.371-.719c-.17,1.664-.7,3.162-.455,4.818C215.982,39.767,217.408,39.956,217.408,39.956Z" transform="translate(-71.468 -15.419)" fill="#f2f1f7"/>
    <path id="Tracé_2978" data-name="Tracé 2978" d="M218.054,43.13a1.316,1.316,0,0,1-.772-.24,1.489,1.489,0,0,1-.566-.959.079.079,0,0,1,0-.024l.137-2.273a1.884,1.884,0,0,1-1.589-1.417,9.8,9.8,0,0,1,.211-3.284c.091-.506.185-1.031.24-1.563a.134.134,0,0,1,.06-.1.149.149,0,0,1,.115,0,15.255,15.255,0,0,0,2.349.719,5.873,5.873,0,0,0,1.546.019,7.91,7.91,0,0,1,1.172-.031.129.129,0,0,1,.089.046.127.127,0,0,1,.031.1c-.11,1.5-.429,7.191-.431,7.237a.146.146,0,0,1-.012.043,3.1,3.1,0,0,1-2.114,1.678A2.045,2.045,0,0,1,218.054,43.13Zm-1.076-1.2a1.234,1.234,0,0,0,.458.767,1.256,1.256,0,0,0,1.026.132,2.9,2.9,0,0,0,1.918-1.513c.024-.4.309-5.466.422-7.084a9.261,9.261,0,0,0-1,.038,6.084,6.084,0,0,1-1.613-.024,14.623,14.623,0,0,1-2.234-.662c-.058.479-.141.959-.223,1.414a9.586,9.586,0,0,0-.211,3.2c.156,1.026,1.474,1.215,1.486,1.218a.127.127,0,0,1,.113.137Z" transform="translate(-71.053 -15.002)" fill="#1f4076"/>
    <path id="Tracé_2979" data-name="Tracé 2979" d="M222.48,58.686a2.3,2.3,0,0,0,1.625-.518,1.678,1.678,0,0,0,.6-1.268,4.633,4.633,0,0,1-2.177.611Z" transform="translate(-76.591 -32.974)" fill="#1f4076"/>
    <path id="Tracé_2980" data-name="Tracé 2980" d="M222.23,58.45h-.165a.129.129,0,0,1-.115-.132l.05-1.172a.127.127,0,0,1,.132-.122,4.516,4.516,0,0,0,2.107-.592.129.129,0,0,1,.122,0,.137.137,0,0,1,.07.1,1.8,1.8,0,0,1-.642,1.371A2.337,2.337,0,0,1,222.23,58.45ZM222.2,58.2a2.107,2.107,0,0,0,1.407-.479,1.692,1.692,0,0,0,.549-.959,4.694,4.694,0,0,1-1.918.518Z" transform="translate(-76.187 -32.606)" fill="#1f4076"/>
    <path id="Tracé_2981" data-name="Tracé 2981" d="M225.316,45.74s-.829,1.105-.659,1.316.69.105.69.105" transform="translate(-78.228 -24.489)" fill="#f2f1f7"/>
    <path id="Tracé_2982" data-name="Tracé 2982" d="M224.687,46.908a.659.659,0,0,1-.515-.177c-.194-.24.252-.93.657-1.472a.128.128,0,1,1,.2.153,3.257,3.257,0,0,0-.657,1.17c.079.091.376.086.561.05a.125.125,0,0,1,.149.1.129.129,0,0,1-.1.151A1.837,1.837,0,0,1,224.687,46.908Z" transform="translate(-77.841 -24.084)" fill="#1f4076"/>
    <path id="Tracé_2983" data-name="Tracé 2983" d="M222.775,52.639a1.438,1.438,0,0,1-1.045-.506.127.127,0,0,1,.185-.175,1.182,1.182,0,0,0,.918.424,1.918,1.918,0,0,0,1.2-.746.127.127,0,1,1,.2.151,2.179,2.179,0,0,1-1.393.849Z" transform="translate(-75.993 -28.928)" fill="#1f4076"/>
    <path id="Tracé_2984" data-name="Tracé 2984" d="M216.472,40.565a.544.544,0,0,1-.542-.537v-.479a.542.542,0,0,1,.535-.549h1.35a.532.532,0,0,1,.379.156.539.539,0,0,1,.163.381v.479a.535.535,0,0,1-.153.384.549.549,0,0,1-.384.163h-1.35Zm1.347-1.326h-1.352a.29.29,0,0,0-.28.3v.479a.283.283,0,0,0,.29.285h1.35a.278.278,0,0,0,.2-.086.273.273,0,0,0,.081-.2v-.479a.3.3,0,0,0-.086-.2A.288.288,0,0,0,217.819,39.24Z" transform="translate(-71.611 -19.364)" fill="#1f4076"/>
    <path id="Tracé_2985" data-name="Tracé 2985" d="M227.742,40.482a.542.542,0,0,1-.542-.537v-.479a.542.542,0,0,1,.537-.547h1.352a.53.53,0,0,1,.544.535v.479a.539.539,0,0,1-.537.544h-1.35Zm1.347-1.33h-1.352a.29.29,0,0,0-.285.29v.479a.288.288,0,0,0,.086.2.3.3,0,0,0,.2.082h1.35a.3.3,0,0,0,.218-.07.283.283,0,0,0,.081-.2v-.5a.29.29,0,0,0-.3-.285Z" transform="translate(-80.179 -19.303)" fill="#1f4076"/>
    <path id="Tracé_2986" data-name="Tracé 2986" d="M225.137,40.894a.127.127,0,0,1,0-.254h.523a.126.126,0,1,1,0,.252h-.523Z" transform="translate(-78.514 -20.611)" fill="#1f4076"/>
    <path id="Tracé_2987" data-name="Tracé 2987" d="M237.742,41.689a.144.144,0,0,1-.07-.019l-1.352-.894a.127.127,0,1,1,.141-.211l1.35.892a.129.129,0,0,1,.036.177A.127.127,0,0,1,237.742,41.689Z" transform="translate(-87.068 -20.536)" fill="#1f4076"/>
    <path id="Tracé_2988" data-name="Tracé 2988" d="M237.1,43.546c.273-.345.7-.959,1.223-.746a.906.906,0,0,1,.343.288,1.537,1.537,0,0,1-.014,1.726c-.268.463-1.067,1.143-1.553.515" transform="translate(-87.706 -22.22)" fill="#f2f1f7"/>
    <path id="Tracé_2989" data-name="Tracé 2989" d="M237.16,45.3a.719.719,0,0,1-.583-.3.129.129,0,0,1,.022-.185.132.132,0,0,1,.185.024.458.458,0,0,0,.41.2,1.454,1.454,0,0,0,.928-.7,1.409,1.409,0,0,0,.024-1.582.719.719,0,0,0-.292-.24c-.352-.156-.674.2-1,.618l-.067.086a.132.132,0,0,1-.206-.163l.067-.086c.278-.352.741-.944,1.311-.7a1.031,1.031,0,0,1,.4.328,1.674,1.674,0,0,1,0,1.872,1.691,1.691,0,0,1-1.136.832Z" transform="translate(-87.287 -21.809)" fill="#1f4076"/>
    <ellipse id="Ellipse_275" data-name="Ellipse 275" cx="0.149" cy="0.312" rx="0.149" ry="0.312" transform="translate(145.679 20.266) rotate(-0.48)" fill="#1f4076"/>
    <ellipse id="Ellipse_276" data-name="Ellipse 276" cx="0.149" cy="0.312" rx="0.149" ry="0.312" transform="translate(148.293 20.218) rotate(-0.48)" fill="#1f4076"/>
    <path id="Tracé_2990" data-name="Tracé 2990" d="M243.893,74.943s6.378,12.622,3.967,13.847-8.018-2.117-8.018-2.117l-.022-2.656,4.277.422-1.558-1.5Z" transform="translate(-89.774 -46.643)" fill="#fce15c" stroke="#5c6f99" stroke-width="0.3"/>
    <path id="Tracé_2991" data-name="Tracé 2991" d="M236,113.75l1.882.3a1.781,1.781,0,0,1,.4,1.04,1.57,1.57,0,0,1-.571,1.179l-1.484-.5S236.513,114.356,236,113.75Z" transform="translate(-86.87 -76.196)" fill="#f2f1f7"/>
    <path id="Tracé_2992" data-name="Tracé 2992" d="M237.256,116a.137.137,0,0,1-.043,0l-1.484-.5a.134.134,0,0,1-.086-.151c0-.014.276-1.362-.2-1.918a.129.129,0,0,1-.017-.149.137.137,0,0,1,.137-.065l1.879.3a.127.127,0,0,1,.077.041,1.882,1.882,0,0,1,.434,1.127,1.678,1.678,0,0,1-.611,1.278A.127.127,0,0,1,237.256,116Zm-1.335-.719,1.3.439a1.4,1.4,0,0,0,.479-1.028,1.618,1.618,0,0,0-.34-.923l-1.546-.24A3.46,3.46,0,0,1,235.92,115.277Z" transform="translate(-86.423 -75.788)" fill="#1f4076"/>
    <path id="Tracé_2993" data-name="Tracé 2993" d="M211.76,97.365l.35-.156,3.859-.079,1.5,7.208-.261.175Z" transform="translate(-68.44 -63.56)" fill="#231f20"/>
    <path id="Tracé_2994" data-name="Tracé 2994" d="M216.809,104.282a.122.122,0,0,1-.1-.05l-5.446-7.148a.122.122,0,0,1-.024-.108.132.132,0,0,1,.072-.084l.348-.151a.125.125,0,0,1,.05,0l3.859-.082a.12.12,0,0,1,.127.1l1.5,7.208a.129.129,0,0,1-.053.129l-.264.177A.125.125,0,0,1,216.809,104.282Zm-5.25-7.225,5.274,6.928.1-.053-1.46-7.024-3.732.072Z" transform="translate(-68.04 -63.201)" fill="#1f4076"/>
    <path id="Tracé_2995" data-name="Tracé 2995" d="M217.209,105.023c0-.012-1.362-7.223-1.362-7.223l-4.087.074,1.275,6.973Z" transform="translate(-68.44 -64.069)" fill="#f2f1f7"/>
    <path id="Tracé_2996" data-name="Tracé 2996" d="M216.821,104.736h0l-4.171-.177a.129.129,0,0,1-.125-.108l-1.273-6.971a.127.127,0,0,1,.026-.105.122.122,0,0,1,.1-.048l4.087-.077a.134.134,0,0,1,.132.108c1.347,7.223,1.347,7.23,1.347,7.247a.141.141,0,0,1-.038.1A.146.146,0,0,1,216.821,104.736Zm-4.075-.434,3.9.165c-.185-.978-1.158-6.137-1.311-6.952l-3.821.072Z" transform="translate(-68.052 -63.651)" fill="#1f4076"/>
    <path id="Tracé_2997" data-name="Tracé 2997" d="M226.4,112.913a1.211,1.211,0,0,0-.479-.146c-.314-.031-1.958-.285-2.131.067-.132.271,0,.324,0,.324s-.479,0-.36.434c0,0-.211.479.18.616,0,0-.254.137.043.364.547.415,2.471,1.39,3.047.911a1.256,1.256,0,0,0,.374-.659A1.725,1.725,0,0,0,226.4,112.913Z" transform="translate(-77.269 -75.359)" fill="#f2f1f7"/>
    <path id="Tracé_2998" data-name="Tracé 2998" d="M225.819,115.322a6.021,6.021,0,0,1-2.675-1.062.393.393,0,0,1-.194-.336.28.28,0,0,1,.024-.1.427.427,0,0,1-.117-.158.719.719,0,0,1,0-.5.422.422,0,0,1,.062-.362.465.465,0,0,1,.24-.163.571.571,0,0,1,.072-.28c.161-.326.959-.3,2.1-.158l.165.019a1.342,1.342,0,0,1,.525.161h0a1.837,1.837,0,0,1,.746,2.059,1.376,1.376,0,0,1-.417.719.829.829,0,0,1-.525.161Zm-2.4-2.69a.134.134,0,0,1,.058.134.132.132,0,0,1-.127.105.345.345,0,0,0-.24.089.2.2,0,0,0,0,.177.139.139,0,0,1,0,.089.5.5,0,0,0-.024.338.189.189,0,0,0,.127.1.137.137,0,0,1,.089.115.129.129,0,0,1-.07.125c-.014,0-.031.029-.031.036s.014.048.091.108c.623.479,2.424,1.3,2.877.916a1.122,1.122,0,0,0,.331-.592,1.567,1.567,0,0,0-.616-1.762h0a1.124,1.124,0,0,0-.427-.132l-.17-.019c-1.551-.189-1.8-.053-1.829.014a.3.3,0,0,0-.029.156ZM223.4,112.633ZM223.4,112.633Z" transform="translate(-76.842 -74.944)" fill="#1f4076"/>
    <line id="Ligne_111" data-name="Ligne 111" x2="1.779" y2="0.173" transform="translate(146.518 37.799)" fill="#fff"/>
    <path id="Tracé_2999" data-name="Tracé 2999" d="M226.465,114.616h-.014l-1.776-.175a.129.129,0,0,1-.117-.144.137.137,0,0,1,.141-.117l1.779.175a.132.132,0,0,1,0,.261Z" transform="translate(-78.169 -76.522)" fill="#1f4076"/>
    <path id="Tracé_3000" data-name="Tracé 3000" d="M223.6,116.58a8.114,8.114,0,0,0,1.86.321" transform="translate(-77.442 -78.347)" fill="#fff"/>
    <path id="Tracé_3001" data-name="Tracé 3001" d="M224.932,116.619a9.348,9.348,0,0,1-1.779-.333.127.127,0,0,1-.091-.161.129.129,0,0,1,.161-.091,7.587,7.587,0,0,0,1.807.316.129.129,0,0,1,.146.115.134.134,0,0,1-.115.146A1.053,1.053,0,0,1,224.932,116.619Z" transform="translate(-77.029 -77.929)" fill="#1f4076"/>
    <path id="Tracé_3002" data-name="Tracé 3002" d="M223.78,118.84a4.681,4.681,0,0,0,1.611.494" transform="translate(-77.579 -80.065)" fill="#fff"/>
    <path id="Tracé_3003" data-name="Tracé 3003" d="M224.956,119.049h0a4.418,4.418,0,0,1-1.678-.508.129.129,0,0,1-.055-.175.127.127,0,0,1,.175-.055,4.318,4.318,0,0,0,1.553.479.129.129,0,0,1,0,.259Z" transform="translate(-77.144 -79.651)" fill="#1f4076"/>
    <path id="Tracé_3004" data-name="Tracé 3004" d="M250.151,88.056h-.024a.129.129,0,0,1-.105-.153l1.316-7.244a.132.132,0,0,1,.153-.105.127.127,0,0,1,.1.151l-1.316,7.249A.129.129,0,0,1,250.151,88.056Z" transform="translate(-97.528 -50.955)" fill="#1f4076"/>
    <path id="Tracé_3005" data-name="Tracé 3005" d="M249.158,114.277a.137.137,0,0,1-.11-.058c-.357-.535-1.843-.789-2.4-.841l-3.315-.328a.132.132,0,0,1-.117-.144.134.134,0,0,1,.144-.117l3.315.328c.084,0,2.081.211,2.579.959a.129.129,0,0,1-.108.2Z" transform="translate(-92.357 -75.464)" fill="#1f4076"/>
    <path id="Tracé_3006" data-name="Tracé 3006" d="M177.94,237.843a2.033,2.033,0,0,1,1.726.736c.849.877,2.4,6.266,2.529,7.613a2.932,2.932,0,0,1-.815,2.249Z" transform="translate(-42.727 -170.535)" fill="#f2f1f7"/>
    <path id="Tracé_3007" data-name="Tracé 3007" d="M180.964,248.144h-.034a.129.129,0,0,1-.091-.089l-3.44-10.607a.127.127,0,0,1,.022-.12.125.125,0,0,1,.11-.053.145.145,0,0,0,.034,0,2.244,2.244,0,0,1,1.779.777c.9.925,2.44,6.4,2.567,7.69a3.037,3.037,0,0,1-.858,2.356A.127.127,0,0,1,180.964,248.144Zm-3.263-10.6,3.315,10.212a2.776,2.776,0,0,0,.633-1.978c-.139-1.4-1.695-6.712-2.5-7.534A2.03,2.03,0,0,0,177.7,237.544Z" transform="translate(-42.311 -170.109)" fill="#1f4076"/>
    <path id="Tracé_3008" data-name="Tracé 3008" d="M179.119,247.336s-1.29-6.448-2.424-8.258-2.179-1.465-2.265.393,1.565,8.536,2.678,9.284A1.3,1.3,0,0,0,179.119,247.336Z" transform="translate(-40.056 -170.573)" fill="#5c6f99"/>
    <path id="Tracé_3009" data-name="Tracé 3009" d="M177.51,248.764a1.52,1.52,0,0,1-.851-.276c-1.2-.813-2.817-7.688-2.738-9.4.046-.947.343-1.563.817-1.678s1.11.3,1.692,1.232c1.131,1.807,2.385,8.026,2.44,8.3a1.553,1.553,0,0,1-.623,1.6A1.294,1.294,0,0,1,177.51,248.764Zm-2.589-11.123a.446.446,0,0,0-.115.014c-.352.091-.585.633-.623,1.438-.084,1.836,1.565,8.46,2.622,9.172a1.119,1.119,0,0,0,1.3.048,1.287,1.287,0,0,0,.513-1.33h0c-.014-.065-1.3-6.446-2.4-8.215C175.757,238.051,175.285,237.641,174.921,237.641Z" transform="translate(-39.67 -170.199)" fill="#1f4076"/>
    <path id="Tracé_3010" data-name="Tracé 3010" d="M193.483,163.753h-.024a.129.129,0,0,1-.105-.151l2.4-12.945a.127.127,0,0,1,.151-.105.132.132,0,0,1,.105.153l-2.4,12.945A.132.132,0,0,1,193.483,163.753Z" transform="translate(-54.444 -104.174)" fill="#fff"/>
    <path id="Tracé_3013" data-name="Tracé 3013" d="M189.794,87.212h-.022a.132.132,0,0,1-.108-.151l2.318-13.172a.13.13,0,0,1,.257.046l-2.316,13.184A.134.134,0,0,1,189.794,87.212Z" transform="translate(-51.64 -45.808)" fill="#1f4076"/>
    <path id="Tracé_3014" data-name="Tracé 3014" d="M224.388,74.32l-.868.5.379.935a5.993,5.993,0,0,0,4.7,4.356c3.96.808,6.75-2.877,6.75-2.877l.213-2.4-2.366-.026s-2.565,3.943-4.6,3.78-4.135-2.877-4.135-2.877l.587-.556Z" transform="translate(-77.381 -46.218)" fill="#1f4076"/>
    <path id="Tracé_3015" data-name="Tracé 3015" d="M229.3,79.951a5.818,5.818,0,0,1-1.148-.117,6.17,6.17,0,0,1-4.794-4.454l-.388-.913a.127.127,0,0,1,.053-.158l.868-.5a.127.127,0,0,1,.161.031l.669.839a.129.129,0,0,1-.012.17l-.506.479c.384.465,2.227,2.6,3.977,2.738,1.934.156,4.454-3.687,4.48-3.725a.117.117,0,0,1,.105-.058l2.368.026a.127.127,0,0,1,.125.139l-.216,2.4a.125.125,0,0,1-.024.065C235,76.935,232.68,79.951,229.3,79.951Zm-6.046-5.478.336.832A5.931,5.931,0,0,0,228.2,79.6c3.653.743,6.333-2.474,6.6-2.809l.2-2.225-2.157-.024c-.333.5-2.6,3.785-4.555,3.785h-.132c-2.064-.165-4.14-2.812-4.226-2.922a.129.129,0,0,1,0-.17l.506-.479-.511-.669Z" transform="translate(-76.955 -45.817)" fill="#1f4076"/>
    <circle id="Ellipse_277" data-name="Ellipse 277" cx="0.35" cy="0.35" r="0.35" transform="translate(145.271 34.687)" fill="#5c6f99"/>
    <path id="Tracé_3018" data-name="Tracé 3018" d="M129.282,76.011l7.113-2.7L144.31,74.7l-3.585,3.853Z" transform="translate(-4.703 -40.786)" fill="#fce15c" stroke="#5c6f99" stroke-width="0.3"/>
    <path id="Tracé_3017" data-name="Tracé 3017" d="M156.173,93.115l4.636-5.99,1.8-8.99-3.672,3.876" transform="translate(-23.048 -44.074)" fill="#fce15c" stroke="#5c6f99" stroke-width="0.3"/>
    <path id="Tracé_3016" data-name="Tracé 3016" d="M124.426,81.909l-2.037,11.127L133.4,95.689l2.615-11.278Z" transform="translate(0 -46.649)" fill="#fce15c" stroke="#5c6f99" stroke-width="0.3"/>
    <path id="Tracé_3011" data-name="Tracé 3011" d="M146.057,152.506a.412.412,0,0,1,.187.223,3.147,3.147,0,0,1,.24.683,2.622,2.622,0,0,1,.024-.937.376.376,0,0,1,.539.034,1.069,1.069,0,0,1,.225.561c-.089-.257-.153-.594.065-.755a.446.446,0,0,1,.559.1,1.3,1.3,0,0,1,.259.554c-.065-.2-.11-.463.06-.587a.343.343,0,0,1,.374,0,.9.9,0,0,1,.254.3,7.968,7.968,0,0,1,.58,1.024,1.372,1.372,0,0,1,.065,1.378c-.532.7-1.951.638-2.666.381a1.749,1.749,0,0,1-1.129-1.57C145.663,153.659,145.472,152.254,146.057,152.506Z" transform="translate(-18.17 -105.471)" fill="#f2f1f7"/>
    <path id="Tracé_3012" data-name="Tracé 3012" d="M147.554,155.348a3.73,3.73,0,0,1-1.184-.185,1.838,1.838,0,0,1-1.215-1.678c-.165-1.247.084-1.438.165-1.5a.352.352,0,0,1,.376-.024.479.479,0,0,1,.24.24.941.941,0,0,1,.031-.18.158.158,0,0,1,.026-.058.42.42,0,0,1,.312-.146.566.566,0,0,1,.4.144.448.448,0,0,1,.149-.18.571.571,0,0,1,.719.11l.048.058a.384.384,0,0,1,.1-.105.479.479,0,0,1,.52,0,1.052,1.052,0,0,1,.3.331,8.217,8.217,0,0,1,.587,1.04,1.429,1.429,0,0,1,.05,1.513A1.99,1.99,0,0,1,147.554,155.348Zm-2.038-3.162a.055.055,0,0,0-.038.012c-.022.017-.206.189-.065,1.247a1.6,1.6,0,0,0,1.045,1.472c.609.218,2.021.309,2.517-.338.206-.271.18-.69-.082-1.244a7.851,7.851,0,0,0-.568-1.007.822.822,0,0,0-.225-.252.223.223,0,0,0-.24-.014c-.086.062-.072.218-.036.362a.263.263,0,0,0,.026.084.132.132,0,0,1-.24.077.379.379,0,0,0-.026-.089,1,1,0,0,0-.2-.415A.314.314,0,0,0,147,152a.331.331,0,0,0-.089.316,2.4,2.4,0,0,1,.077.307.134.134,0,0,1-.1.153.129.129,0,0,1-.156-.084,1.506,1.506,0,0,1-.079-.314.594.594,0,0,0-.117-.2.3.3,0,0,0-.24-.091.163.163,0,0,0-.1.031,2.565,2.565,0,0,0-.014.856.129.129,0,0,1-.105.149.132.132,0,0,1-.151-.1,3.085,3.085,0,0,0-.225-.657.324.324,0,0,0-.12-.158h0a.2.2,0,0,0-.065-.019Z" transform="translate(-17.759 -105.05)" fill="#1f4076"/>
  </g>
</svg>
