<svg xmlns="http://www.w3.org/2000/svg" width="56.058" height="67.113" viewBox="0 0 56.058 67.113">
  <g id="_491_phone_maintenance_flatline" data-name="#491_phone_maintenance_flatline" transform="translate(-57.156 -63.057)">
    <path id="Tracé_3935" data-name="Tracé 3935" d="M118.492,106.875s8.328-.243,10.235-7.718l-5.957-.368-8.64,6.828Z" transform="translate(-36.035 -22.601)" fill="#fce15c"/>
    <path id="Tracé_3936" data-name="Tracé 3936" d="M75.6,223.67l-3.105.794.276,3.275,3.727-.412Z" transform="translate(-9.698 -101.586)" fill="#f2f1f7"/>
    <path id="Tracé_3937" data-name="Tracé 3937" d="M72.455,227.606a.18.18,0,0,1-.184-.165L72,224.162a.187.187,0,0,1,.136-.195l3.105-.79a.169.169,0,0,1,.14.018.176.176,0,0,1,.085.114l.9,3.657a.173.173,0,0,1-.026.147.184.184,0,0,1-.132.077l-3.727.415Zm-.081-3.308.246,2.94,3.33-.368-.8-3.271Z" transform="translate(-9.387 -101.269)" fill="#1f4076"/>
    <path id="Tracé_3958" data-name="Tracé 3958" d="M109.42,64.1a7.247,7.247,0,0,0-6.1.221c-3.2,1.635-2.411,5.2-3.631,5.91S75.347,79.981,73.05,80.643s-4.509,0-7.141-.9-4.256.04-6.16,1.657-2.661,5.145-1.628,5.45,5.3-3.425,5.906-3.363c0,0,2.029.658,2.65,1.782a14.009,14.009,0,0,1,.845,3.965s-4.686,3.072-4.693,3.253,1.36,1.624,4.219.856,4-2.573,5.362-5.046,6.218-3.929,9.86-5.278S99.795,76.365,101.055,76s2.639.305,4.454.849a5.858,5.858,0,0,0,6.027-1.5,5.47,5.47,0,0,0,1.628-5.45,29.45,29.45,0,0,1-4.531,2.573c-1.356.43-2.087-.246-2.874-1.327a3.654,3.654,0,0,1-.408-3.675c.577-.878,4.282-2.422,4.271-2.657A3.061,3.061,0,0,0,109.42,64.1Z" transform="translate(-0.318 -0.301)" fill="#5c6f99"/>
    <path id="Tracé_3959" data-name="Tracé 3959" d="M65.136,93.451a3.822,3.822,0,0,1-2.418-.735c-.151-.118-.4-.345-.39-.522,0-.118,0-.272,4.686-3.341a13.069,13.069,0,0,0-.816-3.782,5.392,5.392,0,0,0-2.521-1.691A11.767,11.767,0,0,0,61.7,84.642c-1.907,1.345-3.308,2.282-3.951,2.1a.823.823,0,0,1-.548-.706,6.409,6.409,0,0,1,2.106-5.061c2.106-1.786,3.738-2.573,6.34-1.694,2.72.93,4.818,1.54,7.031.9s25.359-9.688,26.593-10.4c.4-.228.559-.86.761-1.661a5.782,5.782,0,0,1,2.878-4.252,7.387,7.387,0,0,1,6.27-.221.173.173,0,0,1,.088.1,2.973,2.973,0,0,1,.217.775c0,.195-.165.3-1.382.926a11.288,11.288,0,0,0-2.918,1.838,3.5,3.5,0,0,0,.4,3.466c.8,1.1,1.47,1.639,2.668,1.257a29.109,29.109,0,0,0,4.484-2.551.176.176,0,0,1,.165-.018.173.173,0,0,1,.114.121,5.655,5.655,0,0,1-1.672,5.63,6.053,6.053,0,0,1-6.211,1.551c-.393-.118-.764-.243-1.1-.368a5.685,5.685,0,0,0-3.234-.489c-.823.235-7.222,2.657-12.367,4.6-2.767,1.047-5.145,1.951-6.4,2.411l-1.415.515c-3.37,1.209-7.189,2.573-8.35,4.678-1.433,2.6-2.573,4.362-5.476,5.145a6.354,6.354,0,0,1-1.657.213Zm-2.4-1.235c.257.316,1.514,1.3,3.951.65,2.745-.735,3.859-2.44,5.252-4.958,1.224-2.205,5.116-3.616,8.545-4.851.485-.173.956-.342,1.411-.511,1.242-.459,3.635-1.363,6.4-2.411,5.417-2.032,11.558-4.373,12.393-4.6a6.005,6.005,0,0,1,3.451.492c.368.118.735.239,1.1.368a5.7,5.7,0,0,0,5.847-1.47,5.339,5.339,0,0,0,1.643-5.02,26.2,26.2,0,0,1-4.362,2.451c-1.547.489-2.367-.419-3.076-1.393a3.855,3.855,0,0,1-.415-3.885,10.511,10.511,0,0,1,3.058-1.963c.485-.25,1.025-.529,1.18-.647a3.209,3.209,0,0,0-.158-.522,7.159,7.159,0,0,0-5.88.246c-1.915.978-2.345,2.664-2.69,4.017-.217.849-.4,1.58-.93,1.889-1.228.709-24.414,9.78-26.682,10.434s-4.465.044-7.247-.908c-2.437-.834-3.984-.074-5.983,1.624a6.117,6.117,0,0,0-1.988,4.7.553.553,0,0,0,.29.43c.526.151,2.4-1.172,3.638-2.047,1.363-.963,1.944-1.352,2.238-1.323h.037c.088.029,2.106.695,2.753,1.871a13.6,13.6,0,0,1,.871,4.043.184.184,0,0,1-.081.169C65.721,90.129,63.2,91.816,62.733,92.216Z" transform="translate(0 0)" fill="#5c6f99"/>
    <path id="Tracé_3960" data-name="Tracé 3960" d="M144.928,215.03l-3.388,3.907,2.249,2.359,3.521-3.627Z" transform="translate(-53.371 -96.121)" fill="#f2f1f7"/>
    <path id="Tracé_3961" data-name="Tracé 3961" d="M143.481,221.157a.184.184,0,0,1-.136-.059l-2.249-2.359a.18.18,0,0,1,0-.246l3.388-3.907a.2.2,0,0,1,.14-.066.184.184,0,0,1,.136.063l2.381,2.635a.187.187,0,0,1,0,.254L143.6,221.1a.187.187,0,0,1-.121.055Zm-2-2.547,2,2.1,3.264-3.366-2.124-2.356Z" transform="translate(-53.06 -95.798)" fill="#1f4076"/>
    <path id="Tracé_3962" data-name="Tracé 3962" d="M101.153,165.68s13.436,7.2,14.679,11.76-8.6,10.617-8.6,10.617l-2.786-3.275s3.675-4.936,2.135-6.443-8.82-4.495-8.82-4.495-.709,8.857-4.447,12.9c-4.013,4.337-13.19,4.568-13.19,4.568l-.687-4.936s6.207-1.613,8.82-4.41.059-15.652.059-15.652Z" transform="translate(-14.094 -64.908)" fill="#1f4076"/>
    <path id="Tracé_3963" data-name="Tracé 3963" d="M79.845,191.207a.18.18,0,0,1-.18-.158L79,186.095a.18.18,0,0,1,.136-.2c.062,0,6.185-1.628,8.74-4.344s.037-15.362,0-15.491a.2.2,0,0,1,.037-.151.191.191,0,0,1,.136-.07l12.823-.658a.18.18,0,0,1,.1.022c.551.294,13.517,7.288,14.767,11.863,1.264,4.634-8.269,10.577-8.677,10.827a.184.184,0,0,1-.235-.037l-2.793-3.264a.187.187,0,0,1,0-.232c1-1.334,3.308-5.057,2.154-6.2-1.349-1.316-7.288-3.837-8.534-4.362-.147,1.5-1.04,9.067-4.473,12.779-2.106,2.275-5.619,3.411-8.2,3.965a31.237,31.237,0,0,1-5.131.665Zm-.481-5L80,190.817c1.25-.059,9.272-.588,12.9-4.5s4.388-12.72,4.41-12.808a.173.173,0,0,1,.088-.14.176.176,0,0,1,.165,0c.3.121,7.328,3.021,8.883,4.531s-1.47,5.777-2.032,6.567l2.573,3.043c1.165-.735,9.5-6.248,8.383-10.331-1.172-4.3-13.69-11.154-14.543-11.613l-12.565.643c.331,1.735,2.348,12.951-.147,15.6C85.7,184.378,80.371,185.929,79.364,186.2Z" transform="translate(-13.812 -64.591)" fill="#1f4076"/>
    <path id="Tracé_3964" data-name="Tracé 3964" d="M156.76,104.034l.849-1.375s-.07-2.1.294-2.382.474,1.242.551,1.224.967-2.036,1.378-1.735a2.32,2.32,0,0,1,.456,1.838c-.114.419-2.117,4.142-2.117,4.142Z" transform="translate(-62.998 -23.2)" fill="#f2f1f7"/>
    <path id="Tracé_3965" data-name="Tracé 3965" d="M157.867,105.6a.187.187,0,0,1-.143-.07l-1.411-1.709a.187.187,0,0,1,0-.213l.82-1.33c0-.57-.026-2.168.368-2.477a.309.309,0,0,1,.3-.055c.232.088.331.445.43.945.4-.735.786-1.389,1.143-1.47a.32.32,0,0,1,.279.066,2.5,2.5,0,0,1,.518,2.029c-.125.448-1.926,3.8-2.132,4.179a.18.18,0,0,1-.147.1Zm-1.187-1.911,1.154,1.4c.794-1.47,1.9-3.583,1.974-3.863a2.256,2.256,0,0,0-.393-1.643c-.125.026-.434.474-.9,1.341-.195.368-.221.408-.32.43a.206.206,0,0,1-.147-.026c-.088-.059-.107-.147-.162-.441a3.676,3.676,0,0,0-.2-.753,6.245,6.245,0,0,0-.195,2.205.169.169,0,0,1-.029.1Z" transform="translate(-62.694 -22.864)" fill="#1f4076"/>
    <path id="Tracé_3966" data-name="Tracé 3966" d="M98.139,89.512a4.315,4.315,0,0,1-2.3.368,1.727,1.727,0,0,1-.967-.393.82.82,0,0,1-.206-.963,1.228,1.228,0,0,1-1.047-.393,2.183,2.183,0,0,1-.507-1.036,1.47,1.47,0,0,1,.283-1.411c-.393-.18-.827-.4-.948-.82a1.4,1.4,0,0,1,0-.639A6.983,6.983,0,0,1,92.814,83c.085-.213.224-.448.452-.467a2.205,2.205,0,0,1,.3-2.3,1.838,1.838,0,0,1,1-.658,7.3,7.3,0,0,1,1.283,0A2.205,2.205,0,0,1,97.6,78.63a1.525,1.525,0,0,1,1.25.919,3.363,3.363,0,0,1,1.433.022,1.624,1.624,0,0,1,1.1.889,1.1,1.1,0,0,1-.334,1.294,1.169,1.169,0,0,1,1.036,1.128,1.415,1.415,0,0,1-.922,1.286.5.5,0,0,0-.206.114.6.6,0,0,0-.092.272c-.066.305-.338.456-.456.735a7.444,7.444,0,0,0-.312,1.205,11.226,11.226,0,0,1-.368,1.143,6.383,6.383,0,0,1-.47,1.275c-.217.334-.485.368-.831.5C98.319,89.442,98.235,89.479,98.139,89.512Z" transform="translate(-22.297 -9.85)" fill="#f2f1f7"/>
    <path id="Tracé_3967" data-name="Tracé 3967" d="M96.037,89.775a3.674,3.674,0,0,1-.522-.037A1.863,1.863,0,0,1,94.45,89.3a1.069,1.069,0,0,1-.334-.9,1.47,1.47,0,0,1-.926-.463,2.337,2.337,0,0,1-.555-1.1A1.779,1.779,0,0,1,92.8,85.42a1.444,1.444,0,0,1-.831-.831,1.521,1.521,0,0,1,0-.735A7.133,7.133,0,0,1,92.34,82.6a1,1,0,0,1,.368-.5,2.4,2.4,0,0,1,.368-2.319,2.032,2.032,0,0,1,1.1-.735,7.448,7.448,0,0,1,1.242,0,2.363,2.363,0,0,1,1.863-.933,1.713,1.713,0,0,1,1.338.9,3.308,3.308,0,0,1,1.378.048,1.8,1.8,0,0,1,1.2,1,1.323,1.323,0,0,1-.136,1.257,1.378,1.378,0,0,1,.853,1.231,1.591,1.591,0,0,1-1.04,1.47.393.393,0,0,0-.132.062.279.279,0,0,0-.037.125v.066a1.128,1.128,0,0,1-.29.5,1.147,1.147,0,0,0-.18.254,3.746,3.746,0,0,0-.2.768c-.029.14-.059.276-.092.4a11.584,11.584,0,0,1-.368,1.158c-.051.14-.1.283-.136.43a3.212,3.212,0,0,1-.368.882,1.136,1.136,0,0,1-.684.478l-.228.088-.265.114h0A4.939,4.939,0,0,1,96.037,89.775Zm-1.669-1.757a.176.176,0,0,1,.151.081.187.187,0,0,1,0,.195.647.647,0,0,0,.169.735,1.54,1.54,0,0,0,.867.342A4.164,4.164,0,0,0,97.761,89l.257-.107c.088-.04.173-.07.254-.1a.794.794,0,0,0,.5-.331,2.974,2.974,0,0,0,.309-.786c.044-.154.088-.309.143-.456a11.448,11.448,0,0,0,.368-1.1c.029-.121.055-.254.085-.368a3.937,3.937,0,0,1,.235-.853,1.47,1.47,0,0,1,.235-.338.82.82,0,0,0,.213-.342v-.055a.628.628,0,0,1,.125-.305.617.617,0,0,1,.254-.151,1.25,1.25,0,0,0,.827-1.125.974.974,0,0,0-.864-.945.187.187,0,0,1-.092-.338.915.915,0,0,0,.268-1.069,1.441,1.441,0,0,0-.963-.779,3.054,3.054,0,0,0-1.356-.022.18.18,0,0,1-.2-.11,1.338,1.338,0,0,0-1.1-.8,2.04,2.04,0,0,0-1.588.864h0a.184.184,0,0,1-.232.066,9.431,9.431,0,0,0-1.165,0,1.61,1.61,0,0,0-.845.57,2.032,2.032,0,0,0-.261,2.117.18.18,0,0,1,0,.173.176.176,0,0,1-.147.092c-.129,0-.228.195-.29.368a6.526,6.526,0,0,0-.368,1.191,1.216,1.216,0,0,0,0,.551c.1.338.489.54.849.7a.184.184,0,0,1,.048.305,1.369,1.369,0,0,0-.228,1.235,1.963,1.963,0,0,0,.459.948,1.033,1.033,0,0,0,.886.342Zm3.473,1.165Z" transform="translate(-21.992 -9.521)" fill="#1f4076"/>
    <path id="Tracé_3968" data-name="Tracé 3968" d="M116.12,94.69s1.654,1.1,1.58,1.5-.853.492-.853.492" transform="translate(-37.294 -20.008)" fill="#f2f1f7"/>
    <path id="Tracé_3969" data-name="Tracé 3969" d="M116.527,96.544a.184.184,0,1,1-.022-.368c.261-.029.662-.158.695-.342s-.709-.786-1.5-1.308a.184.184,0,1,1,.2-.309c.658.434,1.746,1.228,1.665,1.683-.1.526-.922.632-1.014.643Z" transform="translate(-36.973 -19.69)" fill="#1f4076"/>
    <path id="Tracé_3970" data-name="Tracé 3970" d="M107.383,86a.537.537,0,0,1,.312.151,3.469,3.469,0,0,1,.761,1.007,20.071,20.071,0,0,1,1.047,2.264c.423,1.014.823,2.04,1.2,3.069.243.658-1.411,1.378-1.786,1.312l1.341,2.422a3.7,3.7,0,0,1-2.308.511c-1.606-.048-1.749-.368-1.749-.368L105.06,93.4a2.264,2.264,0,0,0,1.191-2.043,4.543,4.543,0,0,1,0-.834c.077-.29.323-.448.331-.786a1.014,1.014,0,0,0-.419-.794c-.055-.044-.121-.092-.114-.162a.191.191,0,0,1,.062-.1.856.856,0,0,0-.129-1.213c.419-.18.518-.735.559-1.172,0,.143.669-.25.68-.254A.474.474,0,0,1,107.383,86Z" transform="translate(-30.298 -14.511)" fill="#f2f1f7"/>
    <path id="Tracé_3971" data-name="Tracé 3971" d="M107.829,96.6h-.2c-1.551-.048-1.838-.342-1.911-.467l-1.143-2.981a.18.18,0,0,1,.1-.235,2.048,2.048,0,0,0,1.077-1.882,1.894,1.894,0,0,0,0-.309,1.536,1.536,0,0,1,0-.566,1.29,1.29,0,0,1,.176-.368.713.713,0,0,0,.147-.368.816.816,0,0,0-.327-.662.316.316,0,0,1-.085-.526.669.669,0,0,0-.092-.945.184.184,0,0,1-.077-.169.191.191,0,0,1,.11-.151c.331-.14.415-.617.448-1.018a.187.187,0,0,1,.2-.169h.062a3.308,3.308,0,0,0,.481-.232l.059-.029a.735.735,0,0,1,.22-.04.7.7,0,0,1,.426.191,3.568,3.568,0,0,1,.8,1.058,17.725,17.725,0,0,1,.963,2.062l.1.224c.423,1.011.827,2.047,1.2,3.076a.665.665,0,0,1-.173.691,3.146,3.146,0,0,1-1.492.838l1.205,2.176a.184.184,0,0,1-.044.235A3.7,3.7,0,0,1,107.829,96.6Zm-1.786-.636a3.2,3.2,0,0,0,1.6.272,4,4,0,0,0,2.054-.393l-1.257-2.268a.187.187,0,0,1,0-.195.2.2,0,0,1,.184-.074,2.661,2.661,0,0,0,1.47-.735.342.342,0,0,0,.11-.327c-.368-1.025-.779-2.054-1.2-3.065l-.092-.22a17.4,17.4,0,0,0-.945-2.021,3.219,3.219,0,0,0-.713-.956c-.107-.085-.154-.11-.2-.11h0a.385.385,0,0,0-.1,0,3.286,3.286,0,0,1-.573.276,1.566,1.566,0,0,1-.43,1.011,1.051,1.051,0,0,1,.206.526,1,1,0,0,1-.221.761h0a1.194,1.194,0,0,1,.474.959,1.014,1.014,0,0,1-.206.57,1.01,1.01,0,0,0-.132.268,1.386,1.386,0,0,0,0,.426,2.1,2.1,0,0,1,.022.368,2.525,2.525,0,0,1-1.143,2.117Z" transform="translate(-29.984 -14.189)" fill="#1f4076"/>
    <path id="Tracé_3972" data-name="Tracé 3972" d="M116.592,101.356a1.294,1.294,0,0,1-1.672-.176" transform="translate(-36.535 -24.113)" fill="#f2f1f7"/>
    <path id="Tracé_3973" data-name="Tracé 3973" d="M115.567,101.459a1.588,1.588,0,0,1-1.08-.452.185.185,0,1,1,.261-.261,1.1,1.1,0,0,0,1.437.165.185.185,0,0,1,.224.294A1.415,1.415,0,0,1,115.567,101.459Z" transform="translate(-36.226 -23.804)" fill="#1f4076"/>
    <path id="Tracé_3974" data-name="Tracé 3974" d="M108.1,97.138a1.5,1.5,0,0,0-.588-.573,1.981,1.981,0,0,0-.562-.3.735.735,0,0,0-.614.066.68.68,0,0,0-.265.481,1.3,1.3,0,0,0,.088.555,2.363,2.363,0,0,0,1.838,1.5l-.081-.037" transform="translate(-30.94 -20.978)" fill="#f2f1f7"/>
    <path id="Tracé_3975" data-name="Tracé 3975" d="M107.693,98.723h-.026a2.573,2.573,0,0,1-1.97-1.617,1.408,1.408,0,0,1-.1-.636.834.834,0,0,1,.338-.614.893.893,0,0,1,.775-.092,2.348,2.348,0,0,1,.61.323,1.691,1.691,0,0,1,.647.651.184.184,0,0,1-.1.243.18.18,0,0,1-.243-.092,1.341,1.341,0,0,0-.515-.5,1.867,1.867,0,0,0-.511-.276.54.54,0,0,0-.459.04.489.489,0,0,0-.184.368,1.069,1.069,0,0,0,.077.474,2.183,2.183,0,0,0,1.518,1.345.184.184,0,0,1,.125,0l.081.037a.187.187,0,1,1-.074.368Z" transform="translate(-30.638 -20.656)" fill="#1f4076"/>
    <path id="Tracé_3976" data-name="Tracé 3976" d="M112.748,106.706a2.94,2.94,0,0,1-1.628-.316,2.446,2.446,0,0,0,2.205,1.4Z" transform="translate(-34.131 -27.408)" fill="#1f4076"/>
    <path id="Tracé_3977" data-name="Tracé 3977" d="M112.887,107.667a2.606,2.606,0,0,1-2.205-1.507.191.191,0,0,1,.044-.217.176.176,0,0,1,.221,0,2.756,2.756,0,0,0,1.51.287.2.2,0,0,1,.18.1l.6,1.077a.187.187,0,0,1,0,.176.18.18,0,0,1-.147.1A1.567,1.567,0,0,1,112.887,107.667Zm-1.569-1.18a2.062,2.062,0,0,0,1.43.809l-.39-.706a3.47,3.47,0,0,1-1.04-.1Z" transform="translate(-33.844 -27.101)" fill="#1f4076"/>
    <ellipse id="Ellipse_382" data-name="Ellipse 382" cx="0.154" cy="0.393" rx="0.154" ry="0.393" transform="translate(77.444 73.843) rotate(-20.99)" fill="#1f4076"/>
    <path id="Tracé_3978" data-name="Tracé 3978" d="M108.331,110.221c-.463-.29-5.623-1.264-6.887,1.044s-1.988,18.258-.926,21.779l13.642-2.72S110.9,111.82,108.331,110.221Z" transform="translate(-27.101 -29.544)" fill="#fce15c"/>
    <path id="Tracé_3979" data-name="Tracé 3979" d="M123.035,116.407s3.554,3,6.854,2.018,7.457-6.858,7.457-6.858l-2.205-2.687s-2.264,4.087-5.006,4.112-7.475-3.333-7.475-3.333Z" transform="translate(-41.43 -28.983)" fill="#fce15c"/>
    <path id="Tracé_3980" data-name="Tracé 3980" d="M126.476,125.436c-3.344,0-6.891-2.466-7.086-2.6a.184.184,0,0,1,.2-.29c.059.044,6.046,4.2,9.607,1.749a15.365,15.365,0,0,0,4.855-4.818.18.18,0,0,1,.246-.081.187.187,0,0,1,.081.25,15.7,15.7,0,0,1-4.972,4.95,5.064,5.064,0,0,1-2.929.842Z" transform="translate(-39.337 -35.619)" fill="#5c6f99"/>
    <path id="Tracé_3981" data-name="Tracé 3981" d="M125.788,113.389h-.04a26.218,26.218,0,0,1-5.733-2.771,2.6,2.6,0,0,0-1.8-.7.185.185,0,0,1-.044-.368,2.94,2.94,0,0,1,2.08.786,25.749,25.749,0,0,0,5.575,2.7.18.18,0,0,1,.143.217A.184.184,0,0,1,125.788,113.389Z" transform="translate(-38.487 -29.405)" fill="#5c6f99"/>
    <path id="Tracé_3982" data-name="Tracé 3982" d="M145.695,89.863a6.245,6.245,0,0,0-.121.823.841.841,0,0,0,0,.254.573.573,0,0,0,.518.353,1.838,1.838,0,0,0,.948-.195c.8-.32,2.3-1.386,1.2-2.3C147.4,88.136,145.89,88.948,145.695,89.863Z" transform="translate(-55.916 -16.129)" fill="#f2f1f7"/>
    <path id="Tracé_3983" data-name="Tracé 3983" d="M145.93,91.2h-.173a.735.735,0,0,1-.643-.5.845.845,0,0,1,0-.316,6.5,6.5,0,0,1,.121-.845h0a2.032,2.032,0,0,1,1.338-1.334,1.507,1.507,0,0,1,1.488.18,1.044,1.044,0,0,1,.448.989c-.114.735-1.077,1.371-1.694,1.621A2.411,2.411,0,0,1,145.93,91.2Zm1.257-2.753a1.609,1.609,0,0,0-.507.092,1.7,1.7,0,0,0-1.1,1.062h0a6.583,6.583,0,0,0-.118.8.647.647,0,0,0,0,.191.4.4,0,0,0,.338.232,1.738,1.738,0,0,0,.856-.184c.559-.224,1.382-.786,1.47-1.334a.691.691,0,0,0-.316-.65A.967.967,0,0,0,147.187,88.448Zm-1.786,1.1Z" transform="translate(-55.623 -15.831)" fill="#1f4076"/>
    <path id="Tracé_3984" data-name="Tracé 3984" d="M138.327,225.66s-1.966,1.786-1.863,2.018,4.061,5.2,4.554,4.682-.437-4.34-.437-4.34Z" transform="translate(-50.158 -102.844)" fill="#5c6f99"/>
    <path id="Tracé_3985" data-name="Tracé 3985" d="M140.606,232.273h-.073c-.948-.162-4.436-4.565-4.55-4.822-.055-.125-.158-.368,1.907-2.231a.18.18,0,0,1,.254,0l2.253,2.356a.188.188,0,0,1,.044.085c.224.919.915,3.965.393,4.513a.309.309,0,0,1-.228.1Zm-4.263-4.939c.368.6,3.613,4.509,4.241,4.572.232-.342-.066-2.363-.489-4.105L138,225.6a12.734,12.734,0,0,0-1.661,1.738Z" transform="translate(-49.843 -102.533)" fill="#5c6f99"/>
    <path id="Tracé_3986" data-name="Tracé 3986" d="M67.68,225.83s-2.554.345-2.76.86.551,6.347,1.069,6.248,1.966-3.829,1.966-3.829Z" transform="translate(-4.889 -102.952)" fill="#5c6f99"/>
    <path id="Tracé_3987" data-name="Tracé 3987" d="M65.662,232.8a.305.305,0,0,1-.235-.129c-.533-.636-1.224-5.781-.989-6.369s2.279-.893,2.9-.978a.187.187,0,0,1,.209.169l.276,3.275a.335.335,0,0,1,0,.085c-.448,1.147-1.547,3.829-2.1,3.94Zm.055-.368Zm1.47-6.729a5.284,5.284,0,0,0-2.426.735c-.257.695.6,5.425.908,5.965a16.727,16.727,0,0,0,1.771-3.646Z" transform="translate(-4.576 -102.633)" fill="#5c6f99"/>
  </g>
</svg>
