<svg xmlns="http://www.w3.org/2000/svg" width="48" height="48" viewBox="0 0 48 48">
  <g id="Groupe_2068" data-name="Groupe 2068" transform="translate(-553 -282)">
    <g id="Icon" transform="translate(537 194)">
      <circle id="Ellipse_171" data-name="Ellipse 171" cx="19" cy="19" r="19" transform="translate(21 93)" fill="#4973d2"/>
      <g id="Ellipse_175" data-name="Ellipse 175" transform="translate(16 88)" fill="none" stroke="#4973d2" stroke-width="1">
        <circle cx="24" cy="24" r="24" stroke="none"/>
        <circle cx="24" cy="24" r="23.5" fill="none"/>
      </g>
      <g id="Time_Icon" data-name="Time Icon" transform="translate(-4.522 15.364)" opacity="0">
        <path id="Union_2" data-name="Union 2" d="M3.014,7.141,1.4,5.529a1.113,1.113,0,0,1-.845-2.04V.557a.557.557,0,1,1,1.113,0V3.489a1.114,1.114,0,0,1,.518,1.252L3.8,6.354a.557.557,0,1,1-.787.787Z" transform="translate(44.7 90.902)" fill="#fff"/>
      </g>
      <g id="Location_Icon" data-name="Location Icon" transform="translate(38.148 109.25)" opacity="0">
        <path id="Tracé_76" data-name="Tracé 76" d="M2.057.158a1.889,1.889,0,0,0-.78.164A1.993,1.993,0,0,0,.619.8a2.141,2.141,0,0,0-.431.712,2.244,2.244,0,0,0-.135.834q0,1.272,1.839,2.995a.242.242,0,0,0,.333,0Q4.06,3.615,4.063,2.345a2.243,2.243,0,0,0-.135-.835A2.141,2.141,0,0,0,3.5.8,1.993,1.993,0,0,0,2.838.322,1.889,1.889,0,0,0,2.057.158Zm0,2.667a.48.48,0,0,1-.278-.09.528.528,0,0,1-.184-.239.565.565,0,0,1-.028-.308A.545.545,0,0,1,1.7,1.914a.493.493,0,0,1,.256-.146.473.473,0,0,1,.289.03.509.509,0,0,1,.225.2.558.558,0,0,1-.062.674A.488.488,0,0,1,2.057,2.825Z" transform="translate(-0.053 -0.158)" fill="#fff"/>
      </g>
      <g id="Activity_Icon" data-name="Activity Icon" transform="translate(37.237 107.551)" opacity="0">
        <path id="Tracé_77" data-name="Tracé 77" d="M6.756,4.278H6.221V2.82a.74.74,0,0,0-.208-.515.708.708,0,0,0-.5-.215H4.081V1.543A.922.922,0,0,0,3.82.9.878.878,0,0,0,2.559.9a.922.922,0,0,0-.261.645V2.09H.871a.7.7,0,0,0-.5.215.736.736,0,0,0-.207.515V4.2H.693a.953.953,0,0,1,.681.288,1,1,0,0,1,0,1.392.952.952,0,0,1-.681.288H.158V7.559a.74.74,0,0,0,.21.515.708.708,0,0,0,.5.214H2.227V7.741A1,1,0,0,1,2.3,7.365a.986.986,0,0,1,.209-.319.962.962,0,0,1,.312-.213.944.944,0,0,1,.737,0,.962.962,0,0,1,.312.213.986.986,0,0,1,.209.319,1,1,0,0,1,.073.377v.547H5.51a.708.708,0,0,0,.5-.214.74.74,0,0,0,.21-.515V6.1h.535a.882.882,0,0,0,.631-.267.926.926,0,0,0,0-1.289.882.882,0,0,0-.631-.267Z" transform="translate(-0.158 -0.632)" fill="#fff"/>
      </g>
      <g id="Présence_Icon" data-name="Présence Icon" transform="translate(43.379 115.297)" opacity="0">
        <g id="people_black_24dp" transform="translate(-6.93 -6.848)">
          <path id="Tracé_1030" data-name="Tracé 1030" d="M0,0H7.1V7.1H0Z" fill="none"/>
          <path id="Tracé_1031" data-name="Tracé 1031" d="M5.438,6.775a.888.888,0,1,0-.888-.888A.884.884,0,0,0,5.438,6.775Zm-2.367,0a.888.888,0,1,0-.888-.888A.884.884,0,0,0,3.071,6.775Zm0,.592C2.382,7.367,1,7.713,1,8.4v.444a.3.3,0,0,0,.3.3H4.847a.3.3,0,0,0,.3-.3V8.4C5.143,7.713,3.761,7.367,3.071,7.367Zm2.367,0c-.086,0-.183.006-.287.015.006,0,.009.009.012.012A1.231,1.231,0,0,1,5.734,8.4v.444a.889.889,0,0,1-.053.3H7.214a.3.3,0,0,0,.3-.3V8.4C7.51,7.713,6.128,7.367,5.438,7.367Z" transform="translate(-0.704 -3.521)" fill="#fff"/>
        </g>
      </g>
      <g id="Screen_Icon" data-name="Screen Icon" transform="translate(34.93 108.449)" opacity="0">
        <g id="responsive-design" transform="translate(0 0)">
          <path id="Tracé_1021" data-name="Tracé 1021" d="M8.6,14a.079.079,0,0,1-.083.073H5.768A.079.079,0,0,1,5.684,14a.08.08,0,0,1,.083-.073.509.509,0,0,0,.383-.138.8.8,0,0,0,.167-.583H7.966a.811.811,0,0,0,.167.584.514.514,0,0,0,.383.137A.08.08,0,0,1,8.6,14Zm2.358-6.95H3.327a.769.769,0,0,0-.817.712v4.586a.769.769,0,0,0,.817.712H8.521v-.891H3.327a.193.193,0,0,1-.2-.179V7.767a.193.193,0,0,1,.2-.179h7.63a.193.193,0,0,1,.2.179V9.809h.613V7.767A.769.769,0,0,0,10.957,7.055ZM7.142,12.43a.192.192,0,1,1-.218.19A.2.2,0,0,1,7.142,12.43Z" transform="translate(-2.51 -7.055)" fill="#fff"/>
          <path id="Tracé_1024" data-name="Tracé 1024" d="M43.4,27H40.08a.472.472,0,0,0-.5.436v4.064a.473.473,0,0,0,.5.436H43.4a.472.472,0,0,0,.5-.436V27.431A.471.471,0,0,0,43.4,27ZM41.65,31.759a.158.158,0,1,1,.18-.156A.168.168,0,0,1,41.65,31.759Zm1.873-.628a.157.157,0,0,1-.167.145H40.122a.158.158,0,0,1-.167-.145V27.5a.157.157,0,0,1,.167-.145h3.234a.156.156,0,0,1,.167.145Z" transform="translate(-33.403 -24.096)" fill="#fff"/>
        </g>
      </g>
      <g id="Transport_Icon" data-name="Transport Icon" transform="translate(44.262 115.18)" opacity="0">
        <g id="commute_black_24dp" transform="translate(-6.93 -6.848)">
          <path id="Tracé_1032" data-name="Tracé 1032" d="M0,0H7.336V7.336H0Z" fill="none"/>
          <path id="Tracé_1033" data-name="Tracé 1033" d="M5.057,4H2.917A.916.916,0,0,0,2,4.917V7.362a.916.916,0,0,0,.917.917l-.235.235a.216.216,0,0,0,.306.306l.541-.541H4.14V6.751H2.764A.151.151,0,0,1,2.611,6.6V4.764a.151.151,0,0,1,.153-.153H5.209a.151.151,0,0,1,.153.153v.458h.611V4.917A.916.916,0,0,0,5.057,4ZM2.917,7.057a.306.306,0,1,1-.306.306A.307.307,0,0,1,2.917,7.057ZM7.676,5.73a.307.307,0,0,0-.3-.2h-2.2a.311.311,0,0,0-.3.2L4.448,6.986v1.6a.306.306,0,0,0,.611,0V8.279H7.505v.306a.306.306,0,0,0,.611,0l0-1.6Zm-2.384.1H7.273a.154.154,0,0,1,.144.1l.211.611a.153.153,0,0,1-.144.2h-2.4a.153.153,0,0,1-.144-.2l.211-.611A.142.142,0,0,1,5.292,5.834ZM5.057,7.668a.306.306,0,1,1,.306-.306A.307.307,0,0,1,5.057,7.668Zm2.445,0a.306.306,0,1,1,.306-.306A.307.307,0,0,1,7.5,7.668Z" transform="translate(-1.389 -2.777)" fill="#fff"/>
        </g>
      </g>
    </g>
    <g id="Présence_Icon-2" data-name="Présence Icon" transform="translate(571.775 299.633)">
      <g id="people_black_24dp-2" data-name="people_black_24dp" transform="translate(-6.93 -6.848)">
        <path id="Tracé_1030-2" data-name="Tracé 1030" d="M0,0H24.309V24.309H0Z" fill="none"/>
        <path id="Tracé_1031-2" data-name="Tracé 1031" d="M16.193,11.077a3.039,3.039,0,1,0-3.039-3.039A3.026,3.026,0,0,0,16.193,11.077Zm-8.1,0A3.039,3.039,0,1,0,5.051,8.039,3.026,3.026,0,0,0,8.09,11.077Zm0,2.026C5.73,13.1,1,14.288,1,16.648v1.519A1.016,1.016,0,0,0,2.013,19.18H14.167a1.016,1.016,0,0,0,1.013-1.013V16.648C15.18,14.288,10.45,13.1,8.09,13.1Zm8.1,0c-.294,0-.628.02-.982.051.02.01.03.03.041.041a4.213,4.213,0,0,1,1.955,3.454v1.519a3.043,3.043,0,0,1-.182,1.013H22.27a1.016,1.016,0,0,0,1.013-1.013V16.648C23.283,14.288,18.553,13.1,16.193,13.1Z" transform="translate(0.013 0.064)" fill="#fff"/>
      </g>
    </g>
  </g>
</svg>
