<svg xmlns="http://www.w3.org/2000/svg" width="176.827" height="133.852" viewBox="0 0 176.827 133.852">
  <g id="_491_phone_maintenance_flatline" data-name="#491_phone_maintenance_flatline" transform="translate(-57.156 -41.87)">
    <path id="Tracé_4551" data-name="Tracé 4551" d="M121.476,112.406s14.025-.408,17.237-13l-10.033-.619-14.551,11.5Z" transform="translate(-21.712 -21.692)" fill="#f7e3df"/>
    <path id="Tracé_4552" data-name="Tracé 4552" d="M77.72,223.67l-5.23,1.337.464,5.515,6.276-.693Z" transform="translate(-5.843 -69.282)" fill="#f2f1f7"/>
    <path id="Tracé_4553" data-name="Tracé 4553" d="M72.767,230.64a.3.3,0,0,1-.309-.279L72,224.841a.316.316,0,0,1,.229-.328l5.23-1.331a.285.285,0,0,1,.235.031.3.3,0,0,1,.142.192l1.51,6.158a.291.291,0,0,1-.043.248.31.31,0,0,1-.223.13l-6.276.7Zm-.136-5.57.415,4.951,5.607-.619L77.3,223.894Z" transform="translate(-5.656 -69.091)" fill="#b6462c"/>
    <path id="Tracé_4554" data-name="Tracé 4554" d="M306.753,59.727s-1.442-2.649-3.713-6.307c0,0-7.322,5.465-7.26,5.162S306.753,59.727,306.753,59.727Z" transform="translate(-90.936 -4.402)" fill="#b6462c"/>
    <path id="Tracé_4555" data-name="Tracé 4555" d="M306.541,59.846H306.5c-3.85-.514-10.138-1.275-10.819-1.182-.18.074-.235.037-.3,0a.322.322,0,0,1-.142-.334c0-.087.037-.173.235-.223h0c.427-.167,4.6-3.231,7.142-5.125a.3.3,0,0,1,.241-.056.328.328,0,0,1,.2.136c2.278,3.627,3.713,6.3,3.744,6.325a.309.309,0,0,1-.272.458Zm-9.9-1.758c1.349.074,4.011.365,9.284,1.065-.514-.922-1.671-2.946-3.255-5.471-3.243,2.476-5.038,3.757-6,4.407Z" transform="translate(-90.731 -4.211)" fill="#b6462c"/>
    <path id="Tracé_4556" data-name="Tracé 4556" d="M154.642,235.4l-3.652-6.09,5.05-4.568Z" transform="translate(-35.759 -69.69)" fill="#b6462c"/>
    <path id="Tracé_4557" data-name="Tracé 4557" d="M154.451,235.517a.309.309,0,0,1-.266-.149l-3.652-6.09a.316.316,0,0,1,.056-.39l5.057-4.568a.3.3,0,0,1,.347-.043.31.31,0,0,1,.167.316l-1.4,10.639a.3.3,0,0,1-.241.266Zm-3.255-6.338,3.095,5.106,1.176-8.943Z" transform="translate(-35.568 -69.499)" fill="#b6462c"/>
    <path id="Tracé_4558" data-name="Tracé 4558" d="M158.733,171.018l58.8,8.374a5.125,5.125,0,0,0,5.57-3.608L253.519,61.966a3.608,3.608,0,0,0-3.379-4.636L190.192,52.5a5.3,5.3,0,0,0-5.341,3.788L155.657,166.339a3.664,3.664,0,0,0,3.076,4.679Z" transform="translate(-37.48 -4.047)" fill="#b6462c"/>
    <path id="Tracé_4559" data-name="Tracé 4559" d="M217.984,179.579a5.429,5.429,0,0,1-.712-.049l-58.8-8.38h0a3.992,3.992,0,0,1-2.822-1.739,4.06,4.06,0,0,1-.5-3.342L184.34,56.032A5.638,5.638,0,0,1,190,52l59.948,4.834a4.128,4.128,0,0,1,3.095,1.683,3.936,3.936,0,0,1,.538,3.342L223.158,175.674A5.459,5.459,0,0,1,217.984,179.579Zm-59.416-9.042,58.8,8.38a4.8,4.8,0,0,0,5.224-3.385L253.009,61.72a3.348,3.348,0,0,0-.439-2.828,3.509,3.509,0,0,0-2.668-1.424l-59.948-4.852a4.951,4.951,0,0,0-5.013,3.559L155.759,166.229a3.484,3.484,0,0,0,.421,2.841,3.4,3.4,0,0,0,2.4,1.467Z" transform="translate(-37.285 -3.857)" fill="#b6462c"/>
    <path id="Tracé_4560" data-name="Tracé 4560" d="M152.543,160.9l58.8,8.374a5.112,5.112,0,0,0,5.57-3.608L247.336,51.846a3.608,3.608,0,0,0-3.379-4.636L184,42.376a5.3,5.3,0,0,0-5.335,3.788L149.474,156.2a3.664,3.664,0,0,0,3.07,4.7Z" transform="translate(-35.121 -0.191)" fill="#f2f1f7"/>
    <path id="Tracé_4561" data-name="Tracé 4561" d="M211.8,169.446a5.413,5.413,0,0,1-.706-.05l-58.8-8.38h0a3.992,3.992,0,0,1-2.828-1.739,4.079,4.079,0,0,1-.5-3.342L178.157,45.9a5.62,5.62,0,0,1,5.657-4.023l59.954,4.834a4.14,4.14,0,0,1,3.095,1.683,3.918,3.918,0,0,1,.532,3.342L217.007,165.553a5.465,5.465,0,0,1-5.211,3.893ZM183.431,42.483a5,5,0,0,0-4.679,3.571L149.576,156.09a3.484,3.484,0,0,0,.421,2.841,3.392,3.392,0,0,0,2.4,1.467h0l58.8,8.38a4.815,4.815,0,0,0,5.224-3.385L246.826,51.581a3.324,3.324,0,0,0-.446-2.828,3.509,3.509,0,0,0-2.661-1.424l-59.954-4.834Z" transform="translate(-34.927)" fill="#b6462c"/>
    <path id="Tracé_4562" data-name="Tracé 4562" d="M245.987,66.506,184.61,61.19l-23.55,88.789,60.474,8.04Z" transform="translate(-39.596 -7.363)" fill="#f7e3df" stroke="#b6462c" stroke-linecap="round" stroke-linejoin="round" stroke-width="0.3"/>
    <path id="Tracé_4563" data-name="Tracé 4563" d="M192.535,227.033,204,228.648a3.1,3.1,0,0,0,3.348-2.2l1.139-4.277a2.3,2.3,0,0,0-1.974-2.94l-11.493-1.56a3.1,3.1,0,0,0-3.3,2.2l-1.126,4.24a2.284,2.284,0,0,0,1.943,2.921Z" transform="translate(-50.815 -66.988)" fill="#f7e3df"/>
    <path id="Tracé_4564" data-name="Tracé 4564" d="M204.251,228.834a2.607,2.607,0,0,1-.433-.031l-11.468-1.609h0a2.6,2.6,0,0,1-2.2-3.311l1.133-4.24a3.4,3.4,0,0,1,3.645-2.426l11.493,1.553a2.621,2.621,0,0,1,2.234,3.33l-1.176,4.258a3.423,3.423,0,0,1-3.225,2.476Zm-11.815-2.253L203.9,228.19a2.779,2.779,0,0,0,3.008-1.974l1.139-4.277a2.017,2.017,0,0,0-.248-1.671,2.079,2.079,0,0,0-1.473-.885l-11.487-1.553a2.767,2.767,0,0,0-2.971,1.968l-1.126,4.246a1.987,1.987,0,0,0,1.69,2.538Z" transform="translate(-50.641 -66.814)" fill="#b6462c"/>
    <path id="Tracé_4565" data-name="Tracé 4565" d="M257.968,56.169h0L240.434,54.7a.309.309,0,0,1-.285-.334.3.3,0,0,1,.334-.279L258,55.55a.309.309,0,1,1,0,.619Z" transform="translate(-69.736 -4.656)" fill="#b6462c"/>
    <path id="Tracé_4566" data-name="Tracé 4566" d="M235.056,54.25h-.031l-2.321-.192a.31.31,0,1,1,.05-.619l2.327.2a.309.309,0,1,1,0,.619Z" transform="translate(-66.79 -4.409)" fill="#b6462c"/>
    <path id="Tracé_4567" data-name="Tracé 4567" d="M245.518,113.635a.322.322,0,0,1-.26-.136L217.487,72.922a.31.31,0,0,1,.514-.347l27.771,40.545a.309.309,0,0,1-.08.427A.316.316,0,0,1,245.518,113.635Z" transform="translate(-61.08 -11.65)" fill="#b6462c"/>
    <path id="Tracé_4568" data-name="Tracé 4568" d="M215.874,179.2a.316.316,0,0,1-.254-.13L198.91,155.053a.309.309,0,1,1,.508-.353l16.711,24.008a.31.31,0,0,1-.074.433A.322.322,0,0,1,215.874,179.2Z" transform="translate(-53.996 -42.943)" fill="#b6462c"/>
    <path id="Tracé_4569" data-name="Tracé 4569" d="M229.548,151.259a.322.322,0,0,1-.26-.136l-6.53-9.711a.316.316,0,0,1,.087-.433.309.309,0,0,1,.427.087l6.53,9.711a.3.3,0,0,1-.08.427A.316.316,0,0,1,229.548,151.259Z" transform="translate(-63.089 -37.75)" fill="#b6462c"/>
    <path id="Tracé_4570" data-name="Tracé 4570" d="M231.3,165.809c.526-1.541,1.04-3.095,1.584-4.611.279-.8.619-1.578.922-2.358a2.265,2.265,0,0,1,2.439-1.5c1.238.142,2.476.4,3.713.619a11.711,11.711,0,0,0,2.005.26,2.234,2.234,0,0,0,1.38-.446c1.423-1.362,2.791-2.779,4.14-4.215a2.141,2.141,0,0,0,.421-1.968c-.316-1.5-.681-3-.984-4.5a6.03,6.03,0,0,1-.167-1.782,1.659,1.659,0,0,1,.582-1.139,27.232,27.232,0,0,1,7.427-3.392,1.857,1.857,0,0,1,2.123.767c.947,1.3,1.95,2.568,2.859,3.905a3,3,0,0,0,2.927,1.473c1.646-.118,3.3-.149,4.951-.223a1.857,1.857,0,0,0,1.485-.9c.588-.866,1.145-1.764,1.721-2.637.5-.755.978-1.51,1.5-2.24a1.888,1.888,0,0,1,2.271-.786c2.284.786,4.561,1.6,6.808,2.476a2,2,0,0,1,1.238,2.2c-.124,1.238-.408,2.513-.619,3.769-.093.619-.186,1.188-.229,1.789a2.432,2.432,0,0,0,.761,2.086c1.195,1.139,2.414,2.253,3.571,3.429a2.68,2.68,0,0,0,2.674.761c1.634-.353,3.249-.749,4.883-1.1a2.172,2.172,0,0,1,2.729,1.3q1.393,2.915,2.686,5.88a2.319,2.319,0,0,1-.842,3.249c-.836.662-1.739,1.238-2.6,1.857-.619.458-1.238.941-1.8,1.442a2.1,2.1,0,0,0-.761,1.69c.043,1.7.068,3.41.149,5.118a2.674,2.674,0,0,0,1.368,2.265c.928.557,1.857,1.1,2.8,1.665a18.031,18.031,0,0,1,1.677,1.126,2.011,2.011,0,0,1,.755,2.476q-1.126,3.095-2.3,6.152a4.616,4.616,0,0,1-.508.879,1.813,1.813,0,0,1-1.912.9l-4.425-.786-.334-.056a3.181,3.181,0,0,0-3.392,1.188c-.835.984-1.776,1.857-2.674,2.816a3.2,3.2,0,0,0-.829,3.212c.365,1.436.718,2.872,1.015,4.332a2.174,2.174,0,0,1-1.393,2.872q-3.008,1.442-6.1,2.742a2.036,2.036,0,0,1-2.7-.706c-.792-1-1.516-2.055-2.259-3.095-1.591-2.234-1.987-2.439-4.729-2.3l-3.2.179a2.952,2.952,0,0,0-2.513,1.467c-.65,1.077-1.275,2.172-1.956,3.225a10.415,10.415,0,0,1-1.238,1.529,1.5,1.5,0,0,1-1.69.433c-2.16-.8-4.332-1.6-6.468-2.414a4.425,4.425,0,0,1-.829-.477,1.814,1.814,0,0,1-.91-1.912c.235-1.461.483-2.921.712-4.382.068-.446.111-.9.136-1.343a2.327,2.327,0,0,0-.743-1.981c-1.176-1.077-2.339-2.172-3.5-3.262a2.581,2.581,0,0,0-2.55-.619c-1.436.353-2.884.668-4.332,1a1.507,1.507,0,0,1-.161.037c-1.888.347-2.476.1-3.317-1.634-.91-1.931-1.739-3.9-2.544-5.88a1.937,1.937,0,0,1,.78-2.7c1.058-.8,2.321-1.727,3.534-2.476a3.478,3.478,0,0,0,1.733-3.4c-.105-1.535-.149-3.095-.229-4.611a1.906,1.906,0,0,0-.9-1.6c-1.275-.823-2.568-1.622-3.837-2.445a4.263,4.263,0,0,1-2.024-2.1Zm48.894,8.578a14.588,14.588,0,0,0-14.705-14.575,14.829,14.829,0,0,0-14.365,14.619A14.594,14.594,0,0,0,265.59,188.9c9.37.043,15-8.046,14.6-14.513Z" transform="translate(-66.36 -37.403)" fill="#fce15c"/>
    <path id="Tracé_4571" data-name="Tracé 4571" d="M257.129,208.854a1.918,1.918,0,0,1-.656-.124l-1.782-.662-4.685-1.752a4.451,4.451,0,0,1-.774-.433l-.111-.074a2.129,2.129,0,0,1-1.046-2.222l.316-1.95c.136-.811.266-1.622.4-2.432.062-.384.1-.8.13-1.312a2.018,2.018,0,0,0-.619-1.733c-1.04-.953-2.073-1.919-3.095-2.884l-.4-.378a2.253,2.253,0,0,0-2.259-.551c-1.009.248-2.018.477-3.033.706l-1.3.3-.179.043c-2.067.378-2.785,0-3.652-1.813-.786-1.665-1.572-3.484-2.544-5.892a2.278,2.278,0,0,1,.879-3.095c1.337-1.021,2.476-1.82,3.553-2.519a3.175,3.175,0,0,0,1.591-3.095c-.068-.953-.105-1.912-.149-2.872,0-.582-.049-1.164-.08-1.739a1.6,1.6,0,0,0-.755-1.362c-.526-.34-1.058-.675-1.591-1.009l-2.253-1.436a4.486,4.486,0,0,1-2.141-2.271.249.249,0,0,1,0-.093v-.563a.254.254,0,0,1,0-.1l.458-1.343c.365-1.089.737-2.185,1.126-3.274.291-.823.619-1.628.928-2.37a2.581,2.581,0,0,1,2.754-1.683c.836.093,1.665.241,2.476.384l1.238.217.5.087a7.624,7.624,0,0,0,1.454.173,1.968,1.968,0,0,0,1.176-.365c1.516-1.442,2.934-2.934,4.122-4.2a1.8,1.8,0,0,0,.347-1.7c-.136-.662-.291-1.331-.439-1.993-.186-.836-.378-1.671-.545-2.507a6.383,6.383,0,0,1-.173-1.857,1.968,1.968,0,0,1,.73-1.374,27.289,27.289,0,0,1,7.52-3.423,2.148,2.148,0,0,1,2.476.879q.508.7,1.021,1.374c.619.823,1.238,1.677,1.857,2.538a2.723,2.723,0,0,0,2.655,1.349c1.065-.08,2.154-.124,3.206-.161l1.739-.068a1.553,1.553,0,0,0,1.238-.761c.347-.514.681-1.034,1.015-1.553l.7-1.083.248-.384c.409-.619.823-1.238,1.269-1.857a2.2,2.2,0,0,1,2.624-.891c2.748.947,4.852,1.708,6.808,2.476a2.284,2.284,0,0,1,1.423,2.519c-.08.848-.235,1.7-.39,2.519-.074.421-.155.848-.223,1.269-.087.557-.18,1.157-.229,1.764a2.148,2.148,0,0,0,.668,1.857l.842.792c.91.854,1.857,1.739,2.742,2.643a2.37,2.37,0,0,0,2.389.675c.792-.173,1.584-.353,2.37-.538s1.671-.384,2.476-.563a2.476,2.476,0,0,1,3.095,1.467c.928,1.943,1.857,3.924,2.692,5.892a2.611,2.611,0,0,1-.935,3.614c-.5.4-1.027.767-1.541,1.126-.353.248-.712.5-1.065.755-.65.489-1.238.953-1.782,1.423a1.8,1.8,0,0,0-.656,1.454V171.9c0,1.331.062,2.7.124,4.048a2.364,2.364,0,0,0,1.238,2.018l1.188.7c.538.316,1.083.619,1.622.965a19.172,19.172,0,0,1,1.708,1.145,2.327,2.327,0,0,1,.854,2.8c-.7,1.931-1.454,3.942-2.3,6.189a4.158,4.158,0,0,1-.483.86l-.056-.037a2.129,2.129,0,0,1-2.222,1.034c-1.009-.161-2.018-.334-3.026-.5l-1.523-.254-.241-.037a2.884,2.884,0,0,0-3.095,1.083c-.588.7-1.238,1.362-1.857,2-.272.279-.545.551-.811.829a2.909,2.909,0,0,0-.749,2.927c.347,1.374.712,2.853,1.015,4.332.347,1.7-.037,2.476-1.56,3.212-1.857.879-3.831,1.776-6.109,2.748a2.346,2.346,0,0,1-3.064-.8c-.656-.829-1.269-1.7-1.857-2.544l-.4-.557c-1.535-2.16-1.857-2.3-4.462-2.166l-1.82.1-1.386.08a2.63,2.63,0,0,0-2.259,1.318c-.217.359-.433.718-.619,1.077-.421.712-.86,1.448-1.318,2.154a10.1,10.1,0,0,1-1.269,1.572A1.857,1.857,0,0,1,257.129,208.854Zm-13.9-17.218a2.791,2.791,0,0,1,1.962.8l.4.378c1.027.959,2.055,1.925,3.095,2.878a2.636,2.636,0,0,1,.842,2.228,8.507,8.507,0,0,1-.136,1.368c-.13.817-.266,1.628-.4,2.439-.105.619-.217,1.3-.316,1.95a1.5,1.5,0,0,0,.774,1.6l.111.074a3.333,3.333,0,0,0,.65.371c1.56.619,3.125,1.17,4.685,1.752l1.782.662a1.2,1.2,0,0,0,1.362-.359,9.857,9.857,0,0,0,1.194-1.479c.452-.7.885-1.43,1.3-2.135l.65-1.083a3.255,3.255,0,0,1,2.76-1.615l1.38-.074,1.826-.105c2.835-.142,3.342.105,4.995,2.426l.4.563c.588.836,1.2,1.7,1.857,2.507a1.739,1.739,0,0,0,2.339.619c2.265-.965,4.258-1.857,6.078-2.742,1.238-.619,1.51-1.12,1.238-2.525s-.662-2.946-1.009-4.332a3.522,3.522,0,0,1,.9-3.5c.266-.279.545-.557.817-.836.619-.619,1.269-1.281,1.857-1.962a3.491,3.491,0,0,1,3.713-1.294.97.97,0,0,0,.186.031h.13l1.417.235,3.02.507a1.522,1.522,0,0,0,1.609-.767l.049-.081a3.716,3.716,0,0,0,.421-.73c.842-2.216,1.6-4.227,2.3-6.152a1.708,1.708,0,0,0-.656-2.1,17.846,17.846,0,0,0-1.646-1.108c-.532-.328-1.077-.619-1.615-.959l-1.188-.7a2.989,2.989,0,0,1-1.516-2.519c-.062-1.355-.093-2.736-.124-4.066v-1.058a2.426,2.426,0,0,1,.866-1.931c.563-.483,1.157-.959,1.82-1.454l1.083-.767c.508-.353,1.027-.718,1.51-1.1a2.011,2.011,0,0,0,.749-2.884c-.854-1.962-1.758-3.936-2.68-5.873a1.857,1.857,0,0,0-2.389-1.133l-2.476.569c-.792.179-1.584.365-2.383.538a2.977,2.977,0,0,1-2.958-.848c-.885-.9-1.82-1.77-2.723-2.624l-.848-.792a2.754,2.754,0,0,1-.854-2.339c.05-.619.142-1.238.235-1.813q.105-.619.223-1.281c.148-.811.3-1.646.384-2.476a1.721,1.721,0,0,0-1.034-1.857c-1.962-.755-4.06-1.51-6.808-2.476a1.59,1.59,0,0,0-1.919.675c-.433.619-.848,1.238-1.238,1.857l-.254.384-.693,1.077c-.334.526-.675,1.052-1.021,1.566a2.185,2.185,0,0,1-1.733,1.034l-1.745.068c-1.046.037-2.129.08-3.187.155a3.311,3.311,0,0,1-3.212-1.609c-.582-.854-1.238-1.7-1.826-2.519-.34-.458-.687-.916-1.021-1.38a1.547,1.547,0,0,0-1.795-.619,26.747,26.747,0,0,0-7.353,3.354,1.38,1.38,0,0,0-.439.91,5.683,5.683,0,0,0,.161,1.69c.167.829.353,1.665.545,2.476.149.668.3,1.337.439,2.005a2.414,2.414,0,0,1-.5,2.24c-1.195,1.275-2.624,2.773-4.147,4.227a2.531,2.531,0,0,1-1.591.532,8.388,8.388,0,0,1-1.578-.18l-.483-.087c-.421-.068-.848-.142-1.269-.223-.8-.142-1.622-.285-2.432-.378a1.95,1.95,0,0,0-2.117,1.306c-.309.737-.619,1.529-.916,2.34-.384,1.089-.755,2.179-1.126,3.268l-.439,1.294v.458a3.839,3.839,0,0,0,1.857,1.857c.792.489,1.516.972,2.271,1.448l1.591,1.015a2.209,2.209,0,0,1,1.04,1.857c.031.619.056,1.17.08,1.752.043.953.08,1.906.149,2.853a3.788,3.788,0,0,1-1.857,3.714c-1.071.693-2.191,1.485-3.515,2.476a1.655,1.655,0,0,0-.681,2.339c.972,2.4,1.758,4.209,2.538,5.867s1.188,1.789,2.983,1.461l1.448-.334c1.009-.229,2.018-.452,3.02-.7A3.62,3.62,0,0,1,243.228,191.635Zm22.238-2.575h-.031a14.883,14.883,0,1,1-.155-29.766l.056,0a14.854,14.854,0,0,1,15.009,14.9,14.092,14.092,0,0,1-3.986,10.193A14.8,14.8,0,0,1,265.466,189.061Zm-.186-29.145a14.321,14.321,0,0,0-9.8,4.277,14.08,14.08,0,0,0-4.2,10.033,14.235,14.235,0,0,0,14.155,14.235h.031A14.235,14.235,0,0,0,275.907,184a13.462,13.462,0,0,0,3.819-9.754h0a14.235,14.235,0,0,0-14.39-14.3Z" transform="translate(-66.205 -37.229)" fill="#b6462c"/>
    <path id="Tracé_4572" data-name="Tracé 4572" d="M252.94,95.352c.26-.767.514-1.535.786-2.3.142-.4.3-.786.464-1.176a1.133,1.133,0,0,1,1.238-.749c.619.068,1.238.2,1.857.3a6.1,6.1,0,0,0,1,.13,1.145,1.145,0,0,0,.693-.223c.712-.681,1.393-1.393,2.067-2.11a1.04,1.04,0,0,0,.21-.984c-.155-.749-.34-1.5-.489-2.247a3.092,3.092,0,0,1-.087-.891.879.879,0,0,1,.291-.569,13.76,13.76,0,0,1,3.714-1.7.934.934,0,0,1,1.064.384c.47.619.972,1.287,1.424,1.95a1.51,1.51,0,0,0,1.467.743c.823-.062,1.646-.074,2.476-.118a.922.922,0,0,0,.743-.446c.3-.433.569-.879.86-1.318s.489-.755.755-1.12a.935.935,0,0,1,1.133-.39c1.139.39,2.278.8,3.4,1.238a1,1,0,0,1,.619,1.1c-.062.619-.2,1.238-.309,1.888-.043.291-.093.619-.111.891a1.238,1.238,0,0,0,.378,1.046c.619.563,1.238,1.12,1.789,1.708a1.331,1.331,0,0,0,1.337.384c.811-.179,1.622-.378,2.438-.551a1.077,1.077,0,0,1,1.362.65c.464.972.916,1.95,1.343,2.934a1.157,1.157,0,0,1-.421,1.628c-.415.334-.866.619-1.3.941-.3.229-.619.464-.9.718a1.021,1.021,0,0,0-.378.842c0,.854.031,1.708.068,2.562a1.362,1.362,0,0,0,.687,1.133c.464.279.935.545,1.4.829a8.666,8.666,0,0,1,.842.563,1.009,1.009,0,0,1,.377,1.238q-.569,1.541-1.151,3.095a2.246,2.246,0,0,1-.254.439.9.9,0,0,1-.953.452l-2.216-.371h-.167a1.584,1.584,0,0,0-1.7.619c-.421.489-.891.935-1.337,1.4a1.59,1.59,0,0,0-.415,1.6c.179.718.359,1.442.507,2.166a1.058,1.058,0,0,1-.7,1.43q-1.5.724-3.045,1.374a1.015,1.015,0,0,1-1.349-.353c-.4-.5-.761-1.027-1.127-1.541-.8-1.12-1-1.238-2.364-1.151l-1.6.093a1.473,1.473,0,0,0-1.238.73c-.322.538-.619,1.083-.972,1.615a5.193,5.193,0,0,1-.619.761.749.749,0,0,1-.848.217l-3.231-1.238a2.3,2.3,0,0,1-.415-.235.916.916,0,0,1-.452-.959c.118-.73.241-1.461.353-2.191a6.121,6.121,0,0,0,.068-.668,1.157,1.157,0,0,0-.371-.99c-.588-.538-1.164-1.083-1.745-1.628a1.294,1.294,0,0,0-1.275-.316c-.718.18-1.442.334-2.16.5h-.087c-.941.173-1.238.05-1.653-.817-.458-.966-.873-1.95-1.275-2.94a.978.978,0,0,1,.39-1.349c.576-.433,1.164-.86,1.77-1.238a1.727,1.727,0,0,0,.86-1.7c-.049-.767-.068-1.535-.111-2.3a.947.947,0,0,0-.446-.8c-.619-.408-1.287-.811-1.919-1.238a2.111,2.111,0,0,1-1.009-1.052Zm24.428,4.289a7.278,7.278,0,0,0-7.346-7.3,7.427,7.427,0,0,0-7.179,7.3,7.3,7.3,0,0,0,7.229,7.285,7.2,7.2,0,0,0,7.3-7.291Z" transform="translate(-74.611 -15.469)" fill="#fce15c"/>
    <path id="Tracé_4573" data-name="Tracé 4573" d="M265.724,116.957a1.083,1.083,0,0,1-.384-.074l-.848-.316-2.389-.891a2.2,2.2,0,0,1-.415-.235l-.056-.037a1.238,1.238,0,0,1-.619-1.238l.161-.959c.068-.415.136-.823.2-1.238.031-.217.05-.427.062-.619a.848.848,0,0,0-.266-.743l-1.566-1.454-.186-.179a.99.99,0,0,0-.99-.235c-.5.124-1.009.235-1.51.353l-.749.167c-1.108.2-1.535,0-2-.99s-.947-2.135-1.275-2.952a1.275,1.275,0,0,1,.489-1.714,20.353,20.353,0,0,1,1.789-1.238,1.423,1.423,0,0,0,.724-1.423c-.037-.477-.056-.953-.074-1.43a5.769,5.769,0,0,0-.043-.879.656.656,0,0,0-.3-.557l-.8-.5-1.126-.718a2.439,2.439,0,0,1-1.133-1.238.292.292,0,0,1,0-.1v-.285a.274.274,0,0,1,0-.1l.229-.668c.186-.545.371-1.1.563-1.64.142-.4.3-.8.47-1.188a1.442,1.442,0,0,1,1.572-.953c.421.05.842.124,1.238.2l.619.105.248.043a4.08,4.08,0,0,0,.693.087.817.817,0,0,0,.489-.142c.749-.718,1.461-1.461,2.055-2.092a.755.755,0,0,0,.136-.706l-.223-1c-.093-.421-.192-.836-.272-1.238a3.176,3.176,0,0,1-.087-.984,1.108,1.108,0,0,1,.433-.8,13.818,13.818,0,0,1,3.8-1.733,1.238,1.238,0,0,1,1.393.5l.514.687c.309.421.619.836.922,1.238a1.194,1.194,0,0,0,1.182.619c.538-.037,1.077-.062,1.609-.08h.873a.619.619,0,0,0,.5-.316c.173-.254.34-.514.5-.774l.353-.538.124-.192c.21-.316.415-.619.619-.941a1.238,1.238,0,0,1,1.485-.5c1.349.464,2.432.854,3.416,1.238a1.3,1.3,0,0,1,.811,1.417,11.56,11.56,0,0,1-.192,1.238c-.043.21-.08.421-.111.619s-.093.576-.118.866a.928.928,0,0,0,.285.792l.415.39c.47.439.935.879,1.38,1.331a1.046,1.046,0,0,0,1.052.3l1.194-.272c.415-.093.829-.192,1.238-.279a1.386,1.386,0,0,1,1.752.8c.47.972.922,1.968,1.349,2.946a1.454,1.454,0,0,1-.514,1.993c-.248.2-.507.384-.774.569s-.359.248-.532.378c-.316.235-.619.47-.879.706a.736.736,0,0,0-.272.619v.532c0,.675,0,1.349.056,2.018a1.046,1.046,0,0,0,.532.885l.619.347.811.483a9.228,9.228,0,0,1,.867.582,1.318,1.318,0,0,1,.483,1.578q-.563,1.541-1.151,3.095a2.526,2.526,0,0,1-.26.464,1.238,1.238,0,0,1-1.287.619l-2.222-.371h-.186a1.281,1.281,0,0,0-1.386.5q-.455.529-.947,1c-.136.142-.272.279-.4.421a1.281,1.281,0,0,0-.34,1.312c.179.693.359,1.43.514,2.179a1.362,1.362,0,0,1-.866,1.776c-.916.439-1.919.891-3.057,1.374a1.318,1.318,0,0,1-1.714-.446c-.328-.415-.619-.854-.941-1.275l-.2-.279c-.737-1.04-.836-1.083-2.1-1.021l-.891.05-.706.043a1.176,1.176,0,0,0-1.009.582c-.111.179-.217.365-.322.545-.217.359-.433.724-.656,1.077a5.709,5.709,0,0,1-.656.811A1.1,1.1,0,0,1,265.724,116.957Zm-6.957-8.943a1.547,1.547,0,0,1,1.1.446l.186.179c.52.483,1.034.972,1.56,1.448a1.473,1.473,0,0,1,.47,1.238,6.511,6.511,0,0,1-.068.7l-.2,1.238-.155.953a.619.619,0,0,0,.322.65l.056.037a1.477,1.477,0,0,0,.3.167c.792.3,1.585.619,2.383.891l.848.316a.427.427,0,0,0,.514-.142,4.86,4.86,0,0,0,.582-.718c.223-.34.433-.7.619-1.052.105-.186.217-.365.328-.551a1.77,1.77,0,0,1,1.5-.879l.706-.037.9-.056c1.479-.074,1.77.068,2.63,1.281l.2.279c.291.415.619.848.916,1.238a.706.706,0,0,0,.984.26c1.139-.483,2.129-.928,3.039-1.368.563-.272.65-.452.526-1.089-.149-.736-.334-1.467-.508-2.148a1.931,1.931,0,0,1,.489-1.9l.415-.421c.309-.309.619-.619.916-.972a1.906,1.906,0,0,1,2-.693h.074l2.29.378a.619.619,0,0,0,.65-.316,2.133,2.133,0,0,0,.217-.371q.582-1.529,1.151-3.095a.706.706,0,0,0-.278-.873c-.266-.2-.557-.384-.811-.545l-.8-.477c-.2-.111-.4-.229-.619-.353a1.64,1.64,0,0,1-.836-1.38c-.031-.681-.043-1.355-.056-2.036v-.532a1.337,1.337,0,0,1,.483-1.083c.285-.241.619-.489.922-.737.179-.13.359-.26.545-.384s.5-.353.743-.545a.866.866,0,0,0,.328-1.238c-.421-.972-.873-1.962-1.337-2.927a.786.786,0,0,0-1.021-.477c-.415.087-.823.179-1.238.279l-1.2.272a1.665,1.665,0,0,1-1.622-.464c-.439-.452-.9-.885-1.362-1.318l-.415-.39a1.522,1.522,0,0,1-.477-1.294,5.62,5.62,0,0,1,.118-.916l.111-.65c.074-.4.149-.811.192-1.238a.706.706,0,0,0-.421-.78c-.972-.371-2.055-.761-3.392-1.238a.619.619,0,0,0-.786.278c-.217.3-.415.619-.619.922l-.124.192c-.118.173-.235.353-.347.532l-.514.786a1.238,1.238,0,0,1-.99.582,6.857,6.857,0,0,0-.873.037c-.526,0-1.058.037-1.584.08a1.857,1.857,0,0,1-1.745-.873c-.291-.427-.619-.842-.91-1.238l-.483-.625a.619.619,0,0,0-.73-.26,13.036,13.036,0,0,0-3.633,1.652.582.582,0,0,0-.148.34,2.653,2.653,0,0,0,.081.8c.08.415.173.829.272,1.238s.149.668.217,1a1.349,1.349,0,0,1-.285,1.238c-.619.619-1.318,1.386-2.086,2.117a1.461,1.461,0,0,1-.9.309,5.08,5.08,0,0,1-.817-.093l-.235-.043-.619-.111c-.39-.068-.8-.142-1.2-.186a.817.817,0,0,0-.9.557c-.161.384-.316.767-.458,1.164-.192.538-.378,1.083-.557,1.628l-.21.619V95.4a1.857,1.857,0,0,0,.854.842l1.133.718.8.508a1.281,1.281,0,0,1,.588,1.046c0,.3.031.619.043.879,0,.477.037.947.068,1.423a2.018,2.018,0,0,1-1,1.981c-.532.34-1.089.736-1.745,1.238-.427.322-.483.514-.291.99.328.8.761,1.857,1.238,2.921.334.718.5.792,1.318.619l.142.285-.074-.3.662-.149c.5-.111,1-.223,1.5-.347A1.775,1.775,0,0,1,258.767,108.014Zm11.14-.978h0a7.594,7.594,0,1,1,7.607-7.582,7.2,7.2,0,0,1-2.03,5.211,7.557,7.557,0,0,1-5.6,2.4Zm-.093-14.563a7,7,0,0,0-4.79,2.092,6.888,6.888,0,0,0-2.055,4.9,6.981,6.981,0,0,0,12.044,4.772,6.548,6.548,0,0,0,1.857-4.759h0a6.957,6.957,0,0,0-7.037-6.988Z" transform="translate(-74.41 -15.313)" fill="#b6462c"/>
    <path id="Tracé_4574" data-name="Tracé 4574" d="M144.827,64.49a12.2,12.2,0,0,0-10.28.371c-5.4,2.754-4.06,8.758-6.115,9.952S87.448,91.233,83.579,92.347s-7.594,0-12.025-1.516-7.167.068-10.373,2.791-4.481,8.665-2.742,9.178,8.919-5.768,9.946-5.663c0,0,3.416,1.108,4.462,3s1.424,6.678,1.424,6.678-7.891,5.174-7.9,5.477,2.29,2.736,7.105,1.442,6.74-4.332,9.03-8.5,10.472-6.616,16.605-8.888,29.51-11.209,31.633-11.821,4.444.514,7.5,1.43a9.865,9.865,0,0,0,10.15-2.531,9.212,9.212,0,0,0,2.742-9.178s-5.347,3.608-7.631,4.332-3.515-.415-4.84-2.234-1.659-4.71-.687-6.189,7.21-4.079,7.192-4.475A5.155,5.155,0,0,0,144.827,64.49Z" transform="translate(-0.191 -8.255)" fill="#b6462c"/>
    <path id="Tracé_4575" data-name="Tracé 4575" d="M70.6,114.243A6.437,6.437,0,0,1,66.523,113c-.254-.2-.668-.582-.656-.879,0-.2,0-.458,7.891-5.626-.08-.885-.483-4.759-1.374-6.369s-3.85-2.711-4.246-2.847a19.817,19.817,0,0,0-3.324,2.123c-3.212,2.265-5.57,3.843-6.653,3.534a1.386,1.386,0,0,1-.922-1.188c-.458-2.1,1.021-6.381,3.546-8.522,3.546-3.008,6.294-4.332,10.676-2.853,4.58,1.566,8.114,2.593,11.84,1.516s42.7-16.315,44.784-17.509c.668-.384.941-1.448,1.281-2.8.582-2.271,1.374-5.385,4.846-7.161a12.44,12.44,0,0,1,10.559-.371.291.291,0,0,1,.149.161,5.008,5.008,0,0,1,.365,1.306c0,.328-.279.5-2.327,1.56-1.739.9-4.37,2.259-4.914,3.095-.891,1.349-.563,4.128.681,5.836,1.355,1.857,2.476,2.76,4.493,2.117,2.216-.7,7.5-4.258,7.551-4.3a.3.3,0,0,1,.279-.031.291.291,0,0,1,.192.2,9.524,9.524,0,0,1-2.816,9.482,10.193,10.193,0,0,1-10.46,2.612c-.662-.2-1.287-.408-1.857-.619-2.166-.712-3.874-1.281-5.446-.823-1.386.4-12.162,4.475-20.826,7.755-4.66,1.764-8.665,3.286-10.781,4.06l-2.383.866c-5.675,2.036-12.106,4.332-14.062,7.879-2.414,4.382-4.332,7.346-9.222,8.665a10.7,10.7,0,0,1-2.791.359Zm-4.048-2.08c.433.532,2.55,2.191,6.653,1.1,4.623-1.238,6.5-4.11,8.844-8.349,2.061-3.713,8.615-6.09,14.39-8.17.817-.291,1.609-.576,2.377-.86,2.092-.774,6.121-2.3,10.781-4.06,9.123-3.423,19.465-7.365,20.87-7.755,1.758-.508,3.639.111,5.812.829.619.2,1.238.4,1.857.619a9.6,9.6,0,0,0,9.847-2.476,8.992,8.992,0,0,0,2.767-8.454c-1.238.829-5.366,3.5-7.346,4.128-2.606.823-3.986-.706-5.18-2.346-1.4-1.919-1.727-4.951-.7-6.542.619-.972,3.138-2.265,5.149-3.3.817-.421,1.727-.891,1.987-1.089a5.4,5.4,0,0,0-.266-.879,12.056,12.056,0,0,0-9.9.415c-3.225,1.646-3.949,4.487-4.53,6.765-.365,1.43-.681,2.661-1.566,3.181-2.067,1.195-41.114,16.469-44.933,17.571s-7.52.074-12.2-1.529c-4.1-1.4-6.709-.124-10.076,2.736-2.476,2.11-3.713,6.189-3.348,7.922a.931.931,0,0,0,.489.724c.885.254,4.041-1.974,6.127-3.447,2.3-1.622,3.274-2.278,3.769-2.228h.062c.149.049,3.546,1.17,4.636,3.15s1.454,6.6,1.467,6.808a.309.309,0,0,1-.136.285C71.579,108.648,67.333,111.489,66.547,112.163Z" transform="translate(0 -8.074)" fill="#b6462c"/>
    <path id="Tracé_4576" data-name="Tracé 4576" d="M147.246,215.03l-5.706,6.579,3.788,3.973,5.929-6.109Z" transform="translate(-32.158 -65.989)" fill="#f2f1f7"/>
    <path id="Tracé_4577" data-name="Tracé 4577" d="M145.146,225.7a.31.31,0,0,1-.229-.1l-3.788-3.973a.3.3,0,0,1,0-.415l5.706-6.579a.34.34,0,0,1,.235-.111.31.31,0,0,1,.229.105l4.011,4.438a.316.316,0,0,1,0,.427l-5.96,6.115A.316.316,0,0,1,145.146,225.7Zm-3.373-4.289,3.373,3.534,5.5-5.669-3.577-3.967Z" transform="translate(-31.97 -65.795)" fill="#b6462c"/>
    <path id="Tracé_4578" data-name="Tracé 4578" d="M116.005,165.68s22.627,12.124,24.719,19.805-14.476,17.88-14.476,17.88l-4.691-5.514s6.189-8.312,3.6-10.85-14.854-7.569-14.854-7.569-1.194,14.916-7.489,21.724c-6.759,7.3-22.213,7.693-22.213,7.693l-1.157-8.312s10.453-2.717,14.854-7.427.1-26.359.1-26.359Z" transform="translate(-8.492 -47.183)" fill="#b6462c"/>
    <path id="Tracé_4579" data-name="Tracé 4579" d="M80.428,209.011a.3.3,0,0,1-.3-.266L79,200.4a.3.3,0,0,1,.229-.34c.105,0,10.416-2.742,14.718-7.316s.062-25.871,0-26.087a.34.34,0,0,1,.062-.254.322.322,0,0,1,.229-.118l21.594-1.108a.3.3,0,0,1,.167.037c.928.5,22.764,12.273,24.868,19.978,2.129,7.8-13.926,17.812-14.613,18.233a.31.31,0,0,1-.4-.062l-4.7-5.5a.316.316,0,0,1,0-.39c1.677-2.247,5.57-8.516,3.627-10.441-2.271-2.216-12.273-6.461-14.371-7.346-.248,2.531-1.752,15.269-7.532,21.52-3.546,3.831-9.463,5.744-13.8,6.678a52.61,52.61,0,0,1-8.64,1.12Zm-.811-8.423,1.077,7.767c2.1-.1,15.615-.99,21.718-7.582s7.39-21.421,7.427-21.569a.291.291,0,0,1,.149-.235.3.3,0,0,1,.279,0c.5.2,12.341,5.087,14.959,7.631s-2.476,9.729-3.423,11.06l4.332,5.125c1.962-1.238,15.993-10.522,14.117-17.4-1.974-7.235-23.054-18.784-24.49-19.558L94.6,166.913c.557,2.921,3.955,21.81-.248,26.279C90.281,197.512,81.313,200.123,79.617,200.588Z" transform="translate(-8.322 -46.992)" fill="#b6462c"/>
    <path id="Tracé_4580" data-name="Tracé 4580" d="M156.76,106.974l1.43-2.315s-.118-3.534.5-4.011.8,2.092.928,2.061,1.628-3.429,2.321-2.921.959,2.389.767,3.095-3.565,6.975-3.565,6.975Z" transform="translate(-37.958 -22.052)" fill="#f2f1f7"/>
    <path id="Tracé_4581" data-name="Tracé 4581" d="M158.954,109.965a.316.316,0,0,1-.241-.118l-2.377-2.878a.316.316,0,0,1,0-.359l1.38-2.24c0-.959-.043-3.652.619-4.171a.52.52,0,0,1,.508-.093c.39.149.557.749.724,1.591.668-1.238,1.324-2.339,1.925-2.476a.538.538,0,0,1,.47.111c.817.619,1.083,2.661.873,3.416s-3.243,6.393-3.59,7.037a.3.3,0,0,1-.248.161Zm-2-3.218L158.9,109.1c1.337-2.476,3.194-6.034,3.324-6.5a3.8,3.8,0,0,0-.662-2.767c-.21.043-.73.8-1.523,2.259-.328.619-.371.687-.538.724a.347.347,0,0,1-.248-.043c-.149-.1-.179-.248-.272-.743a6.187,6.187,0,0,0-.334-1.269,10.518,10.518,0,0,0-.328,3.713.284.284,0,0,1-.049.173Z" transform="translate(-37.775 -21.85)" fill="#b6462c"/>
    <path id="Tracé_4582" data-name="Tracé 4582" d="M102.058,96.956a7.266,7.266,0,0,1-3.874.619,2.909,2.909,0,0,1-1.628-.662,1.38,1.38,0,0,1-.347-1.622,2.067,2.067,0,0,1-1.764-.662,3.677,3.677,0,0,1-.854-1.745,2.476,2.476,0,0,1,.477-2.377c-.662-.3-1.393-.681-1.6-1.38a2.352,2.352,0,0,1,0-1.077A11.76,11.76,0,0,1,93.09,86c.142-.359.378-.755.761-.786a3.714,3.714,0,0,1,.5-3.874,3.1,3.1,0,0,1,1.683-1.108,12.284,12.284,0,0,1,2.16,0l1.33-1.174,1.629-.422a2.568,2.568,0,0,1,2.1,1.547,5.663,5.663,0,0,1,2.414.037,2.736,2.736,0,0,1,1.857,1.5,1.857,1.857,0,0,1-.563,2.179,1.968,1.968,0,0,1,1.745,1.9,2.383,2.383,0,0,1-1.553,2.166.836.836,0,0,0-.347.192,1.009,1.009,0,0,0-.155.458c-.111.514-.569.767-.767,1.238a12.534,12.534,0,0,0-.526,2.03,18.911,18.911,0,0,1-.619,1.925,10.75,10.75,0,0,1-.792,2.148c-.365.563-.817.619-1.4.836C102.362,96.838,102.219,96.9,102.058,96.956Z" transform="translate(-13.434 -14.009)" fill="#b6462c"/>
    <path id="Tracé_4583" data-name="Tracé 4583" d="M98.848,97.754a6.188,6.188,0,0,1-.879-.062,3.138,3.138,0,0,1-1.795-.736,1.8,1.8,0,0,1-.563-1.523,2.476,2.476,0,0,1-1.56-.78,3.936,3.936,0,0,1-.935-1.857A3,3,0,0,1,93.4,90.42a2.432,2.432,0,0,1-1.4-1.4,2.562,2.562,0,0,1,0-1.238,12.012,12.012,0,0,1,.619-2.111,1.683,1.683,0,0,1,.619-.848,4.035,4.035,0,0,1,.619-3.905,3.423,3.423,0,0,1,1.857-1.238,12.545,12.545,0,0,1,2.092,0,3.98,3.98,0,0,1,3.138-1.572,2.884,2.884,0,0,1,2.253,1.51,5.57,5.57,0,0,1,2.321.08,3.039,3.039,0,0,1,2.024,1.677,2.228,2.228,0,0,1-.229,2.117,2.321,2.321,0,0,1,1.436,2.073A2.68,2.68,0,0,1,107,88.044a.662.662,0,0,0-.223.105.47.47,0,0,0-.062.21v.111a1.9,1.9,0,0,1-.489.848,1.931,1.931,0,0,0-.3.427,6.306,6.306,0,0,0-.334,1.294c-.05.235-.1.464-.155.681a19.508,19.508,0,0,1-.619,1.95c-.087.235-.161.477-.229.724a5.41,5.41,0,0,1-.619,1.485,1.912,1.912,0,0,1-1.151.8l-.384.149-.446.192h0A8.318,8.318,0,0,1,98.848,97.754ZM96.039,94.8a.3.3,0,0,1,.254.136.316.316,0,0,1,0,.328,1.089,1.089,0,0,0,.285,1.238,2.593,2.593,0,0,0,1.461.576,7.012,7.012,0,0,0,3.713-.619l.433-.179c.149-.068.291-.118.427-.167a1.337,1.337,0,0,0,.836-.557,5.008,5.008,0,0,0,.52-1.324c.074-.26.149-.52.241-.767a19.277,19.277,0,0,0,.619-1.857c.05-.2.093-.427.142-.619a6.629,6.629,0,0,1,.4-1.436,2.476,2.476,0,0,1,.4-.569,1.38,1.38,0,0,0,.359-.576V88.31a1.058,1.058,0,0,1,.21-.514,1.04,1.04,0,0,1,.427-.254,2.1,2.1,0,0,0,1.393-1.894,1.64,1.64,0,0,0-1.454-1.591.316.316,0,0,1-.155-.569,1.541,1.541,0,0,0,.452-1.8,2.426,2.426,0,0,0-1.622-1.312,5.143,5.143,0,0,0-2.284-.037.3.3,0,0,1-.334-.186A2.253,2.253,0,0,0,100.9,78.8a3.435,3.435,0,0,0-2.674,1.454h0a.309.309,0,0,1-.39.111,15.875,15.875,0,0,0-1.962,0,2.711,2.711,0,0,0-1.423.959,3.423,3.423,0,0,0-.439,3.565.3.3,0,0,1,0,.291.3.3,0,0,1-.248.155c-.217,0-.384.328-.489.619a10.993,10.993,0,0,0-.619,2.005,2.049,2.049,0,0,0,0,.928c.167.569.823.91,1.43,1.182a.309.309,0,0,1,.08.514,2.306,2.306,0,0,0-.384,2.08,3.305,3.305,0,0,0,.774,1.6,1.739,1.739,0,0,0,1.492.576Zm5.849,1.962Z" transform="translate(-13.251 -13.811)" fill="#b6462c"/>
    <path id="Tracé_4584" data-name="Tracé 4584" d="M116.12,94.69s2.785,1.857,2.661,2.519-1.436.829-1.436.829" transform="translate(-22.47 -20.129)" fill="#f2f1f7"/>
    <path id="Tracé_4585" data-name="Tracé 4585" d="M117.152,98.156a.31.31,0,0,1-.037-.619c.439-.05,1.114-.266,1.17-.576s-1.195-1.324-2.531-2.2a.311.311,0,0,1,.34-.52c1.108.73,2.94,2.067,2.8,2.835-.161.885-1.553,1.065-1.708,1.083Z" transform="translate(-22.277 -19.938)" fill="#b6462c"/>
    <path id="Tracé_4586" data-name="Tracé 4586" d="M108.972,86a.9.9,0,0,1,.526.254,5.843,5.843,0,0,1,1.281,1.7,33.8,33.8,0,0,1,1.764,3.812c.712,1.708,1.386,3.435,2.018,5.168.408,1.108-2.377,2.321-3.008,2.21l2.259,4.079a6.223,6.223,0,0,1-3.887.86c-2.7-.08-2.946-.619-2.946-.619l-1.919-5a3.813,3.813,0,0,0,2.005-3.441,7.65,7.65,0,0,1,0-1.4c.13-.489.545-.755.557-1.324a1.708,1.708,0,0,0-.706-1.337c-.093-.074-.2-.155-.192-.272a.322.322,0,0,1,.105-.167,1.442,1.442,0,0,0-.217-2.042c.706-.3.873-1.238.941-1.974,0,.241,1.126-.421,1.145-.427A.8.8,0,0,1,108.972,86Z" transform="translate(-18.256 -16.818)" fill="#f2f1f7"/>
    <path id="Tracé_4587" data-name="Tracé 4587" d="M110.063,104.206h-.334c-2.612-.08-3.095-.576-3.218-.786L104.586,98.4a.3.3,0,0,1,.167-.4,3.449,3.449,0,0,0,1.813-3.169,3.19,3.19,0,0,0,0-.52,2.587,2.587,0,0,1,0-.953,2.172,2.172,0,0,1,.3-.619,1.2,1.2,0,0,0,.248-.619,1.374,1.374,0,0,0-.551-1.114.532.532,0,0,1-.142-.885,1.126,1.126,0,0,0-.155-1.591.309.309,0,0,1-.13-.285.322.322,0,0,1,.186-.254c.557-.235.7-1.04.755-1.714a.316.316,0,0,1,.34-.285h.105a5.567,5.567,0,0,0,.811-.39l.1-.05a1.238,1.238,0,0,1,.371-.068,1.182,1.182,0,0,1,.718.322,6.009,6.009,0,0,1,1.355,1.782,29.85,29.85,0,0,1,1.622,3.472l.161.378c.712,1.7,1.393,3.447,2.024,5.18a1.12,1.12,0,0,1-.291,1.164,5.3,5.3,0,0,1-2.513,1.411l2.03,3.664a.309.309,0,0,1-.074.4A6.222,6.222,0,0,1,110.063,104.206Zm-3.008-1.071c.1.068.619.4,2.692.458a6.734,6.734,0,0,0,3.46-.662l-2.117-3.819a.316.316,0,0,1,0-.328.328.328,0,0,1,.309-.124,4.481,4.481,0,0,0,2.476-1.238.576.576,0,0,0,.186-.551c-.619-1.727-1.312-3.46-2.024-5.162l-.155-.371a29.3,29.3,0,0,0-1.591-3.4,5.422,5.422,0,0,0-1.2-1.609c-.179-.142-.26-.186-.34-.186h0a.65.65,0,0,0-.161,0,5.533,5.533,0,0,1-.966.464,2.637,2.637,0,0,1-.724,1.7,1.77,1.77,0,0,1,.347.885,1.683,1.683,0,0,1-.371,1.281h0a2.012,2.012,0,0,1,.8,1.615,1.708,1.708,0,0,1-.347.959,1.7,1.7,0,0,0-.223.452,2.333,2.333,0,0,0,0,.718,3.531,3.531,0,0,1,.037.619,4.252,4.252,0,0,1-1.925,3.565Z" transform="translate(-18.066 -16.623)" fill="#b6462c"/>
    <path id="Tracé_4588" data-name="Tracé 4588" d="M117.736,101.477a2.179,2.179,0,0,1-2.816-.3" transform="translate(-22.013 -22.602)" fill="#f2f1f7"/>
    <path id="Tracé_4589" data-name="Tracé 4589" d="M116.343,101.984a2.674,2.674,0,0,1-1.82-.761.311.311,0,1,1,.439-.439,1.857,1.857,0,0,0,2.42.279.311.311,0,1,1,.378.5A2.383,2.383,0,0,1,116.343,101.984Z" transform="translate(-21.827 -22.417)" fill="#b6462c"/>
    <path id="Tracé_4590" data-name="Tracé 4590" d="M109.494,97.763a2.531,2.531,0,0,0-.99-.965,3.335,3.335,0,0,0-.947-.508,1.238,1.238,0,0,0-1.034.111,1.145,1.145,0,0,0-.446.811,2.2,2.2,0,0,0,.149.935,3.98,3.98,0,0,0,3.095,2.519l-.136-.062" transform="translate(-18.642 -20.714)" fill="#f2f1f7"/>
    <path id="Tracé_4591" data-name="Tracé 4591" d="M109.127,100.781h-.043a4.332,4.332,0,0,1-3.317-2.723,2.37,2.37,0,0,1-.161-1.071,1.4,1.4,0,0,1,.569-1.034,1.5,1.5,0,0,1,1.306-.155,3.954,3.954,0,0,1,1.027.545,2.847,2.847,0,0,1,1.089,1.1.309.309,0,0,1-.161.408.3.3,0,0,1-.408-.155,2.259,2.259,0,0,0-.866-.836,3.144,3.144,0,0,0-.86-.464.91.91,0,0,0-.774.068.823.823,0,0,0-.309.619,1.8,1.8,0,0,0,.13.8,3.676,3.676,0,0,0,2.556,2.265.309.309,0,0,1,.21,0l.136.062a.316.316,0,0,1-.124.619Z" transform="translate(-18.46 -20.52)" fill="#b6462c"/>
    <path id="Tracé_4592" data-name="Tracé 4592" d="M113.862,106.922a4.951,4.951,0,0,1-2.742-.532s1.207,2.55,3.713,2.352Z" transform="translate(-20.565 -24.588)" fill="#b6462c"/>
    <path id="Tracé_4593" data-name="Tracé 4593" d="M114.407,108.873a4.389,4.389,0,0,1-3.713-2.538.322.322,0,0,1,.074-.365.3.3,0,0,1,.371,0,4.642,4.642,0,0,0,2.544.483.334.334,0,0,1,.3.161l1,1.813a.316.316,0,0,1,0,.3.3.3,0,0,1-.248.161,2.636,2.636,0,0,1-.334-.012Zm-2.643-1.987a3.472,3.472,0,0,0,2.408,1.362l-.656-1.188a5.842,5.842,0,0,1-1.752-.173Z" transform="translate(-20.392 -24.403)" fill="#b6462c"/>
    <ellipse id="Ellipse_412" data-name="Ellipse 412" cx="0.26" cy="0.662" rx="0.26" ry="0.662" transform="translate(91.322 73.148) rotate(-20.99)" fill="#b6462c"/>
    <path id="Tracé_4594" data-name="Tracé 4594" d="M114.026,110.531c-.78-.489-9.469-2.129-11.6,1.758s-3.348,30.748-1.56,36.677l22.974-4.58S118.346,113.223,114.026,110.531Z" transform="translate(-16.329 -25.875)" fill="#f7e3df"/>
    <path id="Tracé_4595" data-name="Tracé 4595" d="M123.291,121.555s5.985,5.05,11.543,3.4S147.392,113.4,147.392,113.4l-3.714-4.524s-3.812,6.882-8.43,6.926-12.589-5.614-12.589-5.614Z" transform="translate(-24.963 -25.537)" fill="#f7e3df"/>
    <path id="Tracé_4596" data-name="Tracé 4596" d="M131.351,129.583c-5.632,0-11.6-4.153-11.933-4.382a.309.309,0,0,1,.334-.489c.1.074,10.181,7.08,16.178,2.946,6.1-4.2,8.157-8.046,8.176-8.114a.3.3,0,0,1,.415-.136.316.316,0,0,1,.136.421c-.087.161-2.135,4.035-8.374,8.337a8.528,8.528,0,0,1-4.933,1.417Z" transform="translate(-23.701 -29.536)" fill="#b6462c"/>
    <path id="Tracé_4597" data-name="Tracé 4597" d="M131.111,116.017h-.068c-1.238-.266-7.848-3.163-9.655-4.667a4.376,4.376,0,0,0-3.033-1.182.312.312,0,0,1-.074-.619,4.951,4.951,0,0,1,3.5,1.324c1.745,1.448,8.287,4.332,9.389,4.543a.3.3,0,0,1,.241.365A.309.309,0,0,1,131.111,116.017Z" transform="translate(-23.189 -25.791)" fill="#b6462c"/>
    <path id="Tracé_4598" data-name="Tracé 4598" d="M145.784,90.756a10.522,10.522,0,0,0-.2,1.386,1.417,1.417,0,0,0,0,.427.966.966,0,0,0,.873.594,3.1,3.1,0,0,0,1.6-.328c1.343-.538,3.881-2.333,2.024-3.868C148.662,87.847,146.112,89.215,145.784,90.756Z" transform="translate(-33.691 -17.792)" fill="#f2f1f7"/>
    <path id="Tracé_4599" data-name="Tracé 4599" d="M146.5,93.331h-.291a1.238,1.238,0,0,1-1.083-.842,1.424,1.424,0,0,1,0-.532,10.946,10.946,0,0,1,.2-1.423h0a3.423,3.423,0,0,1,2.253-2.247,2.538,2.538,0,0,1,2.507.3,1.758,1.758,0,0,1,.755,1.665c-.192,1.238-1.813,2.309-2.853,2.729A4.061,4.061,0,0,1,146.5,93.331Zm2.117-4.636a2.71,2.71,0,0,0-.854.155,2.866,2.866,0,0,0-1.857,1.789h0a11.089,11.089,0,0,0-.2,1.349,1.089,1.089,0,0,0,0,.322.669.669,0,0,0,.569.39,2.928,2.928,0,0,0,1.442-.309c.941-.378,2.327-1.324,2.476-2.247a1.164,1.164,0,0,0-.532-1.1A1.628,1.628,0,0,0,148.615,88.695Zm-3.008,1.857Z" transform="translate(-33.514 -17.612)" fill="#b6462c"/>
    <path id="Tracé_4600" data-name="Tracé 4600" d="M139.6,225.66s-3.311,3.008-3.138,3.4,6.839,8.758,7.668,7.885-.737-7.309-.737-7.309Z" transform="translate(-30.221 -70.04)" fill="#b6462c"/>
    <path id="Tracé_4601" data-name="Tracé 4601" d="M143.784,237.133h-.124c-1.6-.272-7.47-7.687-7.662-8.12-.093-.21-.266-.619,3.212-3.757a.3.3,0,0,1,.427,0l3.794,3.967a.315.315,0,0,1,.074.142c.378,1.547,1.541,6.678.662,7.6A.52.52,0,0,1,143.784,237.133Zm-7.179-8.318c.619,1.009,6.084,7.594,7.142,7.7.39-.576-.111-3.98-.823-6.913l-3.522-3.714A21.446,21.446,0,0,0,136.6,228.815Z" transform="translate(-30.032 -69.853)" fill="#b6462c"/>
    <path id="Tracé_4602" data-name="Tracé 4602" d="M69.592,225.83s-4.3.582-4.648,1.448.928,10.689,1.8,10.521,3.311-6.449,3.311-6.449Z" transform="translate(-2.946 -70.105)" fill="#b6462c"/>
    <path id="Tracé_4603" data-name="Tracé 4603" d="M66.532,237.917a.514.514,0,0,1-.4-.217c-.9-1.071-2.061-9.735-1.665-10.726s3.837-1.5,4.889-1.646a.316.316,0,0,1,.353.285l.464,5.514a.562.562,0,0,1,0,.142c-.755,1.931-2.606,6.449-3.54,6.635Zm.093-.619ZM69.1,225.966c-1.906.285-3.924.817-4.085,1.238-.433,1.17,1.009,9.135,1.529,10.045.538-.452,1.931-3.441,2.983-6.14Z" transform="translate(-2.757 -69.913)" fill="#b6462c"/>
  </g>
</svg>
