<svg id="people_black_24dp" xmlns="http://www.w3.org/2000/svg" width="60.378" height="60.378" viewBox="0 0 60.378 60.378">
  <path id="Tracé_1030" data-name="Tracé 1030" d="M0,0H60.378V60.378H0Z" fill="none"/>
  <path id="Tracé_1031" data-name="Tracé 1031" d="M38.736,20.094a7.547,7.547,0,1,0-7.547-7.547A7.516,7.516,0,0,0,38.736,20.094Zm-20.126,0a7.547,7.547,0,1,0-7.547-7.547A7.516,7.516,0,0,0,18.61,20.094Zm0,5.031C12.749,25.126,1,28.069,1,33.931V37.7A2.523,2.523,0,0,0,3.516,40.22H33.7A2.523,2.523,0,0,0,36.22,37.7V33.931C36.22,28.069,24.472,25.126,18.61,25.126Zm20.126,0c-.73,0-1.56.05-2.44.126.05.025.075.075.1.1,2.868,2.088,4.855,4.881,4.855,8.579V37.7A7.558,7.558,0,0,1,40.8,40.22H53.831A2.523,2.523,0,0,0,56.346,37.7V33.931C56.346,28.069,44.6,25.126,38.736,25.126Z" transform="translate(1.516 7.579)" fill="rgba(216,118,95,0.2)" stroke="#b6462c" stroke-width="0.7"/>
</svg>
