<svg xmlns="http://www.w3.org/2000/svg" width="19.348" height="14.511" viewBox="0 0 19.348 14.511">
  <path id="Icon_awesome-car" data-name="Icon awesome-car" d="M18.894,8.732H16.632L16,7.16A4.211,4.211,0,0,0,12.074,4.5h-4.8a4.212,4.212,0,0,0-3.93,2.66L2.716,8.732H.454a.453.453,0,0,0-.44.563l.227.907a.453.453,0,0,0,.44.344h.758A2.4,2.4,0,0,0,.6,12.36v1.814a2.4,2.4,0,0,0,.6,1.584V17.8a1.209,1.209,0,0,0,1.209,1.209H3.628A1.209,1.209,0,0,0,4.837,17.8V16.593h9.674V17.8a1.209,1.209,0,0,0,1.209,1.209H16.93A1.209,1.209,0,0,0,18.139,17.8V15.759a2.4,2.4,0,0,0,.6-1.584V12.36a2.4,2.4,0,0,0-.834-1.814h.758a.453.453,0,0,0,.44-.344l.227-.907a.454.454,0,0,0-.44-.563ZM5.59,8.059a1.814,1.814,0,0,1,1.684-1.14h4.8a1.814,1.814,0,0,1,1.684,1.14l.753,1.883H4.837L5.59,8.059ZM3.628,14.166a1.141,1.141,0,0,1-1.209-1.205,1.141,1.141,0,0,1,1.209-1.205,2.326,2.326,0,0,1,1.814,1.808C5.442,14.287,4.353,14.166,3.628,14.166Zm12.093,0c-.726,0-1.814.121-1.814-.6a2.326,2.326,0,0,1,1.814-1.808,1.141,1.141,0,0,1,1.209,1.205,1.141,1.141,0,0,1-1.209,1.205Z" transform="translate(0 -4.5)" fill="#4973d2"/>
</svg>
