<svg xmlns="http://www.w3.org/2000/svg" width="19.793" height="19.793" viewBox="0 0 19.793 19.793">
  <path id="Icon_awesome-street-view" data-name="Icon awesome-street-view" d="M14.222,12.748a2.472,2.472,0,0,1-.615.528v.887c2.572.361,4.33,1.084,4.33,1.919,0,1.2-3.6,2.165-8.041,2.165s-8.041-.969-8.041-2.165c0-.835,1.758-1.558,4.33-1.919v-.887a2.472,2.472,0,0,1-.615-.528C2.276,13.35,0,14.615,0,16.082c0,2.05,4.431,3.711,9.9,3.711s9.9-1.662,9.9-3.711C19.793,14.615,17.517,13.35,14.222,12.748ZM9.9,4.948A2.474,2.474,0,1,0,7.422,2.474,2.474,2.474,0,0,0,9.9,4.948ZM7.422,12.37v3.711a1.237,1.237,0,0,0,1.237,1.237h2.474a1.237,1.237,0,0,0,1.237-1.237V12.37a1.237,1.237,0,0,0,1.237-1.237V7.422a1.856,1.856,0,0,0-1.856-1.856H11.3a3.321,3.321,0,0,1-2.8,0H8.041A1.856,1.856,0,0,0,6.185,7.422v3.711A1.237,1.237,0,0,0,7.422,12.37Z" fill="#4973d2"/>
</svg>
