<svg xmlns="http://www.w3.org/2000/svg" width="72.107" height="73.304" viewBox="0 0 72.107 73.304">
  <g id="route" transform="translate(0 1.169)">
    <path id="Tracé_63" data-name="Tracé 63" d="M11.39,11.3A1.39,1.39,0,1,0,10,9.913a1.39,1.39,0,0,0,1.39,1.39Zm0-2.086a.7.7,0,1,1-.7.7A.7.7,0,0,1,11.39,9.218ZM78.736,32.154a.927.927,0,1,0,.927.927A.927.927,0,0,0,78.736,32.154Zm0,1.39a.463.463,0,1,1,.463-.463A.463.463,0,0,1,78.736,33.545ZM65.39,9.681a.927.927,0,1,0,.927.927A.927.927,0,0,0,65.39,9.681Zm0,1.39a.463.463,0,1,1,.463-.463.463.463,0,0,1-.463.463ZM78.736,4.809a.927.927,0,1,0,.927.927A.927.927,0,0,0,78.736,4.809Zm0,1.39a.463.463,0,1,1,.463-.463A.463.463,0,0,1,78.736,6.2ZM39.645,3.316a.927.927,0,1,0-.927.927.927.927,0,0,0,.927-.927Zm-1.39,0a.463.463,0,1,1,.463.463A.463.463,0,0,1,38.255,3.316Z" transform="translate(-8.283 -3.558)" fill="#1f4076"/>
    <path id="Tracé_64" data-name="Tracé 64" d="M9.065,65.2l.638-.84-.4-.228-.41.94H8.877l-.416-.933-.41.235.631.819v.013L7.7,65.081v.457l.994-.127v.014l-.638.819.382.242.437-.947h.013l.4.94.423-.242-.645-.806v-.013l1.014.121v-.457l-1.014.134Z" transform="translate(-4.392 -36.819)" fill="#4973d2"/>
    <path id="Tracé_65" data-name="Tracé 65" d="M72.8,38.119l-.537.689.322.2.368-.8h.011l.339.791.356-.2-.543-.678v-.011l.853.1v-.384l-.853.113v-.011l.537-.706-.339-.192-.344.791h-.012l-.35-.785-.345.2.531.689v.011l-.831-.107v.384l.837-.107Z" transform="translate(-61.144 -22.026)" fill="#4973d2"/>
    <path id="Tracé_66" data-name="Tracé 66" d="M152.195,43.493v-.448l-.994.131v-.013l.626-.823-.4-.224-.4.922h-.013l-.408-.916-.4.23.619.8v.013l-.969-.125v.448l.975-.125v.013l-.626.8.376.237.428-.929h.013l.4.922.415-.237-.632-.791v-.013Z" transform="translate(-85.536 -24.542)" fill="#4973d2"/>
    <path id="Tracé_67" data-name="Tracé 67" d="M104.809,37.2l.54-.71-.341-.193-.346.8h-.012l-.352-.79-.347.2.534.694V37.2l-.836-.108v.386l.841-.108v.012l-.54.693.324.2.37-.8h.011l.341.8.358-.2-.546-.682v-.012l.858.1v-.386l-.858.114Z" transform="translate(-59.162 -32.138)" fill="#4973d2"/>
    <circle id="Ellipse_8" data-name="Ellipse 8" cx="0.858" cy="0.858" r="0.858" transform="translate(0 64.41)" fill="#2d4356"/>
    <path id="Tracé_68" data-name="Tracé 68" d="M8.146,147.611H6.858a.858.858,0,0,0,0,1.717H8.146a.858.858,0,0,0,0-1.717Z" transform="translate(-3.425 -83.201)" fill="#2d4356"/>
    <path id="Tracé_69" data-name="Tracé 69" d="M78.111,155.611H74.545a.861.861,0,0,0,0,1.717h3.566a.861.861,0,0,0,0-1.717Zm-25.753,0H48.792a.861.861,0,0,0,0,1.717h3.566a.861.861,0,0,0,0-1.717Zm19.678,0H54.867a.858.858,0,0,0,0,1.717h6.842v.858H58.3a.858.858,0,1,0,0,1.717h10.73a.858.858,0,1,0,0-1.717H65.194v-.858h6.842a.858.858,0,1,0,0-1.717Z" transform="translate(-27.398 -87.767)" fill="#0bceb2"/>
    <circle id="Ellipse_9" data-name="Ellipse 9" cx="0.858" cy="0.858" r="0.858" transform="translate(0 64.41)" fill="#2d4356"/>
    <path id="Tracé_70" data-name="Tracé 70" d="M8.146,147.611H6.858a.858.858,0,0,0,0,1.717H8.146a.858.858,0,0,0,0-1.717Z" transform="translate(-3.425 -83.201)" fill="#2d4356"/>
    <path id="Tracé_71" data-name="Tracé 71" d="M78.111,155.611H74.545a.861.861,0,0,0,0,1.717h3.566a.861.861,0,0,0,0-1.717Zm-25.753,0H48.792a.861.861,0,0,0,0,1.717h3.566a.861.861,0,0,0,0-1.717Zm19.678,0H54.867a.858.858,0,0,0,0,1.717h6.842v.858H58.3a.858.858,0,1,0,0,1.717h10.73a.858.858,0,1,0,0-1.717H65.194v-.858h6.842a.858.858,0,1,0,0-1.717Z" transform="translate(-27.398 -87.767)" fill="#0bceb2"/>
    <circle id="Ellipse_10" data-name="Ellipse 10" cx="0.858" cy="0.858" r="0.858" transform="translate(0 64.41)" fill="#1f4076"/>
    <path id="Tracé_72" data-name="Tracé 72" d="M8.146,147.611H6.858a.858.858,0,0,0,0,1.717H8.146a.858.858,0,0,0,0-1.717Z" transform="translate(-3.425 -83.201)" fill="#1f4076"/>
    <path id="Tracé_73" data-name="Tracé 73" d="M78.111,155.611H74.545a.861.861,0,0,0,0,1.717h3.566a.861.861,0,0,0,0-1.717Zm-25.753,0H48.792a.861.861,0,0,0,0,1.717h3.566a.861.861,0,0,0,0-1.717Zm19.678,0H54.867a.858.858,0,0,0,0,1.717h6.842v.858H58.3a.858.858,0,1,0,0,1.717h10.73a.858.858,0,1,0,0-1.717H65.194v-.858h6.842a.858.858,0,1,0,0-1.717Z" transform="translate(-27.398 -87.767)" fill="#4973d2"/>
    <path id="Tracé_74" data-name="Tracé 74" d="M157.146,147.611h-1.288a.858.858,0,0,0,0,1.717h1.288a.858.858,0,0,0,0-1.717Z" transform="translate(-88.472 -83.201)" fill="#1f4076"/>
    <circle id="Ellipse_11" data-name="Ellipse 11" cx="0.858" cy="0.858" r="0.858" transform="translate(70.39 64.41)" fill="#1f4076"/>
    <path id="Soustraction_1" data-name="Soustraction 1" d="M58.366,2.5a.883.883,0,0,1-.113-.007H.977A.871.871,0,0,1,.864,2.5a.866.866,0,0,1,0-1.731A.884.884,0,0,1,.977.777H7.183L7.319.491A.854.854,0,0,1,8.09,0a.845.845,0,0,1,.149.013.854.854,0,0,1,.7.763h25.54V.788h23.91V.77A.866.866,0,0,1,58.366,2.5Z" transform="translate(6.439 63.633)" fill="#1f4076"/>
    <path id="task-management" d="M43.15,7.147H37.3a.731.731,0,0,0,0,1.463H43.15A2.2,2.2,0,0,1,45.345,10.8V21.043a2.2,2.2,0,0,1-2.194,2.194H35.837l.82-.82a.731.731,0,1,0-1.034-1.034l-2.068,2.068a.731.731,0,0,0,0,1.034l2.068,2.068a.731.731,0,1,0,1.034-1.034l-.82-.82H43.15a3.66,3.66,0,0,0,3.657-3.657V10.8A3.66,3.66,0,0,0,43.15,7.147ZM8.259,37.472a.731.731,0,1,0-1.034,1.034l.82.82H3.657a2.2,2.2,0,0,1-2.194-2.194V26.893A2.2,2.2,0,0,1,3.657,24.7h8.776a.731.731,0,1,0,0-1.463H3.657A3.66,3.66,0,0,0,0,26.893V37.133a3.66,3.66,0,0,0,3.657,3.657H8.045l-.82.82a.731.731,0,1,0,1.034,1.034l2.068-2.068a.731.731,0,0,0,0-1.034ZM26.695,22.505H25.463a2.167,2.167,0,0,0-.327-.614,2.142,2.142,0,0,0-1-.68v-2a.731.731,0,0,0-1.463,0v1.962a2.189,2.189,0,0,0,.459,4.237,2.276,2.276,0,0,0,.277.019,2.19,2.19,0,0,0,2.061-1.464h1.226a.731.731,0,0,0,0-1.463Zm-2.843,1.31a.715.715,0,0,1-.539.147.731.731,0,0,1,.089-1.457.655.655,0,0,1,.091.006.732.732,0,0,1,.359,1.3ZM16.821,5.684H29.986a.731.731,0,0,0,0-1.463H16.821a.731.731,0,0,0,0,1.463Zm0,2.925h7.314a.731.731,0,0,0,0-1.463H16.821a.731.731,0,0,0,0,1.463ZM29.986,37.864H16.821a.731.731,0,1,0,0,1.463H29.986a.731.731,0,0,0,0-1.463Zm-5.851,2.925H16.821a.731.731,0,0,0,0,1.463h7.314a.731.731,0,0,0,0-1.463Z" transform="translate(12.825 11.699)" fill="#4973d2"/>
    <path id="task-management-2" data-name="task-management" d="M14.913,13.165H31A3.66,3.66,0,0,0,34.66,9.508V3.657A3.66,3.66,0,0,0,31,0H14.913a3.66,3.66,0,0,0-3.657,3.657V9.508A3.66,3.66,0,0,0,14.913,13.165ZM12.719,3.657a2.2,2.2,0,0,1,2.194-2.194H31A2.2,2.2,0,0,1,33.2,3.657V9.508A2.2,2.2,0,0,1,31,11.7H14.913a2.2,2.2,0,0,1-2.194-2.194ZM31,33.643H14.913A3.66,3.66,0,0,0,11.256,37.3V43.15a3.66,3.66,0,0,0,3.657,3.657H31A3.66,3.66,0,0,0,34.66,43.15V37.3A3.66,3.66,0,0,0,31,33.643ZM33.2,43.15A2.2,2.2,0,0,1,31,45.345H14.913a2.2,2.2,0,0,1-2.194-2.194V37.3a2.2,2.2,0,0,1,2.194-2.194H31A2.2,2.2,0,0,1,33.2,37.3ZM22.958,14.627A8.776,8.776,0,1,0,31.735,23.4a8.776,8.776,0,0,0-8.776-8.776Zm0,16.09A7.314,7.314,0,1,1,30.272,23.4,7.314,7.314,0,0,1,22.958,30.717Z" transform="translate(13.271 11.487)" fill="#1f4076"/>
  </g>
</svg>
