<svg xmlns="http://www.w3.org/2000/svg" width="119.837" height="140.984" viewBox="0 0 119.837 140.984">
  <path id="contact_support_FILL0_wght400_GRAD0_opsz24" d="M183.443-739.016l-1.762-21.148h-1.762q-25.025,0-42.471-17.447T120-820.082q0-25.025,17.447-42.471T179.918-880a58.373,58.373,0,0,1,23.35,4.67A60.515,60.515,0,0,1,222.3-862.465a60.514,60.514,0,0,1,12.865,19.033,58.372,58.372,0,0,1,4.67,23.35,75.278,75.278,0,0,1-4.318,25.377,89.8,89.8,0,0,1-11.807,22.557,99.844,99.844,0,0,1-17.8,18.857A110.318,110.318,0,0,1,183.443-739.016Zm14.1-25.73a87.777,87.777,0,0,0,20.355-24.76,62.193,62.193,0,0,0,7.842-30.576q0-19.209-13.305-32.514T179.918-865.9q-19.209,0-32.514,13.305T134.1-820.082q0,19.209,13.305,32.514t32.514,13.305h17.623Zm-17.8-16.742a6.963,6.963,0,0,0,5.111-2.115,6.963,6.963,0,0,0,2.115-5.111,6.963,6.963,0,0,0-2.115-5.111,6.963,6.963,0,0,0-5.111-2.115,6.963,6.963,0,0,0-5.111,2.115,6.963,6.963,0,0,0-2.115,5.111,6.963,6.963,0,0,0,2.115,5.111A6.963,6.963,0,0,0,179.742-781.487Zm-5.111-22.381h10.574q0-5.287,1.057-7.4t6.7-7.754a32.538,32.538,0,0,0,5.287-6.873,15.725,15.725,0,0,0,2.115-7.93q0-8.988-6.08-13.482a23.5,23.5,0,0,0-14.363-4.494,19.944,19.944,0,0,0-13.041,4.318,22.967,22.967,0,0,0-7.4,10.486l9.869,3.877a16.319,16.319,0,0,1,3.348-5.9q2.467-2.908,7.225-2.908t7.137,2.643a8.51,8.51,0,0,1,2.379,5.816,8.8,8.8,0,0,1-1.762,5.375,43.706,43.706,0,0,1-4.23,4.846q-6.168,5.287-7.49,8.371T174.631-803.869ZM179.918-815.324Z" transform="translate(-120 880)" fill="#4973d2"/>
</svg>