<svg xmlns="http://www.w3.org/2000/svg" width="207.735" height="121.044" viewBox="0 0 207.735 121.044">
  <g id="Groupe_347" data-name="Groupe 347" transform="translate(4771.837 4786.96)">
    <g id="_015" data-name="015" transform="translate(-4731.674 -4779.751)">
      <path id="Tracé_2716" data-name="Tracé 2716" d="M262.92,90.409H138.853a4.77,4.77,0,0,0-4.828,5.559l11.87,90.476a6.514,6.514,0,0,0,6.29,5.559H276.253a4.77,4.77,0,0,0,4.828-5.559L269.21,95.968A6.514,6.514,0,0,0,262.92,90.409Z" transform="translate(-113.888 -83.843)" fill="#1f4076"/>
      <path id="Tracé_2717" data-name="Tracé 2717" d="M276.133,192.215H152.066a6.876,6.876,0,0,1-6.608-5.841L133.587,95.9a5.219,5.219,0,0,1,1.2-4.2,5.139,5.139,0,0,1,3.945-1.7H262.8a6.876,6.876,0,0,1,6.608,5.79l11.87,90.476a5.219,5.219,0,0,1-1.2,4.2,5.139,5.139,0,0,1-3.945,1.752Zm-137.4-101.6a4.509,4.509,0,0,0-3.46,1.506,4.618,4.618,0,0,0-1.057,3.67l11.87,90.476a6.225,6.225,0,0,0,5.979,5.284H276.133a4.509,4.509,0,0,0,3.46-1.506,4.589,4.589,0,0,0,1.057-3.7l-11.87-90.476a6.225,6.225,0,0,0-5.979-5.284Z" transform="translate(-113.769 -83.73)" fill="#1f4076"/>
      <path id="Tracé_2718" data-name="Tracé 2718" d="M120.406,110.32h136.8l-13.651,81.631a6.847,6.847,0,0,1-6.514,5.559H111.4a4.582,4.582,0,0,1-4.632-5.559Z" transform="translate(-106.349 -89.343)" fill="#f2f1f7"/>
      <path id="Tracé_2719" data-name="Tracé 2719" d="M236.942,197.718H111.282A4.98,4.98,0,0,1,107.4,196a5.11,5.11,0,0,1-1.071-4.227l13.636-81.624a.333.333,0,0,1,.326-.275h136.8a.347.347,0,0,1,.253.116.355.355,0,0,1,.072.268L243.76,191.877a7.238,7.238,0,0,1-6.818,5.841Zm-116.4-87.19-13.564,81.348a4.48,4.48,0,0,0,.919,3.691,4.343,4.343,0,0,0,3.387,1.448h125.66a6.514,6.514,0,0,0,6.167-5.284l13.571-81.24Z" transform="translate(-106.229 -89.219)" fill="#1f4076"/>
      <path id="Tracé_2720" data-name="Tracé 2720" d="M133.625,90.409h125.66a4.582,4.582,0,0,1,4.632,5.559l-1.448,8.845H125.67l1.448-8.845A6.84,6.84,0,0,1,133.625,90.409Z" transform="translate(-111.599 -83.843)" fill="#f4e289"/>
      <path id="Tracé_2721" data-name="Tracé 2721" d="M262.3,105.033H125.5a.311.311,0,0,1-.253-.123.3.3,0,0,1-.072-.268l1.448-8.838a7.187,7.187,0,0,1,6.862-5.8h125.66a5,5,0,0,1,3.894,1.723,5.11,5.11,0,0,1,1.064,4.227l-1.448,8.838a.326.326,0,0,1-.355.246Zm-136.394-.666H262.027l1.448-8.563a4.459,4.459,0,0,0-.919-3.691,4.343,4.343,0,0,0-3.387-1.448H133.486a6.514,6.514,0,0,0-6.16,5.284Z" transform="translate(-111.461 -83.73)" fill="#1f4076"/>
      <path id="Tracé_2722" data-name="Tracé 2722" d="M141.794,188.719h-.058a.326.326,0,0,1-.268-.376l10.958-65.6a.34.34,0,0,1,.384-.275.333.333,0,0,1,.268.384l-10.958,65.6a.333.333,0,0,1-.326.268Z" transform="translate(-115.961 -92.697)" fill="#231f20"/>
      <path id="Tracé_2723" data-name="Tracé 2723" d="M167.111,188.7h-.058a.326.326,0,0,1-.275-.376l10.966-65.6a.333.333,0,1,1,.651.109l-10.966,65.6a.326.326,0,0,1-.318.268Z" transform="translate(-122.951 -92.681)" fill="#231f20"/>
      <path id="Tracé_2724" data-name="Tracé 2724" d="M192.424,188.719h-.051a.326.326,0,0,1-.275-.376l10.958-65.6a.34.34,0,0,1,.384-.275.326.326,0,0,1,.268.384l-10.958,65.6a.333.333,0,0,1-.326.268Z" transform="translate(-129.945 -92.697)" fill="#231f20"/>
      <path id="Tracé_2725" data-name="Tracé 2725" d="M217.743,188.7h-.058a.318.318,0,0,1-.268-.376l10.958-65.6a.333.333,0,1,1,.651.109l-10.958,65.6a.333.333,0,0,1-.326.268Z" transform="translate(-136.937 -92.681)" fill="#231f20"/>
      <path id="Tracé_2726" data-name="Tracé 2726" d="M243.054,188.7H243a.326.326,0,0,1-.275-.376l10.966-65.6a.333.333,0,1,1,.651.109l-10.966,65.6a.333.333,0,0,1-.326.268Z" transform="translate(-143.928 -92.681)" fill="#231f20"/>
      <path id="Tracé_2727" data-name="Tracé 2727" d="M268.374,188.7h-.058a.326.326,0,0,1-.268-.376l10.958-65.6a.333.333,0,1,1,.651.109l-10.922,65.6A.333.333,0,0,1,268.374,188.7Z" transform="translate(-150.922 -92.681)" fill="#231f20"/>
      <path id="Tracé_2728" data-name="Tracé 2728" d="M141.794,188.719h-.058a.326.326,0,0,1-.268-.376l10.958-65.6a.34.34,0,0,1,.384-.275.333.333,0,0,1,.268.384l-10.958,65.6a.333.333,0,0,1-.326.268Z" transform="translate(-115.961 -92.697)" fill="none" stroke="#5c6f99" stroke-linecap="round" stroke-linejoin="round" stroke-width="0.92"/>
      <path id="Tracé_2729" data-name="Tracé 2729" d="M167.111,188.7h-.058a.326.326,0,0,1-.275-.376l10.966-65.6a.333.333,0,1,1,.651.109l-10.966,65.6a.326.326,0,0,1-.318.268Z" transform="translate(-122.951 -92.681)" fill="none" stroke="#5c6f99" stroke-linecap="round" stroke-linejoin="round" stroke-width="0.92"/>
      <path id="Tracé_2730" data-name="Tracé 2730" d="M192.424,188.719h-.051a.326.326,0,0,1-.275-.376l10.958-65.6a.34.34,0,0,1,.384-.275.326.326,0,0,1,.268.384l-10.958,65.6a.333.333,0,0,1-.326.268Z" transform="translate(-129.945 -92.697)" fill="none" stroke="#5c6f99" stroke-linecap="round" stroke-linejoin="round" stroke-width="0.92"/>
      <path id="Tracé_2731" data-name="Tracé 2731" d="M217.743,188.7h-.058a.318.318,0,0,1-.268-.376l10.958-65.6a.333.333,0,1,1,.651.109l-10.958,65.6a.333.333,0,0,1-.326.268Z" transform="translate(-136.937 -92.681)" fill="none" stroke="#5c6f99" stroke-linecap="round" stroke-linejoin="round" stroke-width="0.92"/>
      <path id="Tracé_2732" data-name="Tracé 2732" d="M243.054,188.7H243a.326.326,0,0,1-.275-.376l10.966-65.6a.333.333,0,1,1,.651.109l-10.966,65.6a.333.333,0,0,1-.326.268Z" transform="translate(-143.928 -92.681)" fill="none" stroke="#5c6f99" stroke-linecap="round" stroke-linejoin="round" stroke-width="0.92"/>
      <path id="Tracé_2733" data-name="Tracé 2733" d="M268.374,188.7h-.058a.326.326,0,0,1-.268-.376l10.958-65.6a.333.333,0,1,1,.651.109l-10.922,65.6A.333.333,0,0,1,268.374,188.7Z" transform="translate(-150.922 -92.681)" fill="none" stroke="#5c6f99" stroke-linecap="round" stroke-linejoin="round" stroke-width="0.92"/>
      <path id="Tracé_2734" data-name="Tracé 2734" d="M253.636,144.137H134.164a.333.333,0,1,1,0-.659H253.636a.333.333,0,1,1,0,.659Z" transform="translate(-113.839 -98.5)" fill="#231f20"/>
      <path id="Tracé_2735" data-name="Tracé 2735" d="M249.576,168.437H130.1a.333.333,0,1,1,0-.659H249.576a.333.333,0,1,1,0,.659Z" transform="translate(-112.718 -105.212)" fill="#231f20"/>
      <path id="Tracé_2736" data-name="Tracé 2736" d="M245.534,192.746H126.063a.333.333,0,0,1,0-.666H245.534a.333.333,0,0,1,0,.666Z" transform="translate(-111.615 -111.925)" fill="#231f20"/>
      <line id="Ligne_107" data-name="Ligne 107" x2="119.471" transform="translate(20.325 45.304)" fill="none" stroke="#d1d3d4" stroke-linecap="round" stroke-linejoin="round" stroke-width="0.92"/>
      <path id="Tracé_2737" data-name="Tracé 2737" d="M253.636,144.137H134.164a.333.333,0,1,1,0-.659H253.636a.333.333,0,1,1,0,.659Z" transform="translate(-113.839 -98.5)" fill="none" stroke="#5c6f99" stroke-linecap="round" stroke-linejoin="round" stroke-width="0.92"/>
      <line id="Ligne_108" data-name="Ligne 108" x2="119.471" transform="translate(17.386 62.9)" fill="none" stroke="#d1d3d4" stroke-linecap="round" stroke-linejoin="round" stroke-width="0.92"/>
      <path id="Tracé_2738" data-name="Tracé 2738" d="M249.576,168.437H130.1a.333.333,0,1,1,0-.659H249.576a.333.333,0,1,1,0,.659Z" transform="translate(-112.718 -105.212)" fill="none" stroke="#5c6f99" stroke-linecap="round" stroke-linejoin="round" stroke-width="0.92"/>
      <line id="Ligne_109" data-name="Ligne 109" x2="119.471" transform="translate(14.448 80.488)" fill="none" stroke="#d1d3d4" stroke-linecap="round" stroke-linejoin="round" stroke-width="0.92"/>
      <path id="Tracé_2739" data-name="Tracé 2739" d="M245.534,192.746H126.063a.333.333,0,0,1,0-.666H245.534a.333.333,0,0,1,0,.666Z" transform="translate(-111.615 -111.925)" fill="none" stroke="#5c6f99" stroke-linecap="round" stroke-linejoin="round" stroke-width="0.92"/>
      <path id="Tracé_2740" data-name="Tracé 2740" d="M181.225,159.313a.318.318,0,0,1-.253-.116.333.333,0,0,1,.043-.463L193.79,148.1a.333.333,0,0,1,.463.043.34.34,0,0,1-.043.47l-12.768,10.625A.34.34,0,0,1,181.225,159.313Z" transform="translate(-126.852 -99.758)" fill="#1f4076"/>
      <path id="Tracé_2741" data-name="Tracé 2741" d="M192.892,159.313a.333.333,0,0,1-.246-.109l-9.221-10.633a.333.333,0,0,1,0-.463.318.318,0,0,1,.463.036l9.221,10.625a.333.333,0,0,1,0,.463.3.3,0,0,1-.217.08Z" transform="translate(-127.524 -99.757)" fill="#1f4076"/>
      <path id="Tracé_2742" data-name="Tracé 2742" d="M253.564,184.963a.333.333,0,0,1-.253-.123.326.326,0,0,1,.043-.463l12.739-10.625a.333.333,0,1,1,.427.507l-12.732,10.625A.333.333,0,0,1,253.564,184.963Z" transform="translate(-146.831 -106.835)" fill="#1f4076"/>
      <path id="Tracé_2743" data-name="Tracé 2743" d="M265.23,184.972a.319.319,0,0,1-.246-.116l-9.221-10.625a.333.333,0,0,1,0-.47.34.34,0,0,1,.47.036l9.214,10.625a.333.333,0,0,1,0,.47.347.347,0,0,1-.217.08Z" transform="translate(-147.503 -106.843)" fill="#1f4076"/>
      <path id="Tracé_2744" data-name="Tracé 2744" d="M272.88,225.12l17.755-13.89H280.364a6.355,6.355,0,0,0-6.022,5.168Z" transform="translate(-152.257 -117.214)" fill="#d3cfe5"/>
      <path id="Tracé_2745" data-name="Tracé 2745" d="M272.754,225.328a.333.333,0,0,1-.167-.043.34.34,0,0,1-.159-.34l1.448-8.729a6.7,6.7,0,0,1,6.348-5.436h10.271a.318.318,0,0,1,.311.224.311.311,0,0,1-.109.362l-17.748,13.89a.333.333,0,0,1-.2.072Zm7.484-13.89a6.015,6.015,0,0,0-5.7,4.886l-1.317,7.889,16.329-12.775Z" transform="translate(-152.132 -117.09)" fill="#1f4076"/>
      <path id="Tracé_2746" data-name="Tracé 2746" d="M258.778,98.409a1.448,1.448,0,0,1-.724-.2,9.048,9.048,0,1,1,12.681-11.791A1.45,1.45,0,1,1,268.13,87.7a6.153,6.153,0,1,0-8.62,8.02,1.448,1.448,0,0,1-.724,2.693Z" transform="translate(-146.921 -81.341)" fill="#5c6f99"/>
      <path id="Tracé_2747" data-name="Tracé 2747" d="M213.785,98.407a1.447,1.447,0,0,1-.724-.2,9.051,9.051,0,1,1,12.681-11.805,1.45,1.45,0,1,1-2.606,1.274,6.152,6.152,0,1,0-8.613,8.02,1.448,1.448,0,0,1-.724,2.693Z" transform="translate(-134.491 -81.339)" fill="#5c6f99"/>
      <path id="Tracé_2748" data-name="Tracé 2748" d="M168.794,98.407a1.382,1.382,0,0,1-.724-.2,9.048,9.048,0,1,1,12.674-11.791,1.448,1.448,0,1,1-2.6,1.274,6.155,6.155,0,1,0-8.621,8.02,1.448,1.448,0,0,1-.724,2.693Z" transform="translate(-122.065 -81.339)" fill="#5c6f99"/>
      <path id="Tracé_2749" data-name="Tracé 2749" d="M166.861,86.316a.391.391,0,0,1-.181-.043.369.369,0,0,1-.138-.5,6.992,6.992,0,0,1,2.787-2.454.362.362,0,1,1,.3.651,6.457,6.457,0,0,0-2.461,2.171A.362.362,0,0,1,166.861,86.316Z" transform="translate(-122.874 -81.871)" fill="#fff"/>
      <path id="Tracé_2750" data-name="Tracé 2750" d="M212.433,86.324a.362.362,0,0,1-.311-.543,6.949,6.949,0,0,1,2.794-2.454.362.362,0,0,1,.478.174.355.355,0,0,1-.174.478,6.456,6.456,0,0,0-2.461,2.171A.362.362,0,0,1,212.433,86.324Z" transform="translate(-135.463 -81.879)" fill="#fff"/>
      <path id="Tracé_2751" data-name="Tracé 2751" d="M256.943,86.323a.413.413,0,0,1-.181-.043.369.369,0,0,1-.13-.5,6.992,6.992,0,0,1,2.779-2.454.362.362,0,0,1,.485.174.355.355,0,0,1-.174.478,6.456,6.456,0,0,0-2.461,2.171.376.376,0,0,1-.319.174Z" transform="translate(-147.756 -81.878)" fill="#fff"/>
    </g>
    <g id="_43_time" data-name="#43_time" transform="translate(-4771.837 -4786.96)">
      <path id="Tracé_2782" data-name="Tracé 2782" d="M112.7,231.433l-9.163,10.734S85.8,232.214,86.453,230.253s12.174,1,12.174,1l5.718-7.412" transform="translate(-86.087 -127.282)" fill="#f2f1f7"/>
      <path id="Tracé_2783" data-name="Tracé 2783" d="M103.4,242.393a.325.325,0,0,1-.181-.051C97.814,239.31,85.307,232.028,85.98,230s9.359-.058,12.377.724l5.573-7.238a.369.369,0,0,1,.507-.065.362.362,0,0,1,.065.507l-5.718,7.412a.362.362,0,0,1-.376.13c-5.407-1.39-11.414-2.215-11.747-1.23-.159,1.122,8.469,6.731,16.648,11.342l8.982-10.524a.362.362,0,0,1,.55.463l-9.171,10.734A.333.333,0,0,1,103.4,242.393Z" transform="translate(-85.954 -127.147)" fill="#1f4076"/>
      <path id="Tracé_2784" data-name="Tracé 2784" d="M151.639,92.84a7,7,0,0,0-3.489-1.853,4.375,4.375,0,0,0-2.693.724c-.376.166-.42.724-.818.89s-1.216-.246-1.672-.261a7.89,7.89,0,0,0-6.456,2.772,16.46,16.46,0,0,0-2.258,4.473c-2.707,6.833-6.854,13.694-13.593,16.648,6.087,4.343,13.528,7.1,20.99,6.666a25.08,25.08,0,0,0,10.416-2.96c2.526-1.368,7.115-4.2,7.571-7.339.427-2.946-.97-7.462-1.9-10.242a21.6,21.6,0,0,0-6.1-9.518Z" transform="translate(-95.54 -90.579)" fill="#f2f1f7"/>
      <path id="Tracé_2785" data-name="Tracé 2785" d="M139.98,123.148a34.2,34.2,0,0,1-19.666-6.775.369.369,0,0,1-.145-.333.355.355,0,0,1,.21-.29c5.6-2.446,9.989-7.832,13.4-16.445l.152-.391a15.721,15.721,0,0,1,2.171-4.184,8.215,8.215,0,0,1,6.746-2.9,3.17,3.17,0,0,1,.724.145,2.244,2.244,0,0,0,.789.13c.08,0,.152-.159.232-.29a1.216,1.216,0,0,1,.55-.586c.181-.08.347-.166.507-.246a3.764,3.764,0,0,1,2.389-.528,7.5,7.5,0,0,1,3.677,1.962h0a22.062,22.062,0,0,1,6.2,9.677c1.028,3.069,2.338,7.477,1.911,10.416-.449,3.054-4.459,5.79-7.752,7.6a25.572,25.572,0,0,1-10.56,2.989Q140.761,123.148,139.98,123.148Zm-18.732-6.97c6.362,4.408,13.528,6.623,20.267,6.232a24.609,24.609,0,0,0,10.256-2.9c4.451-2.41,7.072-4.915,7.383-7.072.405-2.779-.876-7.086-1.875-10.075a21.338,21.338,0,0,0-6-9.366h0a6.768,6.768,0,0,0-3.3-1.788,3.018,3.018,0,0,0-1.969.463c-.166.08-.34.166-.528.246a.724.724,0,0,0-.224.3,1.216,1.216,0,0,1-.622.608,2.229,2.229,0,0,1-1.209-.116,3.561,3.561,0,0,0-.586-.123,7.513,7.513,0,0,0-6.189,2.6,14.831,14.831,0,0,0-2.041,3.988l-.159.391C131.077,108.078,126.756,113.507,121.248,116.178Z" transform="translate(-95.403 -90.437)" fill="#5c6f99"/>
      <path id="Tracé_2786" data-name="Tracé 2786" d="M140.2,125.256c1.2-1.267-3.149-.282-3.554,8.027-.311,6.341,1.737,16.7,1.737,16.7L124.76,161.374l8.418,2.4s15.352-11.161,15.345-11.979S140.2,125.256,140.2,125.256Z" transform="translate(-96.672 -99.928)" fill="#f2f1f7"/>
      <path id="Tracé_2787" data-name="Tracé 2787" d="M133.052,163.988a.218.218,0,0,1-.094,0l-8.418-2.4a.329.329,0,0,1-.116-.572l13.47-11.262c-.275-1.448-2-10.756-1.708-16.59.3-6.015,2.678-8.512,3.786-8.773a.5.5,0,0,1,.586.188.579.579,0,0,1-.116.644c1.513,4.669,8.251,25.659,8.288,26.455s-8.418,7.108-15.482,12.247A.333.333,0,0,1,133.052,163.988Zm-7.73-2.9,7.665,2.171c5.6-4.068,14.425-10.683,15.07-11.66-.224-1.223-5.067-16.358-8.3-26.4h0c-.847.63-2.649,2.787-2.9,7.962-.3,6.232,1.715,16.517,1.737,16.648a.34.34,0,0,1-.116.318Zm23.053-9.366Z" transform="translate(-96.546 -99.805)" fill="#1f4076"/>
      <path id="Tracé_2788" data-name="Tracé 2788" d="M168.866,115.9c-.5-.391-22.641.984-26.462,8.374s9.931,29.676,9.931,29.676l28-8.389S182.336,126.436,168.866,115.9Z" transform="translate(-101.36 -97.452)" fill="#f4e289" stroke="#5c6f99" stroke-width="1"/>
      <path id="Tracé_2800" data-name="Tracé 2800" d="M160.565,112.756l1.563,4.893s.08,2.439-3.438,2.722-4.734-1.8-4.734-1.8l-2.577-9.229s4.213-4.386,1.781-9.409a7.028,7.028,0,0,0,7.962,1.274,62.249,62.249,0,0,1,2.041,7.31C163.605,111.171,160.565,112.756,160.565,112.756Z" transform="translate(-104.024 -93.059)" fill="#f2f1f7"/>
      <path id="Tracé_2801" data-name="Tracé 2801" d="M157.913,120.622c-3.185,0-4.343-1.918-4.393-2a.439.439,0,0,1,0-.087l-2.584-9.221a.376.376,0,0,1,.087-.347c.043-.043,4.01-4.278,1.723-9a.362.362,0,0,1,.586-.405,6.63,6.63,0,0,0,7.557,1.194.34.34,0,0,1,.29,0,.318.318,0,0,1,.2.217,59.72,59.72,0,0,1,2.056,7.368c.4,2.418-1.752,3.981-2.526,4.459l1.448,4.618a.427.427,0,0,1,0,.094s.043,2.787-3.771,3.091Q158.239,120.622,157.913,120.622Zm-3.749-2.338c.174.261,1.354,1.831,4.343,1.592s3.1-1.99,3.105-2.3l-1.542-4.835a.362.362,0,0,1,.174-.434s2.8-1.5,2.41-3.858a57.266,57.266,0,0,0-1.9-6.876,7.238,7.238,0,0,1-6.941-.666c1.194,4.111-1.527,7.622-2.171,8.4Z" transform="translate(-103.898 -92.927)" fill="#1f4076"/>
      <path id="Tracé_2802" data-name="Tracé 2802" d="M151.835,111.45a2.309,2.309,0,0,0-1.1-.9,3.908,3.908,0,0,0-1.332-.2,1.535,1.535,0,0,0-.724.1,1.238,1.238,0,0,0-.405.318,1.665,1.665,0,0,0-.514,1.078,2,2,0,0,0,.261.948,3.93,3.93,0,0,0,.579.9,2.714,2.714,0,0,0,3.858.224" transform="translate(-103.024 -95.936)" fill="#f2f1f7"/>
      <path id="Tracé_2803" data-name="Tracé 2803" d="M150.482,114.862h-.174a3.083,3.083,0,0,1-2.171-1.042,4.342,4.342,0,0,1-.63-.984,2.432,2.432,0,0,1-.3-1.115,2.056,2.056,0,0,1,.608-1.317,1.737,1.737,0,0,1,.521-.405,2,2,0,0,1,.89-.13,4.19,4.19,0,0,1,1.448.217,2.627,2.627,0,0,1,1.274,1.05.355.355,0,0,1-.116.5.369.369,0,0,1-.5-.116,1.867,1.867,0,0,0-.912-.724,3.75,3.75,0,0,0-1.216-.174,1.267,1.267,0,0,0-.565.065,1.086,1.086,0,0,0-.3.239,1.4,1.4,0,0,0-.413.847,1.665,1.665,0,0,0,.224.774,3.619,3.619,0,0,0,.521.825,2.41,2.41,0,0,0,1.636.8,2.352,2.352,0,0,0,1.708-.6.362.362,0,0,1,.514,0,.355.355,0,0,1,0,.507A3.083,3.083,0,0,1,150.482,114.862Z" transform="translate(-102.872 -95.802)" fill="#1f4076"/>
      <path id="Tracé_2804" data-name="Tracé 2804" d="M160.24,106.85s2.613,1.9,2.374,2.483-1.448.724-1.448.724" transform="translate(-106.471 -94.97)" fill="#f2f1f7"/>
      <path id="Tracé_2805" data-name="Tracé 2805" d="M161.009,110.266a.362.362,0,1,1-.036-.724c.427-.043,1.071-.239,1.173-.485A9.684,9.684,0,0,0,159.894,107a.362.362,0,0,1-.08-.5.355.355,0,0,1,.507-.08c1.882,1.368,2.721,2.345,2.5,2.9-.311.724-1.527.9-1.766.926Z" transform="translate(-106.335 -94.832)" fill="#1f4076"/>
      <ellipse id="Ellipse_241" data-name="Ellipse 241" cx="0.442" cy="0.622" rx="0.442" ry="0.622" transform="translate(51.142 11.1) rotate(-32.47)" fill="#1f4076"/>
      <ellipse id="Ellipse_242" data-name="Ellipse 242" cx="0.442" cy="0.622" rx="0.442" ry="0.622" transform="translate(53.926 10.081) rotate(-32.47)" fill="#1f4076"/>
      <path id="Tracé_2806" data-name="Tracé 2806" d="M162.574,112s-3.5,3.713-5.334,0" transform="translate(-105.643 -96.392)" fill="#f2f1f7"/>
      <path id="Tracé_2807" data-name="Tracé 2807" d="M159.287,113.9a2.112,2.112,0,0,1-.369,0,2.9,2.9,0,0,1-2.171-1.824.369.369,0,0,1,.166-.485.362.362,0,0,1,.485.166,2.258,2.258,0,0,0,1.607,1.448c1.448.224,3.127-1.5,3.141-1.513a.362.362,0,0,1,.514,0,.369.369,0,0,1,0,.514C162.624,112.218,161.01,113.9,159.287,113.9Z" transform="translate(-105.497 -96.27)" fill="#1f4076"/>
      <path id="Tracé_2808" data-name="Tracé 2808" d="M162.565,117.65a10.892,10.892,0,0,1-3.945.413,6.281,6.281,0,0,0,4.835,2.548Z" transform="translate(-106.024 -97.953)" fill="#1f4076"/>
      <path id="Tracé_2809" data-name="Tracé 2809" d="M163.187,120.837a6.613,6.613,0,0,1-5-2.707.362.362,0,0,1,.384-.557,9.9,9.9,0,0,0,3.757-.4.362.362,0,0,1,.449.239l.89,2.953a.355.355,0,0,1-.051.318.369.369,0,0,1-.282.152Zm-3.836-2.461a5.79,5.79,0,0,0,3.482,1.723l-.644-2.171a12.248,12.248,0,0,1-2.83.42Z" transform="translate(-105.886 -97.817)" fill="#1f4076"/>
      <path id="Tracé_2810" data-name="Tracé 2810" d="M171.9,156.94s0,14.129-1.643,20.093c-4.676,16.908-38.818,43.921-38.818,43.921l-7.564-7.513,20.795-29.951-25.138,29.437-8.353-7.593L143.9,165.3Z" transform="translate(-92.921 -108.805)" fill="#1f4076"/>
      <path id="Tracé_2811" data-name="Tracé 2811" d="M131.31,221.178a.376.376,0,0,1-.253-.1l-7.564-7.484a.362.362,0,0,1-.043-.463l16.684-24.038L119.678,213.05a.347.347,0,0,1-.253.13.34.34,0,0,1-.261-.094l-8.353-7.593a.362.362,0,0,1,0-.5l32.68-40.034a.355.355,0,0,1,.174-.116l28-8.389a.384.384,0,0,1,.318.058.376.376,0,0,1,.145.29c0,.579,0,14.244-1.658,20.194-1.954,7.072-9.105,16.648-21.258,28.46-9.026,8.78-17.6,15.576-17.683,15.641A.369.369,0,0,1,131.31,221.178Zm-7.093-7.875,7.115,7.043c3.112-2.5,34.07-27.693,38.449-43.537,1.448-5.233,1.607-16.98,1.629-19.543l-27.432,8.266L111.55,205.218l7.824,7.115,24.892-29.155a.355.355,0,0,1,.492-.051.347.347,0,0,1,.072.485Z" transform="translate(-92.792 -108.667)" fill="#1f4076"/>
      <path id="Tracé_2812" data-name="Tracé 2812" d="M123.4,235l-5.429,6.029s-8.9-2.989-8.5-1.3,11.972,11.1,12.558,11.291,8.939-8.534,8.939-8.534" transform="translate(-92.444 -130.364)" fill="#f2f1f7"/>
      <path id="Tracé_2813" data-name="Tracé 2813" d="M121.879,251.272h-.1c-.724-.239-12.37-9.721-12.8-11.581a.673.673,0,0,1,.2-.68c.992-.9,6.514.818,8.548,1.448l5.269-5.848a.362.362,0,0,1,.536.485l-5.429,6.022a.362.362,0,0,1-.384.1c-3.938-1.325-7.629-2.1-8.056-1.708.362,1.448,10.958,10.133,12.269,10.973.847-.478,5.009-4.611,8.635-8.4a.355.355,0,0,1,.507,0,.362.362,0,0,1,0,.514C123.5,250.563,122.248,251.272,121.879,251.272Z" transform="translate(-92.307 -130.228)" fill="#1f4076"/>
      <path id="Tracé_2814" data-name="Tracé 2814" d="M140.256,217.123a.319.319,0,0,1-.21-.565c.282-.239,28.127-24.009,33.664-37.421,5.486-13.282,2.6-18.58,2.57-18.631a.321.321,0,0,1,.557-.318c.123.217,3.1,5.566-2.533,19.2s-33.563,37.421-33.845,37.638a.311.311,0,0,1-.2.1Z" transform="translate(-100.862 -109.657)" fill="#f2f1f7"/>
      <path id="Tracé_2815" data-name="Tracé 2815" d="M160.121,174.73a.333.333,0,0,1-.217-.087.311.311,0,0,1,0-.449l7.006-7.643a.326.326,0,0,1,.355-.08.318.318,0,0,1,.2.3v5.689a.318.318,0,1,1-.637,0v-4.886l-6.456,7.035A.34.34,0,0,1,160.121,174.73Z" transform="translate(-106.352 -111.431)" fill="#f2f1f7"/>
      <path id="Tracé_2816" data-name="Tracé 2816" d="M140.677,179.076l9.315-10.546h-23.1l-12.4,12.29Z" transform="translate(-93.835 -112.006)" fill="#f2f1f7"/>
      <path id="Tracé_2817" data-name="Tracé 2817" d="M114.363,181.053a.332.332,0,0,1-.239-.565l12.406-12.3a.347.347,0,0,1,.232-.094h23.1a.326.326,0,0,1,.3.2.355.355,0,0,1-.051.355l-9.33,10.539a.333.333,0,0,1-.224.109l-26.18,1.766Zm12.536-12.3L115.224,180.33l25.167-1.672,8.744-9.909Zm13.651,10.22Z" transform="translate(-93.708 -111.884)" fill="#5c6f99"/>
      <path id="Tracé_2818" data-name="Tracé 2818" d="M165.714,119.752s5.689,22.836,4.111,23.56-21.294,7.021-22.387,7.5-3.749,2.4-4.234,3.445-.926,5.175,0,4.907a34.3,34.3,0,0,0,4-1.194c.724-.376,1.773-2.555,1.773-2.555s-.13,2.106.861,1.658,2.758-2.816,2.758-2.816,24.863-.847,27.28-5.834,1.093-15.757-2.9-23.987S166.068,114.714,165.714,119.752Z" transform="translate(-101.616 -97.732)" fill="#f2f1f7"/>
      <path id="Tracé_2819" data-name="Tracé 2819" d="M143,159.379a.594.594,0,0,1-.456-.224c-.673-.789-.174-4.292.239-5.175.528-1.136,3.235-3.083,4.4-3.619.492-.217,4.466-1.52,9.077-3.033,5.79-1.9,12.435-4.068,13.3-4.473.724-.861-1.629-12.464-4.3-23.162a.552.552,0,0,1,0-.109c.123-1.73,1.006-2.9,2.425-3.149,2.606-.5,6.681,1.983,9.46,7.709,4.046,8.338,5.349,19.232,2.9,24.276s-25.08,5.921-27.4,6.008a11.5,11.5,0,0,1-2.794,2.8.789.789,0,0,1-.8-.036,1.274,1.274,0,0,1-.442-.767,4.813,4.813,0,0,1-1.375,1.694,20.9,20.9,0,0,1-3.091.955c-.384.1-.724.188-.963.261a.723.723,0,0,1-.174.043Zm22.923-39.809c.145.586,1.484,6.015,2.635,11.465,2.5,11.849,1.715,12.218,1.288,12.413-.9.42-7.535,2.591-13.383,4.5-4.4,1.448-8.555,2.8-9.011,3a12.651,12.651,0,0,0-4.075,3.279c-.456.9-.724,4.133-.326,4.473a5.507,5.507,0,0,1,.919-.282,22.242,22.242,0,0,0,2.953-.9,7.478,7.478,0,0,0,1.621-2.41.333.333,0,0,1,.63.159,2.258,2.258,0,0,0,.246,1.368h.159a11.887,11.887,0,0,0,2.627-2.721.318.318,0,0,1,.253-.13c.058,0,6.275-.217,12.7-1.042,10.625-1.361,13.637-3.257,14.288-4.6,2.367-4.886,1.064-15.518-2.9-23.7-2.606-5.356-6.449-7.781-8.736-7.339a2.41,2.41,0,0,0-1.875,2.5Z" transform="translate(-101.493 -97.6)" fill="#1f4076"/>
      <path id="Tracé_2820" data-name="Tracé 2820" d="M135.6,175.367C134.712,174.1,123.2,155.1,123.2,155.1L96.09,157.764l13.318,19.362Z" transform="translate(-88.753 -108.296)" fill="#f2f1f7"/>
      <path id="Tracé_2821" data-name="Tracé 2821" d="M109.29,177.329a.34.34,0,0,1-.275-.145L95.7,157.786a.333.333,0,0,1,0-.326.34.34,0,0,1,.268-.2l27.107-2.656a.326.326,0,0,1,.318.152c.116.2,11.516,19.022,12.377,20.267a.326.326,0,0,1,0,.333.333.333,0,0,1-.275.188l-26.187,1.781ZM96.565,157.888l12.884,18.747,25.442-1.694c-1.925-3.04-10.857-17.733-11.986-19.644Z" transform="translate(-88.635 -108.16)" fill="#5c6f99"/>
      <path id="Tracé_2822" data-name="Tracé 2822" d="M125.446,170.646a5.79,5.79,0,0,0-1.817-2.215,3.322,3.322,0,0,0-1.686-.724,1.788,1.788,0,0,0-1.614.724,2.171,2.171,0,0,0-.268,1.4,3.974,3.974,0,0,0,1.643,2.9C123.362,173.845,126.662,173.229,125.446,170.646Z" transform="translate(-95.368 -111.776)" fill="#f2f1f7"/>
      <path id="Tracé_2823" data-name="Tracé 2823" d="M123.446,173.467a3.684,3.684,0,0,1-2.048-.594,4.234,4.234,0,0,1-1.788-3.112,2.425,2.425,0,0,1,.318-1.614,2.114,2.114,0,0,1,1.918-.861,3.619,3.619,0,0,1,1.86.76,6.174,6.174,0,0,1,1.911,2.338h0a1.914,1.914,0,0,1-.311,2.5A2.9,2.9,0,0,1,123.446,173.467Zm-1.773-5.53a1.448,1.448,0,0,0-1.194.572,1.846,1.846,0,0,0-.217,1.187,3.619,3.619,0,0,0,1.506,2.635,2.9,2.9,0,0,0,3.112.051c.449-.384.492-.963.145-1.715a5.508,5.508,0,0,0-1.715-2.085,2.9,2.9,0,0,0-1.513-.637Z" transform="translate(-95.242 -111.659)" fill="#5c6f99"/>
      <path id="Tracé_2824" data-name="Tracé 2824" d="M122.76,170.3a15.728,15.728,0,0,1,.869,1.354l.579-1.354" transform="translate(-96.12 -112.494)" fill="#f2f1f7"/>
      <path id="Tracé_2825" data-name="Tracé 2825" d="M123.544,171.859a.326.326,0,0,1-.282-.166c-.311-.521-.724-1.136-.8-1.267a.34.34,0,0,1-.116-.261.326.326,0,0,1,.326-.326c.188,0,.239,0,.818.963l.326-.724a.329.329,0,1,1,.608.253l-.579,1.361a.347.347,0,0,1-.282.2Z" transform="translate(-96.006 -112.367)" fill="#5c6f99"/>
    </g>
  </g>
</svg>
