<svg xmlns="http://www.w3.org/2000/svg" width="176.38" height="128.212" viewBox="0 0 176.38 128.212">
  <g id="_395_dream_flatline" data-name="#395_dream_flatline" transform="translate(-55.502 -53.079)">
    <path id="Tracé_2010" data-name="Tracé 2010" d="M91.951,142.561a2.142,2.142,0,0,1-.94-.22c-17.734-8.72-38.256-20.937-35.2-29.6,1.324-3.82,6.462-5.62,15.708-5.492,7.878.092,18.7,1.6,31.305,4.357a2.136,2.136,0,1,1-.915,4.168c-29.066-6.359-41.075-4.449-42.058-1.611s7.048,11.595,33.075,24.367a2.136,2.136,0,0,1-.94,4.058Z" transform="translate(0 -21.097)" fill="#1f4076"/>
    <path id="Tracé_2011" data-name="Tracé 2011" d="M298.806,202.675c-8.83,0-20.1-1.831-30.176-3.991a2.137,2.137,0,0,1,.891-4.18c27.925,5.938,39.483,4,40.435,1.257s-7.128-11.656-33.435-24.532a2.137,2.137,0,0,1,1.88-3.838c17.911,8.769,38.616,21.035,35.6,29.768C312.585,201.2,306.641,202.675,298.806,202.675Z" transform="translate(-82.409 -44.457)" fill="#1f4076"/>
    <path id="Tracé_2012" data-name="Tracé 2012" d="M142.839,91c.153.354.189,7.323.189,7.323s-9-1.025-9.526-.879-10.685,5.779-8.312,6.6,8.641-1.324,8.641-1.324,18.7,6.047,22.286,3.753-1.965-14.865-1.965-14.865Z" transform="translate(-27.022 -14.768)" fill="#f3f2f8"/>
    <path id="Tracé_2013" data-name="Tracé 2013" d="M153.036,107.178c-6.017,0-17.447-3.576-19.528-4.235-.989.323-6.481,2.075-8.794,1.269a.867.867,0,0,1-.665-.867c.067-2.032,8.916-6.591,9.007-6.615.507-.14,5.755.427,9.154.812,0-3.051-.079-6.328-.165-6.713a.421.421,0,0,1,.055-.421.445.445,0,0,1,.409-.171l11.314.61a.458.458,0,0,1,.391.275,52.688,52.688,0,0,1,2.349,6.633c1.306,4.766,1.123,7.726-.555,8.794a5.871,5.871,0,0,1-2.972.629ZM133.509,102a.36.36,0,0,1,.14,0c5.144,1.66,19.107,5.584,21.9,3.8,2.606-1.666-.482-10.453-2.026-14.036l-10.5-.61c.079,1.068.122,3.362.14,6.853a.458.458,0,0,1-.153.342.427.427,0,0,1-.354.116c-3.344-.378-8.842-.958-9.386-.891-.976.354-8.049,4.534-8.3,5.706h.043c1.831.61,6.639-.738,8.348-1.324a.391.391,0,0,1,.165.018Z" transform="translate(-26.717 -14.47)" fill="#5c6f99"/>
    <path id="Tracé_2014" data-name="Tracé 2014" d="M218.246,136.152a51.639,51.639,0,0,1-89.59,35.064h0a49.042,49.042,0,0,1-3.356-4.009,51.69,51.69,0,1,1,92.97-31.055Z" transform="translate(-23.183 -12.26)" fill="#f3f2f8"/>
    <path id="Tracé_2015" data-name="Tracé 2015" d="M165.908,83.8A51.66,51.66,0,1,1,128,170.528h0a49.039,49.039,0,0,1-3.356-4.009A51.651,51.651,0,0,1,165.908,83.8m0-1A52.664,52.664,0,0,0,123.8,167.1a48.212,48.212,0,0,0,3.381,4.046.238.238,0,0,0,.049.061h0A52.668,52.668,0,1,0,165.914,82.8Z" transform="translate(-22.502 -11.572)" fill="#1f4076"/>
    <path id="Tracé_2016" data-name="Tracé 2016" d="M232.822,163.4a51.669,51.669,0,0,1-80.442,42.906,22.994,22.994,0,0,0,9.154-4.424c1.526-1.22,2.947-2.691,4.772-3.417,5.059-2.014,10.417,2.282,15.866,2.441,4.632.116,8.861-2.874,11.65-6.585s4.436-8.11,6.432-12.29c1.22-2.587,2.978-5.388,5.8-5.871s5.675,3.515,3.411,5.266c1.678,1.52,4.345-.061,5.712-1.861,3.253-4.272,4.369-9.764,6.444-14.713,1.977-4.717,5.492-9.447,10.453-10.374a51.987,51.987,0,0,1,.744,8.922Z" transform="translate(-37.759 -39.51)" fill="#f3f3f8" stroke="#1f4076" stroke-width="1"/>
    <path id="Tracé_2017" data-name="Tracé 2017" d="M143.063,148.809c-1.9,4.729,3.051,10,1.654,14.914-.976,3.472-4.7,5.334-8.159,6.383a54.715,54.715,0,0,1-11.314,2.191A51.669,51.669,0,0,1,138.865,97.61a12.3,12.3,0,0,1,4.375,8.458,20.774,20.774,0,0,1-2.661,11.344c-1.684,3.253-3.924,6.31-4.693,9.892s.537,8.012,3.991,9.239c2.569.909,6.1.085,7.561,2.374,1.044,1.617.256,3.8-.915,5.315S143.783,147.027,143.063,148.809Z" transform="translate(-23.139 -17.344)" fill="#f3f3f8" stroke="#1f4076" stroke-width="1"/>
    <path id="Tracé_2018" data-name="Tracé 2018" d="M245.548,137.305c-2.148.488-4.339.848-6.469,1.422-3.765,1.013-7.61,2.941-9.349,6.432-1.22,2.441-1.452,5.614-3.747,7.079-1.831,1.172-4.223.708-6.389.934-4.107.427-7.482,3.417-10.075,6.633s-4.772,6.841-7.988,9.428-7.933,3.918-11.491,1.794a23.1,23.1,0,0,0,14.994-13.242c1.623-3.924,2.545-8.787,6.365-10.649,2.441-1.22,5.553-.757,7.817-2.294,4.272-2.9,2.4-10.148,5.895-13.95a12.4,12.4,0,0,1,5.15-2.838c2.325-.83,5.724-2.526,9.324-4.064a51.456,51.456,0,0,1,5.962,13.315Z" transform="translate(-52.437 -27.626)" fill="#f3f3f8" stroke="#1f4076" stroke-width="1"/>
    <path id="Tracé_2019" data-name="Tracé 2019" d="M224.459,100.667a33.906,33.906,0,0,1-7.018,4.882c-8.037,4.15-18.5,5.645-22.89,13.553-2.1,3.79-2.288,8.366-4.083,12.309s-6.566,7.323-10.307,5.12c-3.2-1.867-3.411-6.438-2.484-10.026s2.606-7.219,1.8-10.838c-.61-2.825-2.685-5.083-4.51-7.323-3.32-4.095-6.157-8.714-7.323-13.852a21.311,21.311,0,0,1-.519-6.066,51.688,51.688,0,0,1,57.363,12.266Z" transform="translate(-43.493 -12.23)" fill="#f3f3f8" stroke="#1f4076" stroke-width="1"/>
    <path id="Tracé_2020" data-name="Tracé 2020" d="M163.79,96.54s7.536,12.162,3.192,14.689-31.427,4.565-31.427,4.565-5.492,7.512-6.8,4.565,6.011-10.984,6.011-10.984l16.068-2.99-6.621-7.5Z" transform="translate(-28.487 -16.927)" fill="#f3f2f8"/>
    <path id="Tracé_2021" data-name="Tracé 2021" d="M129.428,121.209h-.153a1.465,1.465,0,0,1-1.22-.946c-1.422-3.137,5.321-10.667,6.1-11.515a.464.464,0,0,1,.256-.14l15.256-2.838-6.1-6.9a.458.458,0,0,1,.287-.757L163.412,95.8a.464.464,0,0,1,.445.214c.226.366,5.541,9.019,4.461,13.34a3.051,3.051,0,0,1-1.428,1.989c-4.229,2.441-28.681,4.4-31.391,4.613C134.657,117.157,131.484,121.209,129.428,121.209Zm5.3-11.735c-2.044,2.276-6.8,8.25-5.828,10.374.159.342.33.4.47.415,1.275.128,4.076-3.051,5.553-5.053a.452.452,0,0,1,.336-.189c.269,0,27-2.063,31.2-4.5a2.111,2.111,0,0,0,1-1.416c.891-3.57-3.338-10.942-4.2-12.388l-18.4,2.179,6.041,6.847a.452.452,0,0,1,.092.452.464.464,0,0,1-.354.3Z" transform="translate(-28.201 -16.637)" fill="#5c6f99"/>
    <path id="Tracé_2022" data-name="Tracé 2022" d="M245.764,81.02c-.207.83,4.07,5.065,2.24,14.322,0,0,3.979,2.984,2.343,4.748s-35.162,2.264-36.383.61c-1.379-1.831,3.179-6.755,3.179-6.755s-2.179-23.5.384-24.7,31.464.4,31.434,2.118-4.028,3.344-3.845,4.748S245.764,81.02,245.764,81.02Z" transform="translate(-61.66 -6.125)" fill="#f3f2f8"/>
    <path id="Tracé_2023" data-name="Tracé 2023" d="M227.443,101.868c-3.277,0-6.285-.061-8.543-.183-5.077-.275-5.419-.738-5.608-.989-1.465-1.965,2.191-6.218,3.051-7.195-.531-5.81-1.953-23.72.665-24.953,2.807-1.312,29.163.262,31.69,1.9a.732.732,0,0,1,.4.61c0,1.1-1.147,2.014-2.24,2.9-.738.61-1.66,1.349-1.6,1.782.183,1.4.647,4.882.647,4.882a.494.494,0,0,1,0,.134,5.456,5.456,0,0,0,.415.9c1.043,2,3.192,6.1,1.873,13.163.683.555,2.539,2.185,2.679,3.759a1.886,1.886,0,0,1-.506,1.489C249.265,101.312,237.188,101.868,227.443,101.868Zm-4.479-32.91a20.759,20.759,0,0,0-5.535.421c-1.117.525-1.465,9.764-.122,24.245a.452.452,0,0,1-.122.354c-1.782,1.922-3.936,5.1-3.143,6.17,1.892,1.5,33.923.915,35.675-.671a.94.94,0,0,0,.262-.781c-.1-1.22-1.873-2.777-2.545-3.283a.464.464,0,0,1-.177-.452c1.367-6.908-.72-10.917-1.727-12.815a3.008,3.008,0,0,1-.525-1.4c-.061-.482-.47-3.539-.61-4.827-.128-.94.879-1.757,1.941-2.618.83-.677,1.77-1.434,1.886-2.081C246.647,70.111,231.483,68.957,222.964,68.957ZM245.933,80.839Z" transform="translate(-61.366 -5.827)" fill="#5c6f99"/>
    <path id="Tracé_2024" data-name="Tracé 2024" d="M221.42,115.961a4.32,4.32,0,0,0-1.629.708c-.159.11-.323.275-.293.47.1.7,1.947,1.1,2.5,1.178a76.128,76.128,0,0,0,12.144.348,83.364,83.364,0,0,0,12.388-1.037c1.471-.238,1.556-1.4,0-1.654a61.675,61.675,0,0,0-7.408-.421c-2.648-.128-5.285-.171-7.933-.11q-3.118.067-6.243.244A21.675,21.675,0,0,0,221.42,115.961Z" transform="translate(-63.917 -24.284)" fill="#5c6f99"/>
    <path id="Tracé_2025" data-name="Tracé 2025" d="M224.978,95.485a5.218,5.218,0,0,1-2.331-.531,9.727,9.727,0,0,1-5.529-9.038c.122-2.832,2.667-5.242,4.827-6.835,4.967-3.661,12.626-4.131,17.5,0,1.764,1.477,3.661,2.74,4.064,5.187a6.1,6.1,0,0,1-1.446,4.992c-1.471,1.642-3.7,2.343-5.871,2.752a26.323,26.323,0,0,0-6.4,1.544C227.962,94.405,226.662,95.449,224.978,95.485Z" transform="translate(-62.99 -8.983)" fill="#5c6f99"/>
    <path id="Tracé_2026" data-name="Tracé 2026" d="M224.565,95.623a5.748,5.748,0,0,1-2.441-.61,10.142,10.142,0,0,1-5.8-9.471c.1-2.4,1.788-4.815,5.016-7.189,5.492-4.04,13.267-4.046,18.069,0l.61.507c1.574,1.288,3.2,2.624,3.607,4.955a6.536,6.536,0,0,1-1.556,5.413c-1.678,1.867-4.272,2.545-6.1,2.893-.494.1-.989.177-1.483.262a18.655,18.655,0,0,0-4.809,1.22c-.513.238-.982.488-1.434.732a7.733,7.733,0,0,1-3.57,1.22h-.122Zm6.1-19.314a14.878,14.878,0,0,0-8.763,2.819c-2.99,2.2-4.552,4.375-4.644,6.481a9.209,9.209,0,0,0,5.266,8.6,4.766,4.766,0,0,0,2.124.494h0a6.8,6.8,0,0,0,3.155-1.135c.47-.25.952-.507,1.483-.757a19.863,19.863,0,0,1,5.047-1.318c.488-.079.976-.159,1.458-.25,1.831-.354,4.137-.964,5.614-2.612a5.645,5.645,0,0,0,1.33-4.644c-.342-1.989-1.77-3.161-3.283-4.4l-.61-.513a12.705,12.705,0,0,0-8.165-2.764Z" transform="translate(-62.681 -8.657)" fill="#5c6f99"/>
    <path id="Tracé_2027" data-name="Tracé 2027" d="M193.483,62.5s-8.086-8.208-24.275-8.6S138,64.548,142.528,76.375c3.332,8.69,7.829,10.691,7.829,10.691l20.87-4.54L170.2,79.585s15.683,4.144,20.065,0S201.08,68.46,193.483,62.5Z" transform="translate(-33.6 -0.301)" fill="#fce15c" stroke="#5c6f99" stroke-width="1"/>
    <path id="Tracé_2028" data-name="Tracé 2028" d="M223.714,86.983l-5.157.128s-1.507-.726-.262-4.943S221.511,78,221.511,78h9.642c.507,0,5.492.305,9.9.281,0,5.15.384,9.764.384,9.764-.494-.507-.61,1.324-.61,1.318a7.622,7.622,0,0,1-.4,2.441c-2.966.256-11.2,1.642-12.913,1.263C224.257,92.3,223.714,86.983,223.714,86.983Z" transform="translate(-63.258 -9.701)" fill="#f3f2f8"/>
    <path id="Tracé_2029" data-name="Tracé 2029" d="M228.134,93.241a4.986,4.986,0,0,1-.964-.073c-3.051-.671-3.887-4.729-4.089-6.023l-4.784.122a.476.476,0,0,1-.189-.043c-.189-.092-1.788-1.007-.482-5.443s3.527-4.461,3.661-4.461H231c1.672.092,5.956.293,9.819.281h0a.427.427,0,0,1,.3.122.4.4,0,0,1,.122.293c0,5.071.378,9.672.378,9.715a.409.409,0,0,1-.452.452,4.5,4.5,0,0,0-.14.921,8.14,8.14,0,0,1-.433,2.557.427.427,0,0,1-.354.275c-.946.079-2.478.281-4.095.5A78.894,78.894,0,0,1,228.134,93.241Zm-4.687-6.963a.415.415,0,0,1,.415.378c0,.049.555,5.022,3.491,5.675,1.092.238,5.492-.342,8.653-.763,1.483-.2,2.886-.391,3.857-.482a7.494,7.494,0,0,0,.293-2.05h0c0-.4.11-1.458.549-1.733h0c-.092-1.22-.323-4.882-.348-8.9-3.759,0-7.829-.2-9.447-.281h-9.685s-1.7.073-2.813,3.863c-.952,3.222-.232,4.2,0,4.406l5.016-.128Z" transform="translate(-62.991 -9.436)" fill="#5c6f99"/>
    <path id="Tracé_2030" data-name="Tracé 2030" d="M240.314,91.561c-.989.537-2.16,1.074-2.441.775-.574-.543-.171-2.026-.171-2.026" transform="translate(-70.96 -14.499)" fill="#f3f2f8"/>
    <path id="Tracé_2031" data-name="Tracé 2031" d="M237.788,92.615a.806.806,0,0,1-.58-.214c-.738-.7-.378-2.191-.3-2.484a.464.464,0,0,1,.891.244,2.368,2.368,0,0,0,0,1.532h0a5.284,5.284,0,0,0,1.971-.806.458.458,0,0,1,.61.183.464.464,0,0,1-.183.61A5.655,5.655,0,0,1,237.788,92.615Z" transform="translate(-70.644 -14.229)" fill="#5c6f99"/>
    <path id="Tracé_2032" data-name="Tracé 2032" d="M220.646,72.5a5.3,5.3,0,0,1-1.971-1.654,11.143,11.143,0,0,1-1.977-4.577,10.423,10.423,0,0,1,.3-6.243c.763-1.831,2.655-3.722,4.754-3.265a64.234,64.234,0,0,1,6.847,2.27c6.871,2.374,17.514,3.661,18.979,12.266,1.1,6.469-.507,10.649-3.881,13.23-4.119,3.149-9.611,1.922-6.89-4.089a6.017,6.017,0,0,1,4.028-3.32,10.557,10.557,0,0,1-4.467-3.442,6.676,6.676,0,0,0-1.269-1.471c-2.508-1.831-6.151-.958-8.91-.33C223.948,72.394,222.3,73.218,220.646,72.5Z" transform="translate(-62.698 -1.398)" fill="#5c6f99"/>
    <path id="Tracé_2033" data-name="Tracé 2033" d="M238.941,86.38a3.912,3.912,0,0,1-2.441-.769c-.806-.647-1.934-2.233-.384-5.657a6.536,6.536,0,0,1,3.228-3.2,10.9,10.9,0,0,1-3.637-3.088l-.226-.305a4.626,4.626,0,0,0-.946-1.068c-2.313-1.666-5.706-.9-8.44-.275h-.1c-.525.116-1.019.256-1.489.384-1.568.439-2.923.818-4.333.207h0a5.743,5.743,0,0,1-2.148-1.794,11.326,11.326,0,0,1-2.069-4.766,10.8,10.8,0,0,1,.323-6.511c.9-2.136,3-4.034,5.279-3.533a38.867,38.867,0,0,1,5.041,1.611c.61.232,1.22.458,1.831.671,1.22.415,2.533.8,3.936,1.22,6.6,1.91,14.09,4.083,15.341,11.418,1.062,6.2-.305,10.8-4.058,13.669A8.086,8.086,0,0,1,238.941,86.38Zm-8.025-16.013a6.939,6.939,0,0,1,4.156,1.172,5.413,5.413,0,0,1,1.153,1.275l.214.293a10.063,10.063,0,0,0,4.272,3.289.464.464,0,0,1-.067.873,5.578,5.578,0,0,0-3.722,3.051c-.958,2.118-.915,3.735.122,4.559,1.324,1.05,3.936.61,6.072-1.019,3.509-2.685,4.723-6.871,3.71-12.815-1.159-6.768-8.348-8.849-14.695-10.691-1.41-.409-2.746-.793-3.985-1.22-.61-.214-1.22-.445-1.873-.677a38.28,38.28,0,0,0-4.931-1.538c-1.758-.391-3.491,1.251-4.229,2.99a9.943,9.943,0,0,0-.275,5.968,10.551,10.551,0,0,0,1.892,4.388,4.882,4.882,0,0,0,1.794,1.52h0c1.111.482,2.264.159,3.722-.25.482-.134.989-.275,1.532-.4h.1a23.3,23.3,0,0,1,5.034-.769Z" transform="translate(-62.405 -1.098)" fill="#5c6f99"/>
    <path id="Tracé_2034" data-name="Tracé 2034" d="M235.242,93.338a.464.464,0,0,1-.275-.092,5.179,5.179,0,0,1-2.05-3.509,4.565,4.565,0,0,1,1.794-3.582.458.458,0,0,1,.61.683,3.681,3.681,0,0,0-1.489,2.844,4.388,4.388,0,0,0,1.678,2.825.458.458,0,0,1-.268.83Z" transform="translate(-69.147 -12.834)" fill="#5c6f99"/>
    <path id="Tracé_2035" data-name="Tracé 2035" d="M225.779,89.7s0-3.442,1.22-4.723a17.426,17.426,0,0,0-3.9,4.882Z" transform="translate(-65.323 -12.422)" fill="#5c6f99"/>
    <path id="Tracé_2036" data-name="Tracé 2036" d="M222.777,90.031a.458.458,0,0,1-.391-.22.446.446,0,0,1,0-.476,18.6,18.6,0,0,1,4.021-5.022.452.452,0,0,1,.61.067.458.458,0,0,1,0,.61c-.879.946-1.08,3.5-1.08,4.412a.458.458,0,0,1-.433.452l-2.7.171Zm2.7-.61Zm-.171-2.655a26.478,26.478,0,0,0-1.672,2.307l1.4-.085a14.034,14.034,0,0,1,.275-2.233Z" transform="translate(-65.017 -12.127)" fill="#5c6f99"/>
    <path id="Tracé_2037" data-name="Tracé 2037" d="M244.27,96.915a.452.452,0,0,1-.384-.207.458.458,0,0,1,.128-.61h0c.128-.079.482-.384.47-.677s-.275-.507-.751-.775a.458.458,0,0,1-.177-.61.464.464,0,0,1,.61-.177c.787.439,1.22.958,1.22,1.544a1.886,1.886,0,0,1-.879,1.477A.476.476,0,0,1,244.27,96.915Z" transform="translate(-73.275 -15.862)" fill="#5c6f99"/>
    <path id="Tracé_2038" data-name="Tracé 2038" d="M244.393,88.014a.452.452,0,0,1-.384-.207.458.458,0,0,1,.128-.61c.128-.085.482-.384.47-.677s-.275-.513-.744-.775a.452.452,0,0,1-.177-.61.458.458,0,0,1,.61-.177c.787.439,1.22.958,1.22,1.544a1.9,1.9,0,0,1-.879,1.477A.476.476,0,0,1,244.393,88.014Z" transform="translate(-73.324 -12.392)" fill="#5c6f99"/>
    <path id="Tracé_2039" data-name="Tracé 2039" d="M232.423,93.692a.519.519,0,0,0-.384-.1c-2.587.043-5.291.409-7.665-.61l1.5-.989c.372-.244.787-.677.549-1.05s-.61-.244-.958-.153a26.347,26.347,0,0,0-4.32,1.4v-.049s-11.888-2.111-15.543-6.1c-1.751-1.928-2.111-4.882-2.2-7.323s1.22-5.114-.61-7.2a5.291,5.291,0,0,0-6.054-.928c-1.989,1.031-3.094,3.716-3.509,5.779a23.616,23.616,0,0,0,.751,11.082,12.614,12.614,0,0,0,5.492,7.408c6.267,3.759,18.57,3.094,22.054,2.813a7.213,7.213,0,0,0,2.612.348,12.555,12.555,0,0,0,6.67-1.532,3.171,3.171,0,0,0,1.727-2.4A.439.439,0,0,0,232.423,93.692Z" transform="translate(-53.549 -6.598)" fill="#f3f2f8"/>
    <path id="Tracé_2040" data-name="Tracé 2040" d="M223.667,98.1a7.506,7.506,0,0,1-2.508-.348c-3.747.3-15.921.9-22.219-2.88a12.98,12.98,0,0,1-5.651-7.677,23.97,23.97,0,0,1-.763-11.3c.22-1.086,1.141-4.748,3.747-6.1,1.91-.989,5.022-.806,6.615,1.037,1.385,1.6,1.135,3.46.9,5.26a12.851,12.851,0,0,0-.177,2.221c.079,2.313.4,5.205,2.081,7.06,3.369,3.7,14.274,5.791,15.213,5.968a24.232,24.232,0,0,1,3.661-1.22l.519-.14c.915-.25,1.312.11,1.465.348.342.525.073,1.19-.677,1.684l-.738.482a16.544,16.544,0,0,0,5.138.33c.5,0,1-.043,1.5-.049a.97.97,0,0,1,.732.244.928.928,0,0,1,.22.671,3.642,3.642,0,0,1-1.953,2.777,13.345,13.345,0,0,1-6.9,1.6Zm-2.441-1.269a.494.494,0,0,1,.165,0,6.865,6.865,0,0,0,2.441.317,12.4,12.4,0,0,0,6.426-1.465,2.848,2.848,0,0,0,1.513-2h0l-1.477.049a14.379,14.379,0,0,1-6.377-.7.458.458,0,0,1-.275-.384.452.452,0,0,1,.207-.421l1.5-.989a.952.952,0,0,0,.415-.433h-.079a1.428,1.428,0,0,0-.378.055l-.519.14a22.224,22.224,0,0,0-3.71,1.22.476.476,0,0,1-.4,0l-.073-.043c-1.556-.293-12.107-2.374-15.622-6.237-1.892-2.069-2.233-5.175-2.325-7.64a14.78,14.78,0,0,1,.183-2.38c.226-1.672.439-3.253-.677-4.54-1.288-1.5-3.93-1.629-5.492-.818-1.782.921-2.856,3.423-3.271,5.492a23.061,23.061,0,0,0,.744,10.856,12.1,12.1,0,0,0,5.242,7.183c6.1,3.661,18.222,3.051,21.78,2.746Z" transform="translate(-53.27 -6.27)" fill="#5c6f99"/>
    <path id="Tracé_2041" data-name="Tracé 2041" d="M164.782,111.543a.464.464,0,0,1-.134-.9,62.443,62.443,0,0,1,8.305-1.971.452.452,0,0,1,.494.415.458.458,0,0,1-.415.5,61.479,61.479,0,0,0-8.122,1.934A.317.317,0,0,1,164.782,111.543Z" transform="translate(-42.417 -21.654)" fill="#5c6f99"/>
    <path id="Tracé_2042" data-name="Tracé 2042" d="M186.767,88.157a.464.464,0,0,1-.439-.323c-.122-.391-2.972-9.648-1.861-12.876a.47.47,0,0,1,.61-.287.458.458,0,0,1,.281.61c-1.013,2.947,1.831,12.2,1.873,12.309a.464.464,0,0,1-.305.574A.507.507,0,0,1,186.767,88.157Z" transform="translate(-50.165 -8.392)" fill="#1f4076"/>
    <path id="Tracé_2043" data-name="Tracé 2043" d="M208.588,195.2a2.265,2.265,0,0,1-.445-.049,418.472,418.472,0,0,1-48.819-13.92,419.662,419.662,0,0,1-46.378-19.064,2.137,2.137,0,1,1,1.88-3.838,415.575,415.575,0,0,0,45.9,18.869A413.26,413.26,0,0,0,209.034,191a2.136,2.136,0,0,1-.446,4.229Z" transform="translate(-21.922 -40.926)" fill="#1f4076"/>
    <path id="Tracé_2044" data-name="Tracé 2044" d="M137.6,226.19c-.073.073-.146.146-.214.226h0Z" transform="translate(-31.916 -67.459)" fill="#e6e7e8"/>
    <path id="Tracé_2045" data-name="Tracé 2045" d="M83.476,198.367,77.826,196l-5.15,3.314.507-6.1-4.742-3.875,5.956-1.41,2.227-5.706,3.179,5.236,6.109.348-3.991,4.638Z" transform="translate(-5.043 -50.322)" fill="#fce15c"/>
    <path id="Tracé_2046" data-name="Tracé 2046" d="M72.5,199.413a.275.275,0,0,1-.275-.3l.494-5.956-4.632-3.79a.268.268,0,0,1-.092-.275.281.281,0,0,1,.2-.2l5.822-1.373,2.166-5.572a.281.281,0,0,1,.494-.049l3.106,5.114,5.968.342a.287.287,0,0,1,.238.165.275.275,0,0,1-.043.287l-3.918,4.534,1.52,5.785a.262.262,0,0,1-.085.275.287.287,0,0,1-.287.049l-5.492-2.313-5.034,3.234A.256.256,0,0,1,72.5,199.413ZM68.867,189.3l4.308,3.527a.269.269,0,0,1,.1.232l-.464,5.547,4.687-3.008a.275.275,0,0,1,.256,0l5.132,2.148-1.416-5.382a.287.287,0,0,1,.055-.25l3.631-4.217-5.553-.317a.275.275,0,0,1-.22-.134L76.5,182.687l-2.014,5.187a.293.293,0,0,1-.2.165Z" transform="translate(-4.866 -50.148)" fill="#5c6f99" opacity="0.5"/>
    <path id="Tracé_2047" data-name="Tracé 2047" d="M314.529,135.507l-3.759-3.5-5.016,1.1,2.172-4.656-2.606-4.43,5.1.629,3.405-3.851.982,5.047,4.711,2.05-4.5,2.5Z" transform="translate(-97.369 -26.383)" fill="#fce15c"/>
    <path id="Tracé_2048" data-name="Tracé 2048" d="M314.382,135.589a.256.256,0,0,1-.159-.061l-3.661-3.423-4.882,1.08a.232.232,0,0,1-.262-.323l2.124-4.546-2.563-4.327a.232.232,0,0,1,0-.244.244.244,0,0,1,.22-.1l4.986.61,3.326-3.759a.226.226,0,0,1,.232-.067.232.232,0,0,1,.171.177l.952,4.925,4.6,2.008a.22.22,0,0,1,.14.2.238.238,0,0,1-.116.214L315.1,130.39l-.482,5a.232.232,0,0,1-.153.189A.171.171,0,0,1,314.382,135.589Zm-3.759-3.967a.213.213,0,0,1,.159.061l3.417,3.185.452-4.65a.226.226,0,0,1,.116-.177l4.089-2.27-4.272-1.861a.226.226,0,0,1-.134-.171l-.928-4.583-3.051,3.5a.226.226,0,0,1-.2.073l-4.638-.568L308,128.187a.22.22,0,0,1,0,.214l-1.971,4.235,4.559-1.007Z" transform="translate(-97.222 -26.233)" fill="#5c6f99" opacity="0.5"/>
    <path id="Tracé_2049" data-name="Tracé 2049" d="M288.713,121.344l-2.459-2.295-3.283.726,1.422-3.045-1.7-2.9,3.338.415,2.227-2.52.647,3.3,3.082,1.343L289.043,118Z" transform="translate(-88.548 -22.844)" fill="#fce15c"/>
    <path id="Tracé_2050" data-name="Tracé 2050" d="M288.624,121.408a.122.122,0,0,1-.1-.043l-2.4-2.24-3.21.714a.165.165,0,0,1-.146-.055.152.152,0,0,1,0-.159l1.385-2.978-1.666-2.832a.147.147,0,0,1,0-.159.153.153,0,0,1,.146-.067l3.259.4,2.179-2.441a.159.159,0,0,1,.153-.049.165.165,0,0,1,.11.116l.61,3.228,3.015,1.312a.165.165,0,0,1,.092.128.152.152,0,0,1-.079.14l-2.874,1.593-.317,3.271a.159.159,0,0,1-.1.128Zm-2.441-2.594a.146.146,0,0,1,.1.037l2.24,2.087.293-3.051a.159.159,0,0,1,.079-.116l2.673-1.483-2.8-1.22a.152.152,0,0,1-.092-.11l-.58-3-2.05,2.288a.128.128,0,0,1-.128.049l-3.051-.372,1.544,2.636a.147.147,0,0,1,0,.14l-1.294,2.77,2.984-.659Z" transform="translate(-88.459 -22.756)" fill="#5c6f99" opacity="0.5"/>
    <path id="Tracé_2051" data-name="Tracé 2051" d="M90.472,76.026l-4.62-.781-3.259,3.362-.69-4.632-4.2-2.057,4.192-2.087.659-4.632,3.283,3.338,4.607-.806-2.166,4.156Z" transform="translate(-8.652 -4.712)" fill="#fce15c"/>
    <path id="Tracé_2052" data-name="Tracé 2052" d="M82.463,78.693H82.4a.214.214,0,0,1-.146-.171L81.584,74l-4.107-2.008a.214.214,0,0,1,0-.378l4.095-2.032.61-4.528a.214.214,0,0,1,.14-.171.207.207,0,0,1,.22.055l3.2,3.259,4.534-.806a.214.214,0,0,1,.207.085.207.207,0,0,1,0,.22l-2.118,4.052,2.142,4.04a.232.232,0,0,1,0,.226.22.22,0,0,1-.207.085l-4.5-.775-3.161,3.3A.22.22,0,0,1,82.463,78.693Zm-4.418-6.9,3.826,1.867a.22.22,0,0,1,.116.159l.61,4.211,2.96-3.051a.214.214,0,0,1,.189-.061l4.211.7-1.989-3.759a.22.22,0,0,1,0-.2l1.989-3.777-4.223.726a.2.2,0,0,1-.183-.055l-2.978-3.051-.61,4.211a.22.22,0,0,1-.116.159Z" transform="translate(-8.52 -4.584)" fill="#5c6f99" opacity="0.5"/>
    <path id="Tracé_2053" data-name="Tracé 2053" d="M279.825,81.8h2.331c.561,0,.842.116.842.36a4.693,4.693,0,0,1-.793,1.513q-.567,1.086-1.336,2.679c.867-.043,1.581-.061,2.13-.061a.159.159,0,0,1,.146.165h0c0,.311-.1.47-.22.47-1.33.037-2.172.055-2.533.055a.883.883,0,0,1-.738-.256v-.092c0-.049.238-.61.714-1.678q.97-1.831,1.367-2.526h-1.611c-.378,0-.574-.067-.574-.2V82.2Q279.574,81.8,279.825,81.8Z" transform="translate(-87.324 -11.182)" fill="#1f4076"/>
    <path id="Tracé_2054" data-name="Tracé 2054" d="M296.065,66.83H299.9c.928,0,1.391.2,1.391.61a7.077,7.077,0,0,1-1.312,2.5c-.61,1.22-1.361,2.667-2.2,4.412,1.434-.067,2.606-.1,3.515-.1a.269.269,0,0,1,.244.275h0c-.049.519-.171.775-.366.775-2.2.067-3.582.1-4.168.1a1.416,1.416,0,0,1-1.22-.421v-.153q0-.128,1.184-2.764c1.062-2.044,1.831-3.436,2.246-4.162H296.56c-.61,0-.94-.11-.94-.323v-.024C295.614,67.062,295.766,66.83,296.065,66.83Z" transform="translate(-93.588 -5.347)" fill="#1f4076"/>
    <path id="Tracé_2055" data-name="Tracé 2055" d="M313.251,58.3h6.359c1.538,0,2.3.33,2.3.995,0,.531-.72,1.9-2.16,4.131q-1.562,2.978-3.661,7.323,3.582-.165,5.822-.165a.439.439,0,0,1,.409.458v.043c-.079.854-.281,1.282-.61,1.282q-5.449.165-6.9.165c-1.074,0-1.751-.238-2.032-.7v-.287c0-.146.653-1.672,1.965-4.589q2.636-5.083,3.722-6.9h-4.4c-1.037,0-1.562-.177-1.562-.537v-.055C312.5,58.684,312.75,58.3,313.251,58.3Z" transform="translate(-100.167 -2.023)" fill="#1f4076"/>
    <circle id="Ellipse_201" data-name="Ellipse 201" cx="2.594" cy="2.594" r="2.594" transform="translate(80.875 98.604)" fill="#fce15c"/>
    <path id="Tracé_2056" data-name="Tracé 2056" d="M99.533,132.914a2.807,2.807,0,1,1,2.8-2.8A2.807,2.807,0,0,1,99.533,132.914Zm0-5.187a2.386,2.386,0,1,0,2.38,2.386A2.386,2.386,0,0,0,99.533,127.727Z" transform="translate(-16.065 -28.916)" fill="#5c6f99" opacity="0.5"/>
    <circle id="Ellipse_202" data-name="Ellipse 202" cx="1.928" cy="1.928" r="1.928" transform="translate(185.226 164.436)" fill="#fce15c"/>
    <path id="Tracé_2057" data-name="Tracé 2057" d="M269.868,239.474A2.142,2.142,0,1,1,272,237.332,2.142,2.142,0,0,1,269.868,239.474Zm0-3.857a1.721,1.721,0,1,0,1.715,1.715A1.721,1.721,0,0,0,269.868,235.617Z" transform="translate(-82.714 -70.967)" fill="#5c6f99" opacity="0.5"/>
    <circle id="Ellipse_203" data-name="Ellipse 203" cx="8.403" cy="8.403" r="8.403" transform="translate(75.065 156.033)" fill="#fce15c"/>
    <path id="Tracé_2058" data-name="Tracé 2058" d="M95.823,238.653a8.617,8.617,0,1,1,8.611-8.615A8.617,8.617,0,0,1,95.823,238.653Zm0-16.806a8.2,8.2,0,1,0,8.189,8.189,8.2,8.2,0,0,0-8.189-8.189Z" transform="translate(-12.354 -65.6)" fill="#5c6f99" opacity="0.5"/>
    <circle id="Ellipse_204" data-name="Ellipse 204" cx="1.404" cy="1.404" r="1.404" transform="translate(210.868 117.6)" fill="#fce15c"/>
    <path id="Tracé_2059" data-name="Tracé 2059" d="M311.367,161.674a1.617,1.617,0,1,1,1.617-1.617,1.617,1.617,0,0,1-1.617,1.617Zm0-2.807a1.22,1.22,0,1,0,1.22,1.22A1.22,1.22,0,0,0,311.367,158.867Z" transform="translate(-99.095 -41.053)" fill="#5c6f99" opacity="0.5"/>
    <circle id="Ellipse_205" data-name="Ellipse 205" cx="1.355" cy="1.355" r="1.355" transform="translate(174.785 172.846)" fill="#fce15c"/>
    <path id="Tracé_2060" data-name="Tracé 2060" d="M252.227,252.075a1.507,1.507,0,1,1,1.507-1.5A1.507,1.507,0,0,1,252.227,252.075Zm0-2.709a1.22,1.22,0,1,0,1.22,1.22A1.22,1.22,0,0,0,252.227,249.365Z" transform="translate(-76.088 -76.373)" fill="#5c6f99" opacity="0.5"/>
    <path id="Tracé_2061" data-name="Tracé 2061" d="M297.155,237.568a.275.275,0,0,1-.275-.275v-1.928a.275.275,0,0,1,.275-.275.281.281,0,0,1,.281.275v1.928a.281.281,0,0,1-.281.275Z" transform="translate(-94.079 -70.928)" fill="#5c6f99" opacity="0.5"/>
    <path id="Tracé_2062" data-name="Tracé 2062" d="M297.155,243.888a.275.275,0,0,1-.275-.275v-1.928a.275.275,0,0,1,.275-.275.281.281,0,0,1,.281.275V243.6a.281.281,0,0,1-.281.287Z" transform="translate(-94.079 -73.391)" fill="#5c6f99" opacity="0.5"/>
    <path id="Tracé_2063" data-name="Tracé 2063" d="M300.663,240.379h-1.928a.275.275,0,0,1,0-.549h1.928a.275.275,0,0,1,0,.549Z" transform="translate(-94.695 -72.776)" fill="#5c6f99" opacity="0.5"/>
    <path id="Tracé_2064" data-name="Tracé 2064" d="M294.347,240.379h-1.922a.275.275,0,0,1,0-.549h1.922a.275.275,0,1,1,0,.549Z" transform="translate(-92.235 -72.776)" fill="#5c6f99" opacity="0.5"/>
    <path id="Tracé_2065" data-name="Tracé 2065" d="M130.485,242.308a.275.275,0,0,1-.275-.275V240.1a.275.275,0,1,1,.549,0v1.928A.275.275,0,0,1,130.485,242.308Z" transform="translate(-29.118 -72.776)" fill="#5c6f99" opacity="0.5"/>
    <path id="Tracé_2066" data-name="Tracé 2066" d="M130.485,248.628a.275.275,0,0,1-.275-.275v-1.928a.275.275,0,1,1,.549,0v1.928a.275.275,0,0,1-.275.275Z" transform="translate(-29.118 -75.239)" fill="#5c6f99" opacity="0.5"/>
    <path id="Tracé_2067" data-name="Tracé 2067" d="M133.993,245.119h-1.928a.275.275,0,0,1,0-.549h1.928a.275.275,0,0,1,0,.549Z" transform="translate(-29.734 -74.623)" fill="#5c6f99" opacity="0.5"/>
    <path id="Tracé_2068" data-name="Tracé 2068" d="M127.673,245.119h-1.928a.275.275,0,1,1,0-.549h1.928a.275.275,0,1,1,0,.549Z" transform="translate(-27.271 -74.623)" fill="#5c6f99" opacity="0.5"/>
    <path id="Tracé_2069" data-name="Tracé 2069" d="M132.065,55.588a.275.275,0,0,1-.275-.275V53.385a.275.275,0,1,1,.549,0v1.928a.275.275,0,0,1-.275.275Z" transform="translate(-29.734)" fill="#5c6f99" opacity="0.5"/>
    <path id="Tracé_2070" data-name="Tracé 2070" d="M132.065,61.908a.275.275,0,0,1-.275-.275V59.7a.275.275,0,1,1,.549,0v1.9a.275.275,0,0,1-.275.3Z" transform="translate(-29.734 -2.463)" fill="#5c6f99" opacity="0.5"/>
    <path id="Tracé_2071" data-name="Tracé 2071" d="M135.593,58.4h-1.928a.275.275,0,1,1,0-.549h1.928a.275.275,0,1,1,0,.549Z" transform="translate(-30.357 -1.847)" fill="#5c6f99" opacity="0.5"/>
    <path id="Tracé_2072" data-name="Tracé 2072" d="M129.253,58.4h-1.928a.275.275,0,1,1,0-.549h1.928a.275.275,0,0,1,0,.549Z" transform="translate(-27.886 -1.847)" fill="#5c6f99" opacity="0.5"/>
    <path id="Tracé_2073" data-name="Tracé 2073" d="M68.265,158.418a.275.275,0,0,1-.275-.275v-1.928a.275.275,0,1,1,.549,0v1.928A.275.275,0,0,1,68.265,158.418Z" transform="translate(-4.867 -40.079)" fill="#5c6f99" opacity="0.5"/>
    <path id="Tracé_2074" data-name="Tracé 2074" d="M68.265,164.7a.275.275,0,0,1-.275-.275v-1.928a.275.275,0,0,1,.549,0v1.928A.275.275,0,0,1,68.265,164.7Z" transform="translate(-4.867 -42.527)" fill="#5c6f99" opacity="0.5"/>
    <path id="Tracé_2075" data-name="Tracé 2075" d="M71.782,161.2H69.847a.281.281,0,0,1,0-.555h1.922a.281.281,0,0,1,0,.555Z" transform="translate(-5.498 -41.911)" fill="#5c6f99" opacity="0.5"/>
    <path id="Tracé_2076" data-name="Tracé 2076" d="M65.475,161.2H63.547a.281.281,0,0,1,0-.555h1.928a.281.281,0,0,1,0,.555Z" transform="translate(-3.042 -41.911)" fill="#5c6f99" opacity="0.5"/>
    <path id="Tracé_2077" data-name="Tracé 2077" d="M101.151,179.2a.281.281,0,0,1-.281-.275v-4.919a.281.281,0,0,1,.555,0v4.919A.275.275,0,0,1,101.151,179.2Z" transform="translate(-17.682 -47.027)" fill="#5c6f99" opacity="0.5"/>
    <path id="Tracé_2078" data-name="Tracé 2078" d="M102.057,178.289H97.175a.275.275,0,0,1,0-.549h4.882a.275.275,0,0,1,0,.549Z" transform="translate(-16.135 -48.576)" fill="#5c6f99" opacity="0.5"/>
    <path id="Tracé_2079" data-name="Tracé 2079" d="M124.655,86.708a.275.275,0,0,1-.275-.275V81.515a.275.275,0,1,1,.549,0v4.919A.275.275,0,0,1,124.655,86.708Z" transform="translate(-26.846 -10.964)" fill="#5c6f99" opacity="0.5"/>
    <path id="Tracé_2080" data-name="Tracé 2080" d="M125.543,85.819h-4.919a.275.275,0,1,1,0-.549h4.919a.275.275,0,0,1,0,.549Z" transform="translate(-25.275 -12.535)" fill="#5c6f99" opacity="0.5"/>
    <path id="Tracé_2081" data-name="Tracé 2081" d="M298.735,205.111a.275.275,0,0,1-.275-.275v-4.882a.275.275,0,1,1,.549,0v4.882a.275.275,0,0,1-.275.275Z" transform="translate(-94.695 -57.127)" fill="#5c6f99" opacity="0.5"/>
    <path id="Tracé_2082" data-name="Tracé 2082" d="M299.6,204.2h-4.912a.281.281,0,1,1,0-.555H299.6a.281.281,0,0,1,0,.555Z" transform="translate(-93.098 -58.672)" fill="#5c6f99" opacity="0.5"/>
    <circle id="Ellipse_206" data-name="Ellipse 206" cx="0.702" cy="0.702" r="0.702" transform="translate(210.868 144.463)" fill="#5c6f99" opacity="0.5"/>
    <circle id="Ellipse_207" data-name="Ellipse 207" cx="0.702" cy="0.702" r="0.702" transform="translate(114.621 179.888)" fill="#5c6f99" opacity="0.5"/>
  </g>
</svg>
