<svg xmlns="http://www.w3.org/2000/svg" width="167.572" height="108.501" viewBox="0 0 167.572 108.501">
  <g id="Groupe_386" data-name="Groupe 386" transform="translate(-231.984 -863.44)">
    <g id="_015" data-name="015" transform="translate(231.984 863.44)">
      <path id="Tracé_2716" data-name="Tracé 2716" d="M262.92,90.409H138.853a4.77,4.77,0,0,0-4.828,5.559l11.87,90.476a6.514,6.514,0,0,0,6.29,5.559H276.253a4.77,4.77,0,0,0,4.828-5.559L269.21,95.968A6.514,6.514,0,0,0,262.92,90.409Z" transform="translate(-113.888 -83.843)" fill="#1f4076"/>
      <path id="Tracé_2717" data-name="Tracé 2717" d="M276.133,192.215H152.066a6.876,6.876,0,0,1-6.608-5.841L133.587,95.9a5.219,5.219,0,0,1,1.2-4.2,5.139,5.139,0,0,1,3.945-1.7H262.8a6.876,6.876,0,0,1,6.608,5.79l11.87,90.476a5.219,5.219,0,0,1-1.2,4.2,5.139,5.139,0,0,1-3.945,1.752Zm-137.4-101.6a4.509,4.509,0,0,0-3.46,1.506,4.618,4.618,0,0,0-1.057,3.67l11.87,90.476a6.225,6.225,0,0,0,5.979,5.284H276.133a4.509,4.509,0,0,0,3.46-1.506,4.589,4.589,0,0,0,1.057-3.7l-11.87-90.476a6.225,6.225,0,0,0-5.979-5.284Z" transform="translate(-113.769 -83.73)" fill="#1f4076"/>
      <path id="Tracé_2718" data-name="Tracé 2718" d="M120.406,110.32h136.8l-13.651,81.631a6.847,6.847,0,0,1-6.514,5.559H111.4a4.582,4.582,0,0,1-4.632-5.559Z" transform="translate(-106.349 -89.343)" fill="#f2f1f7"/>
      <path id="Tracé_2719" data-name="Tracé 2719" d="M236.942,197.718H111.282A4.98,4.98,0,0,1,107.4,196a5.11,5.11,0,0,1-1.071-4.227l13.636-81.624a.333.333,0,0,1,.326-.275h136.8a.347.347,0,0,1,.253.116.355.355,0,0,1,.072.268L243.76,191.877a7.238,7.238,0,0,1-6.818,5.841Zm-116.4-87.19-13.564,81.348a4.48,4.48,0,0,0,.919,3.691,4.343,4.343,0,0,0,3.387,1.448h125.66a6.514,6.514,0,0,0,6.167-5.284l13.571-81.24Z" transform="translate(-106.229 -89.219)" fill="#1f4076"/>
      <path id="Tracé_2720" data-name="Tracé 2720" d="M133.625,90.409h125.66a4.582,4.582,0,0,1,4.632,5.559l-1.448,8.845H125.67l1.448-8.845A6.84,6.84,0,0,1,133.625,90.409Z" transform="translate(-111.599 -83.843)" fill="#fce15c"/>
      <path id="Tracé_2721" data-name="Tracé 2721" d="M262.3,105.033H125.5a.311.311,0,0,1-.253-.123.3.3,0,0,1-.072-.268l1.448-8.838a7.187,7.187,0,0,1,6.862-5.8h125.66a5,5,0,0,1,3.894,1.723,5.11,5.11,0,0,1,1.064,4.227l-1.448,8.838a.326.326,0,0,1-.355.246Zm-136.394-.666H262.027l1.448-8.563a4.459,4.459,0,0,0-.919-3.691,4.343,4.343,0,0,0-3.387-1.448H133.486a6.514,6.514,0,0,0-6.16,5.284Z" transform="translate(-111.461 -83.73)" fill="#1f4076"/>
      <path id="Tracé_2722" data-name="Tracé 2722" d="M141.794,188.719h-.058a.326.326,0,0,1-.268-.376l10.958-65.6a.34.34,0,0,1,.384-.275.333.333,0,0,1,.268.384l-10.958,65.6a.333.333,0,0,1-.326.268Z" transform="translate(-115.961 -92.697)" fill="#231f20"/>
      <path id="Tracé_2723" data-name="Tracé 2723" d="M167.111,188.7h-.058a.326.326,0,0,1-.275-.376l10.966-65.6a.333.333,0,1,1,.651.109l-10.966,65.6a.326.326,0,0,1-.318.268Z" transform="translate(-122.951 -92.681)" fill="#231f20"/>
      <path id="Tracé_2724" data-name="Tracé 2724" d="M192.424,188.719h-.051a.326.326,0,0,1-.275-.376l10.958-65.6a.34.34,0,0,1,.384-.275.326.326,0,0,1,.268.384l-10.958,65.6a.333.333,0,0,1-.326.268Z" transform="translate(-129.945 -92.697)" fill="#231f20"/>
      <path id="Tracé_2725" data-name="Tracé 2725" d="M217.743,188.7h-.058a.318.318,0,0,1-.268-.376l10.958-65.6a.333.333,0,1,1,.651.109l-10.958,65.6a.333.333,0,0,1-.326.268Z" transform="translate(-136.937 -92.681)" fill="#231f20"/>
      <path id="Tracé_2726" data-name="Tracé 2726" d="M243.054,188.7H243a.326.326,0,0,1-.275-.376l10.966-65.6a.333.333,0,1,1,.651.109l-10.966,65.6a.333.333,0,0,1-.326.268Z" transform="translate(-143.928 -92.681)" fill="#231f20"/>
      <path id="Tracé_2727" data-name="Tracé 2727" d="M268.374,188.7h-.058a.326.326,0,0,1-.268-.376l10.958-65.6a.333.333,0,1,1,.651.109l-10.922,65.6A.333.333,0,0,1,268.374,188.7Z" transform="translate(-150.922 -92.681)" fill="#231f20"/>
      <path id="Tracé_2728" data-name="Tracé 2728" d="M141.794,188.719h-.058a.326.326,0,0,1-.268-.376l10.958-65.6a.34.34,0,0,1,.384-.275.333.333,0,0,1,.268.384l-10.958,65.6a.333.333,0,0,1-.326.268Z" transform="translate(-115.961 -92.697)" fill="none" stroke="#5c6f99" stroke-linecap="round" stroke-linejoin="round" stroke-width="0.92"/>
      <path id="Tracé_2729" data-name="Tracé 2729" d="M167.111,188.7h-.058a.326.326,0,0,1-.275-.376l10.966-65.6a.333.333,0,1,1,.651.109l-10.966,65.6a.326.326,0,0,1-.318.268Z" transform="translate(-122.951 -92.681)" fill="none" stroke="#5c6f99" stroke-linecap="round" stroke-linejoin="round" stroke-width="0.92"/>
      <path id="Tracé_2730" data-name="Tracé 2730" d="M192.424,188.719h-.051a.326.326,0,0,1-.275-.376l10.958-65.6a.34.34,0,0,1,.384-.275.326.326,0,0,1,.268.384l-10.958,65.6a.333.333,0,0,1-.326.268Z" transform="translate(-129.945 -92.697)" fill="none" stroke="#5c6f99" stroke-linecap="round" stroke-linejoin="round" stroke-width="0.92"/>
      <path id="Tracé_2731" data-name="Tracé 2731" d="M217.743,188.7h-.058a.318.318,0,0,1-.268-.376l10.958-65.6a.333.333,0,1,1,.651.109l-10.958,65.6a.333.333,0,0,1-.326.268Z" transform="translate(-136.937 -92.681)" fill="none" stroke="#5c6f99" stroke-linecap="round" stroke-linejoin="round" stroke-width="0.92"/>
      <path id="Tracé_2732" data-name="Tracé 2732" d="M243.054,188.7H243a.326.326,0,0,1-.275-.376l10.966-65.6a.333.333,0,1,1,.651.109l-10.966,65.6a.333.333,0,0,1-.326.268Z" transform="translate(-143.928 -92.681)" fill="none" stroke="#5c6f99" stroke-linecap="round" stroke-linejoin="round" stroke-width="0.92"/>
      <path id="Tracé_2733" data-name="Tracé 2733" d="M268.374,188.7h-.058a.326.326,0,0,1-.268-.376l10.958-65.6a.333.333,0,1,1,.651.109l-10.922,65.6A.333.333,0,0,1,268.374,188.7Z" transform="translate(-150.922 -92.681)" fill="none" stroke="#5c6f99" stroke-linecap="round" stroke-linejoin="round" stroke-width="0.92"/>
      <path id="Tracé_2734" data-name="Tracé 2734" d="M253.636,144.137H134.164a.333.333,0,1,1,0-.659H253.636a.333.333,0,1,1,0,.659Z" transform="translate(-113.839 -98.5)" fill="#231f20"/>
      <path id="Tracé_2735" data-name="Tracé 2735" d="M249.576,168.437H130.1a.333.333,0,1,1,0-.659H249.576a.333.333,0,1,1,0,.659Z" transform="translate(-112.718 -105.212)" fill="#231f20"/>
      <path id="Tracé_2736" data-name="Tracé 2736" d="M245.534,192.746H126.063a.333.333,0,0,1,0-.666H245.534a.333.333,0,0,1,0,.666Z" transform="translate(-111.615 -111.925)" fill="#231f20"/>
      <line id="Ligne_107" data-name="Ligne 107" x2="119.471" transform="translate(20.325 45.304)" fill="none" stroke="#d1d3d4" stroke-linecap="round" stroke-linejoin="round" stroke-width="0.92"/>
      <path id="Tracé_2737" data-name="Tracé 2737" d="M253.636,144.137H134.164a.333.333,0,1,1,0-.659H253.636a.333.333,0,1,1,0,.659Z" transform="translate(-113.839 -98.5)" fill="none" stroke="#5c6f99" stroke-linecap="round" stroke-linejoin="round" stroke-width="0.92"/>
      <line id="Ligne_108" data-name="Ligne 108" x2="119.471" transform="translate(17.386 62.9)" fill="none" stroke="#d1d3d4" stroke-linecap="round" stroke-linejoin="round" stroke-width="0.92"/>
      <path id="Tracé_2738" data-name="Tracé 2738" d="M249.576,168.437H130.1a.333.333,0,1,1,0-.659H249.576a.333.333,0,1,1,0,.659Z" transform="translate(-112.718 -105.212)" fill="none" stroke="#5c6f99" stroke-linecap="round" stroke-linejoin="round" stroke-width="0.92"/>
      <line id="Ligne_109" data-name="Ligne 109" x2="119.471" transform="translate(14.448 80.488)" fill="none" stroke="#d1d3d4" stroke-linecap="round" stroke-linejoin="round" stroke-width="0.92"/>
      <path id="Tracé_2739" data-name="Tracé 2739" d="M245.534,192.746H126.063a.333.333,0,0,1,0-.666H245.534a.333.333,0,0,1,0,.666Z" transform="translate(-111.615 -111.925)" fill="none" stroke="#5c6f99" stroke-linecap="round" stroke-linejoin="round" stroke-width="0.92"/>
      <path id="Tracé_2742" data-name="Tracé 2742" d="M253.564,184.963a.333.333,0,0,1-.253-.123.326.326,0,0,1,.043-.463l12.739-10.625a.333.333,0,1,1,.427.507l-12.732,10.625A.333.333,0,0,1,253.564,184.963Z" transform="translate(-146.831 -106.835)" fill="#1f4076"/>
      <path id="Tracé_2743" data-name="Tracé 2743" d="M265.23,184.972a.319.319,0,0,1-.246-.116l-9.221-10.625a.333.333,0,0,1,0-.47.34.34,0,0,1,.47.036l9.214,10.625a.333.333,0,0,1,0,.47.347.347,0,0,1-.217.08Z" transform="translate(-147.503 -106.843)" fill="#1f4076"/>
      <path id="Tracé_2744" data-name="Tracé 2744" d="M272.88,225.12l17.755-13.89H280.364a6.355,6.355,0,0,0-6.022,5.168Z" transform="translate(-152.257 -117.214)" fill="#d3cfe5"/>
      <path id="Tracé_2745" data-name="Tracé 2745" d="M272.754,225.328a.333.333,0,0,1-.167-.043.34.34,0,0,1-.159-.34l1.448-8.729a6.7,6.7,0,0,1,6.348-5.436h10.271a.318.318,0,0,1,.311.224.311.311,0,0,1-.109.362l-17.748,13.89a.333.333,0,0,1-.2.072Zm7.484-13.89a6.015,6.015,0,0,0-5.7,4.886l-1.317,7.889,16.329-12.775Z" transform="translate(-152.132 -117.09)" fill="#1f4076"/>
      <path id="Tracé_2746" data-name="Tracé 2746" d="M258.778,98.409a1.448,1.448,0,0,1-.724-.2,9.048,9.048,0,1,1,12.681-11.791A1.45,1.45,0,1,1,268.13,87.7a6.153,6.153,0,1,0-8.62,8.02,1.448,1.448,0,0,1-.724,2.693Z" transform="translate(-146.921 -81.341)" fill="#5c6f99"/>
      <path id="Tracé_2747" data-name="Tracé 2747" d="M213.785,98.407a1.447,1.447,0,0,1-.724-.2,9.051,9.051,0,1,1,12.681-11.805,1.45,1.45,0,1,1-2.606,1.274,6.152,6.152,0,1,0-8.613,8.02,1.448,1.448,0,0,1-.724,2.693Z" transform="translate(-134.491 -81.339)" fill="#5c6f99"/>
      <path id="Tracé_2748" data-name="Tracé 2748" d="M168.794,98.407a1.382,1.382,0,0,1-.724-.2,9.048,9.048,0,1,1,12.674-11.791,1.448,1.448,0,1,1-2.6,1.274,6.155,6.155,0,1,0-8.621,8.02,1.448,1.448,0,0,1-.724,2.693Z" transform="translate(-122.065 -81.339)" fill="#5c6f99"/>
      <path id="Tracé_2749" data-name="Tracé 2749" d="M166.861,86.316a.391.391,0,0,1-.181-.043.369.369,0,0,1-.138-.5,6.992,6.992,0,0,1,2.787-2.454.362.362,0,1,1,.3.651,6.457,6.457,0,0,0-2.461,2.171A.362.362,0,0,1,166.861,86.316Z" transform="translate(-122.874 -81.871)" fill="#fff"/>
      <path id="Tracé_2750" data-name="Tracé 2750" d="M212.433,86.324a.362.362,0,0,1-.311-.543,6.949,6.949,0,0,1,2.794-2.454.362.362,0,0,1,.478.174.355.355,0,0,1-.174.478,6.456,6.456,0,0,0-2.461,2.171A.362.362,0,0,1,212.433,86.324Z" transform="translate(-135.463 -81.879)" fill="#fff"/>
      <path id="Tracé_2751" data-name="Tracé 2751" d="M256.943,86.323a.413.413,0,0,1-.181-.043.369.369,0,0,1-.13-.5,6.992,6.992,0,0,1,2.779-2.454.362.362,0,0,1,.485.174.355.355,0,0,1-.174.478,6.456,6.456,0,0,0-2.461,2.171.376.376,0,0,1-.319.174Z" transform="translate(-147.756 -81.878)" fill="#fff"/>
      <path id="Tracé_2919" data-name="Tracé 2919" d="M90.472,76.026l-4.62-.781-3.259,3.362-.69-4.632-4.2-2.057,4.192-2.087.659-4.632,3.283,3.338,4.607-.806-2.166,4.156Z" transform="translate(-24.24 -17.927)" fill="#fce15c" stroke="#5c6f99" stroke-width="1"/>
    </g>
    <g id="Groupe_385" data-name="Groupe 385" transform="translate(-81 78)">
      <path id="Tracé_2920" data-name="Tracé 2920" d="M1.829,0H3.766A1.829,1.829,0,0,1,5.6,1.829V31.141H0V1.833A1.829,1.829,0,0,1,1.829,0Z" transform="translate(339.271 807.113) rotate(-41.45)" fill="#fce15c"/>
      <path id="Tracé_2921" data-name="Tracé 2921" d="M103,147.213h-.03a.435.435,0,0,1-.3-.144L83.26,125.094a2.264,2.264,0,0,1,.2-3.2l1.454-1.28a2.264,2.264,0,0,1,3.2.2l19.4,21.976a.435.435,0,0,1-.039.614l-4.18,3.705A.435.435,0,0,1,103,147.213Zm-16.581-26.3a1.389,1.389,0,0,0-.923.348l-1.45,1.28a1.389,1.389,0,0,0-.122,1.968l19.111,21.636,3.544-3.126L87.467,121.38A1.38,1.38,0,0,0,86.422,120.918Z" transform="translate(256.884 683.687)" fill="#5c6f99"/>
      <path id="Tracé_2922" data-name="Tracé 2922" d="M133.527,172.92l1.816,4.433,1.411,3.449-3.248-1.824-4.176-2.347Z" transform="translate(230.552 653.835)" fill="#f2f1f7"/>
      <path id="Tracé_2923" data-name="Tracé 2923" d="M136.22,180.654a.436.436,0,0,1-.213-.057l-7.4-4.171a.437.437,0,0,1-.074-.705l4.2-3.71a.439.439,0,0,1,.692.161l3.222,7.881a.435.435,0,0,1-.422.6Zm-6.675-4.685,5.8,3.257-2.517-6.157Z" transform="translate(231.086 654.41)" fill="#5c6f99"/>
      <path id="Tracé_2924" data-name="Tracé 2924" d="M139.456,181.44l1.707,4.171-4.023-2.26Z" transform="translate(226.143 649.025)" fill="#fce15c"/>
      <path id="Tracé_2925" data-name="Tracé 2925" d="M140.6,185.463a.436.436,0,0,1-.213-.057l-4.023-2.26a.433.433,0,0,1-.065-.714l2.316-1.912a.435.435,0,0,1,.679.17L141,184.862a.434.434,0,0,1-.4.6ZM137.34,182.7l2.377,1.337-1.028-2.456Z" transform="translate(226.709 649.6)" fill="#5c6f99"/>
    </g>
  </g>
</svg>
