<svg xmlns="http://www.w3.org/2000/svg" width="156.907" height="135.151" viewBox="0 0 156.907 135.151">
  <g id="Groupe_364" data-name="Groupe 364" transform="translate(2167 1768.117)">
    <g id="_15_calendar_outline" data-name="#15_calendar_outline" transform="translate(-2167 -1726.595)">
      <path id="Tracé_2830" data-name="Tracé 2830" d="M237.784,219.414H83.387a.667.667,0,1,1,0-1.334h154.4a.667.667,0,1,1,0,1.334Z" transform="translate(-82.236 -125.864)" fill="#1f4076"/>
      <rect id="Rectangle_1480" data-name="Rectangle 1480" width="113.648" height="86.101" rx="11.03" transform="translate(16.148 6.775)" fill="#f2f1f7"/>
      <path id="Tracé_2831" data-name="Tracé 2831" d="M212.179,176.408H113.242a8,8,0,0,1-8-8V97a8,8,0,0,1,8-8h98.937a8,8,0,0,1,8,8v71.384a8,8,0,0,1-8,8.022ZM113.242,90.334A6.668,6.668,0,0,0,106.574,97v71.384a6.668,6.668,0,0,0,6.668,6.668h98.937a6.668,6.668,0,0,0,6.668-6.668V97a6.668,6.668,0,0,0-6.668-6.668Z" transform="translate(-89.739 -82.859)" fill="#1f4076"/>
      <path id="Tracé_2832" data-name="Tracé 2832" d="M219.858,97.335v9.2H106.21v-9.2A7.335,7.335,0,0,1,113.545,90H212.5a7.335,7.335,0,0,1,7.355,7.335Z" transform="translate(-90.062 -83.192)" fill="#fce15c"/>
      <path id="Tracé_2833" data-name="Tracé 2833" d="M219.524,106.871H105.877a.667.667,0,0,1-.667-.667V97a8,8,0,0,1,8-8h98.957a8,8,0,0,1,8,8v9.2A.667.667,0,0,1,219.524,106.871Zm-112.981-1.334H218.858V97a6.668,6.668,0,0,0-6.668-6.668H113.232A6.668,6.668,0,0,0,106.564,97Z" transform="translate(-89.729 -82.859)" fill="#fce15c"/>
      <rect id="Rectangle_1481" data-name="Rectangle 1481" width="11.803" height="11.803" transform="translate(47.655 33.128)" fill="#f2f1f7"/>
      <path id="Tracé_2834" data-name="Tracé 2834" d="M164.936,141.607h-11.81a.667.667,0,0,1-.667-.667v-11.8a.667.667,0,0,1,.667-.667h11.81a.667.667,0,0,1,.667.667v11.8A.667.667,0,0,1,164.936,141.607Zm-11.143-1.334H164.27V129.8H153.794Z" transform="translate(-105.472 -96.009)" fill="#5c6f99"/>
      <rect id="Rectangle_1482" data-name="Rectangle 1482" width="11.803" height="11.803" transform="translate(67.067 33.128)" fill="#f2f1f7"/>
      <path id="Tracé_2835" data-name="Tracé 2835" d="M194.046,141.607h-11.81a.667.667,0,0,1-.667-.667v-11.8a.667.667,0,0,1,.667-.667h11.81a.667.667,0,0,1,.667.667v11.8A.667.667,0,0,1,194.046,141.607ZM182.9,140.273H193.38V129.8H182.9Z" transform="translate(-115.17 -96.009)" fill="#5c6f99"/>
      <rect id="Rectangle_1483" data-name="Rectangle 1483" width="11.803" height="11.803" transform="translate(86.478 33.128)" fill="#f2f1f7"/>
      <path id="Tracé_2836" data-name="Tracé 2836" d="M223.15,141.607h-11.8a.667.667,0,0,1-.667-.667v-11.8a.667.667,0,0,1,.667-.667h11.8a.667.667,0,0,1,.667.667v11.8A.667.667,0,0,1,223.15,141.607Zm-11.136-1.334h10.469V129.8H212.014Z" transform="translate(-124.869 -96.009)" fill="#5c6f99"/>
      <rect id="Rectangle_1484" data-name="Rectangle 1484" width="11.803" height="11.803" transform="translate(105.889 33.128)" fill="#f2f1f7"/>
      <path id="Tracé_2837" data-name="Tracé 2837" d="M252.26,141.607h-11.8a.667.667,0,0,1-.667-.667v-11.8a.667.667,0,0,1,.667-.667h11.8a.667.667,0,0,1,.667.667v11.8A.667.667,0,0,1,252.26,141.607Zm-11.136-1.334h10.469V129.8H241.124Z" transform="translate(-134.567 -96.009)" fill="#5c6f99"/>
      <rect id="Rectangle_1485" data-name="Rectangle 1485" width="11.803" height="11.803" transform="translate(28.251 51.059)" fill="#f2f1f7"/>
      <path id="Tracé_2838" data-name="Tracé 2838" d="M135.83,168.5h-11.8a.667.667,0,0,1-.667-.667v-11.8a.667.667,0,0,1,.667-.667h11.8a.667.667,0,0,1,.667.667v11.8A.667.667,0,0,1,135.83,168.5Zm-11.136-1.334h10.469V156.694H124.694Z" transform="translate(-95.776 -104.968)" fill="#5c6f99"/>
      <rect id="Rectangle_1486" data-name="Rectangle 1486" width="11.803" height="11.803" transform="translate(47.655 51.059)" fill="#f2f1f7"/>
      <path id="Tracé_2839" data-name="Tracé 2839" d="M164.936,168.5h-11.81a.667.667,0,0,1-.667-.667v-11.8a.667.667,0,0,1,.667-.667h11.81a.667.667,0,0,1,.667.667v11.8A.667.667,0,0,1,164.936,168.5Zm-11.143-1.334H164.27V156.694H153.794Z" transform="translate(-105.472 -104.968)" fill="#5c6f99"/>
      <rect id="Rectangle_1487" data-name="Rectangle 1487" width="11.803" height="11.803" transform="translate(67.067 51.059)" fill="#f2f1f7"/>
      <path id="Tracé_2840" data-name="Tracé 2840" d="M194.046,168.5h-11.81a.667.667,0,0,1-.667-.667v-11.8a.667.667,0,0,1,.667-.667h11.81a.667.667,0,0,1,.667.667v11.8A.667.667,0,0,1,194.046,168.5ZM182.9,167.163H193.38V156.694H182.9Z" transform="translate(-115.17 -104.968)" fill="#5c6f99"/>
      <rect id="Rectangle_1488" data-name="Rectangle 1488" width="11.803" height="11.803" transform="translate(86.478 51.059)" fill="#f2f1f7"/>
      <path id="Tracé_2841" data-name="Tracé 2841" d="M223.15,168.5h-11.8a.667.667,0,0,1-.667-.667v-11.8a.667.667,0,0,1,.667-.667h11.8a.667.667,0,0,1,.667.667v11.8A.667.667,0,0,1,223.15,168.5Zm-11.136-1.334h10.469V156.694H212.014Z" transform="translate(-124.869 -104.968)" fill="#5c6f99"/>
      <rect id="Rectangle_1489" data-name="Rectangle 1489" width="11.803" height="11.803" transform="translate(105.889 51.059)" fill="#fce15c"/>
      <path id="Tracé_2842" data-name="Tracé 2842" d="M252.26,168.5h-11.8a.667.667,0,0,1-.667-.667v-11.8a.667.667,0,0,1,.667-.667h11.8a.667.667,0,0,1,.667.667v11.8A.667.667,0,0,1,252.26,168.5Zm-11.136-1.334h10.469V156.694H241.124Z" transform="translate(-134.567 -104.968)" fill="#1f4076"/>
      <rect id="Rectangle_1490" data-name="Rectangle 1490" width="11.803" height="11.803" transform="translate(28.251 68.99)" fill="#f2f1f7"/>
      <path id="Tracé_2843" data-name="Tracé 2843" d="M135.83,195.437h-11.8a.667.667,0,0,1-.667-.667v-11.8a.667.667,0,0,1,.667-.667h11.8a.667.667,0,0,1,.667.667v11.8A.667.667,0,0,1,135.83,195.437ZM124.694,194.1h10.469V183.634H124.694Z" transform="translate(-95.776 -113.943)" fill="#5c6f99"/>
      <rect id="Rectangle_1491" data-name="Rectangle 1491" width="11.803" height="11.803" transform="translate(47.655 68.99)" fill="#f2f1f7"/>
      <path id="Tracé_2844" data-name="Tracé 2844" d="M164.936,195.437h-11.81a.667.667,0,0,1-.667-.667v-11.8a.667.667,0,0,1,.667-.667h11.81a.667.667,0,0,1,.667.667v11.8A.667.667,0,0,1,164.936,195.437ZM153.794,194.1H164.27V183.634H153.794Z" transform="translate(-105.472 -113.943)" fill="#1f4076"/>
      <rect id="Rectangle_1492" data-name="Rectangle 1492" width="11.803" height="11.803" transform="translate(67.067 68.99)" fill="#f2f1f7"/>
      <path id="Tracé_2845" data-name="Tracé 2845" d="M194.046,195.437h-11.81a.667.667,0,0,1-.667-.667v-11.8a.667.667,0,0,1,.667-.667h11.81a.667.667,0,0,1,.667.667v11.8A.667.667,0,0,1,194.046,195.437ZM182.9,194.1H193.38V183.634H182.9Z" transform="translate(-115.17 -113.943)" fill="#5c6f99"/>
      <rect id="Rectangle_1493" data-name="Rectangle 1493" width="11.803" height="11.803" transform="translate(86.478 68.99)" fill="#f2f1f7"/>
      <path id="Tracé_2846" data-name="Tracé 2846" d="M223.15,195.437h-11.8a.667.667,0,0,1-.667-.667v-11.8a.667.667,0,0,1,.667-.667h11.8a.667.667,0,0,1,.667.667v11.8A.667.667,0,0,1,223.15,195.437ZM212.014,194.1h10.469V183.634H212.014Z" transform="translate(-124.869 -113.943)" fill="#5c6f99"/>
      <circle id="Ellipse_256" data-name="Ellipse 256" cx="3.127" cy="3.127" r="3.127" transform="translate(41.027 11.209)" fill="#1f4076"/>
      <path id="Tracé_2847" data-name="Tracé 2847" d="M146.311,103.209a3.794,3.794,0,1,1,3.788-3.794A3.794,3.794,0,0,1,146.311,103.209Zm0-6.255a1.02,1.02,0,1,0,0-.013Z" transform="translate(-102.157 -85.064)" fill="#1f4076"/>
      <rect id="Rectangle_1494" data-name="Rectangle 1494" width="4.281" height="14.897" rx="2.141" transform="translate(42.007 0.673)" fill="#f2f1f7"/>
      <path id="Tracé_2848" data-name="Tracé 2848" d="M146.807,96.092A2.814,2.814,0,0,1,144,93.285V82.662a2.814,2.814,0,0,1,5.621,0V93.285A2.814,2.814,0,0,1,146.807,96.092Zm0-14.9a1.48,1.48,0,0,0-1.474,1.467V93.285a1.48,1.48,0,0,0,2.954,0V82.662A1.48,1.48,0,0,0,146.807,81.2Z" transform="translate(-102.653 -79.855)" fill="#1f4076"/>
      <circle id="Ellipse_257" data-name="Ellipse 257" cx="3.127" cy="3.127" r="3.127" transform="translate(98.661 11.209)" fill="#1f4076"/>
      <path id="Tracé_2849" data-name="Tracé 2849" d="M232.744,103.209a3.794,3.794,0,1,1,3.794-3.794A3.794,3.794,0,0,1,232.744,103.209Zm0-6.255a1.02,1.02,0,1,0,0-.013Z" transform="translate(-130.956 -85.064)" fill="#1f4076"/>
      <rect id="Rectangle_1495" data-name="Rectangle 1495" width="4.281" height="14.897" rx="2.141" transform="translate(99.648 0.673)" fill="#f2f1f7"/>
      <path id="Tracé_2850" data-name="Tracé 2850" d="M233.237,96.027a2.814,2.814,0,0,1-2.807-2.807V82.6a2.807,2.807,0,0,1,5.615,0V93.22A2.814,2.814,0,0,1,233.237,96.027Zm0-14.9a1.474,1.474,0,0,0-1.474,1.467V93.22a1.474,1.474,0,1,0,2.947,0V82.6A1.474,1.474,0,0,0,233.237,81.13Z" transform="translate(-131.449 -79.79)" fill="#1f4076"/>
      <path id="Tracé_2851" data-name="Tracé 2851" d="M159.281,192.787a1.047,1.047,0,0,1-.247-.033.987.987,0,0,1-.667-.587l-2-4.781a1,1,0,1,1,1.847-.767l1.46,3.534,8.6-7.055a1,1,0,1,1,1.267,1.547L159.9,192.56A1.007,1.007,0,0,1,159.281,192.787Z" transform="translate(-106.745 -114.127)" fill="#70cc40"/>
      <path id="Tracé_2852" data-name="Tracé 2852" d="M2.8,0H5.768a2.8,2.8,0,0,1,2.8,2.8V47.692H0V2.807A2.8,2.8,0,0,1,2.8,0Z" transform="translate(0 32.02) rotate(-41.45)" fill="#fce15c"/>
      <path id="Tracé_2853" data-name="Tracé 2853" d="M113.8,161.652h-.047a.667.667,0,0,1-.453-.22L83.564,127.777a3.468,3.468,0,0,1,.3-4.9l2.227-1.96a3.467,3.467,0,0,1,4.895.3L120.7,154.87a.667.667,0,0,1-.06.94l-6.4,5.675A.667.667,0,0,1,113.8,161.652ZM88.4,121.382a2.127,2.127,0,0,0-1.414.533l-2.221,1.96a2.127,2.127,0,0,0-.187,3.014l29.267,33.135,5.428-4.788L90.005,122.089A2.114,2.114,0,0,0,88.4,121.382Z" transform="translate(-82.226 -93.202)" fill="#5c6f99"/>
      <path id="Tracé_2854" data-name="Tracé 2854" d="M135.758,172.92l2.781,6.788,2.161,5.281-4.975-2.794L129.33,178.6Z" transform="translate(-97.765 -110.818)" fill="#f2f1f7"/>
      <path id="Tracé_2855" data-name="Tracé 2855" d="M140.384,185.3a.667.667,0,0,1-.327-.087l-11.336-6.388a.669.669,0,0,1-.113-1.08l6.428-5.681a.673.673,0,0,1,1.06.247l4.935,12.07a.666.666,0,0,1-.647.92Zm-10.222-7.175,8.876,4.988-3.854-9.429Z" transform="translate(-97.45 -110.479)" fill="#5c6f99"/>
      <path id="Tracé_2856" data-name="Tracé 2856" d="M140.688,181.44l2.614,6.388-6.161-3.461Z" transform="translate(-100.367 -113.657)" fill="#70cc40"/>
      <path id="Tracé_2857" data-name="Tracé 2857" d="M142.967,188.143a.667.667,0,0,1-.327-.087l-6.161-3.461a.663.663,0,0,1-.1-1.094l3.548-2.927a.667.667,0,0,1,1.04.26l2.614,6.388a.665.665,0,0,1-.613.92Zm-4.988-4.234,3.641,2.047-1.574-3.761Z" transform="translate(-100.033 -113.318)" fill="#5c6f99"/>
      <path id="Tracé_2858" data-name="Tracé 2858" d="M289.365,190.878s-6.035-12.3-5.195-20.618a15.384,15.384,0,0,1,7.2,8.669c3.574,9.909,2.747,11.956,2.747,11.956Z" transform="translate(-149.327 -109.932)" fill="#fce15c"/>
      <path id="Tracé_2859" data-name="Tracé 2859" d="M293.777,191.239H289.03a.667.667,0,0,1-.594-.373c-.253-.507-6.115-12.57-5.268-20.978a.639.639,0,0,1,.94-.513,15.939,15.939,0,0,1,7.549,9.056c3.481,9.656,2.894,12.05,2.741,12.43A.667.667,0,0,1,293.777,191.239Zm-4.321-1.334H293.2c0-.987-.213-3.908-2.794-11.063a15.517,15.517,0,0,0-6-7.789c-.2,7.162,4.114,16.837,5.055,18.845Z" transform="translate(-148.992 -109.612)" fill="#1f4076"/>
      <path id="Tracé_2860" data-name="Tracé 2860" d="M295.545,185.654s-4.534-17.544,2-29.294c0,0,3.754,4.294,4.668,14.67a26.213,26.213,0,0,1-2.714,14.35Z" transform="translate(-152.633 -105.301)" fill="#fce15c"/>
      <path id="Tracé_2861" data-name="Tracé 2861" d="M295.211,185.989a.667.667,0,0,1-.667-.5,58.017,58.017,0,0,1-1.454-10.362c-.293-5.435.08-13.21,3.521-19.418a.666.666,0,0,1,1.087-.113c.153.18,3.9,4.574,4.808,15.064a26.673,26.673,0,0,1-2.8,14.75.667.667,0,0,1-.527.327l-3.928.26Zm2.067-28.674c-5.008,10.2-2.207,24.4-1.554,27.34l2.994-.2a26.246,26.246,0,0,0,2.461-13.65c-.647-7.555-2.841-11.823-3.9-13.5Z" transform="translate(-152.299 -104.969)" fill="#1f4076"/>
      <path id="Tracé_2862" data-name="Tracé 2862" d="M299.24,189.808s1.407-11.716,10.876-19.338c0,0,2.794,8.729-5.034,20.4Z" transform="translate(-154.374 -110.002)" fill="#fce15c"/>
      <path id="Tracé_2863" data-name="Tracé 2863" d="M304.749,191.151h-.113l-5.841-1.034a.667.667,0,0,1-.547-.734c.06-.487,1.547-12.076,11.116-19.8a.666.666,0,0,1,1.054.313c.12.367,2.8,9.169-5.115,20.972A.667.667,0,0,1,304.749,191.151Zm-5.075-2.241,4.761.84c5.768-8.809,5.335-15.891,4.928-18.438-7.222,6.368-9.282,15.2-9.689,17.611Z" transform="translate(-154.042 -109.658)" fill="#1f4076"/>
      <path id="Tracé_2864" data-name="Tracé 2864" d="M302.133,211.954H290.217l-1.767-14.5h15.444Z" transform="translate(-150.78 -118.991)" fill="#f2f1f7"/>
      <path id="Tracé_2865" data-name="Tracé 2865" d="M301.818,212.287H289.882a.667.667,0,0,1-.667-.587l-1.767-14.5a.675.675,0,0,1,.667-.747h15.437a.675.675,0,0,1,.667.747l-1.734,14.5A.667.667,0,0,1,301.818,212.287Zm-11.336-1.334h10.729l1.607-13.17h-13.95Z" transform="translate(-150.444 -118.658)" fill="#1f4076"/>
    </g>
    <g id="party_2" transform="matrix(0.966, -0.259, 0.259, 0.966, -2123.647, -1759.716)">
      <path id="path3873" d="M.622,2.409Z" transform="translate(1.684 24.488)" fill="#e6e6ff"/>
      <path id="path2987" d="M8.006,1.311,10.956,0S14.9,6.314,13.971,9.5c-.67,2.293-4.385,2.479-5.506,4.588-1.2,2.25.369,5.384-.77,7.6-.514,1-5.942,3.447-5.916,6.243.036,3.775,1.345,5.49,4.916,5.948l-1.639,1.77C1.424,34.394-1.085,29.55.468,26.514c1.169-2.285,5.506-3,5.7-5.67.078-1.054-1.8-5.975-.524-8.521C6.711,10.192,11,10.693,11.611,8.39,12.288,5.83,8.006,1.311,8.006,1.311Z" transform="translate(18.344 0)" fill="#5c6f99"/>
      <path id="path2989" d="M1.971,2.294C2.234,2.163,4.4,0,4.4,0S7.722,3.49,7.805,5.7c.114,3.027-3.731,5.117-4.064,8.128-.31,2.8,1.936,5.381,2.032,8.193.1,3.016-2.682,6.108-1.573,8.914.361.914,2.36,1.77,2.36,1.77L4.528,35.4s-3.061-2.427-3.408-4.2c-.524-2.665,2.517-5.088,2.36-7.8C3.31,20.5-.15,18.306.005,15.4c.2-3.713,6.04-6.021,5.506-9.7-.235-1.621-3.54-3.408-3.54-3.408Z" transform="translate(7.14 23.007)" fill="#2c70de"/>
      <path id="path2993" d="M0,0,3.605.918,3.081,4.13l-2.1.131Z" transform="translate(33.757 14.093)" fill="#fce15c"/>
      <path id="path2997" d="M0,1.966,2.753,0,4.064,2.294,1.573,4Z" transform="translate(38.345 9.242)" fill="#fce15c"/>
      <path id="path2999" d="M2.229,0l1.9,2.163L1.311,4.129,0,2.032Z" transform="translate(40.511 21.106)" fill="#fce15c"/>
      <path id="path3001" d="M1.573,0,4.326,1.311,2.36,4.2,0,2.229Z" transform="translate(46.997 25.236)" fill="#fce15c"/>
      <path id="path3003" d="M.721,0,5.047.983l-1.9,3.54L0,3.343Z" transform="translate(19.337 6.817)" fill="#fce15c"/>
      <path id="path3005" d="M3.54,0,6.948.983l-3.8,4.785L0,2.1Z" transform="translate(13.208 15.6)" fill="#fce15c"/>
      <path id="path3007" d="M2.753,0,5.572,2.687l-1.9,2.884L0,2.491Z" transform="translate(3.605 10.946)" fill="#fce15c"/>
      <path id="path3009" d="M2.884,0l.721,2.163L1.311,3.8,0,1.77Z" transform="translate(0 21.368)" fill="#fce15c"/>
      <path id="path3011" d="M1.442,0,3.867.787,2.819,3.343,0,2.819Z" transform="translate(1.311 30.086)" fill="#fce15c"/>
      <path id="path3017" d="M.262,0C.787,0,3.277.262,3.277.262L2.753,3.671,0,3.343Z" transform="translate(3.212 44.769)" fill="#fce15c"/>
      <path id="path3019" d="M0,1.966,4.261,0,5.309,2.622,2.556,4.916Z" transform="translate(17.501 41.688)" fill="#fce15c"/>
      <path id="path3021" d="M1.278,0,3.671,1.278,2.294,4.031,0,2.032Z" transform="translate(28.775 25.563)" fill="#fce15c"/>
      <path id="path3793" d="M.521,0A5.133,5.133,0,0,1,3.4,1.378c.71.9-.032,2.457-.032,2.457S.845,4.057.259,3.343C-.45,2.479.521,0,.521,0Z" transform="translate(40.512 36.575)" fill="#fce15c"/>
      <path id="path3795" d="M1.773,0C2.3,0,4.066,2,4.066,2l-2.1,3.212S-.053,3.418,0,2.227C.043,1.28,1.773,0,1.773,0Z" transform="translate(35.066 43.589)" fill="#fce15c"/>
      <g id="g3809" transform="translate(25.521 24.318)">
        <path id="path2991" d="M9.35.2,12.431,0s.413,11.47-3.212,15.141c-1.605,1.626-4.861,2.883-6.686,1.508-1.521-1.146-1.792-4.486-.328-5.7,1.333-1.107,4.028-.156,5.047,1.245a2.013,2.013,0,0,1,.587,1.328,14.852,14.852,0,0,1-.112,1.869c-.039.382-.08.728-.108.939a14.153,14.153,0,0,1-.892,3.139c-.755,2.383-3.5,3.952-3.867,6.424a6.745,6.745,0,0,0,.655,2.622L.829,29.5S-.22,27.049.042,25.826c.642-3,4.469-4.5,5.44-7.407.6-1.782,1.429-4.344.066-5.637a1.581,1.581,0,0,0-2.032.131,1.277,1.277,0,0,0,.2,1.639c1.093.778,2.928.036,3.933-.852,1.439-1.273,1.564-3.549,1.9-5.441a47.264,47.264,0,0,0,.131-8L9.391.188Z" transform="translate(0)" fill="#2c70de"/>
      </g>
      <path id="path3833" d="M2.7,4.824,2.02,3.176l-1.61.8L1.5,2.557l-1.5-1,1.769.231L1.884,0l.684,1.648,1.61-.8L3.093,2.267l1.495,1L2.819,3.031Z" transform="translate(23.851 40.744)" fill="#717171"/>
      <path id="path3865" d="M2.7,4.824,2.02,3.176l-1.61.8L1.5,2.557l-1.5-1,1.769.231L1.884,0l.684,1.648,1.61-.8L3.093,2.267l1.495,1L2.819,3.031Z" transform="translate(39.733 29.588)" fill="#5c6f99"/>
      <path id="path3867" d="M2.7,4.824,2.02,3.176l-1.61.8L1.5,2.557l-1.5-1,1.769.231L1.884,0l.684,1.648,1.61-.8L3.093,2.267l1.495,1L2.819,3.031Z" transform="translate(28.052 17.774)" fill="#5c6f99"/>
      <path id="path3869" d="M2.7,4.824,2.02,3.176l-1.61.8L1.5,2.557l-1.5-1,1.769.231L1.884,0l.684,1.648,1.61-.8L3.093,2.267l1.495,1L2.819,3.031Z" transform="translate(2.85 24.731)" fill="#5c6f99"/>
      <path id="path3871" d="M2.7,4.824,2.02,3.176l-1.61.8L1.5,2.557l-1.5-1,1.769.231L1.884,0l.684,1.648,1.61-.8L3.093,2.267l1.495,1L2.819,3.031Z" transform="translate(6.657 3.861)" fill="#5c6f99"/>
    </g>
  </g>
</svg>
