<svg xmlns="http://www.w3.org/2000/svg" width="167.434" height="179.097" viewBox="0 0 167.434 179.097">
  <g id="_238_like_flatline" data-name="#238_like_flatline" transform="translate(-88.67 -30.911)">
    <path id="Tracé_2878" data-name="Tracé 2878" d="M173.768,41.908c4.053-7.52,10.6-12.731,20.3-9.6a10.528,10.528,0,0,0,2.669.684,23.258,23.258,0,0,0,2.775-.331c4.376-.361,7.61,3.88,9.738,7.715,3.955,7.151,11.182,16.859,9.776,25.454-1.09,6.662-7.354,11.28-13.678,13.611a43.216,43.216,0,0,1-22.319,2.038c-3.76-.647-7.648-1.91-10.355-4.64-3.76-3.8-4.512-9.663-4.226-15.039C168.851,55.789,170.467,48.066,173.768,41.908Z" transform="translate(-19.774 -0.116)" fill="#5c6f99"/>
    <path id="Tracé_2879" data-name="Tracé 2879" d="M190.215,82.36a43.246,43.246,0,0,1-7.359-.631c-4.748-.813-8.192-2.362-10.531-4.738-3.286-3.3-4.745-8.415-4.346-15.273a51.091,51.091,0,0,1,5.362-20.085c3.437-6.392,9.813-13.28,20.687-9.776l.519.18a7.738,7.738,0,0,0,2.06.489,7.519,7.519,0,0,0,1.609-.165c.361-.06.752-.128,1.12-.158,3.6-.308,7,2.354,10.069,7.888.707,1.278,1.5,2.632,2.369,4.068,3.843,6.429,8.625,14.43,7.445,21.612-.94,5.813-6.121,11-13.889,13.874A43.344,43.344,0,0,1,190.215,82.36Zm-16.22-40.4a49.969,49.969,0,0,0-5.264,19.8c-.4,6.632.993,11.6,4.121,14.754,2.256,2.256,5.572,3.76,10.167,4.512a42.787,42.787,0,0,0,22.123-2.045c7.52-2.79,12.55-7.783,13.46-13.348,1.135-6.926-3.572-14.814-7.354-21.153-.857-1.436-1.669-2.79-2.384-4.076-2.925-5.264-6.091-7.813-9.407-7.52a6.543,6.543,0,0,0-1.06.15,8.521,8.521,0,0,1-1.842.2A8.054,8.054,0,0,1,194.3,32.7l-.511-.173c-10.422-3.361-16.543,3.286-19.867,9.445Z" transform="translate(-19.655 0)" fill="#5c6f99"/>
    <path id="Tracé_2880" data-name="Tracé 2880" d="M264.952,164.127s-38.351-55.187-46.307-62.414C207.2,91.366,166.579,89.208,158.33,91.336c-14.588,3.76-24.74,26.545-24.74,26.545l24.2,7.234c.053,18.717,1.925,38.351,1.925,38.351Z" transform="translate(-11.141 -14.803)" fill="#fce15c" stroke="#5c6f99" stroke-width="1"/>
    <path id="Tracé_2881" data-name="Tracé 2881" d="M142.53,55.234c.09-.256-.083-5.113-1.421-7.715s-1.151-3.053-.068-3.9,2.256,0,3.925,2.1a10.211,10.211,0,0,1,1.677,7.663Z" transform="translate(-12.773 -3.073)" fill="#f2f1f7"/>
    <path id="Tracé_2882" data-name="Tracé 2882" d="M142.416,55.485a.376.376,0,0,1-.361-.466c.053-.444-.135-5.008-1.391-7.452s-1.316-3.324.038-4.369c1.549-1.188,3.106.489,4.444,2.166a10.562,10.562,0,0,1,1.752,7.963.391.391,0,0,1-.218.278l-4.106,1.842A.406.406,0,0,1,142.416,55.485ZM141.8,43.551a1.03,1.03,0,0,0-.639.248c-.857.654-1.143.88.165,3.421,1.113,2.158,1.451,5.768,1.5,7.3l3.384-1.5a9.772,9.772,0,0,0-1.632-7.174c-1.391-1.722-2.188-2.294-2.782-2.294Z" transform="translate(-12.658 -2.948)" fill="#1f4076"/>
    <path id="Tracé_2883" data-name="Tracé 2883" d="M137.1,75.294c.173-.248.421-17.762,1.008-18.183s7.46-2.512,10.475-2.512,3.76,1.256,2.685,2.429c0,0,3.519,1.594,1.173,4.61a2.9,2.9,0,0,1,0,4.106c1.624,2.173,0,4.948-1.752,6.437-2.03,1.684-4.925,1.647-4.91,4.625.038,10.58.985,21.266.211,31.839-.5,6.873-4.512,16.762-11.648,15.085s-7.625-14.829-5.535-21.807S137.1,75.294,137.1,75.294Z" transform="translate(-9.686 -5.876)" fill="#f2f1f7"/>
    <path id="Tracé_2884" data-name="Tracé 2884" d="M135.793,124.166a7.519,7.519,0,0,1-1.669-.2,7.309,7.309,0,0,1-4.662-3.76c-2.767-4.783-2.752-13.175-1.143-18.521,2.075-6.873,8.272-26.454,8.272-26.65h0c.053-.308.12-2.549.2-4.91.376-11.9.572-13.19.947-13.46.624-.444,7.6-2.579,10.693-2.579,1.842,0,3.061.459,3.422,1.293a1.429,1.429,0,0,1-.173,1.391,3.715,3.715,0,0,1,1.715,2.113,3.158,3.158,0,0,1-.624,2.594,3.166,3.166,0,0,1,0,4.158c1.369,2.181.075,4.978-1.993,6.693a10.663,10.663,0,0,1-2.2,1.316c-1.444.7-2.579,1.256-2.572,3.008,0,3.647.135,7.377.256,10.986a199.454,199.454,0,0,1-.045,20.882c-.361,4.865-2.489,11.385-6.332,14.2a6.866,6.866,0,0,1-4.083,1.436Zm1.5-48.878c-.278.887-6.256,19.867-8.272,26.612-1.564,5.2-1.587,13.317,1.075,17.927a6.557,6.557,0,0,0,4.181,3.384,6.016,6.016,0,0,0,5.159-1.083c3.655-2.685,5.685-8.964,6.016-13.656a198.037,198.037,0,0,0,.045-20.807c-.12-3.609-.248-7.347-.256-11.009,0-2.256,1.5-3.008,3.008-3.7a9.85,9.85,0,0,0,2.053-1.218c1.5-1.256,3.226-3.873,1.692-5.918a.384.384,0,0,1,0-.5,2.516,2.516,0,0,0,0-3.579.376.376,0,0,1,0-.489,2.579,2.579,0,0,0,.677-2.2,3.309,3.309,0,0,0-1.707-1.842.353.353,0,0,1-.21-.263.376.376,0,0,1,.09-.331c.188-.2.481-.6.331-.955s-.993-.842-2.737-.842c-2.9,0-9.362,1.978-10.2,2.406-.316.97-.556,8.708-.692,12.9a45.149,45.149,0,0,1-.226,5.174ZM138.252,57.181Z" transform="translate(-9.562 -5.749)" fill="#1f4076"/>
    <path id="Tracé_2885" data-name="Tracé 2885" d="M151.526,59.089a.38.38,0,1,1-.113-.752,47.129,47.129,0,0,1,5.625-1.008.376.376,0,0,1,.421.323.368.368,0,0,1-.323.421,49.828,49.828,0,0,0-5.467.993A.3.3,0,0,1,151.526,59.089Z" transform="translate(-15.482 -6.552)" fill="#1f4076"/>
    <path id="Tracé_2886" data-name="Tracé 2886" d="M152.469,65.119a.383.383,0,0,1-.15-.752c1.722-.752,5.948-.94,6.121-.947a.376.376,0,0,1,.4.353.384.384,0,0,1-.361.4c-.038,0-4.264.211-5.858.887a.361.361,0,0,1-.15.06Z" transform="translate(-15.71 -8.063)" fill="#1f4076"/>
    <path id="Tracé_2887" data-name="Tracé 2887" d="M154.5,70.8a.376.376,0,0,1-.353-.233.383.383,0,0,1,.2-.489,21.535,21.535,0,0,1,4.58-1.158.376.376,0,0,1,.421.323.369.369,0,0,1-.323.421,21.221,21.221,0,0,0-4.384,1.105A.346.346,0,0,1,154.5,70.8Z" transform="translate(-16.235 -9.426)" fill="#1f4076"/>
    <path id="Tracé_2888" data-name="Tracé 2888" d="M164.193,151.737h0a.383.383,0,0,1-.353-.414l3.271-42.863a.391.391,0,0,1,.421-.361.383.383,0,0,1,.353.421l-3.271,42.863a.384.384,0,0,1-.421.353Z" transform="translate(-18.644 -19.145)" fill="#5c6f99"/>
    <path id="Tracé_2889" data-name="Tracé 2889" d="M192.222,106.969a14.956,14.956,0,0,0,11.137,5.85,4.467,4.467,0,0,0,1.669-.226,4.1,4.1,0,0,0,1.8-1.5c1.97-2.707,2.053-6.354,1.557-9.663-.353-2.324-1.03-4.76-2.79-6.317-2.068-1.827-5.068-2-7.828-2.075s-9.159-.88-10.182,2.519C186.635,98.66,190.4,104.706,192.222,106.969Z" transform="translate(-24.497 -15.375)" fill="#1f4076"/>
    <path id="Tracé_2890" data-name="Tracé 2890" d="M203.414,113.034h-.173a15.356,15.356,0,0,1-11.385-5.971h0c-1.963-2.436-5.685-8.5-4.7-11.723s6.241-3.008,9.37-2.812l1.151.053c3.045.09,5.948.316,8.031,2.158s2.6,4.564,2.9,6.52c.639,4.226.1,7.52-1.609,9.9a4.324,4.324,0,0,1-1.955,1.624A4.511,4.511,0,0,1,203.414,113.034Zm-9.452-19.927c-2.647,0-5.542.384-6.166,2.429-.91,2.94,2.76,8.858,4.572,11.114h0a14.7,14.7,0,0,0,10.881,5.723,4.339,4.339,0,0,0,1.557-.2,3.76,3.76,0,0,0,1.654-1.4c1.594-2.2,2.1-5.369,1.5-9.415-.278-1.857-.857-4.512-2.677-6.121s-4.7-1.91-7.617-1.993a9.04,9.04,0,0,1-1.158-.053C195.744,93.152,194.864,93.107,193.962,93.107Z" transform="translate(-24.387 -15.259)" fill="#1f4076"/>
    <path id="Tracé_2891" data-name="Tracé 2891" d="M216.825,64.285a6.978,6.978,0,0,1,1.384-2.549,2.384,2.384,0,0,1,2.662-.632,2.256,2.256,0,0,1,1.1,1.8,5.135,5.135,0,0,1-.361,2.166,8.625,8.625,0,0,1-2.113,3.467,5.008,5.008,0,0,1-3.685,1.466" transform="translate(-31.534 -7.447)" fill="#f2f1f7"/>
    <path id="Tracé_2892" data-name="Tracé 2892" d="M216,70.2h-.308a.308.308,0,0,1-.278-.323.293.293,0,0,1,.323-.278,4.707,4.707,0,0,0,3.482-1.369,8.272,8.272,0,0,0,2.03-3.346,4.783,4.783,0,0,0,.346-2.038,1.955,1.955,0,0,0-.955-1.572,2.106,2.106,0,0,0-2.316.572A6.977,6.977,0,0,0,217,64.3a.293.293,0,0,1-.384.173.3.3,0,0,1-.18-.383,7.308,7.308,0,0,1,1.459-2.662,2.684,2.684,0,0,1,3.008-.684,2.534,2.534,0,0,1,1.278,2.045,5.263,5.263,0,0,1-.376,2.256,8.79,8.79,0,0,1-2.2,3.617A5.346,5.346,0,0,1,216,70.2Z" transform="translate(-31.435 -7.35)" fill="#1f4076"/>
    <path id="Tracé_2893" data-name="Tracé 2893" d="M204.761,72.95l1.166,11.6s-.564,6.595-7.813,5.264A14.664,14.664,0,0,1,188,82.4l.271-20.807c-.045-.85,1.722-3.76.887-11.114A17.98,17.98,0,0,0,201.769,43.3s3.361,4.151,4.775,5.437a17.633,17.633,0,0,1,3.008,3.241c2.256,3.384,2.158,8.9,1.617,12.784C210.642,67.95,208.792,73.033,204.761,72.95Z" transform="translate(-24.636 -3.073)" fill="#f2f1f7"/>
    <path id="Tracé_2894" data-name="Tracé 2894" d="M199.809,90.239a10.526,10.526,0,0,1-1.872-.18,15.13,15.13,0,0,1-10.4-7.633.346.346,0,0,1,0-.15s.271-20.672.271-20.8a4.413,4.413,0,0,1,.233-1.09A23.416,23.416,0,0,0,188.7,50.4a.331.331,0,0,1,.075-.248.3.3,0,0,1,.226-.128A17.739,17.739,0,0,0,201.359,43a.348.348,0,0,1,.556-.023s3.361,4.143,4.745,5.392a17.763,17.763,0,0,1,3.008,3.309c2.6,3.94,2.03,10.4,1.669,12.994-.436,3.106-2.256,8.272-6.294,8.5l1.12,11.227a6.918,6.918,0,0,1-2.451,4.625A6.211,6.211,0,0,1,199.809,90.239ZM188.191,82.2a14.445,14.445,0,0,0,9.873,7.181,6.434,6.434,0,0,0,5.211-.895,6.347,6.347,0,0,0,2.188-4.083l-1.158-11.528a.361.361,0,0,1,.09-.271.353.353,0,0,1,.256-.105h.09c3.76,0,5.482-4.971,5.9-7.926.361-2.519.917-8.768-1.557-12.513a17.43,17.43,0,0,0-2.925-3.188,67.9,67.9,0,0,1-4.512-5.121,18.649,18.649,0,0,1-12.257,6.911,23.172,23.172,0,0,1-.752,9.911,4.364,4.364,0,0,0-.2.887S188.462,61.484,188.191,82.2Z" transform="translate(-24.52 -2.961)" fill="#1f4076"/>
    <path id="Tracé_2895" data-name="Tracé 2895" d="M207.514,86.193a10.317,10.317,0,0,1-5.655-.6c-4.128-1.451-4.369-4.271-4.369-4.271s3.474,2.181,9.625,1.038Z" transform="translate(-26.99 -12.503)" fill="#1f4076"/>
    <path id="Tracé_2896" data-name="Tracé 2896" d="M205.727,86.594a12.671,12.671,0,0,1-4.091-.752c-4.279-1.5-4.572-4.429-4.587-4.512a.331.331,0,0,1,.511-.308s3.452,2.1,9.385.993a.353.353,0,0,1,.263.06.308.308,0,0,1,.128.233l.391,3.76a.338.338,0,0,1-.113.346.316.316,0,0,1-.241.083h0a8.6,8.6,0,0,1-1.647.1Zm-7.843-4.707c.331.865,1.278,2.376,3.978,3.324a10.648,10.648,0,0,0,5.181.609l-.323-3.136a15.11,15.11,0,0,1-8.836-.8Z" transform="translate(-26.881 -12.415)" fill="#1f4076"/>
    <path id="Tracé_2897" data-name="Tracé 2897" d="M203.55,57.77s4.286,5.2,3.5,6.256-3.331.662-3.331.662" transform="translate(-28.493 -6.662)" fill="#f2f1f7"/>
    <path id="Tracé_2898" data-name="Tracé 2898" d="M204.661,64.986a8.429,8.429,0,0,1-1.113-.075.338.338,0,0,1,.105-.662c.654.105,2.466.2,3.008-.534.338-.451-1.293-3.181-3.5-5.843a.331.331,0,0,1,.045-.466.346.346,0,0,1,.474.045c1.339,1.624,4.361,5.519,3.512,6.662A3.176,3.176,0,0,1,204.661,64.986Z" transform="translate(-28.379 -6.553)" fill="#1f4076"/>
    <ellipse id="Ellipse_268" data-name="Ellipse 268" cx="0.639" cy="1.211" rx="0.639" ry="1.211" transform="translate(179.468 49.987) rotate(-7.62)" fill="#1f4076"/>
    <ellipse id="Ellipse_269" data-name="Ellipse 269" cx="0.639" cy="1.211" rx="0.639" ry="1.211" transform="matrix(1, -0.012, 0.012, 1, 169.208, 49.903)" fill="#1f4076"/>
    <path id="Tracé_2899" data-name="Tracé 2899" d="M189.259,62.074a8.271,8.271,0,0,0-1.3-2.76,3.677,3.677,0,0,0-3.008-1.5,2.391,2.391,0,0,0-1.842.985,3.4,3.4,0,0,0-.466,1.384c-.384,2.579.481,5.941,2.91,7.272a2.572,2.572,0,0,0,2.737,0" transform="translate(-23.286 -6.672)" fill="#f2f1f7"/>
    <path id="Tracé_2900" data-name="Tracé 2900" d="M186.988,68.035a3.655,3.655,0,0,1-1.677-.451c-2.542-1.4-3.459-4.865-3.061-7.58a3.617,3.617,0,0,1,.511-1.5,2.685,2.685,0,0,1,2.068-1.12,4,4,0,0,1,3.264,1.647,8.468,8.468,0,0,1,1.354,2.857.3.3,0,0,1-.2.368.286.286,0,0,1-.368-.2,8.018,8.018,0,0,0-1.248-2.662,3.354,3.354,0,0,0-2.76-1.414,2.1,2.1,0,0,0-1.609.85,3.009,3.009,0,0,0-.414,1.263c-.376,2.5.451,5.7,2.752,6.963a2.256,2.256,0,0,0,2.406.06.308.308,0,0,1,.421.053.3.3,0,0,1-.053.421A2.256,2.256,0,0,1,186.988,68.035Z" transform="translate(-23.188 -6.565)" fill="#1f4076"/>
    <path id="Tracé_2901" data-name="Tracé 2901" d="M242.215,165.794a.391.391,0,0,1-.383-.323c-2.579-16.1-7.52-46.788-7.745-47.72a.391.391,0,0,1,.278-.474.4.4,0,0,1,.474.286c.293,1.2,7.452,45.87,7.76,47.78a.391.391,0,0,1-.323.444Z" transform="translate(-36.064 -21.419)" fill="#5c6f99"/>
    <path id="Tracé_2902" data-name="Tracé 2902" d="M244.884,126.91H100.106c-6.068,0-10.986,5.219-10.986,11.641v63.384c0,6.429,4.918,11.633,10.986,11.633h54.826l15.039,19.9,18.5-19.9h56.451c6.068,0,10.994-5.2,10.994-11.633V138.551C255.878,132.129,250.952,126.91,244.884,126.91Z" transform="translate(-0.112 -23.81)" fill="#f2f1f7"/>
    <path id="Tracé_2903" data-name="Tracé 2903" d="M169.823,233.706h0a.376.376,0,0,1-.256-.135l-14.9-19.769H99.995c-6.249,0-11.325-5.377-11.325-11.979V138.439c0-6.6,5.076-11.979,11.325-11.979H244.772c6.249,0,11.332,5.377,11.332,11.979v63.384c0,6.6-5.083,11.979-11.332,11.979h-56.3l-18.4,19.792A.331.331,0,0,1,169.823,233.706ZM99.995,127.144c-5.865,0-10.64,5.068-10.64,11.28v63.384c0,6.226,4.775,11.28,10.64,11.28h54.826a.323.323,0,0,1,.271.135l14.754,19.551,18.228-19.6a.331.331,0,0,1,.248-.105h56.451c5.873,0,10.648-5.068,10.648-11.28V138.439c0-6.226-4.775-11.28-10.648-11.28Z" transform="translate(0 -23.699)" fill="#1f4076"/>
    <path id="Tracé_2904" data-name="Tracé 2904" d="M234.442,178.3c-.075,3.918-4.933,5.016-4.933,5.016s4.113.421,2.587,4.166a6.685,6.685,0,0,1-5.068,4.151s3.452,1.955.948,5.557-27.575,3.354-31.733,3.5a10.008,10.008,0,0,1-6.271-1.391c-1.339-.752-3.662-2.527-4.512-2.527-2.354,0-11.889.632-11.889.632l2.256-28.1s12.626,0,14.949-2.075c6.106-5.414,9.994-15.122,9.437-20.815s-2.136-9.708,1.887-10.122,8.272,7.768,8.8,13.039-2.218,11.656-.97,13.739,4.85,2.5,10.528,1.94,10.881-1.241,13.114,1.3,2.113,6.294-2.888,8.377C230.712,174.681,234.495,175.666,234.442,178.3Z" transform="translate(-21.057 -26.132)" fill="#f2f1f7" stroke="#1f4076" stroke-width="1"/>
    <path id="Tracé_2905" data-name="Tracé 2905" d="M195.075,200.958a9.776,9.776,0,0,1-5.4-1.459c-.489-.263-1.075-.647-1.707-1.053a9.833,9.833,0,0,0-2.624-1.429c-2.316,0-11.768.624-11.866.632a.4.4,0,0,1-.293-.113.391.391,0,0,1-.105-.293l2.256-28.1a.376.376,0,0,1,.376-.346c3.474,0,12.881-.368,14.7-1.985,4.925-4.361,9.964-13.851,9.309-20.491-.105-1.12-.256-2.151-.391-3.151-.4-2.8-.714-5,.293-6.287a3.2,3.2,0,0,1,2.324-1.1c4.264-.444,8.618,7.775,9.212,13.378a27.971,27.971,0,0,1-.752,8.046c-.5,2.527-.857,4.595-.293,5.535,1.083,1.8,4.219,2.339,10.182,1.76l.985-.1c5.482-.541,10.219-1.008,12.445,1.5a5.264,5.264,0,0,1,1.369,4.632c-.263,1.143-1.105,2.7-3.534,3.948,1.2.5,3.143,1.617,3.106,3.67-.053,2.865-2.489,4.324-4.016,4.963a3.008,3.008,0,0,1,1.647,4.354,7.053,7.053,0,0,1-4.549,4.2,4.09,4.09,0,0,1,1.278,2.083,4.4,4.4,0,0,1-.887,3.5c-2,2.888-15.934,3.444-29.327,3.609-1.226,0-2.173,0-2.737.045Zm-9.731-4.692c.609,0,1.557.587,3.008,1.557.609.391,1.188.752,1.639,1.015a9.625,9.625,0,0,0,6.083,1.346c.564,0,1.5,0,2.752-.045,7.287-.09,26.642-.331,28.688-3.286a3.218,3.218,0,0,0-.827-5.016.376.376,0,0,1-.18-.406.361.361,0,0,1,.323-.293,6.271,6.271,0,0,0,4.768-3.925,2.617,2.617,0,0,0,.075-2.391,3.434,3.434,0,0,0-2.339-1.271A.368.368,0,0,1,229,183.2a.383.383,0,0,1,.286-.391c.053,0,4.579-1.083,4.647-4.655h0c.045-2.3-3.414-3.233-3.444-3.249a.368.368,0,0,1-.053-.707c2.218-.925,3.579-2.256,3.94-3.82a4.512,4.512,0,0,0-1.2-3.963c-1.97-2.256-6.527-1.8-11.806-1.271l-.985.128c-6.286.609-9.648-.045-10.9-2.128-.707-1.181-.308-3.331.2-6.053a28.228,28.228,0,0,0,.714-7.836c-.534-5.053-4.685-13.084-8.384-12.7a2.452,2.452,0,0,0-1.8.812c-.812,1.03-.519,3.1-.143,5.715.135.963.286,2.053.4,3.181.549,5.632-3.158,15.461-9.558,21.13-2.211,1.963-12.784,2.158-14.859,2.173l-2.2,27.289C175.779,196.747,183.261,196.266,185.344,196.266Z" transform="translate(-20.936 -26.007)" fill="#1f4076" stroke="#1f4076" stroke-width="0.5"/>
    <path id="Tracé_2906" data-name="Tracé 2906" d="M238.756,188.369a.376.376,0,0,1,0-.752,36.469,36.469,0,0,0,7.933-.752.391.391,0,1,1,.218.752,36.929,36.929,0,0,1-8.136.752Z" transform="translate(-37.132 -38.677)" fill="#1f4076" stroke="#1f4076" stroke-width="0.5"/>
    <path id="Tracé_2907" data-name="Tracé 2907" d="M239.885,199.752h-.429a.376.376,0,1,1,0-.752h0a20.152,20.152,0,0,0,6.166-.647.376.376,0,0,1,.474.233.361.361,0,0,1-.226.474A19.292,19.292,0,0,1,239.885,199.752Z" transform="translate(-37.306 -41.525)" fill="#1f4076" stroke="#1f4076" stroke-width="0.5"/>
    <path id="Tracé_2908" data-name="Tracé 2908" d="M239.456,210.638a.376.376,0,0,1-.376-.376.384.384,0,0,1,.376-.376,11.782,11.782,0,0,0,3.685-.474.377.377,0,0,1,.263.707A12.327,12.327,0,0,1,239.456,210.638Z" transform="translate(-37.306 -44.267)" fill="#1f4076" stroke="#1f4076" stroke-width="0.5"/>
    <path id="Tracé_2909" data-name="Tracé 2909" d="M174.751,210.389l-33.861,1.4V174.4l33.861,1.4Z" transform="translate(-12.952 -35.589)" fill="#fce15c" stroke="#5c6f99" stroke-width="1"/>
    <circle id="Ellipse_270" data-name="Ellipse 270" cx="3.158" cy="3.158" r="3.158" transform="translate(148.249 143.421)" fill="#5c6f99"/>
    <path id="Tracé_2910" data-name="Tracé 2910" d="M170.947,187.058a3.489,3.489,0,1,1,3.482-3.482,3.489,3.489,0,0,1-3.482,3.482Zm0-6.309a2.816,2.816,0,1,1,0,.023Z" transform="translate(-19.539 -36.998)" fill="#5c6f99"/>
    <path id="Tracé_2911" data-name="Tracé 2911" d="M267.1,71.82a9.4,9.4,0,0,0,7.174,7.166,9.4,9.4,0,0,0-7.166,7.166,9.4,9.4,0,0,0-7.166-7.166,7.878,7.878,0,0,0,4.632-2.534A8.064,8.064,0,0,0,267.1,71.82Z" transform="translate(-42.479 -10.147)" fill="#f2f1f7"/>
    <path id="Tracé_2912" data-name="Tracé 2912" d="M101.812,83.88a7.2,7.2,0,0,0,5.482,5.482,7.174,7.174,0,0,0-5.482,5.482,7.174,7.174,0,0,0-5.482-5.482A7.2,7.2,0,0,0,101.812,83.88Z" transform="translate(-1.9 -13.138)" fill="#f2f1f7"/>
    <path id="Tracé_2913" data-name="Tracé 2913" d="M124,53.41a5.677,5.677,0,0,0,4.324,4.331A5.647,5.647,0,0,0,124,62.065a5.677,5.677,0,0,0-4.324-4.324A5.59,5.59,0,0,0,124,53.41Z" transform="translate(-7.691 -5.58)" fill="#f2f1f7"/>
    <path id="Tracé_2914" data-name="Tracé 2914" d="M203.495,73.788c-5.557,0-7.332-7.332-7.407-7.648a.338.338,0,0,1,.256-.4.331.331,0,0,1,.4.248c0,.068,1.722,7.136,6.768,7.136a3.564,3.564,0,0,0,2.79-1.181c1.737-1.978,1.271-5.813,1.263-5.85a.331.331,0,0,1,.286-.376.346.346,0,0,1,.376.286c0,.173.519,4.173-1.421,6.377A4.2,4.2,0,0,1,203.495,73.788Z" transform="translate(-26.641 -8.633)" fill="#1f4076"/>
    <path id="Tracé_2915" data-name="Tracé 2915" d="M265.434,120.261c-2.827-.917-6.181-1.5-8.565.286a9.581,9.581,0,0,0-2.572,3.5A63.571,63.571,0,0,0,250.929,132c-.241.752-.406,1.654.211,2.075.752.519,1.692-.308,2.166-1.083a18.2,18.2,0,0,0,1.985-4.437,26.825,26.825,0,0,0-2.256,7.023,1.5,1.5,0,0,0,0,.9,1.105,1.105,0,0,0,1.5.4,3.046,3.046,0,0,0,1.2-1.241,32.556,32.556,0,0,0,3.008-6.512,21.38,21.38,0,0,0-1.4,7.279,1.5,1.5,0,0,0,.4,1.151,1.083,1.083,0,0,0,1.3-.1,3.129,3.129,0,0,0,.752-1.15l3.008-6.2a29,29,0,0,0-1.075,7.084,1.12,1.12,0,0,0,.09.587c.331.624,1.316.2,1.73-.376a9.37,9.37,0,0,0,1.316-3.256c.8-3.008,1.5-6.129,2.429-9.129C268.066,122.547,268.352,121.209,265.434,120.261Z" transform="translate(-40.191 -21.944)" fill="#f2f1f7"/>
    <path id="Tracé_2916" data-name="Tracé 2916" d="M262.26,138.3h-.083a.91.91,0,0,1-.752-.489,1.6,1.6,0,0,1-.128-.752,30.082,30.082,0,0,1,.414-4.181l-1.662,3.459a3.428,3.428,0,0,1-.88,1.278,1.4,1.4,0,0,1-1.729.09,1.812,1.812,0,0,1-.526-1.406,14.223,14.223,0,0,1,.2-2.715,22.806,22.806,0,0,1-1.173,2.113,3.293,3.293,0,0,1-1.293,1.391,1.617,1.617,0,0,1-1.256.068,1.211,1.211,0,0,1-.7-.632,1.9,1.9,0,0,1-.053-1.1c.09-.556.2-1.113.331-1.662a2.346,2.346,0,0,1-1.135.692,1.211,1.211,0,0,1-.978-.2c-.436-.3-.85-.978-.338-2.474A63.669,63.669,0,0,1,253.9,123.8a9.948,9.948,0,0,1,2.677-3.632c2.023-1.5,4.918-1.617,8.873-.331h0c3.2,1.038,2.873,2.639,2.09,5.166-.617,1.985-1.135,4.053-1.639,6.016-.263,1.023-.519,2.045-.752,3.061a9.836,9.836,0,0,1-1.369,3.369A2,2,0,0,1,262.26,138.3Zm.444-8.655a.338.338,0,0,1,.12,0,.346.346,0,0,1,.211.414,28.211,28.211,0,0,0-1.06,6.993.864.864,0,0,0,.045.414.226.226,0,0,0,.2.128,1.346,1.346,0,0,0,.948-.541,9.234,9.234,0,0,0,1.263-3.136c.271-1.015.526-2.038.752-3.053.5-2.008,1.03-4.091,1.654-6.091.752-2.436.955-3.459-1.654-4.309h0c-3.715-1.211-6.414-1.135-8.272.226a9.272,9.272,0,0,0-2.474,3.391,62.4,62.4,0,0,0-3.346,7.9c-.165.489-.376,1.361.083,1.684a.557.557,0,0,0,.451.083,2.324,2.324,0,0,0,1.233-1.068,10.6,10.6,0,0,0,.669-1.188,27.65,27.65,0,0,1,1.293-3.218.353.353,0,0,1,.436-.173.346.346,0,0,1,.2.421,18.833,18.833,0,0,1-1.293,3.234,26.545,26.545,0,0,0-.925,3.76,1.316,1.316,0,0,0,0,.707.534.534,0,0,0,.308.263.962.962,0,0,0,.752,0,2.744,2.744,0,0,0,1.008-1.128,32.509,32.509,0,0,0,2.97-6.444.346.346,0,0,1,.654.211,22.388,22.388,0,0,0-1.376,7.166,1.2,1.2,0,0,0,.271.895.752.752,0,0,0,.865-.1,2.9,2.9,0,0,0,.692-1.03l3.008-6.2a.331.331,0,0,1,.308-.218Z" transform="translate(-40.085 -21.836)" fill="#1f4076"/>
  </g>
</svg>
