<svg xmlns="http://www.w3.org/2000/svg" xmlns:xlink="http://www.w3.org/1999/xlink" width="330" height="268" viewBox="0 0 330 268">
  <defs>
    <filter id="Rectangle_2402" x="0" y="0" width="330" height="268" filterUnits="userSpaceOnUse">
      <feOffset dx="1" dy="1" input="SourceAlpha"/>
      <feGaussianBlur stdDeviation="5" result="blur"/>
      <feFlood flood-opacity="0.102"/>
      <feComposite operator="in" in2="blur"/>
      <feComposite in="SourceGraphic"/>
    </filter>
  </defs>
  <g id="Groupe_2094" data-name="Groupe 2094" transform="translate(28.943 -364)">
    <g id="Groupe_2092" data-name="Groupe 2092" transform="translate(-15 378)">
      <g transform="matrix(1, 0, 0, 1, -13.94, -14)" filter="url(#Rectangle_2402)">
        <rect id="Rectangle_2402-2" data-name="Rectangle 2402" width="300" height="238" rx="10" transform="translate(14 14)" fill="#e4e5ee"/>
      </g>
      <circle id="Ellipse_413" data-name="Ellipse 413" cx="104" cy="104" r="104" transform="translate(44.057 13)" fill="#d4d5dd"/>
      <path id="Icon_ionic-ios-arrow-back" data-name="Icon ionic-ios-arrow-back" d="M13.309,12.163l4.518-4.515a.853.853,0,0,0-1.209-1.205L11.5,11.559a.852.852,0,0,0-.025,1.177l5.141,5.151a.853.853,0,1,0,1.209-1.205Z" transform="translate(218.204 21.888)" fill="#a9aab0"/>
      <path id="Icon_ionic-ios-arrow-back-2" data-name="Icon ionic-ios-arrow-back" d="M16.019,12.163,11.5,7.648A.853.853,0,0,1,12.71,6.443l5.119,5.116a.852.852,0,0,1,.025,1.177l-5.14,5.151A.853.853,0,0,1,11.5,16.681Z" transform="translate(256.867 21.888)" fill="#69696d"/>
    </g>
    <g id="Groupe_2091" data-name="Groupe 2091" transform="translate(43.509 405.77)">
      <path id="Tracé_4610" data-name="Tracé 4610" d="M3.446-2.028H5.095v-10.59H3.476L.072-10.7l.847,1.18,2.527-1.407Z" transform="translate(127.23 24.672)" fill="#274072"/>
      <path id="Tracé_4624" data-name="Tracé 4624" d="M3.2-1.786H4.4V-11.2H3.189L.1-9.492l.619.861L3.2-9.976ZM6.417-4.5H11.1v2.716h1.21V-4.5H13.4V-5.592H12.307V-11.2H10.841L6.417-5.592ZM7.708-5.592,11.1-9.882v4.29Z" transform="translate(129.747 69.833)" fill="#30384b"/>
      <path id="Tracé_4625" data-name="Tracé 4625" d="M3.2-1.786H4.4V-11.2H3.189L.1-9.492l.619.861L3.2-9.976ZM7.371-6.251H9.953c1.318,0,2.084.726,2.084,1.815A1.846,1.846,0,0,1,9.98-2.607,2.533,2.533,0,0,1,7.6-4.086l-1.062.659a3.721,3.721,0,0,0,3.456,1.91,2.989,2.989,0,0,0,3.281-2.959c0-1.668-1.049-2.878-3.268-2.878H8.649l.161-2.757h4.021V-11.2H7.654Z" transform="translate(137.312 97.569)" fill="#30384b"/>
      <path id="Tracé_4626" data-name="Tracé 4626" d="M3.2-1.837H4.4v-9.414H3.189L.1-9.543l.619.861L3.2-10.027Zm7.5-9.683C8.03-11.52,6.833-9.449,6.833-6.4c0,3.268,1.385,4.828,3.591,4.828a3.079,3.079,0,0,0,3.241-3.16A2.9,2.9,0,0,0,10.68-7.714a3.58,3.58,0,0,0-2.6,1.049c.067-2.326.914-3.752,2.636-3.752A2.385,2.385,0,0,1,12.777-9.18l.955-.74A3.434,3.434,0,0,0,10.706-11.52Zm-.215,4.9A1.881,1.881,0,0,1,12.4-4.688a1.909,1.909,0,0,1-2,2.017c-1.2,0-2.058-.753-2.259-2.743A2.79,2.79,0,0,1,10.491-6.625Z" transform="translate(129.747 125.357)" fill="#30384b"/>
      <path id="Tracé_4627" data-name="Tracé 4627" d="M3.2-1.786H4.4V-11.2H3.189L.1-9.492l.619.861L3.2-9.976Zm5.339,0,4.868-8.324V-11.2H6.874v1.089h5.245L7.143-1.786Z" transform="translate(109.575 145.478)" fill="#30384b"/>
      <path id="Tracé_4628" data-name="Tracé 4628" d="M3.2-1.837H4.4v-9.414H3.189L.1-9.543l.619.861L3.2-10.027Zm6.939-9.683c-1.9,0-2.985,1.116-2.985,2.461A2.158,2.158,0,0,0,8.541-6.988,2.578,2.578,0,0,0,6.712-4.446c0,1.627,1.291,2.878,3.429,2.878s3.429-1.251,3.429-2.878a2.578,2.578,0,0,0-1.829-2.542,2.165,2.165,0,0,0,1.372-2.071C13.114-10.4,12.024-11.52,10.142-11.52Zm.013,4.075A1.539,1.539,0,0,1,8.42-8.951a1.548,1.548,0,0,1,1.735-1.52,1.546,1.546,0,0,1,1.708,1.52A1.544,1.544,0,0,1,10.155-7.445Zm0,4.814A1.937,1.937,0,0,1,7.963-4.5a1.965,1.965,0,0,1,2.192-1.91A1.956,1.956,0,0,1,12.32-4.5,1.935,1.935,0,0,1,10.155-2.631Z" transform="translate(82.679 153.093)" fill="#30384b"/>
      <path id="Tracé_4629" data-name="Tracé 4629" d="M3.2-1.837H4.4v-9.414H3.189L.1-9.543l.619.861L3.2-10.027Zm6.589.269c2.676,0,3.886-2.071,3.886-5.124,0-3.268-1.385-4.828-3.591-4.828A3.071,3.071,0,0,0,6.847-8.36,2.9,2.9,0,0,0,9.819-5.374a3.547,3.547,0,0,0,2.609-1.062c-.054,2.34-.914,3.765-2.636,3.765A2.354,2.354,0,0,1,7.734-3.908l-.968.74A3.417,3.417,0,0,0,9.792-1.569ZM8.1-8.4a1.916,1.916,0,0,1,2-2.017c1.183,0,2.071.753,2.273,2.73a2.761,2.761,0,0,1-2.367,1.224A1.881,1.881,0,0,1,8.1-8.4Z" transform="translate(54.103 145.529)" fill="#30384b"/>
      <path id="Tracé_4630" data-name="Tracé 4630" d="M1.075-1.837H7.369V-2.927h-4.8L5.15-5.549C6.28-6.733,7.113-7.687,7.113-8.965A2.615,2.615,0,0,0,4.289-11.52a3.714,3.714,0,0,0-3.281,1.9l1,.605A2.433,2.433,0,0,1,4.2-10.431,1.516,1.516,0,0,1,5.863-8.884c0,1-.5,1.52-1.6,2.676L1.075-2.927ZM12.25-11.52c-2.34,0-3.51,2.179-3.51,4.976s1.17,4.976,3.51,4.976c2.367,0,3.523-2.179,3.523-4.976S14.617-11.52,12.25-11.52Zm.013,1.13c1.493,0,2.259,1.641,2.259,3.846S13.757-2.7,12.264-2.7,9.978-4.339,9.978-6.544,10.758-10.39,12.264-10.39Z" transform="translate(32.945 125.357)" fill="#30384b"/>
      <path id="Tracé_4631" data-name="Tracé 4631" d="M1.075-1.837H7.369V-2.927h-4.8L5.15-5.549C6.28-6.733,7.113-7.687,7.113-8.965A2.615,2.615,0,0,0,4.289-11.52a3.714,3.714,0,0,0-3.281,1.9l1,.605A2.433,2.433,0,0,1,4.2-10.431,1.516,1.516,0,0,1,5.863-8.884c0,1-.5,1.52-1.6,2.676L1.075-2.927Zm10.234,0h1.2v-9.414H11.3L8.2-9.543l.619.861,2.488-1.345Z" transform="translate(26.221 97.62)" fill="#30384b"/>
      <path id="Tracé_4632" data-name="Tracé 4632" d="M1.075-1.837H7.369V-2.927h-4.8L5.15-5.549C6.28-6.733,7.113-7.687,7.113-8.965A2.615,2.615,0,0,0,4.289-11.52a3.714,3.714,0,0,0-3.281,1.9l1,.605A2.433,2.433,0,0,1,4.2-10.431,1.516,1.516,0,0,1,5.863-8.884c0,1-.5,1.52-1.6,2.676L1.075-2.927Zm7.854,0h6.294V-2.927h-4.8L13-5.549c1.13-1.183,1.963-2.138,1.963-3.416a2.615,2.615,0,0,0-2.824-2.555,3.714,3.714,0,0,0-3.281,1.9l1,.605a2.433,2.433,0,0,1,2.192-1.412,1.516,1.516,0,0,1,1.668,1.547c0,1-.5,1.52-1.6,2.676L8.929-2.927Z" transform="translate(32.945 69.044)" fill="#30384b"/>
      <path id="Tracé_4621" data-name="Tracé 4621" d="M1.075-1.837H7.369V-2.927h-4.8L5.15-5.549C6.28-6.733,7.113-7.687,7.113-8.965A2.615,2.615,0,0,0,4.289-11.52a3.714,3.714,0,0,0-3.281,1.9l1,.605A2.433,2.433,0,0,1,4.2-10.431,1.516,1.516,0,0,1,5.863-8.884c0,1-.5,1.52-1.6,2.676L1.075-2.927Zm14.147-2.6a2.584,2.584,0,0,0-1.668-2.474,2.353,2.353,0,0,0,1.237-2.138,2.561,2.561,0,0,0-2.838-2.474A3.362,3.362,0,0,0,8.915-9.8l1.009.619a2.138,2.138,0,0,1,1.95-1.251,1.5,1.5,0,0,1,1.681,1.493,1.579,1.579,0,0,1-1.762,1.56H10.381v1.089h1.6a1.785,1.785,0,0,1,1.99,1.8,1.842,1.842,0,0,1-2.044,1.829,2.53,2.53,0,0,1-2.38-1.479l-1.062.659a3.707,3.707,0,0,0,3.456,1.91C13.837-1.569,15.222-2.725,15.222-4.433Z" transform="translate(52.276 49.712)" fill="#30384b"/>
      <path id="Tracé_4622" data-name="Tracé 4622" d="M4.118-11.52c-2.34,0-3.51,2.179-3.51,4.976s1.17,4.976,3.51,4.976c2.367,0,3.523-2.179,3.523-4.976S6.485-11.52,4.118-11.52Zm.013,1.13c1.493,0,2.259,1.641,2.259,3.846S5.624-2.7,4.131-2.7,1.845-4.339,1.845-6.544,2.625-10.39,4.131-10.39Zm8.149-1.13c-2.34,0-3.51,2.179-3.51,4.976s1.17,4.976,3.51,4.976c2.367,0,3.523-2.179,3.523-4.976S14.648-11.52,12.281-11.52Zm.013,1.13c1.493,0,2.259,1.641,2.259,3.846S13.787-2.7,12.294-2.7s-2.286-1.641-2.286-3.846S10.788-10.39,12.294-10.39Z" transform="translate(80.917 42.148)" fill="#30384b"/>
      <path id="Tracé_4611" data-name="Tracé 4611" d="M1.115-2.067H8.3v-1.5H3.127L5.9-6.3c1.18-1.2,2.118-2.284,2.118-3.722A3,3,0,0,0,4.776-12.96,4.376,4.376,0,0,0,.918-10.736L2.28-9.9a2.648,2.648,0,0,1,2.345-1.573A1.546,1.546,0,0,1,6.319-9.889c0,1-.545,1.589-1.6,2.678l-3.6,3.646Z" transform="translate(158.193 56.666)" fill="#274072"/>
      <path id="Tracé_4612" data-name="Tracé 4612" d="M8.355-5.032A2.933,2.933,0,0,0,6.57-7.771a2.671,2.671,0,0,0,1.316-2.375c0-1.71-1.392-2.814-3.283-2.814a3.909,3.909,0,0,0-3.525,1.967l1.362.832A2.27,2.27,0,0,1,4.5-11.477a1.5,1.5,0,0,1,1.679,1.5A1.586,1.586,0,0,1,4.391-8.421H2.8v1.483h1.77A1.849,1.849,0,0,1,6.661-5.108,1.877,1.877,0,0,1,4.573-3.247,2.673,2.673,0,0,1,2.046-4.911L.594-4.019A4.258,4.258,0,0,0,4.588-1.765C6.751-1.765,8.355-3.066,8.355-5.032Z" transform="translate(170.012 98.691)" fill="#274072"/>
      <path id="Tracé_4613" data-name="Tracé 4613" d="M.684-4.96H5.8v2.95H7.447V-4.96H8.612v-1.5H7.447V-12.6H5.48L.684-6.458Zm1.74-1.5L5.8-10.769v4.312Z" transform="translate(158.23 140.658)" fill="#274072"/>
      <path id="Tracé_4614" data-name="Tracé 4614" d="M1.58-6.9H4.455c1.422,0,2.224.726,2.224,1.846A1.864,1.864,0,0,1,4.606-3.19,2.721,2.721,0,0,1,2.064-4.854L.612-3.961A4.263,4.263,0,0,0,4.606-1.707c2.148,0,3.767-1.316,3.767-3.4,0-1.952-1.2-3.268-3.843-3.268H3.32L3.471-11.1H7.934v-1.5H1.883Z" transform="translate(126.303 172.597)" fill="#274072"/>
      <path id="Tracé_4615" data-name="Tracé 4615" d="M5.18-12.96C2.064-12.96.7-10.615.7-7.241c0,3.6,1.543,5.477,4.145,5.477a3.524,3.524,0,0,0,3.737-3.6A3.274,3.274,0,0,0,5.2-8.754,3.836,3.836,0,0,0,2.427-7.68c.091-2.39,1-3.767,2.738-3.767a2.571,2.571,0,0,1,2.179,1.286l1.3-1.029A3.989,3.989,0,0,0,5.18-12.96ZM4.923-7.272A1.9,1.9,0,0,1,6.875-5.3,1.937,1.937,0,0,1,4.817-3.277c-1.21,0-2.1-.756-2.345-2.753A2.906,2.906,0,0,1,4.923-7.272Z" transform="translate(85.104 183.581)" fill="#274072"/>
      <path id="Tracé_4616" data-name="Tracé 4616" d="M3.3-2.01,8.644-11.1v-1.5H1.17v1.5h5.7L1.4-2.01Z" transform="translate(41.324 172.597)" fill="#274072"/>
      <path id="Tracé_4617" data-name="Tracé 4617" d="M4.654-12.96c-2.224,0-3.449,1.3-3.449,2.814a2.434,2.434,0,0,0,1.5,2.3A2.9,2.9,0,0,0,.72-5.017c0,1.846,1.437,3.253,3.934,3.253,2.511,0,3.934-1.407,3.934-3.253A2.9,2.9,0,0,0,6.62-7.846a2.443,2.443,0,0,0,1.483-2.3C8.1-11.659,6.893-12.96,4.654-12.96Zm.03,4.493a1.56,1.56,0,0,1-1.77-1.528,1.56,1.56,0,0,1,1.77-1.528,1.547,1.547,0,0,1,1.71,1.528A1.539,1.539,0,0,1,4.684-8.467Zm-.015,5.25c-1.362,0-2.239-.741-2.239-1.876A2,2,0,0,1,4.669-7.045,1.984,1.984,0,0,1,6.877-5.093,1.948,1.948,0,0,1,4.669-3.217Z" transform="translate(10.297 141.556)" fill="#274072"/>
      <path id="Tracé_4618" data-name="Tracé 4618" d="M4.077-1.765c3.117,0,4.478-2.345,4.478-5.719,0-3.6-1.558-5.477-4.145-5.477a3.524,3.524,0,0,0-3.737,3.6A3.274,3.274,0,0,0,4.061-5.97,3.836,3.836,0,0,0,6.83-7.045c-.091,2.39-1,3.767-2.753,3.767A2.59,2.59,0,0,1,1.9-4.563L.612-3.535A3.989,3.989,0,0,0,4.077-1.765ZM2.382-9.42a1.933,1.933,0,0,1,2.042-2.027c1.225,0,2.118.756,2.36,2.753A2.906,2.906,0,0,1,4.334-7.453,1.9,1.9,0,0,1,2.382-9.42Z" transform="translate(-0.612 98.691)" fill="#274072"/>
      <path id="Tracé_4619" data-name="Tracé 4619" d="M3.446-2.082H5.095v-10.59H3.476l-3.4,1.921.847,1.18,2.527-1.407ZM11.54-12.96c-2.708,0-4.024,2.436-4.024,5.6s1.316,5.6,4.024,5.6,4.009-2.436,4.009-5.6S14.248-12.96,11.54-12.96Zm0,1.543c1.528,0,2.3,1.679,2.3,4.055,0,2.36-.772,4.055-2.3,4.055C10-3.308,9.225-4.987,9.225-7.362,9.225-9.722,10-11.417,11.54-11.417Z" transform="translate(7.039 55.825)" fill="#274072"/>
      <path id="Tracé_4620" data-name="Tracé 4620" d="M3.446-2.028H5.095v-10.59H3.476L.072-10.7l.847,1.18,2.527-1.407Zm6.672,0h1.649v-10.59H10.148L6.744-10.7l.847,1.18,2.527-1.407Z" transform="translate(38.977 24.672)" fill="#274072"/>
      <path id="Tracé_4609" data-name="Tracé 4609" d="M3.446-2.082H5.095v-10.59H3.476l-3.4,1.921.847,1.18,2.527-1.407Zm4.387.015h7.186v-1.5H9.845L12.614-6.3c1.18-1.2,2.118-2.284,2.118-3.722a3,3,0,0,0-3.238-2.935,4.376,4.376,0,0,0-3.858,2.224L9-9.9a2.648,2.648,0,0,1,2.345-1.573,1.546,1.546,0,0,1,1.694,1.589c0,1-.545,1.589-1.6,2.678l-3.6,3.646Z" transform="translate(81.002 12.96)" fill="#274072"/>
      <circle id="Ellipse_414" data-name="Ellipse 414" cx="17" cy="17" r="17" transform="translate(99.548 25.23)" fill="#5174cb"/>
      <ellipse id="Ellipse_415" data-name="Ellipse 415" cx="2.5" cy="3" rx="2.5" ry="3" transform="translate(86.548 88.23)" fill="#5174cb"/>
      <path id="Tracé_4623" data-name="Tracé 4623" d="M3.2-1.837H4.4v-9.414H3.189L.1-9.543l.619.861L3.2-10.027Zm10.046-2.6a2.584,2.584,0,0,0-1.668-2.474,2.353,2.353,0,0,0,1.237-2.138A2.561,2.561,0,0,0,9.98-11.52,3.362,3.362,0,0,0,6.941-9.8L7.95-9.18A2.138,2.138,0,0,1,9.9-10.431a1.5,1.5,0,0,1,1.681,1.493,1.579,1.579,0,0,1-1.762,1.56H8.407v1.089h1.6A1.785,1.785,0,0,1,12-4.487,1.842,1.842,0,0,1,9.953-2.658a2.53,2.53,0,0,1-2.38-1.479l-1.062.659a3.707,3.707,0,0,0,3.456,1.91C11.863-1.569,13.248-2.725,13.248-4.433Z" transform="translate(109.575 49.712)" fill="#fff"/>
      <line id="Ligne_140" data-name="Ligne 140" y1="32.779" x2="19.331" transform="translate(89.839 56.7)" fill="none" stroke="#5174cb" stroke-width="2"/>
    </g>
  </g>
</svg>
