<svg xmlns="http://www.w3.org/2000/svg" width="169.516" height="186.654" viewBox="0 0 169.516 186.654">
  <g id="_242_reminder_note_flatline" data-name="#242_reminder_note_flatline" transform="translate(-84.33 -22.373)">
    <path id="Tracé_4166" data-name="Tracé 4166" d="M153.22,123.669s8.732,9.765,12.593,18.556l11.948-5.414-11.6-23.661Z" transform="translate(-18.425 -24.278)" fill="#f2f1f7"/>
    <path id="Tracé_4167" data-name="Tracé 4167" d="M165.692,142.447a.418.418,0,0,1-.132,0,.366.366,0,0,1-.169-.249c-3.795-8.637-12.453-18.365-12.527-18.46a.344.344,0,0,1-.1-.271.366.366,0,0,1,.132-.256l12.937-10.519a.371.371,0,0,1,.564.125l11.6,23.661a.388.388,0,0,1,0,.286.344.344,0,0,1-.2.205l-11.941,5.421a.571.571,0,0,1-.176.059Zm-12.065-18.878c1.465,1.663,8.717,10.212,12.248,18.028l11.267-5.128L165.9,113.585Z" transform="translate(-18.304 -24.134)" fill="#1f4076"/>
    <path id="Tracé_4168" data-name="Tracé 4168" d="M161.126,125.921l-5.736-3.143L172.473,92.7a2.864,2.864,0,0,1,4.813,2.63Z" transform="translate(-19.005 -18.588)" fill="#1f4076"/>
    <path id="Tracé_4169" data-name="Tracé 4169" d="M160.993,126.145a.388.388,0,0,1-.176-.044l-5.736-3.143a.381.381,0,0,1-.176-.22.366.366,0,0,1,.037-.278l17.083-30.108.044-.066a3.231,3.231,0,0,1,5.436,2.974.308.308,0,0,1,0,.073l-16.16,30.613a.374.374,0,0,1-.212.183Zm-5.23-3.663,5.084,2.784,15.962-30.247a2.5,2.5,0,0,0-4.168-2.278Z" transform="translate(-18.872 -18.447)" fill="#1f4076"/>
    <path id="Tracé_4170" data-name="Tracé 4170" d="M155.307,133.988l-.227,7.23,5.963-4.088A4.56,4.56,0,0,0,155.307,133.988Z" transform="translate(-18.922 -29.798)" fill="#fff"/>
    <path id="Tracé_4171" data-name="Tracé 4171" d="M154.946,141.452a.388.388,0,0,1-.176-.044.359.359,0,0,1-.19-.337l.234-7.223a.352.352,0,0,1,.271-.344,4.941,4.941,0,0,1,6.175,3.392.359.359,0,0,1-.147.4l-5.963,4.088A.344.344,0,0,1,154.946,141.452Zm.586-7.326-.2,6.227,5.128-3.524a4.1,4.1,0,0,0-4.93-2.681Z" transform="translate(-18.788 -29.665)" fill="#1f4076"/>
    <path id="Tracé_4172" data-name="Tracé 4172" d="M156.107,142.469l-1.245-.689-.791,2.4.483.264Z" transform="translate(-18.652 -31.935)" fill="#fff"/>
    <path id="Tracé_4173" data-name="Tracé 4173" d="M154.42,144.677a.388.388,0,0,1-.176-.044l-.483-.264a.366.366,0,0,1-.168-.44l.784-2.4a.381.381,0,0,1,.212-.227.366.366,0,0,1,.315,0l1.245.689a.366.366,0,0,1,.117.542l-1.553,1.985A.388.388,0,0,1,154.42,144.677Zm.52-2.5-.5,1.509.974-1.245Z" transform="translate(-18.519 -31.799)" fill="#231f20"/>
    <path id="Tracé_4174" data-name="Tracé 4174" d="M177.25,107.223a.33.33,0,0,1-.322-.264,3.567,3.567,0,0,0-1.524-2.366,4.344,4.344,0,0,0-2.981-.432.337.337,0,0,1-.154-.652,5,5,0,0,1,3.48.513,4.161,4.161,0,0,1,1.831,2.791.344.344,0,0,1-.256.4Z" transform="translate(-23.459 -21.669)" fill="#f2f1f7"/>
    <path id="Tracé_4175" data-name="Tracé 4175" d="M178.673,104.6a.337.337,0,0,1-.322-.264,3.582,3.582,0,0,0-1.524-2.373,4.4,4.4,0,0,0-2.981-.425.337.337,0,1,1-.154-.652,4.974,4.974,0,0,1,3.48.505,4.2,4.2,0,0,1,1.831,2.8.344.344,0,0,1-.256.4Z" transform="translate(-23.821 -20.967)" fill="#f2f1f7"/>
    <path id="Tracé_4177" data-name="Tracé 4177" d="M152.328,112.265a8.124,8.124,0,0,0-1.216,1.692,6.344,6.344,0,0,0-.623,2.872,7.428,7.428,0,0,0,1.714,4.93,5.626,5.626,0,0,0,4.74,1.963,6.644,6.644,0,0,0,4.7-3.4,19.552,19.552,0,0,0,1.949-5.67c.527-2.256,2.93-9.523-1.729-8.849C158.342,106.331,154.584,109.723,152.328,112.265Z" transform="translate(-17.694 -22.302)" fill="#f2f1f7"/>
    <path id="Tracé_4178" data-name="Tracé 4178" d="M156.279,123.969a6.08,6.08,0,0,1-4.491-2.117,7.824,7.824,0,0,1-1.809-5.179,6.82,6.82,0,0,1,.667-3.033,8.959,8.959,0,0,1,1.275-1.765h0c1.575-1.773,5.67-5.97,9.75-6.593a2.608,2.608,0,0,1,2.469.681c1.465,1.634.476,5.494-.117,7.8-.081.315-.154.593-.205.82a19.721,19.721,0,0,1-1.993,5.773,6.989,6.989,0,0,1-4.981,3.575A4.758,4.758,0,0,1,156.279,123.969ZM152.47,112.38A8.169,8.169,0,0,0,151.305,114a5.955,5.955,0,0,0-.593,2.7,7.164,7.164,0,0,0,1.626,4.688,5.23,5.23,0,0,0,4.4,1.839,6.234,6.234,0,0,0,4.4-3.223,19.163,19.163,0,0,0,1.912-5.56c.051-.227.125-.513.205-.835.52-2.022,1.465-5.787.286-7.128a1.919,1.919,0,0,0-1.817-.447c-3.846.579-7.794,4.63-9.311,6.344Z" transform="translate(-17.557 -22.153)" fill="#1f4076"/>
    <path id="Tracé_4179" data-name="Tracé 4179" d="M165.589,130.7c-1.216-3.392,5.6-8.124,5.6-8.124s-8.307-.051-8.791-3.458,12.549-2.461,12.549-2.461,4.63,10.644,1.311,15.318" transform="translate(-20.875 -25.184)" fill="#f2f1f7"/>
    <path id="Tracé_4180" data-name="Tracé 4180" d="M176.1,132.2a.381.381,0,0,1-.227-.081.374.374,0,0,1-.081-.513c2.93-4.11-.659-13.267-1.267-14.754-2.93-.19-10.168-.293-11.721,1.341a.806.806,0,0,0-.242.733c.359,2.535,6.212,3.128,8.439,3.143a.359.359,0,0,1,.344.256.366.366,0,0,1-.139.41c-1.831,1.275-6.381,5.128-5.465,7.7a.366.366,0,0,1-.689.249c-1.033-2.886,3.055-6.49,4.893-7.919-2.322-.147-7.692-.8-8.109-3.736a1.546,1.546,0,0,1,.425-1.319c2.1-2.242,11.45-1.634,12.5-1.56a.388.388,0,0,1,.315.22c.19.447,4.666,10.886,1.275,15.677a.359.359,0,0,1-.256.154Z" transform="translate(-20.723 -25.047)" fill="#1f4076"/>
    <path id="Tracé_4181" data-name="Tracé 4181" d="M180.669,140.45,162.56,147.6s7.047,58.4,15.1,67.7,18.687-6.263,18.314-27.471S180.669,140.45,180.669,140.45Z" transform="translate(-20.922 -31.579)" fill="#f4e289"/>
    <path id="Tracé_4182" data-name="Tracé 4182" d="M211.779,31.65c5.626-5.421,22.489-14.058,28.57-4.6a3.385,3.385,0,0,0,.864,1.033,3.37,3.37,0,0,0,2.2.234c9.289-.637,15.992,13.918,17.676,21.156,2.066,8.908,4.095,16.988,9,24.848,2.93,4.718,7.326,8.9,9.369,14.138a40.386,40.386,0,0,1,2.688,16.028,35.9,35.9,0,0,1-2.835,13.281c-3.9,8.7-12.278,14.856-21.391,17.662s-18.907,2.593-28.328,1.172c-8.93-1.348-17.911-3.846-25.229-9.128s-12.776-13.757-12.659-22.79c.117-8.879,5.128-16.636,8.124-24.738s3.143-16.241,2.388-24.592C201.34,46.059,205.105,38.1,211.779,31.65Z" transform="translate(-28.715 -0.122)" fill="#1f4076"/>
    <path id="Tracé_4183" data-name="Tracé 4183" d="M242.07,137.894a85.509,85.509,0,0,1-12.7-1.026c-10.908-1.641-18.98-4.564-25.39-9.194-8.007-5.787-12.908-14.651-12.8-23.083.081-6.4,2.7-12.248,5.223-17.911,1.011-2.271,2.058-4.622,2.93-6.952,2.542-6.915,3.275-14.453,2.366-24.438-.813-8.959,2.454-17.039,9.706-24.028l.249.264-.249-.264c4.4-4.256,14.512-9.7,21.977-8.791a9.369,9.369,0,0,1,7.172,4.293l.117.183a2.505,2.505,0,0,0,.63.776,2.579,2.579,0,0,0,1.648.19h.308c9.626-.659,16.431,14.446,18.05,21.442,2.2,9.369,4.22,17.142,8.959,24.731a59.918,59.918,0,0,0,3.663,5.069,38.317,38.317,0,0,1,5.758,9.135,41.023,41.023,0,0,1,2.71,16.175,36.064,36.064,0,0,1-2.872,13.413c-3.663,8.263-11.582,14.768-21.61,17.867A53.2,53.2,0,0,1,242.07,137.894ZM232.012,23.1c-5.025,0-13.918,2.754-20.116,8.7h0c-7.084,6.827-10.256,14.71-9.523,23.442.916,10.095.176,17.735-2.41,24.76-.864,2.351-1.912,4.71-2.93,6.989-2.5,5.6-5.084,11.384-5.164,17.625-.1,8.219,4.688,16.849,12.5,22.482,6.307,4.556,14.277,7.443,25.068,9.069,11.04,1.663,20.255,1.282,28.167-1.157,9.692-2.989,17.581-9.523,21.171-17.471a35.522,35.522,0,0,0,2.806-13.142,40.327,40.327,0,0,0-2.63-15.889c-1.267-3.253-3.5-6.153-5.655-8.952a61.724,61.724,0,0,1-3.663-5.128c-4.8-7.684-6.857-15.515-9.047-24.958-1.575-6.8-8.109-21.493-17.288-20.878h-.293a3.143,3.143,0,0,1-2.117-.315,3.091,3.091,0,0,1-.85-.989l-.1-.176a8.7,8.7,0,0,0-6.644-3.963A11.2,11.2,0,0,0,232.012,23.1Z" transform="translate(-28.576 0)" fill="#1f4076"/>
    <path id="Tracé_4184" data-name="Tracé 4184" d="M125.58,144.144a94.6,94.6,0,0,1,2.4,44.5l30.518,10.893s8.2-33.111-8.117-55.755C150.377,143.785,132.034,143.338,125.58,144.144Z" transform="translate(-11.032 -32.438)" fill="#f4e289"/>
    <path id="Tracé_4185" data-name="Tracé 4185" d="M158.355,199.783a.344.344,0,0,1-.125,0L127.72,188.889a.374.374,0,0,1-.242-.418,94.97,94.97,0,0,0-2.381-44.3.366.366,0,0,1,0-.315.359.359,0,0,1,.264-.168c6.41-.8,24.665-.366,24.848-.366a.4.4,0,0,1,.293.154c16.27,22.5,8.285,55.7,8.212,56.033a.344.344,0,0,1-.183.234A.337.337,0,0,1,158.355,199.783Zm-30.093-11.5,29.822,10.651c.85-3.8,6.9-34-8.058-54.9-1.883-.044-17.779-.374-24.116.308A96.012,96.012,0,0,1,128.262,188.281Z" transform="translate(-10.894 -32.315)" fill="#231f20"/>
    <path id="Tracé_4186" data-name="Tracé 4186" d="M186.72,217.8s16.731,11.34,30.547,9.9c0,0,34.1-106.5,29.837-110.183s-35.163.872-35.163.872S186.925,198.411,186.72,217.8Z" transform="translate(-27.384 -25.061)" fill="#5c6f99"/>
    <path id="Tracé_4187" data-name="Tracé 4187" d="M214.618,228.056c-13.237,0-28.123-9.977-28.277-10.087a.366.366,0,0,1-.161-.308c.183-19.215,24.951-98.719,25.2-99.517a.374.374,0,0,1,.3-.256c1.267-.183,31.155-4.542,35.492-.784.733.608,2.835,2.461-13.186,56.853-7.9,26.782-16.431,53.476-16.512,53.718a.381.381,0,0,1-.315.256A23.745,23.745,0,0,1,214.618,228.056Zm-27.705-10.585c1.751,1.15,17.142,10.988,29.9,9.758,13.677-42.722,32.862-106.953,29.873-109.575-3.245-2.806-23.962-.637-34.679.923-1.414,4.637-24.731,79.943-25.068,98.895Z" transform="translate(-27.24 -24.928)" fill="#5c6f99"/>
    <path id="Tracé_4188" data-name="Tracé 4188" d="M259.385,175.911c-6.168,30.086-10.021,50.773-10.021,50.773s-22.526,9.758-44.92,3.458l-.652-.19c2.2-11.2,6.967-33.9,13.516-59.7,8.146-32.093,18.614-49.967,18.614-49.967l-24.475-1.553s-3.985,7.714-14.651,42.832c-6.49,21.3-12.087,46.839-14.842,60.157-9.523-4.3-16.314-8.19-16.314-8.19s24.907-98.338,33.924-102.506,60.37-1.861,67.952,16.329C269.56,132.325,270.007,153.832,259.385,175.911Z" transform="translate(-21.746 -23.234)" fill="#f4e289"/>
    <path id="Tracé_4189" data-name="Tracé 4189" d="M182.488,177.8h-.051a.374.374,0,0,1-.308-.418c2.974-19.669,15.178-52.114,15.3-52.443a.374.374,0,0,1,.476-.212.366.366,0,0,1,.212.476c-.125.322-12.307,32.694-15.266,52.29a.374.374,0,0,1-.366.308Z" transform="translate(-26.155 -27.369)" fill="#1f4076"/>
    <path id="Tracé_4190" data-name="Tracé 4190" d="M229.921,87.274,226.31,102.2s.293,7.289,10.842,7.384,13.743-6.4,13.743-6.4L256.615,75.1S243.093,62.9,249.29,47.43c0,0-9.194,11.091-23.515,5.5,0,0-3.787,14.241-4.52,22.255S229.921,87.274,229.921,87.274Z" transform="translate(-36.61 -6.701)" fill="#f2f1f7"/>
    <path id="Tracé_4191" data-name="Tracé 4191" d="M237.25,109.813h-.2c-10.776-.1-11.2-7.655-11.208-7.736a.433.433,0,0,1,0-.1l3.531-14.651a20.108,20.108,0,0,1-4.4-2.974c-3.047-2.725-4.491-5.963-4.176-9.355.733-7.948,4.483-22.174,4.52-22.314a.381.381,0,0,1,.19-.234.388.388,0,0,1,.3,0c13.918,5.428,23.009-5.282,23.1-5.392a.366.366,0,0,1,.623.366c-6.022,15.069,7.106,27.148,7.245,27.266a.359.359,0,0,1,.11.344l-5.721,28.086a.411.411,0,0,1,0,.088C250.971,103.483,247.74,109.813,237.25,109.813ZM226.562,102.1c.044.667.733,6.893,10.475,6.981s13.105-5.633,13.384-6.153L256.1,75.09c-1.465-1.392-12.292-12.453-7.846-26.372A21.294,21.294,0,0,1,225.9,53.26c-.615,2.351-3.751,14.651-4.4,21.8-.7,7.655,8.358,11.677,8.446,11.721a.352.352,0,0,1,.212.418Z" transform="translate(-36.489 -6.568)" fill="#1f4076"/>
    <path id="Tracé_4192" data-name="Tracé 4192" d="M262.888,81.1a7.968,7.968,0,0,1,9.384-3.4c4.161,1.743,2.93,6.593.733,9.443a8.124,8.124,0,0,1-11.464,1.465" transform="translate(-47.395 -14.672)" fill="#f2f1f7"/>
    <path id="Tracé_4193" data-name="Tracé 4193" d="M266.456,90.592a8.564,8.564,0,0,1-5.238-1.8.366.366,0,0,1-.066-.513.359.359,0,0,1,.513-.059,7.758,7.758,0,0,0,10.952-1.465c1.275-1.678,2.308-4.285,1.758-6.329a3.8,3.8,0,0,0-2.366-2.52,7.569,7.569,0,0,0-8.915,3.231.367.367,0,0,1-.652-.337,8.348,8.348,0,0,1,9.846-3.568,4.5,4.5,0,0,1,2.8,3.04c.652,2.447-.608,5.274-1.883,6.959a8.527,8.527,0,0,1-5.67,3.289A8.863,8.863,0,0,1,266.456,90.592Z" transform="translate(-47.27 -14.54)" fill="#1f4076"/>
    <path id="Tracé_4194" data-name="Tracé 4194" d="M239.175,70.6s-7.391,6.219-6.549,7.912,4.534,1.8,4.534,1.8" transform="translate(-39.643 -12.898)" fill="#f2f1f7"/>
    <path id="Tracé_4195" data-name="Tracé 4195" d="M237.033,80.556h0c-.161,0-3.919-.139-4.849-2.007s4.857-6.849,6.644-8.351a.366.366,0,0,1,.469.557c-3.443,2.93-6.893,6.593-6.454,7.472.608,1.223,3.245,1.568,4.212,1.6a.366.366,0,0,1,0,.733Z" transform="translate(-39.516 -12.774)" fill="#1f4076"/>
    <ellipse id="Ellipse_383" data-name="Ellipse 383" cx="2.901" cy="1.26" rx="2.901" ry="1.26" transform="matrix(0.125, -0.992, 0.992, 0.125, 191.442, 57.834)" fill="#1f4076"/>
    <ellipse id="Ellipse_384" data-name="Ellipse 384" cx="2.901" cy="1.26" rx="2.901" ry="1.26" transform="matrix(0.125, -0.992, 0.992, 0.125, 204.364, 59.463)" fill="#1f4076"/>
    <path id="Tracé_4196" data-name="Tracé 4196" d="M232.386,101.7s5.414,2.425,13.245-.337c0,0-5.077,9.882-15.2,8.41Z" transform="translate(-39.074 -21.125)" fill="#1f4076"/>
    <path id="Tracé_4197" data-name="Tracé 4197" d="M232.312,110.16a14.425,14.425,0,0,1-2.066-.147.359.359,0,0,1-.249-.161.33.33,0,0,1-.051-.286l1.949-8.058a.337.337,0,0,1,.19-.242.366.366,0,0,1,.315,0c.051,0,5.392,2.33,12.981-.344a.366.366,0,0,1,.4.1.381.381,0,0,1,.051.41C245.776,101.5,241.212,110.16,232.312,110.16Zm-1.56-.82c7.78.9,12.453-5.179,13.919-7.443a19.549,19.549,0,0,1-12.175.168Z" transform="translate(-38.941 -21.002)" fill="#1f4076"/>
    <path id="Tracé_4198" data-name="Tracé 4198" d="M236.924,95.235a3.194,3.194,0,0,1-1.531-.388c-1.8-.967-3.018-3.846-3.333-7.89a.359.359,0,0,1,.308-.388l10.93-1.861a.366.366,0,0,1,.3.088.359.359,0,0,1,.125.286c0,.293-.264,7.15-4.52,9.523a4.725,4.725,0,0,1-2.278.63Zm-4.1-8c.33,3.611,1.392,6.139,2.93,6.967a3.136,3.136,0,0,0,3.106-.271c3.3-1.817,3.978-6.879,4.11-8.417Z" transform="translate(-39.51 -16.67)" fill="#1f4076"/>
    <path id="Tracé_4199" data-name="Tracé 4199" d="M173.042,197.807s4.491-32.371-10.219-56.487l-3.362,1.839s13.86,28.723,8.117,55.755Z" transform="translate(-20.093 -31.812)" fill="#f2f1f7"/>
    <path id="Tracé_4200" data-name="Tracé 4200" d="M167.424,199.145a.359.359,0,0,1-.264-.11.344.344,0,0,1-.1-.33c5.648-26.6-7.948-55.234-8.058-55.52a.366.366,0,0,1,.154-.476l3.362-1.846a.366.366,0,0,1,.491.132c14.607,23.947,10.307,56.407,10.256,56.729a.366.366,0,0,1-.293.308l-5.465,1.106Zm-7.641-55.96c1.465,3.194,13.186,29.954,8.109,55.125l4.659-.945c.374-3.084,3.56-33.126-10.014-55.674Zm13.127,54.487Z" transform="translate(-19.963 -31.678)" fill="#1f4076"/>
    <path id="Tracé_4201" data-name="Tracé 4201" d="M183.782,183.533c-.579-.733-5.348-3.56-5.348-3.56s-7.26-19.479-9.362-18.907,1.15,14.71,1.15,14.71a12.614,12.614,0,0,1-4.014.571c-1.524-.19-11.648-9.164-12.409-6.688s-2.1,12.417,0,15.662,19.669,10.856,24.636,10.856" transform="translate(-18.278 -37.09)" fill="#f2f1f7"/>
    <path id="Tracé_4202" data-name="Tracé 4202" d="M178.308,196.441h0c-4.85,0-22.636-7.494-24.907-11.054-2.2-3.348-.864-13.281-.044-15.962a.908.908,0,0,1,.608-.63c1.3-.44,4.271,1.59,8.307,4.513a23.319,23.319,0,0,0,3.9,2.542,10.937,10.937,0,0,0,3.531-.469c-.85-3.736-3-14.2-.813-14.8s7.509,13,9.75,19.01a51.585,51.585,0,0,1,5.333,3.575.367.367,0,0,1-.564.469,45.736,45.736,0,0,0-5.252-3.48.359.359,0,0,1-.154-.19c-4.315-11.567-7.97-18.673-8.908-18.673h0c-1.048.286-.117,7.6,1.414,14.263a.366.366,0,0,1-.256.432,12.4,12.4,0,0,1-4.161.586c-.6-.073-1.934-1.018-4.227-2.674-2.63-1.9-6.593-4.769-7.655-4.4a.205.205,0,0,0-.132.154c-.776,2.52-2.058,12.241-.044,15.384s19.266,10.681,24.328,10.717a.366.366,0,0,1,.366.366A.374.374,0,0,1,178.308,196.441Z" transform="translate(-18.152 -36.959)" fill="#1f4076"/>
    <path id="Tracé_4203" data-name="Tracé 4203" d="M251.984,132.552c-1.179.315-23.683,49.132-25.881,51.9s-33.888-11.948-33.888-11.948L183,192.2s35.47,30.972,53.689,23.229,23.749-33.185,25.962-45.909S268.254,128.282,251.984,132.552Z" transform="translate(-26.389 -29.352)" fill="#f4e289"/>
    <path id="Tracé_4204" data-name="Tracé 4204" d="M150.377,142.783s-14.768-.733-24.8.359l1.355-3.1s19.779-.63,26.8.9Z" transform="translate(-11.032 -31.436)" fill="#f2f1f7"/>
    <path id="Tracé_4205" data-name="Tracé 4205" d="M125.446,143.376a.352.352,0,0,1-.293-.146.366.366,0,0,1-.044-.366l1.355-3.1a.366.366,0,0,1,.322-.22c.813,0,19.881-.615,26.9.908a.374.374,0,0,1,.286.308.359.359,0,0,1-.19.374l-3.362,1.839a.293.293,0,0,1-.19.044c-.147,0-14.863-.689-24.746.359Zm1.6-3.106-1.011,2.315c9.472-.916,22.819-.359,24.123-.3l2.381-1.3C145.371,139.8,129.175,140.212,127.043,140.27Z" transform="translate(-10.898 -31.305)" fill="#1f4076"/>
    <path id="Tracé_4206" data-name="Tracé 4206" d="M147.082,148.277s4.1,36.034-1.619,52.238L116.52,188.333s5.714-14.417,4.4-41.023Z" transform="translate(-8.609 -33.414)" fill="#f2f1f7"/>
    <path id="Tracé_4207" data-name="Tracé 4207" d="M145.3,200.763a.315.315,0,0,1-.139,0l-28.943-12.182a.374.374,0,0,1-.2-.476c.051-.139,5.67-14.651,4.4-40.854a.4.4,0,0,1,.11-.278.315.315,0,0,1,.271-.1l26.13.952a.366.366,0,0,1,.352.322c.044.366,4.051,36.305-1.626,52.407a.4.4,0,0,1-.2.212A.381.381,0,0,1,145.3,200.763Zm-28.452-12.776,28.262,11.9c5.128-15.3,1.875-47.843,1.465-51.4l-25.42-.93C122.291,171.512,117.669,185.694,116.849,187.987Z" transform="translate(-8.469 -33.296)" fill="#1f4076"/>
    <path id="Tracé_4208" data-name="Tracé 4208" d="M145.8,147.111s-2.2,43.221-7.882,54.473l-26.181-11.8s7.194-27.068,7.194-43.221c0,0,7.78-.1,13.523.117C137.313,146.876,145.8,147.111,145.8,147.111Z" transform="translate(-7.331 -33.207)" fill="#f2f1f7"/>
    <path id="Tracé_4209" data-name="Tracé 4209" d="M137.788,201.81a.4.4,0,0,1-.154-.037l-26.181-11.816a.366.366,0,0,1-.2-.432c.066-.271,7.179-27.207,7.179-43.118a.366.366,0,0,1,.359-.366c.081,0,7.853-.1,13.545.117,4.8.19,13.259.425,13.34.425a.374.374,0,0,1,.256.125.352.352,0,0,1,.1.264c-.088,1.765-2.242,43.426-7.926,54.612a.352.352,0,0,1-.322.227Zm-25.749-12.373,25.573,11.508c5.223-10.937,7.443-49.4,7.67-53.63-1.7-.051-8.747-.256-12.974-.418-4.967-.19-11.552-.139-13.186-.125C119.064,161.916,112.815,186.442,112.039,189.438Z" transform="translate(-7.197 -33.068)" fill="#1f4076"/>
    <path id="Tracé_4210" data-name="Tracé 4210" d="M152.666,147.1a.366.366,0,0,1-.227-.073c-.125-.1-3.091-2.5-3.179-5.45a4.842,4.842,0,0,1,1.809-3.8,2.93,2.93,0,0,1,2.542-.879c1.795.308,2.93,2.432,3,2.52a.359.359,0,0,1-.147.491.374.374,0,0,1-.5-.146s-1.033-1.9-2.476-2.146a2.271,2.271,0,0,0-1.927.733,4.154,4.154,0,0,0-1.568,3.238c.081,2.608,2.879,4.871,2.93,4.893a.366.366,0,0,1-.227.652Z" transform="translate(-17.365 -30.622)" fill="#1f4076"/>
    <path id="Tracé_4211" data-name="Tracé 4211" d="M143.877,147.076a.352.352,0,0,1-.19-.051c-.125-.073-3.055-1.853-3.736-4.593a4.776,4.776,0,0,1,.637-3.729,3.424,3.424,0,0,1,2.666-1.934c1.875-.088,3.421,1.875,3.487,1.956a.374.374,0,0,1-.073.513.366.366,0,0,1-.513-.066s-1.392-1.751-2.864-1.67a2.769,2.769,0,0,0-2.073,1.582,4.073,4.073,0,0,0-.557,3.172c.6,2.439,3.377,4.124,3.4,4.146a.359.359,0,0,1-.183.674Z" transform="translate(-14.84 -30.594)" fill="#1f4076"/>
    <path id="Tracé_4212" data-name="Tracé 4212" d="M136.582,147.187a.337.337,0,0,1-.205-.059c-.19-.132-4.556-3.172-3.113-7.179.6-1.67,1.4-2.593,2.388-2.747,1.465-.22,2.623,1.3,2.674,1.37a.374.374,0,0,1-.073.513.381.381,0,0,1-.513-.066s-.974-1.253-1.978-1.092c-.689.11-1.311.894-1.809,2.271-1.253,3.48,2.791,6.293,2.835,6.322a.366.366,0,0,1,.1.513.359.359,0,0,1-.3.154Z" transform="translate(-13.009 -30.705)" fill="#1f4076"/>
    <path id="Tracé_4213" data-name="Tracé 4213" d="M127.3,146.581a.344.344,0,0,1-.256-.11c-.132-.139-3.2-3.326-2.93-5.7a3.516,3.516,0,0,1,3.56-3.355c2.2.146,2.652,1.465,2.666,1.509a.366.366,0,1,1-.689.242c0-.044-.374-.908-2.029-1.026a2.827,2.827,0,0,0-2.784,2.725c-.249,2.022,2.674,5.062,2.7,5.128a.366.366,0,0,1,0,.52A.381.381,0,0,1,127.3,146.581Z" transform="translate(-10.636 -30.766)" fill="#1f4076"/>
    <path id="Tracé_4214" data-name="Tracé 4214" d="M234.241,192.935a.476.476,0,0,1-.139,0l-38.825-15.962a.368.368,0,0,1,.278-.681l38.459,15.823c1.355-3.421,12.373-31.119,19.588-44.473a.374.374,0,0,1,.5-.146.366.366,0,0,1,.147.5c-7.641,14.131-19.566,44.429-19.684,44.737a.388.388,0,0,1-.2.205A.476.476,0,0,1,234.241,192.935Z" transform="translate(-29.611 -33.452)" fill="#1f4076"/>
    <path id="Tracé_4215" data-name="Tracé 4215" d="M233.336,228.631c-7.26,0-17.647-4.007-30.892-11.9a210.745,210.745,0,0,1-17.757-11.875.374.374,0,0,1-.073-.513.366.366,0,0,1,.513-.066c.315.234,31.192,23.617,48.209,23.617h0c14.79,0,31.258-30.394,38.034-58.538a.366.366,0,0,1,.44-.264.359.359,0,0,1,.271.44c-3.472,14.417-9.311,28.987-16.014,39.975-9.64,15.794-17.684,19.112-22.709,19.12Z" transform="translate(-26.802 -39.238)" fill="#1f4076"/>
    <path id="Tracé_4216" data-name="Tracé 4216" d="M156.132,70.809a39.843,39.843,0,0,1-9.846-3.831,28.965,28.965,0,1,0-1.736,4.454A19.325,19.325,0,0,0,156.132,70.809Z" transform="translate(-1.397 -1.973)" fill="#f2f1f7"/>
    <path id="Tracé_4217" data-name="Tracé 4217" d="M118.369,87.917a29.339,29.339,0,1,1,28.2-21.244,40.167,40.167,0,0,0,9.523,3.663.352.352,0,0,1,.286.33.374.374,0,0,1-.242.374,19.669,19.669,0,0,1-11.516.733A29.156,29.156,0,0,1,118.369,87.917Zm0-57.945a28.606,28.606,0,1,0,25.705,41.162.374.374,0,0,1,.425-.2,18.629,18.629,0,0,0,10.19-.227,40.334,40.334,0,0,1-8.725-3.553.366.366,0,0,1-.176-.425,28.57,28.57,0,0,0-27.419-36.759Z" transform="translate(-1.258 -1.837)" fill="#5c6f99"/>
    <path id="Tracé_4218" data-name="Tracé 4218" d="M126.63,43.07V66.585L143.567,54.19" transform="translate(-11.313 -5.535)" fill="#f2f1f7"/>
    <path id="Tracé_4219" data-name="Tracé 4219" d="M126.5,66.817a.432.432,0,0,1-.168,0,.366.366,0,0,1-.2-.33V42.936a.366.366,0,0,1,.733,0v22.8l16.358-11.97a.367.367,0,0,1,.432.593L126.709,66.744A.337.337,0,0,1,126.5,66.817Z" transform="translate(-11.179 -5.402)" fill="#5c6f99"/>
    <rect id="Rectangle_1967" data-name="Rectangle 1967" width="39.433" height="24.064" rx="4.23" transform="translate(84.696 70.023)" fill="#f2f1f7"/>
    <path id="Tracé_4220" data-name="Tracé 4220" d="M121.023,111.717H87.795a3.465,3.465,0,0,1-3.465-3.494V90.385a3.465,3.465,0,0,1,3.465-3.465h33.229a3.465,3.465,0,0,1,3.465,3.465v17.838a3.465,3.465,0,0,1-3.465,3.494ZM87.795,87.653a2.732,2.732,0,0,0-2.732,2.732v17.838a2.74,2.74,0,0,0,2.732,2.732h33.229a2.74,2.74,0,0,0,2.732-2.732V90.385a2.732,2.732,0,0,0-2.732-2.732Z" transform="translate(0 -17.263)" fill="#5c6f99"/>
    <path id="Tracé_4221" data-name="Tracé 4221" d="M120.611,96.733H92.246a.366.366,0,0,1,0-.733h28.364a.366.366,0,0,1,0,.733Z" transform="translate(-2.019 -19.691)" fill="#5c6f99"/>
    <path id="Tracé_4222" data-name="Tracé 4222" d="M120.611,104.073H92.246a.366.366,0,0,1,0-.733h28.364a.366.366,0,0,1,0,.733Z" transform="translate(-2.019 -21.654)" fill="#5c6f99"/>
    <path id="Tracé_4223" data-name="Tracé 4223" d="M116.545,111.413h-24.3a.366.366,0,0,1,0-.733h24.3a.366.366,0,0,1,0,.733Z" transform="translate(-2.019 -23.618)" fill="#5c6f99"/>
  </g>
</svg>
