<svg xmlns="http://www.w3.org/2000/svg" width="189.092" height="186.654" viewBox="0 0 189.092 186.654">
  <g id="_161_quality_check_flatline" data-name="#161_quality_check_flatline" transform="translate(-82.448 -25.816)">
    <path id="Tracé_4224" data-name="Tracé 4224" d="M295.175,135.711h16.163c1.555-3.2,1.871-6.913,1.961-10.52a29.461,29.461,0,0,0-.992-9.708,16.448,16.448,0,0,0-19.77-10.85,7.446,7.446,0,0,0-3.847-2.374c-1.435-.308-5.7.105-5.741,1.57a2.592,2.592,0,0,0,.406,1.292c1.465,2.75,3.757,4.974,5.56,7.514C293.162,118.474,293.883,127.686,295.175,135.711Z" transform="translate(-49.843 -18.979)" fill="#f2f1f7"/>
    <path id="Tracé_4225" data-name="Tracé 4225" d="M311.214,135.962H295.051a.383.383,0,0,1-.376-.316c-.2-1.255-.383-2.54-.579-3.832-1.022-7-2.081-14.232-5.613-19.086-.639-.879-1.353-1.743-2.036-2.585A30.649,30.649,0,0,1,282.9,105.2a3.005,3.005,0,0,1-.451-1.5,1.3,1.3,0,0,1,.571-1.007c1.247-.984,4.4-1.187,5.628-.924a7.792,7.792,0,0,1,3.885,2.322,17.162,17.162,0,0,1,11.444,1.262,16.937,16.937,0,0,1,8.559,9.9,29.468,29.468,0,0,1,1.014,9.836c-.09,3.584-.4,7.356-2,10.647A.376.376,0,0,1,311.214,135.962Zm-15.847-.751h15.614c1.45-3.111,1.728-6.7,1.818-10.129.1-3.667,0-6.7-.977-9.58a16.073,16.073,0,0,0-19.319-10.58.376.376,0,0,1-.368-.105,7,7,0,0,0-3.644-2.254c-1.067-.233-4,0-5.012.751-.27.218-.278.383-.278.436a2.4,2.4,0,0,0,.361,1.1,30.732,30.732,0,0,0,3.464,4.824c.691.842,1.413,1.721,2.066,2.622,3.637,5,4.711,12.323,5.748,19.409C295.014,132.889,295.186,134.061,295.367,135.21Z" transform="translate(-49.719 -18.854)" fill="#1f4076"/>
    <path id="Tracé_4226" data-name="Tracé 4226" d="M319.806,102.12c2.021-1.6,3.96-3.389,6.327-4.4a1.119,1.119,0,0,1,.631-.135.924.924,0,0,1,.518.338,2.953,2.953,0,0,1,.518,2.652,7.259,7.259,0,0,1-1.307,2.472,28.945,28.945,0,0,1-5.312,5.53,11.1,11.1,0,0,1-4.569,2.412c-2.314.473-7.634-1.8-5.26-4.907.676-.887,2.254-.751,3.186-1a15.449,15.449,0,0,0,5.267-2.968Z" transform="translate(-56.755 -17.841)" fill="#f2f1f7"/>
    <path id="Tracé_4227" data-name="Tracé 4227" d="M315.793,111.3c-1.773,0-4.208-.977-5.147-2.465a2.57,2.57,0,0,1,.263-3.111,3.387,3.387,0,0,1,2.435-.977,6.883,6.883,0,0,0,.947-.158,15.366,15.366,0,0,0,5.155-2.9l1.135-.909a22.88,22.88,0,0,1,5.26-3.524,1.5,1.5,0,0,1,.842-.158,1.277,1.277,0,0,1,.751.458,3.306,3.306,0,0,1,.6,3.006,7.754,7.754,0,0,1-1.375,2.607,28.989,28.989,0,0,1-5.38,5.6,11.519,11.519,0,0,1-4.726,2.487A3.486,3.486,0,0,1,315.793,111.3Zm4.118-9.017a16.035,16.035,0,0,1-5.418,3.006,6.956,6.956,0,0,1-1.052.18,2.908,2.908,0,0,0-1.931.684,1.856,1.856,0,0,0-.225,2.254c.887,1.42,3.644,2.359,5.125,2.059a10.768,10.768,0,0,0,4.411-2.337,28.674,28.674,0,0,0,5.26-5.463,6.966,6.966,0,0,0,1.247-2.337,2.577,2.577,0,0,0-.436-2.314.594.594,0,0,0-.3-.21.872.872,0,0,0-.421.105,22.4,22.4,0,0,0-5.132,3.441l-1.112.9Z" transform="translate(-56.627 -17.718)" fill="#1f4076"/>
    <path id="Tracé_4228" data-name="Tracé 4228" d="M166.41,68.155c-1.2-5.4-2.8-10.738-3.284-16.245s.271-11.346,3.4-15.9a9.881,9.881,0,0,1,5.072-4.1c1.848-.564,5.019.473,5.019.473a53.261,53.261,0,0,1,4.771-3.111A32.451,32.451,0,0,1,192.754,26.5c5.538-.534,11.955-.248,15.472,4.058,2.585,3.163,2.81,7.574,2.915,11.654l.278,10.46" transform="translate(-20.023 -0.122)" fill="#1f4076"/>
    <path id="Tracé_4229" data-name="Tracé 4229" d="M166.283,68.409a.391.391,0,0,1-.376-.308c-.316-1.405-.654-2.818-1-4.223A80.786,80.786,0,0,1,162.616,51.8c-.391-4.508-.113-10.948,3.464-16.155a10.287,10.287,0,0,1,5.26-4.253c1.691-.511,4.328.2,5.057.421a50.2,50.2,0,0,1,4.674-3.006,32.914,32.914,0,0,1,11.5-2.8c7.717-.751,12.887.624,15.78,4.2,2.78,3.4,2.908,8.3,3.006,11.88l.353,10.437a.391.391,0,0,1-.376.4.383.383,0,0,1-.4-.376l-.278-10.467c-.113-4.328-.413-8.461-2.825-11.414-2.743-3.359-7.694-4.644-15.133-3.922a32.693,32.693,0,0,0-11.271,2.728,52.98,52.98,0,0,0-4.719,3.081.383.383,0,0,1-.346.053s-3.081-.992-4.786-.473a9.716,9.716,0,0,0-4.862,3.952c-3.449,5.019-3.712,11.271-3.329,15.644A80.02,80.02,0,0,0,165.644,63.7c.338,1.413.684,2.818,1,4.238a.383.383,0,0,1-.293.458Z" transform="translate(-19.896)" fill="#1f4076"/>
    <path id="Tracé_4230" data-name="Tracé 4230" d="M206.44,232.576c-3.757-69.2,2.194-94.978-.751-102.1C198.708,113.7,157.8,108.21,157.8,108.21s-44.266-.225-54.1,23.211c-2.465,5.891-19.537,46.783-21.212,72.015-.849,12.616,12.271,10.069,23.692,11.128V232.6Z" transform="translate(0 -20.482)" fill="#fce15c"/>
    <path id="Tracé_4231" data-name="Tracé 4231" d="M206.591,147.707l-3.359,4.614,13.112,55.018-7.762,15.622-11.391-15.622,1.6-54.6-4.892-5.628,7.041-5.575Z" transform="translate(-27.706 -28.765)" fill="#5c6f99"/>
    <path id="Tracé_4232" data-name="Tracé 4232" d="M208.453,223.215a.4.4,0,0,1-.316-.158l-11.384-15.622a.346.346,0,0,1-.075-.24l1.593-54.455-4.794-5.515a.391.391,0,0,1-.1-.286.428.428,0,0,1,.15-.271l7.041-5.568a.383.383,0,0,1,.526.038l5.651,6.177a.383.383,0,0,1,0,.488l-3.224,4.471,13.067,54.853a.353.353,0,0,1,0,.263L208.8,223a.376.376,0,0,1-.316.21Zm-11-16.088,10.933,15.028,7.416-14.923L202.727,152.38a.391.391,0,0,1,.068-.316l3.171-4.358-5.2-5.681-6.44,4.989,4.629,5.32a.368.368,0,0,1,.1.263Z" transform="translate(-27.576 -28.637)" fill="#1f4076"/>
    <path id="Tracé_4233" data-name="Tracé 4233" d="M205.72,97.83,207.5,109.4s-2.63,12.564-15.366,9.611a25.413,25.413,0,0,1-17.177-13.826L173.53,78.278s9.37-5.117,6.41-25.548A62.965,62.965,0,0,0,213,57.013s4.508,21.039,3.1,30.89S205.72,97.83,205.72,97.83Z" transform="translate(-22.642 -6.691)" fill="#f2f1f7"/>
    <path id="Tracé_4234" data-name="Tracé 4234" d="M195.7,119.726a16.69,16.69,0,0,1-3.757-.458,26.036,26.036,0,0,1-17.44-14.059.353.353,0,0,1,0-.128L173,78.173a.376.376,0,0,1,.2-.353c.09-.053,9.1-5.26,6.214-25.15a.413.413,0,0,1,.158-.368.4.4,0,0,1,.4,0,63.118,63.118,0,0,0,32.852,4.215.391.391,0,0,1,.436.3c.18.864,4.508,21.212,3.1,31.026-1.277,8.784-8.453,10.054-10.294,10.227l1.721,11.151a.457.457,0,0,1,0,.143c-.053.233-1.247,5.7-5.816,8.619A11.331,11.331,0,0,1,195.7,119.726Zm-20.491-14.75A25.2,25.2,0,0,0,192.093,118.5c3.682.857,6.86.458,9.423-1.172,4.035-2.57,5.312-7.446,5.463-8.07l-1.773-11.5a.383.383,0,0,1,.376-.451c.353,0,8.619-.188,9.994-9.588,1.315-9.017-2.435-27.614-3.006-30.395a64.884,64.884,0,0,1-32.266-4.08c2.465,18.44-5.049,24.21-6.507,25.112Z" transform="translate(-22.51 -6.571)" fill="#1f4076"/>
    <path id="Tracé_4235" data-name="Tracé 4235" d="M206.964,74.83s6.011,11.091,4.215,12.774-6.379,0-6.379,0" transform="translate(-30.415 -12.185)" fill="#f2f1f7"/>
    <path id="Tracé_4236" data-name="Tracé 4236" d="M208.531,88.579a13.45,13.45,0,0,1-3.982-.751.368.368,0,0,1-.225-.473.383.383,0,0,1,.481-.233c.045,0,4.358,1.5,6.011.045,1.112-1.014-1.841-7.807-4.291-12.3a.377.377,0,0,1,.661-.361c1.029,1.894,6.086,11.436,4.14,13.21a4.1,4.1,0,0,1-2.8.864Z" transform="translate(-30.291 -12.055)" fill="#1f4076"/>
    <ellipse id="Ellipse_385" data-name="Ellipse 385" cx="1.247" cy="2.863" rx="1.247" ry="2.863" transform="matrix(0.999, -0.042, 0.042, 0.999, 165.813, 57.109)" fill="#1f4076"/>
    <ellipse id="Ellipse_386" data-name="Ellipse 386" cx="1.247" cy="2.863" rx="1.247" ry="2.863" transform="matrix(1, -0.04, 0.04, 1, 184.338, 58.253)" fill="#231f20"/>
    <path id="Tracé_4237" data-name="Tracé 4237" d="M179.263,77.61a17.425,17.425,0,0,0-4.373-4.974,5.914,5.914,0,0,0-3.261-1.435,5.26,5.26,0,0,0-2.8.834,10.362,10.362,0,0,0-4.892,6.868,8.213,8.213,0,0,0,.15,3.982,9.145,9.145,0,0,0,3.967,4.771,27.163,27.163,0,0,0,5.793,2.5" transform="translate(-20.215 -11.282)" fill="#f2f1f7"/>
    <path id="Tracé_4238" data-name="Tracé 4238" d="M173.705,90.479h-.128a27.8,27.8,0,0,1-5.876-2.547,9.46,9.46,0,0,1-4.125-4.974,8.551,8.551,0,0,1-.158-4.178,10.723,10.723,0,0,1,5.087-7.131,5.545,5.545,0,0,1,3.006-.879,6.38,6.38,0,0,1,3.479,1.5A17.914,17.914,0,0,1,179.5,77.36a.391.391,0,0,1-.661.346,17,17,0,0,0-4.283-4.862,5.7,5.7,0,0,0-3.006-1.353,4.794,4.794,0,0,0-2.585.751,9.956,9.956,0,0,0-4.719,6.612,7.725,7.725,0,0,0,.143,3.757,8.694,8.694,0,0,0,3.757,4.554,26.96,26.96,0,0,0,5.688,2.562.383.383,0,0,1,.24.488.391.391,0,0,1-.368.263Z" transform="translate(-20.082 -11.175)" fill="#1f4076"/>
    <path id="Tracé_4239" data-name="Tracé 4239" d="M209.3,111.584a34.835,34.835,0,0,1-21.363-3.524s10.888,16.741,23.038,14.382Z" transform="translate(-26.224 -20.445)" fill="#1f4076"/>
    <path id="Tracé_4240" data-name="Tracé 4240" d="M208.5,122.919c-4.433,0-9.22-2.254-13.984-6.627a48.152,48.152,0,0,1-7.026-8.153.376.376,0,0,1,0-.451.368.368,0,0,1,.451-.083,34.76,34.76,0,0,0,21.107,3.487.38.38,0,0,1,.451.308l1.676,10.858a.376.376,0,0,1-.3.428A12.864,12.864,0,0,1,208.5,122.919Zm-19.537-14.014c2.713,3.689,11.714,14.69,21.468,13.1L208.9,111.9a35.842,35.842,0,0,1-19.942-2.991Z" transform="translate(-26.095 -20.321)" fill="#1f4076"/>
    <path id="Tracé_4241" data-name="Tracé 4241" d="M2.615,0h.323A2.615,2.615,0,0,1,5.553,2.615V23.369H0V2.622A2.615,2.615,0,0,1,2.615.008Z" transform="translate(244.037 80.005) rotate(122.24)" fill="#5c6f99"/>
    <path id="Tracé_4242" data-name="Tracé 4242" d="M286.058,97.757a2.931,2.931,0,0,1-1.586-.466l-17.53-11.076a.338.338,0,0,1-.165-.24.361.361,0,0,1,.045-.278l2.961-4.7a.376.376,0,0,1,.518-.113l17.53,11.076a3.006,3.006,0,0,1,.939,4.125l-.173.278h0a3.006,3.006,0,0,1-1.871,1.322,3.382,3.382,0,0,1-.669.075Zm-18.425-11.97,17.237,10.865a2.194,2.194,0,0,0,1.691.293,2.254,2.254,0,0,0,1.42-.962l.173-.271a2.254,2.254,0,0,0-.7-3.088L270.2,81.707Zm20.641,10.369Z" transform="translate(-45.82 -13.674)" fill="#1f4076"/>
    <rect id="Rectangle_1968" data-name="Rectangle 1968" width="8.987" height="5.051" transform="matrix(-0.529, 0.849, -0.849, -0.529, 227.079, 67.061)" fill="#5c6f99"/>
    <path id="Tracé_4243" data-name="Tracé 4243" d="M266.465,87.6a.376.376,0,0,1-.2-.06L262,84.851a.376.376,0,0,1-.12-.518l4.786-7.582a.368.368,0,0,1,.518-.12l4.26,2.69a.353.353,0,0,1,.165.233.383.383,0,0,1-.045.286l-4.794,7.574a.376.376,0,0,1-.233.165Zm-3.757-3.193,3.629,2.254,4.388-6.951L267.1,77.457Z" transform="translate(-44.591 -12.617)" fill="#1f4076"/>
    <rect id="Rectangle_1969" data-name="Rectangle 1969" width="8.972" height="35.294" rx="4.21" transform="translate(268.403 93.36) rotate(122.24)" fill="#5c6f99"/>
    <path id="Tracé_4244" data-name="Tracé 4244" d="M312.948,116.5a3.509,3.509,0,0,1-1.879-.549l-24.5-15.456a3.539,3.539,0,0,1-1.1-4.884l1.405-2.254a3.554,3.554,0,0,1,4.884-1.1l24.5,15.457a3.539,3.539,0,0,1,1.1,4.884l-1.405,2.254a3.532,3.532,0,0,1-2.254,1.563,3.479,3.479,0,0,1-.751.09ZM289.872,92.454a2.8,2.8,0,0,0-2.367,1.3L286.1,96.008a2.758,2.758,0,0,0-.361,2.1,2.788,2.788,0,0,0,1.232,1.743l24.5,15.449a2.8,2.8,0,0,0,3.855-.872h0l1.405-2.254a2.788,2.788,0,0,0-.872-3.847l-24.5-15.449a2.773,2.773,0,0,0-1.488-.4Z" transform="translate(-50.333 -16.38)" fill="#1f4076"/>
    <path id="Tracé_4245" data-name="Tracé 4245" d="M214.464,47.016a23.812,23.812,0,1,0,32.852-7.431,23.812,23.812,0,0,0-32.852,7.431Z" transform="translate(-31.904 -2.509)" fill="#5c6f99"/>
    <path id="Tracé_4246" data-name="Tracé 4246" d="M234.438,83.785A24.173,24.173,0,0,1,214.023,46.7h0a24.188,24.188,0,1,1,20.416,37.09ZM214.654,47.124a23.444,23.444,0,1,0,14.652-10.354,23.444,23.444,0,0,0-14.652,10.354Z" transform="translate(-31.778 -2.384)" fill="#1f4076"/>
    <path id="Tracé_4247" data-name="Tracé 4247" d="M246.3,45.439a18.838,18.838,0,1,1-25.976,5.884A18.838,18.838,0,0,1,246.3,45.439Z" transform="translate(-33.552 -4.156)" fill="#f2f1f7"/>
    <path id="Tracé_4248" data-name="Tracé 4248" d="M236.092,80.457a19.214,19.214,0,1,1,10.279-35.444h0a19.206,19.206,0,0,1-10.279,35.459Zm.06-37.7a18.674,18.674,0,0,0-4.108.458,18.47,18.47,0,1,0,13.929,2.4h0A18.342,18.342,0,0,0,236.152,42.759Z" transform="translate(-33.417 -4.031)" fill="#1f4076"/>
    <path id="Tracé_4249" data-name="Tracé 4249" d="M210.882,93.3s-13.007,10.091-18.132-9.475" transform="translate(-27.42 -14.419)" fill="#f2f1f7"/>
    <path id="Tracé_4250" data-name="Tracé 4250" d="M203.455,96.149a8.814,8.814,0,0,1-2.825-.458c-3.825-1.3-6.635-5.3-8.363-11.91a.387.387,0,0,1,.751-.188c1.653,6.342,4.306,10.174,7.875,11.384,4.756,1.623,9.611-2.066,9.656-2.1a.377.377,0,0,1,.466.594,13.683,13.683,0,0,1-7.559,2.683Z" transform="translate(-27.297 -14.29)" fill="#1f4076"/>
    <path id="Tracé_4251" data-name="Tracé 4251" d="M303.127,105.069a2.5,2.5,0,0,0,1.067-2.314,12.773,12.773,0,0,0-.849-4.974l2.961,6.515a10.7,10.7,0,0,0,2.187,3.517,3.659,3.659,0,0,0,3.825.909c1.841-.827,2.149-3.306,1.894-5.3a19.941,19.941,0,0,0-1.465-5.425,8.183,8.183,0,0,0-2.953-3.87,3.848,3.848,0,0,0-4.584.2c-1.292-1.976-3.96-5.53-6.815-4.824-1.871.458-1.653,1.5-1.277,3.224C297.634,95.045,299.836,106.609,303.127,105.069Z" transform="translate(-53.301 -15.809)" fill="#f2f1f7"/>
    <path id="Tracé_4252" data-name="Tracé 4252" d="M311.082,109.208a4.509,4.509,0,0,1-2.961-1.247,11.159,11.159,0,0,1-2.254-3.637l-1.428-3.148a13.827,13.827,0,0,1,.038,1.5,2.785,2.785,0,0,1-1.285,2.645,1.721,1.721,0,0,1-1.555,0c-2.254-1.127-3.757-7-4.847-12.023l-.135-.6c-.353-1.608-.691-3.126,1.555-3.674s4.576,1.067,6.981,4.636a4.4,4.4,0,0,1,4.7,0A8.476,8.476,0,0,1,313,97.7a20.777,20.777,0,0,1,1.5,5.523c.135,1.059.376,4.591-2.111,5.7A3.1,3.1,0,0,1,311.082,109.208ZM303.23,97.283a.368.368,0,0,1,.338.218l2.961,6.515a10.715,10.715,0,0,0,2.1,3.4,3.284,3.284,0,0,0,3.419.842c2.014-.9,1.788-3.99,1.676-4.914a19.957,19.957,0,0,0-1.443-5.327,7.747,7.747,0,0,0-2.8-3.7,3.464,3.464,0,0,0-4.133.158.353.353,0,0,1-.3.105.383.383,0,0,1-.27-.165c-1.6-2.457-4.013-5.26-6.41-4.674-1.458.361-1.4.992-1,2.78l.128.609c.549,2.562,2.217,10.354,4.456,11.474a.977.977,0,0,0,.9,0h0c.654-.308.827-1.247.849-1.984a12.331,12.331,0,0,0-.827-4.832.368.368,0,0,1,.2-.481.361.361,0,0,1,.15-.023Z" transform="translate(-53.186 -15.687)" fill="#1f4076"/>
    <path id="Tracé_4253" data-name="Tracé 4253" d="M292,106.55s9.017,3.344,10.016,13.27" transform="translate(-52.093 -20.07)" fill="#f2f1f7"/>
    <path id="Tracé_4254" data-name="Tracé 4254" d="M301.837,120.071a.368.368,0,0,1-.368-.338c-.954-9.565-9.686-12.924-9.768-12.954a.383.383,0,0,1-.218-.488.376.376,0,0,1,.481-.218c.1,0,9.257,3.539,10.257,13.585a.376.376,0,0,1-.338.413Z" transform="translate(-51.958 -19.945)" fill="#1f4076"/>
    <path id="Tracé_4255" data-name="Tracé 4255" d="M236.183,127.5s37.616,35.316,38.006,33c2.487-14.48,4.463-26.863,4.463-26.863l24.541,1s0,69.13-16.531,70.805c-12.518,1.262-56.153-39.592-56.153-39.592Z" transform="translate(-36.807 -25.278)" fill="#fce15c"/>
    <path id="Tracé_4256" data-name="Tracé 4256" d="M243.991,226.812a.391.391,0,0,1-.383-.361l-6.988-82.257a.391.391,0,0,1,.751-.06l7.048,82.257a.383.383,0,0,1-.353.413Z" transform="translate(-38.326 -29.349)" fill="#1f4076"/>
    <path id="Tracé_4257" data-name="Tracé 4257" d="M153.782,225.664h0l-48.646-1.585a.391.391,0,0,1-.376-.406.406.406,0,0,1,.406-.376l48.263,1.578,1.375-25.849-33.656-3.982a.413.413,0,0,1-.271-.165.406.406,0,0,1-.06-.308c4.381-18.507,10.88-46.52,10.805-47.835a.383.383,0,0,1,.286-.458.406.406,0,0,1,.473.3c.286,1.142-8.641,39.021-10.708,47.745l33.581,3.982a.383.383,0,0,1,.338.406L154.18,225.3a.391.391,0,0,1-.4.368Z" transform="translate(-5.546 -29.944)" fill="#1f4076"/>
    <path id="Tracé_4258" data-name="Tracé 4258" d="M208.868,180.59l45.859,8.393-13.075,61.586L193.9,245.031Z" transform="translate(-27.706 -38.475)" fill="#1f4076"/>
    <path id="Tracé_4259" data-name="Tracé 4259" d="M241.535,250.821h-.045l-47.76-5.53a.379.379,0,0,1-.323-.458l14.968-64.448a.376.376,0,0,1,.436-.286l45.836,8.4a.353.353,0,0,1,.24.158.406.406,0,0,1,.06.293l-13.075,61.578A.376.376,0,0,1,241.535,250.821Zm-47.3-6.237,47,5.448,12.917-60.864L209.029,180.9Z" transform="translate(-27.581 -38.351)" fill="#1f4076"/>
    <path id="Tracé_4260" data-name="Tracé 4260" d="M208.687,215.739c-.353-4.02-13.4,1.45-13.4,1.45s3.682-8.386,1.706-9.911-8.619,8.559-8.619,8.559a115.12,115.12,0,0,1-16.854,1.353L170.35,235.9c18.71-1.353,30.845-1.886,31.424-3.088C202.916,230.414,209.04,219.759,208.687,215.739Z" transform="translate(-21.852 -45.071)" fill="#f2f1f7"/>
    <path id="Tracé_4261" data-name="Tracé 4261" d="M170.235,236.123a.316.316,0,0,1-.24-.1.323.323,0,0,1-.105-.263l1.172-18.71a.353.353,0,0,1,.346-.323h0a114.169,114.169,0,0,0,16.651-1.322c.872-1.3,5.628-8.311,8.1-8.724a1.165,1.165,0,0,1,.932.21c1.826,1.413-.368,7.334-1.277,9.55,2.435-.954,9.843-3.659,12.263-2.2a1.683,1.683,0,0,1,.842,1.353h0c.293,3.411-3.757,11.143-5.944,15.3-.451.849-.8,1.5-1.007,1.946-.518,1.09-5.861,1.5-21.227,2.555-3.2.218-6.7.458-10.52.751Zm1.5-18.7-1.127,17.989,10.091-.7c11.211-.751,20.063-1.368,20.664-2.172.2-.421.556-1.1,1.007-1.961,1.991-3.8,6.147-11.707,5.868-14.923h0a1.022,1.022,0,0,0-.511-.827c-2.119-1.277-9.686,1.413-12.413,2.562a.346.346,0,0,1-.451-.458c1.383-3.141,3.1-8.506,1.811-9.5a.481.481,0,0,0-.4-.075c-1.924.323-6.222,6.282-7.717,8.559a.376.376,0,0,1-.233.15,120.906,120.906,0,0,1-16.6,1.368Z" transform="translate(-21.737 -44.956)" fill="#1f4076"/>
    <path id="Tracé_4262" data-name="Tracé 4262" d="M284.763,176.679h-.075a.383.383,0,0,1-.3-.458l6.763-32.153a.383.383,0,0,1,.458-.3.391.391,0,0,1,.3.458l-6.763,32.153a.383.383,0,0,1-.383.3Z" transform="translate(-50.198 -29.319)" fill="#1f4076"/>
    <path id="Tracé_4263" data-name="Tracé 4263" d="M227.76,65.01a5.672,5.672,0,0,1,.481-.556l1.818-1.6a.751.751,0,0,1,1.232,0l4.651,4.734a.751.751,0,0,0,1.307,0l10.888-10.835a.751.751,0,0,1,1.315,0l1.909,1.924a.751.751,0,0,1,0,1.225L237.19,74.049a.751.751,0,0,1-1.18,0q-3.99-4.118-7.972-8.266a2.716,2.716,0,0,1-.278-.421Z" transform="translate(-36.123 -7.594)" fill="#fce15c"/>
    <path id="Tracé_4264" data-name="Tracé 4264" d="M236.482,74.61h0a1.187,1.187,0,0,1-.857-.406l-7.972-8.266a2.389,2.389,0,0,1-.248-.361l-.075-.12a.376.376,0,0,1-.06-.2v-.376a.353.353,0,0,1,.09-.24l.143-.173a3.81,3.81,0,0,1,.368-.413c.428-.4.872-.8,1.307-1.187l.518-.458a1.127,1.127,0,0,1,1.751.045l4.644,4.734a.751.751,0,0,0,.4.248h0a.7.7,0,0,0,.346-.173l10.88-10.835a1.345,1.345,0,0,1,.932-.466,1.36,1.36,0,0,1,.917.473l1.909,1.924a1.142,1.142,0,0,1,0,1.751L237.331,74.219A1.187,1.187,0,0,1,236.482,74.61Zm-8.468-9.43v.053a1.433,1.433,0,0,0,.143.21q3.982,4.125,7.972,8.266a.488.488,0,0,0,.316.18h0a.548.548,0,0,0,.323-.173l14.172-14.149c.248-.248.248-.428,0-.691l-1.909-1.916a1.082,1.082,0,0,0-.391-.255.751.751,0,0,0-.391.248L237.391,67.757a1.33,1.33,0,0,1-.909.458h0a1.33,1.33,0,0,1-.924-.473l-4.644-4.734c-.278-.286-.413-.286-.751,0l-.511.466c-.436.391-.872.751-1.3,1.172a3.215,3.215,0,0,0-.3.338l-.06.075Z" transform="translate(-36.001 -7.494)" fill="#5c6f99"/>
    <path id="Tracé_4265" data-name="Tracé 4265" d="M230.54,184.3l2.134-4.922,19.89,3.517v5.192Z" transform="translate(-36.814 -38.175)" fill="#1f4076"/>
    <path id="Tracé_4266" data-name="Tracé 4266" d="M252.439,188.351h-.06l-22.024-3.757a.361.361,0,0,1-.278-.518l2.126-4.922a.376.376,0,0,1,.413-.225l19.89,3.517a.376.376,0,0,1,.308.376V188a.368.368,0,0,1-.135.286A.4.4,0,0,1,252.439,188.351ZM230.957,183.9l21.107,3.622v-4.433l-19.281-3.4Z" transform="translate(-36.69 -38.061)" fill="#1f4076"/>
    <path id="Tracé_4267" data-name="Tracé 4267" d="M172.634,149.46a1.33,1.33,0,0,1-.812-.323c-3.562-2.75-9.7-26.976-9.348-29.778.391-3.081,5.448-7.266,5.666-7.446a.391.391,0,0,1,.549.06.383.383,0,0,1-.053.541c-.053.045-5.042,4.17-5.388,6.943-.338,2.652,5.741,26.51,9.017,29.072.173.128.308.18.413.143,3.006-1.217,11.166-12.586,11.271-12.7a.391.391,0,0,1,.541-.09.383.383,0,0,1,.09.541c-.338.473-8.356,11.669-11.594,12.962a.857.857,0,0,1-.353.075Z" transform="translate(-19.89 -21.381)" fill="#1f4076"/>
    <path id="Tracé_4268" data-name="Tracé 4268" d="M220.474,148.076h-.143c-2.51-.278-6.6-8.716-7.063-9.671a.391.391,0,0,1,.188-.518.383.383,0,0,1,.511.18c1.661,3.479,4.877,9.062,6.447,9.235a.428.428,0,0,0,.428-.21c1.909-2.442,4.508-16.148,2.69-22.9a.391.391,0,0,1,.271-.481.383.383,0,0,1,.473.278c1.909,7.078-.789,20.972-2.818,23.579A1.217,1.217,0,0,1,220.474,148.076Z" transform="translate(-32.511 -24.334)" fill="#1f4076"/>
  </g>
</svg>
