<svg xmlns="http://www.w3.org/2000/svg" width="72.107" height="70.056" viewBox="0 0 72.107 70.056">
  <g id="route" transform="translate(0 -2.389)">
    <path id="Tracé_47" data-name="Tracé 47" d="M29.881,23.611c-.231,0-.466.008-.7.025a9.951,9.951,0,0,0-7.373,15.641c1.752,2.489,6.523,10.853,6.571,10.937a1.717,1.717,0,0,0,1.491.867h.859a.853.853,0,0,0,.8-1.16c.866-1.512,4.887-8.5,6.384-10.619a9.944,9.944,0,0,0-8.035-15.69Zm6.634,14.7c-1.741,2.46-6.642,11.054-6.642,11.054s-4.839-8.489-6.658-11.075A8.234,8.234,0,0,1,29.3,25.348q.29-.02.577-.02a8.227,8.227,0,0,1,6.634,12.982Z" transform="translate(-11.417 -12.113)" fill="#1f4076"/>
    <path id="Tracé_48" data-name="Tracé 48" d="M50.258,85.327h1.374a.858.858,0,1,0,0-1.717H50.258a.858.858,0,1,0,0,1.717Z" transform="translate(-28.197 -46.36)" fill="#2c70de"/>
    <path id="Tracé_49" data-name="Tracé 49" d="M59.858,84.338h.858a.859.859,0,0,0,.744-.43l.428-.744a.859.859,0,0,0-1.488-.857l-.181.314h-.362a.858.858,0,0,0,0,1.717Z" transform="translate(-33.677 -45.371)" fill="#1f4076"/>
    <path id="Tracé_50" data-name="Tracé 50" d="M68.448,70.916a.858.858,0,0,0-1.172.316l-.912,1.585a.859.859,0,0,0,1.488.857l.912-1.585a.859.859,0,0,0-.316-1.172Z" transform="translate(-37.814 -39.049)" fill="#2c70de"/>
    <path id="Tracé_51" data-name="Tracé 51" d="M73.652,60.157l-.912,1.584a.859.859,0,0,0,1.488.857l.912-1.584a.859.859,0,0,0-1.488-.857Z" transform="translate(-41.454 -32.728)" fill="#1f4076"/>
    <path id="Tracé_52" data-name="Tracé 52" d="M81.147,50.611h-.858a.859.859,0,0,0-.744.43l-.428.744a.858.858,0,1,0,1.488.857l.181-.314h.362a.858.858,0,1,0,0-1.717Z" transform="translate(-45.093 -27.524)" fill="#2c70de"/>
    <path id="Tracé_53" data-name="Tracé 53" d="M117.144,52.327h1.839a.858.858,0,1,0,0-1.717h-1.839a.858.858,0,1,0,0,1.717Z" transform="translate(-66.375 -27.524)" fill="#1f4076"/>
    <path id="Tracé_54" data-name="Tracé 54" d="M106.126,50.611h-1.84a.858.858,0,0,0,0,1.717h1.84a.858.858,0,1,0,0-1.717Z" transform="translate(-59.036 -27.524)" fill="#2c70de"/>
    <path id="Tracé_55" data-name="Tracé 55" d="M91.43,52.327h1.839a.858.858,0,0,0,0-1.717H91.43a.858.858,0,1,0,0,1.717Z" transform="translate(-51.697 -27.524)" fill="#1f4076"/>
    <path id="Tracé_56" data-name="Tracé 56" d="M131.84,50.611H130a.858.858,0,1,0,0,1.717h1.839a.858.858,0,1,0,0-1.717Z" transform="translate(-73.713 -27.524)" fill="#2c70de"/>
    <path id="Tracé_57" data-name="Tracé 57" d="M139.046,51.044a.858.858,0,0,0-.746-.433h-.858a.859.859,0,0,0-.438,1.6.859.859,0,0,0,1.6.438l.438-.739A.859.859,0,0,0,139.046,51.044Zm-4.491,6.745a.858.858,0,0,0-1.176.3l-.749,1.264a.858.858,0,1,0,1.477.875l.749-1.264A.859.859,0,0,0,134.555,57.789Z" transform="translate(-75.635 -27.524)" fill="#1f4076"/>
    <path id="Tracé_58" data-name="Tracé 58" d="M119.067,58.642l-.749,1.264a.858.858,0,0,0,1.477.875l.749-1.264a.858.858,0,0,0-1.477-.875Zm-4.193,9.618a.858.858,0,0,0,.739-.421l.438-.739a.858.858,0,0,0-1.477-.875l-.188.318h-.369a.858.858,0,1,0,0,1.717Zm-8.906-1.717h-1.61a.858.858,0,1,0,0,1.717h1.61a.858.858,0,1,0,0-1.717Z" transform="translate(-59.077 -31.868)" fill="#2c70de"/>
    <path id="Tracé_59" data-name="Tracé 59" d="M97.994,78.469a.858.858,0,0,0,.858.858h1.61a.858.858,0,1,0,0-1.717h-1.61a.858.858,0,0,0-.858.858ZM90.4,79.6l.115-.269H90.8a.858.858,0,1,0,0-1.717h-.858a.859.859,0,0,0-.789.52l-.338.789A.858.858,0,0,0,90.4,79.6Zm-4.483,8.281a.858.858,0,0,0,1.127-.451l.559-1.305a.858.858,0,0,0-1.578-.676l-.559,1.305A.858.858,0,0,0,85.914,87.877Z" transform="translate(-48.742 -42.936)" fill="#1f4076"/>
    <path id="Tracé_60" data-name="Tracé 60" d="M74.19,85.6a.859.859,0,0,0-1.127.451L72.5,87.355a.858.858,0,1,0,1.578.677l.559-1.305A.859.859,0,0,0,74.19,85.6Zm-3.243,9.746.338-.789a.859.859,0,0,0-1.578-.677l-.115.269H69.3a.858.858,0,0,0,0,1.717h.858a.859.859,0,0,0,.789-.52Zm-10.339-1.2a.858.858,0,1,0,0,1.717h1.449a.858.858,0,1,0,0-1.717Z" transform="translate(-34.105 -47.456)" fill="#2c70de"/>
    <path id="Tracé_61" data-name="Tracé 61" d="M52.919,106.469a.858.858,0,0,0,.858.858h1.449a.858.858,0,1,0,0-1.717H53.777a.858.858,0,0,0-.858.858ZM45.306,108.1a.858.858,0,0,0,.776-.49l.136-.286h.316a.858.858,0,1,0,0-1.717h-.858a.858.858,0,0,0-.775.489l-.369.775a.859.859,0,0,0,.774,1.228Zm-4.648,8.9A.858.858,0,0,0,41.8,116.6l.713-1.5a.858.858,0,0,0-1.55-.738l-.713,1.5A.858.858,0,0,0,40.658,117.006Z" transform="translate(-22.928 -58.918)" fill="#1f4076"/>
    <path id="Tracé_62" data-name="Tracé 62" d="M38.709,71.581l.713-1.5a.858.858,0,1,0-1.55-.738l-.713,1.5a.858.858,0,0,0,1.55.738Zm-4.28,8.987.713-1.5a.858.858,0,0,0-1.55-.738l-.713,1.5a.858.858,0,0,0,1.55.738Zm1.721-45.958A5.151,5.151,0,1,0,41.3,39.761a5.151,5.151,0,0,0-5.151-5.151Zm0,8.584a3.434,3.434,0,1,1,3.434-3.434A3.434,3.434,0,0,1,36.151,43.195ZM76.5,67.231a5.151,5.151,0,1,0-5.151,5.151A5.151,5.151,0,0,0,76.5,67.231Zm-5.151,3.434a3.434,3.434,0,1,1,3.434-3.434A3.434,3.434,0,0,1,71.346,70.664Z" transform="translate(-17.694 -18.392)" fill="#4973d2"/>
    <path id="Tracé_63" data-name="Tracé 63" d="M11.288,10.644A1.288,1.288,0,1,0,10,9.357a1.288,1.288,0,0,0,1.288,1.288Zm0-1.931a.644.644,0,1,1-.644.644A.644.644,0,0,1,11.288,8.713ZM73.654,29.954a.858.858,0,1,0,.858.858.858.858,0,0,0-.858-.858Zm0,1.288a.429.429,0,1,1,.429-.429.429.429,0,0,1-.429.429ZM61.295,9.142a.858.858,0,1,0,.858.858A.858.858,0,0,0,61.295,9.142Zm0,1.288A.429.429,0,1,1,61.724,10a.429.429,0,0,1-.429.429Zm12.359-5.8a.858.858,0,1,0,.858.858A.858.858,0,0,0,73.654,4.63Zm0,1.288a.429.429,0,1,1,.429-.429A.429.429,0,0,1,73.654,5.918Zm-36.2-2.67a.858.858,0,1,0-.858.858.858.858,0,0,0,.858-.858Zm-1.288,0a.429.429,0,1,1,.429.429A.429.429,0,0,1,36.166,3.248Z" transform="translate(-5.708)" fill="#1f4076"/>
    <path id="Tracé_64" data-name="Tracé 64" d="M9.065,65.2l.638-.84-.4-.228-.41.94H8.877l-.416-.933-.41.235.631.819v.013l-.988-.128v.457l.994-.127v.014l-.638.819.382.242.437-.947h.013l.4.94.423-.242-.645-.806v-.013l1.014.121v-.457l-1.014.134Z" transform="translate(-4.392 -35.243)" fill="#4973d2"/>
    <path id="Tracé_65" data-name="Tracé 65" d="M72.536,37.777l-.367.472.22.139.252-.545h.007l.232.541.244-.139-.371-.464v-.008l.584.07v-.263l-.584.077v-.008l.367-.483-.232-.131-.236.541h-.008l-.24-.537-.236.135.364.472v.008l-.569-.073v.263l.573-.073Z" transform="translate(-41.076 -19.775)" fill="#4973d2"/>
    <path id="Tracé_66" data-name="Tracé 66" d="M152.195,43.493v-.448l-.994.131v-.013l.626-.823-.4-.224-.4.922h-.013l-.408-.916-.4.23.619.8v.013l-.969-.125v.448l.975-.125v.013l-.626.8.376.237.428-.929h.013l.4.922.415-.237-.632-.791v-.013Z" transform="translate(-85.536 -22.676)" fill="#4973d2"/>
    <path id="Tracé_67" data-name="Tracé 67" d="M104.809,37.2l.54-.71-.341-.193-.346.8h-.012l-.352-.79-.347.2.534.694V37.2l-.836-.108v.386l.841-.108v.012l-.54.693.324.2.37-.8h.011l.341.8.358-.2-.546-.682v-.012l.858.1v-.386l-.858.114Z" transform="translate(-59.162 -19.352)" fill="#4973d2"/>
    <circle id="Ellipse_8" data-name="Ellipse 8" cx="0.858" cy="0.858" r="0.858" transform="translate(0 64.72)" fill="#2d4356"/>
    <path id="Tracé_68" data-name="Tracé 68" d="M8.146,147.611H6.858a.858.858,0,0,0,0,1.717H8.146a.858.858,0,0,0,0-1.717Z" transform="translate(-3.425 -82.891)" fill="#2d4356"/>
    <path id="Tracé_69" data-name="Tracé 69" d="M78.111,155.611H74.545a.861.861,0,0,0,0,1.717h3.566a.861.861,0,0,0,0-1.717Zm-25.753,0H48.792a.861.861,0,0,0,0,1.717h3.566a.861.861,0,0,0,0-1.717Zm19.678,0H54.867a.858.858,0,1,0,0,1.717h6.842v.858H58.3a.858.858,0,1,0,0,1.717h10.73a.858.858,0,1,0,0-1.717H65.194v-.858h6.842a.858.858,0,1,0,0-1.717Z" transform="translate(-27.398 -87.457)" fill="#0bceb2"/>
    <circle id="Ellipse_9" data-name="Ellipse 9" cx="0.858" cy="0.858" r="0.858" transform="translate(0 64.72)" fill="#2d4356"/>
    <path id="Tracé_70" data-name="Tracé 70" d="M8.146,147.611H6.858a.858.858,0,0,0,0,1.717H8.146a.858.858,0,0,0,0-1.717Z" transform="translate(-3.425 -82.891)" fill="#2d4356"/>
    <path id="Tracé_71" data-name="Tracé 71" d="M78.111,155.611H74.545a.861.861,0,0,0,0,1.717h3.566a.861.861,0,0,0,0-1.717Zm-25.753,0H48.792a.861.861,0,0,0,0,1.717h3.566a.861.861,0,0,0,0-1.717Zm19.678,0H54.867a.858.858,0,1,0,0,1.717h6.842v.858H58.3a.858.858,0,1,0,0,1.717h10.73a.858.858,0,1,0,0-1.717H65.194v-.858h6.842a.858.858,0,1,0,0-1.717Z" transform="translate(-27.398 -87.457)" fill="#0bceb2"/>
    <circle id="Ellipse_10" data-name="Ellipse 10" cx="0.858" cy="0.858" r="0.858" transform="translate(0 64.72)" fill="#1f4076"/>
    <path id="Tracé_72" data-name="Tracé 72" d="M8.146,147.611H6.858a.858.858,0,0,0,0,1.717H8.146a.858.858,0,0,0,0-1.717Z" transform="translate(-3.425 -82.891)" fill="#1f4076"/>
    <path id="Tracé_73" data-name="Tracé 73" d="M78.111,155.611H74.545a.861.861,0,0,0,0,1.717h3.566a.861.861,0,0,0,0-1.717Zm-25.753,0H48.792a.861.861,0,0,0,0,1.717h3.566a.861.861,0,0,0,0-1.717Zm19.678,0H54.867a.858.858,0,1,0,0,1.717h6.842v.858H58.3a.858.858,0,1,0,0,1.717h10.73a.858.858,0,1,0,0-1.717H65.194v-.858h6.842a.858.858,0,1,0,0-1.717Z" transform="translate(-27.398 -87.457)" fill="#4973d2"/>
    <path id="Tracé_74" data-name="Tracé 74" d="M157.146,147.611h-1.288a.858.858,0,0,0,0,1.717h1.288a.858.858,0,1,0,0-1.717Z" transform="translate(-88.472 -82.891)" fill="#1f4076"/>
    <circle id="Ellipse_11" data-name="Ellipse 11" cx="0.858" cy="0.858" r="0.858" transform="translate(70.39 64.72)" fill="#1f4076"/>
    <path id="Tracé_75" data-name="Tracé 75" d="M73.253,113.363H64.192c1.276-2.219,4.708-8.146,6.065-10.062a9.944,9.944,0,0,0-8.035-15.69c-.231,0-.466.008-.7.025a9.951,9.951,0,0,0-7.373,15.641c1.419,2.017,4.819,7.886,6.084,10.087H23.942a.853.853,0,0,0-1.622-.286l-.136.286H15.978a.866.866,0,1,0,0,1.717H73.253a.866.866,0,1,0,0-1.717Zm-17.7-11.075a8.234,8.234,0,0,1,6.089-12.941q.29-.02.577-.02a8.227,8.227,0,0,1,6.634,12.982c-1.741,2.46-6.642,11.054-6.642,11.054s-4.839-8.489-6.658-11.075Z" transform="translate(-8.562 -48.643)" fill="#1f4076"/>
  </g>
</svg>
