<svg xmlns="http://www.w3.org/2000/svg" width="30.199" height="26.919" viewBox="0 0 30.199 26.919">
  <g id="Groupe_299" data-name="Groupe 299" transform="translate(-61 -133)">
    <path id="Union_5" data-name="Union 5" d="M4.24,21.426A11.628,11.628,0,0,1,0,12.641C0,5.66,6.76,0,15.1,0S30.2,5.66,30.2,12.641,23.438,25.283,15.1,25.283a17.627,17.627,0,0,1-5.757-.952c-3.1,2.351-4.584,2.36-8.312,2.587C2.94,26.075,3.882,22.966,4.24,21.426Z" transform="translate(61 133)" fill="#dce7f9"/>
    <g id="Groupe_298" data-name="Groupe 298" transform="translate(68.726 137.916)">
      <rect id="Rectangle_1364" data-name="Rectangle 1364" width="2.809" height="9.13" transform="translate(0 4.916)" fill="#fff"/>
      <rect id="Rectangle_1365" data-name="Rectangle 1365" width="2.809" height="4.916" transform="translate(5.618 9.13)" fill="#fff"/>
      <rect id="Rectangle_1366" data-name="Rectangle 1366" width="2.809" height="14.046" transform="translate(11.237 0)" fill="#fff"/>
    </g>
  </g>
</svg>
