<svg xmlns="http://www.w3.org/2000/svg" width="190.385" height="133.513" viewBox="0 0 190.385 133.513">
  <g id="Groupe_2085" data-name="Groupe 2085" transform="translate(-98.513 -110.856)">
    <g id="Groupe_364" data-name="Groupe 364" transform="translate(179.048 146.029)">
      <g id="_15_calendar_outline" data-name="#15_calendar_outline" transform="translate(0 32.588)">
        <path id="Tracé_2830" data-name="Tracé 2830" d="M191.615,219.017H83.188a.468.468,0,0,1,0-.937H191.615a.468.468,0,1,1,0,.937Z" transform="translate(-82.72 -153.321)" fill="#1f4076"/>
        <rect id="Rectangle_1480" data-name="Rectangle 1480" width="79.81" height="60.465" rx="11.03" transform="translate(11 4.758)" fill="#f2f1f7"/>
        <path id="Tracé_2831" data-name="Tracé 2831" d="M180.339,150.383H110.859a5.619,5.619,0,0,1-5.619-5.619V94.619A5.619,5.619,0,0,1,110.859,89h69.479a5.619,5.619,0,0,1,5.619,5.619v50.13a5.619,5.619,0,0,1-5.619,5.633ZM110.859,89.937a4.683,4.683,0,0,0-4.683,4.683v50.13a4.683,4.683,0,0,0,4.683,4.683h69.479a4.683,4.683,0,0,0,4.683-4.683V94.619a4.683,4.683,0,0,0-4.683-4.683Z" transform="translate(-94.694 -84.687)" fill="#1f4076"/>
        <path id="Tracé_2832" data-name="Tracé 2832" d="M186.02,95.151v6.462H106.21V95.151A5.151,5.151,0,0,1,111.361,90h69.493a5.151,5.151,0,0,1,5.165,5.151Z" transform="translate(-95.21 -85.219)" fill="#fce15c"/>
        <path id="Tracé_2833" data-name="Tracé 2833" d="M185.488,101.55h-79.81a.468.468,0,0,1-.468-.468V94.619A5.619,5.619,0,0,1,110.829,89h69.493a5.619,5.619,0,0,1,5.619,5.619v6.462A.468.468,0,0,1,185.488,101.55Zm-79.342-.937H185.02V94.619a4.683,4.683,0,0,0-4.683-4.683H110.843a4.683,4.683,0,0,0-4.683,4.683Z" transform="translate(-94.678 -84.687)" fill="#fce15c"/>
        <rect id="Rectangle_1481" data-name="Rectangle 1481" width="8.289" height="8.289" transform="translate(33.126 23.264)" fill="#f2f1f7"/>
        <path id="Tracé_2834" data-name="Tracé 2834" d="M161.222,137.7h-8.293a.468.468,0,0,1-.468-.468v-8.289a.468.468,0,0,1,.468-.468h8.293a.468.468,0,0,1,.468.468v8.289A.468.468,0,0,1,161.222,137.7Zm-7.825-.937h7.357v-7.352H153.4Z" transform="translate(-119.802 -105.674)" fill="#5a6c95"/>
        <rect id="Rectangle_1482" data-name="Rectangle 1482" width="8.289" height="8.289" transform="translate(46.758 23.264)" fill="#f2f1f7"/>
        <path id="Tracé_2835" data-name="Tracé 2835" d="M190.332,137.7h-8.293a.468.468,0,0,1-.468-.468v-8.289a.468.468,0,0,1,.468-.468h8.293a.468.468,0,0,1,.468.468v8.289A.468.468,0,0,1,190.332,137.7Zm-7.825-.937h7.357v-7.352h-7.357Z" transform="translate(-135.28 -105.674)" fill="#5a6c95"/>
        <rect id="Rectangle_1483" data-name="Rectangle 1483" width="8.289" height="8.289" transform="translate(60.39 23.264)" fill="#f2f1f7"/>
        <path id="Tracé_2836" data-name="Tracé 2836" d="M219.437,137.7h-8.289a.468.468,0,0,1-.468-.468v-8.289a.468.468,0,0,1,.468-.468h8.289a.468.468,0,0,1,.468.468v8.289A.468.468,0,0,1,219.437,137.7Zm-7.82-.937h7.352v-7.352h-7.352Z" transform="translate(-150.758 -105.674)" fill="#5a6c95"/>
        <rect id="Rectangle_1484" data-name="Rectangle 1484" width="8.289" height="8.289" transform="translate(74.022 23.264)" fill="#f2f1f7"/>
        <path id="Tracé_2837" data-name="Tracé 2837" d="M248.547,137.7h-8.289a.468.468,0,0,1-.468-.468v-8.289a.468.468,0,0,1,.468-.468h8.289a.468.468,0,0,1,.468.468v8.289A.468.468,0,0,1,248.547,137.7Zm-7.82-.937h7.352v-7.352h-7.352Z" transform="translate(-166.236 -105.674)" fill="#5a6c95"/>
        <rect id="Rectangle_1485" data-name="Rectangle 1485" width="8.289" height="8.289" transform="translate(19.499 35.857)" fill="#f2f1f7"/>
        <path id="Tracé_2838" data-name="Tracé 2838" d="M132.117,164.585h-8.289a.468.468,0,0,1-.468-.468v-8.289a.468.468,0,0,1,.468-.468h8.289a.468.468,0,0,1,.468.468v8.289A.468.468,0,0,1,132.117,164.585Zm-7.82-.937h7.352V156.3H124.3Z" transform="translate(-104.329 -119.972)" fill="#5a6c95"/>
        <rect id="Rectangle_1486" data-name="Rectangle 1486" width="8.289" height="8.289" transform="translate(33.126 35.857)" fill="#f2f1f7"/>
        <path id="Tracé_2839" data-name="Tracé 2839" d="M161.222,164.585h-8.293a.468.468,0,0,1-.468-.468v-8.289a.468.468,0,0,1,.468-.468h8.293a.468.468,0,0,1,.468.468v8.289A.468.468,0,0,1,161.222,164.585Zm-7.825-.937h7.357V156.3H153.4Z" transform="translate(-119.802 -119.972)" fill="#5a6c95"/>
        <rect id="Rectangle_1487" data-name="Rectangle 1487" width="8.289" height="8.289" transform="translate(46.758 35.857)" fill="#f2f1f7"/>
        <path id="Tracé_2840" data-name="Tracé 2840" d="M190.332,164.585h-8.293a.468.468,0,0,1-.468-.468v-8.289a.468.468,0,0,1,.468-.468h8.293a.468.468,0,0,1,.468.468v8.289A.468.468,0,0,1,190.332,164.585Zm-7.825-.937h7.357V156.3h-7.357Z" transform="translate(-135.28 -119.972)" fill="#5a6c95"/>
        <rect id="Rectangle_1488" data-name="Rectangle 1488" width="8.289" height="8.289" transform="translate(60.39 35.857)" fill="#f2f1f7"/>
        <path id="Tracé_2841" data-name="Tracé 2841" d="M219.437,164.585h-8.289a.468.468,0,0,1-.468-.468v-8.289a.468.468,0,0,1,.468-.468h8.289a.468.468,0,0,1,.468.468v8.289A.468.468,0,0,1,219.437,164.585Zm-7.82-.937h7.352V156.3h-7.352Z" transform="translate(-150.758 -119.972)" fill="#5a6c95"/>
        <rect id="Rectangle_1489" data-name="Rectangle 1489" width="8.289" height="8.289" transform="translate(74.022 35.857)" fill="#fce15c"/>
        <path id="Tracé_2842" data-name="Tracé 2842" d="M248.547,164.585h-8.289a.468.468,0,0,1-.468-.468v-8.289a.468.468,0,0,1,.468-.468h8.289a.468.468,0,0,1,.468.468v8.289A.468.468,0,0,1,248.547,164.585Zm-7.82-.937h7.352V156.3h-7.352Z" transform="translate(-166.236 -119.972)" fill="#1f4076"/>
        <rect id="Rectangle_1490" data-name="Rectangle 1490" width="8.289" height="8.289" transform="translate(19.499 48.449)" fill="#f2f1f7"/>
        <path id="Tracé_2843" data-name="Tracé 2843" d="M132.117,191.525h-8.289a.468.468,0,0,1-.468-.468v-8.289a.468.468,0,0,1,.468-.468h8.289a.468.468,0,0,1,.468.468v8.289A.468.468,0,0,1,132.117,191.525Zm-7.82-.937h7.352v-7.352H124.3Z" transform="translate(-104.329 -134.296)" fill="#5a6c95"/>
        <rect id="Rectangle_1491" data-name="Rectangle 1491" width="8.289" height="8.289" transform="translate(33.126 48.449)" fill="#f2f1f7"/>
        <path id="Tracé_2844" data-name="Tracé 2844" d="M161.222,191.525h-8.293a.468.468,0,0,1-.468-.468v-8.289a.468.468,0,0,1,.468-.468h8.293a.468.468,0,0,1,.468.468v8.289A.468.468,0,0,1,161.222,191.525Zm-7.825-.937h7.357v-7.352H153.4Z" transform="translate(-119.802 -134.296)" fill="#1f4076"/>
        <rect id="Rectangle_1492" data-name="Rectangle 1492" width="8.289" height="8.289" transform="translate(46.758 48.449)" fill="#f2f1f7"/>
        <path id="Tracé_2845" data-name="Tracé 2845" d="M190.332,191.525h-8.293a.468.468,0,0,1-.468-.468v-8.289a.468.468,0,0,1,.468-.468h8.293a.468.468,0,0,1,.468.468v8.289A.468.468,0,0,1,190.332,191.525Zm-7.825-.937h7.357v-7.352h-7.357Z" transform="translate(-135.28 -134.296)" fill="#5a6c95"/>
        <rect id="Rectangle_1493" data-name="Rectangle 1493" width="8.289" height="8.289" transform="translate(60.39 48.449)" fill="#f2f1f7"/>
        <path id="Tracé_2846" data-name="Tracé 2846" d="M219.437,191.525h-8.289a.468.468,0,0,1-.468-.468v-8.289a.468.468,0,0,1,.468-.468h8.289a.468.468,0,0,1,.468.468v8.289A.468.468,0,0,1,219.437,191.525Zm-7.82-.937h7.352v-7.352h-7.352Z" transform="translate(-150.758 -134.296)" fill="#5a6c95"/>
        <circle id="Ellipse_256" data-name="Ellipse 256" cx="2.196" cy="2.196" r="2.196" transform="translate(28.472 7.872)" fill="#1f4076"/>
        <path id="Tracé_2847" data-name="Tracé 2847" d="M145.179,100.949a2.665,2.665,0,1,1,2.66-2.665A2.665,2.665,0,0,1,145.179,100.949Zm0-4.393a.716.716,0,1,0,0-.009Z" transform="translate(-114.511 -88.207)" fill="#1f4076"/>
        <rect id="Rectangle_1494" data-name="Rectangle 1494" width="3.006" height="10.461" rx="1.503" transform="translate(29.16 0.473)" fill="#f2f1f7"/>
        <path id="Tracé_2848" data-name="Tracé 2848" d="M145.971,91.3A1.976,1.976,0,0,1,144,89.325v-7.46a1.976,1.976,0,0,1,3.948,0v7.46A1.976,1.976,0,0,1,145.971,91.3Zm0-10.461a1.04,1.04,0,0,0-1.035,1.03v7.46a1.04,1.04,0,0,0,2.074,0v-7.46A1.04,1.04,0,0,0,145.971,80.835Z" transform="translate(-115.303 -79.894)" fill="#1f4076"/>
        <circle id="Ellipse_257" data-name="Ellipse 257" cx="2.196" cy="2.196" r="2.196" transform="translate(68.946 7.872)" fill="#1f4076"/>
        <path id="Tracé_2849" data-name="Tracé 2849" d="M231.615,100.949a2.665,2.665,0,1,1,2.665-2.665A2.665,2.665,0,0,1,231.615,100.949Zm0-4.393a.717.717,0,1,0,0-.009Z" transform="translate(-160.473 -88.207)" fill="#1f4076"/>
        <rect id="Rectangle_1495" data-name="Rectangle 1495" width="3.006" height="10.461" rx="1.503" transform="translate(69.639 0.473)" fill="#f2f1f7"/>
        <path id="Tracé_2850" data-name="Tracé 2850" d="M232.4,91.193a1.976,1.976,0,0,1-1.971-1.971v-7.46a1.971,1.971,0,1,1,3.943,0v7.46A1.976,1.976,0,0,1,232.4,91.193Zm0-10.461a1.035,1.035,0,0,0-1.035,1.03v7.46a1.035,1.035,0,1,0,2.07,0v-7.46A1.035,1.035,0,0,0,232.4,80.731Z" transform="translate(-161.26 -79.79)" fill="#1f4076"/>
        <path id="Tracé_2851" data-name="Tracé 2851" d="M158.388,189.829a.736.736,0,0,1-.173-.023.693.693,0,0,1-.468-.412l-1.4-3.358a.7.7,0,1,1,1.3-.539l1.026,2.482,6.041-4.954a.7.7,0,1,1,.89,1.086l-6.771,5.559A.707.707,0,0,1,158.388,189.829Z" transform="translate(-121.834 -134.59)" fill="#70cc40"/>
        <path id="Tracé_2858" data-name="Tracé 2858" d="M287.794,184.739s-4.238-8.64-3.648-14.479a10.8,10.8,0,0,1,5.053,6.088c2.51,6.959,1.929,8.4,1.929,8.4Z" transform="translate(-189.791 -127.894)" fill="#fce15c"/>
        <path id="Tracé_2859" data-name="Tracé 2859" d="M290.594,184.707H287.26a.468.468,0,0,1-.417-.262c-.178-.356-4.294-8.827-3.7-14.732a.449.449,0,0,1,.66-.361,11.194,11.194,0,0,1,5.3,6.359c2.444,6.781,2.032,8.462,1.925,8.729A.468.468,0,0,1,290.594,184.707Zm-3.034-.937h2.627c0-.693-.15-2.744-1.962-7.769a10.9,10.9,0,0,0-4.215-5.47c-.14,5.029,2.889,11.824,3.55,13.234Z" transform="translate(-189.257 -127.384)" fill="#1f4076"/>
        <path id="Tracé_2860" data-name="Tracé 2860" d="M295.089,176.932s-3.184-12.321,1.4-20.572c0,0,2.636,3.016,3.278,10.3a18.409,18.409,0,0,1-1.906,10.077Z" transform="translate(-195.068 -120.503)" fill="#fce15c"/>
        <path id="Tracé_2861" data-name="Tracé 2861" d="M294.555,176.871a.468.468,0,0,1-.468-.351,40.738,40.738,0,0,1-1.021-7.277c-.206-3.817.056-9.277,2.473-13.636a.468.468,0,0,1,.763-.08c.108.126,2.739,3.212,3.376,10.579a18.732,18.732,0,0,1-1.967,10.358.468.468,0,0,1-.37.229l-2.758.183Zm1.452-20.136c-3.517,7.165-1.55,17.135-1.091,19.2l2.1-.14a18.432,18.432,0,0,0,1.728-9.586c-.454-5.306-1.995-8.3-2.739-9.483Z" transform="translate(-194.534 -119.974)" fill="#1f4076"/>
        <path id="Tracé_2862" data-name="Tracé 2862" d="M299.24,184.05a22.589,22.589,0,0,1,7.638-13.58s1.962,6.13-3.535,14.325Z" transform="translate(-197.847 -128.006)" fill="#fce15c"/>
        <path id="Tracé_2863" data-name="Tracé 2863" d="M302.812,184.686h-.08l-4.1-.726a.468.468,0,0,1-.384-.515,22.885,22.885,0,0,1,7.806-13.9.468.468,0,0,1,.74.22c.084.258,1.967,6.439-3.592,14.728A.468.468,0,0,1,302.812,184.686Zm-3.564-1.573,3.344.59c4.051-6.186,3.746-11.159,3.461-12.948a22.411,22.411,0,0,0-6.8,12.367Z" transform="translate(-197.317 -127.457)" fill="#1f4076"/>
        <path id="Tracé_2864" data-name="Tracé 2864" d="M298.059,207.635h-8.368L288.45,197.45H299.3Z" transform="translate(-192.11 -142.352)" fill="#f2f1f7"/>
        <path id="Tracé_2865" data-name="Tracé 2865" d="M297.538,207.572h-8.382a.468.468,0,0,1-.468-.412l-1.241-10.185a.474.474,0,0,1,.468-.524h10.841a.474.474,0,0,1,.468.524l-1.218,10.185A.468.468,0,0,1,297.538,207.572Zm-7.961-.937h7.535l1.129-9.249h-9.8Z" transform="translate(-191.575 -141.82)" fill="#1f4076"/>
      </g>
      <g id="party_2" transform="matrix(0.966, -0.259, 0.259, 0.966, 30.105, 9.328)">
        <path id="path3873" d="M.437,1.692Z" transform="translate(1.182 17.197)" fill="#e6e6ff"/>
        <path id="path2987" d="M5.622.921,7.694,0s2.772,4.434,2.117,6.675C9.34,8.285,6.732,8.415,5.945,9.9c-.84,1.58.259,3.781-.541,5.34-.361.7-4.173,2.42-4.154,4.384.025,2.651.945,3.856,3.452,4.177L3.551,25.041C1,24.153-.762,20.752.329,18.62c.821-1.6,3.867-2.1,4-3.982.054-.74-1.261-4.2-.368-5.984.747-1.5,3.761-1.145,4.189-2.762C8.629,4.094,5.622.921,5.622.921Z" transform="translate(12.882 0)" fill="#5a6c95"/>
        <path id="path2989" d="M1.384,1.611C1.569,1.519,3.088,0,3.088,0S5.423,2.451,5.481,4C5.561,6.13,2.861,7.6,2.627,9.713c-.217,1.964,1.359,3.779,1.427,5.754.072,2.118-1.883,4.29-1.1,6.26.254.642,1.657,1.243,1.657,1.243L3.18,24.857S1.03,23.152.786,21.911c-.368-1.872,1.768-3.573,1.657-5.478C2.325,14.4-.105,12.855,0,10.817.142,8.21,4.245,6.589,3.87,4,3.705,2.866,1.384,1.611,1.384,1.611Z" transform="translate(5.014 16.157)" fill="#2c70de"/>
        <path id="path2993" d="M0,0,2.532.644,2.163,2.9.69,2.992Z" transform="translate(23.706 9.897)" fill="#fce15c"/>
        <path id="path2997" d="M0,1.381,1.933,0l.921,1.611L1.1,2.808Z" transform="translate(26.928 6.49)" fill="#fce15c"/>
        <path id="path2999" d="M1.565,0,2.9,1.519.921,2.9,0,1.427Z" transform="translate(28.449 14.822)" fill="#fce15c"/>
        <path id="path3001" d="M1.1,0,3.038.921,1.657,2.946,0,1.565Z" transform="translate(33.004 17.722)" fill="#fce15c"/>
        <path id="path3003" d="M.506,0,3.544.69,2.209,3.176,0,2.348Z" transform="translate(13.579 4.787)" fill="#fce15c"/>
        <path id="path3005" d="M2.486,0,4.879.69l-2.67,3.36L0,1.473Z" transform="translate(9.275 10.955)" fill="#fce15c"/>
        <path id="path3007" d="M1.933,0,3.913,1.887,2.578,3.913,0,1.749Z" transform="translate(2.532 7.687)" fill="#fce15c"/>
        <path id="path3009" d="M2.025,0l.506,1.519L.921,2.67,0,1.243Z" transform="translate(0 15.006)" fill="#fce15c"/>
        <path id="path3011" d="M1.013,0l1.7.552-.736,1.8L0,1.979Z" transform="translate(0.921 21.128)" fill="#fce15c"/>
        <path id="path3017" d="M.184,0C.552,0,2.3.184,2.3.184L1.933,2.578,0,2.348Z" transform="translate(2.256 31.439)" fill="#fce15c"/>
        <path id="path3019" d="M0,1.381,2.992,0l.736,1.841L1.8,3.452Z" transform="translate(12.29 29.276)" fill="#fce15c"/>
        <path id="path3021" d="M.9,0l1.68.9L1.611,2.831,0,1.427Z" transform="translate(20.208 17.952)" fill="#fce15c"/>
        <path id="path3793" d="M.366,0A3.6,3.6,0,0,1,2.391.968c.5.635-.023,1.725-.023,1.725S.593,2.849.182,2.348C-.316,1.741.366,0,.366,0Z" transform="translate(28.449 25.685)" fill="#fce15c"/>
        <path id="path3795" d="M1.245,0c.368,0,1.61,1.405,1.61,1.405L1.381,3.661S-.037,2.4,0,1.564C.031.9,1.245,0,1.245,0Z" transform="translate(24.626 30.61)" fill="#fce15c"/>
        <g id="g3809" transform="translate(17.923 17.078)">
          <path id="path2991" d="M6.566.138,8.729,0s.29,8.055-2.256,10.633c-1.127,1.142-3.414,2.024-4.7,1.059-1.068-.8-1.259-3.15-.23-4,.936-.778,2.829-.11,3.544.875a1.414,1.414,0,0,1,.412.933,10.43,10.43,0,0,1-.079,1.313c-.028.269-.056.512-.076.66a9.939,9.939,0,0,1-.626,2.2c-.53,1.673-2.456,2.775-2.716,4.511a4.737,4.737,0,0,0,.46,1.841l-1.887.69A6.173,6.173,0,0,1,.03,18.136c.451-2.1,3.139-3.161,3.821-5.2.418-1.252,1-3.05.046-3.959a1.11,1.11,0,0,0-1.427.092.9.9,0,0,0,.138,1.151c.767.546,2.056.026,2.762-.6C6.38,8.727,6.467,7.128,6.7,5.8A33.191,33.191,0,0,0,6.8.184l-.2-.052Z" transform="translate(0 0)" fill="#2c70de"/>
        </g>
        <path id="path3833" d="M1.9,3.387,1.419,2.23l-1.13.56L1.05,1.8,0,1.1l1.242.162L1.323,0,1.8,1.157,2.934.6l-.762.995,1.05.7L1.98,2.129Z" transform="translate(16.75 28.613)" fill="#717171"/>
        <path id="path3865" d="M1.9,3.387,1.419,2.23l-1.13.56L1.05,1.8,0,1.1l1.242.162L1.323,0,1.8,1.157,2.934.6l-.762.995,1.05.7L1.98,2.129Z" transform="translate(27.903 20.778)" fill="#5a6c95"/>
        <path id="path3867" d="M1.9,3.387,1.419,2.23l-1.13.56L1.05,1.8,0,1.1l1.242.162L1.323,0,1.8,1.157,2.934.6l-.762.995,1.05.7L1.98,2.129Z" transform="translate(19.7 12.482)" fill="#5a6c95"/>
        <path id="path3869" d="M1.9,3.387,1.419,2.23l-1.13.56L1.05,1.8,0,1.1l1.242.162L1.323,0,1.8,1.157,2.934.6l-.762.995,1.05.7L1.98,2.129Z" transform="translate(2.002 17.368)" fill="#5a6c95"/>
        <path id="path3871" d="M1.9,3.387,1.419,2.23l-1.13.56L1.05,1.8,0,1.1l1.242.162L1.323,0,1.8,1.157,2.934.6l-.762.995,1.05.7L1.98,2.129Z" transform="translate(4.675 2.712)" fill="#5a6c95"/>
      </g>
    </g>
    <g id="Groupe_2084" data-name="Groupe 2084" transform="translate(98.513 110.856)">
      <g id="Groupe_1678" data-name="Groupe 1678" transform="translate(0)">
        <path id="Tracé_1940" data-name="Tracé 1940" d="M65.9,1930.064l-28.35,84.869L-5.872,1986l68.244-53.59-84.213,45.168-36.082-18.748Z" transform="translate(57.923 -1930.064)" fill="#2c70de"/>
        <path id="Tracé_1941" data-name="Tracé 1941" d="M-54.4,1977.7l5.046,37.055,11.139-28.48,68.262-53.853Z" transform="translate(90.477 -1930.218)" fill="#578ee6"/>
        <path id="Tracé_1942" data-name="Tracé 1942" d="M28.648,2000.71,1.386,2018.5l11.154-28.466Z" transform="translate(39.723 -1933.961)" fill="#5a6c95"/>
        <path id="Tracé_1943" data-name="Tracé 1943" d="M-4.216,2056.987c-7-.473-14.186-8.377-22.629-9.538s-10.216,7.03-9.3,8.414,4.693-.342,4.442-3.727-3.028-5.572-9.614-5.348-15.85-6.561-9.725-21.371" transform="translate(91.935 -1937.168)" fill="none" stroke="#2c70de" stroke-width="1.5" stroke-dasharray="3 2"/>
      </g>
    </g>
  </g>
</svg>
