<svg xmlns="http://www.w3.org/2000/svg" width="187.28" height="185.428" viewBox="0 0 187.28 185.428">
  <g id="Groupe_296" data-name="Groupe 296" transform="translate(-93.558 -78.372)">
    <g id="Groupe_279" data-name="Groupe 279" transform="translate(-27.967)">
      <g id="_013" data-name="013" transform="translate(122.13 78.977)">
        <path id="Tracé_1967" data-name="Tracé 1967" d="M5.4,0H79.315a5.4,5.4,0,0,1,5.4,5.4V163.466a5.4,5.4,0,0,1-5.4,5.4H5.4a5.4,5.4,0,0,1-5.4-5.4V5.4A5.4,5.4,0,0,1,5.4,0Z" transform="matrix(0.971, -0.239, 0.239, 0.971, 0, 20.25)" fill="#f2f2f7" stroke="#1f4076" stroke-width="1"/>
        <path id="Tracé_1949" data-name="Tracé 1949" d="M156.043,203.091a5.971,5.971,0,0,1-3.065-.859,5.843,5.843,0,0,1-2.683-3.659L112.52,45.087a5.928,5.928,0,0,1,4.337-7.169L188.632,20.25a5.939,5.939,0,0,1,7.18,4.337l37.775,153.487a5.949,5.949,0,0,1-4.348,7.18l-71.775,17.657A5.867,5.867,0,0,1,156.043,203.091ZM190.064,21.141a4.952,4.952,0,0,0-1.177.138L117.112,38.947a4.868,4.868,0,0,0-3.563,5.886l37.775,153.487a4.868,4.868,0,0,0,5.886,3.563l71.775-17.657h0a4.889,4.889,0,0,0,3.574-5.9L194.783,24.842a4.857,4.857,0,0,0-4.719-3.7Z" transform="translate(-111.751 -19.464)" fill="#5c6f99"/>
        <rect id="Rectangle_1346" data-name="Rectangle 1346" width="75.815" height="129.965" transform="matrix(0.971, -0.239, 0.239, 0.971, 7.958, 34.007)" fill="#f4e289"/>
        <rect id="Rectangle_1347" data-name="Rectangle 1347" width="21.062" height="12.153" rx="3.13" transform="matrix(0.971, -0.239, 0.239, 0.971, 67.125, 159.801)" fill="#f1f2f3" stroke="#5c6f99" stroke-width="1"/>
        <path id="Tracé_1951" data-name="Tracé 1951" d="M139.489,39.746a.541.541,0,0,1-.488-.414.53.53,0,0,1,.392-.647l20.956-5.154a.53.53,0,0,1,.647.382.541.541,0,0,1-.392.647l-20.956,5.154Z" transform="translate(-110.14 -18.649)" fill="#5c6f99"/>
        <path id="Tracé_1952" data-name="Tracé 1952" d="M162.03,33.94a.52.52,0,0,1-.509-.4.541.541,0,0,1,.382-.647l2.821-.689a.545.545,0,0,1,.254,1.06l-2.821.7Z" transform="translate(-108.778 -18.731)" fill="#5c6f99"/>
        <path id="Tracé_1968" data-name="Tracé 1968" d="M8.813,0h41.7a8.813,8.813,0,1,1,0,17.626H8.813A8.813,8.813,0,0,1,8.813,0Z" transform="matrix(0.971, -0.239, 0.239, 0.971, 39.696, 127.496)" fill="#f1f2f3" stroke="#f2f1f7" stroke-width="1"/>
        <path id="Tracé_1953" data-name="Tracé 1953" d="M158.623,156.676a7.731,7.731,0,0,1-7.487-5.886l-.764-3.181a7.742,7.742,0,0,1,5.653-9.354l43.629-10.732A7.72,7.72,0,0,1,209,133.175l.774,3.182a7.731,7.731,0,0,1-5.652,9.343h0L160.49,156.4A7.954,7.954,0,0,1,158.623,156.676ZM201.51,128.4a6.9,6.9,0,0,0-1.6.2L156.28,139.284a6.66,6.66,0,0,0-4.878,8.07l.764,3.182a6.681,6.681,0,0,0,8.07,4.878l43.629-10.743a6.671,6.671,0,0,0,4.878-8.06l-.774-3.182a6.7,6.7,0,0,0-6.458-5.08Zm2.482,16.8Z" transform="translate(-109.465 -12.977)" fill="#5c6f99"/>
        <rect id="Rectangle_1349" data-name="Rectangle 1349" width="59.324" height="10.658" transform="matrix(0.971, -0.239, 0.239, 0.971, 30.967, 92.334)" fill="#f1f2f3"/>
        <ellipse id="Ellipse_188" data-name="Ellipse 188" cx="1.792" cy="1.792" rx="1.792" ry="1.792" transform="translate(37.09 94.473)" fill="#5c6f99"/>
        <ellipse id="Ellipse_189" data-name="Ellipse 189" cx="1.792" cy="1.792" rx="1.792" ry="1.792" transform="translate(43.666 92.858)" fill="#5c6f99"/>
        <ellipse id="Ellipse_190" data-name="Ellipse 190" cx="1.792" cy="1.792" rx="1.792" ry="1.792" transform="translate(50.23 91.235)" fill="#5c6f99"/>
        <ellipse id="Ellipse_191" data-name="Ellipse 191" cx="1.792" cy="1.792" rx="1.792" ry="1.792" transform="translate(56.804 89.624)" fill="#5c6f99"/>
        <rect id="Rectangle_1350" data-name="Rectangle 1350" width="59.324" height="10.658" transform="matrix(0.971, -0.239, 0.239, 0.971, 35.113, 109.211)" fill="#f1f2f3"/>
        <ellipse id="Ellipse_192" data-name="Ellipse 192" cx="1.792" cy="1.792" rx="1.792" ry="1.792" transform="translate(41.237 111.345)" fill="#5c6f99"/>
        <ellipse id="Ellipse_193" data-name="Ellipse 193" cx="1.792" cy="1.792" rx="1.792" ry="1.792" transform="translate(47.811 109.721)" fill="#5c6f99"/>
        <ellipse id="Ellipse_194" data-name="Ellipse 194" cx="1.792" cy="1.792" rx="1.792" ry="1.792" transform="translate(54.387 108.11)" fill="#5c6f99"/>
        <ellipse id="Ellipse_195" data-name="Ellipse 195" cx="1.792" cy="1.792" rx="1.792" ry="1.792" transform="translate(60.951 106.496)" fill="#5c6f99"/>
      </g>
      <g id="_232_designer_flatline" data-name="#232_designer_flatline" transform="translate(215.681 137.685)">
        <path id="Tracé_1989" data-name="Tracé 1989" d="M185.423,38.809c2.862-.114,4.694,1.131,7.155,2.018,4.794,1.689,7.027-2.318,11.148-4.451A31.67,31.67,0,0,1,243,44.6a23.655,23.655,0,0,1,5.338,11.878c.6,4.952-.787,10.018.072,14.912a16.844,16.844,0,0,0,10.418,12.594A40.142,40.142,0,0,1,245.2,82.7a13.867,13.867,0,0,0,10.361,4.937,25.76,25.76,0,0,1-15.928,5.338l10.089,2.361c-8.587,5.51-19.048,7.155-29.166,6.7-20.15-1.045-53.9-9.288-53.308-35.391C167.577,56.64,173.072,39.381,185.423,38.809Z" transform="translate(-166.467 -32.1)" fill="#f2f2f7"/>
        <path id="Tracé_1990" data-name="Tracé 1990" d="M224.255,103.091c7.714,0,17.588-1.431,26.146-6.9a.73.73,0,0,0,.315-.73.758.758,0,0,0-.544-.572l-5.61-1.3A26.619,26.619,0,0,0,256.3,88.465a.716.716,0,0,0-.429-1.288,13.123,13.123,0,0,1-8.057-2.934,40.343,40.343,0,0,0,11.363.716.716.716,0,0,0,.644-.615.7.7,0,0,0-.458-.773,16.057,16.057,0,0,1-10.018-12.035,31.884,31.884,0,0,1-.086-7.757,38.237,38.237,0,0,0,0-7.155,24.415,24.415,0,0,0-5.5-12.25,32.372,32.372,0,0,0-40.157-8.4,23.873,23.873,0,0,0-3.463,2.3c-2.318,1.76-4.15,3.148-7.155,2.1-.644-.229-1.245-.487-1.832-.73a12.279,12.279,0,0,0-5.639-1.331h0c-12.393.544-18.6,17.345-18.8,28.536-.258,11.864,6.225,21.209,19.277,27.749s28.622,8.057,34.7,8.372C221.894,103.063,223.053,103.091,224.255,103.091Zm23.9-7.155c-9.245,5.367-19.849,6.082-27.277,5.724-5.953-.315-21.18-1.732-34.132-8.229C174.224,87.163,168.013,78.276,168.257,67c.243-10.647,5.953-26.633,17.431-27.191a11.305,11.305,0,0,1,5.023,1.216c.615.258,1.245.53,1.918.758,3.707,1.3,6.025-.458,8.472-2.318a22.084,22.084,0,0,1,3.249-2.161,30.912,30.912,0,0,1,38.382,8.028,23,23,0,0,1,5.195,11.449,36.575,36.575,0,0,1,0,6.855,33.37,33.37,0,0,0,.114,8.1A17.5,17.5,0,0,0,256.3,83.6a40.07,40.07,0,0,1-10.562-1.431.716.716,0,0,0-.8.3.73.73,0,0,0,0,.844,14.64,14.64,0,0,0,8.9,5.037,25.044,25.044,0,0,1-13.925,4.064.7.7,0,0,0-.716.63.716.716,0,0,0,.544.787Z" transform="translate(-166.704 -32.312)" fill="#5c6f99"/>
        <path id="Tracé_1991" data-name="Tracé 1991" d="M225.893,112.839l-1.431,24.643s-11.263,12.88-25.76,4.966-13.939-20.465-13.939-20.465l9.517-46.267s13.152-3.034,16.5-28.937a79.512,79.512,0,0,0,38.811,16.472s-.258,28.98-5.367,40.5S225.893,112.839,225.893,112.839Z" transform="translate(-182.308 -26.074)" fill="#f2f1f7"/>
        <path id="Tracé_1992" data-name="Tracé 1992" d="M208.36,145.952c9.846,0,16.7-7.656,16.787-7.771a.673.673,0,0,0,.172-.429l1.431-23.885c3.02.3,13.781.587,18.318-9.646,5.109-11.449,5.41-39.6,5.424-40.786a.73.73,0,0,0-.615-.716,79.626,79.626,0,0,1-38.439-16.286.716.716,0,0,0-.73-.129.73.73,0,0,0-.458.572c-1.689,13.109-5.953,20.107-9.231,23.685a15.027,15.027,0,0,1-6.726,4.637.73.73,0,0,0-.529.558l-9.531,46.31c0,.243-.429,13.195,14.311,21.237a20.321,20.321,0,0,0,9.817,2.648Zm15.556-8.587c-1.431,1.56-11.678,11.778-24.744,4.637-13.91-7.613-13.567-19.706-13.567-19.821l9.431-45.8c2.376-.787,13.137-5.538,16.415-28.15A82.3,82.3,0,0,0,249,63.979c0,4.293-.716,29.28-5.281,39.6-4.823,10.848-17.044,8.8-17.56,8.715a.73.73,0,0,0-.572.129.773.773,0,0,0-.272.53Z" transform="translate(-182.449 -26.3)" fill="#1f4076"/>
        <path id="Tracé_1993" data-name="Tracé 1993" d="M233.587,82.95a12.88,12.88,0,0,1-9.531-2.347,13.781,13.781,0,0,1-5.123-12.479,11.449,11.449,0,0,1,1.431-4.995,6.082,6.082,0,0,1,4.05-3.034,9.789,9.789,0,0,1,5.982,1.589c2.776,1.431,2.862,3.02,4.379,5.367-.172-.215-.3-.816-.472-1.03" transform="translate(-216.249 -20.342)" fill="#f2f1f7"/>
        <path id="Tracé_1994" data-name="Tracé 1994" d="M231.859,84.037a13.885,13.885,0,0,0,2.032-.157.73.73,0,0,0,.6-.83.7.7,0,0,0-.816-.587,12.121,12.121,0,0,1-8.973-2.247,13.052,13.052,0,0,1-4.823-11.849,10.662,10.662,0,0,1,1.274-4.694,5.4,5.4,0,0,1,3.549-2.662c1.775-.315,3.549.5,5.524,1.517a6.053,6.053,0,0,1,2.977,3.206c.3.544.63,1.159,1.073,1.832a.63.63,0,0,0,.115.157.717.717,0,0,0,1.145-.859h0a.463.463,0,0,0-.1-.286,2.863,2.863,0,0,0-.358-.73.744.744,0,0,0-.272-.2l-.272-.515a7.528,7.528,0,0,0-3.606-3.807c-1.689-.873-4.021-2.075-6.411-1.66a6.826,6.826,0,0,0-4.637,3.377,12.122,12.122,0,0,0-1.431,5.309,14.411,14.411,0,0,0,5.41,13.095,13.524,13.524,0,0,0,8,2.59Z" transform="translate(-216.439 -20.556)" fill="#1f4076"/>
        <path id="Tracé_1995" data-name="Tracé 1995" d="M218.5,108.751a17.345,17.345,0,0,1-13.753-8.587c-5.052-8.429-3.034-13.824-3.034-13.824s6.812,8.687,17.531,9.388Z" transform="translate(-175.665 -9.02)" fill="#1f4076"/>
        <path id="Tracé_1996" data-name="Tracé 1996" d="M218.724,109.627a.7.7,0,0,0,.7-.673l.758-12.88a.716.716,0,0,0-.673-.758c-10.261-.658-16.944-9.016-17.016-9.1a.716.716,0,0,0-.673-.272.73.73,0,0,0-.558.458c-.086.229-2.075,5.81,3.105,14.44a17.874,17.874,0,0,0,14.311,8.858Zm0-13.023-.673,11.549a16.858,16.858,0,0,1-12.436-8.129c-3.42-5.724-3.506-9.9-3.249-11.907A26.934,26.934,0,0,0,218.724,96.6Z" transform="translate(-175.884 -9.195)" fill="#1f4076"/>
        <path id="Tracé_1997" data-name="Tracé 1997" d="M202.145,65.57s5.367,14.139,2.934,15.828-7.57-1-7.57-1" transform="translate(-156.671 -17.974)" fill="#f2f1f7"/>
        <path id="Tracé_1998" data-name="Tracé 1998" d="M203.194,82.888a4.293,4.293,0,0,0,2.533-.687c2.69-1.86-1.431-13.223-2.662-16.672a.714.714,0,1,0-1.331.515c2.49,6.569,4.293,14.168,3.177,14.969-1.7,1.174-5.51-.343-6.826-1.03a.73.73,0,0,0-.973.3.716.716,0,0,0,.315.959,14.139,14.139,0,0,0,5.767,1.646Z" transform="translate(-156.904 -18.19)" fill="#1f4076"/>
        <ellipse id="Ellipse_197" data-name="Ellipse 197" cx="2.075" cy="2.934" rx="2.075" ry="2.934" transform="translate(36.892 47.877) rotate(-162.09)" fill="#1f4076"/>
        <ellipse id="Ellipse_198" data-name="Ellipse 198" cx="2.075" cy="2.934" rx="2.075" ry="2.934" transform="matrix(-1, -0.014, 0.014, -1, 57.013, 51.949)" fill="#1f4076"/>
        <path id="Tracé_1999" data-name="Tracé 1999" d="M206.4,94.291a6.583,6.583,0,0,0,3.864-1.131c4.508-3.292,4.837-10.561,4.851-10.876a.73.73,0,0,0-.572-.73c-18.518-4.05-18.719-3.907-19.048-3.664a.773.773,0,0,0-.3.515h0a18.462,18.462,0,0,0,1.159,8.5,11.706,11.706,0,0,0,7.456,7.012A9.459,9.459,0,0,0,206.4,94.291Zm7.227-11.449c-.172,1.732-.945,6.8-4.179,9.145a6.125,6.125,0,0,1-5.195.572,10.347,10.347,0,0,1-6.583-6.168,16.558,16.558,0,0,1-1.088-7.155c2.461.444,11.148,2.3,17.044,3.592Z" transform="translate(-162.625 -12.707)" fill="#1f4076"/>
        <path id="Tracé_2000" data-name="Tracé 2000" d="M198.75,84.255c2.748,6.64,9.631,8.229,12.88,5.925-.73-2.533-2.061-5.166-4.537-6.125A12.078,12.078,0,0,0,198.75,84.255Z" transform="translate(-164.368 -10.284)" fill="#1f4076"/>
        <path id="Tracé_2001" data-name="Tracé 2001" d="M208.388,92.073a6.612,6.612,0,0,0,3.864-1.116.7.7,0,0,0,.258-.773c-.973-3.492-2.648-5.724-4.952-6.6a12.88,12.88,0,0,0-8.8.186.73.73,0,0,0-.415.386.759.759,0,0,0,0,.558,11.735,11.735,0,0,0,7.456,7A9.5,9.5,0,0,0,208.388,92.073Zm2.6-2.018a6.4,6.4,0,0,1-4.751.286,10.189,10.189,0,0,1-6.268-5.467,11.205,11.205,0,0,1,7.07,0c1.76.716,3.048,2.462,3.95,5.181Z" transform="translate(-164.618 -10.503)" fill="#1f4076"/>
        <path id="Tracé_2002" data-name="Tracé 2002" d="M200.426,79.25a4.293,4.293,0,0,0,4.193-3.377l1.5-6.826a4.293,4.293,0,0,0-3.277-5.109l-15.957-3.506a4.293,4.293,0,0,0-5.123,3.277l-1.431,6.826a4.293,4.293,0,0,0,3.22,5.066h0l15.957,3.492a3.994,3.994,0,0,0,.916.157ZM185.958,61.819a2.99,2.99,0,0,1,.615,0l15.942,3.492a2.862,2.862,0,0,1,2.161,3.363l-1.5,6.927a2.862,2.862,0,0,1-3.349,2.147l-15.957-3.578a2.862,2.862,0,0,1-2.147-3.349l1.431-6.826a2.862,2.862,0,0,1,2.748-2.218Zm-2.29,13.123Z" transform="translate(-132.47 -20.234)" fill="#1f4076"/>
        <path id="Tracé_2003" data-name="Tracé 2003" d="M220.415,74.9a4.313,4.313,0,0,0,4.193-3.377l1.431-6.826a4.3,4.3,0,0,0-3.277-5.123L206.82,56.081a4.293,4.293,0,0,0-5.123,3.277l-1.431,6.826a4.293,4.293,0,0,0,3.206,5.123L219.413,74.8A5.279,5.279,0,0,0,220.415,74.9ZM205.947,57.44a3,3,0,0,1,.615.072L222.5,61.018a2.776,2.776,0,0,1,1.775,1.231,2.862,2.862,0,0,1,.386,2.132l-1.5,6.826a2.862,2.862,0,0,1-3.349,2.147l-15.957-3.492h0a2.8,2.8,0,0,1-2.147-3.363l1.431-6.826A2.862,2.862,0,0,1,205.947,57.44Z" transform="translate(-180.895 -22.109)" fill="#1f4076"/>
        <path id="Tracé_2004" data-name="Tracé 2004" d="M202.609,64.274a.687.687,0,0,0,.372-.1.744.744,0,0,0,.272-1c-.673-1.159-2.862-2.977-6.454-1.531a.765.765,0,1,0,.544,1.431c3.206-1.288,4.494.673,4.622.9A.758.758,0,0,0,202.609,64.274Z" transform="translate(-152.584 -19.898)" fill="#1f4076"/>
      </g>
    </g>
    <g id="Groupe_295" data-name="Groupe 295" transform="translate(72.846 45.942) rotate(-11)" opacity="0.8">
      <g id="Ellipse_199" data-name="Ellipse 199" transform="translate(33.5 80)" fill="none" stroke="#fff" stroke-width="2">
        <circle cx="21.122" cy="21.122" r="21.122" stroke="none"/>
        <circle cx="21.122" cy="21.122" r="20.122" fill="none"/>
      </g>
      <path id="Exclusion_1" data-name="Exclusion 1" d="M-2.071,45l8.95-5.386a5.084,5.084,0,0,0,1.9-4.771,9.485,9.485,0,0,1-1.187-3.946c-.269-.017-1.575-.1-1.659-2-.084-2.605.067-3.967.943-3.179-.155-1.472-.723-4.641.96-7.083a7.868,7.868,0,0,1,12.112.228c1.391,1.45.768,5.781.753,6.612-.123.5.651-.623.781.58s.478,4.748-1.534,4.839a14.509,14.509,0,0,1-1.131,3.946c.025.6-.1,3.8,1.262,4.676S29.247,45,29.247,45s-5.811,6.977-14.923,6.981S-2.071,45-2.071,45Z" transform="matrix(0.998, -0.07, 0.07, 0.998, 39.013, 70.335)" fill="#fff"/>
    </g>
  </g>
</svg>
