<svg xmlns="http://www.w3.org/2000/svg" width="43.49" height="26.872" viewBox="0 0 43.49 26.872">
  <path id="Icon_map-bicycle-store" data-name="Icon map-bicycle-store" d="M7.907,18.2a7.864,7.864,0,0,1,3.1.632l2.676-4.585L11.664,10.8a.992.992,0,0,1,.356-1.353c.207-.12.438-.337.656-.3l.171-.2H16.8c.545,0,.988.759.988,1.3s-.443,1.3-.988,1.3H14.239l1.154,1.74H26.942L24.636,8.94h-.914a.877.877,0,1,1,0-1.74h4.943a.877.877,0,1,1,0,1.74H26.926l5.557,9.711a7.83,7.83,0,0,1,3.1-.539,8.1,8.1,0,1,1-4.8,1.721l-2.116-3.624L22.6,26.609l-.023.033-.026.039-.02.03-.078.09-.01.011-.027.024-.028.023-.077.061-.032.021-.025.017-.01.006,0,0-.084.041-.01,0-.02.01-.007,0-.063.023-.059.019-.012,0-.022,0-.038.008-.177.018v.054l0,.051H15.747a8.236,8.236,0,0,1-7.84,6.867,7.934,7.934,0,0,1,0-15.868Zm21.745,7.907a5.949,5.949,0,1,0,3.84-5.543l2.944,5.047a.989.989,0,0,1-1.708,1l-2.945-5.05a5.918,5.918,0,0,0-2.131,4.55Zm-7.907-2.173,5.2-8.91h-10.4Zm-6.918-7.554L12.709,20.1a7.158,7.158,0,0,1,3.037,5.369h4.278l-5.2-9.082ZM11.706,21.9l-2.08,3.563h4.121A5.135,5.135,0,0,0,11.706,21.9ZM7.907,32.1a6.068,6.068,0,0,0,5.842-4.891H7.909l0-.051-.177-.046-.04-.02-.164-.057-.018-.014-.1-.05-.023-.018L7.3,26.885l-.068-.057-.066-.072L7.1,26.681l-.05-.08-.045-.083-.034-.09-.027-.09-.015-.09-.011-.107,0-.03,0-.056.012-.108.02-.092.029-.09.045-.1.023-.051L10,20.567A5.951,5.951,0,1,0,7.907,32.1Z" transform="translate(0 -7.2)" fill="#4973d2"/>
</svg>
