<svg xmlns="http://www.w3.org/2000/svg" width="31.472" height="34.615" viewBox="0 0 31.472 34.615">
  <path id="scooter-electric" d="M11.158,24.6h11.3V23.028a6.292,6.292,0,0,1,6.294-6.294h1.164L26.924,3.455A3.161,3.161,0,0,0,23.856,1H17.735V4.147h6.121l2.2,9.834h-.016a9.453,9.453,0,0,0-6.593,7.474H11.158a4.72,4.72,0,1,0,0,3.147m-4.437,0a1.573,1.573,0,1,1,1.573-1.573A1.578,1.578,0,0,1,6.721,24.6m22.028-6.294a4.72,4.72,0,1,0,4.72,4.72,4.714,4.714,0,0,0-4.72-4.72m0,6.294a1.573,1.573,0,1,1,1.573-1.573A1.578,1.578,0,0,1,28.749,24.6M16.162,30.895H9.868l9.44,4.72V32.468H25.6l-9.44-4.72Z" transform="translate(-1.998 -1)" fill="#4973d2"/>
</svg>
