<svg id="_447_reading_a_book_flatline" data-name="#447_reading_a_book_flatline" xmlns="http://www.w3.org/2000/svg" width="68.415" height="55.291" viewBox="0 0 68.415 55.291">
  <rect id="Rectangle_1404" data-name="Rectangle 1404" width="55.668" height="46.84" transform="translate(6.375 0.13)" fill="#f2f1f7"/>
  <path id="Tracé_2453" data-name="Tracé 2453" d="M148.155,90.68H92.49a.13.13,0,0,1-.13-.13V43.71a.13.13,0,0,1,.13-.13h55.665a.13.13,0,0,1,.13.13V90.55A.13.13,0,0,1,148.155,90.68Zm-55.538-.26h55.41V43.84H92.617Z" transform="translate(-86.115 -43.58)" fill="#1f4076"/>
  <path id="Tracé_2454" data-name="Tracé 2454" d="M127.936,95.972H104.53a.132.132,0,0,1-.13-.13V52.75a.13.13,0,0,1,.13-.13h23.406a.13.13,0,0,1,.13.13V95.842A.132.132,0,0,1,127.936,95.972Zm-23.276-.26h23.146V52.88H104.66Z" transform="translate(-95.027 -50.272)" fill="#5c6f99"/>
  <path id="Tracé_2455" data-name="Tracé 2455" d="M228.044,95.972H204.63a.132.132,0,0,1-.13-.13V52.75a.13.13,0,0,1,.13-.13h23.406a.13.13,0,0,1,.13.13V95.842A.132.132,0,0,1,228.044,95.972Zm-23.276-.26h23.146V52.88H204.768Z" transform="translate(-169.123 -50.272)" fill="#5c6f99"/>
  <path id="Tracé_2456" data-name="Tracé 2456" d="M136.975,230.89H68.82l6.245-6.5H130.73Z" transform="translate(-68.69 -177.42)" fill="#f2f1f7"/>
  <path id="Tracé_2457" data-name="Tracé 2457" d="M136.6,230.664H68.449a.132.132,0,0,1-.119-.078.127.127,0,0,1,.026-.14l6.235-6.494a.125.125,0,0,1,.094-.042h55.675a.125.125,0,0,1,.094.042l6.235,6.494a.127.127,0,0,1,.026.14A.132.132,0,0,1,136.6,230.664Zm-67.848-.257H136.3l-6-6.235H74.749Z" transform="translate(-68.319 -177.064)" fill="#1f4076"/>
  <path id="Tracé_2460" data-name="Tracé 2460" d="M80.812,174.29c-.548.1-4.463.034-4.385.813s1.985,8.573,2.525,10.664a7.872,7.872,0,0,0,3.4,4.676c1.39.779,5.611-2.613,6.552-2.858S80.812,174.29,80.812,174.29Z" transform="translate(-74.32 -140.335)" fill="#5c6f99"/>
  <path id="Tracé_2461" data-name="Tracé 2461" d="M82.482,190.317a1.143,1.143,0,0,1-.569-.13,8.05,8.05,0,0,1-3.46-4.757c-.548-2.117-2.45-9.887-2.528-10.682a.369.369,0,0,1,.094-.281c.382-.442,1.974-.548,3.569-.618.382-.018.709-.034.831-.055a.13.13,0,0,1,.127.055c1.426,2.078,8.523,12.415,8.162,13.371a.216.216,0,0,1-.148.132,9.649,9.649,0,0,0-1.647.922C85.5,189.159,83.641,190.317,82.482,190.317Zm-2.1-16.254c-.161.018-.431.031-.779.044-1.062.049-3.042.138-3.377.52a.112.112,0,0,0-.034.086c.078.766,1.99,8.593,2.522,10.651a7.675,7.675,0,0,0,3.336,4.6c.883.5,3.2-.948,4.736-1.907a9.92,9.92,0,0,1,1.694-.946c.125-.772-4.86-8.352-8.1-13.043Z" transform="translate(-73.949 -139.967)" fill="#5c6f99"/>
  <path id="Tracé_2462" data-name="Tracé 2462" d="M97.61,155.251s-18.223-.74-18.3.559,9.006,20.447,10.334,20.728,1.465-.982,1.974-.855,5.648-1.455,7.274-2.858-2.738-12.007-2.548-13.321S99.106,155.438,97.61,155.251Z" transform="translate(-76.453 -126.086)" fill="#f2f1f7"/>
  <path id="Tracé_2463" data-name="Tracé 2463" d="M89.633,176.34a1.77,1.77,0,0,1-.387-.044c-.9-.187-4.343-7.087-5.785-10.046-2.286-4.694-4.694-10.082-4.653-10.812.018-.283.055-.946,9.31-.9,4.515.021,9.092.208,9.126.21h0a.613.613,0,0,1,.52.312c.236.475-.275,1.351-.816,2.278a6.584,6.584,0,0,0-.862,1.818,19.515,19.515,0,0,0,1.016,3.946c1.161,3.785,2.6,8.495,1.486,9.453-1.637,1.4-6.824,3.013-7.383,2.871-.114-.026-.216.078-.387.26a1.522,1.522,0,0,1-1.185.649Zm-2.078-21.561c-5.406,0-8.453.273-8.477.662-.036.584,2.042,5.38,4.627,10.687,3.26,6.715,5.162,9.833,5.593,9.916a1.217,1.217,0,0,0,1.338-.52c.192-.213.371-.41.644-.343.436.107,5.525-1.426,7.149-2.819.99-.847-.548-5.861-1.559-9.178a18.352,18.352,0,0,1-1.026-4.063,6.9,6.9,0,0,1,.9-1.922c.46-.779.982-1.681.808-2.031a.374.374,0,0,0-.314-.169c-3.756-.143-7.011-.21-9.69-.21Z" transform="translate(-76.083 -125.715)" fill="#1f4076"/>
  <path id="Tracé_2464" data-name="Tracé 2464" d="M275.033,206.016a21.712,21.712,0,0,0,3.141-.26,35.335,35.335,0,0,0,2.933-3.528c.488-.644.618-1.39.953-1.543s.54-.413.668,0a24.459,24.459,0,0,1-1.039,4.993c-.473,1.616-1,3.785-1.39,4.042s-1.416-.078-1.7-.361a5.748,5.748,0,0,0-1.039-.67s-3.323.026-3.377-.049S275.033,206.016,275.033,206.016Z" transform="translate(-220.703 -159.709)" fill="#f2f1f7"/>
  <path id="Tracé_2465" data-name="Tracé 2465" d="M279.624,209.62a2.406,2.406,0,0,1-1.4-.491,5.4,5.4,0,0,0-.969-.631c-3.359.026-3.4-.036-3.45-.109s-.086-.13.811-2.738a.125.125,0,0,1,.117-.088,19.473,19.473,0,0,0,3.086-.244,35.211,35.211,0,0,0,2.889-3.489,4.336,4.336,0,0,0,.486-.86c.164-.345.294-.621.52-.725a1.483,1.483,0,0,0,.192-.1c.151-.086.291-.166.434-.112a.434.434,0,0,1,.221.3c.156.5-.662,3.782-1.039,5.068-.075.26-.153.543-.231.823-.52,1.842-.873,3.063-1.211,3.289a.85.85,0,0,1-.46.114Zm-2.338-1.379a.14.14,0,0,1,.057,0,5.735,5.735,0,0,1,1.062.694c.26.26,1.221.553,1.535.343a11.33,11.33,0,0,0,1.107-3.143c.078-.281.156-.561.231-.826a26.393,26.393,0,0,0,1.039-4.92c-.036-.114-.068-.13-.068-.13a1.985,1.985,0,0,0-.21.1,2.314,2.314,0,0,1-.213.114c-.14.062-.26.312-.39.6a4.861,4.861,0,0,1-.52.9,35.74,35.74,0,0,1-2.98,3.564,17.184,17.184,0,0,1-3.117.26c-.278.813-.681,2.026-.779,2.393.444.034,2.146.036,3.224.029Z" transform="translate(-220.413 -159.374)" fill="#1f4076"/>
  <path id="Tracé_2466" data-name="Tracé 2466" d="M161.56,214.587s14.142-1.8,15.15-1.881,15.358,1,15.878.925.657-3.32.657-3.32-13.89-3.741-17.828-3.551c-2.278.109-9.664,0-9.664,0Z" transform="translate(-137.338 -164.365)" fill="#1f4076"/>
  <path id="Tracé_2467" data-name="Tracé 2467" d="M161.188,214.347a.127.127,0,0,1-.114-.19l4.185-7.83a.13.13,0,0,1,.117-.068c.073,0,7.406.107,9.653,0,3.915-.187,17.3,3.4,17.87,3.556a.127.127,0,0,1,.1.13c-.047,1.008-.218,3.359-.766,3.445-.239.036-2.826-.135-7.03-.413-3.9-.26-8.313-.553-8.851-.52-.987.075-15,1.863-15.145,1.881Zm4.271-7.827-4.029,7.534c1.956-.26,13.973-1.779,14.909-1.85.543-.042,4.785.239,8.887.52,3.315.221,6.741.449,6.972.416s.455-1.468.54-3.094c-1.268-.338-13.992-3.7-17.688-3.52C172.914,206.621,166.256,206.53,165.458,206.52Z" transform="translate(-136.966 -163.994)" fill="#1f4076"/>
  <path id="Tracé_2468" data-name="Tracé 2468" d="M236.57,211.852s1.39,2.239,1.543,2.7a14.541,14.541,0,0,0,.462,2.317c.307.579,9.074.465,9.038.12s-3.785-1.9-4.77-2.6a32.326,32.326,0,0,1-3.564-4.4Z" transform="translate(-192.862 -166.768)" fill="#f2f1f7"/>
  <path id="Tracé_2469" data-name="Tracé 2469" d="M242.666,217.032c-2.2,0-4.393-.117-4.577-.465a5.188,5.188,0,0,1-.34-1.538,5,5,0,0,0-.132-.8,30.2,30.2,0,0,0-1.533-2.676.127.127,0,0,1,.036-.174l2.7-1.852a.13.13,0,0,1,.179.031,32.294,32.294,0,0,0,3.541,4.372,22.884,22.884,0,0,0,2.387,1.252c1.863.9,2.408,1.2,2.434,1.429q.016.14-.187.2A31.467,31.467,0,0,1,242.666,217.032Zm-6.3-5.512a28.6,28.6,0,0,1,1.491,2.626,5.148,5.148,0,0,1,.145.852,4.817,4.817,0,0,0,.309,1.447c.14.153,1.577.33,4.39.338a29.027,29.027,0,0,0,4.346-.2,21.783,21.783,0,0,0-2.231-1.166,23.121,23.121,0,0,1-2.426-1.275,29.424,29.424,0,0,1-3.528-4.328Z" transform="translate(-192.487 -166.399)" fill="#1f4076"/>
  <path id="Tracé_2470" data-name="Tracé 2470" d="M139.85,173.247c.234.156,1.255,1.652,5.64,1.805S157.1,161.934,157.1,161.934l7.622,8.947,3.5-2.213S163.43,155.362,161.269,154s-5.715-.361-7.274.642-9.035,11.274-9.035,11.274Z" transform="translate(-121.268 -124.82)" fill="#1f4076"/>
  <path id="Tracé_2471" data-name="Tracé 2471" d="M145.2,174.775h-.081c-3.933-.138-5.2-1.343-5.609-1.738-.044-.042-.075-.073-.1-.088a.127.127,0,0,1-.057-.083.143.143,0,0,1,.021-.1l5.123-7.336c.309-.423,7.534-10.305,9.071-11.311,1.447-.94,5.1-2.094,7.4-.642,2.177,1.374,6.809,14.192,7.014,14.737a.13.13,0,0,1-.052.153l-3.5,2.213a.132.132,0,0,1-.169-.026l-7.5-8.8a74.368,74.368,0,0,1-4.076,6.466C149.57,172.569,147.055,174.775,145.2,174.775Zm-5.541-1.959.031.029c.4.379,1.6,1.533,5.437,1.668h.075c4.263,0,11.344-12.921,11.417-13.054a.122.122,0,0,1,.1-.065.127.127,0,0,1,.114.044l7.534,8.858,3.317-2.1c-.442-1.216-4.858-13.249-6.861-14.506a7.382,7.382,0,0,0-7.118.639c-1.507.979-8.926,11.139-9,11.243Z" transform="translate(-120.9 -124.42)" fill="#1f4076"/>
  <path id="Tracé_2472" data-name="Tracé 2472" d="M146.806,175.621a14.8,14.8,0,0,1,2.38-2.9,14.577,14.577,0,0,0,1.327-.811L149.8,170.3s-.564.226-.447-.275-.891-1.2-.891-1.2a4.157,4.157,0,0,0-1.346,2.515c-.026,1.083-2.938,2.819-2.938,2.819Z" transform="translate(-124.473 -136.286)" fill="#f2f1f7"/>
  <path id="Tracé_2473" data-name="Tracé 2473" d="M146.441,175.389a.14.14,0,0,1-.065-.016l-2.624-1.468a.13.13,0,0,1,0-.226c.779-.473,2.858-1.881,2.873-2.709a4.17,4.17,0,0,1,1.39-2.6.132.132,0,0,1,.161,0c.109.075,1.073.766.94,1.338a.279.279,0,0,0,0,.153.77.77,0,0,0,.26-.026.13.13,0,0,1,.166.068l.712,1.616a.13.13,0,0,1-.044.158,14.389,14.389,0,0,1-1.343.821,16.015,16.015,0,0,0-2.309,2.8.127.127,0,0,1-.062.091A.122.122,0,0,1,146.441,175.389Zm-2.369-1.6,2.317,1.3a14.162,14.162,0,0,1,2.377-2.834,13.507,13.507,0,0,0,1.218-.743l-.621-1.411a.478.478,0,0,1-.416-.055.392.392,0,0,1-.086-.408c.065-.281-.4-.74-.753-1.008a3.879,3.879,0,0,0-1.226,2.351C146.859,171.968,144.763,173.357,144.072,173.786Z" transform="translate(-124.108 -135.934)" fill="#1f4076"/>
  <path id="Tracé_2474" data-name="Tracé 2474" d="M105.465,114.156c-2.567-3.156-6.83-1.559-8.076,1.857a12.091,12.091,0,0,1-1.889,3.725c-.821,1.016-2.1,1.912-2.154,3.341a2.855,2.855,0,0,0,1.489,2.429,6.235,6.235,0,0,0,2.858.725,15.911,15.911,0,0,0,6.523-1.013,4.206,4.206,0,0,0,2.283-1.678c.548-1.026-.052-1.805-.281-2.858a6.335,6.335,0,0,1,.283-2.629A4.5,4.5,0,0,0,105.465,114.156Z" transform="translate(-86.844 -94.563)" fill="#f2f1f7"/>
  <path id="Tracé_2475" data-name="Tracé 2475" d="M98.144,126c-.288,0-.579,0-.868-.023a6.427,6.427,0,0,1-2.93-.743,3.036,3.036,0,0,1-1.559-2.546,4.344,4.344,0,0,1,1.525-2.683c.239-.26.465-.488.665-.738a12.06,12.06,0,0,0,1.868-3.689,5.5,5.5,0,0,1,4.11-3.582,4.347,4.347,0,0,1,4.188,1.686h0a4.609,4.609,0,0,1,1.078,4.016c-.031.143-.065.288-.1.431a4.988,4.988,0,0,0-.184,2.141,7.273,7.273,0,0,0,.236.795,2.452,2.452,0,0,1,.031,2.146,4.229,4.229,0,0,1-2.351,1.738A16.153,16.153,0,0,1,98.144,126Zm3.546-13.8a4.216,4.216,0,0,0-.694.06,5.2,5.2,0,0,0-3.9,3.416,12.213,12.213,0,0,1-1.909,3.764,9.892,9.892,0,0,1-.681.753,4.017,4.017,0,0,0-1.444,2.509,2.7,2.7,0,0,0,1.424,2.315,6.169,6.169,0,0,0,2.813.7,15.891,15.891,0,0,0,6.45-1,3.992,3.992,0,0,0,2.213-1.618,2.212,2.212,0,0,0-.049-1.941,7.134,7.134,0,0,1-.242-.823,5.137,5.137,0,0,1,.184-2.252c.034-.143.068-.286.1-.429a4.384,4.384,0,0,0-1.026-3.8h0A4.119,4.119,0,0,0,101.69,112.2Z" transform="translate(-86.431 -94.181)" fill="#1f4076"/>
  <path id="Tracé_2476" data-name="Tracé 2476" d="M101.593,152.632c-1.039,1.34-.849,7.567,1.621,10.809s3.759,7.466,9.37,9.627l4.44-9.061s-3.668-3.242-3.816-4.273.564-2.6.052-3.964C111.09,150.045,102.624,151.294,101.593,152.632Z" transform="translate(-92.508 -123.467)" fill="#fce15c"/>
  <path id="Tracé_2477" data-name="Tracé 2477" d="M119.277,130.395l-.013,2.517s.205,1.039-1.476.644-2.429-2.465-2.429-2.465l.151-3.678s2.629-1.408,2.255-4.112a3.445,3.445,0,0,0,3.523,1.8,29.761,29.761,0,0,1-.158,3.717C120.93,130.117,119.277,130.395,119.277,130.395Z" transform="translate(-103.14 -102.591)" fill="#f2f1f7"/>
  <path id="Tracé_2478" data-name="Tracé 2478" d="M118.108,133.409a2.984,2.984,0,0,1-.7-.1,4.2,4.2,0,0,1-2.522-2.546.151.151,0,0,1,0-.049l.151-3.678a.127.127,0,0,1,.07-.109c.023-.013,2.543-1.4,2.185-3.98a.13.13,0,0,1,.091-.14.127.127,0,0,1,.156.065,3.286,3.286,0,0,0,3.377,1.728.13.13,0,0,1,.1.031.132.132,0,0,1,.047.1,29.981,29.981,0,0,1-.158,3.736c-.182,1.195-1.468,1.579-1.852,1.668l-.013,2.411h0a.735.735,0,0,1-.205.629A1,1,0,0,1,118.108,133.409Zm-2.972-2.707a3.971,3.971,0,0,0,2.338,2.361c.582.138.995.112,1.19-.078a.5.5,0,0,0,.127-.418v-2.541a.132.132,0,0,1,.109-.127c.016,0,1.559-.281,1.746-1.473a28.41,28.41,0,0,0,.158-3.551,3.528,3.528,0,0,1-3.232-1.447,4.567,4.567,0,0,1-2.291,3.691Z" transform="translate(-102.786 -102.223)" fill="#1f4076"/>
  <path id="Tracé_2479" data-name="Tracé 2479" d="M113.337,135.994a1.3,1.3,0,0,0-1.359-.909c-.73.114-.72.94-.491,1.473a1.333,1.333,0,0,0,1.764.688" transform="translate(-100.171 -111.31)" fill="#f2f1f7"/>
  <path id="Tracé_2480" data-name="Tracé 2480" d="M112.348,137.123a1.455,1.455,0,0,1-1.34-.883,1.512,1.512,0,0,1-.023-1.239.816.816,0,0,1,.616-.41,1.421,1.421,0,0,1,1.5,1.005.134.134,0,1,1-.26.062,1.187,1.187,0,0,0-1.213-.813.551.551,0,0,0-.426.281,1.244,1.244,0,0,0,.034,1.013,1.2,1.2,0,0,0,1.592.621.132.132,0,0,1,.171.065.13.13,0,0,1-.068.171,1.475,1.475,0,0,1-.585.127Z" transform="translate(-99.811 -110.942)" fill="#1f4076"/>
  <path id="Tracé_2481" data-name="Tracé 2481" d="M131.859,135.23s.93,1.278.73,1.514-.779.109-.779.109" transform="translate(-115.317 -111.421)" fill="#f2f1f7"/>
  <path id="Tracé_2482" data-name="Tracé 2482" d="M131.713,136.638a2.08,2.08,0,0,1-.364-.036.133.133,0,0,1,.055-.26c.169.036.553.068.665-.065a3.824,3.824,0,0,0-.735-1.356.125.125,0,0,1,.029-.179.13.13,0,0,1,.179.029c.452.621.946,1.416.725,1.673A.712.712,0,0,1,131.713,136.638Z" transform="translate(-114.898 -111.043)" fill="#1f4076"/>
  <ellipse id="Ellipse_221" data-name="Ellipse 221" cx="0.205" cy="0.475" rx="0.205" ry="0.475" transform="translate(15.574 22.661) rotate(-1.68)" fill="#1f4076"/>
  <ellipse id="Ellipse_222" data-name="Ellipse 222" cx="0.205" cy="0.475" rx="0.205" ry="0.475" transform="translate(17.322 22.864) rotate(-1.68)" fill="#1f4076"/>
  <path id="Tracé_2483" data-name="Tracé 2483" d="M124.474,148.982a3.11,3.11,0,0,1-2.094-.572,2.573,2.573,0,0,0,2.078,1.933Z" transform="translate(-108.336 -121.178)" fill="#1f4076"/>
  <path id="Tracé_2484" data-name="Tracé 2484" d="M124.129,150.106h0a2.724,2.724,0,0,1-2.2-2.034.125.125,0,0,1,.052-.135.13.13,0,0,1,.145,0,2.993,2.993,0,0,0,2,.553.14.14,0,0,1,.107.029.13.13,0,0,1,.047.1v1.361a.125.125,0,0,1-.042.094A.132.132,0,0,1,124.129,150.106Zm-1.852-1.774a2.31,2.31,0,0,0,1.725,1.5v-1.07a3.276,3.276,0,0,1-1.725-.429Z" transform="translate(-107.999 -120.811)" fill="#1f4076"/>
  <path id="Tracé_2485" data-name="Tracé 2485" d="M126.41,138.6s0,2.554,2.242,1.73" transform="translate(-111.319 -113.916)" fill="#f2f1f7"/>
  <path id="Tracé_2486" data-name="Tracé 2486" d="M127.434,140.254a1.348,1.348,0,0,1-.795-.236,2.417,2.417,0,0,1-.779-1.787.132.132,0,0,1,.13-.13h0a.13.13,0,0,1,.13.13,2.146,2.146,0,0,0,.655,1.574,1.477,1.477,0,0,0,1.413.034.13.13,0,0,1,.088.244A2.5,2.5,0,0,1,127.434,140.254Z" transform="translate(-110.912 -113.546)" fill="#1f4076"/>
  <path id="Tracé_2487" data-name="Tracé 2487" d="M177.19,159.54c-.114-.039-3.05-.779-3.05-.779s4.9-7.76,5.019-7.793,4.208-.857,4.208-.857Z" transform="translate(-146.65 -122.436)" fill="#f2f1f7"/>
  <path id="Tracé_2488" data-name="Tracé 2488" d="M176.822,159.3h-.042c-.088-.031-1.868-.478-3.039-.779a.13.13,0,0,1-.078-.195c4.936-7.793,5.032-7.832,5.086-7.853.119-.039,3.541-.722,4.227-.86a.13.13,0,0,1,.132.2l-6.177,9.43A.135.135,0,0,1,176.822,159.3Zm-2.845-.985c.6.151,2.338.59,2.787.707l5.959-9.092c-1.533.307-3.577.72-3.863.779-.294.379-3.021,4.66-4.884,7.606Z" transform="translate(-146.283 -122.067)" fill="#1f4076"/>
  <path id="Tracé_2489" data-name="Tracé 2489" d="M164.169,158.465l-3.5-1.9,4.736-6.863,3.782.966Z" transform="translate(-136.679 -122.133)" fill="#f2f1f7"/>
  <path id="Tracé_2490" data-name="Tracé 2490" d="M163.8,158.228a.138.138,0,0,1-.062-.016l-3.5-1.9a.127.127,0,0,1-.062-.083.122.122,0,0,1,.018-.1l4.736-6.863a.127.127,0,0,1,.138-.052l3.782.964a.13.13,0,0,1,.091.078.14.14,0,0,1-.013.119l-5.019,7.793A.132.132,0,0,1,163.8,158.228Zm-3.31-2.078,3.273,1.777,4.858-7.547-3.523-.9Z" transform="translate(-136.311 -121.765)" fill="#1f4076"/>
  <path id="Tracé_2491" data-name="Tracé 2491" d="M119,174.9s3.46,5.715,6.19,6.754,10.5-6.941,10.5-6.941.951.436,1.93-.849a9.963,9.963,0,0,0,1.411-2.613,3,3,0,0,0,.314-1.665c-.164-.543-.681.52-.681.52s-.87,1.353-1.387,1.226-.075-1.507-.231-1.912-.92,1.039-1.1,1.655a6.754,6.754,0,0,1-1.546,2.109c-.413.358-6.572,4.575-7.092,4.536s-4.263-4.593-4.263-4.593Z" transform="translate(-105.834 -136.677)" fill="#f2f1f7"/>
  <path id="Tracé_2492" data-name="Tracé 2492" d="M125.379,181.547a1.639,1.639,0,0,1-.587-.1c-2.738-1.039-6.113-6.562-6.255-6.8a.127.127,0,0,1,0-.107.13.13,0,0,1,.07-.078l4.037-1.777a.133.133,0,0,1,.153.036c1.792,2.2,3.845,4.5,4.172,4.549.52,0,6.474-4.019,7.014-4.486a6.738,6.738,0,0,0,1.507-2.05c.125-.434.746-1.8,1.135-1.818a.208.208,0,0,1,.21.156,2.167,2.167,0,0,1,.013.805c-.036.41-.086.972.13,1.026.288.068.9-.642,1.244-1.172.132-.275.408-.764.673-.743.078,0,.182.055.239.244a3.037,3.037,0,0,1-.322,1.761,9.819,9.819,0,0,1-1.424,2.634c-.868,1.143-1.725,1.005-2,.922C134.651,175.287,128.387,181.547,125.379,181.547Zm-6.541-6.892c.52.842,3.613,5.645,6.045,6.565,1.07.4,3.2-.652,6.146-3.055,2.252-1.834,4.2-3.819,4.219-3.839a.127.127,0,0,1,.145-.026c.036.016.875.371,1.774-.811a9.957,9.957,0,0,0,1.392-2.577,3.02,3.02,0,0,0,.312-1.587.148.148,0,0,0-.031-.068,2.1,2.1,0,0,0-.408.618c-.161.26-.959,1.437-1.535,1.3-.429-.107-.371-.74-.322-1.3a2.881,2.881,0,0,0,.013-.66,4.9,4.9,0,0,0-.868,1.611A6.852,6.852,0,0,1,134.139,173c-.34.3-6.494,4.549-7.188,4.549h0c-.543-.039-3.343-3.406-4.292-4.564Z" transform="translate(-105.483 -136.359)" fill="#1f4076"/>
  <path id="Tracé_2493" data-name="Tracé 2493" d="M128.426,171.73a.13.13,0,0,1-.117-.073l-2.016-4.182a.128.128,0,0,1,.231-.112l2.018,4.182a.127.127,0,0,1-.06.171A.114.114,0,0,1,128.426,171.73Z" transform="translate(-111.224 -135.154)" fill="#1f4076"/>
  <path id="Tracé_2494" data-name="Tracé 2494" d="M110.008,173.861a.13.13,0,0,1-.117-.073c-.023-.052-2.509-5.175-3.011-5.809a.13.13,0,0,1,.021-.182.127.127,0,0,1,.182.021c.52.657,2.938,5.645,3.042,5.858a.13.13,0,0,1-.06.171A.114.114,0,0,1,110.008,173.861Z" transform="translate(-96.842 -135.507)" fill="#1f4076"/>
  <path id="Tracé_2495" data-name="Tracé 2495" d="M163.67,214.387a.131.131,0,1,1-.039-.26c3.029-.99,7.565-7.554,7.611-7.622a.13.13,0,0,1,.179-.031.127.127,0,0,1,.034.179c-.187.273-4.632,6.7-7.744,7.721Z" transform="translate(-138.789 -164.141)" fill="#f2f1f7"/>
  <path id="Tracé_2496" data-name="Tracé 2496" d="M159.811,166.409a5.2,5.2,0,0,1,1.039-.592c.849-.374,1.982-.283,1.7.083a10.662,10.662,0,0,1-2.2,1.164,1.162,1.162,0,0,1-.836,1.263" transform="translate(-135.821 -133.885)" fill="#f2f1f7"/>
  <path id="Tracé_2497" data-name="Tracé 2497" d="M159.027,168.069a.132.132,0,0,1-.047-.26,1.027,1.027,0,0,0,.756-1.117.132.132,0,0,1,.078-.143,9.454,9.454,0,0,0,2.148-1.122.1.1,0,0,0,.018-.031,2.125,2.125,0,0,0-1.559.143,5.468,5.468,0,0,0-.99.566.132.132,0,0,1-.182,0,.127.127,0,0,1,0-.179,5.132,5.132,0,0,1,1.068-.621c.7-.309,1.65-.338,1.87-.057a.26.26,0,0,1-.018.338A8.939,8.939,0,0,1,160,166.755a1.3,1.3,0,0,1-.927,1.3.151.151,0,0,1-.049.016Z" transform="translate(-135.348 -133.498)" fill="#1f4076"/>
  <path id="Tracé_2498" data-name="Tracé 2498" d="M94.353,178.747a.133.133,0,0,1-.125-.091c-1.457-4.585-8.471-17.21-8.547-17.337a.13.13,0,0,1,.226-.125c.073.127,7.1,12.776,8.573,17.384a.13.13,0,0,1-.086.161.1.1,0,0,1-.042.008Z" transform="translate(-81.164 -130.6)" fill="#5c6f99"/>
  <rect id="Rectangle_1405" data-name="Rectangle 1405" width="68.158" height="1.691" transform="translate(0.13 53.472)" fill="#f2f1f7"/>
  <path id="Tracé_2499" data-name="Tracé 2499" d="M136.6,250.868H68.45a.13.13,0,0,1-.13-.13V249.05a.13.13,0,0,1,.13-.13H136.6a.13.13,0,0,1,.13.13v1.689A.13.13,0,0,1,136.6,250.868Zm-68.028-.26h67.9v-1.431h-67.9Z" transform="translate(-68.32 -195.577)" fill="#5c6f99"/>
  <path id="Tracé_2500" data-name="Tracé 2500" d="M146.789,74.939a.132.132,0,0,1-.1-.047.13.13,0,0,1,.018-.182l5.835-4.816a.123.123,0,1,1,.164.182l-5.832,4.834a.13.13,0,0,1-.083.029Z" transform="translate(-126.308 -63.031)" fill="#5c6f99"/>
  <path id="Tracé_2501" data-name="Tracé 2501" d="M229.734,82.917a.13.13,0,0,1-.083-.229l7.44-6.235a.131.131,0,1,1,.169.2l-7.443,6.235A.135.135,0,0,1,229.734,82.917Z" transform="translate(-187.707 -67.892)" fill="#5c6f99"/>
  <path id="Tracé_2502" data-name="Tracé 2502" d="M158.023,104.559a.127.127,0,0,1-.1-.047.132.132,0,0,1,.016-.184l4.6-3.876a.131.131,0,0,1,.169.2l-4.6,3.876A.127.127,0,0,1,158.023,104.559Z" transform="translate(-134.624 -85.655)" fill="#5c6f99"/>
  <path id="Tracé_2503" data-name="Tracé 2503" d="M273.219,177.359a.135.135,0,0,1-.1-.044.132.132,0,0,1,.013-.184l2.941-2.564a.13.13,0,1,1,.171.195l-2.941,2.567A.135.135,0,0,1,273.219,177.359Z" transform="translate(-219.895 -140.513)" fill="#5c6f99"/>
  <path id="Tracé_2504" data-name="Tracé 2504" d="M236.425,130.637a.13.13,0,0,1-.083-.231l8.37-6.965a.127.127,0,0,1,.182.016.133.133,0,0,1-.016.184l-8.37,6.965a.133.133,0,0,1-.083.031Z" transform="translate(-192.657 -102.672)" fill="#5c6f99"/>
</svg>
