<svg xmlns="http://www.w3.org/2000/svg" width="61.967" height="49.308" viewBox="0 0 61.967 49.308">
  <g id="_566_team_presentation_flatline" data-name="#566_team_presentation_flatline" transform="translate(-0.917)">
    <path id="Tracé_2569" data-name="Tracé 2569" d="M133.306,249.174a10.247,10.247,0,0,0-1.386,3.523h10.957a2.565,2.565,0,0,0-1.45-1.369c-1.1-.424-3.481-.621-3.873-1.06a1.53,1.53,0,0,1-.312-1.1Z" transform="translate(-114.45 -203.495)" fill="#1f4076"/>
    <path id="Tracé_2570" data-name="Tracé 2570" d="M142.526,252.459H131.569a.1.1,0,0,1-.072-.032.093.093,0,0,1-.021-.074,10.457,10.457,0,0,1,1.4-3.561.091.091,0,0,1,.078-.042h3.93a.087.087,0,0,1,.07.032.1.1,0,0,1,.023.072,1.452,1.452,0,0,0,.286,1.024,5.68,5.68,0,0,0,1.973.579,12.958,12.958,0,0,1,1.865.454,2.639,2.639,0,0,1,1.5,1.422.091.091,0,0,1-.013.087.089.089,0,0,1-.07.04Zm-10.851-.187h10.7a2.51,2.51,0,0,0-1.335-1.189,13.21,13.21,0,0,0-1.836-.445,5.133,5.133,0,0,1-2.075-.636,1.552,1.552,0,0,1-.341-1.06h-3.784A10.152,10.152,0,0,0,131.675,252.273Z" transform="translate(-114.1 -203.164)" fill="#1f4076"/>
    <path id="Tracé_2571" data-name="Tracé 2571" d="M138.75,242.54l-.29,1.181H142.4l.125-1.471Z" transform="translate(-119.604 -198.042)" fill="#f2f1f7"/>
    <path id="Tracé_2572" data-name="Tracé 2572" d="M142,243.431h-3.93a.106.106,0,0,1-.1-.131l.29-1.181a.1.1,0,0,1,.093-.081l3.771-.29a.1.1,0,0,1,.083.032.1.1,0,0,1,.032.083l-.125,1.471A.106.106,0,0,1,142,243.431Zm-3.8-.212h3.7l.106-1.251-3.57.276Z" transform="translate(-119.214 -197.646)" fill="#1f4076"/>
    <line id="Ligne_82" data-name="Ligne 82" x2="2.542" y2="15.391" transform="translate(12.65 33.811)" fill="#fff"/>
    <path id="Tracé_2573" data-name="Tracé 2573" d="M111.314,208.3a.108.108,0,0,1-.106-.089l-2.544-15.391a.105.105,0,1,1,.208-.034l2.544,15.391a.106.106,0,0,1-.087.121Z" transform="translate(-96.123 -158.997)" fill="#1f4076"/>
    <line id="Ligne_83" data-name="Ligne 83" x1="2.592" y2="15.391" transform="translate(7.257 33.811)" fill="#fff"/>
    <path id="Tracé_2574" data-name="Tracé 2574" d="M83.347,208.314H83.33a.1.1,0,0,1-.087-.123l2.59-15.389a.108.108,0,0,1,.123-.087.1.1,0,0,1,.087.121L83.45,208.225A.106.106,0,0,1,83.347,208.314Z" transform="translate(-76.09 -159.006)" fill="#1f4076"/>
    <path id="Tracé_2575" data-name="Tracé 2575" d="M141.57,171.645s1.92-2.274,3.033-1.407-2.238,15.807-2.238,15.807H137.89s.456-9.255.992-11.022A8.453,8.453,0,0,1,141.57,171.645Z" transform="translate(-119.155 -141.138)" fill="#1f4076"/>
    <path id="Tracé_2576" data-name="Tracé 2576" d="M142.016,185.805h-4.475a.091.091,0,0,1-.068-.03.081.081,0,0,1-.025-.068c.017-.379.462-9.288,1-11.044a8.343,8.343,0,0,1,2.713-3.421c.148-.174,2.007-2.3,3.154-1.412s-1.865,14.365-2.211,15.9A.1.1,0,0,1,142.016,185.805Zm-4.371-.187h4.3c1.342-5.984,3.042-15.033,2.262-15.639-1.03-.8-2.885,1.371-2.9,1.393l-.015.015a8.453,8.453,0,0,0-2.656,3.33c-.5,1.634-.939,9.9-.99,10.9Zm3.582-14.306Z" transform="translate(-118.806 -140.802)" fill="#1f4076"/>
    <path id="Tracé_2577" data-name="Tracé 2577" d="M105.16,242.78a3.114,3.114,0,0,0-.67,1.248h3.949l.513-1.248Z" transform="translate(-92.835 -198.459)" fill="#f2f1f7"/>
    <path id="Tracé_2578" data-name="Tracé 2578" d="M108.046,243.74H104.1a.108.108,0,0,1-.083-.04.112.112,0,0,1-.021-.089,3.18,3.18,0,0,1,.7-1.3.108.108,0,0,1,.078-.034h3.792a.108.108,0,0,1,.089.047.1.1,0,0,1,0,.1l-.513,1.248A.106.106,0,0,1,108.046,243.74Zm-3.815-.212h3.743l.424-1.037h-3.582a3.086,3.086,0,0,0-.583,1.037Z" transform="translate(-92.441 -198.065)" fill="#1f4076"/>
    <path id="Tracé_2579" data-name="Tracé 2579" d="M89.307,171.054A3.294,3.294,0,0,0,90.9,173.9c1.74,1.179,7.631.562,7.631.562L92.693,184.9l5,.411s7.078-11.675,6.976-13.621-3.021-2.3-3.021-2.3h-11.8Z" transform="translate(-80.868 -140.626)" fill="#1f4076"/>
    <path id="Tracé_2580" data-name="Tracé 2580" d="M97.345,185.07h0l-5.007-.424a.1.1,0,0,1-.076-.049.089.089,0,0,1,0-.089l5.749-10.287c-1.017.1-5.914.485-7.512-.6a3.419,3.419,0,0,1-1.628-2.927v-.019l.538-1.664a.1.1,0,0,1,.089-.066h11.8c.134.017,3.008.392,3.114,2.393.1,1.952-6.7,13.2-6.995,13.674a.093.093,0,0,1-.07.053Zm-4.846-.594,4.8.392c.5-.829,7.029-11.686,6.931-13.515s-2.91-2.213-2.938-2.217H89.57l-.513,1.59a3.262,3.262,0,0,0,1.547,2.745c1.7,1.145,7.506.553,7.565.547a.091.091,0,0,1,.087.042.1.1,0,0,1,0,.1Z" transform="translate(-80.524 -140.279)" fill="#1f4076"/>
    <path id="Tracé_2581" data-name="Tracé 2581" d="M73.653,135.755c.038.273.064.547.078.818a34.212,34.212,0,0,0,.231,4.574,1.391,1.391,0,0,0,.322.738,1.352,1.352,0,0,0,.547.3,31.122,31.122,0,0,0,3.782.547,3.854,3.854,0,0,1,3.046,2.031.379.379,0,0,1-.235.6,8.944,8.944,0,0,1-3.148.121c-1.4,0-2.809-.057-4.208-.153a3.934,3.934,0,0,1-1.405-.28c-1.611-.755-2.033-3.23-2.221-4.778a52.041,52.041,0,0,1-.375-6.893c0-.7.244-1.626.943-1.632s1.641,1.253,1.95,1.817A6.406,6.406,0,0,1,73.653,135.755Z" transform="translate(-65.705 -110.956)" fill="#f2f1f7"/>
    <path id="Tracé_2582" data-name="Tracé 2582" d="M79.72,145.24c-.322,0-.649-.021-.971-.042s-.581-.038-.848-.04c-1.4,0-2.817-.057-4.216-.153a3.989,3.989,0,0,1-1.444-.29c-1.6-.752-2.069-3.135-2.281-4.86a52.265,52.265,0,0,1-.375-6.908c0-.8.288-1.728,1.047-1.736h0c.825,0,1.77,1.386,2.037,1.872a6.389,6.389,0,0,1,.693,2.241c.036.259.064.538.081.827.034.545.034,1.1.036,1.634a15.368,15.368,0,0,0,.2,2.921,1.306,1.306,0,0,0,.293.685,1.24,1.24,0,0,0,.515.263,11.08,11.08,0,0,0,2.268.367c.494.045,1,.089,1.5.178.742.134,2.544.6,3.127,2.1a.591.591,0,0,1,0,.517.572.572,0,0,1-.3.212A3.737,3.737,0,0,1,79.72,145.24Zm-9.083-13.818h0c-.636,0-.831.962-.848,1.526a51.83,51.83,0,0,0,.375,6.881c.212,1.677.649,3.987,2.16,4.7a3.829,3.829,0,0,0,1.374.269c1.395.1,2.806.148,4.2.153.278,0,.564.021.867.04a5.382,5.382,0,0,0,2.243-.155.4.4,0,0,0,.2-.129.379.379,0,0,0-.025-.326c-.555-1.395-2.26-1.84-2.968-1.965-.488-.087-.992-.134-1.484-.178a11.217,11.217,0,0,1-2.313-.373,1.452,1.452,0,0,1-.6-.307,1.484,1.484,0,0,1-.352-.793,15.514,15.514,0,0,1-.2-2.968c0-.534,0-1.085-.036-1.624-.017-.284-.042-.555-.078-.81h0a6.213,6.213,0,0,0-.67-2.168C72.185,132.63,71.3,131.422,70.637,131.422Z" transform="translate(-65.326 -110.539)" fill="#1f4076"/>
    <path id="Tracé_2583" data-name="Tracé 2583" d="M178.676,159.614a2.743,2.743,0,0,1,1.524.988.282.282,0,0,1,.074.212c-.023.117-.165.163-.284.176a6,6,0,0,1-1.149-.078c-.814-.078-1.641.038-2.452-.066-.7-.089.1-1.179.458-1.333A3.344,3.344,0,0,1,178.676,159.614Z" transform="translate(-149.273 -132.766)" fill="#f2f1f7"/>
    <path id="Tracé_2584" data-name="Tracé 2584" d="M179.407,160.726a4.923,4.923,0,0,1-.636-.055c-.1-.013-.2-.025-.3-.034a9.75,9.75,0,0,0-1.14-.025,9.1,9.1,0,0,1-1.314-.04.373.373,0,0,1-.369-.32c-.059-.424.513-1.094.8-1.217a3.371,3.371,0,0,1,1.908.093,2.836,2.836,0,0,1,1.583,1.028.386.386,0,0,1,.091.3c-.03.144-.165.237-.377.259A1.994,1.994,0,0,1,179.407,160.726Zm-1.645-.331a5.854,5.854,0,0,1,.721.03l.309.036a3.573,3.573,0,0,0,.818.042c.089,0,.18-.04.191-.091s-.028-.093-.057-.131a2.622,2.622,0,0,0-1.465-.95h0a3.026,3.026,0,0,0-1.759-.1c-.242.1-.712.708-.672.992,0,.036.017.117.187.14a8.944,8.944,0,0,0,1.282.038Z" transform="translate(-148.903 -132.382)" fill="#1f4076"/>
    <path id="Tracé_2585" data-name="Tracé 2585" d="M81.988,114.359s-2.968-7.016-2.628-10.995A4.753,4.753,0,0,1,83.2,99.087c.9-.057,5.693-.7,7.44,1.446s1.615,13.481,1.615,13.481Z" transform="translate(-73.01 -85.12)" fill="#fce15c"/>
    <path id="Tracé_2586" data-name="Tracé 2586" d="M106.981,106.223l-.059,8.085-3.432-8.627Z" transform="translate(-92.047 -90.42)" fill="#1f4076"/>
    <path id="Tracé_2587" data-name="Tracé 2587" d="M106.506,114.021a.11.11,0,0,1-.1-.068l-3.436-8.625a.106.106,0,0,1,.015-.106.1.1,0,0,1,.1-.038l3.489.543a.1.1,0,0,1,.089.106l-.059,8.082a.108.108,0,0,1-.087.1Zm-3.264-8.6,3.163,7.949.055-7.449Z" transform="translate(-91.631 -90.028)" fill="#1f4076"/>
    <path id="Tracé_2588" data-name="Tracé 2588" d="M131.092,106.4s1.293,2.484,2.054,3.762a25.926,25.926,0,0,0,2.419,3.11s5.859,2.084,5.9,2.2-.555,2.082-.555,2.082-6.147-.443-7.167-.924a16.747,16.747,0,0,1-3.08-2.845Z" transform="translate(-113.457 -90.988)" fill="#fce15c"/>
    <path id="Tracé_2589" data-name="Tracé 2589" d="M112.082,112.45l-.432.68.475.282.047,3.262,1.181,2.968.059-2.747-.984-3.576.293-.346Z" transform="translate(-98.477 -95.755)" fill="#f2f1f7"/>
    <path id="Tracé_2590" data-name="Tracé 2590" d="M112.976,119.358a.11.11,0,0,1-.1-.068l-1.181-2.968a.121.121,0,0,1,0-.038l-.047-3.2-.424-.252a.1.1,0,0,1-.049-.066.1.1,0,0,1,.013-.083l.424-.68a.1.1,0,0,1,.072-.047.11.11,0,0,1,.085.023l.636.524a.106.106,0,0,1,.013.15l-.256.3.971,3.523a.14.14,0,0,1,0,.03l-.059,2.756a.108.108,0,0,1-.087.1Zm-1.075-3.095.979,2.463.049-2.209-.979-3.561a.1.1,0,0,1,.021-.1l.212-.261-.462-.379-.309.488.379.225a.11.11,0,0,1,.053.089Z" transform="translate(-98.101 -95.365)" fill="#1f4076"/>
    <path id="Tracé_2591" data-name="Tracé 2591" d="M97.38,61.547a1.541,1.541,0,0,1,.392-.1c.532-.061.541.053.952-.29a3.877,3.877,0,0,1,2.177-.831c1.528-.1,2.641.666,2.294,2.332a4.943,4.943,0,0,1-.895,1.831,5.178,5.178,0,0,1-3.557,2.393,2.223,2.223,0,0,1-1.573-.358,3.964,3.964,0,0,1-.816-3.782,2.211,2.211,0,0,1,.4-.763A1.5,1.5,0,0,1,97.38,61.547Z" transform="translate(-86.286 -54.675)" fill="#f2f1f7"/>
    <path id="Tracé_2592" data-name="Tracé 2592" d="M98.06,66.636a2.035,2.035,0,0,1-1.391-.4,4.066,4.066,0,0,1-.831-3.894,2.332,2.332,0,0,1,.424-.8,1.679,1.679,0,0,1,.661-.466h0a1.814,1.814,0,0,1,.424-.1c.142-.015.248-.021.333-.023.227,0,.286-.011.564-.244a3.958,3.958,0,0,1,2.238-.848,2.44,2.44,0,0,1,2.058.666,2.031,2.031,0,0,1,.346,1.806,4.875,4.875,0,0,1-.914,1.867,5.309,5.309,0,0,1-3.633,2.438C98.305,66.629,98.206,66.636,98.06,66.636ZM97,61.273a1.431,1.431,0,0,0-.577.4,2.084,2.084,0,0,0-.377.729,3.841,3.841,0,0,0,.784,3.686,2.109,2.109,0,0,0,1.484.322,5.1,5.1,0,0,0,3.476-2.351,4.663,4.663,0,0,0,.878-1.787,1.827,1.827,0,0,0-.3-1.622,2.234,2.234,0,0,0-1.884-.594,3.786,3.786,0,0,0-2.12.805.9.9,0,0,1-.68.284,3.093,3.093,0,0,0-.318.023,1.456,1.456,0,0,0-.365.089Z" transform="translate(-85.872 -54.303)" fill="#1f4076"/>
    <path id="Tracé_2593" data-name="Tracé 2593" d="M106.655,76.743v2.306a1.689,1.689,0,0,1-2.05.886,2.083,2.083,0,0,1-1.7-1.469l.068-4.271s1.13-.585.829-3.025a7.512,7.512,0,0,0,3.93.6,18.587,18.587,0,0,1,.3,3.845A1.383,1.383,0,0,1,106.655,76.743Z" transform="translate(-91.59 -63.225)" fill="#f2f1f7"/>
    <path id="Tracé_2594" data-name="Tracé 2594" d="M104.772,79.734a2.381,2.381,0,0,1-.57-.074,2.162,2.162,0,0,1-1.772-1.554l.066-4.29a.108.108,0,0,1,.055-.093s1.06-.594.772-2.919a.106.106,0,0,1,.045-.1.108.108,0,0,1,.11,0,7.438,7.438,0,0,0,3.866.583.108.108,0,0,1,.117.087,18.492,18.492,0,0,1,.3,3.877,1.4,1.4,0,0,1-1.38,1.217v2.211a.1.1,0,0,1,0,.042A1.8,1.8,0,0,1,104.772,79.734Zm-2.065-5.857-.068,4.212a1.97,1.97,0,0,0,1.615,1.365,1.55,1.55,0,0,0,1.908-.808V76.363a.1.1,0,0,1,.04-.083.161.161,0,0,1,.1-.028,1.2,1.2,0,0,0,1.244-1.039,18.218,18.218,0,0,0-.284-3.714,7.726,7.726,0,0,1-3.705-.534C103.757,73.021,102.937,73.722,102.708,73.877Zm3.57,4.793Z" transform="translate(-91.211 -62.846)" fill="#1f4076"/>
    <path id="Tracé_2595" data-name="Tracé 2595" d="M100.755,81.916a1,1,0,0,0-.329-.532,1.738,1.738,0,0,0-.528-.273.752.752,0,0,0-.318-.061.615.615,0,0,0-.212.076A.769.769,0,0,0,99,81.5a.9.9,0,0,0-.023.424,1.8,1.8,0,0,0,.11.46,1.2,1.2,0,0,0,1.581.636" transform="translate(-88.476 -71.01)" fill="#f2f1f7"/>
    <path id="Tracé_2596" data-name="Tracé 2596" d="M99.773,82.88a1.3,1.3,0,0,1-1.206-.808,1.908,1.908,0,0,1-.119-.488,1,1,0,0,1,.032-.488.848.848,0,0,1,.424-.424.716.716,0,0,1,.254-.087.825.825,0,0,1,.367.066,1.846,1.846,0,0,1,.56.293,1.1,1.1,0,0,1,.358.577.106.106,0,0,1-.078.127.108.108,0,0,1-.129-.078.88.88,0,0,0-.293-.473,1.672,1.672,0,0,0-.5-.254.653.653,0,0,0-.271-.055.5.5,0,0,0-.176.064.678.678,0,0,0-.322.322.822.822,0,0,0-.019.382,1.768,1.768,0,0,0,.1.424,1.092,1.092,0,0,0,1.441.587.108.108,0,0,1,.14.055.106.106,0,0,1-.057.14,1.308,1.308,0,0,1-.513.119Z" transform="translate(-88.061 -70.645)" fill="#1f4076"/>
    <path id="Tracé_2597" data-name="Tracé 2597" d="M119.878,81.21s.82,1.166.636,1.376-.714.087-.714.087" transform="translate(-104.899 -71.137)" fill="#f2f1f7"/>
    <path id="Tracé_2598" data-name="Tracé 2598" d="M119.724,82.426a1.728,1.728,0,0,1-.348-.038.109.109,0,0,1,.049-.212c.182.042.507.066.61-.053a3.327,3.327,0,0,0-.636-1.244.106.106,0,0,1,.174-.121c.324.46.848,1.272.636,1.5a.615.615,0,0,1-.485.163Z" transform="translate(-104.499 -70.748)" fill="#1f4076"/>
    <ellipse id="Ellipse_226" data-name="Ellipse 226" cx="0.276" cy="0.195" rx="0.276" ry="0.195" transform="translate(14.116 10.081) rotate(-86.47)" fill="#1f4076"/>
    <ellipse id="Ellipse_227" data-name="Ellipse 227" cx="0.195" cy="0.276" rx="0.195" ry="0.276" transform="matrix(0.998, -0.07, 0.07, 0.998, 15.798, 9.565)" fill="#1f4076"/>
    <path id="Tracé_2599" data-name="Tracé 2599" d="M114.869,89.966a2.37,2.37,0,0,1-1.444-.388.106.106,0,0,1,.134-.163,2.963,2.963,0,0,0,1.908.3.107.107,0,0,1,.034.212A4.22,4.22,0,0,1,114.869,89.966Z" transform="translate(-99.851 -77.589)" fill="#1f4076"/>
    <path id="Tracé_2600" data-name="Tracé 2600" d="M121.859,76.024a1.467,1.467,0,1,1,1.446-1.215A1.467,1.467,0,0,1,121.859,76.024Zm0-2.722a1.257,1.257,0,1,0,.212.019A1.242,1.242,0,0,0,121.859,73.3Z" transform="translate(-105.366 -64.738)" fill="#5c6f99"/>
    <path id="Tracé_2601" data-name="Tracé 2601" d="M108.405,75.494a1.513,1.513,0,0,1-.256-.021,1.474,1.474,0,1,1,.259.021Zm0-2.722a1.214,1.214,0,1,0,.212.019,1.29,1.29,0,0,0-.218-.019Z" transform="translate(-94.762 -64.321)" fill="#5c6f99"/>
    <path id="Tracé_2602" data-name="Tracé 2602" d="M112.1,96.9a3.84,3.84,0,0,1-2.281-.15s.937,1.933,2.281,1.732Z" transform="translate(-97.035 -83.383)" fill="#1f4076"/>
    <path id="Tracé_2603" data-name="Tracé 2603" d="M111.51,98.2c-1.287,0-2.139-1.73-2.177-1.808a.108.108,0,0,1,.023-.123.106.106,0,0,1,.125-.015,3.741,3.741,0,0,0,2.2.14.106.106,0,0,1,.129.1v1.581a.1.1,0,0,1-.089.1A1.533,1.533,0,0,1,111.51,98.2Zm-1.831-1.628c.3.494,1.022,1.484,1.927,1.412V96.631A4.058,4.058,0,0,1,109.679,96.576Z" transform="translate(-96.644 -82.985)" fill="#1f4076"/>
    <path id="Tracé_2604" data-name="Tracé 2604" d="M74.918,104.933c-1.776,1.126-4.108,11.957-2.6,13.125,2.368,1.825,9.024-1.783,9.024-1.783l-.672-3.18s-5.3.146-5.371-.941,3.08-6.122,2.667-6.872S74.918,104.933,74.918,104.933Z" transform="translate(-67.101 -89.747)" fill="#fce15c"/>
    <path id="Tracé_2605" data-name="Tracé 2605" d="M90.662,122.278a.1.1,0,0,1-.1-.076.108.108,0,0,1,.074-.131l2.91-.818v-2.529l-4.64-.475a.1.1,0,0,1-.076-.042.11.11,0,0,1-.017-.085l1.759-7.909a.109.109,0,0,1,.212.047l-1.738,7.79,4.617.473a.106.106,0,0,1,.1.106v2.707a.106.106,0,0,1-.076.1l-2.989.848A.072.072,0,0,1,90.662,122.278Z" transform="translate(-80.478 -93.925)" fill="#1f4076"/>
    <path id="Tracé_2606" data-name="Tracé 2606" d="M119.991,152.455c-.049.108-.212.076-.316.028l-1.513-.693a4.738,4.738,0,0,1,.964.636c.057.049.119.114.1.189-.028.127-.212.1-.333.047a10.95,10.95,0,0,1-1.66-.988l1.17.9a.18.18,0,0,1-.182.18.538.538,0,0,1-.271-.1l-1.3-.769.814.57c.127.089.273.231.212.375s-.324.119-.492.042a9.855,9.855,0,0,0-2.094-.636,3.392,3.392,0,0,0-.774-.159,7.058,7.058,0,0,0-1.189.261q-.74.165-1.484.341V150.6a11.748,11.748,0,0,0,2.544-.131,8.207,8.207,0,0,1,1.965-.227,7.527,7.527,0,0,1,2.544.581.24.24,0,0,1,.085.057c.076.11-.106.212-.24.212a3.487,3.487,0,0,1-1.037-.129,9.867,9.867,0,0,1,2.342,1.246C119.934,152.27,120.025,152.366,119.991,152.455Z" transform="translate(-98.477 -125.534)" fill="#fff"/>
    <path id="Tracé_2607" data-name="Tracé 2607" d="M117.12,152.689a.82.82,0,0,1-.326-.081,9.717,9.717,0,0,0-2.073-.636c-.089-.019-.176-.045-.261-.068a1.507,1.507,0,0,0-.492-.089,3.617,3.617,0,0,0-.8.161c-.127.034-.252.07-.373.1l-1.467.337a.1.1,0,0,1-.089-.017.1.1,0,0,1-.042-.072v-2.082a.1.1,0,0,1,.03-.07.093.093,0,0,1,.07-.028,11.5,11.5,0,0,0,2.522-.129l.229-.042a7.122,7.122,0,0,1,1.759-.184,7.55,7.55,0,0,1,2.573.587.286.286,0,0,1,.125.091.178.178,0,0,1,.015.193.4.4,0,0,1-.331.178h-.248a10.1,10.1,0,0,1,1.609.941c.157.112.212.244.165.362a.233.233,0,0,1-.225.129.587.587,0,0,1-.212-.053l-.437-.212a.3.3,0,0,1,.123.276.212.212,0,0,1-.11.142.447.447,0,0,1-.358-.03c-.112-.057-.225-.114-.335-.174a.237.237,0,0,1-.057.148.314.314,0,0,1-.212.106.636.636,0,0,1-.322-.108l-.146-.087a.3.3,0,0,1,0,.235.276.276,0,0,1-.155.146A.4.4,0,0,1,117.12,152.689Zm-3.127-1.06a1.908,1.908,0,0,1,.519.1c.081.023.163.047.248.064a9.848,9.848,0,0,1,2.12.651.477.477,0,0,0,.316.053.074.074,0,0,0,.047-.045c.042-.1-.125-.212-.176-.259l-.35-.24-.473-.335a.1.1,0,0,1-.025-.134.1.1,0,0,1,.129-.032l1.3.752a.371.371,0,0,0,.212.083.112.112,0,0,0,.076-.036h0l-1.123-.863a.1.1,0,0,1-.017-.136.1.1,0,0,1,.134-.019,11,11,0,0,0,1.643.994.276.276,0,0,0,.189.03c0-.017,0-.045-.061-.1a4.739,4.739,0,0,0-.947-.636.1.1,0,0,1-.042-.129.1.1,0,0,1,.127-.045l.651.3.863.394a.367.367,0,0,0,.142.038c.038,0,.042-.011.045-.017h0c0-.017-.021-.068-.1-.123a9.881,9.881,0,0,0-2.332-1.236.1.1,0,0,1,.059-.182,3.494,3.494,0,0,0,1.009.127.225.225,0,0,0,.163-.072l-.047-.019a7.294,7.294,0,0,0-2.5-.572,7.03,7.03,0,0,0-1.715.182l-.229.042a11.516,11.516,0,0,1-2.465.136v1.859c.462-.106.911-.212,1.363-.314.117-.025.24-.059.362-.093a3.671,3.671,0,0,1,.848-.167Z" transform="translate(-98.122 -125.175)" fill="#1f4076"/>
    <path id="Tracé_2608" data-name="Tracé 2608" d="M134.207,119.582a.1.1,0,0,1-.1-.093c-.134-2.912-.468-7.332-.473-7.377a.1.1,0,1,1,.193-.015c0,.045.339,4.468.473,7.383a.1.1,0,0,1-.093.1Z" transform="translate(-115.804 -95.407)" fill="#1f4076"/>
    <rect id="Rectangle_1413" data-name="Rectangle 1413" width="26.859" height="19.2" transform="translate(20.562 0.106)" fill="#f2f1f7"/>
    <path id="Tracé_2609" data-name="Tracé 2609" d="M172.975,53.1H146.116A.106.106,0,0,1,146.01,53V33.8a.106.106,0,0,1,.106-.106h26.859a.106.106,0,0,1,.106.106V53A.106.106,0,0,1,172.975,53.1Zm-26.753-.212h26.647V33.9H146.22Z" transform="translate(-125.554 -33.69)" fill="#1f4076"/>
    <path id="Tracé_2610" data-name="Tracé 2610" d="M183.127,57.2h0a.106.106,0,0,1-.093-.07l-3.542-9.848L175.6,54.88a.11.11,0,0,1-.085.057.106.106,0,0,1-.093-.042l-3.864-5.039-2.429,3.894a.106.106,0,0,1-.144.034l-2.048-1.232a.1.1,0,0,1-.036-.146.106.106,0,0,1,.144-.036L169,53.549l2.455-3.934a.11.11,0,0,1,.085-.051.1.1,0,0,1,.089.042l3.845,5.028,3.938-7.663a.106.106,0,0,1,.2.013l3.531,9.835,1.734-3.667a.106.106,0,0,1,.191.091l-1.836,3.9A.1.1,0,0,1,183.127,57.2Z" transform="translate(-142.002 -44.11)" fill="#5c6f99"/>
    <ellipse id="Ellipse_228" data-name="Ellipse 228" cx="0.485" cy="0.485" rx="0.485" ry="0.485" transform="translate(26.548 9.089)" fill="#f2f1f7"/>
    <path id="Tracé_2611" data-name="Tracé 2611" d="M174.8,77.253a.591.591,0,1,1,.591-.591A.591.591,0,0,1,174.8,77.253Zm0-.971a.379.379,0,1,0,.379.379A.379.379,0,0,0,174.8,76.282Z" transform="translate(-147.776 -67.087)" fill="#5c6f99"/>
    <ellipse id="Ellipse_229" data-name="Ellipse 229" cx="0.485" cy="0.485" rx="0.485" ry="0.485" transform="translate(29.06 5.075)" fill="#f2f1f7"/>
    <path id="Tracé_2612" data-name="Tracé 2612" d="M186.691,58.313a.591.591,0,1,1,.591-.591A.591.591,0,0,1,186.691,58.313Zm0-.971a.379.379,0,1,0,.379.379A.379.379,0,0,0,186.691,57.342Z" transform="translate(-157.146 -52.161)" fill="#5c6f99"/>
    <ellipse id="Ellipse_230" data-name="Ellipse 230" cx="0.485" cy="0.485" rx="0.485" ry="0.485" transform="translate(37.022 2.425)" fill="#f2f1f7"/>
    <path id="Tracé_2613" data-name="Tracé 2613" d="M224.251,45.8a.591.591,0,1,1,.591-.589A.591.591,0,0,1,224.251,45.8Zm0-.969a.379.379,0,1,0,.379.379A.379.379,0,0,0,224.251,44.834Z" transform="translate(-186.744 -42.303)" fill="#5c6f99"/>
    <ellipse id="Ellipse_231" data-name="Ellipse 231" cx="0.485" cy="0.485" rx="0.485" ry="0.485" transform="translate(40.64 12.502)" fill="#f2f1f7"/>
    <path id="Tracé_2614" data-name="Tracé 2614" d="M241.322,93.353a.591.591,0,1,1,.591-.583A.591.591,0,0,1,241.322,93.353Zm0-.971a.379.379,0,1,0,.271.114A.379.379,0,0,0,241.322,92.382Z" transform="translate(-200.196 -79.774)" fill="#5c6f99"/>
    <ellipse id="Ellipse_232" data-name="Ellipse 232" cx="0.485" cy="0.485" rx="0.485" ry="0.485" transform="translate(33.007 10.236)" fill="#f2f1f7"/>
    <path id="Tracé_2615" data-name="Tracé 2615" d="M205.311,82.663a.591.591,0,1,1,.591-.591A.591.591,0,0,1,205.311,82.663Zm0-.971a.379.379,0,1,0,.379.379A.379.379,0,0,0,205.311,81.692Z" transform="translate(-171.819 -71.35)" fill="#5c6f99"/>
    <path id="Tracé_2616" data-name="Tracé 2616" d="M171.935,48.572h-2.249a.106.106,0,0,1-.106-.106.108.108,0,0,1,.106-.106h2.249a.106.106,0,0,1,0,.212Z" transform="translate(-144.128 -45.25)" fill="#5c6f99"/>
    <path id="Tracé_2617" data-name="Tracé 2617" d="M171.935,51.322h-2.249a.108.108,0,0,1-.106-.106.106.106,0,0,1,.106-.106h2.249a.106.106,0,0,1,0,.212Z" transform="translate(-144.128 -47.417)" fill="#5c6f99"/>
    <path id="Tracé_2618" data-name="Tracé 2618" d="M171.935,54.062h-2.249a.106.106,0,0,1-.106-.106.108.108,0,0,1,.106-.106h2.249a.106.106,0,0,1,0,.212Z" transform="translate(-144.128 -49.577)" fill="#5c6f99"/>
    <path id="Tracé_2619" data-name="Tracé 2619" d="M171.176,56.812h-1.46a.108.108,0,0,1-.106-.106.106.106,0,0,1,.106-.106h1.46a.106.106,0,0,1,.106.106A.108.108,0,0,1,171.176,56.812Z" transform="translate(-144.151 -51.744)" fill="#5c6f99"/>
    <path id="Tracé_2620" data-name="Tracé 2620" d="M243.585,59.212h-2.249a.106.106,0,0,1-.106-.106.108.108,0,0,1,.106-.106h2.249a.106.106,0,0,1,0,.212Z" transform="translate(-200.59 -53.635)" fill="#5c6f99"/>
    <path id="Tracé_2621" data-name="Tracé 2621" d="M243.585,61.922h-2.249a.106.106,0,0,1,0-.212h2.249a.106.106,0,0,1,0,.212Z" transform="translate(-200.59 -55.771)" fill="#5c6f99"/>
    <path id="Tracé_2622" data-name="Tracé 2622" d="M242.86,64.662h-1.484a.106.106,0,0,1-.106-.106.108.108,0,0,1,.106-.106h1.484a.106.106,0,1,1,0,.212Z" transform="translate(-200.621 -57.93)" fill="#5c6f99"/>
    <path id="Tracé_2623" data-name="Tracé 2623" d="M183.309,103.062H164.056a.106.106,0,0,1,0-.212h19.253a.106.106,0,1,1,0,.212Z" transform="translate(-139.691 -88.19)" fill="#5c6f99"/>
    <path id="Tracé_2624" data-name="Tracé 2624" d="M183.309,108.3H164.056a.106.106,0,0,1,0-.212h19.253a.106.106,0,1,1,0,.212Z" transform="translate(-139.691 -92.319)" fill="#5c6f99"/>
    <path id="Tracé_2625" data-name="Tracé 2625" d="M180.134,113.552H164.056a.106.106,0,0,1,0-.212h16.078a.106.106,0,0,1,0,.212Z" transform="translate(-139.691 -96.457)" fill="#5c6f99"/>
    <line id="Ligne_84" data-name="Ligne 84" x1="2.542" y2="15.391" transform="translate(49.189 33.811)" fill="#fff"/>
    <path id="Tracé_2626" data-name="Tracé 2626" d="M281.169,208.313h-.017a.106.106,0,0,1-.087-.121l2.544-15.391a.1.1,0,0,1,.121-.087.1.1,0,0,1,.087.121l-2.544,15.391A.108.108,0,0,1,281.169,208.313Z" transform="translate(-231.98 -159.005)" fill="#1f4076"/>
    <line id="Ligne_85" data-name="Ligne 85" x2="2.592" y2="15.391" transform="translate(54.53 33.811)" fill="#fff"/>
    <path id="Tracé_2627" data-name="Tracé 2627" d="M308.971,208.306a.106.106,0,0,1-.1-.089l-2.592-15.391a.106.106,0,0,1,.087-.121.108.108,0,0,1,.123.087l2.592,15.389a.108.108,0,0,1-.087.123Z" transform="translate(-251.847 -158.998)" fill="#1f4076"/>
    <path id="Tracé_2628" data-name="Tracé 2628" d="M252.368,230.143a3.222,3.222,0,0,1,.447,2.4c-.29,1.407-3.815,3.633-3.815,3.633h4.528a3.442,3.442,0,0,0,2.183-1.865c.7-1.535.193-1.948.193-1.948l.8.994,1.367-1.2-2.83-3.949Z" transform="translate(-206.713 -186.978)" fill="#5c6f99"/>
    <path id="Tracé_2629" data-name="Tracé 2629" d="M248.655,235.908a.091.091,0,0,1-.089-.068.1.1,0,0,1,.038-.106c.036-.021,3.491-2.219,3.771-3.572a3.01,3.01,0,0,0-.382-2.243.747.747,0,0,1-.059-.117.1.1,0,0,1,.036-.108l2.872-1.933a.1.1,0,0,1,.129.023l2.83,3.949a.1.1,0,0,1-.015.125l-1.367,1.2a.091.091,0,0,1-.068.023.1.1,0,0,1-.066-.034l-.46-.572a3.234,3.234,0,0,1-.377,1.5A3.5,3.5,0,0,1,253.2,235.9Zm.314-.187h4.214a3.406,3.406,0,0,0,2.1-1.812c.528-1.147.352-1.634.259-1.783l-.053-.066a.093.093,0,0,1,.131-.131.305.305,0,0,1,.074.089l.68.848,1.229-1.083-2.728-3.815-2.728,1.838.013.019a3.241,3.241,0,0,1,.4,2.37c-.252,1.221-2.756,2.972-3.591,3.527Zm3.057-5.935Z" transform="translate(-206.368 -186.612)" fill="#5c6f99"/>
    <path id="Tracé_2630" data-name="Tracé 2630" d="M210.746,243.412l-1.711,4.35h-1.484l.248-1.037s-1.325,1.079-1.658,1.037-6.173.083-6.173-.212,3.866-1.946,5.393-2.484a3.71,3.71,0,0,0,2.065-2.156Z" transform="translate(-168.076 -198.562)" fill="#5c6f99"/>
    <path id="Tracé_2631" data-name="Tracé 2631" d="M205.771,247.545h-.025c-.085-.011-.615-.011-1.285,0-3.059,0-4.75-.023-4.933-.212a.117.117,0,0,1-.038-.087c0-.424,4.534-2.249,5.456-2.573a3.634,3.634,0,0,0,2.005-2.1.093.093,0,0,1,.1-.061l3.328.5a.088.088,0,0,1,.066.127l-1.7,4.354a.093.093,0,0,1-.087.059h-1.484a.093.093,0,0,1-.091-.114l.187-.772A4.788,4.788,0,0,1,205.771,247.545Zm-.687-.2c.4,0,.619,0,.685.011a5.37,5.37,0,0,0,1.586-1.015.1.1,0,0,1,.15.1l-.212.92h1.31l1.645-4.182-3.137-.468a3.73,3.73,0,0,1-2.094,2.139,35.364,35.364,0,0,0-5.3,2.372,42.908,42.908,0,0,0,4.748.131Z" transform="translate(-167.698 -198.25)" fill="#5c6f99"/>
    <path id="Tracé_2632" data-name="Tracé 2632" d="M233.093,165.28s-12.93,1.132-13.036,4.362,9.613,11.711,9.613,11.711l3.423-2.927s-8.443-7.188-7.207-8.43,4.333-.178,4.333-.178Z" transform="translate(-183.904 -137.387)" fill="#1f4076"/>
    <path id="Tracé_2633" data-name="Tracé 2633" d="M229.323,181.106a.093.093,0,0,1-.061-.023c-.025-.021-2.459-2.151-4.85-4.648-3.224-3.368-4.837-5.77-4.795-7.135.1-3.277,12.591-4.407,13.123-4.451a.087.087,0,0,1,.087.045.091.091,0,0,1,0,.1l-2.868,4.538a.1.1,0,0,1-.11.038c-.03,0-3.048-1.03-4.239.157a.377.377,0,0,0-.1.295c.074,1.834,7.22,7.936,7.292,8a.106.106,0,0,1,.034.072.089.089,0,0,1-.034.07l-3.425,2.927A.091.091,0,0,1,229.323,181.106Zm3.243-16.057c-1.592.157-12.672,1.352-12.763,4.256-.093,3.018,8.691,10.859,9.52,11.584l3.281-2.8c-.848-.727-7.207-6.236-7.275-8.055a.566.566,0,0,1,.151-.435c1.181-1.179,3.877-.382,4.36-.225Z" transform="translate(-183.558 -137.046)" fill="#1f4076"/>
    <path id="Tracé_2634" data-name="Tracé 2634" d="M247.19,168.268s-.776,2.868-2.054,3.2a58.279,58.279,0,0,0-6.622,1.908c-1.452.666-4.767,10.77-4.767,10.77H228.07s5.153-11.234,6.478-13.142a18.505,18.505,0,0,1,3.966-3.724Z" transform="translate(-190.219 -138.963)" fill="#1f4076"/>
    <path id="Tracé_2635" data-name="Tracé 2635" d="M233.414,183.871h-5.677a.091.091,0,0,1-.078-.042.1.1,0,0,1,0-.089c.212-.46,5.17-11.27,6.486-13.161a19.3,19.3,0,0,1,3.983-3.748.085.085,0,0,1,.064-.015l8.676.994a.091.091,0,0,1,.068.04.1.1,0,0,1,.013.076c-.034.119-.805,2.923-2.12,3.264l-.835.212a44.776,44.776,0,0,0-5.772,1.7c-1.119.511-3.574,7.232-4.716,10.715a.093.093,0,0,1-.091.057Zm-5.53-.187h5.462c.312-.941,3.368-10.111,4.795-10.764a45.858,45.858,0,0,1,5.8-1.7l.835-.212c1.077-.28,1.8-2.514,1.956-3.029l-8.532-.977a18.436,18.436,0,0,0-3.913,3.68C233.064,172.458,228.469,182.414,227.884,183.684Z" transform="translate(-189.887 -138.596)" fill="#1f4076"/>
    <path id="Tracé_2636" data-name="Tracé 2636" d="M285.768,135.731c-.038.273-.064.547-.081.818a33.864,33.864,0,0,1-.231,4.574,1.39,1.39,0,0,1-.322.738,1.352,1.352,0,0,1-.557.29,31.092,31.092,0,0,1-3.779.547,3.854,3.854,0,0,0-3.046,2.031.475.475,0,0,0-.017.424.5.5,0,0,0,.25.172,8.944,8.944,0,0,0,3.148.121q2.107,0,4.21-.153a3.953,3.953,0,0,0,1.405-.28c1.609-.755,2.031-3.23,2.219-4.778a52.041,52.041,0,0,0,.377-6.893c0-.7-.244-1.626-.945-1.632s-1.639,1.253-1.95,1.817A6.4,6.4,0,0,0,285.768,135.731Z" transform="translate(-229.323 -110.933)" fill="#f2f1f7"/>
    <path id="Tracé_2637" data-name="Tracé 2637" d="M278.907,145.209a3.741,3.741,0,0,1-1.365-.212.572.572,0,0,1-.3-.212.591.591,0,0,1,0-.517c.6-1.484,2.385-1.963,3.127-2.1.5-.089,1-.134,1.5-.178a11.079,11.079,0,0,0,2.268-.367,1.227,1.227,0,0,0,.515-.263,1.312,1.312,0,0,0,.293-.685,15.37,15.37,0,0,0,.193-2.925c0-.536,0-1.09.036-1.634.017-.286.044-.566.081-.827h0a6.433,6.433,0,0,1,.7-2.251c.267-.485,1.215-1.872,2.039-1.872h0c.759,0,1.039.939,1.06,1.736a52.265,52.265,0,0,1-.382,6.919c-.212,1.725-.674,4.108-2.281,4.86a3.981,3.981,0,0,1-1.443.29c-1.4.1-2.817.148-4.216.153-.271,0-.553.021-.848.04S279.227,145.209,278.907,145.209Zm6.56-9.888c-.036.256-.061.528-.078.81-.032.538-.034,1.09-.036,1.622a15.527,15.527,0,0,1-.2,2.968,1.484,1.484,0,0,1-.352.793,1.452,1.452,0,0,1-.6.316,11.218,11.218,0,0,1-2.313.373c-.488.045-.994.091-1.484.178-.706.125-2.41.57-2.968,1.965a.379.379,0,0,0-.025.326.4.4,0,0,0,.2.129,5.281,5.281,0,0,0,2.243.155c.3-.019.589-.038.867-.04,1.395,0,2.809-.057,4.2-.153a3.815,3.815,0,0,0,1.367-.269c1.511-.71,1.957-3.018,2.16-4.7a51.834,51.834,0,0,0,.377-6.881c0-.564-.193-1.52-.848-1.526h0c-.663,0-1.55,1.208-1.853,1.761a6.228,6.228,0,0,0-.67,2.168Z" transform="translate(-228.919 -110.507)" fill="#1f4076"/>
    <path id="Tracé_2638" data-name="Tracé 2638" d="M288.306,75A40.329,40.329,0,0,1,286,80.514l4.14,1.552.778-7.366Z" transform="translate(-235.87 -66.007)" fill="#f2f1f7"/>
    <path id="Tracé_2639" data-name="Tracé 2639" d="M289.743,81.864a.083.083,0,0,1-.038,0l-4.14-1.549a.108.108,0,0,1-.049-.163,40.286,40.286,0,0,0,2.294-5.49.108.108,0,0,1,.089-.07l2.611-.295a.1.1,0,0,1,.085.03.1.1,0,0,1,.032.087l-.784,7.351a.1.1,0,0,1-.049.078A.106.106,0,0,1,289.743,81.864Zm-3.977-1.708,3.885,1.454.75-7.1-2.414.273a42.588,42.588,0,0,1-2.221,5.365Z" transform="translate(-235.473 -65.688)" fill="#1f4076"/>
    <path id="Tracé_2640" data-name="Tracé 2640" d="M221.579,107.7a5.654,5.654,0,0,1-.986-1.365c-.057-.36-.134-1.617-.439-1.4s-.233,1.119-.233,1.119-1.272-1.518-1.639-1.193a1.566,1.566,0,0,0-.553,1.308c-.025.672,3.167,3.438,3.167,3.438" transform="translate(-182.071 -89.739)" fill="#f2f1f7"/>
    <path id="Tracé_2641" data-name="Tracé 2641" d="M220.5,109.318a.11.11,0,0,1-.07-.025c-.331-.288-3.23-2.832-3.2-3.523a1.644,1.644,0,0,1,.589-1.382.32.32,0,0,1,.231-.072c.392.032,1.037.689,1.363,1.06a1.214,1.214,0,0,1,.286-.914.212.212,0,0,1,.212-.03c.2.087.276.483.362,1.236.013.106.023.2.034.261a5.1,5.1,0,0,0,.96,1.31.106.106,0,0,1-.148.151,5.354,5.354,0,0,1-1.015-1.42c-.011-.066-.021-.161-.034-.271-.03-.248-.117-1-.237-1.06-.187.142-.212.708-.189,1.032a.1.1,0,0,1-.066.106.1.1,0,0,1-.121-.03c-.271-.324-1.06-1.172-1.414-1.2a.085.085,0,0,0-.074.019,1.482,1.482,0,0,0-.517,1.232c-.017.445,1.908,2.294,3.131,3.353a.108.108,0,0,1,.011.15A.11.11,0,0,1,220.5,109.318Z" transform="translate(-181.676 -89.344)" fill="#1f4076"/>
    <path id="Tracé_2642" data-name="Tracé 2642" d="M226.812,111.648a.106.106,0,0,1-.1-.061,1.454,1.454,0,0,1,.1-1.384.106.106,0,0,1,.174.123,1.238,1.238,0,0,0-.078,1.174.106.106,0,0,1-.053.14A.108.108,0,0,1,226.812,111.648Z" transform="translate(-189.048 -93.949)" fill="#1f4076"/>
    <path id="Tracé_2643" data-name="Tracé 2643" d="M249.012,120.014a1.543,1.543,0,0,1-1.166.873c-.093.346-.153.538-.153.538l-10.045-1.151,1.948-6.669a9.648,9.648,0,0,1-3.012,2.745c-1.7.848-7.875-4.856-7.875-4.856l1.522-2.12a24.391,24.391,0,0,0,5.958,3.076c2.946-2.7,4.674-4.532,5.511-4.564,2.264-.085,4.155-.2,5.986,1,.971.636,1.092.263,1.318,1.679h0a12.3,12.3,0,0,1,.144,1.781v.028C249.318,114.67,249.491,118.507,249.012,120.014Z" transform="translate(-190.724 -92.121)" fill="#fce15c"/>
    <path id="Tracé_2644" data-name="Tracé 2644" d="M294.918,84.223l1.075.178L294.1,86.8c-1.424,1.8-3.139,3.953-3.237,4.027a48.061,48.061,0,0,1-.636-5.034c-.129-1.321-.227-2.38-.227-2.38l1.908.318.343-1.5s-1.382.015-1.4-1.028a9.168,9.168,0,0,1,.142-1.63,22.652,22.652,0,0,1,.848-2.73,2.383,2.383,0,0,1,.765.025s.555.083.441-.1c.083.019,1.424.4,2.942.714-.282,1.348-.5,2.879-.526,3.038Z" transform="translate(-239.022 -67.638)" fill="#f2f1f7"/>
    <path id="Tracé_2645" data-name="Tracé 2645" d="M290.445,90.529a.1.1,0,0,1-.042-.011c-.1-.04-.187-.081-.687-5.121-.129-1.323-.227-2.383-.227-2.383a.112.112,0,0,1,.034-.087.108.108,0,0,1,.089-.028l1.814.3.295-1.272c-.534-.032-1.361-.293-1.376-1.128a9.279,9.279,0,0,1,.144-1.649,10.609,10.609,0,0,1,.521-1.787c.11-.316.227-.636.32-.956a.1.1,0,0,1,.085-.074,2.467,2.467,0,0,1,.8.025h0a1.372,1.372,0,0,0,.318.013.106.106,0,0,1,.021-.066.1.1,0,0,1,.11-.042l.089.025c1.009.276,1.969.509,2.849.689a.106.106,0,0,1,.083.125c-.233,1.113-.424,2.357-.521,3l-.536,3.633.971.163a.11.11,0,0,1,.083.066.108.108,0,0,1-.017.1l-1.891,2.4c-2.616,3.3-3.18,3.991-3.258,4.044A.129.129,0,0,1,290.445,90.529Zm-.731-7.4c.03.326.112,1.2.212,2.243.333,3.366.49,4.5.562,4.848.471-.557,2.359-2.936,3.116-3.892l1.781-2.253-.9-.15a.106.106,0,0,1-.087-.121l.551-3.737c.093-.636.278-1.817.5-2.906-.848-.178-1.764-.4-2.726-.663l-.011.013c-.1.11-.424.074-.54.053h0a2.332,2.332,0,0,0-.666-.036c-.089.3-.2.6-.3.9a10.708,10.708,0,0,0-.513,1.753,9.226,9.226,0,0,0-.14,1.611c.017.922,1.24.922,1.3.922a.14.14,0,0,1,.083.04.1.1,0,0,1,.021.089l-.346,1.5a.106.106,0,0,1-.121.081Z" transform="translate(-238.62 -67.24)" fill="#1f4076"/>
    <path id="Tracé_2646" data-name="Tracé 2646" d="M300.926,88.539c-.159,0-.5-.025-.623-.229s.335-.795.761-1.229a.106.106,0,1,1,.15.148,2.987,2.987,0,0,0-.729.977c.068.108.371.127.507.119a.106.106,0,0,1,.013.212Z" transform="translate(-247.124 -75.733)" fill="#1f4076"/>
    <ellipse id="Ellipse_233" data-name="Ellipse 233" cx="0.225" cy="0.119" rx="0.225" ry="0.119" transform="translate(53.078 11.23) rotate(-77.06)" fill="#1f4076"/>
    <ellipse id="Ellipse_234" data-name="Ellipse 234" cx="0.225" cy="0.119" rx="0.225" ry="0.119" transform="translate(54.745 11.7) rotate(-77.06)" fill="#1f4076"/>
    <path id="Tracé_2647" data-name="Tracé 2647" d="M295.587,70.852l.212-.424.157.5,1.314.39.373-.536-.04.727.691.072a17.722,17.722,0,0,0-1.253,5.267s3.909,1.079,4.922.379a29.876,29.876,0,0,1-1.06-5.6c.051-1.6-.044-2.968-1.946-3.7s-3.262-.5-4.267.367a2.94,2.94,0,0,0-.96,2.12S295.19,70.816,295.587,70.852Z" transform="translate(-241.962 -60.332)" fill="#f2f1f7"/>
    <path id="Tracé_2648" data-name="Tracé 2648" d="M300.43,77.2a17.6,17.6,0,0,1-3.777-.617.108.108,0,0,1-.078-.1,16.836,16.836,0,0,1,1.21-5.178l-.545-.055a.106.106,0,0,1-.1-.11l.019-.354-.151.225a.106.106,0,0,1-.119.045l-1.314-.39a.1.1,0,0,1-.07-.07l-.081-.256-.1.2a.112.112,0,0,1-.1.057c-.4-.038-1.817-.413-1.876-.424a.1.1,0,0,1-.078-.1,3.018,3.018,0,0,1,1-2.209c1.1-.956,2.569-1.085,4.377-.384,1.948.755,2.065,2.166,2.014,3.8a29.461,29.461,0,0,0,1.06,5.568.106.106,0,0,1-.04.117A2.463,2.463,0,0,1,300.43,77.2Zm-3.644-.8c.536.142,3.724.95,4.693.424a28.217,28.217,0,0,1-1.043-5.556c.051-1.6-.055-2.887-1.878-3.6-1.753-.68-3.116-.566-4.161.346a2.851,2.851,0,0,0-.922,1.965c.29.076,1.293.335,1.7.392l.187-.358a.106.106,0,0,1,.2.017l.14.447,1.185.352.32-.479a.106.106,0,0,1,.2.064l-.034.636.591.061a.1.1,0,0,1,.081.051.11.11,0,0,1,0,.093,18.2,18.2,0,0,0-1.244,5.151Z" transform="translate(-241.599 -59.965)" fill="#1f4076"/>
    <path id="Tracé_2649" data-name="Tracé 2649" d="M298.021,94.62a1.612,1.612,0,0,1-1.085-.553.106.106,0,0,1,.161-.138,1.406,1.406,0,0,0,.924.479h.013a1.14,1.14,0,0,0,.882-.532.106.106,0,0,1,.167.129,1.375,1.375,0,0,1-1.047.615Z" transform="translate(-244.467 -81.09)" fill="#1f4076"/>
    <path id="Tracé_2650" data-name="Tracé 2650" d="M299.382,101.342a4.258,4.258,0,0,0,1.556-.312,3.985,3.985,0,0,1-1.908,1.874Z" transform="translate(-246.138 -86.756)" fill="#1f4076"/>
    <path id="Tracé_2651" data-name="Tracé 2651" d="M298.612,102.615a.1.1,0,0,1-.07-.028.106.106,0,0,1-.032-.1l.358-1.562a.108.108,0,0,1,.1-.083,4.167,4.167,0,0,0,1.5-.3.108.108,0,0,1,.127.013.1.1,0,0,1,.023.123,4.045,4.045,0,0,1-1.976,1.929A.1.1,0,0,1,298.612,102.615Zm.445-1.566-.3,1.287a3.8,3.8,0,0,0,1.526-1.484,5.113,5.113,0,0,1-1.232.2Z" transform="translate(-245.726 -86.361)" fill="#1f4076"/>
    <path id="Tracé_2652" data-name="Tracé 2652" d="M286.807,139.936a39.917,39.917,0,0,1-5.4-.456.1.1,0,0,1-.089-.091l-.212-1.988a.106.106,0,0,1,.076-.114,52.323,52.323,0,0,1,5.895-1.329.121.121,0,0,0,.091-.042c.447-.424.447-3.156.409-4.169a.106.106,0,1,1,.212,0c.015.382.121,3.754-.475,4.328a.32.32,0,0,1-.252.1,45.407,45.407,0,0,0-5.736,1.3l.2,1.819c.653.1,5.155.752,7.595.254a.106.106,0,0,1,.125.083.1.1,0,0,1-.083.125,12.183,12.183,0,0,1-2.359.182Z" transform="translate(-232.014 -110.878)" fill="#1f4076"/>
    <path id="Tracé_2653" data-name="Tracé 2653" d="M294.943,120.327c-1.424,1.8-3.139,3.953-3.237,4.027a48.07,48.07,0,0,1-.636-5.034Z" transform="translate(-239.865 -101.169)" fill="#5c6f99"/>
    <path id="Tracé_2654" data-name="Tracé 2654" d="M291.294,124.081a.1.1,0,0,1-.042,0c-.1-.042-.187-.081-.685-5.121a.1.1,0,0,1,.036-.091.108.108,0,0,1,.1-.021l3.866,1.011a.11.11,0,0,1,.074.07.1.1,0,0,1-.019.1c-2.614,3.3-3.18,3.989-3.256,4.044A.127.127,0,0,1,291.294,124.081Zm-.494-4.992c.322,3.252.475,4.352.547,4.7.449-.532,2.2-2.741,3.016-3.765Z" transform="translate(-239.468 -100.794)" fill="#5c6f99"/>
    <path id="Tracé_2655" data-name="Tracé 2655" d="M265.328,158.795a7.37,7.37,0,0,0-2.709.235c-.839.392-1.713.882-1.52,1.2s4.621.53,4.621.53Z" transform="translate(-216.226 -132.252)" fill="#f2f1f7"/>
    <path id="Tracé_2656" data-name="Tracé 2656" d="M265.344,160.47h0c-1.348-.066-4.5-.252-4.706-.581a.3.3,0,0,1-.03-.244c.055-.18.28-.494,1.592-1.1a7.278,7.278,0,0,1,2.756-.244.1.1,0,0,1,.1.085l.392,1.961a.1.1,0,0,1-.1.127Zm-1.251-1.993a4.935,4.935,0,0,0-1.806.254c-1.2.56-1.441.848-1.484.975a.085.085,0,0,0,0,.072,22.57,22.57,0,0,0,4.4.473l-.348-1.749C264.731,158.492,264.441,158.477,264.093,158.477Z" transform="translate(-215.85 -131.858)" fill="#1f4076"/>
    <rect id="Rectangle_1414" data-name="Rectangle 1414" width="61.755" height="1.872" transform="translate(1.023 28.311)" fill="#f2f1f7"/>
    <path id="Tracé_2657" data-name="Tracé 2657" d="M115.691,168.834H53.936a.106.106,0,0,1-.106-.106v-1.872a.106.106,0,0,1,.106-.106h61.755a.106.106,0,0,1,.106.106v1.872A.106.106,0,0,1,115.691,168.834Zm-61.649-.212h61.543v-1.66H54.042Z" transform="translate(-52.913 -138.545)" fill="#1f4076"/>
    <path id="Tracé_2658" data-name="Tracé 2658" d="M138.04,140.646l2.113-7.056h8.867l-1.88,7Z" transform="translate(-119.273 -112.414)" fill="#f2f1f7"/>
    <path id="Tracé_2659" data-name="Tracé 2659" d="M137.611,140.358a.108.108,0,0,1-.085-.042.1.1,0,0,1-.015-.093l2.12-7.056a.106.106,0,0,1,.1-.076H148.6a.106.106,0,0,1,.083.042.1.1,0,0,1,.019.091l-1.882,6.995a.1.1,0,0,1-.1.078l-9.1.059ZM139.8,133.3l-2.048,6.844,8.875-.057,1.823-6.783Z" transform="translate(-118.852 -112.02)" fill="#1f4076"/>
    <path id="Tracé_2660" data-name="Tracé 2660" d="M241.1,201.735h-.028a.108.108,0,0,1-.083-.131,28.679,28.679,0,0,1,2.132-4.358.108.108,0,0,1,.146-.038.106.106,0,0,1,.036.144,30.135,30.135,0,0,0-2.12,4.307A.106.106,0,0,1,241.1,201.735Z" transform="translate(-200.397 -162.535)" fill="#fff"/>
    <ellipse id="Ellipse_235" data-name="Ellipse 235" cx="1.14" cy="0.75" rx="1.14" ry="0.75" transform="translate(23.199 24.523) rotate(-39.03)" fill="#fce15c" stroke="#5c6f99" stroke-width="0.3"/>
    <path id="Tracé_2661" data-name="Tracé 2661" d="M141.745,189a.112.112,0,0,1-.051-.013.106.106,0,0,1-.042-.144c1.781-3.243,4.354-8.294,4.155-8.9a.1.1,0,0,1,.068-.134.106.106,0,0,1,.134.068c.29.9-3.712,8.246-4.169,9.079A.1.1,0,0,1,141.745,189Z" transform="translate(-122.109 -148.833)" fill="#f2f1f7"/>
    <path id="Tracé_2662" data-name="Tracé 2662" d="M99.25,248.67a14.793,14.793,0,0,0-1.41,3.633h10.469s.356-.926-1.079-1.232-4.027-.911-4.28-1.38.248-1.022.248-1.022Z" transform="translate(-87.594 -203.101)" fill="#1f4076"/>
    <path id="Tracé_2663" data-name="Tracé 2663" d="M107.962,252.05H97.493a.093.093,0,0,1-.093-.093,14.472,14.472,0,0,1,1.42-3.678.091.091,0,0,1,.083-.049h3.949a.093.093,0,0,1,.085.055.1.1,0,0,1-.015.1s-.449.511-.235.916c.163.312,1.74.81,4.216,1.333a1.514,1.514,0,0,1,1.087.653.9.9,0,0,1,.059.7A.093.093,0,0,1,107.962,252.05Zm-10.372-.187h10.3a.71.71,0,0,0-.066-.49,1.346,1.346,0,0,0-.96-.557c-1.842-.39-4.093-.954-4.343-1.429a.969.969,0,0,1,.142-.971h-3.7A15.428,15.428,0,0,0,97.591,251.863Z" transform="translate(-87.247 -202.754)" fill="#1f4076"/>
  </g>
</svg>
