<svg id="_546_umrella_flatline" data-name="#546_umrella_flatline" xmlns="http://www.w3.org/2000/svg" width="56.221" height="53.546" viewBox="0 0 56.221 53.546">
  <path id="Tracé_2665" data-name="Tracé 2665" d="M226.641,227.206c.46,0,.922-.012,1.384-.021,2.044-.041,4.478.4,6.214-.9a6.5,6.5,0,0,1,1.982-1.243c.665-.207,1.384-.114,2.071-.257,3.041-.636,2.856-3.645,1.243-5.559-1.566-1.864-4-2.519-5.847-4.01-1.125-.909-2.7-.725-4-.725a15.834,15.834,0,0,0-9.735,3.353,9.309,9.309,0,0,0-2.643,2.467,14.221,14.221,0,0,0-1.806,4.366,2.486,2.486,0,0,0-.064,1.162,2.024,2.024,0,0,0,1.964,1.263C220.473,227.188,223.559,227.242,226.641,227.206Z" transform="translate(-184.553 -174.352)" fill="#5c6f99"/>
  <path id="Tracé_2666" data-name="Tracé 2666" d="M230.064,226.955c-.377,0-.756-.012-1.133-.023-.474-.015-.922-.027-1.357-.019s-.924.017-1.386.021h0c-2.68.029-5.619,0-9.252-.106a2.118,2.118,0,0,1-2.059-1.34,2.566,2.566,0,0,1,.062-1.212,14.5,14.5,0,0,1,1.818-4.4,7.566,7.566,0,0,1,2.156-2.111c.168-.122.34-.249.514-.383a15.85,15.85,0,0,1,9.8-3.374h.557a5.221,5.221,0,0,1,3.5.756,16.863,16.863,0,0,0,2.438,1.537,11.589,11.589,0,0,1,3.424,2.485,4.222,4.222,0,0,1,1.019,3.91,2.836,2.836,0,0,1-2.318,1.816,6.311,6.311,0,0,1-.938.1,4.92,4.92,0,0,0-1.125.153,5.125,5.125,0,0,0-1.605.963c-.116.089-.228.178-.344.265A6.086,6.086,0,0,1,230.064,226.955Zm-2.2-.251c.346,0,.7.01,1.067.021,1.7.05,3.455.1,4.787-.9.114-.085.226-.174.34-.261a3.912,3.912,0,0,1,2.838-1.16,6.3,6.3,0,0,0,.907-.1,2.672,2.672,0,0,0,2.164-1.682,4,4,0,0,0-.982-3.709,11.392,11.392,0,0,0-3.364-2.427,16.82,16.82,0,0,1-2.469-1.558,5.055,5.055,0,0,0-3.368-.71h-.667a15.668,15.668,0,0,0-9.569,3.333c-.174.135-.346.261-.516.385a7.371,7.371,0,0,0-2.1,2.055,14.219,14.219,0,0,0-1.792,4.333,2.415,2.415,0,0,0-.066,1.114,1.916,1.916,0,0,0,1.864,1.185c3.631.1,6.568.137,9.244.106h0c.462,0,.922-.012,1.384-.021Z" transform="translate(-184.1 -173.977)" fill="#1f4076"/>
  <path id="Tracé_2667" data-name="Tracé 2667" d="M110.514,190.951a42.146,42.146,0,0,0-12.734-2.359c-7.216-.128-14.084,2.369-20.712,5.48a29.857,29.857,0,0,0-7.342,4.492c-1.539,1.369-3.743,4.627-2.256,7.015a2.784,2.784,0,0,0,1.313,1.063c2.935,1.23,6.292.352,9.271-.093,8.674-1.3,17.638,2,26.17-.98.665-.232,1.471-.785,1.3-1.568-.133-.636-.864-.922-.98-1.564-.135-.746.621-1.259,1.243-1.479,4.2-1.471,8.941-1.3,12.6-4.118a1.744,1.744,0,0,0,.692-.868c.244-.868-.582-1.607-1.3-1.968A58.458,58.458,0,0,0,110.514,190.951Z" transform="translate(-66.868 -153.825)" fill="#fce15c"/>
  <path id="Tracé_2668" data-name="Tracé 2668" d="M71.82,206.941a8.933,8.933,0,0,1-3.5-.64,2.85,2.85,0,0,1-1.363-1.1,4.19,4.19,0,0,1-.014-3.985,9.7,9.7,0,0,1,2.291-3.163,30.07,30.07,0,0,1,7.367-4.507c5.944-2.792,13.061-5.63,20.764-5.491a42.083,42.083,0,0,1,12.765,2.365h0a58.619,58.619,0,0,1,7.278,3.059c.789.394,1.618,1.176,1.359,2.09a1.829,1.829,0,0,1-.729.922c-2.386,1.833-5.271,2.419-8.061,2.987a33.782,33.782,0,0,0-4.567,1.145c-.621.217-1.3.7-1.183,1.363a1.541,1.541,0,0,0,.466.742,1.756,1.756,0,0,1,.514.828c.176.828-.621,1.427-1.371,1.686-4.946,1.725-10.112,1.348-15.109.982a50.672,50.672,0,0,0-11.079,0c-.456.066-.92.145-1.39.224A27.422,27.422,0,0,1,71.82,206.941Zm25.006-18.686c-7.456,0-14.353,2.759-20.136,5.474a29.89,29.89,0,0,0-7.318,4.476,9.449,9.449,0,0,0-2.239,3.088,4.075,4.075,0,0,0,0,3.792,2.639,2.639,0,0,0,1.266,1.021c2.459,1.036,5.178.572,7.823.128.472-.079.936-.157,1.394-.226a50.194,50.194,0,0,1,11.124,0c4.971.365,10.122.741,15.027-.969.663-.232,1.384-.75,1.243-1.45a1.587,1.587,0,0,0-.464-.723,1.717,1.717,0,0,1-.516-.843c-.143-.787.621-1.353,1.317-1.595a35.152,35.152,0,0,1,4.594-1.154c2.767-.561,5.63-1.143,7.978-2.947a1.657,1.657,0,0,0,.655-.814c.224-.793-.534-1.491-1.253-1.85a59.137,59.137,0,0,0-7.249-3.049,42,42,0,0,0-12.7-2.353Z" transform="translate(-66.45 -153.396)" fill="#1f4076"/>
  <path id="Tracé_2669" data-name="Tracé 2669" d="M281.846,243.091a6.78,6.78,0,0,1-.893-.058.1.1,0,0,1-.087-.116.1.1,0,0,1,.116-.089,6.856,6.856,0,0,0,4.6-1.06.1.1,0,0,1,.112.174A7.123,7.123,0,0,1,281.846,243.091Z" transform="translate(-236.456 -195.98)" fill="#f2f1f7"/>
  <path id="Tracé_2670" data-name="Tracé 2670" d="M313.4,240.126a.1.1,0,0,1-.085-.046.1.1,0,0,1,.027-.145l1.272-.862a.106.106,0,0,1,.145.029.1.1,0,0,1-.029.143l-1.272.862a.1.1,0,0,1-.058.019Z" transform="translate(-262.173 -193.842)" fill="#f2f1f7"/>
  <path id="Tracé_2671" data-name="Tracé 2671" d="M255.659,261.954a.1.1,0,1,1-.027-.207,1.709,1.709,0,0,0,1.121-1.626.1.1,0,0,1,.106-.1.1.1,0,0,1,.1.1,1.889,1.889,0,0,1-1.274,1.825Z" transform="translate(-216.376 -210.462)" fill="#f2f1f7"/>
  <ellipse id="Ellipse_236" data-name="Ellipse 236" cx="13.765" cy="2.005" rx="13.765" ry="2.005" transform="translate(5.398 45.003)" fill="#baaa58"/>
  <path id="Tracé_2672" data-name="Tracé 2672" d="M178.546,21.554a.6.6,0,0,1,.039.122l.271,1.23-.3.064c-.3.066-.588.137-.878.207l-.265-1.255a.6.6,0,0,1,1.129-.377Z" transform="translate(-154.423 -21.105)" fill="#fff"/>
  <path id="Tracé_2673" data-name="Tracé 2673" d="M177.3,22.936a.1.1,0,0,1-.054-.014.112.112,0,0,1-.048-.066l-.261-1.257a.7.7,0,0,1,1.323-.441h0a.682.682,0,0,1,.048.143l.269,1.23a.1.1,0,0,1-.014.081.093.093,0,0,1-.066.043l-.271.058h-.023c-.294.064-.588.137-.872.207Zm.321-1.978a.553.553,0,0,0-.116.012.5.5,0,0,0-.36.584l.244,1.15c.255-.066.514-.13.777-.188h.021l.174-.039-.249-1.129a.509.509,0,0,0-.033-.1h0A.491.491,0,0,0,177.626,20.958Z" transform="translate(-154.045 -20.752)" fill="#1f4076"/>
  <path id="Tracé_2674" data-name="Tracé 2674" d="M99.226,43.708c.6,2.709,9.762,2.978,20.457.6s18.881-6.5,18.278-9.211-10.718-9.6-21.412-7.218S98.623,41,99.226,43.708Z" transform="translate(-92.41 -26.015)" fill="#fce15c"/>
  <path id="Tracé_2675" data-name="Tracé 2675" d="M106.269,45.647c-.34,0-.671,0-.994-.014-3.915-.114-6.238-.928-6.541-2.278-.609-2.738,6.646-13.562,17.4-15.948,10.892-2.436,20.946,4.586,21.54,7.282.621,2.809-7.44,6.907-18.357,9.335A62.5,62.5,0,0,1,106.269,45.647ZM98.937,43.3c.275,1.243,2.587,2.017,6.344,2.127a59.711,59.711,0,0,0,13.989-1.605c10.625-2.361,18.788-6.437,18.2-9.086-.288-1.3-2.933-3.687-6.864-5.445a23.562,23.562,0,0,0-14.428-1.7C105.533,29.96,98.346,40.61,98.937,43.3Z" transform="translate(-92.019 -25.628)" fill="#1f4076"/>
  <path id="Tracé_2676" data-name="Tracé 2676" d="M137.969,56.106c.588,2.645-7.2,6.638-17.522,9.039-.249.06-.5.116-.754.174l-.536.116c-10.466,2.249-19.333,1.945-19.925-.719S106.588,58,117.064,55.6l.445-.1.777-.17C128.648,53.144,137.38,53.463,137.969,56.106Z" transform="translate(-92.417 -47.022)" fill="#1f4076"/>
  <path id="Tracé_2677" data-name="Tracé 2677" d="M106.282,66.652c-4.325,0-7.206-.783-7.543-2.305-.621-2.746,7.249-6.8,17.91-9.231l.445-.1.779-.168c10.505-2.227,19.2-1.864,19.8.845s-7.129,6.729-17.605,9.163c-.249.06-.5.116-.754.172-.178.041-.358.079-.536.118A62.048,62.048,0,0,1,106.282,66.652ZM130.152,53.6a60.656,60.656,0,0,0-12.237,1.45l-.777.17c-.151.031-.3.066-.443.1-10.356,2.365-18.33,6.4-17.756,8.985s9.457,2.864,19.8.64l.534-.116q.379-.085.752-.174c10.186-2.367,18.019-6.367,17.446-8.906h0c-.313-1.421-3.136-2.144-7.322-2.144Z" transform="translate(-92.024 -46.63)" fill="#1f4076"/>
  <path id="Tracé_2678" data-name="Tracé 2678" d="M201.433,33.656a41.318,41.318,0,0,0-8.305.249,14.88,14.88,0,0,0-7.837-5.441C193.117,27.144,199.211,31.68,201.433,33.656Z" transform="translate(-160.676 -26.679)" fill="#f2f1f7"/>
  <path id="Tracé_2679" data-name="Tracé 2679" d="M192.739,33.612a.106.106,0,0,1-.085-.041,14.753,14.753,0,0,0-7.773-5.4.1.1,0,0,1-.081-.1.1.1,0,0,1,.085-.1c7.856-1.326,13.966,3.206,16.228,5.215a.106.106,0,0,1,.027.118.1.1,0,0,1-.106.062,41.212,41.212,0,0,0-8.285.251ZM185.382,28.1a15.089,15.089,0,0,1,7.4,5.3,42.993,42.993,0,0,1,7.951-.271C198.379,31.1,192.67,27.073,185.382,28.1Z" transform="translate(-160.287 -26.282)" fill="#1f4076"/>
  <path id="Tracé_2680" data-name="Tracé 2680" d="M129.686,31.45a15.284,15.284,0,0,0-4.372,8.078,43.48,43.48,0,0,0-7.844,3.289,17.624,17.624,0,0,1,2.485-4.671A18.336,18.336,0,0,1,129.686,31.45Z" transform="translate(-106.903 -29.234)" fill="#f2f1f7"/>
  <path id="Tracé_2681" data-name="Tracé 2681" d="M117.075,42.518a.108.108,0,0,1-.066-.023.1.1,0,0,1-.031-.114,17.518,17.518,0,0,1,2.485-4.7,18.339,18.339,0,0,1,9.8-6.731.1.1,0,0,1,.089.18,15.37,15.37,0,0,0-4.337,8.018.11.11,0,0,1-.068.077,43.538,43.538,0,0,0-7.827,3.281A.1.1,0,0,1,117.075,42.518ZM128.92,31.255a18.276,18.276,0,0,0-9.287,6.551,17.359,17.359,0,0,0-2.367,4.383,45.58,45.58,0,0,1,7.566-3.152,17.019,17.019,0,0,1,2.639-6.052,12.89,12.89,0,0,1,1.45-1.729Z" transform="translate(-106.507 -28.836)" fill="#1f4076"/>
  <path id="Tracé_2682" data-name="Tracé 2682" d="M192.552,94.422l.362-.1a3.456,3.456,0,0,1,1.036-.133h.066l-5.178-23.483-2.166-9.8c-.259.052-.516.11-.777.166l-.445.1L187.544,71l4.99,23.423Z" transform="translate(-160.803 -52.592)" fill="#f2f1f7"/>
  <path id="Tracé_2683" data-name="Tracé 2683" d="M192.166,94.135a.093.093,0,0,1-.052-.015.106.106,0,0,1-.05-.066L184.99,60.8a.1.1,0,0,1,.077-.122l.075-.017.375-.087.286-.062.491-.1a.1.1,0,0,1,.122.079l7.334,33.29a.1.1,0,0,1-.023.091.108.108,0,0,1-.089.033h-.06a3.287,3.287,0,0,0-1,.13l-.3.079-.052.014h-.021ZM185.2,60.859,192.239,93.9l.278-.072a3.842,3.842,0,0,1,.986-.141l-7.27-33.052-.387.083-.288.062Z" transform="translate(-160.436 -52.195)" fill="#1f4076"/>
  <path id="Tracé_2684" data-name="Tracé 2684" d="M155.31,167.767a.414.414,0,0,1-.319-.151l-16.642-20.209a.414.414,0,1,1,.64-.526l16.642,20.2a.414.414,0,0,1-.321.677Z" transform="translate(-123.383 -120.637)" fill="#1f4076"/>
  <path id="Tracé_2685" data-name="Tracé 2685" d="M137.516,202.386a.413.413,0,0,1-.338-.652l7.392-10.53a.415.415,0,1,1,.679.476l-7.394,10.526A.414.414,0,0,1,137.516,202.386Z" transform="translate(-122.469 -155.76)" fill="#1f4076"/>
  <path id="Tracé_2686" data-name="Tracé 2686" d="M103.372,140.75H92.91s-.044,7.653,3.54,11.76a12.59,12.59,0,0,0,9.61,4.155c1.342.046,5.99,0,5.99,0a9.658,9.658,0,0,1-6.28-5.321C103.684,146.875,103.372,140.75,103.372,140.75Z" transform="translate(-87.429 -115.896)" fill="#f2f1f7"/>
  <path id="Tracé_2687" data-name="Tracé 2687" d="M107.8,156.415c-.889,0-1.7,0-2.15-.019h-.145a12.606,12.606,0,0,1-9.54-4.184c-3.56-4.091-3.558-11.752-3.558-11.829a.106.106,0,0,1,.1-.1h10.462a.1.1,0,0,1,.1.1c0,.062.336,6.158,2.394,10.563a9.639,9.639,0,0,0,6.195,5.263.1.1,0,0,1,.083.11.106.106,0,0,1-.1.1C111.618,156.4,109.566,156.415,107.8,156.415ZM92.619,140.481c.012.924.22,7.815,3.5,11.6a12.419,12.419,0,0,0,9.391,4.111h.147c1.011.033,3.952.014,5.3,0a9.942,9.942,0,0,1-5.673-5.178,33.59,33.59,0,0,1-2.409-10.534Z" transform="translate(-87.033 -115.523)" fill="#1f4076"/>
  <path id="Tracé_2688" data-name="Tracé 2688" d="M146.11,205.1s3.333-.559,4.494-3.061h10.52a16.237,16.237,0,0,1-2.682,2.862c-.895.507-4.217.358-4.217.358S147.373,205.1,146.11,205.1Z" transform="translate(-129.611 -164.492)" fill="#f2f1f7"/>
  <path id="Tracé_2689" data-name="Tracé 2689" d="M154.91,204.988c-.592,0-1.036-.019-1.087-.023s-6.864-.157-8.111-.157a.1.1,0,0,1-.1-.1.1.1,0,0,1,.087-.11c.031,0,3.291-.582,4.418-3a.1.1,0,0,1,.093-.06h10.52a.1.1,0,0,1,.093.058.1.1,0,0,1-.01.108,15.9,15.9,0,0,1-2.713,2.889A8.843,8.843,0,0,1,154.91,204.988Zm-8.407-.379c2.191.031,7.268.149,7.326.151s3.314.141,4.165-.346a14.558,14.558,0,0,0,2.521-2.668H150.273A6.147,6.147,0,0,1,146.5,204.609Z" transform="translate(-129.213 -164.095)" fill="#1f4076"/>
  <path id="Tracé_2690" data-name="Tracé 2690" d="M107.688,172.437a.414.414,0,0,1-.319-.149l-16.634-20.2a.414.414,0,0,1,.632-.528l16.642,20.2a.414.414,0,0,1-.056.584A.427.427,0,0,1,107.688,172.437Z" transform="translate(-85.651 -124.375)" fill="#1f4076"/>
  <path id="Tracé_2691" data-name="Tracé 2691" d="M89.77,206.886a.417.417,0,0,1-.338-.654l7.392-10.53a.414.414,0,0,1,.679.474L90.112,206.71A.414.414,0,0,1,89.77,206.886Z" transform="translate(-84.612 -159.326)" fill="#1f4076"/>
  <path id="Tracé_2692" data-name="Tracé 2692" d="M253.918,183.662a4.544,4.544,0,0,1-4.544,4.538,4.62,4.62,0,0,1-.949-.1c-.11-.025-.217-.052-.325-.083a4.557,4.557,0,0,1-2.941-2.659,4.427,4.427,0,0,1-.232-.76,4.54,4.54,0,0,1,1.021-3.935c.05-.058.1-.114.153-.166a4.515,4.515,0,0,1,2.6-1.342,3.856,3.856,0,0,1,.493-.046h.178a4.544,4.544,0,0,1,3.826,2.09c.062.1.122.207.178.3A4.505,4.505,0,0,1,253.918,183.662Z" transform="translate(-207.881 -146.311)" fill="#fff"/>
  <path id="Tracé_2693" data-name="Tracé 2693" d="M249,187.963a4.724,4.724,0,0,1-.969-.1c-.114-.025-.224-.052-.333-.085a4.685,4.685,0,0,1-3-2.719,4.467,4.467,0,0,1-.238-.779,4.727,4.727,0,0,1-.1-.965,4.656,4.656,0,0,1,1.145-3.055c.052-.06.1-.116.157-.17a4.665,4.665,0,0,1,2.661-1.373,4.449,4.449,0,0,1,.505-.046h.18a4.637,4.637,0,0,1,3.906,2.139c.065.1.127.208.183.311a4.648,4.648,0,0,1-1.013,5.677,4.3,4.3,0,0,1-.609.46A4.638,4.638,0,0,1,249,187.963Zm0-9.09h-.174a4.068,4.068,0,0,0-.48.043,4.464,4.464,0,0,0-2.543,1.311q-.077.081-.149.162a4.441,4.441,0,0,0,2.1,7.185c.106.031.207.058.317.081a4.441,4.441,0,0,0,4.84-6.431c-.054-.1-.114-.207-.174-.3A4.43,4.43,0,0,0,249,178.873Z" transform="translate(-207.511 -145.962)" fill="#231f20"/>
  <path id="Tracé_2694" data-name="Tracé 2694" d="M248.826,187.248h0c-.027.023-.284.242-.661.574a41.362,41.362,0,0,0-3,2.879,4.429,4.429,0,0,1-.232-.76,4.54,4.54,0,0,1,1.021-3.935c.05-.058.1-.114.153-.166a5.986,5.986,0,0,1,2.218.984A4.859,4.859,0,0,1,248.826,187.248Z" transform="translate(-207.889 -151.647)" fill="#5c6f99"/>
  <path id="Tracé_2695" data-name="Tracé 2695" d="M244.765,190.439h-.017a.1.1,0,0,1-.079-.062,4.464,4.464,0,0,1-.238-.779,4.73,4.73,0,0,1-.1-.965,4.656,4.656,0,0,1,1.145-3.055c.052-.058.1-.116.157-.17a.1.1,0,0,1,.1-.029,6.135,6.135,0,0,1,2.258,1,5.368,5.368,0,0,1,.51.425.1.1,0,0,1,.012.135.091.091,0,0,1-.027.029c-.05.041-.3.253-.652.568a41.012,41.012,0,0,0-2.989,2.871A.106.106,0,0,1,244.765,190.439Zm.976-4.847-.108.118a4.439,4.439,0,0,0-1,3.844,3.965,3.965,0,0,0,.168.586c.872-.951,2.175-2.127,2.9-2.761.263-.232.466-.414.576-.5a4.811,4.811,0,0,0-.414-.329A5.877,5.877,0,0,0,245.74,185.593Z" transform="translate(-207.488 -151.28)" fill="#1f4076"/>
  <path id="Tracé_2696" data-name="Tracé 2696" d="M268.246,181.56c-.536-.052-.973.828-1.466.853a10.123,10.123,0,0,0-1.864.178,3.137,3.137,0,0,1-1.2-.168l-.046-1.063-.091-2.146a3.859,3.859,0,0,1,.493-.046h.178a4.544,4.544,0,0,1,3.826,2.09C268.13,181.355,268.19,181.457,268.246,181.56Z" transform="translate(-222.75 -146.358)" fill="#5c6f99"/>
  <path id="Tracé_2697" data-name="Tracé 2697" d="M264.242,182.317a3.763,3.763,0,0,1-1.021-.193.1.1,0,0,1-.07-.093L263,178.823a.106.106,0,0,1,.087-.108,4.529,4.529,0,0,1,.507-.046h.18a4.637,4.637,0,0,1,3.921,2.14c.064.1.126.207.182.311a.105.105,0,0,1,0,.108.116.116,0,0,1-.1.046c-.234-.025-.476.2-.71.414a1.3,1.3,0,0,1-.741.443,10.186,10.186,0,0,0-1.864.176A1.164,1.164,0,0,1,264.242,182.317Zm-.886-.369a2.814,2.814,0,0,0,1.077.145,10.38,10.38,0,0,1,1.891-.18c.193,0,.4-.193.609-.389a1.657,1.657,0,0,1,.69-.454l-.1-.157a4.441,4.441,0,0,0-3.912-2.036,3.05,3.05,0,0,0-.389.031Z" transform="translate(-222.29 -145.962)" fill="#1f4076"/>
  <path id="Tracé_2698" data-name="Tracé 2698" d="M269.064,191.732a4.569,4.569,0,0,1-2.127,3.85l-2.624-4.731-.383-.692h0l.207-.041a19.216,19.216,0,0,1,4.215-.828c.062.1.122.207.178.3a4.5,4.5,0,0,1,.534,2.137Z" transform="translate(-223.028 -154.38)" fill="#f2f1f7"/>
  <path id="Tracé_2699" data-name="Tracé 2699" d="M266.541,195.277h-.025a.1.1,0,0,1-.066-.05l-3.007-5.422a.106.106,0,0,1,.091-.155h.01l.17-.035a1.762,1.762,0,0,0,.178-.05,15.949,15.949,0,0,1,4.062-.791.1.1,0,0,1,.083.048c.064.1.126.207.182.311a4.648,4.648,0,0,1-1.013,5.677,4.3,4.3,0,0,1-.609.46A.1.1,0,0,1,266.541,195.277Zm-2.85-5.456,2.887,5.211a4.538,4.538,0,0,0,.491-.379,4.441,4.441,0,0,0,.967-5.42c-.046-.087-.1-.17-.145-.253a16.8,16.8,0,0,0-3.935.785l-.193.054Z" transform="translate(-222.632 -153.972)" fill="#1f4076"/>
  <path id="Tracé_2700" data-name="Tracé 2700" d="M249.2,192.64h0c0,.014-.015.075-.035.174h0c-.031.159-.081.414-.137.756a17.946,17.946,0,0,0-.222,5.263c-.11-.025-.217-.052-.325-.083a4.557,4.557,0,0,1-2.941-2.659,4.428,4.428,0,0,1-.232-.76,4.072,4.072,0,0,1,1.365-1.388,15.817,15.817,0,0,1,1.763-1A4.163,4.163,0,0,1,249.2,192.64Z" transform="translate(-208.265 -157.039)" fill="#f2f1f7"/>
  <path id="Tracé_2701" data-name="Tracé 2701" d="M248.433,198.544h-.023c-.112-.025-.222-.052-.331-.085a4.685,4.685,0,0,1-3-2.722,4.465,4.465,0,0,1-.238-.779.1.1,0,0,1,.01-.073,4.241,4.241,0,0,1,1.4-1.423,15.675,15.675,0,0,1,1.773-1.011,4.411,4.411,0,0,1,.791-.311.1.1,0,0,1,.085.023.1.1,0,0,1,.037.079h0a1.7,1.7,0,0,1-.037.195v.012c-.031.162-.081.414-.135.741a17.817,17.817,0,0,0-.222,5.228.106.106,0,0,1-.029.093A.108.108,0,0,1,248.433,198.544Zm-3.388-3.589a4.415,4.415,0,0,0,.207.7,4.472,4.472,0,0,0,2.875,2.6l.168.046a18.59,18.59,0,0,1,.249-5.145c.056-.333.106-.6.137-.758h0a5.857,5.857,0,0,0-.584.244,15.931,15.931,0,0,0-1.75,1A4.055,4.055,0,0,0,245.045,194.955Z" transform="translate(-207.889 -156.642)" fill="#1f4076"/>
  <path id="Tracé_2702" data-name="Tracé 2702" d="M264.565,197.767a4.511,4.511,0,0,1-3.014,1.137,4.619,4.619,0,0,1-.949-.1c-.11-.025-.217-.052-.325-.083a16.038,16.038,0,0,1-.056-2.79,11.829,11.829,0,0,1,.462-2.44,8.6,8.6,0,0,1,.311-.882h0s.06.046.166.135.29.249.5.441a10.866,10.866,0,0,1,1.91,2.278,10.127,10.127,0,0,1,1,2.3Z" transform="translate(-220.059 -157.015)" fill="#5c6f99"/>
  <path id="Tracé_2703" data-name="Tracé 2703" d="M261.158,198.666a4.725,4.725,0,0,1-.969-.1c-.114-.025-.224-.052-.333-.085a.1.1,0,0,1-.075-.089,16.435,16.435,0,0,1-.056-2.809,11.935,11.935,0,0,1,.466-2.461c.133-.441.253-.744.311-.886a.177.177,0,0,1,.027-.041.108.108,0,0,1,.139,0l.168.139c.081.068.257.217.5.445a10.859,10.859,0,0,1,1.939,2.295,10.236,10.236,0,0,1,1.007,2.316.106.106,0,0,1-.029.106,4.443,4.443,0,0,1-.611.46,4.637,4.637,0,0,1-2.483.712Zm-1.176-.367.249.062a4.48,4.48,0,0,0,.928.1,4.432,4.432,0,0,0,2.363-.681,4.317,4.317,0,0,0,.532-.394,10.129,10.129,0,0,0-.967-2.208,10.781,10.781,0,0,0-1.891-2.258c-.24-.224-.414-.371-.493-.437l-.056-.048c-.066.166-.157.414-.257.748a11.622,11.622,0,0,0-.458,2.417A15.951,15.951,0,0,0,259.981,198.3Z" transform="translate(-219.665 -156.664)" fill="#1f4076"/>
  <path id="Tracé_2704" data-name="Tracé 2704" d="M253.488,179.17a20.636,20.636,0,0,1-.269,2.2c-.06.356-.108.592-.108.592a6.118,6.118,0,0,0-.561-.36,8.308,8.308,0,0,0-2.309-.876c.05-.058.1-.114.153-.166a4.515,4.515,0,0,1,2.6-1.342,3.859,3.859,0,0,1,.493-.046Z" transform="translate(-212.174 -146.358)" fill="#f2f1f7"/>
  <path id="Tracé_2705" data-name="Tracé 2705" d="M252.732,181.667a.11.11,0,0,1-.06-.021,5.8,5.8,0,0,0-.551-.352,8.206,8.206,0,0,0-2.278-.868.1.1,0,0,1-.075-.068.1.1,0,0,1,.019-.1c.052-.058.1-.116.157-.17a4.664,4.664,0,0,1,2.661-1.373,4.449,4.449,0,0,1,.505-.046.108.108,0,0,1,.077.029.1.1,0,0,1,.029.079,20.9,20.9,0,0,1-.271,2.212c-.06.356-.108.592-.108.592a.1.1,0,0,1-.062.077A.12.12,0,0,1,252.732,181.667Zm-2.676-1.4a8.3,8.3,0,0,1,2.166.849c.151.085.3.176.439.271.019-.1.046-.251.075-.431.1-.588.224-1.41.263-2.071a2.391,2.391,0,0,0-.367.039,4.463,4.463,0,0,0-2.543,1.311Z" transform="translate(-211.795 -145.962)" fill="#1f4076"/>
  <ellipse id="Ellipse_237" data-name="Ellipse 237" cx="0.777" cy="0.777" rx="0.777" ry="0.777" transform="translate(40.16 35.001)" fill="#f2f1f7"/>
  <path id="Tracé_2706" data-name="Tracé 2706" d="M260.73,191a.88.88,0,1,1,.88-.88A.88.88,0,0,1,260.73,191Zm0-1.551a.673.673,0,1,0,.673.671A.673.673,0,0,0,260.73,189.449Z" transform="translate(-219.793 -154.343)" fill="#1f4076"/>
  <path id="Tracé_2707" data-name="Tracé 2707" d="M216.76,221.888a1.953,1.953,0,0,1,.58-.391,2.146,2.146,0,0,1,2.03,0" transform="translate(-185.628 -179.707)" fill="#fce15c"/>
  <path id="Tracé_2708" data-name="Tracé 2708" d="M216.369,221.6a.1.1,0,0,1-.072-.176,2.022,2.022,0,0,1,.621-.414l.077-.031a2.177,2.177,0,0,1,2.046.039.1.1,0,1,1-.11.176,1.973,1.973,0,0,0-1.864-.023l-.079.031a1.864,1.864,0,0,0-.543.369A.106.106,0,0,1,216.369,221.6Z" transform="translate(-185.237 -179.314)" fill="#1f4076"/>
  <path id="Tracé_2709" data-name="Tracé 2709" d="M221.557,262.939c-.135,0-.269,0-.4-.01a.1.1,0,0,1,0-.207,7.906,7.906,0,0,0,3.681-.706.1.1,0,0,1,.137.052.1.1,0,0,1-.05.137A8.146,8.146,0,0,1,221.557,262.939Z" transform="translate(-189.029 -212.038)" fill="#1f4076"/>
  <path id="Tracé_2710" data-name="Tracé 2710" d="M261.44,221.576a7.694,7.694,0,0,1,3.714-.872,6.972,6.972,0,0,1,1.831.532" transform="translate(-221.054 -179.272)" fill="#fce15c"/>
  <path id="Tracé_2711" data-name="Tracé 2711" d="M261.043,221.268a.106.106,0,0,1-.1-.064.1.1,0,0,1,.056-.137,7.769,7.769,0,0,1,3.763-.876,7.059,7.059,0,0,1,1.864.539.1.1,0,0,1-.079.193,6.836,6.836,0,0,0-1.8-.526,7.6,7.6,0,0,0-3.662.864A.12.12,0,0,1,261.043,221.268Z" transform="translate(-220.657 -178.864)" fill="#1f4076"/>
  <path id="Tracé_2712" data-name="Tracé 2712" d="M292.268,252.416h-.139a.1.1,0,0,1-.1-.108.108.108,0,0,1,.108-.1,3.714,3.714,0,0,0,2.278-.688,6.361,6.361,0,0,0,.574-.47,3.935,3.935,0,0,1,1.27-.841,3.813,3.813,0,0,1,.9-.149,5.272,5.272,0,0,0,.667-.079,2.461,2.461,0,0,0,1.8-1.752.107.107,0,1,1,.207.052,2.678,2.678,0,0,1-1.959,1.9,5.084,5.084,0,0,1-.679.089,3.754,3.754,0,0,0-.847.141,3.643,3.643,0,0,0-1.218.789,7.389,7.389,0,0,1-.59.483A3.935,3.935,0,0,1,292.268,252.416Z" transform="translate(-245.308 -201.051)" fill="#f2f1f7"/>
</svg>
