<svg xmlns="http://www.w3.org/2000/svg" width="73.726" height="45.593" viewBox="0 0 73.726 45.593">
  <g id="_414_restaurant_flatline" data-name="#414_restaurant_flatline" transform="translate(-54.49 -60.024)">
    <path id="Tracé_3290" data-name="Tracé 3290" d="M173.7,113.635s1.284-5.041,1.571-4.755a2.89,2.89,0,0,1,.048,2.331s2.28-3.471,2.756-3.04,1.52,1.378,1.381,2.186a36.99,36.99,0,0,1-2.556,4.755Z" transform="translate(-89.011 -35.923)" fill="#f2f1f7"/>
    <path id="Tracé_3291" data-name="Tracé 3291" d="M176.46,114.839a.142.142,0,0,1-.063,0l-3.2-1.474a.152.152,0,0,1-.084-.175c.8-3.154,1.355-4.793,1.639-4.871a.188.188,0,0,1,.182.048,2.372,2.372,0,0,1,.271,1.682c.651-.935,1.756-2.4,2.28-2.472a.3.3,0,0,1,.253.071c.474.428,1.583,1.429,1.426,2.326a36.668,36.668,0,0,1-2.574,4.813.152.152,0,0,1-.134.053Zm-3.022-1.707L176.4,114.5a33.157,33.157,0,0,0,2.465-4.588c.129-.735-.932-1.69-1.33-2.049h-.018c-.286,0-1.426,1.358-2.516,3.015a.149.149,0,0,1-.266-.134,3.238,3.238,0,0,0,.061-2.06A33.778,33.778,0,0,0,173.438,113.132Z" transform="translate(-88.572 -35.503)" fill="#1f4076"/>
    <path id="Tracé_3292" data-name="Tracé 3292" d="M72.15,212.044,72.5,216.9H91.041l-3.709-6.706Z" transform="translate(-13.186 -112.125)" fill="#fce15c"/>
    <path id="Tracé_3293" data-name="Tracé 3293" d="M90.674,216.646H72.13a.129.129,0,0,1-.127-.119l-.345-4.849a.129.129,0,0,1,.109-.137l15.177-1.854a.124.124,0,0,1,.127.066l3.709,6.7a.127.127,0,0,1,0,.127.132.132,0,0,1-.106.063Zm-18.424-.253H90.461L86.9,209.95,71.92,211.792Z" transform="translate(-12.819 -111.749)" fill="#fce15c"/>
    <path id="Tracé_3294" data-name="Tracé 3294" d="M120.6,123.31l7.6,9.219,4.322-6.764,3.8,2.472s-3.716,11.336-6.893,11.509S120,133.111,120,133.111Z" transform="translate(-48.915 -47.254)" fill="#5c6f99"/>
    <line id="Ligne_114" data-name="Ligne 114" y1="11.694" x2="6.217" transform="translate(118.934 92.053)" fill="#fff"/>
    <path id="Tracé_3295" data-name="Tracé 3295" d="M308.5,197.908a.132.132,0,0,1-.061-.013.129.129,0,0,1-.053-.172l6.224-11.694a.124.124,0,0,1,.17-.053.127.127,0,0,1,.053.172l-6.217,11.694A.127.127,0,0,1,308.5,197.908Z" transform="translate(-189.568 -94.034)" fill="#231f20"/>
    <path id="Tracé_3296" data-name="Tracé 3296" d="M294.359,188.864s2.014,7.8,2.384,9.761l-15.453-.481.783-12.413Z" transform="translate(-169.346 -93.862)" fill="#fce15c"/>
    <path id="Tracé_3297" data-name="Tracé 3297" d="M245.681,124s-3.547,9.525-4.089,9.7-8.147-1.1-8.806-1.125-3.2,1.91-3.2,1.91,11.167,6.125,14.571,4.54,4.144-1.895,4.144-1.895S246.667,124,245.681,124Z" transform="translate(-130.743 -47.77)" fill="#f2f1f7"/>
    <path id="Tracé_3298" data-name="Tracé 3298" d="M242.268,139.027c-4.35,0-12.79-4.6-13.193-4.813a.149.149,0,0,1-.018-.253c.253-.2,2.571-1.938,3.278-1.938h0c.253,0,1.325.17,2.7.375,2.143.322,5.728.856,6.06.76.41-.284,2.67-6.047,3.995-9.609a.157.157,0,0,1,.149-.1c.253,0,.76.084,1.824,6.69.524,3.248.937,6.541.94,6.587a.152.152,0,0,1-.091.157s-.783.329-4.139,1.892a3.628,3.628,0,0,1-1.5.251Zm-12.844-4.973c1.535.818,11.179,5.844,14.229,4.426,2.711-1.267,3.744-1.72,4.053-1.852-.737-5.887-1.8-12.048-2.384-12.813-1.107,2.969-3.574,9.444-4.122,9.626a44.62,44.62,0,0,1-6.194-.745c-1.31-.2-2.437-.365-2.66-.372h0A10.432,10.432,0,0,0,229.425,134.054Z" transform="translate(-130.299 -47.359)" fill="#1f4076"/>
    <path id="Tracé_3299" data-name="Tracé 3299" d="M276.3,66.232c.046-.073.089-.144.137-.218a4.721,4.721,0,0,1,7.01-.844,1.852,1.852,0,0,0,.509.347,3.126,3.126,0,0,0,.709.091,2.981,2.981,0,0,1,1.877,1.55c1.348,2.044,1.588,5.426,1.588,7.828a8.659,8.659,0,0,1-1.6,5.295c-1.634,2.105-4.41,2.994-7.065,3.217-2.941.253-6.217-.334-8.094-2.609a3.677,3.677,0,0,1-.851-3.448,8.767,8.767,0,0,1,2.027-2.488C274.653,72.562,274.661,68.955,276.3,66.232Z" transform="translate(-161.189 -2.967)" fill="#f2f1f7"/>
    <path id="Tracé_3300" data-name="Tracé 3300" d="M277.769,83.271c-3.017,0-5.512-.965-6.961-2.721a3.84,3.84,0,0,1-.874-3.592,5.156,5.156,0,0,1,1.4-1.864c.22-.215.448-.441.654-.671a12.233,12.233,0,0,0,2.2-4.783,16.935,16.935,0,0,1,1.535-3.919h0q.063-.111.137-.22a4.512,4.512,0,0,1,3.146-2.027,5.183,5.183,0,0,1,4.086,1.15l.061.048a1.376,1.376,0,0,0,.4.271,1.411,1.411,0,0,0,.423.063,1.049,1.049,0,0,1,.253.02,3.118,3.118,0,0,1,1.984,1.616c1.072,1.629,1.614,4.289,1.611,7.911A8.837,8.837,0,0,1,286.2,79.94c-1.829,2.364-4.909,3.086-7.169,3.276C278.6,83.254,278.187,83.271,277.769,83.271Zm-1.788-17.4a16.756,16.756,0,0,0-1.5,3.851,12.444,12.444,0,0,1-2.262,4.894c-.21.238-.443.466-.666.689a4.928,4.928,0,0,0-1.332,1.753,3.526,3.526,0,0,0,.823,3.293c1.583,1.918,4.486,2.852,7.967,2.559,2.2-.187,5.2-.887,6.959-3.162a8.573,8.573,0,0,0,1.568-5.206c0-3.562-.524-6.166-1.563-7.744a2.891,2.891,0,0,0-1.773-1.484,1.022,1.022,0,0,1-.23-.018,1.647,1.647,0,0,1-.507-.081,1.667,1.667,0,0,1-.491-.322l-.058-.048a4.9,4.9,0,0,0-3.851-1.087,4.223,4.223,0,0,0-2.941,1.895c-.046.071-.089.142-.132.213Z" transform="translate(-160.743 -2.534)" fill="#1f4076"/>
    <path id="Tracé_3301" data-name="Tracé 3301" d="M284.385,136.407s-.284-7.6.046-13.452c.185-3.276,1.224-4.03,2.08-5.528,1.578-2.761,9.163-3.151,12.294-.1s-2.219,18.865-2.219,18.865Z" transform="translate(-171.572 -41.195)" fill="#fce15c"/>
    <path id="Tracé_3302" data-name="Tracé 3302" d="M295.639,88.023l-.307,3.334.932,4.6,4.4-5.163c.167-2.984.385-5.961.431-8.945a.281.281,0,0,0-.043-.187.271.271,0,0,0-.253-.051l-.874.1-.086-1.652a4.959,4.959,0,0,0-.575.874l-2.445-.213-.286-1.482a1.346,1.346,0,0,0-.223.775c-.033.274-.144.585-.41.659a.8.8,0,0,1-.362-.015L293.7,80.3c-.018,0-.332,4.978-.309,5.393C293.483,87.44,295.639,88.023,295.639,88.023Z" transform="translate(-178.377 -14.348)" fill="#f2f1f7"/>
    <path id="Tracé_3303" data-name="Tracé 3303" d="M295.835,95.661H295.8a.147.147,0,0,1-.109-.117l-.932-4.6a.247.247,0,0,1,0-.043l.294-3.212c-.474-.157-2.151-.823-2.239-2.432,0-.051.233-5.409.36-5.517a.152.152,0,0,1,.127-.033l1.842.357a.7.7,0,0,0,.3.018c.225-.063.286-.423.3-.532l.013-.114A1.216,1.216,0,0,1,296,78.7a.144.144,0,0,1,.149-.043.147.147,0,0,1,.106.117l.266,1.37,2.232.2a4.858,4.858,0,0,1,.547-.813.149.149,0,0,1,.162-.046.157.157,0,0,1,.1.134l.074,1.492.717-.086a.423.423,0,0,1,.388.1.415.415,0,0,1,.076.286c-.033,2.28-.172,4.6-.307,6.84q-.066,1.054-.124,2.105a.137.137,0,0,1-.036.091l-4.405,5.165A.144.144,0,0,1,295.835,95.661Zm-.78-4.765.866,4.274,4.167-4.889c.038-.687.079-1.37.122-2.057.132-2.239.271-4.56.307-6.84a.074.074,0,1,0-.119-.089l-.877.106a.148.148,0,0,1-.17-.142l-.063-1.239a4.541,4.541,0,0,0-.312.524.149.149,0,0,1-.147.081l-2.445-.215a.147.147,0,0,1-.134-.122l-.187-.963a.448.448,0,0,1-.013.129l-.013.117a.848.848,0,0,1-.507.785.914.914,0,0,1-.433,0l-1.68-.329c-.066.856-.309,4.861-.291,5.206.089,1.619,2.12,2.191,2.141,2.2a.152.152,0,0,1,.111.16Z" transform="translate(-177.947 -13.905)" fill="#1f4076"/>
    <path id="Tracé_3304" data-name="Tracé 3304" d="M317.678,95.956a1.74,1.74,0,0,1,1.915-1.039c.953.253.836,1.338.464,2.027a1.773,1.773,0,0,1-2.427.684" transform="translate(-196.48 -26.033)" fill="#f2f1f7"/>
    <path id="Tracé_3305" data-name="Tracé 3305" d="M318.14,97.6a1.913,1.913,0,0,1-.953-.253.149.149,0,0,1,.149-.253,1.616,1.616,0,0,0,2.219-.626,1.7,1.7,0,0,0,.177-1.358.76.76,0,0,0-.545-.436,1.6,1.6,0,0,0-1.738.935.151.151,0,0,1-.284-.1,1.9,1.9,0,0,1,2.1-1.125,1.067,1.067,0,0,1,.76.608,1.982,1.982,0,0,1-.19,1.621,1.928,1.928,0,0,1-1.16.922A1.9,1.9,0,0,1,318.14,97.6Z" transform="translate(-196.111 -25.632)" fill="#1f4076"/>
    <path id="Tracé_3306" data-name="Tracé 3306" d="M299.934,91s-1.4,1.573-1.163,1.913,1.034.253,1.034.253" transform="translate(-182.378 -23.129)" fill="#f2f1f7"/>
    <path id="Tracé_3307" data-name="Tracé 3307" d="M299.18,92.9a1.129,1.129,0,0,1-.912-.322c-.253-.38.623-1.479,1.173-2.1a.154.154,0,0,1,.213,0,.152.152,0,0,1,.013.213,4.675,4.675,0,0,0-1.15,1.733c.132.187.616.208.892.177a.149.149,0,1,1,.035.3A1.959,1.959,0,0,1,299.18,92.9Z" transform="translate(-181.989 -22.706)" fill="#1f4076"/>
    <path id="Tracé_3308" data-name="Tracé 3308" d="M302.427,112.482a3.842,3.842,0,0,0,2.7-.512,3.137,3.137,0,0,1-2.847,2.3Z" transform="translate(-185.018 -38.787)" fill="#5c6f99"/>
    <path id="Tracé_3309" data-name="Tracé 3309" d="M301.145,113.989a.132.132,0,0,1-.1-.048.154.154,0,0,1-.044-.109l.149-1.8a.161.161,0,0,1,.057-.111.125.125,0,0,1,.115-.02,3.375,3.375,0,0,0,2.481-.479.126.126,0,0,1,.152.018.162.162,0,0,1,.041.165c0,.023-.767,2.391-2.86,2.394Zm.271-1.773-.122,1.467a2.879,2.879,0,0,0,2.3-1.826,3.622,3.622,0,0,1-2.176.362Z" transform="translate(-183.754 -38.362)" fill="#5c6f99"/>
    <ellipse id="Ellipse_349" data-name="Ellipse 349" cx="0.529" cy="0.233" rx="0.529" ry="0.233" transform="matrix(0.003, -1, 1, 0.003, 119.048, 68.614)" fill="#1f4076"/>
    <ellipse id="Ellipse_350" data-name="Ellipse 350" cx="0.529" cy="0.233" rx="0.529" ry="0.233" transform="translate(116.024 68.382) rotate(-86.78)" fill="#1f4076"/>
    <path id="Tracé_3310" data-name="Tracé 3310" d="M299.919,100.02a3.412,3.412,0,0,1-1.089-.21.83.83,0,0,0-.127-.041.155.155,0,0,1-.127-.172.149.149,0,0,1,.167-.127,1.58,1.58,0,0,1,.182.053,1.833,1.833,0,0,0,2.533-.874.151.151,0,0,1,.271.132A1.918,1.918,0,0,1,299.919,100.02Z" transform="translate(-182.252 -28.778)" fill="#1f4076"/>
    <path id="Tracé_3311" data-name="Tracé 3311" d="M272.75,126.062c-.479,4.01-2.931,13.442-6.333,12.7s-10.6-6.528-10.784-6.713-2.7-.828-3.139-1.616a10.924,10.924,0,0,1-.56-3.1s-2.445-1.429-2.4-1.946,4.9,1.773,5.307,1.978c0,0,.418-1.241.988-.912s.826,2.457,1.619,2.814,8.281,3.886,8.281,3.886,1.226-7.481,3.509-10.049C270.346,121.859,273.229,122.052,272.75,126.062Z" transform="translate(-145.637 -46.597)" fill="#f2f1f7"/>
    <path id="Tracé_3312" data-name="Tracé 3312" d="M266.328,138.529a2.053,2.053,0,0,1-.41-.043c-3.438-.747-10.586-6.478-10.858-6.754a5.659,5.659,0,0,0-.628-.253c-.877-.317-2.2-.8-2.533-1.4a10.337,10.337,0,0,1-.58-3.08c-.793-.466-2.452-1.52-2.4-2.047a.218.218,0,0,1,.117-.175c.535-.289,4.433,1.56,5.257,1.958.109-.253.35-.745.7-.877a.507.507,0,0,1,.451.041,2.576,2.576,0,0,1,.724,1.294c.218.6.507,1.345.882,1.52.717.324,6.959,3.263,8.106,3.8.215-1.224,1.406-7.559,3.511-9.928a2.2,2.2,0,0,1,2.478-.562c1.049.471,1.52,1.794,1.3,3.628-.367,3.08-2.087,10.483-4.8,12.413A2.26,2.26,0,0,1,266.328,138.529Zm-17.1-13.49a8.076,8.076,0,0,0,2.313,1.743.15.15,0,0,1,.073.122,11.081,11.081,0,0,0,.55,3.04c.279.507,1.591.978,2.376,1.267a2.62,2.62,0,0,1,.735.309c.291.286,7.422,5.958,10.708,6.67a1.824,1.824,0,0,0,1.477-.367c2.485-1.773,4.271-8.826,4.676-12.208.2-1.695-.21-2.906-1.127-3.319a1.885,1.885,0,0,0-2.13.489c-2.227,2.505-3.46,9.9-3.473,9.971a.142.142,0,0,1-.079.109.147.147,0,0,1-.134,0c-.073-.035-7.493-3.529-8.276-3.883-.491-.223-.76-.965-1.039-1.682a2.751,2.751,0,0,0-.593-1.14.215.215,0,0,0-.2-.02c-.253.091-.484.57-.578.851a.16.16,0,0,1-.086.091.157.157,0,0,1-.127,0,30.011,30.011,0,0,0-5.067-2.039Z" transform="translate(-145.172 -46.169)" fill="#1f4076"/>
    <path id="Tracé_3313" data-name="Tracé 3313" d="M223.783,111.307l6.771-3.742-5.492-15.3L219,96.678Z" transform="translate(-122.835 -24.078)" fill="#f2f1f7"/>
    <path id="Tracé_3314" data-name="Tracé 3314" d="M223.343,111.031a.145.145,0,0,1-.056,0,.147.147,0,0,1-.086-.091l-4.783-14.63a.152.152,0,0,1,.056-.17l6.06-4.408a.149.149,0,0,1,.231.071l5.492,15.3a.152.152,0,0,1-.068.182l-6.771,3.742a.149.149,0,0,1-.073.008Zm-4.605-14.718,4.692,14.353,6.5-3.595-5.381-14.987Z" transform="translate(-122.396 -23.654)" fill="#5c6f99"/>
    <path id="Tracé_3315" data-name="Tracé 3315" d="M228.5,115.2h-.033a.1.1,0,0,1-.056-.061l-4.147-12.712a.1.1,0,0,1,.035-.109l4.1-2.852a.109.109,0,0,1,.084-.013.1.1,0,0,1,.061.058l4.707,12.8a.1.1,0,0,1-.041.114l-4.666,2.759A.1.1,0,0,1,228.5,115.2Zm-4.03-12.765,4.084,12.53,4.507-2.657-4.638-12.616Z" transform="translate(-126.764 -29.436)" fill="#5c6f99"/>
    <path id="Tracé_3316" data-name="Tracé 3316" d="M210.544,119.043l-4.185-1.026L201.27,102.63l4.491,1.783Z" transform="translate(-109.597 -31.813)" fill="#f2f1f7"/>
    <path id="Tracé_3317" data-name="Tracé 3317" d="M210.1,118.787h-.035l-4.185-1.013a.149.149,0,0,1-.106-.1l-5.092-15.387a.152.152,0,0,1,.041-.157.155.155,0,0,1,.16-.03l4.491,1.773a.154.154,0,0,1,.089.094l4.78,14.63a.155.155,0,0,1-.03.149A.157.157,0,0,1,210.1,118.787Zm-4.068-1.3,3.845.945L205.2,104.124l-4.129-1.639Z" transform="translate(-109.15 -31.41)" fill="#5c6f99"/>
    <path id="Tracé_3318" data-name="Tracé 3318" d="M233.643,151.487a.415.415,0,0,1,.377.342c.013.2-.172.357-.339.474l-1.122.793a5.322,5.322,0,0,1,1.315-.542,1.084,1.084,0,0,1,.6-.028.423.423,0,0,1,.307.459.585.585,0,0,1-.253.307,4.243,4.243,0,0,1-1.3.661,2.142,2.142,0,0,0,.717-.329,1.54,1.54,0,0,1,.732-.274.583.583,0,0,1,.6.413c.061.314-.236.585-.535.7a2.9,2.9,0,0,0-.874.372,2.612,2.612,0,0,1,1.054-.481.375.375,0,0,1,.339.038.3.3,0,0,1-.051.426,1.5,1.5,0,0,1-.441.208c-.839.347-1.226,1.52-2.13,1.614-1.332.132-2.166-2.049-2.027-3.136S232.632,151.356,233.643,151.487Z" transform="translate(-131.489 -68.285)" fill="#f2f1f7"/>
    <path id="Tracé_3319" data-name="Tracé 3319" d="M232.1,156.375a1.538,1.538,0,0,1-1.1-.522,3.9,3.9,0,0,1-.952-2.787c.157-1.165,2.07-2.28,3.207-2.148h0a.565.565,0,0,1,.507.484.73.73,0,0,1-.4.605h0l.068-.018a1.175,1.175,0,0,1,.681-.025.572.572,0,0,1,.405.633.537.537,0,0,1-.094.2.7.7,0,0,1,.6.522.643.643,0,0,1-.134.507.342.342,0,0,1,.177.317.507.507,0,0,1-.172.375,1.128,1.128,0,0,1-.362.187l-.119.043a2.673,2.673,0,0,0-.882.76,2.1,2.1,0,0,1-1.292.877Zm.945-5.173c-1,0-2.576.975-2.7,1.9a3.607,3.607,0,0,0,.869,2.533,1.2,1.2,0,0,0,.985.426,1.852,1.852,0,0,0,1.1-.778,2.914,2.914,0,0,1,.993-.826l.129-.051a.829.829,0,0,0,.269-.129.225.225,0,0,0,.071-.149.068.068,0,0,0-.018-.051.187.187,0,0,0-.137-.018,1.186,1.186,0,0,1-.218.114c-.094.035-.19.066-.289.1a2.279,2.279,0,0,0-.431.17l-.119.086a.149.149,0,0,1-.19-.231.972.972,0,0,1,.15-.109,2.787,2.787,0,0,1,.973-.41h0a.451.451,0,0,0,.228-.418.438.438,0,0,0-.448-.291.9.9,0,0,0-.253.051,4.128,4.128,0,0,1-.737.4,1.4,1.4,0,0,1-.433.155.15.15,0,0,1-.068-.291,3.654,3.654,0,0,0,.375-.134c.086-.046.17-.1.253-.149l.051-.03a2.939,2.939,0,0,1,.418-.213l.157-.111a.466.466,0,0,0,.19-.22c.028-.111-.086-.241-.205-.279a.917.917,0,0,0-.507.03,5.066,5.066,0,0,0-1.267.527.152.152,0,0,1-.2-.051.149.149,0,0,1,.041-.2l1.122-.793c.139-.1.284-.218.274-.342s-.132-.187-.253-.2h0A1.245,1.245,0,0,0,233.04,151.2Z" transform="translate(-131.075 -67.861)" fill="#1f4076"/>
    <path id="Tracé_3320" data-name="Tracé 3320" d="M321.044,101.86l-.9,2.186,1.664.144Z" transform="translate(-198.354 -31.238)" fill="#1f4076"/>
    <path id="Tracé_3321" data-name="Tracé 3321" d="M321.4,103.877h0l-1.664-.144a.139.139,0,0,1-.114-.071.15.15,0,0,1-.013-.134l.9-2.189a.149.149,0,0,1,.281,0l.76,2.331a.152.152,0,0,1-.144.2Zm-1.446-.418,1.234.106-.565-1.728Z" transform="translate(-197.95 -30.775)" fill="#1f4076"/>
    <path id="Tracé_3322" data-name="Tracé 3322" d="M66.526,113.422s-7.562,1.631-8.157,4.466,1.745,21.51,2.946,23.572l16.649.043s-2.239-17.176-2.412-20.013-.6-5.32-1.031-5.753S67.9,112.308,66.526,113.422Z" transform="translate(-2.825 -39.687)" fill="#5c6f99"/>
    <path id="Tracé_3323" data-name="Tracé 3323" d="M87.65,120.43c.129.413,6.049,14.186,6.049,14.186l-1.094-12.522Z" transform="translate(-24.76 -45.104)" fill="#1f4076"/>
    <path id="Tracé_3324" data-name="Tracé 3324" d="M93.33,134.381a.124.124,0,0,1-.117-.076c-.241-.562-5.925-13.776-6.052-14.186a.124.124,0,0,1,.03-.127.129.129,0,0,1,.129-.03l4.955,1.657a.127.127,0,0,1,.086.109l1.087,12.517a.129.129,0,0,1-.1.134Zm-5.827-14.1c.59,1.441,3.711,8.717,5.637,13.2l-1.013-11.653Z" transform="translate(-24.391 -44.75)" fill="#1f4076"/>
    <path id="Tracé_3325" data-name="Tracé 3325" d="M80.065,73.389a2.376,2.376,0,0,1-1.267-.106.76.76,0,0,1-.357-.253.327.327,0,0,1,0-.405c.17-.17.537-.051.648-.253a6.61,6.61,0,0,1-1.444-4.593,6.044,6.044,0,0,1,.542-2.409c.117-.253.958-1.915,1.295-1.839l-1.73-.4L79.8,62.6a2.889,2.889,0,0,1,1.685-.094l-1.892-.7a8.314,8.314,0,0,1,6.961-.058L85.71,60.52a4.94,4.94,0,0,1,3.265,1.946,4.306,4.306,0,0,1,.651,3.714,2.7,2.7,0,0,1-1.163,1.588c-.631.322-1.345.253-1.92.76-.618.529-1.069,1.348-1.639,1.951a7.952,7.952,0,0,1-3.25,2.13c-.461.152-.583.385-.988.588A2.341,2.341,0,0,1,80.065,73.389Z" transform="translate(-17.289 -0.371)" fill="#f2f1f7"/>
    <path id="Tracé_3326" data-name="Tracé 3326" d="M79.234,73.191a2.409,2.409,0,0,1-.866-.16.854.854,0,0,1-.418-.284.451.451,0,0,1,.02-.567.656.656,0,0,1,.39-.149.761.761,0,0,0,.172-.035,6.88,6.88,0,0,1-1.4-4.585,6.184,6.184,0,0,1,.555-2.46,7.313,7.313,0,0,1,1.069-1.733l-1.406-.327a.127.127,0,1,1,0-.253l2.027-.524a6.08,6.08,0,0,1,.811-.172l-1.028-.377a.127.127,0,0,1-.084-.111.132.132,0,0,1,.073-.122,8.413,8.413,0,0,1,6.665-.231l-.6-.877a.127.127,0,0,1,.124-.2,5.044,5.044,0,0,1,3.352,2,4.456,4.456,0,0,1,.669,3.82,2.827,2.827,0,0,1-1.229,1.664,3.653,3.653,0,0,1-.823.274,2.437,2.437,0,0,0-1.072.461,6.961,6.961,0,0,0-.942,1.092,9.807,9.807,0,0,1-.684.849,8.066,8.066,0,0,1-3.293,2.163,1.755,1.755,0,0,0-.545.307,2.532,2.532,0,0,1-.436.284,2.363,2.363,0,0,1-.633.213h0A2.5,2.5,0,0,1,79.234,73.191Zm-.162-9.905c-.208.015-.882,1.17-1.15,1.773a5.961,5.961,0,0,0-.532,2.361,6.566,6.566,0,0,0,1.411,4.5.127.127,0,0,1,.018.144.507.507,0,0,1-.426.218.464.464,0,0,0-.253.079.2.2,0,0,0,0,.253.648.648,0,0,0,.3.2,2.206,2.206,0,0,0,1.2.1h0a2.168,2.168,0,0,0,.567-.19,2.507,2.507,0,0,0,.388-.253,1.986,1.986,0,0,1,.618-.345,7.828,7.828,0,0,0,3.2-2.1,9.88,9.88,0,0,0,.666-.826,7.092,7.092,0,0,1,.98-1.135,2.639,2.639,0,0,1,1.178-.507,3.453,3.453,0,0,0,.76-.253,2.577,2.577,0,0,0,1.1-1.52,4.2,4.2,0,0,0-.6-3.62,4.773,4.773,0,0,0-2.89-1.842l.671.983a.127.127,0,0,1-.157.187,8.167,8.167,0,0,0-6.574-.068l1.6.59a.127.127,0,0,1-.086.238,2.84,2.84,0,0,0-1.611.1l-1.54.4,1.211.279a.13.13,0,0,1-.056.253Z" transform="translate(-16.909 0)" fill="#1f4076"/>
    <path id="Tracé_3327" data-name="Tracé 3327" d="M118.172,92.57s1.373,2.351,1.036,2.8-1.348.084-1.348.084" transform="translate(-47.317 -24.302)" fill="#f2f1f7"/>
    <path id="Tracé_3328" data-name="Tracé 3328" d="M118.256,95.331a2.607,2.607,0,0,1-.8-.149.127.127,0,0,1,.086-.238c.253.094.975.269,1.2-.041.177-.238-.4-1.566-1.044-2.66a.128.128,0,0,1,.22-.129c.332.567,1.386,2.46,1.013,2.941A.823.823,0,0,1,118.256,95.331Z" transform="translate(-46.953 -23.914)" fill="#1f4076"/>
    <path id="Tracé_3329" data-name="Tracé 3329" d="M95.463,77.932c.909.831.542,2.462.474,3.531q-.142,2.257-.388,4.5c-.106.95-2.576.833-3,.524l.053,3.167s-.676,1.712-2.617.679A4.58,4.58,0,0,1,87.65,88l.408-4.339a3.115,3.115,0,0,0,2.7-1.788A12.936,12.936,0,0,0,91.959,77S94.578,77.122,95.463,77.932Z" transform="translate(-24.76 -12.676)" fill="#f2f1f7"/>
    <path id="Tracé_3330" data-name="Tracé 3330" d="M90.777,90.429a2.624,2.624,0,0,1-1.213-.347,4.661,4.661,0,0,1-2.4-2.409.155.155,0,0,1,0-.048l.405-4.342a.129.129,0,0,1,.134-.114,2.975,2.975,0,0,0,2.586-1.725,12.925,12.925,0,0,0,1.181-4.813.129.129,0,0,1,.043-.089.117.117,0,0,1,.091-.033c.109,0,2.67.139,3.582.97h0c.8.735.671,2.027.567,3.055-.023.2-.041.4-.053.578-.094,1.5-.225,3.017-.39,4.512a.806.806,0,0,1-.557.641,4.194,4.194,0,0,1-2.432.068L92.37,89.3a.162.162,0,0,1,0,.051,1.882,1.882,0,0,1-1.013.991A1.644,1.644,0,0,1,90.777,90.429ZM87.415,87.62a4.6,4.6,0,0,0,2.28,2.239,1.936,1.936,0,0,0,1.573.233,1.631,1.631,0,0,0,.859-.826l-.053-3.139a.124.124,0,0,1,.068-.114.129.129,0,0,1,.134,0,3.665,3.665,0,0,0,2.386,0c.253-.111.388-.253.408-.438.162-1.49.294-3,.388-4.5,0-.182.033-.383.053-.588.1-.978.223-2.194-.486-2.842h0c-.735-.671-2.771-.859-3.293-.9a12.8,12.8,0,0,1-1.206,4.813,3.2,3.2,0,0,1-2.7,1.852Z" transform="translate(-24.396 -12.309)" fill="#1f4076"/>
    <path id="Tracé_3331" data-name="Tracé 3331" d="M113.7,106.268a1.239,1.239,0,0,1-1.773-.588" transform="translate(-42.889 -34.09)" fill="#f2f1f7"/>
    <path id="Tracé_3332" data-name="Tracé 3332" d="M112.665,106.184a1.267,1.267,0,0,1-.4-.063,1.322,1.322,0,0,1-.775-.76.128.128,0,1,1,.233-.1,1.084,1.084,0,0,0,.621.633,1.373,1.373,0,0,0,.963-.106.127.127,0,0,1,.172.053.124.124,0,0,1-.051.17A1.758,1.758,0,0,1,112.665,106.184Z" transform="translate(-42.55 -33.718)" fill="#1f4076"/>
    <path id="Tracé_3333" data-name="Tracé 3333" d="M100.035,89.659A2.039,2.039,0,0,0,99.67,88.6a2.855,2.855,0,0,0-.507-.714.99.99,0,0,0-.8-.291.922.922,0,0,0-.616.433,1.743,1.743,0,0,0-.228.737,3.227,3.227,0,0,0,1.33,2.946l-.079-.094" transform="translate(-32.119 -20.585)" fill="#f2f1f7"/>
    <path id="Tracé_3334" data-name="Tracé 3334" d="M98.48,91.426a.132.132,0,0,1-.073-.023,3.379,3.379,0,0,1-1.383-3.065,1.819,1.819,0,0,1,.253-.788,1.041,1.041,0,0,1,.7-.507,1.11,1.11,0,0,1,.9.327,3.111,3.111,0,0,1,.532.742,2.163,2.163,0,0,1,.38,1.125.124.124,0,0,1-.132.122.129.129,0,0,1-.122-.132,1.943,1.943,0,0,0-.347-.988,2.855,2.855,0,0,0-.484-.684.861.861,0,0,0-.692-.253.79.79,0,0,0-.527.377,1.591,1.591,0,0,0-.213.681A3.134,3.134,0,0,0,98.4,91.082a.127.127,0,0,1,.1.046l.076.094a.127.127,0,0,1-.1.208Z" transform="translate(-31.747 -20.171)" fill="#1f4076"/>
    <path id="Tracé_3335" data-name="Tracé 3335" d="M101.57,110.341a3.6,3.6,0,0,1-1.719-1.321,3.113,3.113,0,0,0,1.719,3.083Z" transform="translate(-33.865 -36.584)" fill="#5c6f99"/>
    <path id="Tracé_3336" data-name="Tracé 3336" d="M101.11,111.876a.123.123,0,0,1-.042,0c-1.716-.8-1.7-3.164-1.7-3.187a.13.13,0,0,1,.081-.122.1.1,0,0,1,.123.058,3.376,3.376,0,0,0,1.508,1.325.132.132,0,0,1,.07.114l.068,1.687a.132.132,0,0,1-.046.109A.1.1,0,0,1,101.11,111.876Zm-1.492-2.769a3.192,3.192,0,0,0,1.374,2.442l-.055-1.4A3.88,3.88,0,0,1,99.618,109.107Z" transform="translate(-33.511 -36.243)" fill="#5c6f99"/>
    <ellipse id="Ellipse_351" data-name="Ellipse 351" cx="0.54" cy="0.213" rx="0.54" ry="0.213" transform="translate(69.728 67.658) rotate(-77.22)" fill="#1f4076"/>
    <path id="Tracé_3337" data-name="Tracé 3337" d="M111.45,202.566h50.792L154,193.58H119.686Z" transform="translate(-42.531 -99.723)" fill="#f2f1f7"/>
    <path id="Tracé_3338" data-name="Tracé 3338" d="M161.888,202.324h-50.8a.122.122,0,0,1-.091-.205l8.236-8.988a.132.132,0,0,1,.091-.041h34.318a.122.122,0,0,1,.091.041l8.236,8.988a.122.122,0,0,1-.089.205Zm-50.513-.253h50.219l-8.01-8.742h-34.2Z" transform="translate(-42.164 -99.357)" fill="#1f4076"/>
    <path id="Tracé_3339" data-name="Tracé 3339" d="M145.431,207h0l-14.277-.193a.134.134,0,0,1-.1-.215,31.629,31.629,0,0,1,3.281-3.65.236.236,0,0,1,.061-.013l13.5.094a.134.134,0,0,1,.109.208l-2.457,3.709A.132.132,0,0,1,145.431,207Zm-14-.453,13.933.185,2.28-3.443-13.219-.089a28.926,28.926,0,0,0-2.994,3.341Z" transform="translate(-57.145 -106.704)" fill="#5c6f99"/>
    <rect id="Rectangle_1954" data-name="Rectangle 1954" width="50.86" height="2.597" transform="translate(119.754 105.482) rotate(180)" fill="#1f4076"/>
    <path id="Tracé_3340" data-name="Tracé 3340" d="M161.807,231.555H110.944a.134.134,0,0,1-.134-.134v-2.6a.134.134,0,0,1,.134-.134h50.863a.132.132,0,0,1,.132.134v2.6a.132.132,0,0,1-.132.134Zm-50.729-.268h50.594v-2.328H111.079Z" transform="translate(-42.053 -125.939)" fill="#1f4076"/>
    <path id="Tracé_3341" data-name="Tracé 3341" d="M59.235,128.785l4.124,14.6,12.464-1.419.165,4.671S64.132,148.625,60.7,147.68s-5.153-11.767-6.011-14.693S55.886,125.522,59.235,128.785Z" transform="translate(0 -50.497)" fill="#5c6f99"/>
    <path id="Tracé_3342" data-name="Tracé 3342" d="M87,146.879a72.16,72.16,0,0,1-7.96-.223c-.4-.253-4.616-10.45-5.457-12.489a.124.124,0,0,1,.068-.165.127.127,0,0,1,.165.068c1.981,4.8,5.046,12.058,5.373,12.383.37.165,6.586.19,10.678.165h0a.127.127,0,1,1,0,.253C89.365,146.874,88.286,146.879,87,146.879Z" transform="translate(-14.246 -55.231)" fill="#1f4076"/>
    <path id="Tracé_3343" data-name="Tracé 3343" d="M66.907,172.69a5.823,5.823,0,0,1-2.9-.524c-3.111-2.047-5.153-6.044-6.08-11.886a.124.124,0,0,1,.1-.144.129.129,0,0,1,.147.106c.907,5.766,2.913,9.707,5.961,11.714,2.376,1.561,13.829-1.15,13.933-1.178a.127.127,0,0,1,.152.094.124.124,0,0,1-.094.152A61.467,61.467,0,0,1,66.907,172.69Z" transform="translate(-2.563 -74.75)" fill="#1f4076"/>
    <path id="Tracé_3344" data-name="Tracé 3344" d="M143.23,182.923s3.387-2.143,4.2-2.027c.636.091,1.186.732,1.606,1.153a3.2,3.2,0,0,1,1.107,1.859A1.391,1.391,0,0,1,149.92,185a.791.791,0,0,1-1.226-.046c-.466-.466-.76-.575-1.226-.458a11.9,11.9,0,0,1-4.122.692Z" transform="translate(-66.26 -90.249)" fill="#f2f1f7"/>
    <path id="Tracé_3345" data-name="Tracé 3345" d="M149,185.028a1.117,1.117,0,0,1-.773-.357c-.431-.431-.679-.529-1.092-.428a11.938,11.938,0,0,1-4.167.7h0a.127.127,0,0,1-.127-.122l-.117-2.267a.129.129,0,0,1,.058-.114c.352-.22,3.453-2.161,4.289-2.044a3.011,3.011,0,0,1,1.52,1.026c.056.056.109.111.162.162a3.37,3.37,0,0,1,1.143,1.933,1.538,1.538,0,0,1-.253,1.193.823.823,0,0,1-.6.317Zm-1.6-1.074a1.447,1.447,0,0,1,1.013.537.829.829,0,0,0,.621.281.567.567,0,0,0,.421-.225,1.335,1.335,0,0,0,.2-1,3.121,3.121,0,0,0-1.072-1.788l-.162-.165a2.837,2.837,0,0,0-1.373-.952c-.621-.086-3.075,1.355-4.053,1.968l.106,2.072a10.841,10.841,0,0,0,3.939-.674l.033-.013A1.413,1.413,0,0,1,147.406,183.954Z" transform="translate(-65.886 -89.875)" fill="#1f4076"/>
    <path id="Tracé_3346" data-name="Tracé 3346" d="M138.7,185.13l1.854.119.263,3.407-2.047.469Z" transform="translate(-62.877 -93.414)" fill="#1f4076"/>
    <path id="Tracé_3347" data-name="Tracé 3347" d="M138.417,188.877a.129.129,0,0,1-.079-.028.119.119,0,0,1-.048-.1l-.071-3.995a.122.122,0,0,1,.038-.094.124.124,0,0,1,.1-.035l1.854.119a.124.124,0,0,1,.117.117l.253,3.407a.127.127,0,0,1-.1.134l-2.047.469Zm.058-3.987.066,3.7,1.786-.408-.253-3.189Z" transform="translate(-62.519 -93.039)" fill="#1f4076"/>
    <path id="Tracé_3348" data-name="Tracé 3348" d="M123,145a.124.124,0,0,1-.124-.1l-2.556-11.906a.129.129,0,0,1,.1-.152.127.127,0,0,1,.149.1l2.556,11.906a.127.127,0,0,1-.1.149Z" transform="translate(-49.153 -54.37)" fill="#1f4076"/>
    <path id="Tracé_3349" data-name="Tracé 3349" d="M172.959,130.749l.476-1.806L170.2,126.66,169.06,128.7Z" transform="translate(-85.546 -49.756)" fill="#1f4076"/>
    <path id="Tracé_3350" data-name="Tracé 3350" d="M172.586,130.5a.149.149,0,0,1-.058-.013l-3.9-2.047a.127.127,0,0,1-.053-.172l1.143-2.044a.124.124,0,0,1,.182-.043l3.235,2.28a.124.124,0,0,1,.048.137l-.474,1.806a.133.133,0,0,1-.124.1Zm-3.724-2.222,3.643,1.91.413-1.568-3.04-2.151Z" transform="translate(-85.174 -49.381)" fill="#1f4076"/>
    <ellipse id="Ellipse_352" data-name="Ellipse 352" cx="3.189" cy="1.274" rx="3.189" ry="1.274" transform="translate(91.126 96.925)" fill="#1f4076"/>
    <path id="Tracé_3351" data-name="Tracé 3351" d="M201.941,208c-1.857,0-3.311-.616-3.311-1.4s1.454-1.4,3.311-1.4,3.311.616,3.311,1.4S203.79,208,201.941,208Zm0-2.551c-1.834,0-3.068.6-3.068,1.153s1.234,1.153,3.068,1.153,3.065-.6,3.065-1.153S203.775,205.446,201.941,205.446Z" transform="translate(-107.626 -108.399)" fill="#1f4076"/>
    <path id="Tracé_3352" data-name="Tracé 3352" d="M201.48,193.19v4.142c0,.573,1.16,1.036,2.589,1.036s2.586-.464,2.586-1.036V193.19Z" transform="translate(-109.754 -99.432)" fill="#f2f1f7"/>
    <path id="Tracé_3353" data-name="Tracé 3353" d="M203.711,198.131c-1.52,0-2.711-.507-2.711-1.158v-4.142a.119.119,0,0,1,.122-.122H206.3a.122.122,0,0,1,.124.122v4.142C206.421,197.622,205.23,198.131,203.711,198.131Zm-2.457-5.175v4.018c0,.431,1.013.912,2.465.912s2.465-.481,2.465-.912v-4.018Z" transform="translate(-109.395 -99.073)" fill="#5c6f99"/>
    <ellipse id="Ellipse_353" data-name="Ellipse 353" cx="2.586" cy="1.036" rx="2.586" ry="1.036" transform="translate(91.729 92.722)" fill="#f2f1f7"/>
    <path id="Tracé_3354" data-name="Tracé 3354" d="M203.711,190.935c-1.52,0-2.711-.507-2.711-1.158s1.191-1.158,2.711-1.158,2.711.507,2.711,1.158S205.231,190.935,203.711,190.935Zm0-2.07c-1.454,0-2.465.481-2.465.912s1.013.912,2.465.912,2.465-.479,2.465-.912S205.162,188.866,203.711,188.866Z" transform="translate(-109.395 -96.02)" fill="#5c6f99"/>
    <path id="Tracé_3355" data-name="Tracé 3355" d="M205.925,180.714a.76.76,0,0,1,.134-.661,2.471,2.471,0,0,1,.443-.345c.266-.205.507-.689.266-1a2.685,2.685,0,0,0,.36.155,1.59,1.59,0,0,1,.319.253,2.232,2.232,0,0,1,.535.806,1.335,1.335,0,0,1-.16,1.267,1.145,1.145,0,0,1-1.758-.167A.935.935,0,0,1,205.925,180.714Z" transform="translate(-113.053 -88.62)" fill="#fce15c"/>
    <path id="Tracé_3356" data-name="Tracé 3356" d="M209.925,187.48a.124.124,0,0,1-.114-.071,3.112,3.112,0,0,1-.3-1.484.123.123,0,0,1,.238.058,2.84,2.84,0,0,0,.291,1.325.124.124,0,0,1-.061.162A.128.128,0,0,1,209.925,187.48Z" transform="translate(-115.728 -93.937)" fill="#1f4076"/>
    <path id="Tracé_3357" data-name="Tracé 3357" d="M184.544,207.909a.134.134,0,0,1-.114-.205l.856-1.355a.134.134,0,0,1,.185-.041.132.132,0,0,1,.041.182l-.856,1.355A.132.132,0,0,1,184.544,207.909Z" transform="translate(-97.008 -109.211)" fill="#5c6f99"/>
    <path id="Tracé_3358" data-name="Tracé 3358" d="M163.492,208.117c-1.188,0-2.452-.322-2.452-.917s1.267-.92,2.452-.92,2.45.322,2.45.92S164.68,208.117,163.492,208.117Zm0-1.568c-1.353,0-2.186.377-2.186.651s.833.651,2.186.651,2.184-.38,2.184-.651S164.845,206.549,163.492,206.549Z" transform="translate(-79.558 -109.206)" fill="#5c6f99"/>
    <path id="Tracé_3359" data-name="Tracé 3359" d="M212.757,121.115c-.643,0-1.52-.94-2.1-2.313-.654-1.545-.659-2.972,0-3.248s1.674.719,2.328,2.265h0c.656,1.548.659,2.974,0,3.25A.585.585,0,0,1,212.757,121.115Zm-1.872-5.419a.451.451,0,0,0-.165.03c-.535.228-.484,1.6.109,3s1.548,2.391,2.08,2.166.486-1.6-.106-3C212.271,116.629,211.44,115.7,210.885,115.7Z" transform="translate(-116.24 -41.429)" fill="#5c6f99"/>
    <path id="Tracé_3360" data-name="Tracé 3360" d="M209.232,111.313a.063.063,0,0,1-.03,0l-2.521-.851a.091.091,0,0,1-.058-.119.094.094,0,0,1,.119-.058l2.521.856a.094.094,0,0,1,.058.119.089.089,0,0,1-.089.053Z" transform="translate(-113.589 -37.525)" fill="#5c6f99"/>
    <path id="Tracé_3361" data-name="Tracé 3361" d="M220.164,144.664h-.018l-2.376-.453a.091.091,0,0,1-.076-.109.1.1,0,0,1,.111-.076l2.376.453a.093.093,0,0,1-.018.185Z" transform="translate(-121.859 -62.721)" fill="#5c6f99"/>
    <path id="Tracé_3362" data-name="Tracé 3362" d="M221.678,148.9h-.018l-2.389-.451a.1.1,0,0,1-.076-.111.094.094,0,0,1,.111-.073l2.371.438a.091.091,0,0,1,.076.109A.1.1,0,0,1,221.678,148.9Z" transform="translate(-122.98 -65.885)" fill="#5c6f99"/>
    <path id="Tracé_3363" data-name="Tracé 3363" d="M222.981,153.393h-.018l-2.379-.453a.094.094,0,0,1,.035-.185l2.379.451a.1.1,0,0,1,.073.111A.091.091,0,0,1,222.981,153.393Z" transform="translate(-123.961 -69.239)" fill="#5c6f99"/>
  </g>
</svg>
