<svg xmlns="http://www.w3.org/2000/svg" width="84.275" height="56.231" viewBox="0 0 84.275 56.231">
  <g id="Groupe_2058" data-name="Groupe 2058" transform="translate(8013 476)">
    <g id="_54_coffee_lover" data-name="#54_coffee_lover" transform="translate(-8013 -472.459)">
      <line id="Ligne_131" data-name="Ligne 131" x1="63.598" transform="translate(2.926 42.981)" fill="#fff"/>
      <path id="Tracé_4305" data-name="Tracé 4305" d="M128.721,223.076h-63.6a.113.113,0,1,1,0-.226h63.6a.113.113,0,0,1,0,.226Z" transform="translate(-62.197 -179.982)" fill="#d1d3d4"/>
      <path id="Tracé_4306" data-name="Tracé 4306" d="M142.255,159.6H140.7l-.305-22.653h2.17Z" transform="translate(-120.541 -113.496)" fill="#f2f1f7"/>
      <path id="Tracé_4307" data-name="Tracé 4307" d="M141.86,159.357H140.3a.115.115,0,0,1-.115-.115L139.88,136.6a.115.115,0,0,1,.034-.084.109.109,0,0,1,.081-.034h2.172a.115.115,0,0,1,.084.034.113.113,0,0,1,.032.084l-.305,22.653A.115.115,0,0,1,141.86,159.357Zm-1.444-.226h1.329l.3-22.418h-1.932Z" transform="translate(-120.146 -113.133)" fill="#1f4076"/>
      <rect id="Rectangle_2390" data-name="Rectangle 2390" width="46.303" height="2.296" transform="translate(16.608 21.157)" fill="#f2f1f7"/>
      <path id="Tracé_4308" data-name="Tracé 4308" d="M171.958,128.8h-46.3a.115.115,0,0,1-.115-.118v-2.3a.115.115,0,0,1,.115-.118h46.3a.118.118,0,0,1,.118.118V128.7a.118.118,0,0,1-.118.106Zm-46.186-.226h46.07v-2.063h-46.07Z" transform="translate(-109.047 -105.23)" fill="#1f4076"/>
      <path id="Tracé_4309" data-name="Tracé 4309" d="M104.994,36.393a9.275,9.275,0,0,0,.1,3.9,2.414,2.414,0,0,0,.452,1.028,2.172,2.172,0,0,0,1.1.608,11.448,11.448,0,0,0,2.034.409,3.109,3.109,0,0,0,2.1-.344c.737-.5.719-1.214,1.1-1.944.285-.547.94-.678,1.22-1.27a2.317,2.317,0,0,0,.174-1,4.319,4.319,0,0,0-.816-2.563,4.172,4.172,0,0,0-2.938-1.392c-1.037-.111-2.147-.479-2.382.807a1.241,1.241,0,0,0-1.13.115A2.6,2.6,0,0,0,104.994,36.393Z" transform="translate(-93.016 -33.579)" fill="#f2f1f7"/>
      <path id="Tracé_4310" data-name="Tracé 4310" d="M108.916,42.093a5.815,5.815,0,0,1-.646-.038,11.656,11.656,0,0,1-2.059-.411A2.312,2.312,0,0,1,105.054,41a2.554,2.554,0,0,1-.47-1.078,9.391,9.391,0,0,1-.1-3.955h0a2.707,2.707,0,0,1,1.055-1.711,1.356,1.356,0,0,1,1.1-.17c.269-1.076,1.211-.945,2.05-.827.142.02.287.041.432.054a4.451,4.451,0,0,1,3.029,1.44,4.41,4.41,0,0,1,.839,2.633,2.368,2.368,0,0,1-.183,1.046,1.93,1.93,0,0,1-.678.719,1.7,1.7,0,0,0-.551.556,4.8,4.8,0,0,0-.276.678,2.253,2.253,0,0,1-.863,1.309,2.681,2.681,0,0,1-1.517.4Zm-4.208-6.073a9.119,9.119,0,0,0,.1,3.842,2.357,2.357,0,0,0,.42.981,2.059,2.059,0,0,0,1.044.576,11.439,11.439,0,0,0,2.018.4,3.031,3.031,0,0,0,2.016-.323,2.046,2.046,0,0,0,.773-1.191,5.134,5.134,0,0,1,.287-.71,1.959,1.959,0,0,1,.619-.635,1.713,1.713,0,0,0,.6-.626,2.147,2.147,0,0,0,.16-.945,4.168,4.168,0,0,0-.791-2.486,4.258,4.258,0,0,0-2.868-1.356c-.147-.016-.294-.036-.438-.057-1.015-.142-1.643-.181-1.808.768a.118.118,0,0,1-.158.088,1.117,1.117,0,0,0-1.013.1,2.5,2.5,0,0,0-.958,1.582Z" transform="translate(-92.618 -33.179)" fill="#1f4076"/>
      <path id="Tracé_4311" data-name="Tracé 4311" d="M159.576,237.18s-.879,4.068-.678,4.394,8.261,2.922,8.342,1.987-4.832-4.613-4.832-4.613Z" transform="translate(-134.842 -191.073)" fill="#1f4076"/>
      <rect id="Rectangle_2391" data-name="Rectangle 2391" width="2.025" height="11.072" transform="translate(14.606 49.398) rotate(180)" fill="#1f4076"/>
      <path id="Tracé_4312" data-name="Tracé 4312" d="M109.837,213.541H107.8a.113.113,0,0,1-.113-.113V202.353a.113.113,0,0,1,.113-.113h2.034a.113.113,0,0,1,.113.113v11.075A.113.113,0,0,1,109.837,213.541Zm-1.914-.226h1.808V202.466h-1.808Z" transform="translate(-95.231 -164.03)" fill="#1f4076"/>
      <path id="Tracé_4313" data-name="Tracé 4313" d="M78.921,121.28a8.538,8.538,0,0,1-5.892,5.39c-4.617,1.171-9.226,2.308-14.948-1.27a10.329,10.329,0,0,1-4.5-12.128c.845-2.861,2.927-7.479,6.439-8.258s5.564.866,7.024,1.885S79.219,116.021,78.921,121.28Z" transform="translate(-52.978 -88.621)" fill="#f2f1f7"/>
      <path id="Tracé_4314" data-name="Tracé 4314" d="M65.673,127.521a14.782,14.782,0,0,1-8.069-2.434,10.455,10.455,0,0,1-4.547-12.259c.511-1.731,2.486-7.445,6.527-8.342a7.841,7.841,0,0,1,6.862,1.727l.253.179c.122.086,12.248,8.814,11.927,14.483a.12.12,0,0,1,0,.027,8.749,8.749,0,0,1-5.974,5.469A28.187,28.187,0,0,1,65.673,127.521Zm-4.294-23.008a8.028,8.028,0,0,0-1.749.2c-.988.226-4.367,1.458-6.353,8.179a10.233,10.233,0,0,0,4.448,11.994c5.718,3.576,10.365,2.4,14.858,1.257a8.484,8.484,0,0,0,5.806-5.3c.113-2.149-1.7-5.149-5.246-8.677a58.405,58.405,0,0,0-6.581-5.587l-.253-.181a8.141,8.141,0,0,0-4.925-1.889ZM78.5,120.867Z" transform="translate(-52.566 -88.208)" fill="#1f4076"/>
      <path id="Tracé_4315" data-name="Tracé 4315" d="M83.225,131.2c-5.352-.267-6.9-3.187-7.684-5.65s-.576-10.214.985-11.391,6.762-1.234,7.544-.845,12.291,9.106,12.553,10.6S97.6,131.912,83.225,131.2Z" transform="translate(-70.002 -95.034)" fill="#1f4076"/>
      <path id="Tracé_4316" data-name="Tracé 4316" d="M133.756,153.36s7.031,7.526,7.458,8.588-1.526,13.787-1.526,13.787h-4.821s.818-12.334.095-12.917-7.483-5.535-7.483-5.535Z" transform="translate(-110.548 -126.198)" fill="#f2f1f7"/>
      <path id="Tracé_4317" data-name="Tracé 4317" d="M139.285,175.46h-4.812a.115.115,0,0,1-.084-.036.118.118,0,0,1-.032-.088c.314-4.746.631-12.431.138-12.817-.712-.574-7.411-5.483-7.479-5.533a.111.111,0,0,1-.047-.1.115.115,0,0,1,.054-.095l6.281-3.933a.12.12,0,0,1,.149.02c.287.307,7.052,7.553,7.472,8.629s-1.44,13.335-1.519,13.85A.118.118,0,0,1,139.285,175.46Zm-4.688-.226h4.584c.547-3.6,1.847-12.786,1.517-13.631-.382-.981-6.647-7.721-7.361-8.487l-6.044,3.783c.994.728,6.681,4.9,7.35,5.438.136.108.5.4.267,6.78-.1,2.757-.271,5.5-.312,6.109Z" transform="translate(-110.153 -125.798)" fill="#1f4076"/>
      <path id="Tracé_4318" data-name="Tracé 4318" d="M101.063,156.071s16.23-3.074,16.711-2.712,6.742,9.791,6.742,9.791l-4.805,2.577s-4.353-7.379-5.424-6.936c-16.1,6.579-17.437.215-17.437.215Z" transform="translate(-86.841 -126.174)" fill="#f2f1f7"/>
      <path id="Tracé_4319" data-name="Tracé 4319" d="M119.277,165.524a.118.118,0,0,1-.1-.056c-1.661-2.812-4.579-7.185-5.291-6.88-9.282,3.795-13.687,3.288-15.749,2.195a3.354,3.354,0,0,1-1.847-2.064.118.118,0,0,1,.047-.12l4.224-2.938a.113.113,0,0,1,.045-.018c3.817-.723,16.316-3.06,16.8-2.683s6.125,8.853,6.767,9.82a.113.113,0,0,1,.016.093.115.115,0,0,1-.059.075l-4.8,2.565A.122.122,0,0,1,119.277,165.524Zm-5.35-7.185c1.22,0,4.575,5.526,5.4,6.914l4.59-2.454c-2.513-3.779-6.306-9.4-6.645-9.655-.529-.21-10.2,1.51-16.594,2.712l-4.136,2.87a3.332,3.332,0,0,0,1.718,1.837c2.018,1.065,6.353,1.546,15.541-2.208A.335.335,0,0,1,113.928,158.339Z" transform="translate(-86.407 -125.856)" fill="#1f4076"/>
      <path id="Tracé_4320" data-name="Tracé 4320" d="M141.6,76.71s3.535,8.928,3.892,8.979,7.938-.755,7.938-.755l.484,2.667s-9.115,5.707-10.575,4.391S141.6,76.71,141.6,76.71Z" transform="translate(-121.477 -66.871)" fill="#fce15c"/>
      <path id="Tracé_4321" data-name="Tracé 4321" d="M109.477,98.588s4.771-1.975,7.684-3.408c0,0-2.416-17.629-3.279-18.027s-5.424-.841-6.448.9S109.477,98.588,109.477,98.588Z" transform="translate(-94.871 -66.935)" fill="#5c6f99"/>
      <path id="Tracé_4322" data-name="Tracé 4322" d="M109.081,98.316a.1.1,0,0,1-.054-.016.1.1,0,0,1-.056-.079c-.127-.768-3.078-18.825-2.034-20.594,1.1-1.876,5.775-1.336,6.593-.963.875.4,2.938,15.161,3.343,18.117a.113.113,0,0,1-.061.115c-2.875,1.419-7.635,3.39-7.684,3.411A.146.146,0,0,1,109.081,98.316Zm1.711-21.794h-.47c-.954.041-2.635.253-3.2,1.209-.793,1.356.976,13.787,2.034,20.3.78-.325,4.862-2.034,7.458-3.316-.927-6.749-2.606-17.5-3.2-17.855A8.3,8.3,0,0,0,110.792,76.522Z" transform="translate(-94.475 -66.55)" fill="#1f4076"/>
      <path id="Tracé_4323" data-name="Tracé 4323" d="M101.718,91.868,98.911,93.69l-3.3-18.571-4.746-.635,3.006,21.98L88.114,98.4c-4.172-7.458-4.057-18.759-2.879-20.94s5.757-4.12,5.757-4.12,4.419-.832,6.073.02S101.718,91.868,101.718,91.868Z" transform="translate(-77.303 -63.985)" fill="#fce15c"/>
      <path id="Tracé_4324" data-name="Tracé 4324" d="M116.98,49.788l.21,2.606a2.242,2.242,0,0,1-2.457,1.225,3.442,3.442,0,0,1-2.3-1.862l-.025-4.746s1.241-.678.85-3.39a8.317,8.317,0,0,0,4.373.567,15.77,15.77,0,0,1,.6,4.233A1.456,1.456,0,0,1,116.98,49.788Z" transform="translate(-98.884 -41.26)" fill="#f2f1f7"/>
      <path id="Tracé_4325" data-name="Tracé 4325" d="M114.853,53.437a2.306,2.306,0,0,1-.538-.063,3.537,3.537,0,0,1-2.4-1.93.147.147,0,0,1,0-.043l-.025-4.746a.122.122,0,0,1,.061-.1s1.164-.678.791-3.259a.115.115,0,0,1,.165-.122,8.281,8.281,0,0,0,4.308.556.115.115,0,0,1,.129.086,15.491,15.491,0,0,1,.6,4.278,1.565,1.565,0,0,1-1.243,1.437l.2,2.5a.106.106,0,0,1-.011.059A2.46,2.46,0,0,1,114.853,53.437Zm-2.712-2.063a3.361,3.361,0,0,0,2.208,1.774,2.125,2.125,0,0,0,2.314-1.13l-.2-2.568a.12.12,0,0,1,.029-.086.111.111,0,0,1,.081-.038,1.3,1.3,0,0,0,1.144-1.257,14.764,14.764,0,0,0-.572-4.086A8.561,8.561,0,0,1,113,43.476c.271,2.28-.626,3.078-.875,3.255Z" transform="translate(-98.482 -40.902)" fill="#1f4076"/>
      <path id="Tracé_4326" data-name="Tracé 4326" d="M124.589,70.9a2.183,2.183,0,0,1-1.727-.545c-.748-.707-.678-1.13-.678-1.13a3.919,3.919,0,0,0,2.3.411Z" transform="translate(-106.448 -61.082)" fill="#1f4076"/>
      <path id="Tracé_4327" data-name="Tracé 4327" d="M123.909,70.68a2.242,2.242,0,0,1-1.546-.594c-.766-.726-.728-1.171-.721-1.218a.117.117,0,0,1,.061-.084.106.106,0,0,1,.1,0,3.9,3.9,0,0,0,2.224.4.115.115,0,0,1,.09.018.111.111,0,0,1,.045.081l.113,1.254a.108.108,0,0,1-.093.12A1.691,1.691,0,0,1,123.909,70.68Zm-2.009-1.6a2.219,2.219,0,0,0,.619.845,2.073,2.073,0,0,0,1.528.527l-.093-1.022A3.928,3.928,0,0,1,121.9,69.077Z" transform="translate(-106.028 -60.726)" fill="#1f4076"/>
      <path id="Tracé_4328" data-name="Tracé 4328" d="M124.937,53.4s.8,1.469.558,1.688-.845,0-.845,0" transform="translate(-108.358 -48.83)" fill="#f2f1f7"/>
      <path id="Tracé_4329" data-name="Tracé 4329" d="M124.782,54.915a1.779,1.779,0,0,1-.547-.1.113.113,0,0,1,.077-.212c.14.05.574.16.73.018a3.658,3.658,0,0,0-.581-1.55.111.111,0,0,1,.045-.154.115.115,0,0,1,.154.045c.314.579.8,1.582.533,1.826a.6.6,0,0,1-.411.129Z" transform="translate(-107.981 -48.444)" fill="#1f4076"/>
      <path id="Tracé_4330" data-name="Tracé 4330" d="M122.748,63.937h-.1a1.734,1.734,0,0,1-1.211-.655.113.113,0,1,1,.172-.147,1.512,1.512,0,0,0,1.051.576,2.009,2.009,0,0,0,1.306-.488.113.113,0,1,1,.16.16A2.274,2.274,0,0,1,122.748,63.937Z" transform="translate(-105.85 -56.334)" fill="#1f4076"/>
      <ellipse id="Ellipse_401" data-name="Ellipse 401" cx="0.377" cy="0.165" rx="0.377" ry="0.165" transform="translate(15.53 4.599) rotate(-86.22)" fill="#1f4076"/>
      <ellipse id="Ellipse_402" data-name="Ellipse 402" cx="0.377" cy="0.165" rx="0.377" ry="0.165" transform="translate(17.705 4.669) rotate(-86.22)" fill="#1f4076"/>
      <path id="Tracé_4331" data-name="Tracé 4331" d="M110.158,52.658A2.274,2.274,0,0,0,109.58,52a.771.771,0,0,0-.432-.19.678.678,0,0,0-.371.108,1.374,1.374,0,0,0-.649.9,1.074,1.074,0,0,0,.02.529,1.207,1.207,0,0,0,.524.631,3.555,3.555,0,0,0,.764.337" transform="translate(-95.552 -47.599)" fill="#f2f1f7"/>
      <path id="Tracé_4332" data-name="Tracé 4332" d="M109.033,54.047H109a3.779,3.779,0,0,1-.793-.344,1.313,1.313,0,0,1-.572-.7,1.182,1.182,0,0,1-.023-.585,1.48,1.48,0,0,1,.7-.985.8.8,0,0,1,.434-.127.9.9,0,0,1,.5.226,2.375,2.375,0,0,1,.608.692.113.113,0,0,1-.041.158.118.118,0,0,1-.16-.041,2.17,2.17,0,0,0-.549-.624.658.658,0,0,0-.364-.167.549.549,0,0,0-.307.095,1.254,1.254,0,0,0-.592.829.963.963,0,0,0,.016.47,1.071,1.071,0,0,0,.479.551,3.551,3.551,0,0,0,.741.321.115.115,0,0,1,.072.147A.113.113,0,0,1,109.033,54.047Z" transform="translate(-95.148 -47.212)" fill="#1f4076"/>
      <path id="Tracé_4333" data-name="Tracé 4333" d="M193.81,113.807s2.6-.606,3.325.05,2.789,2.549,2.086,2.549a6.165,6.165,0,0,1-2.158-1.008s1.53,1.227.364,1.008-3.368-.52-3.368-.52" transform="translate(-161.887 -95.386)" fill="#f2f1f7"/>
      <path id="Tracé_4334" data-name="Tracé 4334" d="M197.254,116.129A1.5,1.5,0,0,1,197,116.1c-1.15-.226-3.343-.518-3.363-.52a.115.115,0,1,1,.032-.226c.023,0,2.219.3,3.374.52.253.047.305,0,.307,0a2.754,2.754,0,0,0-.766-.811.115.115,0,0,1-.02-.16.113.113,0,0,1,.158-.027,6.347,6.347,0,0,0,2.093.985h.027c-.011-.088-.185-.54-2.19-2.346-.561-.5-2.516-.188-3.223-.023a.115.115,0,0,1-.14-.088.12.12,0,0,1,.088-.14c.108-.025,2.665-.61,3.431.079,2.421,2.179,2.3,2.486,2.26,2.613a.226.226,0,0,1-.246.14,3.4,3.4,0,0,1-1.356-.5.416.416,0,0,1,.1.38A.305.305,0,0,1,197.254,116.129Z" transform="translate(-161.484 -94.967)" fill="#1f4076"/>
      <path id="Tracé_4335" data-name="Tracé 4335" d="M72.512,92.82s-3.3,5.14-3.942,8.537-.825,4.52.777,4.319a27.931,27.931,0,0,0,5.241-1.892Z" transform="translate(-64.592 -79.34)" fill="#fce15c"/>
      <path id="Tracé_4336" data-name="Tracé 4336" d="M103.874,117.187h2.3a.348.348,0,0,0,0-.694h-2.3c-.563,0-1.037-.664-1.037-1.449s.475-1.449,1.037-1.449h2.3a.348.348,0,0,0,0-.7h-2.3a2.192,2.192,0,0,0,0,4.287Z" transform="translate(-90.936 -94.882)" fill="#fff"/>
      <path id="Tracé_4337" data-name="Tracé 4337" d="M103.874,117.187h2.3a.348.348,0,0,0,0-.694h-2.3c-.563,0-1.037-.664-1.037-1.449s.475-1.449,1.037-1.449h2.3a.348.348,0,0,0,0-.7h-2.3a2.192,2.192,0,0,0,0,4.287Z" transform="translate(-90.936 -94.882)" fill="#fff"/>
      <path id="Tracé_4338" data-name="Tracé 4338" d="M103.874,117.187h2.3a.348.348,0,0,0,0-.694h-2.3c-.563,0-1.037-.664-1.037-1.449s.475-1.449,1.037-1.449h2.3a.348.348,0,0,0,0-.7h-2.3a2.192,2.192,0,0,0,0,4.287Z" transform="translate(-90.936 -94.882)" fill="none" stroke="#231f20" stroke-linecap="round" stroke-linejoin="round" stroke-width="1.03"/>
      <path id="Tracé_4339" data-name="Tracé 4339" d="M91.079,113.2a7.684,7.684,0,0,1,.366-.845c.167-.319.524-.64.848-.477a.64.64,0,0,1,.289.57,4.154,4.154,0,0,0,.014.678s2.059-.881,2.054.172a.945.945,0,0,1-.3.608c.271-.016.452.31.4.574a1.058,1.058,0,0,1-.511.606.515.515,0,0,1,.226.653.9.9,0,0,1-.561.495c.267.014.389.382.264.617a1.035,1.035,0,0,1-.651.429,2.094,2.094,0,0,1-2.452-.5C90.394,115.919,90.654,114.36,91.079,113.2Z" transform="translate(-82.047 -94.059)" fill="#f2f1f7"/>
      <path id="Tracé_4340" data-name="Tracé 4340" d="M92.093,117.176a1.822,1.822,0,0,1-1.508-.716c-.841-1.069-.292-2.938-.016-3.7h0a7.172,7.172,0,0,1,.373-.857c.206-.4.628-.719,1-.531a.741.741,0,0,1,.355.678v.509a2.667,2.667,0,0,1,1.758-.21.563.563,0,0,1,.314.549.9.9,0,0,1-.2.547.5.5,0,0,1,.165.131.646.646,0,0,1,.138.54,1.006,1.006,0,0,1-.418.579.664.664,0,0,1,.138.7.922.922,0,0,1-.4.452.552.552,0,0,1,.086.113.608.608,0,0,1,0,.561,1.155,1.155,0,0,1-.721.484A3.748,3.748,0,0,1,92.093,117.176Zm-1.309-4.337c-.2.563-.809,2.47-.018,3.476.5.635,1.239.782,2.326.452a.936.936,0,0,0,.581-.371.371.371,0,0,0,0-.337.2.2,0,0,0-.158-.111.118.118,0,0,1-.034-.226.8.8,0,0,0,.493-.425.4.4,0,0,0-.172-.506.111.111,0,0,1-.07-.1.115.115,0,0,1,.052-.108.92.92,0,0,0,.452-.531.414.414,0,0,0-.088-.339.244.244,0,0,0-.194-.093.12.12,0,0,1-.111-.068.113.113,0,0,1,.02-.129.818.818,0,0,0,.267-.54.337.337,0,0,0-.154-.323c-.411-.251-1.535.156-1.72.251l-.041.016a.12.12,0,0,1-.138-.09h0a1.808,1.808,0,0,1-.018-.452v-.24c0-.081-.029-.373-.226-.47-.255-.129-.558.172-.692.427a7.084,7.084,0,0,0-.362.829Z" transform="translate(-81.645 -93.657)" fill="#1f4076"/>
      <path id="Tracé_4341" data-name="Tracé 4341" d="M3.291,0h0A3.291,3.291,0,0,1,6.581,3.291V5.436H0V3.291A3.291,3.291,0,0,1,3.291,0Z" transform="translate(19.492 23.108) rotate(180)" fill="#f2f1f7"/>
      <path id="Tracé_4342" data-name="Tracé 4342" d="M112.578,116.526a3.413,3.413,0,0,1-3.408-3.406v-2.145a.118.118,0,0,1,.118-.115h6.579a.115.115,0,0,1,.118.115v2.145A3.411,3.411,0,0,1,112.578,116.526Zm-3.164-5.424v2.034a3.173,3.173,0,1,0,6.346,0V111.1Z" transform="translate(-96.377 -93.303)" fill="#1f4076"/>
      <ellipse id="Ellipse_403" data-name="Ellipse 403" cx="5.707" cy="1.752" rx="5.707" ry="1.752" transform="translate(7.887 48.152)" fill="#1f4076"/>
      <path id="Tracé_4343" data-name="Tracé 4343" d="M92.811,249.475c-3.264,0-5.811-.818-5.811-1.86s2.556-1.865,5.82-1.865,5.82.818,5.82,1.865S96.074,249.475,92.811,249.475Zm0-3.5c-3.347,0-5.585.848-5.585,1.643s2.26,1.641,5.6,1.641,5.594-.85,5.594-1.641S96.158,245.971,92.811,245.971Z" transform="translate(-79.217 -197.706)" fill="#1f4076"/>
      <path id="Tracé_4344" data-name="Tracé 4344" d="M198,199.292s1.41,2.457,2.091,2.312,6.846-4.321,6.6-4.663-3.892-.226-3.892-.226Z" transform="translate(-165.13 -159.74)" fill="#1f4076"/>
      <path id="Tracé_4345" data-name="Tracé 4345" d="M120.67,121.143s-1.191-.506-1.031-1.444,1.031.054,1.031.054.393-.572.823-.434S121.694,120.585,120.67,121.143Z" transform="translate(-104.468 -99.832)" fill="#5c6f99"/>
      <path id="Tracé_4346" data-name="Tracé 4346" d="M149.945,111.008a.118.118,0,0,1-.115-.095c-.029-.165-1.858-8.1-2.821-12.27a.118.118,0,0,1,.226-.052c.113.493,2.789,12.085,2.823,12.282a.115.115,0,0,1-.095.133Z" transform="translate(-125.664 -83.75)" fill="#1f4076"/>
      <path id="Tracé_4347" data-name="Tracé 4347" d="M77.783,118.845a.113.113,0,0,1-.108-.075.115.115,0,0,1,.068-.149l3.243-1.245a.12.12,0,0,1,.081.226l-3.241,1.245Z" transform="translate(-71.993 -98.341)" fill="#1f4076"/>
      <path id="Tracé_4348" data-name="Tracé 4348" d="M89.421,102.191h-.016a.115.115,0,0,1-.1-.131l.608-4.805a.115.115,0,0,1,.131-.1.113.113,0,0,1,.1.129l-.608,4.807A.118.118,0,0,1,89.421,102.191Z" transform="translate(-81.001 -82.695)" fill="#1f4076"/>
      <path id="Tracé_4349" data-name="Tracé 4349" d="M243.345,94.41a.949.949,0,0,1-.124,0,.226.226,0,0,1,.059-.448.452.452,0,0,0,.28-.047.076.076,0,0,0,.018-.057V90.832H242.7a.226.226,0,0,1,0-.452H243.8a.226.226,0,0,1,.226.226v3.246a.513.513,0,0,1-.172.4A.8.8,0,0,1,243.345,94.41Z" transform="translate(-199.549 -77.452)" fill="#1f4076"/>
      <path id="Tracé_4350" data-name="Tracé 4350" d="M219.81,86.654c0-.452,1.2-.814,2.674-.814s2.676.364,2.676.814" transform="translate(-182.011 -73.938)" fill="#f2f1f7"/>
      <path id="Tracé_4351" data-name="Tracé 4351" d="M224.786,86.416a.115.115,0,0,1-.115-.115c0-.292-.974-.7-2.558-.7s-2.556.407-2.556.7a.118.118,0,0,1-.226,0c0-.606,1.437-.931,2.789-.931s2.787.314,2.787.92a.115.115,0,0,1-.12.127Z" transform="translate(-181.639 -73.574)" fill="#1f4076"/>
      <path id="Tracé_4352" data-name="Tracé 4352" d="M218.69,89.06h5.854l-.633,4.832h-4.588Z" transform="translate(-181.144 -76.43)" fill="#f2f1f7"/>
      <path id="Tracé_4353" data-name="Tracé 4353" d="M223.513,93.655h-4.588a.117.117,0,0,1-.115-.1l-.633-4.83a.122.122,0,0,1,.027-.093.12.12,0,0,1,.088-.041h5.856a.12.12,0,0,1,.115.133l-.633,4.83A.12.12,0,0,1,223.513,93.655Zm-4.484-.226h4.382l.6-4.615h-5.587Z" transform="translate(-180.746 -76.066)" fill="#1f4076"/>
      <path id="Tracé_4354" data-name="Tracé 4354" d="M213.876,89.06H212.47l1.788,2.913Z" transform="translate(-176.33 -76.43)" fill="#f2f1f7"/>
      <path id="Tracé_4355" data-name="Tracé 4355" d="M213.839,91.688a.118.118,0,0,1-.1-.057l-1.795-2.913a.115.115,0,0,1,0-.118.113.113,0,0,1,.1-.061h1.406a.118.118,0,0,1,.115.1l.382,2.916a.115.115,0,0,1-.077.124A.106.106,0,0,1,213.839,91.688Zm-1.582-2.913,1.395,2.26-.3-2.26Z" transform="translate(-175.911 -76.028)" fill="#1f4076"/>
      <path id="Tracé_4356" data-name="Tracé 4356" d="M224.973,114.135h-5.5l.445-3.7h4.613Z" transform="translate(-181.748 -92.978)" fill="#f2f1f7"/>
      <path id="Tracé_4357" data-name="Tracé 4357" d="M224.574,113.85h-5.5a.12.12,0,0,1-.088-.041.108.108,0,0,1-.027-.09l.452-3.7a.115.115,0,0,1,.115-.1h4.613a.115.115,0,0,1,.115.1l.452,3.7a.118.118,0,0,1-.027.09A.12.12,0,0,1,224.574,113.85Zm-5.372-.226h5.241l-.418-3.46h-4.4Z" transform="translate(-181.348 -92.576)" fill="#1f4076"/>
      <path id="Tracé_4358" data-name="Tracé 4358" d="M229.76,81.19h.852l-.081,1.062h-.692Z" transform="translate(-189.712 -70.339)" fill="#1f4076"/>
      <path id="Tracé_4359" data-name="Tracé 4359" d="M230.142,81.976h-.692a.111.111,0,0,1-.111-.1l-.081-1.06a.113.113,0,0,1,.113-.122h.852a.109.109,0,0,1,.081.036.111.111,0,0,1,.032.086l-.081,1.06A.113.113,0,0,1,230.142,81.976Zm-.585-.226h.481l.063-.836h-.61Z" transform="translate(-189.324 -69.952)" fill="#1f4076"/>
      <ellipse id="Ellipse_404" data-name="Ellipse 404" cx="0.664" cy="0.936" rx="0.664" ry="0.936" transform="translate(53.672 17.828)" fill="#fff"/>
      <path id="Tracé_4363" data-name="Tracé 4363" d="M290.337,113.657c-.429,0-.777-.47-.777-1.049s.348-1.049.777-1.049.775.47.775,1.049S290.76,113.657,290.337,113.657Zm0-1.871c-.3,0-.551.368-.551.823s.249.823.551.823.549-.368.549-.823S290.636,111.786,290.337,111.786Z" transform="translate(-235.996 -93.845)" fill="#d1d3d4"/>
      <path id="Tracé_4364" data-name="Tracé 4364" d="M292.587,112.06a.762.762,0,0,0,0,.678,1.356,1.356,0,0,1,0,1.184" transform="translate(-238.278 -94.232)" fill="#fff"/>
      <path id="Tracé_4365" data-name="Tracé 4365" d="M292.189,113.695a.133.133,0,0,1-.05,0,.111.111,0,0,1-.05-.151,1.241,1.241,0,0,0,0-1.08.868.868,0,0,1,0-.8.113.113,0,0,1,.154-.045.115.115,0,0,1,.043.154h0a.64.64,0,0,0,0,.581,1.453,1.453,0,0,1,0,1.286A.113.113,0,0,1,292.189,113.695Z" transform="translate(-237.879 -93.882)" fill="#d1d3d4"/>
      <path id="Tracé_4366" data-name="Tracé 4366" d="M308.654,105.33h-3a7.415,7.415,0,0,0-.373,1.842v3.008h3.747v-3.008A4.084,4.084,0,0,0,308.654,105.33Z" transform="translate(-248.163 -89.023)" fill="#f2f1f7"/>
      <path id="Tracé_4367" data-name="Tracé 4367" d="M308.632,109.9h-3.747a.115.115,0,0,1-.115-.118V106.77a7.482,7.482,0,0,1,.377-1.88.118.118,0,0,1,.111-.079h3a.113.113,0,0,1,.1.061,4.186,4.186,0,0,1,.386,1.9v3.008a.115.115,0,0,1-.115.118Zm-3.63-.226h3.512v-2.9a4.258,4.258,0,0,0-.328-1.727h-2.843A6.957,6.957,0,0,0,305,106.77Z" transform="translate(-247.769 -88.621)" fill="#1f4076"/>
      <rect id="Rectangle_2393" data-name="Rectangle 2393" width="3.001" height="0.671" transform="translate(57.49 15.636)" fill="#1f4076"/>
      <path id="Tracé_4368" data-name="Tracé 4368" d="M309.544,102.734h-3a.115.115,0,0,1-.113-.113v-.678a.115.115,0,0,1,.113-.113h3a.113.113,0,0,1,.113.113v.678A.113.113,0,0,1,309.544,102.734Zm-2.888-.226h2.775v-.452h-2.775Z" transform="translate(-249.053 -86.314)" fill="#1f4076"/>
      <ellipse id="Ellipse_405" data-name="Ellipse 405" cx="0.664" cy="0.936" rx="0.664" ry="0.936" transform="translate(58.326 17.828)" fill="#f2f1f7"/>
      <path id="Tracé_4369" data-name="Tracé 4369" d="M310.915,113.657c-.427,0-.775-.47-.775-1.049s.348-1.049.775-1.049.775.47.775,1.049S311.342,113.657,310.915,113.657Zm0-1.871c-.3,0-.549.368-.549.823s.246.823.549.823.549-.368.549-.823S311.218,111.786,310.915,111.786Z" transform="translate(-251.925 -93.845)" fill="#5c6f99"/>
      <path id="Tracé_4370" data-name="Tracé 4370" d="M313.177,112.06a.762.762,0,0,0,0,.678,1.356,1.356,0,0,1,0,1.184" transform="translate(-254.214 -94.232)" fill="#fff"/>
      <path id="Tracé_4371" data-name="Tracé 4371" d="M312.779,113.695a.133.133,0,0,1-.05,0,.111.111,0,0,1-.05-.151,1.241,1.241,0,0,0,0-1.08.868.868,0,0,1,0-.8.113.113,0,0,1,.154-.045.115.115,0,0,1,.043.154h0a.649.649,0,0,0,0,.581,1.453,1.453,0,0,1,0,1.286A.111.111,0,0,1,312.779,113.695Z" transform="translate(-253.816 -93.882)" fill="#5c6f99"/>
      <path id="Tracé_4372" data-name="Tracé 4372" d="M259.257,90.71H253.2a7.111,7.111,0,0,1,1.514,3.969c0,1.467-1.327,2.445-1.169,3.39.106.653.344.782,1,.782H257.9c.653,0,.929-.124,1-.782.122-1.153-1.168-1.932-1.168-3.39A7.1,7.1,0,0,1,259.257,90.71Z" transform="translate(-207.854 -77.707)" fill="#f2f1f7"/>
      <path id="Tracé_4373" data-name="Tracé 4373" d="M257.493,98.575h-3.37c-.655,0-.99-.131-1.112-.879a2.449,2.449,0,0,1,.5-1.512,3.939,3.939,0,0,0,.678-1.908,7.023,7.023,0,0,0-1.487-3.894.117.117,0,0,1,.09-.192h6.059a.12.12,0,0,1,.106.068.124.124,0,0,1-.016.124,7.033,7.033,0,0,0-1.487,3.894,3.444,3.444,0,0,0,.631,1.788,2.646,2.646,0,0,1,.538,1.623C258.531,98.437,258.171,98.575,257.493,98.575Zm-4.475-8.15a6.983,6.983,0,0,1,1.395,3.842,4.153,4.153,0,0,1-.7,2.034,2.254,2.254,0,0,0-.47,1.356c.1.594.285.678.881.678h3.37c.608,0,.82-.1.881-.678a2.453,2.453,0,0,0-.506-1.48,3.718,3.718,0,0,1-.664-1.908,6.923,6.923,0,0,1,1.395-3.842Z" transform="translate(-207.446 -77.305)" fill="#1f4076"/>
      <rect id="Rectangle_2394" data-name="Rectangle 2394" width="2.841" height="0.558" transform="translate(46.944 14.757)" fill="#fce15c"/>
      <rect id="Rectangle_2395" data-name="Rectangle 2395" width="2.17" height="2.283" transform="translate(47.278 15.315)" fill="#fce15c"/>
      <rect id="Rectangle_2396" data-name="Rectangle 2396" width="0.328" height="1.623" transform="translate(48.2 17.595)" fill="#fce15c"/>
      <path id="Tracé_4374" data-name="Tracé 4374" d="M260.471,116.58h-3.318c-.3.366-.8,1.065-.515,1.544s1.13.335,1.582.337h1.747a4.615,4.615,0,0,0,.5-.018,1.3,1.3,0,0,0,.4-.043.35.35,0,0,0,.174-.226A1.967,1.967,0,0,0,260.471,116.58Z" transform="translate(-210.449 -97.73)" fill="#5c6f99"/>
      <path id="Tracé_4375" data-name="Tracé 4375" d="M263.628,100.676h-2.17a.118.118,0,0,1,0-.226h2.17a.118.118,0,0,1,0,.226Z" transform="translate(-214.18 -85.246)" fill="#5c6f99"/>
      <path id="Tracé_4376" data-name="Tracé 4376" d="M308.092,159.6h-1.557l-.305-22.653H308.4Z" transform="translate(-248.899 -113.496)" fill="#f2f1f7"/>
      <path id="Tracé_4377" data-name="Tracé 4377" d="M307.69,159.357h-1.557a.12.12,0,0,1-.118-.115L305.71,136.6a.115.115,0,0,1,.117-.118H308a.111.111,0,0,1,.081.034.115.115,0,0,1,.034.084l-.3,22.644a.115.115,0,0,1-.12.115Zm-1.442-.226h1.336l.3-22.418h-1.932Z" transform="translate(-248.496 -113.133)" fill="#1f4076"/>
      <path id="Tracé_4378" data-name="Tracé 4378" d="M260.131,196.254A7.483,7.483,0,0,0,258.21,195a9.982,9.982,0,0,0,1.546,5.239h2.506" transform="translate(-214.681 -161.157)" fill="#fce15c"/>
      <path id="Tracé_4379" data-name="Tracé 4379" d="M261.86,199.958h-2.507a.118.118,0,0,1-.1-.057,10.159,10.159,0,0,1-1.564-5.3.12.12,0,0,1,.163-.106,7.659,7.659,0,0,1,1.953,1.275.115.115,0,0,1,.011.165.117.117,0,0,1-.165,0,7.684,7.684,0,0,0-1.731-1.159,10.048,10.048,0,0,0,1.5,4.943h2.439a.118.118,0,1,1,0,.226Z" transform="translate(-214.279 -160.758)" fill="#1f4076"/>
      <path id="Tracé_4380" data-name="Tracé 4380" d="M270.106,185.082a9.737,9.737,0,0,0-3.133-5.232,11.645,11.645,0,0,0-.452,4.681,17.289,17.289,0,0,0,.868,3.985h2.7" transform="translate(-221.064 -149.431)" fill="#fce15c"/>
      <path id="Tracé_4381" data-name="Tracé 4381" d="M269.661,188.22h-2.7a.118.118,0,0,1-.111-.079,17.389,17.389,0,0,1-.872-4.014,11.7,11.7,0,0,1,.463-4.728.115.115,0,0,1,.077-.075.12.12,0,0,1,.106.02,9.961,9.961,0,0,1,3.175,5.3.12.12,0,0,1-.093.138.118.118,0,0,1-.136-.093,9.678,9.678,0,0,0-2.963-5.051,11.576,11.576,0,0,0-.4,4.466,17.026,17.026,0,0,0,.834,3.881h2.613a.118.118,0,0,1,0,.226Z" transform="translate(-220.646 -149.02)" fill="#1f4076"/>
      <path id="Tracé_4382" data-name="Tracé 4382" d="M280.322,198.507h-2.389a6.183,6.183,0,0,1,.9-3.164l.154-.269c1.383-2.339,2.647-2.314,2.647-2.314A7.729,7.729,0,0,1,280.322,198.507Z" transform="translate(-229.947 -159.423)" fill="#fce15c"/>
      <path id="Tracé_4383" data-name="Tracé 4383" d="M279.927,198.211h-2.389a.118.118,0,0,1-.115-.113,6.294,6.294,0,0,1,.918-3.225l.154-.269c1.4-2.371,2.7-2.38,2.751-2.375a.12.12,0,0,1,.113.093,7.829,7.829,0,0,1-1.333,5.838A.115.115,0,0,1,279.927,198.211Zm-2.274-.226h2.21a7.624,7.624,0,0,0,1.286-5.506c-.305.05-1.34.362-2.454,2.249-.05.084-.1.174-.151.264a6.189,6.189,0,0,0-.89,2.986Z" transform="translate(-229.551 -159.012)" fill="#1f4076"/>
      <path id="Tracé_4384" data-name="Tracé 4384" d="M267.966,221.973h-4.681l-.755-3.783h6.19Z" transform="translate(-218.027 -179.105)" fill="#1f4076"/>
    </g>
    <g id="_571_lunch_break_flatline" data-name="#571_lunch_break_flatline" transform="translate(-7964.002 -476)">
      <path id="Tracé_4385" data-name="Tracé 4385" d="M147.833,171.413,145.21,186.5s-2.446-.69-2.566-.739-1.455-10.466-.685-12.635,3.96-4.073,4.535-4.265,1.355,2.079,1.355,2.079" transform="translate(-133.086 -137.11)" fill="#f2f1f7"/>
      <path id="Tracé_4386" data-name="Tracé 4386" d="M144.892,186.263a.128.128,0,0,0,.067-.021.123.123,0,0,0,.059-.087l2.631-15.083a.128.128,0,0,0-.1-.149.131.131,0,0,0-.149.105l-2.615,14.947c-.888-.257-2.1-.6-2.371-.68-.2-.814-1.378-10.479-.665-12.488.77-2.179,3.975-4.027,4.455-4.186.272-.095.837.957,1.193,2a.128.128,0,1,0,.241-.085c-.192-.559-.867-2.374-1.517-2.156-.69.231-3.85,2.189-4.62,4.342-.416,1.17-.231,4.543,0,7.168.151,1.73.321,3.146.411,3.837.223,1.745.257,1.761.352,1.8.128.049,2.33.67,2.582.742Z" transform="translate(-132.768 -136.749)" fill="#1f4076"/>
      <path id="Tracé_4387" data-name="Tracé 4387" d="M159.351,235.479s.323,2.477-.257,2.669-7.586.3-7.443-.806,5.133-2.6,5.133-2.6Z" transform="translate(-147.227 -186.093)" fill="#1f4076"/>
      <path id="Tracé_4388" data-name="Tracé 4388" d="M156.458,238.093a12.97,12.97,0,0,0,2.359-.136c.634-.21.385-2.364.329-2.792a.113.113,0,0,0-.08-.095l-2.566-.737a.092.092,0,0,0-.064,0c-.513.154-5.053,1.54-5.2,2.695a.413.413,0,0,0,.177.382C152.031,237.921,154.525,238.093,156.458,238.093Zm2.474-2.823c.121.988.141,2.366-.187,2.474-.462.157-6.265.257-7.186-.513-.11-.087-.1-.157-.1-.177.11-.844,3.624-2.081,5.012-2.5Z" transform="translate(-146.918 -185.787)" fill="#1f4076"/>
      <path id="Tracé_4389" data-name="Tracé 4389" d="M145.871,172.5s-2.292-.185-2.533.2-5.816,13.256-5.816,13.256l-2.8-1.442s3.3-12.216,3.75-13.263,3.223-2.88,5.043-3.121S145.871,172.5,145.871,172.5Z" transform="translate(-129.313 -136.574)" fill="#f2f1f7"/>
      <path id="Tracé_4390" data-name="Tracé 4390" d="M137.158,185.758a.122.122,0,0,0,.044,0,.131.131,0,0,0,.074-.069c1.927-4.448,5.621-12.94,5.808-13.238a5.4,5.4,0,0,1,2.412-.141.128.128,0,0,0,.1-.038.131.131,0,0,0,.033-.105c-.015-.133-.39-3.272-1.6-4.219a1.168,1.168,0,0,0-.9-.257c-1.889.257-4.679,2.112-5.146,3.19s-3.621,12.781-3.757,13.281a.128.128,0,0,0,.067.146l2.8,1.447A.118.118,0,0,0,137.158,185.758ZM144.385,172c-.665,0-1.365.064-1.519.311-.234.372-5.159,11.734-5.769,13.145l-2.592-1.337c.318-1.173,3.3-12.17,3.719-13.145s3.159-2.805,4.943-3.039a.911.911,0,0,1,.706.21c.983.77,1.394,3.247,1.486,3.893C145.114,172.017,144.755,172,144.385,172Z" transform="translate(-128.948 -136.243)" fill="#1f4076"/>
      <path id="Tracé_4391" data-name="Tracé 4391" d="M148.748,106.412s-.991-.613-1.045-.8-.488-1.66-.77-1.732-.341.09-.18.885c0,0-1.355-1.519-1.735-1.3s-.513,1.137-.377,1.54a28.024,28.024,0,0,0,3.051,3.08Z" transform="translate(-134.723 -88.495)" fill="#f2f1f7"/>
      <path id="Tracé_4392" data-name="Tracé 4392" d="M147.324,107.891h.018a.126.126,0,0,0,.092-.059l1.045-1.7a.128.128,0,0,0-.041-.175,5.132,5.132,0,0,1-.993-.729c-.513-1.727-.755-1.8-.847-1.817a.344.344,0,0,0-.323.051c-.095.092-.126.257-.09.554-.5-.513-1.252-1.206-1.6-1.009a1.754,1.754,0,0,0-.439,1.709,18.979,18.979,0,0,0,2.7,2.774l.39.364a.123.123,0,0,0,.087.033Zm.87-1.8-.9,1.455-.277-.257a24.263,24.263,0,0,1-2.628-2.672,1.556,1.556,0,0,1,.321-1.4c.151-.085.9.513,1.576,1.283a.128.128,0,0,0,.221-.11c-.126-.621-.077-.729-.059-.747h0a.206.206,0,0,1,.082,0,4.447,4.447,0,0,1,.662,1.627c.059.21.608.585,1,.832Z" transform="translate(-134.343 -88.145)" fill="#1f4076"/>
      <path id="Tracé_4393" data-name="Tracé 4393" d="M124.4,116.673l-7.538-3.4-1.712,1.8s2.625,4.106,4.84,4.029S124.4,116.673,124.4,116.673Z" transform="translate(-102.818 -95.798)" fill="#fce15c"/>
      <path id="Tracé_4394" data-name="Tracé 4394" d="M168.108,126.53H161.99v.97a2.9,2.9,0,0,0,2.9,2.9h.321a2.9,2.9,0,0,0,2.9-2.9v-.97Z" transform="translate(-158.551 -105.655)" fill="#5c6f99"/>
      <path id="Tracé_4395" data-name="Tracé 4395" d="M164.516,130.154h.321a3.028,3.028,0,0,0,3.026-3.026v-.97a.128.128,0,0,0-.128-.128h-6.116a.128.128,0,0,0-.128.128v.97A3.028,3.028,0,0,0,164.516,130.154Zm3.08-3.868v.842a2.772,2.772,0,0,1-2.769,2.769h-.321a2.772,2.772,0,0,1-2.769-2.769v-.849Z" transform="translate(-158.174 -105.283)" fill="#5c6f99"/>
      <path id="Tracé_4396" data-name="Tracé 4396" d="M157.5,131.952a10.588,10.588,0,0,1-2.361.287c-.336-.072-.6-.6-.939-.649a4.628,4.628,0,0,0-2.31.331c-.454.37-.867,2.3-.6,2.441a30.07,30.07,0,0,0,3.757-.146c.529-.023,3.08-.026,3.08-.026Z" transform="translate(-145.791 -109.4)" fill="#f2f1f7"/>
      <path id="Tracé_4397" data-name="Tracé 4397" d="M151.433,134.131c.513,0,1.383-.054,2.566-.141.318-.023.57-.041.693-.046.513-.026,3.052-.026,3.08-.026a.126.126,0,0,0,.123-.162l-.626-2.24a.126.126,0,0,0-.105-.092.118.118,0,0,0-.092.023,10.987,10.987,0,0,1-2.261.257.993.993,0,0,1-.4-.29,1.1,1.1,0,0,0-.552-.362,4.751,4.751,0,0,0-2.41.359,3.912,3.912,0,0,0-.729,2.351.346.346,0,0,0,.146.3A1.555,1.555,0,0,0,151.433,134.131Zm6.177-.47c-.583,0-2.466,0-2.921.026-.123,0-.377.023-.7.046a22.845,22.845,0,0,1-3,.113,3.848,3.848,0,0,1,.624-2.225,4.833,4.833,0,0,1,2.215-.305.944.944,0,0,1,.408.29,1.155,1.155,0,0,0,.513.359,9.163,9.163,0,0,0,2.294-.275Z" transform="translate(-145.448 -109)" fill="#1f4076"/>
      <path id="Tracé_4398" data-name="Tracé 4398" d="M89.067,85.108a6.347,6.347,0,0,0-1.686,2.638c-.192,1.2.29,12.732-1.155,16.325l-6.986.914,2.649,4.733H94.351L97.056,99.2a82.556,82.556,0,0,0-2.31-11.939c-1.45-4.625-4-4.8-5.685-2.158" transform="translate(-66.259 -73.58)" fill="#fce15c"/>
      <path id="Tracé_4399" data-name="Tracé 4399" d="M139.2,192.434,136.835,206.5H135.39l2.528-15.014Z" transform="translate(-122.809 -153.943)" fill="#1f4076"/>
      <path id="Tracé_4400" data-name="Tracé 4400" d="M135.026,206.257h1.445a.131.131,0,0,0,.128-.108l2.359-14.069a.128.128,0,0,0-.049-.123l-1.283-.947a.136.136,0,0,0-.126-.015.131.131,0,0,0-.077.1L134.9,206.108a.129.129,0,0,0,.131.149Zm1.337-.257h-1.186l2.471-14.659,1.047.77Z" transform="translate(-122.446 -153.568)" fill="#1f4076"/>
      <path id="Tracé_4401" data-name="Tracé 4401" d="M62.482,134.289h15.85l5.079-21.019a8.312,8.312,0,0,0-2.672,2.338c-.58,1.145-4.383,16.328-4.383,16.328H62.29Z" transform="translate(-48.264 -95.798)" fill="#1f4076"/>
      <path id="Tracé_4402" data-name="Tracé 4402" d="M62.1,134.051h15.85a.126.126,0,0,0,.123-.1l5.082-21.019a.128.128,0,0,0-.187-.141,8.229,8.229,0,0,0-2.723,2.392c-.559,1.109-4.014,14.834-4.363,16.248H61.916a.133.133,0,0,0-.095.041.136.136,0,0,0-.033.1l.192,2.361A.131.131,0,0,0,62.1,134.051Zm15.748-.257H62.218l-.169-2.1H75.975a.128.128,0,0,0,.126-.1c.039-.151,3.809-15.173,4.363-16.292a7.333,7.333,0,0,1,2.361-2.128Z" transform="translate(-47.882 -95.431)" fill="#1f4076"/>
      <path id="Tracé_4403" data-name="Tracé 4403" d="M73.07,195.17l3.18,14.069H77.5l-2.89-14.069Z" transform="translate(-45.121 -156.679)" fill="#1f4076"/>
      <path id="Tracé_4404" data-name="Tracé 4404" d="M75.864,209h1.265a.126.126,0,0,0,.126-.154l-2.89-14.069a.131.131,0,0,0-.126-.1H72.7a.131.131,0,0,0-.126.157L75.751,208.9A.126.126,0,0,0,75.864,209Zm1.1-.257h-.993l-3.121-13.813h1.283Z" transform="translate(-44.748 -156.307)" fill="#1f4076"/>
      <path id="Tracé_4456" data-name="Tracé 4456" d="M110.1,97.657s-2.546,5.554-3.85,6.082-8,1.263-8,1.263l-.639,2.823s8.508,1.345,11.98.334,3.632-6.07,3.406-9.344S111.273,95.393,110.1,97.657Z" transform="translate(-86.989 -83.056)" fill="#fce15c"/>
      <path id="Tracé_4457" data-name="Tracé 4457" d="M95.921,125.738c1.54,0,3.593-.149,4.656-.878,1.753-1.214,2.8-5.484,2.844-5.664a.128.128,0,1,0-.249-.062c0,.044-1.068,4.363-2.741,5.513s-6.326.77-6.375.77a.129.129,0,1,0-.021.257C94.111,125.672,94.9,125.738,95.921,125.738Z" transform="translate(-76.393 -100.084)" fill="#1f4076"/>
      <path id="Tracé_4461" data-name="Tracé 4461" d="M108.831,108.906h0c.167,0,4.068-.1,5.931-1.027s3.827-5.939,3.906-6.159a.128.128,0,0,0-.072-.164.131.131,0,0,0-.167.072c-.021.051-1.989,5.133-3.78,6.013s-5.782,1-5.823,1a.128.128,0,0,0,0,.257Z" transform="translate(-95.439 -87.083)" fill="#1f4076"/>
      <path id="Tracé_4462" data-name="Tracé 4462" d="M175.193,233.386s-.18,3.144-.649,3.216-7.494-2.6-7.494-3.175.77-.821,1.748-1.163c.108-.038,3.542-.285,3.542-.285Z" transform="translate(-166.932 -184.041)" fill="#1f4076"/>
      <path id="Tracé_4463" data-name="Tracé 4463" d="M174.206,236.407h.033c.513-.08.688-2.351.744-3.336a.115.115,0,0,0-.064-.108l-2.859-1.394a.116.116,0,0,0-.059,0c-1.027.074-3.46.257-3.57.29l-.115.041c-.952.334-1.707.6-1.707,1.229a.371.371,0,0,0,.164.257A35.009,35.009,0,0,0,174.206,236.407Zm.547-3.259c-.1,1.607-.344,2.99-.549,3.036-.439.051-7.186-2.523-7.363-3.08,0-.465.688-.706,1.555-1.009l.116-.039c.126-.028,2.14-.182,3.483-.28Z" transform="translate(-166.61 -183.733)" fill="#1f4076"/>
      <path id="Tracé_4464" data-name="Tracé 4464" d="M98.693,50.949s-1.445,4.62-.482,5.662a2.3,2.3,0,0,0,2.264.513c.046.08,0,3.131,0,3.131l3.205-1.211V53.682C103.68,51.768,100.089,48.18,98.693,50.949Z" transform="translate(-77.666 -48.719)" fill="#f2f1f7"/>
      <path id="Tracé_4465" data-name="Tracé 4465" d="M100.091,60a.147.147,0,0,0,.046,0l3.2-1.206a.126.126,0,0,0,.085-.118V53.309a4.948,4.948,0,0,0-3.218-3.816,1.669,1.669,0,0,0-2.012,1.027v.018c-.059.192-1.455,4.709-.454,5.787a2.188,2.188,0,0,0,2.22.565h.026c.015.434,0,1.994-.015,2.99a.131.131,0,0,0,.056.108A.121.121,0,0,0,100.091,60Zm3.08-1.422-2.946,1.106a16.324,16.324,0,0,0-.023-3.016c-.059-.087-.151-.067-.3-.033a1.925,1.925,0,0,1-1.974-.488c-.747-.8.11-4.25.513-5.526a1.421,1.421,0,0,1,1.72-.883,4.753,4.753,0,0,1,3.01,3.567Z" transform="translate(-77.283 -48.345)" fill="#1f4076"/>
      <path id="Tracé_4466" data-name="Tracé 4466" d="M78.4,46.882a4.969,4.969,0,0,1,2.374,3.783s.649-.939.988-.11a1.25,1.25,0,0,1-.675,1.771,26.864,26.864,0,0,0,.814,8.213c1.124,3.793,2.815,5.664,4.484,4.976s1.009-2.566.362-5.926S83.891,49.869,83.6,47.526,78.648,45.275,78.4,46.882Z" transform="translate(-56.422 -45.581)" fill="#f2f1f7"/>
      <path id="Tracé_4467" data-name="Tracé 4467" d="M85.361,65.393a1.938,1.938,0,0,0,.729-.149c1.54-.639,1.222-2.22.685-4.838q-.121-.577-.257-1.232c-.311-1.609-.975-3.9-1.617-6.108a52.033,52.033,0,0,1-1.524-5.952c-.159-1.3-1.583-1.9-2.926-1.925-1.127,0-2.392.375-2.533,1.283a.128.128,0,0,0,.067.133,4.858,4.858,0,0,1,2.31,3.67.128.128,0,0,0,.234.062c.077-.11.339-.418.531-.4.108,0,.187.149.231.257a1.12,1.12,0,0,1-.611,1.607.128.128,0,0,0-.072.108,27.39,27.39,0,0,0,.819,8.259c.79,2.664,1.884,4.445,3.08,5.015A1.928,1.928,0,0,0,85.361,65.393ZM80.39,45.447h.067c1.232.018,2.536.552,2.677,1.7a50.983,50.983,0,0,0,1.54,5.99c.642,2.207,1.3,4.489,1.612,6.085.085.436.167.849.257,1.234.529,2.566.819,3.991-.531,4.548a1.617,1.617,0,0,1-1.368-.046C83.513,64.42,82.469,62.7,81.7,60.1a26.8,26.8,0,0,1-.814-8.1,1.364,1.364,0,0,0,.67-1.9c-.105-.257-.257-.4-.441-.421a.77.77,0,0,0-.57.257A5.177,5.177,0,0,0,78.2,46.424C78.378,45.778,79.4,45.447,80.39,45.447Z" transform="translate(-56.081 -45.19)" fill="#1f4076"/>
      <path id="Tracé_4468" data-name="Tracé 4468" d="M119.787,63.33s-.77,1.057-.6,1.255.654.087.654.087" transform="translate(-99.286 -58.674)" fill="#f2f1f7"/>
      <path id="Tracé_4469" data-name="Tracé 4469" d="M119.167,64.437a1.394,1.394,0,0,0,.305-.033.131.131,0,1,0-.054-.257c-.169.036-.452.044-.531-.049A3.451,3.451,0,0,1,119.5,63a.128.128,0,0,0-.028-.177.126.126,0,0,0-.18.028c-.377.513-.788,1.186-.6,1.412A.616.616,0,0,0,119.167,64.437Z" transform="translate(-98.892 -58.28)" fill="#1f4076"/>
      <path id="Tracé_4470" data-name="Tracé 4470" d="M112.06,71.48s.9,1.265,1.589,0" transform="translate(-91.274 -64.733)" fill="#f2f1f7"/>
      <path id="Tracé_4471" data-name="Tracé 4471" d="M112.556,71.782h.044a1.006,1.006,0,0,0,.785-.626.126.126,0,0,0-.051-.175.131.131,0,0,0-.175.051c-.169.316-.364.48-.575.493-.4.031-.793-.513-.8-.513a.129.129,0,0,0-.21.149A1.442,1.442,0,0,0,112.556,71.782Z" transform="translate(-90.898 -64.345)" fill="#1f4076"/>
      <ellipse id="Ellipse_408" data-name="Ellipse 408" cx="0.126" cy="0.234" rx="0.126" ry="0.234" transform="translate(21.687 3.88) rotate(-175.52)" fill="#1f4076"/>
      <path id="Tracé_4472" data-name="Tracé 4472" d="M105.3,76.111a2.942,2.942,0,0,0,1.3-.621,4,4,0,0,1-1.283,2.656Z" transform="translate(-82.492 -67.714)" fill="#1f4076"/>
      <path id="Tracé_4473" data-name="Tracé 4473" d="M104.943,77.9a.131.131,0,0,0,.08-.028,4.082,4.082,0,0,0,1.335-2.751.128.128,0,0,0-.228-.085,2.731,2.731,0,0,1-1.229.575.126.126,0,0,0-.1.126l.015,2.035a.128.128,0,0,0,.072.115A.138.138,0,0,0,104.943,77.9Zm1.106-2.471a3.878,3.878,0,0,1-.993,2.053v-1.65A3.762,3.762,0,0,0,106.05,75.433Z" transform="translate(-82.12 -67.344)" fill="#1f4076"/>
    </g>
  </g>
</svg>
