<svg xmlns="http://www.w3.org/2000/svg" width="24.204" height="18.533" viewBox="0 0 24.204 18.533">
  <path id="Icon_weather-sunrise" data-name="Icon weather-sunrise" d="M3.3,15.834a.97.97,0,0,1,.3-.682,1.063,1.063,0,0,1,.692-.286h2.3a.874.874,0,0,1,.662.286.972.972,0,0,1,.267.682.993.993,0,0,1-.267.711.89.89,0,0,1-.662.286h-2.3a.942.942,0,0,1-.692-.3A1,1,0,0,1,3.3,15.834ZM6.59,7.95a.949.949,0,0,1,.257-.672,1.051,1.051,0,0,1,.7-.3.927.927,0,0,1,.672.286L9.84,8.9a1.026,1.026,0,0,1,.277.682.946.946,0,0,1-.267.692.9.9,0,0,1-.652.277,1.063,1.063,0,0,1-.692-.286L6.847,8.672A1.13,1.13,0,0,1,6.59,7.95ZM8.566,21.287a.866.866,0,0,1,.286-.672.932.932,0,0,1,.672-.257h2.6l3.072-2.885a.267.267,0,0,1,.336,0l3.122,2.885h2.736a.924.924,0,0,1,.682.277.89.89,0,0,1,.286.662.978.978,0,0,1-.968.968H18.049a.585.585,0,0,1-.286-.069l-2.381-2.243L13.021,22.2a.5.5,0,0,1-.277.069H9.524a.933.933,0,0,1-.682-.286A.962.962,0,0,1,8.566,21.287Zm.909-5.453a5.579,5.579,0,0,0,.613,2.608c.02.119.109.178.247.178h1.857a.163.163,0,0,0,.148-.079c.03-.059,3.23-2.909,3.191-2.978-.632-.761,0-.011,0,0-.015-.021,2.895,2.919,2.914,2.978s.069.079.148.079H20.47a.2.2,0,0,0,.227-.178,5.153,5.153,0,0,0,.632-2.608,5.669,5.669,0,0,0-.474-2.292,6.143,6.143,0,0,0-1.265-1.887A6.027,6.027,0,0,0,17.7,10.39a5.694,5.694,0,0,0-2.292-.464,5.915,5.915,0,0,0-2.3.464,6.018,6.018,0,0,0-1.9,1.265,5.888,5.888,0,0,0-1.274,1.887A5.8,5.8,0,0,0,9.474,15.834Zm4.969-8.852V4.71a.938.938,0,0,1,.277-.7.953.953,0,0,1,.7-.277.931.931,0,0,1,.692.277.976.976,0,0,1,.277.711V6.992a.938.938,0,0,1-.277.7.954.954,0,0,1-.692.277.938.938,0,0,1-.7-.277A.96.96,0,0,1,14.444,6.982ZM20.717,9.59a1.025,1.025,0,0,1,.267-.682l1.6-1.63a.955.955,0,0,1,.692-.286.961.961,0,0,1,.958.968,1.073,1.073,0,0,1-.257.721l-1.66,1.591a1.025,1.025,0,0,1-.692.286.83.83,0,0,1-.652-.277A1,1,0,0,1,20.717,9.59ZM23.3,15.834a.955.955,0,0,1,.267-.682.868.868,0,0,1,.652-.286h2.322a.933.933,0,0,1,.682.286.949.949,0,0,1,.286.682.978.978,0,0,1-.286.7.906.906,0,0,1-.682.3H24.214a.874.874,0,0,1-.662-.286A1.066,1.066,0,0,1,23.3,15.834Z" transform="translate(-3.3 -3.732)" fill="#4973d2"/>
</svg>
