<svg xmlns="http://www.w3.org/2000/svg" width="18.726" height="18.726" viewBox="0 0 18.726 18.726">
  <path id="apartment_FILL0_wght400_GRAD0_opsz24" d="M120-821.274v-14.564h4.161V-840h10.4v8.322h4.161v10.4H130.4v-4.161h-2.081v4.161Zm2.081-2.081h2.081v-2.081h-2.081Zm0-4.161h2.081V-829.6h-2.081Zm0-4.161h2.081v-2.081h-2.081Zm4.161,4.161h2.081V-829.6h-2.081Zm0-4.161h2.081v-2.081h-2.081Zm0-4.161h2.081v-2.081h-2.081Zm4.161,8.323h2.081V-829.6H130.4Zm0-4.161h2.081v-2.081H130.4Zm0-4.161h2.081v-2.081H130.4Zm4.161,12.484h2.081v-2.081h-2.081Zm0-4.161h2.081V-829.6h-2.081Z" transform="translate(-120 840)" fill="#4973d2"/>
</svg>
