<svg xmlns="http://www.w3.org/2000/svg" width="45.34" height="53.106" viewBox="0 0 45.34 53.106">
  <g id="_002" data-name="002" transform="translate(-106.574 -39.174)">
    <path id="Tracé_4157" data-name="Tracé 4157" d="M116.139,93.19c-.077.3,23.114,3.647,23.114,3.647l-1.674,7.381s-15.209-1.674-23.268-2.969Z" transform="translate(-3.616 -32.192)" fill="#fff"/>
    <path id="Tracé_4163" data-name="Tracé 4163" d="M147.069,62.58l1.115,8.912c-4.2-.565-7.576.981-9.317,4.258a9.245,9.245,0,0,0,1.217,10.381c2.568,2.861,6.236,3.6,10.18,2.055l1.341,10.73-39.694,4.936-4.53-36.314L119.944,66a2.768,2.768,0,0,0,2.363-3.431,8.306,8.306,0,0,0-.616-1.592,6.061,6.061,0,0,1,8.095-8.336,6.164,6.164,0,0,1,3.241,6.569c-.087.514-.205,1.027-.283,1.541a2.877,2.877,0,0,0,3.339,3.262C138.167,63.577,144.922,62.847,147.069,62.58Z" transform="translate(-0.248 -12.128)" fill="#B6462C" stroke="#B6462C" stroke-width="1" opacity="0.2"/>
    <path id="Tracé_4164" data-name="Tracé 4164" d="M111.665,103.872a.231.231,0,0,1-.154-.051.241.241,0,0,1-.1-.175l-4.535-36.309a.257.257,0,0,1,.226-.288l.878-.113,11.685-1.459a2.568,2.568,0,0,0,1.8-1.1,2.435,2.435,0,0,0,.339-2,7.8,7.8,0,0,0-.6-1.541,6.318,6.318,0,0,1,8.439-8.645,6.431,6.431,0,0,1,3.375,6.842c-.036.226-.082.447-.123.668s-.113.565-.159.853a2.774,2.774,0,0,0,.842,2.342,2.4,2.4,0,0,0,2.193.627c1.541-.318,5.65-.791,8.655-1.135l2.358-.277a.262.262,0,0,1,.288.221l1.109,8.912a.252.252,0,0,1-.288.288c-4.073-.544-7.371.955-9.05,4.109a9.035,9.035,0,0,0,1.176,10.093c2.471,2.763,6.081,3.477,9.9,1.957a.252.252,0,0,1,.349.205l1.335,10.735a.257.257,0,0,1-.051.19.246.246,0,0,1-.17.092L111.7,103.862Zm-4.243-36.345,4.469,35.8,39.18-4.89L149.8,88.288c-3.914,1.448-7.6.652-10.16-2.214A9.559,9.559,0,0,1,138.395,75.4c1.741-3.282,5.1-4.885,9.245-4.433l-1.027-8.331-2.106.247c-2.83.324-7.109.817-8.609,1.13a2.912,2.912,0,0,1-2.656-.755,3.251,3.251,0,0,1-1.007-2.779c.046-.293.1-.586.164-.878l.123-.652a5.922,5.922,0,0,0-3.107-6.3,5.8,5.8,0,0,0-7.746,7.956,8.218,8.218,0,0,1,.637,1.644,2.964,2.964,0,0,1-.411,2.424A3.082,3.082,0,0,1,119.734,66l-11.685,1.464Z" transform="translate(0 -11.907)" fill="#B6462C"/>
  </g>
</svg>
