<svg xmlns="http://www.w3.org/2000/svg" width="36.745" height="47.922" viewBox="0 0 36.745 47.922">
  <path id="Tracé_76" data-name="Tracé 76" d="M18.166.158a17.07,17.07,0,0,0-7.052,1.484,18.005,18.005,0,0,0-5.945,4.3,19.348,19.348,0,0,0-3.891,6.433A20.275,20.275,0,0,0,.061,19.918q0,11.493,16.618,27.062a2.191,2.191,0,0,0,3.011,0q16.574-15.58,16.6-27.062a20.269,20.269,0,0,0-1.218-7.545,19.349,19.349,0,0,0-3.9-6.436,18.006,18.006,0,0,0-5.951-4.3A17.069,17.069,0,0,0,18.166.158Zm0,24.1a4.337,4.337,0,0,1-2.513-.816,4.769,4.769,0,0,1-1.665-2.163,5.108,5.108,0,0,1-.256-2.783,4.923,4.923,0,0,1,1.239-2.466,4.451,4.451,0,0,1,2.317-1.319,4.275,4.275,0,0,1,2.615.272,4.6,4.6,0,0,1,2.033,1.772,5.045,5.045,0,0,1-.564,6.087A4.407,4.407,0,0,1,18.166,24.255Z" transform="translate(0.198 0.092)" fill="rgba(216,118,95,0.2)" stroke="#d8765f" stroke-width="0.5"/>
</svg>
