<svg xmlns="http://www.w3.org/2000/svg" width="44.18" height="35.427" viewBox="0 0 44.18 35.427">
  <path id="Tracé_1033" data-name="Tracé 1033" d="M23.829,4H8.549A6.54,6.54,0,0,0,2,10.549V28.012a6.54,6.54,0,0,0,6.549,6.549L6.868,36.242a1.544,1.544,0,1,0,2.183,2.183l3.864-3.864H17.28V23.646H7.457a1.081,1.081,0,0,1-1.091-1.091V9.457A1.081,1.081,0,0,1,7.457,8.366H24.921a1.081,1.081,0,0,1,1.091,1.091v3.274h4.366V10.549A6.54,6.54,0,0,0,23.829,4ZM8.549,25.829a2.183,2.183,0,1,1-2.183,2.183A2.189,2.189,0,0,1,8.549,25.829Zm33.988-9.474a2.189,2.189,0,0,0-2.117-1.441h-15.7a2.218,2.218,0,0,0-2.139,1.441l-3.1,8.972V36.765a2.183,2.183,0,0,0,4.366-.022V34.561H41.314v2.183a2.183,2.183,0,0,0,4.366.022l-.022-11.438ZM25.51,17.1H39.655a1.1,1.1,0,0,1,1.026.742l1.506,4.366a1.091,1.091,0,0,1-1.026,1.441H24.026A1.091,1.091,0,0,1,23,22.205l1.506-4.366A1.016,1.016,0,0,1,25.51,17.1Zm-1.681,13.1a2.183,2.183,0,1,1,2.183-2.183A2.189,2.189,0,0,1,23.829,30.195Zm17.463,0a2.183,2.183,0,1,1,2.183-2.183A2.189,2.189,0,0,1,41.292,30.195Z" transform="translate(-1.75 -3.75)" fill="rgba(182,70,44,0.2)" stroke="#b6462c" stroke-width="0.5"/>
</svg>
