<svg xmlns="http://www.w3.org/2000/svg" width="51.078" height="38.184" viewBox="0 0 51.078 38.184">
  <g id="Groupe_2063" data-name="Groupe 2063" transform="translate(-1606.133 -1063.882)">
    <g id="Screen_Icon" data-name="Screen Icon" transform="translate(1606.233 1063.982)">
      <g id="responsive-design" transform="translate(0 0)">
        <path id="Tracé_1021" data-name="Tracé 1021" d="M32.029,40.746a.382.382,0,0,1-.4.352H18.3a.382.382,0,0,1-.4-.352.387.387,0,0,1,.4-.352,2.466,2.466,0,0,0,1.858-.67,3.888,3.888,0,0,0,.808-2.826h7.99a3.933,3.933,0,0,0,.808,2.833,2.49,2.49,0,0,0,1.858.663A.387.387,0,0,1,32.029,40.746ZM43.46,7.055H6.468A3.728,3.728,0,0,0,2.51,10.509V32.739a3.728,3.728,0,0,0,3.958,3.454h25.18V31.872H6.468a.934.934,0,0,1-.986-.867v-20.5a.934.934,0,0,1,.986-.867H43.46a.934.934,0,0,1,.986.867v9.9h2.973v-9.9A3.728,3.728,0,0,0,43.46,7.055ZM24.968,33.113a.929.929,0,1,1-1.058.923A.986.986,0,0,1,24.968,33.113Z" transform="translate(-2.51 -7.055)" fill="#b6462c" stroke="#7b99de" stroke-width="0.2"/>
        <path id="Tracé_1024" data-name="Tracé 1024" d="M58.088,27H42A2.287,2.287,0,0,0,39.58,29.11v19.7A2.292,2.292,0,0,0,42,50.924H58.088a2.287,2.287,0,0,0,2.424-2.115V29.11A2.282,2.282,0,0,0,58.088,27Zm-8.474,23.1a.765.765,0,1,1,.872-.754A.816.816,0,0,1,49.613,50.093Zm9.08-3.045a.759.759,0,0,1-.808.7H42.206a.764.764,0,0,1-.808-.7V29.462a.759.759,0,0,1,.808-.7h15.68a.754.754,0,0,1,.808.7Z" transform="translate(-9.633 -12.94)" fill="#b6462c" stroke="#7b99de" stroke-width="0.2"/>
      </g>
    </g>
    <rect id="Rectangle_2400" data-name="Rectangle 2400" width="43" height="27" transform="translate(1608 1066)" fill="#b6462c" opacity="0.2"/>
    <rect id="Rectangle_2401" data-name="Rectangle 2401" width="5" height="22" transform="translate(1651 1079)" fill="#b6462c" opacity="0.2"/>
    <rect id="Rectangle_2402" data-name="Rectangle 2402" width="13" height="9" transform="translate(1638 1093)" fill="#b6462c" opacity="0.2"/>
  </g>
</svg>
