<svg id="_366_coo_flatline" data-name="#366_coo_flatline" xmlns="http://www.w3.org/2000/svg" width="59.443" height="46.652" viewBox="0 0 59.443 46.652">
  <path id="Tracé_2085" data-name="Tracé 2085" d="M142.449,94.76h9.3a7.269,7.269,0,0,1,7.269,7.269v15.339H135.18V102.029A7.269,7.269,0,0,1,142.449,94.76Z" transform="translate(-119.754 -83.399)" fill="#1f4076"/>
  <path id="Tracé_2087" data-name="Tracé 2087" d="M162.7,108.593s-5.543,1.731-6.151,3.064c-.433.952,2.813,9.344,2.813,9.344a24.905,24.905,0,0,1,.454,3.41c-.032.911-.325,5.266-.325,5.266h12.918s-.649-5.753-.584-6.534.811-4.091.811-4.091l1.56-8.221s-5.27-2.144-5.9-2.38A41.3,41.3,0,0,0,162.7,108.593Z" transform="translate(-136.466 -94.067)" fill="#fce15c"/>
  <path id="Tracé_2088" data-name="Tracé 2088" d="M177.571,55.064a1.81,1.81,0,0,0,.753-.865,1.709,1.709,0,0,0-.138-.824c-.945-2.841-.757-6.077-2.352-8.6a2.421,2.421,0,0,0-.809-.865,1.06,1.06,0,0,0-1.127,0c-1.417-2.386-4.9-.677-5.883,1.27a55.745,55.745,0,0,0-2.436,6.564,4.69,4.69,0,0,0-.4,2.075,1.617,1.617,0,0,0,1.3,1.488l.374-.649a.511.511,0,0,0,.058.694,1.469,1.469,0,0,0,.7.316c2.5.632,5.192,1.134,7.613.275.376-.132.816-.461.664-.829C176.093,55.765,176.935,55.51,177.571,55.064Z" transform="translate(-143.247 -42.634)" fill="#fce15c"/>
  <path id="Tracé_2089" data-name="Tracé 2089" d="M171.943,56.112a19.813,19.813,0,0,1-4.781-.733,1.564,1.564,0,0,1-.749-.346.677.677,0,0,1-.156-.24l-.1.177a.112.112,0,0,1-.108.056,1.72,1.72,0,0,1-1.393-1.588,4.806,4.806,0,0,1,.413-2.125c.234-.647.45-1.313.664-1.964a32.247,32.247,0,0,1,1.776-4.613,4.945,4.945,0,0,1,3.84-2.484,2.38,2.38,0,0,1,2.179,1.132,1.216,1.216,0,0,1,1.144.048,2.549,2.549,0,0,1,.848.894,14.147,14.147,0,0,1,1.614,5.238,22.756,22.756,0,0,0,.751,3.384l.013.039a1.7,1.7,0,0,1,.128.844,1.9,1.9,0,0,1-.8.939,1.856,1.856,0,0,1-1.447.433.682.682,0,0,1-.216-.121h0a1.268,1.268,0,0,1-.72.569A8.654,8.654,0,0,1,171.943,56.112Zm-5.5-1.64a.464.464,0,0,0,0,.069.489.489,0,0,0,.141.333,1.393,1.393,0,0,0,.649.288c2.523.649,5.192,1.114,7.548.279a1.082,1.082,0,0,0,.593-.45.29.29,0,0,0,.017-.2.266.266,0,0,1-.015-.037.115.115,0,0,1,.069-.141.108.108,0,0,1,.141.063.315.315,0,0,1,.015.041.433.433,0,0,0,.266.266,1.66,1.66,0,0,0,1.25-.394l.063.091-.063-.091a1.746,1.746,0,0,0,.705-.8,1.541,1.541,0,0,0-.121-.731l-.013-.039a22.92,22.92,0,0,1-.759-3.418,14.138,14.138,0,0,0-1.6-5.156,2.319,2.319,0,0,0-.77-.818.95.95,0,0,0-1,0,.11.11,0,0,1-.089.019.108.108,0,0,1-.074-.052,2.179,2.179,0,0,0-2.038-1.121,4.705,4.705,0,0,0-3.65,2.363,31.815,31.815,0,0,0-1.763,4.58c-.216.649-.433,1.326-.666,1.971a4.564,4.564,0,0,0-.4,2.025A1.529,1.529,0,0,0,166,54.792l.234-.4a.476.476,0,0,1,.125-.216.108.108,0,0,1,.145,0,.113.113,0,0,1,.03.143Z" transform="translate(-142.839 -42.248)" fill="#1f4076"/>
  <path id="Tracé_2090" data-name="Tracé 2090" d="M187.389,91.039s.56,7.972-2.233,7.44c-3.715-.792-2.025-6.391-2.025-6.391l.061-1.049.143-2.432.132-2.274,3.894-.043.151,1.856.045.6Z" transform="translate(-157.03 -76.762)" fill="#f2f1f7"/>
  <path id="Tracé_2091" data-name="Tracé 2091" d="M185,98.2a1.431,1.431,0,0,1-.283-.028,2.83,2.83,0,0,1-1.936-1.346c-1.112-1.884-.253-4.92-.177-5.173l.335-5.744a.11.11,0,0,1,.11-.106l3.894-.043a.117.117,0,0,1,.113.1l.195,2.462-.175,2.3c.024.333.374,5.822-1.22,7.237A1.268,1.268,0,0,1,185,98.2Zm-1.845-12.172-.337,5.651a.109.109,0,0,1,0,.026c-.011.03-.937,3.167.151,5.006a2.62,2.62,0,0,0,1.787,1.242,1.051,1.051,0,0,0,.954-.257c1.53-1.357,1.151-7.008,1.147-7.064v-.017l.175-2.291-.186-2.339Z" transform="translate(-156.615 -76.346)" fill="#1f4076"/>
  <path id="Tracé_2092" data-name="Tracé 2092" d="M189.437,95.495a3.678,3.678,0,0,1-1.268,1.3,4.692,4.692,0,0,1-3.029.865l.069-2.3a8.34,8.34,0,0,0,2.25,0A5.778,5.778,0,0,0,189.4,94.9Z" transform="translate(-158.905 -83.509)" fill="#1f4076"/>
  <path id="Tracé_2093" data-name="Tracé 2093" d="M185.171,97.452a2.565,2.565,0,0,1-.433-.035.108.108,0,0,1-.089-.11l.076-2.3a.1.1,0,0,1,.039-.08.108.108,0,0,1,.084-.024,8.2,8.2,0,0,0,2.222,0,5.892,5.892,0,0,0,1.9-.433.1.1,0,0,1,.1,0,.1.1,0,0,1,.054.087l.048.6a.136.136,0,0,1-.013.058,3.726,3.726,0,0,1-1.3,1.344A5.379,5.379,0,0,1,185.171,97.452Zm-.305-.234a4.6,4.6,0,0,0,2.864-.855,3.565,3.565,0,0,0,1.216-1.238l-.03-.415a6.309,6.309,0,0,1-1.83.4,8.531,8.531,0,0,1-2.163.024Z" transform="translate(-158.521 -83.164)" fill="#1f4076"/>
  <path id="Tracé_2094" data-name="Tracé 2094" d="M181.85,65.136h-.4a3.433,3.433,0,0,1-3.462-3.395,27.217,27.217,0,0,1,.3-3.146s1.584-.569,2.828-1.038a4.8,4.8,0,0,0,2.648-1.917,8.437,8.437,0,0,0,.482,2.2,10.052,10.052,0,0,0,.93,1.43s.063,1.692.069,2.4a3.431,3.431,0,0,1-3.392,3.47Z" transform="translate(-153.301 -52.743)" fill="#f2f1f7"/>
  <path id="Tracé_2095" data-name="Tracé 2095" d="M180.982,64.866a3.546,3.546,0,0,1-3.542-3.5,27.219,27.219,0,0,1,.3-3.165.115.115,0,0,1,.074-.089c.015,0,1.6-.573,2.823-1.036a4.846,4.846,0,0,0,2.6-1.863.115.115,0,0,1,.123-.058.11.11,0,0,1,.089.1,8.438,8.438,0,0,0,.48,2.163,9.872,9.872,0,0,0,.917,1.406.1.1,0,0,1,.024.065c0,.017.061,1.7.069,2.4a3.546,3.546,0,0,1-3.511,3.563h-.4ZM177.953,58.3a26.337,26.337,0,0,0-.286,3.064,3.321,3.321,0,0,0,3.314,3.276h.439a3.323,3.323,0,0,0,3.28-3.353c0-.649-.058-2.112-.069-2.36a9.332,9.332,0,0,1-.919-1.426,8.328,8.328,0,0,1-.467-1.915,5.572,5.572,0,0,1-2.529,1.7c-1.09.411-2.458.907-2.765,1.017Z" transform="translate(-152.871 -52.359)" fill="#1f4076"/>
  <path id="Tracé_2096" data-name="Tracé 2096" d="M191.452,73.383a3.909,3.909,0,0,1-.433-.022.242.242,0,0,1-.182-.119c-.262-.433.389-2.241.524-2.6a.108.108,0,0,1,.143-.065.11.11,0,0,1,.067.143,6.081,6.081,0,0,0-.543,2.406,4.232,4.232,0,0,0,.984,0,.11.11,0,0,1,.125.1.113.113,0,0,1-.1.125A4.639,4.639,0,0,1,191.452,73.383Z" transform="translate(-163.322 -64.445)" fill="#1f4076"/>
  <ellipse id="Ellipse_212" data-name="Ellipse 212" cx="0.236" cy="0.582" rx="0.236" ry="0.582" transform="translate(29.638 6.245) rotate(-0.63)" fill="#1f4076"/>
  <ellipse id="Ellipse_213" data-name="Ellipse 213" cx="0.236" cy="0.582" rx="0.236" ry="0.582" transform="translate(26.511 6.172) rotate(-0.63)" fill="#1f4076"/>
  <path id="Tracé_2097" data-name="Tracé 2097" d="M177.755,107.767a1.713,1.713,0,0,0-2.023.612c-.113.415.346,6.949,2.023,7.955.729.433,2.038-1.127,2.038-1.127S177.919,114.386,177.755,107.767Z" transform="translate(-151.52 -93.49)" fill="#f2f1f7"/>
  <path id="Tracé_2098" data-name="Tracé 2098" d="M177.657,116.114a.649.649,0,0,1-.342-.091c-.924-.554-1.456-2.631-1.731-4.275a18.681,18.681,0,0,1-.338-3.8,1.254,1.254,0,0,1,.746-.649,1.7,1.7,0,0,1,1.439-.035.112.112,0,0,1,.058.1c.16,6.471,1.947,7.332,1.969,7.339a.117.117,0,0,1,.065.078.108.108,0,0,1-.024.1C179.446,114.928,178.445,116.114,177.657,116.114Zm-.865-8.771a1.882,1.882,0,0,0-.727.16,1.112,1.112,0,0,0-.621.5c-.078.286.34,6.847,1.975,7.828.491.294,1.4-.55,1.809-1-.433-.314-1.826-1.752-1.975-7.395a1.123,1.123,0,0,0-.45-.089Z" transform="translate(-151.137 -93.083)" fill="#1f4076"/>
  <path id="Tracé_2099" data-name="Tracé 2099" d="M196.826,107.767a1.715,1.715,0,0,1,2.025.612c.113.415-.346,6.949-2.025,7.955-.727.433-2.036-1.127-2.036-1.127S196.664,114.386,196.826,107.767Z" transform="translate(-166.467 -93.49)" fill="#f2f1f7"/>
  <path id="Tracé_2100" data-name="Tracé 2100" d="M196.139,116.122c-.788,0-1.789-1.186-1.837-1.242a.108.108,0,0,1-.024-.1.121.121,0,0,1,.063-.078c.017,0,1.811-.911,1.971-7.339a.113.113,0,0,1,.058-.1,1.7,1.7,0,0,1,1.439.035,1.3,1.3,0,0,1,.746.649,19.321,19.321,0,0,1-.338,3.8c-.283,1.644-.813,3.721-1.731,4.275A.649.649,0,0,1,196.139,116.122Zm-1.582-1.287c.407.454,1.318,1.3,1.809,1,1.636-.98,2.053-7.542,1.975-7.828a1.112,1.112,0,0,0-.621-.5,1.53,1.53,0,0,0-1.188-.071C196.379,113.082,194.99,114.521,194.558,114.834Z" transform="translate(-166.064 -93.091)" fill="#1f4076"/>
  <path id="Tracé_2101" data-name="Tracé 2101" d="M187.7,86.63a4.111,4.111,0,0,1-2.092-.623.111.111,0,1,1,.125-.184,3.307,3.307,0,0,0,3.773-.039.11.11,0,0,1,.156.019.112.112,0,0,1-.019.158,3.139,3.139,0,0,1-1.943.669Z" transform="translate(-159.231 -76.347)" fill="#1f4076"/>
  <path id="Tracé_2102" data-name="Tracé 2102" d="M71.519,191.37H115.94l7.129,10.287H64.39Z" transform="translate(-64.279 -159.108)" fill="#f2f1f7"/>
  <path id="Tracé_2103" data-name="Tracé 2103" d="M122.667,201.374H63.989a.108.108,0,0,1-.1-.058.106.106,0,0,1,0-.11l7.14-10.287a.106.106,0,0,1,.089-.048h44.417a.106.106,0,0,1,.089.048l7.124,10.287a.106.106,0,0,1,0,.11A.108.108,0,0,1,122.667,201.374ZM64.2,201.157H122.46l-6.977-10.071H71.174Z" transform="translate(-63.878 -158.716)" fill="#1f4076"/>
  <rect id="Rectangle_1377" data-name="Rectangle 1377" width="58.609" height="1.997" transform="translate(0.178 42.55)" fill="#f2f1f7"/>
  <path id="Tracé_2104" data-name="Tracé 2104" d="M122.919,240.633H64.308a.108.108,0,0,1-.108-.108v-2a.11.11,0,0,1,.108-.108h58.611a.11.11,0,0,1,.108.108v2A.108.108,0,0,1,122.919,240.633Zm-58.5-.216h58.395v-1.781H64.416Z" transform="translate(-64.13 -195.978)" fill="#1f4076"/>
  <rect id="Rectangle_1378" data-name="Rectangle 1378" width="56.089" height="1.997" transform="translate(1.439 44.547)" fill="#1f4076"/>
  <path id="Tracé_2105" data-name="Tracé 2105" d="M126.227,249.863H70.138a.108.108,0,0,1-.108-.108v-2a.108.108,0,0,1,.108-.108h56.089a.108.108,0,0,1,.108.108v2A.108.108,0,0,1,126.227,249.863Zm-55.987-.216h55.879v-1.781H70.24Z" transform="translate(-68.699 -203.211)" fill="#1f4076"/>
  <path id="Tracé_2106" data-name="Tracé 2106" d="M228.724,142.842h-.017a.11.11,0,0,1-.078-.132l1.614-6.592a.111.111,0,0,1,.216.05l-1.614,6.594A.108.108,0,0,1,228.724,142.842Z" transform="translate(-192.983 -115.742)" fill="#231f20"/>
  <path id="Tracé_2107" data-name="Tracé 2107" d="M203.777,200.18H195.77l.919,6.824h10.35Z" transform="translate(-167.235 -166.012)" fill="#f2f1f7"/>
  <path id="Tracé_2108" data-name="Tracé 2108" d="M206.636,206.72H196.281a.108.108,0,0,1-.106-.1l-.919-6.821a.106.106,0,0,1,.026-.087.112.112,0,0,1,.08-.037h8a.106.106,0,0,1,.1.063l3.263,6.821a.1.1,0,0,1,0,.1A.108.108,0,0,1,206.636,206.72Zm-10.255-.216h10.084l-3.159-6.607h-7.817Z" transform="translate(-166.831 -165.62)" fill="#5c6f99"/>
  <path id="Tracé_2109" data-name="Tracé 2109" d="M211.637,203.09H203.63l.919,6.824H214.9Z" transform="translate(-173.395 -168.292)" fill="#f2f1f7"/>
  <path id="Tracé_2110" data-name="Tracé 2110" d="M214.512,209.628h-10.35a.106.106,0,0,1-.106-.093l-.919-6.821a.108.108,0,0,1,.106-.123h8a.108.108,0,0,1,.1.061l3.263,6.824a.106.106,0,0,1-.1.154Zm-10.255-.216h10.084l-3.159-6.605h-7.817Z" transform="translate(-173.007 -167.9)" fill="#5c6f99"/>
  <path id="Tracé_2111" data-name="Tracé 2111" d="M219.227,227.956h-6.2a.108.108,0,0,1,0-.216h6.2a.108.108,0,0,1,0,.216Z" transform="translate(-180.675 -187.609)" fill="#5c6f99"/>
  <path id="Tracé_2112" data-name="Tracé 2112" d="M218.865,221.806h-7.107a.108.108,0,0,1-.108-.108.11.11,0,0,1,.108-.108h7.107a.108.108,0,0,1,0,.216Z" transform="translate(-179.68 -182.79)" fill="#5c6f99"/>
  <path id="Tracé_2113" data-name="Tracé 2113" d="M216.926,215.666h-6.718a.108.108,0,1,1,0-.216h6.718a.108.108,0,0,1,0,.216Z" transform="translate(-178.465 -177.978)" fill="#5c6f99"/>
  <path id="Tracé_2114" data-name="Tracé 2114" d="M219.447,209.526h-5.359a.108.108,0,1,1,0-.216h5.359a.108.108,0,0,1,0,.216Z" transform="translate(-181.506 -173.166)" fill="#5c6f99"/>
  <path id="Tracé_2115" data-name="Tracé 2115" d="M274.916,185.6a21.34,21.34,0,0,1,3.734,1.915.939.939,0,0,1,.078,1.032s.283.911-.138,1.149c0,0,.2.878-.232,1.056-.346.141-2.49.074-2.176-.374a.72.72,0,0,1,.357-.216c-.093,0-.136-.132-.1-.216a.444.444,0,0,1,.216-.171.385.385,0,0,0,.167-.113,4.205,4.205,0,0,1-1.971-.777l-1.525-1.428" transform="translate(-228.015 -154.586)" fill="#f2f1f7"/>
  <path id="Tracé_2116" data-name="Tracé 2116" d="M277.441,190.468a2.681,2.681,0,0,1-1.558-.32.231.231,0,0,1,0-.29.619.619,0,0,1,.249-.2.286.286,0,0,1,0-.227.476.476,0,0,1,.216-.193l-.128-.028a3.381,3.381,0,0,1-1.646-.712l-1.514-1.428.147-.158,1.514,1.428a3.156,3.156,0,0,0,1.549.649l.376.091a.108.108,0,0,1,.074.067.1.1,0,0,1-.013.1.433.433,0,0,1-.184.138H276.5a.351.351,0,0,0-.164.121.065.065,0,0,0,0,.063.1.1,0,0,1,.1.091.108.108,0,0,1-.071.117.617.617,0,0,0-.307.182.058.058,0,0,0-.011.024s0,.022.071.056a4.607,4.607,0,0,0,1.986.132c.286-.117.216-.712.169-.932a.108.108,0,0,1,.052-.119c.283-.158.158-.792.087-1.023a.11.11,0,0,1,.011-.087.826.826,0,0,0-.069-.909,19.747,19.747,0,0,0-3.691-1.882.11.11,0,0,1-.058-.141.113.113,0,0,1,.143-.058,19.956,19.956,0,0,1,3.777,1.947,1.036,1.036,0,0,1,.108,1.11c.056.2.216.9-.134,1.188.041.229.123.928-.312,1.106A2.552,2.552,0,0,1,277.441,190.468Z" transform="translate(-227.804 -154.128)" fill="#1f4076"/>
  <path id="Tracé_2117" data-name="Tracé 2117" d="M290.657,199.753s-.7.978-.175,1.047,1.274-1.17,1.274-1.17" transform="translate(-241.303 -165.581)" fill="#f2f1f7"/>
  <path id="Tracé_2118" data-name="Tracé 2118" d="M290.117,200.5h-.054a.307.307,0,0,1-.262-.18c-.136-.316.279-.919.363-1.038a.108.108,0,1,1,.175.128c-.18.251-.407.673-.34.824,0,.013.017.041.091.052.329.041.891-.664,1.166-1.121a.108.108,0,1,1,.184.113C291.363,199.4,290.688,200.5,290.117,200.5Z" transform="translate(-240.902 -165.168)" fill="#1f4076"/>
  <path id="Tracé_2119" data-name="Tracé 2119" d="M287.33,204.933a3.8,3.8,0,0,0,2.231-.433" transform="translate(-238.986 -169.397)" fill="#fff"/>
  <path id="Tracé_2120" data-name="Tracé 2120" d="M287.369,204.689c-.249,0-.422-.015-.444-.017a.11.11,0,0,1-.1-.119.113.113,0,0,1,.119-.1,3.761,3.761,0,0,0,2.153-.4.108.108,0,0,1,.136.169A3.213,3.213,0,0,1,287.369,204.689Z" transform="translate(-238.593 -169.028)" fill="#1f4076"/>
  <path id="Tracé_2121" data-name="Tracé 2121" d="M283.642,180.391s-4.439,5.467-4.656,5.707a4.922,4.922,0,0,0-.556,1.177,4.9,4.9,0,0,0,1.147-.7c.212-.27,4.667-5.887,4.667-5.887S284.267,180.235,283.642,180.391Z" transform="translate(-232.012 -150.478)" fill="#f2f1f7"/>
  <path id="Tracé_2122" data-name="Tracé 2122" d="M278.089,186.972a.117.117,0,0,1-.084-.037c-.119-.141.491-1.231.56-1.315.2-.238,4.6-5.653,4.647-5.707a.1.1,0,0,1,.058-.037.649.649,0,0,1,.588.065.432.432,0,0,1,.154.337.123.123,0,0,1-.024.063c-.045.056-4.457,5.625-4.667,5.885a4.1,4.1,0,0,1-1.106.7l-.071.035A.1.1,0,0,1,278.089,186.972Zm5.268-6.886c-.348.433-4.435,5.45-4.626,5.679a5.181,5.181,0,0,0-.457.9,3.083,3.083,0,0,0,.876-.558c.2-.26,4.275-5.391,4.641-5.854a.2.2,0,0,0-.071-.132A.433.433,0,0,0,283.357,180.086Z" transform="translate(-231.666 -150.067)" fill="#1f4076"/>
  <path id="Tracé_2123" data-name="Tracé 2123" d="M277.44,193.68s3.5,2.3,3.617,1.7-1.575-1.61-1.575-1.61" transform="translate(-231.236 -160.918)" fill="#f2f1f7"/>
  <path id="Tracé_2124" data-name="Tracé 2124" d="M280.522,195.19c-.725,0-3.042-1.495-3.526-1.813a.108.108,0,0,1-.03-.149.106.106,0,0,1,.149-.032c1.69,1.11,3.271,1.921,3.451,1.774.076-.381-.9-1.121-1.525-1.5a.108.108,0,0,1-.037-.149.1.1,0,0,1,.147-.037c.182.108,1.757,1.071,1.627,1.731a.216.216,0,0,1-.134.162.331.331,0,0,1-.121.011Z" transform="translate(-230.85 -160.524)" fill="#1f4076"/>
  <line id="Ligne_77" data-name="Ligne 77" x2="0.444" y2="0.316" transform="translate(46.708 36.098)" fill="#fff"/>
  <path id="Tracé_2125" data-name="Tracé 2125" d="M279.857,209.13a.113.113,0,0,1-.063-.019l-.433-.318a.108.108,0,0,1-.024-.149.106.106,0,0,1,.149-.026l.443.318a.108.108,0,0,1-.065.195Z" transform="translate(-232.708 -172.608)" fill="#1f4076"/>
  <path id="Tracé_2126" data-name="Tracé 2126" d="M229.092,119.625c2.241.649,2.3,11.084,4.2,11.832,1.828.716,5.48,2.328,5.48,2.328l-1.391,3.074a20.645,20.645,0,0,1-7.14-1.437c-2.96-1.382-3.7-8.245-3.7-8.245S226.849,118.969,229.092,119.625Z" transform="translate(-191.356 -102.855)" fill="#fce15c"/>
  <path id="Tracé_2127" data-name="Tracé 2127" d="M146.009,113.89s-5.164,1.242-6.3,2.813-1.815,19.619.489,18.658,10.1-6.326,10.1-6.326l-2.637-3.654-3.33,1.759v-7.711Z" transform="translate(-122.481 -98.39)" fill="#fce15c"/>
  <path id="Tracé_2128" data-name="Tracé 2128" d="M195.39,153.415l1.038-11.2,8.8.117-1.151,10.958Z" transform="translate(-166.938 -120.583)" fill="#f2f1f7"/>
  <path id="Tracé_2129" data-name="Tracé 2129" d="M195,153.131a.1.1,0,0,1-.078-.035.106.106,0,0,1-.03-.082l1.038-11.207a.106.106,0,0,1,.108-.1h0l8.8.117a.106.106,0,0,1,.078.037.11.11,0,0,1,.028.082L203.783,152.9a.108.108,0,0,1-.1.1l-8.689.13Zm1.136-11.2-1.017,10.988,8.472-.13,1.127-10.742Z" transform="translate(-166.545 -120.191)" fill="#1f4076"/>
  <ellipse id="Ellipse_214" data-name="Ellipse 214" cx="4.262" cy="1.283" rx="4.262" ry="1.283" transform="translate(5.054 37.846)" fill="#f2f1f7"/>
  <path id="Tracé_2130" data-name="Tracé 2130" d="M91.11,219.462c-2.148,0-4.37-.521-4.37-1.391s2.222-1.391,4.37-1.391,4.37.519,4.37,1.391S93.259,219.462,91.11,219.462Zm0-2.566c-2.449,0-4.154.619-4.154,1.175s1.7,1.175,4.154,1.175,4.154-.619,4.154-1.175S93.557,216.9,91.11,216.9Z" transform="translate(-81.794 -178.942)" fill="#5c6f99"/>
  <path id="Tracé_2131" data-name="Tracé 2131" d="M114.36,205.071a.692.692,0,0,1,.117.019,1.445,1.445,0,0,1,.9.506,1.244,1.244,0,0,1,.03,1.311c-.515.928-1.774,1.186-2.739,1.276a.889.889,0,0,1-.407-.03.3.3,0,0,1-.039-.573,1.069,1.069,0,0,1,.32-.091,6.044,6.044,0,0,0,1.787-.45c.32-.16.768-.534.534-.932a.761.761,0,0,0-.34-.288,2.147,2.147,0,0,0-1.623.1.3.3,0,0,1-.123.017.216.216,0,0,1-.158-.244c.017-.238.255-.4.478-.482A2.516,2.516,0,0,1,114.36,205.071Z" transform="translate(-101.614 -169.823)" fill="#f2f1f7"/>
  <path id="Tracé_2132" data-name="Tracé 2132" d="M112.1,207.908a.77.77,0,0,1-.286-.048.409.409,0,0,1-.05-.768,1.115,1.115,0,0,1,.355-.1l.216-.035a5.166,5.166,0,0,0,1.532-.4,1.034,1.034,0,0,0,.526-.515.329.329,0,0,0-.035-.268.649.649,0,0,0-.294-.244,1.878,1.878,0,0,0-1.4.061l-.143.043a.4.4,0,0,1-.169.022.329.329,0,0,1-.251-.361c.017-.242.216-.446.547-.573a2.637,2.637,0,0,1,1.32-.145h0l.121.022a1.564,1.564,0,0,1,.963.547,1.344,1.344,0,0,1,.037,1.428c-.42.757-1.341,1.194-2.813,1.333C112.221,207.9,112.162,207.908,112.1,207.908Zm1.445-2.717a1.413,1.413,0,0,1,.619.136.865.865,0,0,1,.387.331.539.539,0,0,1,.056.433,1.3,1.3,0,0,1-.636.649,5.385,5.385,0,0,1-1.6.433l-.216.035a.865.865,0,0,0-.288.078.238.238,0,0,0-.132.173.231.231,0,0,0,.158.2.766.766,0,0,0,.357.024c1.4-.13,2.272-.53,2.655-1.22a1.132,1.132,0,0,0-.022-1.2,1.354,1.354,0,0,0-.831-.463l-.112-.019a2.4,2.4,0,0,0-1.209.132c-.117.045-.394.173-.409.389,0,.061.026.123.065.13a.244.244,0,0,0,.078-.015l.141-.043A3.26,3.26,0,0,1,113.549,205.191Z" transform="translate(-101.215 -169.43)" fill="#1f4076"/>
  <path id="Tracé_2133" data-name="Tracé 2133" d="M97.5,200.57s-.909,4.543-.982,4.807a4.152,4.152,0,0,1-3.929.292l-1.495-4.634Z" transform="translate(-85.203 -166.317)" fill="#f2f1f7"/>
  <path id="Tracé_2134" data-name="Tracé 2134" d="M93.819,205.742a3.84,3.84,0,0,1-1.7-.368.1.1,0,0,1-.054-.063l-1.5-4.634a.113.113,0,0,1,.013-.1.117.117,0,0,1,.082-.048l6.413-.465a.108.108,0,0,1,.113.13c-.037.184-.911,4.543-.984,4.814-.028.1-.177.216-.446.34a5.008,5.008,0,0,1-1.943.389Zm-1.56-.541A4.231,4.231,0,0,0,96,204.95c.063-.234.8-3.894.952-4.654l-6.131.433Z" transform="translate(-84.792 -165.925)" fill="#1f4076"/>
  <path id="Tracé_2135" data-name="Tracé 2135" d="M97.424,196.021a.865.865,0,0,1-.35.666,4.8,4.8,0,0,1-2.813.855,4.632,4.632,0,0,1-2.921-.662.824.824,0,0,1-.342-.595c-.032-.768,1.38-1.45,3.154-1.514S97.393,195.249,97.424,196.021Z" transform="translate(-85.13 -161.769)" fill="#1f4076"/>
  <path id="Tracé_2136" data-name="Tracé 2136" d="M93.565,197.208a4.481,4.481,0,0,1-2.674-.692.926.926,0,0,1-.392-.675.894.894,0,0,1,.268-.649,5.706,5.706,0,0,1,6.053-.247.881.881,0,0,1,.32.614.954.954,0,0,1-.389.753,4.914,4.914,0,0,1-2.869.881Zm.5-2.793h-.307a4.405,4.405,0,0,0-2.839.924.677.677,0,0,0-.216.487.72.72,0,0,0,.309.517,4.719,4.719,0,0,0,2.847.649,4.581,4.581,0,0,0,2.739-.829.751.751,0,0,0,.314-.582h0a.681.681,0,0,0-.249-.465A4.061,4.061,0,0,0,94.07,194.415Z" transform="translate(-84.74 -161.319)" fill="#1f4076"/>
  <path id="Tracé_2137" data-name="Tracé 2137" d="M98.313,201.231a4.8,4.8,0,0,1-2.813.855,4.632,4.632,0,0,1-2.921-.662,4.833,4.833,0,0,1,2.813-.855A4.7,4.7,0,0,1,98.313,201.231Z" transform="translate(-86.37 -166.312)" fill="#fce15c"/>
  <path id="Tracé_2138" data-name="Tracé 2138" d="M94.835,201.813a4.481,4.481,0,0,1-2.674-.692.108.108,0,0,1-.041-.082.112.112,0,0,1,.037-.082,4.922,4.922,0,0,1,2.871-.881,4.792,4.792,0,0,1,2.992.686.108.108,0,0,1,.041.08.113.113,0,0,1-.037.084,4.927,4.927,0,0,1-2.871.881Zm-2.432-.779a5.864,5.864,0,0,0,5.374-.186,4.952,4.952,0,0,0-2.741-.558A4.885,4.885,0,0,0,92.4,201.034Z" transform="translate(-86.01 -165.924)" fill="#1f4076"/>
  <path id="Tracé_2139" data-name="Tracé 2139" d="M263.4,222.421,261.58,220l6.359-.11Z" transform="translate(-218.807 -181.457)" fill="#1f4076"/>
  <path id="Tracé_2140" data-name="Tracé 2140" d="M263.028,222.138a.1.1,0,0,1-.087-.043l-1.817-2.421a.112.112,0,0,1-.011-.113.106.106,0,0,1,.1-.061l6.359-.11a.112.112,0,0,1,.106.08.106.106,0,0,1-.052.121l-4.543,2.533A.115.115,0,0,1,263.028,222.138Zm-1.6-2.425,1.633,2.176,4.08-2.276Z" transform="translate(-218.433 -181.066)" fill="#1f4076"/>
  <rect id="Rectangle_1379" data-name="Rectangle 1379" width="10.062" height="3.557" transform="translate(44.59 37.407)" fill="#f2f1f7"/>
  <path id="Tracé_2141" data-name="Tracé 2141" d="M279.666,218.423H269.608a.108.108,0,0,1-.108-.108v-3.557a.108.108,0,0,1,.108-.108h10.062a.108.108,0,0,1,.108.108v3.557a.108.108,0,0,1-.112.108Zm-9.952-.216h9.846v-3.34h-9.848Z" transform="translate(-225.014 -177.351)" fill="#1f4076"/>
  <path id="Tracé_2142" data-name="Tracé 2142" d="M278.512,220.749a.954.954,0,0,1-.4.078,1.032,1.032,0,0,1-.379-.067.911.911,0,0,1-.3-.19.891.891,0,0,1-.2-.3.941.941,0,0,1-.074-.381,1,1,0,0,1,.074-.385.889.889,0,0,1,.206-.294.911.911,0,0,1,.305-.186,1.111,1.111,0,0,1,.749,0,.731.731,0,0,1,.294.195l-.292.29a.342.342,0,0,0-.158-.121.5.5,0,0,0-.2-.041.539.539,0,0,0-.216.041.48.48,0,0,0-.16.115.53.53,0,0,0-.106.171.59.59,0,0,0-.037.216.6.6,0,0,0,.037.216.549.549,0,0,0,.1.173.432.432,0,0,0,.16.11.472.472,0,0,0,.2.041.478.478,0,0,0,.216-.05.433.433,0,0,0,.154-.132l.3.281A.833.833,0,0,1,278.512,220.749Z" transform="translate(-231.016 -180.728)" fill="#1f4076"/>
  <path id="Tracé_2143" data-name="Tracé 2143" d="M290,219.886a1.008,1.008,0,0,1-.071.385.865.865,0,0,1-.508.489,1.081,1.081,0,0,1-.387.067,1.047,1.047,0,0,1-.383-.067.909.909,0,0,1-.307-.19.9.9,0,0,1-.2-.3,1.045,1.045,0,0,1,0-.77.865.865,0,0,1,.2-.29.9.9,0,0,1,.307-.186,1.1,1.1,0,0,1,.383-.065,1.127,1.127,0,0,1,.387.065.889.889,0,0,1,.305.186.865.865,0,0,1,.2.29A1,1,0,0,1,290,219.886Zm-.459,0a.627.627,0,0,0-.037-.216.549.549,0,0,0-.1-.173.508.508,0,0,0-.733,0,.481.481,0,0,0-.1.173.649.649,0,0,0,0,.433.48.48,0,0,0,.1.173.474.474,0,0,0,.363.156.485.485,0,0,0,.206-.041.5.5,0,0,0,.16-.115.517.517,0,0,0,.106-.173.677.677,0,0,0,.048-.216Z" transform="translate(-239.566 -180.728)" fill="#1f4076"/>
  <path id="Tracé_2144" data-name="Tracé 2144" d="M302.792,219.886a.969.969,0,0,1-.074.385.866.866,0,0,1-.2.3.909.909,0,0,1-.307.19,1.14,1.14,0,0,1-.77,0,.922.922,0,0,1-.305-.19.866.866,0,0,1-.2-.3,1.045,1.045,0,0,1,0-.77.831.831,0,0,1,.2-.29.912.912,0,0,1,.305-.186,1.175,1.175,0,0,1,.77,0,.9.9,0,0,1,.307.186.831.831,0,0,1,.2.29A.963.963,0,0,1,302.792,219.886Zm-.459,0a.627.627,0,0,0-.037-.216.55.55,0,0,0-.1-.173.524.524,0,0,0-.16-.113.5.5,0,0,0-.216-.041.491.491,0,0,0-.206.041.5.5,0,0,0-.16.113.48.48,0,0,0-.1.173.627.627,0,0,0-.037.216.678.678,0,0,0,.037.216.517.517,0,0,0,.106.173.472.472,0,0,0,.158.115.534.534,0,0,0,.411,0,.5.5,0,0,0,.16-.115.517.517,0,0,0,.106-.173A.677.677,0,0,0,302.333,219.886Z" transform="translate(-249.589 -180.729)" fill="#1f4076"/>
  <path id="Tracé_2145" data-name="Tracé 2145" d="M161.677,145.642a.112.112,0,0,1-.106-.08c-.015-.052-1.584-5.192-2.163-6.85a.114.114,0,1,1,.216-.074c.584,1.67,2.163,6.806,2.163,6.858a.11.11,0,0,1-.076.138A.086.086,0,0,1,161.677,145.642Z" transform="translate(-138.735 -117.724)" fill="#1f4076"/>
  <path id="Tracé_2146" data-name="Tracé 2146" d="M182.6,156.5l1.188-.716a5.9,5.9,0,0,1,.273-1.456,20.177,20.177,0,0,1,1.988-1.917v.935s1.413-.855,1.662-.584.232.5-.433,1.023c0,0,.433-.5.586-.128s-.591,1.045-.591,1.045.6-.58.6-.175-.788.98-.788.98.79-.3.539.093-3.63,3.245-3.63,3.245" transform="translate(-156.915 -128.577)" fill="#f2f1f7"/>
  <path id="Tracé_2147" data-name="Tracé 2147" d="M183.6,158.588a.108.108,0,0,1-.071-.19c.937-.792,3.412-2.914,3.611-3.228l.022-.039a1.638,1.638,0,0,0-.433.106.108.108,0,0,1-.1-.188c.288-.216.744-.638.742-.891a.154.154,0,0,0,0-.048,1.352,1.352,0,0,0-.383.268l-.035.032a.108.108,0,0,1-.154,0,.11.11,0,0,1,0-.154l.045-.041c.257-.249.6-.675.515-.887-.017-.041-.035-.065-.056-.069a.175.175,0,0,0-.1.028c-.074.067-.16.138-.257.216a.108.108,0,0,1-.149-.156,1.235,1.235,0,0,1,.277-.234c.184-.169.273-.3.281-.4a.325.325,0,0,0-.117-.242c-.1-.106-.829.18-1.527.6a.113.113,0,0,1-.11,0,.11.11,0,0,1-.054-.1v-.7a15.17,15.17,0,0,0-1.785,1.731,5.592,5.592,0,0,0-.26,1.415.106.106,0,0,1-.052.084l-1.188.716a.109.109,0,1,1-.113-.186l1.14-.686a5.515,5.515,0,0,1,.279-1.445,20.322,20.322,0,0,1,2.014-1.947.11.11,0,0,1,.117-.017.108.108,0,0,1,.063.1v.744c.5-.292,1.385-.74,1.633-.467a.532.532,0,0,1,.175.4.63.63,0,0,1-.158.342.314.314,0,0,1,.151.182.77.77,0,0,1-.173.649.2.2,0,0,1,.074.017.216.216,0,0,1,.125.234,1.282,1.282,0,0,1-.467.762.27.27,0,0,1,.229.074c.058.074.05.173-.028.3-.251.4-3.306,2.983-3.652,3.276A.106.106,0,0,1,183.6,158.588Z" transform="translate(-156.513 -128.205)" fill="#1f4076"/>
  <path id="Tracé_2148" data-name="Tracé 2148" d="M169.957,170.682a.106.106,0,0,1-.1-.058l-2.127-3.864-3.224,1.707a.11.11,0,0,1-.149-.048.108.108,0,0,1,.045-.149l3.327-1.759a.11.11,0,0,1,.149.043l2.163,3.964a.112.112,0,0,1-.045.151A.117.117,0,0,1,169.957,170.682Z" transform="translate(-142.61 -139.616)" fill="#1f4076"/>
  <rect id="Rectangle_1380" data-name="Rectangle 1380" width="12.479" height="10.186" transform="translate(1.073 5.214)" fill="#f2f1f7"/>
  <path id="Tracé_2149" data-name="Tracé 2149" d="M80.929,76.252H68.448a.11.11,0,0,1-.108-.108V65.958a.108.108,0,0,1,.108-.108H80.929a.108.108,0,0,1,.108.108V76.144A.11.11,0,0,1,80.929,76.252Zm-12.373-.216H80.815V66.066H68.556Z" transform="translate(-67.375 -60.744)" fill="#5c6f99"/>
  <rect id="Rectangle_1381" data-name="Rectangle 1381" width="12.479" height="1.588" transform="translate(1.073 5.214)" fill="#f2f1f7"/>
  <path id="Tracé_2150" data-name="Tracé 2150" d="M80.929,67.654H68.448a.11.11,0,0,1-.108-.108V65.958a.108.108,0,0,1,.108-.108H80.929a.108.108,0,0,1,.108.108v1.588a.11.11,0,0,1-.108.108Zm-12.373-.216H80.815V66.066H68.556Z" transform="translate(-67.375 -60.744)" fill="#5c6f99"/>
  <path id="Tracé_2151" data-name="Tracé 2151" d="M94.683,85.652H87.45l3.617-5.582Z" transform="translate(-82.35 -71.887)" fill="#f2f1f7"/>
  <path id="Tracé_2152" data-name="Tracé 2152" d="M94.29,85.386h-7.23a.106.106,0,0,1-.1-.056.11.11,0,0,1,0-.113l3.62-5.58a.113.113,0,0,1,.18,0l3.615,5.58a.11.11,0,0,1,0,.112A.1.1,0,0,1,94.29,85.386Zm-7.031-.216H94.1L90.675,79.9Z" transform="translate(-81.957 -71.514)" fill="#5c6f99"/>
  <path id="Tracé_2153" data-name="Tracé 2153" d="M97.184,97.726H92.158a.108.108,0,0,1,0-.216h5.026a.108.108,0,0,1,0,.216Z" transform="translate(-85.955 -85.554)" fill="#5c6f99"/>
  <path id="Tracé_2154" data-name="Tracé 2154" d="M100.093,90.486H97.228a.108.108,0,0,1,0-.216h2.864a.108.108,0,0,1,0,.216Z" transform="translate(-89.928 -79.881)" fill="#5c6f99"/>
  <path id="Tracé_2155" data-name="Tracé 2155" d="M77.294,100.926H75.808a.108.108,0,0,1,0-.216h1.486a.108.108,0,0,1,0,.216Z" transform="translate(-73.142 -88.062)" fill="#5c6f99"/>
  <path id="Tracé_2156" data-name="Tracé 2156" d="M76.714,104h-.865a.108.108,0,1,1,0-.216h.865a.108.108,0,1,1,0,.216Z" transform="translate(-73.174 -90.468)" fill="#5c6f99"/>
  <path id="Tracé_2157" data-name="Tracé 2157" d="M78.847,90.936H75.818a.108.108,0,0,1,0-.216h3.029a.108.108,0,0,1,0,.216Z" transform="translate(-73.15 -80.233)" fill="#5c6f99"/>
  <path id="Tracé_2158" data-name="Tracé 2158" d="M77.591,94.016H75.808a.108.108,0,0,1,0-.216h1.783a.108.108,0,1,1,0,.216Z" transform="translate(-73.142 -82.647)" fill="#5c6f99"/>
  <path id="Tracé_2159" data-name="Tracé 2159" d="M79.421,81.826H75.808a.108.108,0,0,1,0-.216h3.613a.108.108,0,1,1,0,.216Z" transform="translate(-73.142 -73.094)" fill="#5c6f99"/>
  <path id="Tracé_2160" data-name="Tracé 2160" d="M77.928,84.9h-2.12a.108.108,0,0,1,0-.216h2.12a.108.108,0,1,1,0,.216Z" transform="translate(-73.142 -75.5)" fill="#5c6f99"/>
  <path id="Tracé_2161" data-name="Tracé 2161" d="M120.3,84.077a.108.108,0,0,1-.108-.108V80.148a.108.108,0,1,1,.216,0v3.821A.11.11,0,0,1,120.3,84.077Z" transform="translate(-108.007 -71.864)" fill="#5c6f99"/>
  <path id="Tracé_2162" data-name="Tracé 2162" d="M119.174,79.931a.106.106,0,0,1-.1-.069l-.262-.666-.3.671a.108.108,0,0,1-.143.056.11.11,0,0,1-.054-.145l.407-.907a.1.1,0,0,1,.1-.063.1.1,0,0,1,.1.069l.355.907a.11.11,0,0,1-.061.141A.136.136,0,0,1,119.174,79.931Z" transform="translate(-106.53 -70.898)" fill="#5c6f99"/>
  <rect id="Rectangle_1382" data-name="Rectangle 1382" width="18.031" height="15.216" transform="translate(41.301 7.456)" fill="#f2f1f7"/>
  <path id="Tracé_2163" data-name="Tracé 2163" d="M272.421,91.642H254.388a.108.108,0,0,1-.108-.108V76.318a.11.11,0,0,1,.108-.108h18.033a.11.11,0,0,1,.108.108V91.525a.108.108,0,0,1-.108.117ZM254.5,91.426h17.816v-15H254.5Z" transform="translate(-213.087 -68.862)" fill="#5c6f99"/>
  <rect id="Rectangle_1383" data-name="Rectangle 1383" width="18.031" height="1.566" transform="translate(41.301 5.892)" fill="#f2f1f7"/>
  <path id="Tracé_2164" data-name="Tracé 2164" d="M272.421,70.761H254.388a.108.108,0,0,1-.108-.108V69.088a.108.108,0,0,1,.108-.108h18.033a.108.108,0,0,1,.108.108v1.564A.108.108,0,0,1,272.421,70.761ZM254.5,70.544h17.816V69.2H254.5Z" transform="translate(-213.087 -63.197)" fill="#5c6f99"/>
  <path id="Tracé_2165" data-name="Tracé 2165" d="M289.754,87.17h-5.236a.108.108,0,0,1-.108-.108V84.978a.108.108,0,0,1,.108-.108h5.236a.108.108,0,0,1,.108.108v2.083A.108.108,0,0,1,289.754,87.17Zm-5.127-.216h5.019V85.086h-5.019Z" transform="translate(-236.698 -75.649)" fill="#5c6f99"/>
  <path id="Tracé_2166" data-name="Tracé 2166" d="M270.85,113.46h-5.242a.108.108,0,0,1-.108-.108v-2.083a.108.108,0,0,1,.108-.108h5.236a.108.108,0,0,1,.108.108v2.083A.108.108,0,0,1,270.85,113.46Zm-5.128-.216h5.019v-1.867h-5.019Z" transform="translate(-221.879 -96.251)" fill="#5c6f99"/>
  <path id="Tracé_2167" data-name="Tracé 2167" d="M308.064,113.46h-5.236a.108.108,0,0,1-.108-.108v-2.083a.108.108,0,0,1,.108-.108h5.236a.108.108,0,0,1,.108.108v2.083A.108.108,0,0,1,308.064,113.46Zm-5.128-.216h5.019v-1.867h-5.019Z" transform="translate(-251.047 -96.251)" fill="#5c6f99"/>
  <path id="Tracé_2168" data-name="Tracé 2168" d="M296.387,96.667a.108.108,0,0,1-.108-.106c-.048-1.932-.011-1.969.028-2.01a.115.115,0,0,1,.188.076.1.1,0,0,1-.011.045c-.019.143,0,1.064.011,1.884a.11.11,0,0,1-.106.11Z" transform="translate(-245.981 -83.214)" fill="#5c6f99"/>
  <path id="Tracé_2169" data-name="Tracé 2169" d="M285.784,105.319a.108.108,0,0,1-.108-.108v-1.564h-7.83v1.564a.108.108,0,1,1-.216,0v-1.672a.108.108,0,0,1,.108-.108h8.046a.108.108,0,0,1,.108.108v1.672A.108.108,0,0,1,285.784,105.319Z" transform="translate(-231.385 -90.193)" fill="#5c6f99"/>
  <path id="Tracé_2170" data-name="Tracé 2170" d="M263.763,133.961h-2.875a.108.108,0,0,1-.108-.108v-1.144a.108.108,0,0,1,.108-.108h2.875a.108.108,0,0,1,.108.108v1.144A.11.11,0,0,1,263.763,133.961ZM261,133.744h2.659v-.928H261Z" transform="translate(-218.18 -113.052)" fill="#5c6f99"/>
  <path id="Tracé_2171" data-name="Tracé 2171" d="M284.186,133.961h-2.877a.108.108,0,0,1-.108-.108v-1.144a.108.108,0,0,1,.108-.108h2.877a.108.108,0,0,1,.108.108v1.144A.108.108,0,0,1,284.186,133.961Zm-2.765-.216h2.657v-.928h-2.661Z" transform="translate(-234.183 -113.052)" fill="#5c6f99"/>
  <path id="Tracé_2172" data-name="Tracé 2172" d="M277.77,122.488a.11.11,0,0,1-.108-.106c-.026-1.437,0-1.452.03-1.493a.113.113,0,0,1,.186.076.173.173,0,0,1,0,.035c-.013.119,0,.9,0,1.378a.106.106,0,0,1-.106.11Z" transform="translate(-231.401 -103.854)" fill="#5c6f99"/>
  <path id="Tracé_2173" data-name="Tracé 2173" d="M271.946,128.726a.108.108,0,0,1-.108-.108V127.6h-4.2v1.021a.108.108,0,0,1-.216,0v-1.129a.108.108,0,0,1,.108-.108h4.418a.108.108,0,0,1,.108.108v1.129A.108.108,0,0,1,271.946,128.726Z" transform="translate(-223.384 -108.962)" fill="#5c6f99"/>
  <path id="Tracé_2174" data-name="Tracé 2174" d="M300.4,133.961h-2.875a.11.11,0,0,1-.108-.108v-1.144a.108.108,0,0,1,.108-.108H300.4a.108.108,0,0,1,.108.108v1.144A.108.108,0,0,1,300.4,133.961Zm-2.767-.216H300.3v-.928h-2.659Z" transform="translate(-246.893 -113.052)" fill="#5c6f99"/>
  <path id="Tracé_2175" data-name="Tracé 2175" d="M320.823,133.961h-2.875a.11.11,0,0,1-.108-.108v-1.144a.108.108,0,0,1,.108-.108h2.875a.108.108,0,0,1,.108.108v1.144A.108.108,0,0,1,320.823,133.961Zm-2.767-.216h2.659v-.928h-2.659Z" transform="translate(-262.896 -113.052)" fill="#5c6f99"/>
  <path id="Tracé_2176" data-name="Tracé 2176" d="M314.42,122.489a.108.108,0,0,1-.108-.106c-.026-1.437,0-1.452.03-1.493a.112.112,0,0,1,.186.076.088.088,0,0,1,0,.035c-.011.108,0,.781,0,1.378a.108.108,0,0,1-.106.11Z" transform="translate(-260.122 -103.854)" fill="#5c6f99"/>
  <path id="Tracé_2177" data-name="Tracé 2177" d="M308.6,128.726a.108.108,0,0,1-.108-.108V127.6h-4.2v1.021a.108.108,0,1,1-.216,0v-1.129a.108.108,0,0,1,.108-.108h4.42a.108.108,0,0,1,.108.108v1.129A.108.108,0,0,1,308.6,128.726Z" transform="translate(-252.105 -108.962)" fill="#5c6f99"/>
  <rect id="Rectangle_1384" data-name="Rectangle 1384" width="6.707" height="6.216" transform="translate(5.364 18.52)" fill="#f2f1f7"/>
  <path id="Tracé_2178" data-name="Tracé 2178" d="M94.975,133.772H88.268a.108.108,0,0,1-.108-.108v-6.216a.108.108,0,0,1,.108-.108h6.707a.108.108,0,0,1,.108.108v6.216A.108.108,0,0,1,94.975,133.772Zm-6.6-.216h6.49v-6h-6.49Z" transform="translate(-82.907 -108.93)" fill="#5c6f99"/>
  <path id="Tracé_2179" data-name="Tracé 2179" d="M98,133.916h-4.63a.108.108,0,1,1,0-.216H98a.108.108,0,0,1,0,.216Z" transform="translate(-86.903 -113.914)" fill="#5c6f99"/>
  <path id="Tracé_2180" data-name="Tracé 2180" d="M98,139.046h-4.63a.108.108,0,1,1,0-.216H98a.108.108,0,0,1,.108.108.11.11,0,0,1-.108.108Z" transform="translate(-86.903 -117.935)" fill="#5c6f99"/>
  <path id="Tracé_2181" data-name="Tracé 2181" d="M98,144.216h-4.63a.108.108,0,1,1,0-.216H98a.108.108,0,0,1,0,.216Z" transform="translate(-86.903 -121.986)" fill="#5c6f99"/>
  <path id="Tracé_2182" data-name="Tracé 2182" d="M97.081,149.3H93.368a.108.108,0,1,1,0-.216h3.713a.108.108,0,0,1,.108.108A.11.11,0,0,1,97.081,149.3Z" transform="translate(-86.903 -125.967)" fill="#5c6f99"/>
</svg>
