<svg xmlns="http://www.w3.org/2000/svg" width="69.975" height="65.903" viewBox="0 0 69.975 65.903">
  <g id="Groupe_2062" data-name="Groupe 2062" transform="translate(4202 488)">
    <g id="_573_team_building_flatline" data-name="#573_team_building_flatline" transform="translate(-4202 -488)">
      <path id="Tracé_4475" data-name="Tracé 4475" d="M222.361,76.583,211.2,79.306a6.564,6.564,0,0,1-3.142.042.994.994,0,0,1-.556-1.427c.153-.453,1.963-.581,1.963-.581s-.8-.364-.759-.706,1.457.5,1.457.5L220.812,73.9Z" transform="translate(-170.345 -62.099)" fill="#f2f1f7"/>
      <path id="Tracé_4476" data-name="Tracé 4476" d="M209.13,79.292a4.805,4.805,0,0,1-1.477-.167c-.478-.181-.976-.6-.64-1.6.131-.387,1.026-.556,1.638-.634-.236-.158-.473-.381-.439-.626a.22.22,0,0,1,.125-.175c.278-.128,1.026.278,1.488.556L220.417,73.4a.136.136,0,0,1,.161.064l1.549,2.683a.142.142,0,0,1,0,.125.15.15,0,0,1-.1.081l-11.142,2.717A5.233,5.233,0,0,1,209.13,79.292Zm-.64-2.964c.036.145.367.381.676.523a.134.134,0,0,1,.078.15.142.142,0,0,1-.125.114c-.834.058-1.766.259-1.841.487-.22.648-.07,1.048.473,1.251a6.594,6.594,0,0,0,3.02-.028.145.145,0,0,1,.042-.019l10.981-2.678L220.4,73.7l-10.556,3.2a.142.142,0,0,1-.111,0A4.275,4.275,0,0,0,208.491,76.328Z" transform="translate(-169.991 -61.736)" fill="#1f4076"/>
      <path id="Tracé_4477" data-name="Tracé 4477" d="M214.68,86.27s-.317.945.534,1.185" transform="translate(-175.563 -71.03)" fill="#f2f1f7"/>
      <path id="Tracé_4478" data-name="Tracé 4478" d="M214.858,87.213h-.036a.906.906,0,0,1-.584-.445,1.293,1.293,0,0,1-.045-.92.139.139,0,0,1,.264.089,1.007,1.007,0,0,0,.028.7.62.62,0,0,0,.412.3.139.139,0,0,1,.095.172A.136.136,0,0,1,214.858,87.213Z" transform="translate(-175.208 -70.657)" fill="#1f4076"/>
      <path id="Tracé_4479" data-name="Tracé 4479" d="M142.761,94.621a1.282,1.282,0,0,1,.356.306,1.39,1.39,0,0,1,.278,1.182c-.147.623-.92.818-1.435,1.093-.615.331-1.24.637-1.871.934-1.287.6-2.6,1.146-3.924,1.668-1.09.423-2.188.834-3.3,1.185-.359.117-1.151.52-1.543.406-.448-.128-1.39-2.553.779-2.934a7.289,7.289,0,0,0,1.249-.473q1.518-.581,3.023-1.176c1.179-.47,2.355-.945,3.52-1.449C140.722,95,141.9,94.131,142.761,94.621Z" transform="translate(-114.998 -76.953)" fill="#f2f1f7"/>
      <path id="Tracé_4480" data-name="Tracé 4480" d="M131.119,101.23a.719.719,0,0,1-.195-.022c-.336-.1-.734-.929-.692-1.668a1.581,1.581,0,0,1,1.485-1.527,3.573,3.573,0,0,0,.834-.3c.136-.061.278-.12.4-.17,1.04-.4,2.058-.792,3.017-1.176,1.418-.556,2.5-1.009,3.518-1.446.175-.075.37-.175.576-.278.745-.387,1.668-.868,2.419-.448h0a1.491,1.491,0,0,1,.392.339,1.532,1.532,0,0,1,.306,1.3c-.128.556-.667.8-1.143,1.009-.125.058-.25.114-.359.172-.556.3-1.173.606-1.88.937-1.2.556-2.483,1.112-3.932,1.668-1.251.487-2.3.862-3.309,1.187-.083.028-.195.072-.317.122A3.411,3.411,0,0,1,131.119,101.23ZM141.814,94.3a3.946,3.946,0,0,0-1.635.578,4.837,4.837,0,0,1-.6.278c-1.018.439-2.105.884-3.523,1.449-.962.384-1.98.779-3.023,1.179-.122.047-.25.1-.381.161a4,4,0,0,1-.893.32,1.307,1.307,0,0,0-1.254,1.265,1.768,1.768,0,0,0,.489,1.39,2.4,2.4,0,0,0,1.112-.278c.131-.053.247-.1.339-.128,1-.323,2.047-.7,3.292-1.182,1.443-.556,2.722-1.112,3.915-1.668.7-.325,1.31-.631,1.863-.929.117-.061.245-.12.375-.181.439-.2.893-.4.99-.834a1.249,1.249,0,0,0-.25-1.062,1.17,1.17,0,0,0-.317-.278h0A1.043,1.043,0,0,0,141.814,94.3Z" transform="translate(-114.638 -76.635)" fill="#1f4076"/>
      <path id="Tracé_4483" data-name="Tracé 4483" d="M100.1,156.964l-.395.762c-1.034,1.991-1.732,5.37-3.829,7.33-.773.723-9.263,4.433-9.263,4.433l-.918-2.5s6.738-4.257,7.313-4.839c.717-.734,3.779-10.5,3.779-10.5Z" transform="translate(-82.491 -118.229)" fill="#f2f1f7"/>
      <path id="Tracé_4484" data-name="Tracé 4484" d="M86.258,169.32a.125.125,0,0,1-.056,0,.131.131,0,0,1-.075-.078l-.918-2.5a.142.142,0,0,1,.058-.167c2.322-1.465,6.827-4.355,7.263-4.805.57-.584,2.9-7.736,3.746-10.442a.142.142,0,0,1,.117-.1.147.147,0,0,1,.136.064l3.32,5.317a.133.133,0,0,1,0,.136s-.147.278-.395.762a22.248,22.248,0,0,0-.909,2.152,13.644,13.644,0,0,1-2.948,5.214c-.781.731-8.943,4.307-9.29,4.449A.134.134,0,0,1,86.258,169.32Zm-.737-2.583.834,2.269c2.961-1.3,8.487-3.8,9.076-4.346a13.417,13.417,0,0,0,2.878-5.111,22.027,22.027,0,0,1,.92-2.18l.359-.692-3.126-5c-.523,1.655-3.059,9.58-3.721,10.266C92.2,162.493,86.374,166.18,85.521,166.736Z" transform="translate(-82.131 -117.924)" fill="#1f4076"/>
      <path id="Tracé_4485" data-name="Tracé 4485" d="M80.4,206.76s-2.069.345-2.055.651,1.668,5.528,2.28,5.306.681-3.443.681-3.443Z" transform="translate(-77.185 -158.014)" fill="#1f4076"/>
      <path id="Tracé_4486" data-name="Tracé 4486" d="M80.23,212.5a.32.32,0,0,1-.184-.061c-.784-.52-2.183-5.136-2.2-5.381,0-.108-.019-.434,2.172-.8a.139.139,0,0,1,.153.092l.918,2.5a.162.162,0,0,1,0,.053c-.019.776-.128,3.337-.784,3.57A.253.253,0,0,1,80.23,212.5Zm-2.1-5.436c.036.209.4,1.432.868,2.689.887,2.4,1.218,2.469,1.232,2.469.317-.114.556-1.791.592-3.287l-.868-2.38A6.184,6.184,0,0,0,78.131,207.059Z" transform="translate(-76.824 -157.649)" fill="#1f4076"/>
      <path id="Tracé_4487" data-name="Tracé 4487" d="M130.557,161.484s.1.309.259.818c.67,2.141,2.416,7.786,2.472,8.64.07,1.059-3.821,8.723-3.821,8.723l-2.639-.464s2.358-8.225,2.35-9.035c0-1.026-4.727-10.105-4.727-10.105Z" transform="translate(-110.466 -124.3)" fill="#f2f1f7"/>
      <path id="Tracé_4488" data-name="Tracé 4488" d="M129.064,179.449h-.022l-2.636-.464a.125.125,0,0,1-.092-.061.136.136,0,0,1-.017-.114c.812-2.836,2.35-8.37,2.344-8.993,0-.815-3.406-7.527-4.727-10.044a.142.142,0,0,1,0-.15.145.145,0,0,1,.142-.05L130.174,161a.139.139,0,0,1,.1.092l.259.82c.726,2.322,2.422,7.814,2.478,8.673.072,1.085-3.676,8.481-3.835,8.8A.139.139,0,0,1,129.064,179.449Zm-2.458-.715,2.383.423c1.112-2.191,3.812-7.736,3.757-8.559s-1.9-6.8-2.466-8.62l-.239-.731-5.731-1.338c.8,1.541,4.594,8.943,4.6,9.9.014.767-1.98,7.775-2.308,8.923Z" transform="translate(-110.063 -123.946)" fill="#1f4076"/>
      <path id="Tracé_4489" data-name="Tracé 4489" d="M102.763,84.313a4.082,4.082,0,0,0-1.6.445A3.21,3.21,0,0,0,99.279,86.8a3.363,3.363,0,0,0,.506,2.225,9.768,9.768,0,0,1,1.032,2.094,2.129,2.129,0,0,1-.481,2.161,7.969,7.969,0,0,0,2.225-1.3,2,2,0,0,0,.72-1.285,2.581,2.581,0,0,0-.295-1.19,5.342,5.342,0,0,1-.556-1.752,1.706,1.706,0,0,1,.715-1.6c.464-.278,1.98-.247,1.741-1.112C104.7,84.405,103.305,84.291,102.763,84.313Z" transform="translate(-92.263 -69.615)" fill="#f2f1f7"/>
      <path id="Tracé_4490" data-name="Tracé 4490" d="M99.973,93.068a.139.139,0,0,1-.092-.245,1.985,1.985,0,0,0,.439-2.019,6.823,6.823,0,0,0-.723-1.532c-.1-.178-.2-.353-.3-.531a3.458,3.458,0,0,1-.52-2.327,3.385,3.385,0,0,1,1.963-2.141,4.171,4.171,0,0,1,1.652-.459h0c.556-.022,2.052.089,2.266.859a.615.615,0,0,1-.05.509c-.2.339-.717.462-1.173.57a2.526,2.526,0,0,0-.578.178,1.576,1.576,0,0,0-.648,1.468,5.022,5.022,0,0,0,.5,1.63l.033.075a2.731,2.731,0,0,1,.306,1.257,2.135,2.135,0,0,1-.765,1.39,8.125,8.125,0,0,1-2.255,1.321.142.142,0,0,1-.056,0Zm2.433-8.976a3.915,3.915,0,0,0-1.543.431,3.111,3.111,0,0,0-1.81,1.947,3.2,3.2,0,0,0,.492,2.141c.095.175.195.348.295.523a7,7,0,0,1,.748,1.6,2.542,2.542,0,0,1-.145,1.83,6.409,6.409,0,0,0,1.652-1.029,1.916,1.916,0,0,0,.676-1.193,2.431,2.431,0,0,0-.278-1.126l-.033-.075a5.253,5.253,0,0,1-.52-1.721,1.833,1.833,0,0,1,.784-1.727,2.608,2.608,0,0,1,.656-.209c.384-.092.859-.206,1-.442a.359.359,0,0,0,.022-.278c-.153-.556-1.427-.678-1.988-.656Z" transform="translate(-91.901 -69.254)" fill="#1f4076"/>
      <path id="Tracé_4491" data-name="Tracé 4491" d="M113.8,83.732a1.629,1.629,0,0,0-.2,1.054,1.243,1.243,0,0,0,.256.673.959.959,0,0,0,.8.314.537.537,0,0,0,.359-.147.623.623,0,0,0,.131-.3C115.3,84.566,114.745,82.241,113.8,83.732Z" transform="translate(-102.621 -68.844)" fill="#1f4076"/>
      <path id="Tracé_4492" data-name="Tracé 4492" d="M114.224,85.553a1.09,1.09,0,0,1-.834-.367,1.357,1.357,0,0,1-.278-.745,1.771,1.771,0,0,1,.22-1.143h0c.367-.581.69-.6.893-.52.578.234.834,1.627.7,2.225a.751.751,0,0,1-.164.367.662.662,0,0,1-.45.189Zm-.659-2.108a1.49,1.49,0,0,0-.178.962,1.087,1.087,0,0,0,.222.6.834.834,0,0,0,.681.278.428.428,0,0,0,.278-.1.512.512,0,0,0,.095-.236c.108-.512-.147-1.741-.534-1.9-.192-.075-.409.181-.556.412Z" transform="translate(-102.267 -68.482)" fill="#1f4076"/>
      <path id="Tracé_4493" data-name="Tracé 4493" d="M120.6,82.264a1.164,1.164,0,0,1-1.129.356,2.859,2.859,0,0,1-1.293-.523,4.9,4.9,0,0,1-2.024-4.727c.3-1.821,2.116-3.634,4.071-2.942a2.414,2.414,0,0,1,1.438,1.435.72.72,0,0,1,.762.195,1.325,1.325,0,0,1,.217,1.649c-.445.993-.99,1.947-1.39,2.953A6.44,6.44,0,0,1,120.6,82.264Z" transform="translate(-104.435 -62.372)" fill="#f2f1f7"/>
      <path id="Tracé_4494" data-name="Tracé 4494" d="M119.287,82.377h-.242a2.934,2.934,0,0,1-1.357-.556,5.005,5.005,0,0,1-2.083-4.875,4.143,4.143,0,0,1,1.891-2.781,2.736,2.736,0,0,1,2.364-.256,2.55,2.55,0,0,1,1.474,1.39.9.9,0,0,1,.776.278,1.474,1.474,0,0,1,.247,1.8c-.184.412-.387.818-.584,1.212-.278.556-.556,1.146-.8,1.738-.075.189-.136.389-.195.581a2.981,2.981,0,0,1-.481,1.071h0a1.235,1.235,0,0,1-1.007.395Zm-.336-8.364a2.589,2.589,0,0,0-1.3.364,3.868,3.868,0,0,0-1.76,2.6,4.786,4.786,0,0,0,1.966,4.6,2.7,2.7,0,0,0,1.229.5,1.073,1.073,0,0,0,1.009-.309h0a2.781,2.781,0,0,0,.428-.97c.058-.2.122-.4.2-.6.239-.6.531-1.19.812-1.757.2-.392.4-.8.578-1.2a1.183,1.183,0,0,0-.186-1.49.59.59,0,0,0-.609-.167.142.142,0,0,1-.186-.081,2.244,2.244,0,0,0-1.351-1.349,2.419,2.419,0,0,0-.818-.133Z" transform="translate(-104.037 -61.992)" fill="#1f4076"/>
      <path id="Tracé_4495" data-name="Tracé 4495" d="M137.49,87.83s1.185,1.007,1.09,1.313-.712.3-.712.3" transform="translate(-119.88 -72.156)" fill="#f2f1f7"/>
      <path id="Tracé_4496" data-name="Tracé 4496" d="M137.541,89.224h0a.142.142,0,0,1-.139-.142.133.133,0,0,1,.142-.136c.15,0,.528-.05.576-.2s-.476-.684-1.046-1.168a.139.139,0,0,1,.181-.211c.467.4,1.237,1.112,1.132,1.46S137.652,89.224,137.541,89.224Z" transform="translate(-119.544 -71.795)" fill="#1f4076"/>
      <path id="Tracé_4497" data-name="Tracé 4497" d="M128.923,90.482a7.97,7.97,0,0,1-3.615-1.279,26.807,26.807,0,0,1-.6-2.619,1.771,1.771,0,0,0,1.112-1.477c.214-1.221,1.349-1.413,1.788-3.017.648.278.759,1.224.926,1.813q.35,1.246.642,2.5c.125.534-1.229.94-1.516.851C127.969,88.046,127.969,88.046,128.923,90.482Z" transform="translate(-110.653 -68.012)" fill="#f2f1f7"/>
      <path id="Tracé_4498" data-name="Tracé 4498" d="M128.367,90.3a7.634,7.634,0,0,1-3.615-1.39,26.263,26.263,0,0,1-.606-2.642.142.142,0,0,1,.1-.158,1.589,1.589,0,0,0,1.021-1.365,2.667,2.667,0,0,1,.809-1.39,3.648,3.648,0,0,0,.993-1.616.142.142,0,0,1,.189-.092c.6.259.781.993.923,1.585.028.114.053.222.081.32.234.834.45,1.668.645,2.5a.531.531,0,0,1-.2.517,2.5,2.5,0,0,1-1.249.509c.239.615.314.812,1.185,3.031a.142.142,0,0,1-.014.125.134.134,0,0,1-.106.064A1.461,1.461,0,0,1,128.367,90.3Zm-3.354-1.507a8.52,8.52,0,0,0,3.3,1.229c-.882-2.252-.89-2.272-1.187-3.042a.139.139,0,0,1,.028-.145.142.142,0,0,1,.142-.039,2.047,2.047,0,0,0,1.221-.434c.1-.092.136-.175.12-.25-.195-.834-.412-1.668-.642-2.5-.031-.1-.056-.214-.083-.331a2.277,2.277,0,0,0-.623-1.315,4.035,4.035,0,0,1-1,1.579,2.4,2.4,0,0,0-.74,1.254,1.946,1.946,0,0,1-1.112,1.538C124.526,86.74,124.779,88.061,125.013,88.79Z" transform="translate(-110.244 -67.682)" fill="#1f4076"/>
      <path id="Tracé_4499" data-name="Tracé 4499" d="M137.312,95.42a.7.7,0,0,1-1.062.017" transform="translate(-118.984 -77.635)" fill="#f2f1f7"/>
      <path id="Tracé_4500" data-name="Tracé 4500" d="M136.394,95.5a.834.834,0,0,1-.6-.278.14.14,0,0,1,.2-.192.517.517,0,0,0,.406.2.723.723,0,0,0,.45-.217.139.139,0,0,1,.206.186.979.979,0,0,1-.653.309Z" transform="translate(-118.625 -77.315)" fill="#1f4076"/>
      <path id="Tracé_4501" data-name="Tracé 4501" d="M132.283,100.107a1.5,1.5,0,0,1-1.173-.217,1.927,1.927,0,0,0,1.6,1.307Z" transform="translate(-115.274 -80.862)" fill="#1f4076"/>
      <path id="Tracé_4502" data-name="Tracé 4502" d="M132.361,101h0a2.055,2.055,0,0,1-1.721-1.39.136.136,0,0,1,.053-.159.142.142,0,0,1,.167,0,1.371,1.371,0,0,0,1.054.192.136.136,0,0,1,.161.083l.423,1.09a.139.139,0,0,1-.131.189Zm-1.29-1.112a1.646,1.646,0,0,0,1.079.834l-.3-.793a1.81,1.81,0,0,1-.776-.067Z" transform="translate(-114.929 -80.525)" fill="#1f4076"/>
      <ellipse id="Ellipse_409" data-name="Ellipse 409" cx="0.12" cy="0.309" rx="0.12" ry="0.309" transform="translate(17.032 15.077) rotate(-12.17)" fill="#1f4076"/>
      <path id="Tracé_4503" data-name="Tracé 4503" d="M127.825,88.945a1.173,1.173,0,0,0-.4-.5,1.7,1.7,0,0,0-.409-.278.556.556,0,0,0-.484,0,.526.526,0,0,0-.25.35.99.99,0,0,0,.017.442,1.846,1.846,0,0,0,1.282,1.318l-.058-.036" transform="translate(-111.778 -72.358)" fill="#f2f1f7"/>
      <path id="Tracé_4504" data-name="Tracé 4504" d="M127.242,90.017a.083.083,0,0,1-.036,0,2,2,0,0,1-1.374-1.438,1.112,1.112,0,0,1-.017-.5.653.653,0,0,1,.314-.448.7.7,0,0,1,.609,0,1.792,1.792,0,0,1,.442.309,1.31,1.31,0,0,1,.439.556.145.145,0,1,1-.278.083,1.046,1.046,0,0,0-.353-.437,1.572,1.572,0,0,0-.375-.278.431.431,0,0,0-.364,0,.381.381,0,0,0-.178.259.835.835,0,0,0,.014.378,1.73,1.73,0,0,0,1.057,1.2.136.136,0,0,1,.1.019l.058.036a.133.133,0,0,1,.056.172A.136.136,0,0,1,127.242,90.017Z" transform="translate(-111.436 -71.96)" fill="#1f4076"/>
      <path id="Tracé_4505" data-name="Tracé 4505" d="M126.377,107.474s-3.893-1.963-5.256-.653-1.3,5.578-1.371,12.722l8.378-.581S128.256,108.511,126.377,107.474Z" transform="translate(-107.073 -85.54)" fill="#fce15c"/>
      <path id="Tracé_4508" data-name="Tracé 4508" d="M109.419,152.246l-3.979,9.8s10.211,3.5,14.894,2.689L117.8,151.67Z" transform="translate(-96.742 -118.243)" fill="#1f4076"/>
      <path id="Tracé_4509" data-name="Tracé 4509" d="M118.334,164.617c-5.005,0-12.928-2.692-13.3-2.82a.133.133,0,0,1-.083-.184l3.979-9.8a.136.136,0,0,1,.12-.086l8.378-.581a.142.142,0,0,1,.145.111l2.536,13.07a.156.156,0,0,1-.022.106.144.144,0,0,1-.092.058,9.856,9.856,0,0,1-1.66.122Zm-13.069-3.034c1.226.406,10.191,3.315,14.546,2.658l-2.486-12.791-8.167.556Z" transform="translate(-96.38 -117.868)" fill="#1f4076"/>
      <path id="Tracé_4510" data-name="Tracé 4510" d="M131.635,228.89s-.74,1.963-.464,2.105,5.617,1.326,5.734.681-2.636-2.322-2.636-2.322Z" transform="translate(-115.273 -173.991)" fill="#1f4076"/>
      <path id="Tracé_4511" data-name="Tracé 4511" d="M135.883,231.648a26.226,26.226,0,0,1-5.1-.887c-.095-.05-.384-.2.4-2.28a.142.142,0,0,1,.156-.086l2.633.464a.136.136,0,0,1,.047.017c.665.406,2.825,1.78,2.7,2.467a.292.292,0,0,1-.175.211A1.625,1.625,0,0,1,135.883,231.648Zm-4.955-1.14a27.646,27.646,0,0,0,2.761.6c2.522.434,2.747.178,2.756.167.058-.331-1.274-1.374-2.553-2.155l-2.5-.439A6.553,6.553,0,0,0,130.927,230.508Zm0,.014Z" transform="translate(-114.941 -173.631)" fill="#1f4076"/>
      <path id="Tracé_4512" data-name="Tracé 4512" d="M299.323,188.034c.067.2.729,1.326.592,1.543s-2.283,1.582-1.649,1.785a24.8,24.8,0,0,0,4.271-.278l-2.205-5.784Z" transform="translate(-235.864 -142.522)" fill="#1f4076"/>
      <path id="Tracé_4513" data-name="Tracé 4513" d="M298.479,191.195a2.348,2.348,0,0,1-.612-.053.278.278,0,0,1-.209-.217c-.053-.292.381-.681,1.31-1.39a4.678,4.678,0,0,0,.473-.384,4.33,4.33,0,0,0-.445-1.079,3.627,3.627,0,0,1-.164-.345.146.146,0,0,1,0-.092l1.015-2.733a.139.139,0,0,1,.131-.092h0a.136.136,0,0,1,.128.092l2.2,5.77a.148.148,0,0,1,0,.122.139.139,0,0,1-.1.067C301.894,190.9,299.655,191.195,298.479,191.195Zm-.556-.325h.019a20.871,20.871,0,0,0,4.038-.278l-2-5.25-.868,2.336c.028.061.078.161.131.278.389.765.556,1.162.431,1.354a3.006,3.006,0,0,1-.537.456c-.323.239-1.185.9-1.2,1.1Z" transform="translate(-235.506 -142.168)" fill="#1f4076"/>
      <path id="Tracé_4514" data-name="Tracé 4514" d="M254.361,191.12s1.26,3.632,1.048,3.718-5.561,1.313-5.32.987a10.154,10.154,0,0,1,2.747-1.474c.028.15-.334-1.763-.334-1.763Z" transform="translate(-201.162 -146.723)" fill="#1f4076"/>
      <path id="Tracé_4515" data-name="Tracé 4515" d="M249.892,195.636c-.147,0-.245-.017-.278-.056a.164.164,0,0,1,0-.2,11.485,11.485,0,0,1,2.7-1.516c-.033-.15-.078-.378-.145-.729l-.167-.887a.131.131,0,0,1,.05-.133l1.858-1.468a.136.136,0,0,1,.125-.025.139.139,0,0,1,.092.089c1.3,3.754,1.112,3.837.97,3.893A41.629,41.629,0,0,1,249.892,195.636Zm2.519-1.51a14.822,14.822,0,0,0-2.361,1.246c1-.1,4.341-.851,4.883-1.007a25.971,25.971,0,0,0-1-3.376l-1.641,1.3c.064.328.295,1.538.32,1.668h0a.145.145,0,0,1-.111.164A.065.065,0,0,1,252.412,194.126Zm-.056-.106h-.014a.108.108,0,0,0,.044.072.465.465,0,0,1-.031-.072Z" transform="translate(-200.801 -146.362)" fill="#1f4076"/>
      <path id="Tracé_4516" data-name="Tracé 4516" d="M248.465,109.672s-3.729,7.711-3.776,10.152,3.145,12.714,3.145,12.714l3.253-.539s-2.425-10.267-2.058-11.34,3.164-7.975,3.164-7.975,1.112,5.92,1.885,8.1,5.728,11.532,5.728,11.532l3.406-.656s-4.513-10.461-4.68-12.266-1.054-11.454-1.054-11.454Z" transform="translate(-197.269 -86.674)" fill="#1f4076"/>
      <path id="Tracé_4517" data-name="Tracé 4517" d="M247.465,132.317a.139.139,0,0,1-.133-.1c-.131-.42-3.2-10.319-3.153-12.758s3.637-9.894,3.79-10.211a.139.139,0,0,1,.1-.075l9.012-1.732a.142.142,0,0,1,.111.025.153.153,0,0,1,.056.1s.887,9.649,1.054,11.457c.164,1.763,4.624,12.118,4.669,12.221a.144.144,0,0,1,0,.122.142.142,0,0,1-.1.07l-3.406.656a.133.133,0,0,1-.147-.072c-.2-.381-4.958-9.382-5.737-11.548a73.922,73.922,0,0,1-1.8-7.655c-.62,1.535-2.675,6.629-2.984,7.527-.278.851,1.39,8.417,2.061,11.262a.141.141,0,0,1-.111.17l-3.253.539Zm.723-22.883c-.353.74-3.687,7.764-3.732,10.033s2.753,11.415,3.1,12.555l2.989-.5c-.367-1.566-2.378-10.228-2.019-11.27s3.059-7.7,3.164-7.981a.133.133,0,0,1,.142-.086.136.136,0,0,1,.122.111,80.17,80.17,0,0,0,1.88,8.078c.731,2.033,5.158,10.45,5.673,11.423l3.134-.6c-.587-1.368-4.463-10.444-4.622-12.149s-.926-10.064-1.04-11.3Z" transform="translate(-196.9 -86.313)" fill="#1f4076"/>
      <path id="Tracé_4518" data-name="Tracé 4518" d="M245.426,67.37l-4.346,2.264.82,4.455,4.085-.982Z" transform="translate(-194.664 -57.385)" fill="#5c6f99"/>
      <path id="Tracé_4519" data-name="Tracé 4519" d="M254.779,65.156c.259-.353,5.617-1.582,7.23-.239s2.706,10.845,2.956,13.762l-10.545.765S253.35,67.106,254.779,65.156Z" transform="translate(-204.017 -55.172)" fill="#5c6f99"/>
      <path id="Tracé_4520" data-name="Tracé 4520" d="M253.851,87.3a.136.136,0,0,1-.136-.128c-.028-.35-.665-8.6-.2-10.639a.139.139,0,0,1,.167-.1.136.136,0,0,1,.1.167c-.456,1.994.2,10.469.2,10.553a.139.139,0,0,1-.128.15Z" transform="translate(-203.519 -63.923)" fill="#1f4076"/>
      <path id="Tracé_4521" data-name="Tracé 4521" d="M252.035,39.845a3.287,3.287,0,0,0,1.574-.806,1.313,1.313,0,0,0,.417-.676.626.626,0,0,0-.309-.681.921.921,0,0,0,.464-.712,1.624,1.624,0,0,0-.156-.862,1.112,1.112,0,0,0-.815-.734,1.152,1.152,0,0,0,.214-.929,1.054,1.054,0,0,0-.3-.384,5.1,5.1,0,0,0-.776-.584c-.147-.089-.336-.175-.484-.081a1.668,1.668,0,0,0-1.21-1.29,1.39,1.39,0,0,0-.907.044,5.367,5.367,0,0,0-.781.584,1.688,1.688,0,0,0-1.5.211,1.16,1.16,0,0,0-.353,1.112,2.542,2.542,0,0,0-.856.67A1.229,1.229,0,0,0,246,35.757a.834.834,0,0,0,.787.642.881.881,0,0,0-.128,1.157,1.076,1.076,0,0,0,1.143.373.347.347,0,0,1,.175-.022.417.417,0,0,1,.181.125c.178.159.412.125.6.234a5.775,5.775,0,0,1,.734.6,8.562,8.562,0,0,0,.742.528,4.975,4.975,0,0,0,.862.556c.278.108.453,0,.731-.07Z" transform="translate(-198.197 -31.887)" fill="#f2f1f7"/>
      <path id="Tracé_4522" data-name="Tracé 4522" d="M250.937,39.724a.773.773,0,0,1-.278-.053,2.412,2.412,0,0,1-.612-.384c-.092-.07-.184-.139-.278-.2a8.075,8.075,0,0,1-.756-.539c-.075-.061-.156-.133-.234-.206a2.994,2.994,0,0,0-.478-.378.764.764,0,0,0-.225-.072.89.89,0,0,1-.4-.178l-.036-.036a.38.38,0,0,0-.081-.061.323.323,0,0,0-.089.017,1.212,1.212,0,0,1-1.312-.42,1.043,1.043,0,0,1-.031-1.137,1.015,1.015,0,0,1-.651-.709,1.368,1.368,0,0,1,.278-1.148,2.458,2.458,0,0,1,.831-.659A1.3,1.3,0,0,1,247,32.407a1.813,1.813,0,0,1,1.56-.278,5.841,5.841,0,0,1,.762-.556,1.527,1.527,0,0,1,1-.05,1.819,1.819,0,0,1,1.276,1.246.776.776,0,0,1,.456.142,5.332,5.332,0,0,1,.793.6,1.143,1.143,0,0,1,.336.439,1.093,1.093,0,0,1-.136.882,1.351,1.351,0,0,1,.729.776,1.768,1.768,0,0,1,.167.934,1.112,1.112,0,0,1-.362.7.812.812,0,0,1,.2.7,1.426,1.426,0,0,1-.456.751,3.459,3.459,0,0,1-1.638.834h0l-.214.05a.625.625,0,0,0-.178.05A1.26,1.26,0,0,1,250.937,39.724Zm-3.393-2.386h.067a.423.423,0,0,1,.211.131l.031.028a.606.606,0,0,0,.278.114,1.113,1.113,0,0,1,.295.1,2.951,2.951,0,0,1,.531.414c.075.07.15.136.225.2a8.366,8.366,0,0,0,.742.517c.1.067.195.139.292.214a2.223,2.223,0,0,0,.542.342.609.609,0,0,0,.453-.019c.061-.019.125-.039.2-.056l.209-.047h0a3.2,3.2,0,0,0,1.51-.773,1.159,1.159,0,0,0,.378-.6.487.487,0,0,0-.228-.528.145.145,0,0,1-.083-.122.142.142,0,0,1,.078-.128.8.8,0,0,0,.389-.609,1.5,1.5,0,0,0-.145-.787c-.081-.184-.311-.615-.7-.656a.131.131,0,0,1-.108-.075.136.136,0,0,1,0-.131,1.055,1.055,0,0,0,.206-.812.9.9,0,0,0-.261-.328,5,5,0,0,0-.754-.556c-.108-.067-.253-.136-.336-.083a.136.136,0,0,1-.131,0,.128.128,0,0,1-.081-.1,1.546,1.546,0,0,0-1.112-1.179,1.249,1.249,0,0,0-.818.042,7.729,7.729,0,0,0-.709.52.139.139,0,0,1-.172.064,1.543,1.543,0,0,0-1.36.186,1.01,1.01,0,0,0-.309.984.139.139,0,0,1-.072.156,2.341,2.341,0,0,0-.834.626,1.1,1.1,0,0,0-.239.909.692.692,0,0,0,.645.537.128.128,0,0,1,.136.089.133.133,0,0,1-.042.156.742.742,0,0,0-.1.97.94.94,0,0,0,.993.32A.632.632,0,0,1,247.544,37.338Z" transform="translate(-197.814 -31.463)" fill="#1f4076"/>
      <path id="Tracé_4523" data-name="Tracé 4523" d="M252.241,53.93s-.523,1.415-.3,1.63.745-.083.745-.083" transform="translate(-202.466 -47.682)" fill="#f2f1f7"/>
      <path id="Tracé_4524" data-name="Tracé 4524" d="M251.821,55.416a.456.456,0,0,1-.323-.117c-.256-.242.053-1.218.261-1.777a.139.139,0,0,1,.178-.083.145.145,0,0,1,.083.181,3.593,3.593,0,0,0-.328,1.482c.075.114.442-.031.576-.108a.142.142,0,0,1,.189.053.136.136,0,0,1-.05.189A1.351,1.351,0,0,1,251.821,55.416Z" transform="translate(-202.115 -47.322)" fill="#1f4076"/>
      <path id="Tracé_4525" data-name="Tracé 4525" d="M251.4,43.537a.392.392,0,0,0-.125.234,2.572,2.572,0,0,0,0,.957,14.661,14.661,0,0,0,.378,1.858c.195.812.412,1.618.645,2.419.147.509,1.485.209,1.685,0l.278,2.083a2.79,2.79,0,0,0,1.641-.723c.959-.751.89-1.015.89-1.015l-.64-2.327a1.731,1.731,0,0,1-1.649-.715c-.122-.15-.214-.4-.361-.52s-.4-.131-.556-.336a.77.77,0,0,1-.12-.676c.014-.05.033-.111,0-.15a.2.2,0,0,0-.083-.033.648.648,0,0,1-.473-.8c-.336.078-.64-.206-.87-.467.072.083-.52.147-.528.153A.32.32,0,0,0,251.4,43.537Z" transform="translate(-201.99 -40.023)" fill="#f2f1f7"/>
      <path id="Tracé_4526" data-name="Tracé 4526" d="M253.85,50.9h-.022a.136.136,0,0,1-.131-.12l-.242-1.877a2.383,2.383,0,0,1-1.29.159.509.509,0,0,1-.417-.345c-.234-.8-.451-1.616-.648-2.425l-.042-.175a13.116,13.116,0,0,1-.339-1.7,2.747,2.747,0,0,1,.017-1.009.512.512,0,0,1,.175-.309h0a.472.472,0,0,1,.15-.075h.05a2.483,2.483,0,0,0,.4-.075.137.137,0,0,1,.031-.039.139.139,0,0,1,.2,0h0c.2.231.47.487.734.423a.14.14,0,0,1,.164.178.484.484,0,0,0,.053.387.5.5,0,0,0,.309.236.236.236,0,0,1,.192.35.62.62,0,0,0,.1.556.525.525,0,0,0,.261.167,1.043,1.043,0,0,1,.278.145,1.173,1.173,0,0,1,.256.342,1.886,1.886,0,0,0,.128.2,1.611,1.611,0,0,0,1.507.667.139.139,0,0,1,.167.1l.64,2.33c.022.114-.033.428-.959,1.154A3,3,0,0,1,253.85,50.9Zm-.278-2.361a.108.108,0,0,1,.042,0,.133.133,0,0,1,.095.114l.253,1.947a3.081,3.081,0,0,0,1.435-.687c.731-.573.834-.834.854-.884l-.6-2.188A1.908,1.908,0,0,1,254,46.064a1.564,1.564,0,0,1-.153-.236.982.982,0,0,0-.192-.264.648.648,0,0,0-.2-.1.812.812,0,0,1-.381-.256.912.912,0,0,1-.142-.8v-.017a.72.72,0,0,1-.478-.356.784.784,0,0,1-.111-.417,1.176,1.176,0,0,1-.717-.425,2.594,2.594,0,0,1-.475.095.18.18,0,0,0-.07.031h0c-.028.022-.047.058-.075.159a2.466,2.466,0,0,0,0,.9,13.379,13.379,0,0,0,.334,1.668l.042.175c.2.806.412,1.618.645,2.414.019.072.092.122.214.153a1.972,1.972,0,0,0,1.235-.211.142.142,0,0,1,.1-.031ZM251,43.214Z" transform="translate(-201.595 -39.699)" fill="#1f4076"/>
      <path id="Tracé_4527" data-name="Tracé 4527" d="M260.688,49.665a1.112,1.112,0,0,1,.1-.612,1.47,1.47,0,0,1,.209-.437.537.537,0,0,1,.406-.236.509.509,0,0,1,.378.178.962.962,0,0,1,.195.378,1.782,1.782,0,0,1-.442,1.735l.033-.058" transform="translate(-208.813 -43.676)" fill="#f2f1f7"/>
      <path id="Tracé_4528" data-name="Tracé 4528" d="M261.132,50.458a.131.131,0,0,1-.083-.028.139.139,0,0,1-.036-.181l.025-.044h0a1.652,1.652,0,0,0,.395-1.585.834.834,0,0,0-.164-.325.375.375,0,0,0-.278-.131.406.406,0,0,0-.3.181,1.475,1.475,0,0,0-.189.4.973.973,0,0,0-.092.534.145.145,0,0,1-.108.167.136.136,0,0,1-.164-.106,1.219,1.219,0,0,1,.1-.687,1.589,1.589,0,0,1,.228-.476.676.676,0,0,1,.514-.278.642.642,0,0,1,.484.222,1.083,1.083,0,0,1,.225.434,1.947,1.947,0,0,1-.464,1.874A.139.139,0,0,1,261.132,50.458Z" transform="translate(-208.414 -43.329)" fill="#1f4076"/>
      <path id="Tracé_4529" data-name="Tracé 4529" d="M261.09,61.349a2.225,2.225,0,0,0,.851-.929,1.866,1.866,0,0,1-.731,1.858Z" transform="translate(-209.11 -52.368)" fill="#1f4076"/>
      <path id="Tracé_4530" data-name="Tracé 4530" d="M260.846,62.1a.164.164,0,0,1-.061,0,.145.145,0,0,1-.078-.108l-.12-.929a.139.139,0,0,1,.067-.136,2.138,2.138,0,0,0,.8-.856.131.131,0,0,1,.142-.089.136.136,0,0,1,.122.111,2.005,2.005,0,0,1-.8,2A.139.139,0,0,1,260.846,62.1Zm.028-1,.081.606a1.6,1.6,0,0,0,.509-1.137,2.782,2.782,0,0,1-.59.528Z" transform="translate(-208.746 -52.047)" fill="#1f4076"/>
      <ellipse id="Ellipse_410" data-name="Ellipse 410" cx="0.116" cy="0.296" rx="0.116" ry="0.296" transform="translate(49.642 5.418) rotate(-15.154)" fill="#1f4076"/>
      <path id="Tracé_4531" data-name="Tracé 4531" d="M254.8,59.371a.611.611,0,0,1-.189-.025.145.145,0,1,1,.081-.278c.022,0,.467.128.79-.523a.142.142,0,0,1,.186-.061.139.139,0,0,1,.064.186,1.068,1.068,0,0,1-.932.7Z" transform="translate(-204.355 -50.96)" fill="#1f4076"/>
      <path id="Tracé_4534" data-name="Tracé 4534" d="M260.595,75.3l-3.045,2.213,2.252,3.8,2.511-1.593" transform="translate(-206.554 -63.11)" fill="#5c6f99"/>
      <path id="Tracé_4535" data-name="Tracé 4535" d="M259.442,81.077h-.033a.147.147,0,0,1-.086-.067l-2.252-3.8a.142.142,0,0,1,.036-.184l3.059-2.225a.139.139,0,0,1,.192.031.136.136,0,0,1-.031.195l-2.942,2.141,2.116,3.568,2.391-1.516a.139.139,0,1,1,.147.234l-2.5,1.593A.147.147,0,0,1,259.442,81.077Z" transform="translate(-206.194 -62.733)" fill="#1f4076"/>
      <path id="Tracé_4536" data-name="Tracé 4536" d="M177.187,91.6a.943.943,0,0,0-.481.72.39.39,0,0,0,.058.278.181.181,0,0,0,.253.044.537.537,0,0,0-.058.773.77.77,0,0,0,.809.172,1.374,1.374,0,0,0,.656-.556c.384-.578.681-1.9-.136-2.269a1.185,1.185,0,0,0-1.062.17c-.15.1-.412.231-.4.45C176.837,91.536,177.023,91.778,177.187,91.6Z" transform="translate(-148.187 -74.23)" fill="#f2f1f7"/>
      <path id="Tracé_4537" data-name="Tracé 4537" d="M177.129,93.326a.834.834,0,0,1-.631-.278.709.709,0,0,1-.167-.556.7.7,0,0,1,.053-.192.408.408,0,0,1-.089-.081.5.5,0,0,1-.083-.373,1.048,1.048,0,0,1,.278-.606.486.486,0,0,1-.147-.314c-.017-.278.239-.437.409-.556l.053-.033A1.338,1.338,0,0,1,178,90.156a.973.973,0,0,1,.556.648,2.469,2.469,0,0,1-.348,1.824,1.493,1.493,0,0,1-.729.612A1.012,1.012,0,0,1,177.129,93.326Zm-.409-1a.331.331,0,0,0-.111.22.428.428,0,0,0,.095.331.623.623,0,0,0,.662.133,1.224,1.224,0,0,0,.584-.5,2.225,2.225,0,0,0,.314-1.593.706.706,0,0,0-.392-.473,1.051,1.051,0,0,0-.929.161l-.056.036c-.122.075-.278.178-.278.278a.231.231,0,0,0,.081.145l.072-.042a.142.142,0,0,1,.178.036.136.136,0,0,1,0,.178.328.328,0,0,1-.136.095.815.815,0,0,0-.309.556.259.259,0,0,0,.031.178.056.056,0,0,0,.047.022h.017a.136.136,0,0,1,.186.028.139.139,0,0,1-.017.189Z" transform="translate(-147.828 -73.787)" fill="#1f4076"/>
      <rect id="Rectangle_2397" data-name="Rectangle 2397" width="21.217" height="7.956" transform="translate(0.139 57.808)" fill="#f2f1f7"/>
      <path id="Tracé_4538" data-name="Tracé 4538" d="M95.527,247.084H74.3a.139.139,0,0,1-.139-.139v-7.956a.139.139,0,0,1,.139-.139H95.527a.142.142,0,0,1,.139.139v7.967A.142.142,0,0,1,95.527,247.084Zm-21.078-.278H95.388v-7.678H74.438Z" transform="translate(-74.16 -181.181)" fill="#1f4076"/>
      <rect id="Rectangle_2398" data-name="Rectangle 2398" width="21.217" height="12.171" transform="translate(24.384 53.593)" fill="#f2f1f7"/>
      <path id="Tracé_4539" data-name="Tracé 4539" d="M182.706,236.139H161.489a.139.139,0,0,1-.139-.139V223.829a.139.139,0,0,1,.139-.139h21.217a.139.139,0,0,1,.139.139v12.182A.139.139,0,0,1,182.706,236.139Zm-21.078-.278h20.939V223.968H161.628Z" transform="translate(-137.105 -170.237)" fill="#1f4076"/>
      <rect id="Rectangle_2399" data-name="Rectangle 2399" width="21.217" height="17.213" transform="translate(48.63 48.551)" fill="#f2f1f7"/>
      <path id="Tracé_4540" data-name="Tracé 4540" d="M269.867,223.051H248.639a.142.142,0,0,1-.139-.139V205.7a.139.139,0,0,1,.139-.139h21.217a.139.139,0,0,1,.139.139v17.224a.139.139,0,0,1-.128.128Zm-21.078-.278h20.939V205.838H248.789Z" transform="translate(-200.021 -157.148)" fill="#1f4076"/>
      <path id="Tracé_4542" data-name="Tracé 4542" d="M173.4,123.425" transform="translate(-145.806 -97.853)" fill="none" stroke="#707070" stroke-width="1"/>
      <g id="Groupe_2061" data-name="Groupe 2061" transform="translate(26.236 11.965)">
        <path id="Tracé_4541" data-name="Tracé 4541" d="M173.4,79.45V91.678h13.3V79.45Z" transform="translate(-172.043 -78.071)" fill="#fce15c" stroke="#1f4076" stroke-width="0.2"/>
        <path id="Tracé_4543" data-name="Tracé 4543" d="M168.686,75.533V87.425l-1.412-2.689V74.076Z" transform="translate(-167.274 -73.847)" fill="#fce15c" stroke="#1f4076" stroke-width="0.2"/>
        <path id="Tracé_4544" data-name="Tracé 4544" d="M183.532,74.983l-13.2.009-1.32-1.5,12.8.046Z" transform="translate(-168.874 -73.491)" fill="#fce15c" stroke="#1f4076" stroke-width="0.2"/>
      </g>
      <path id="Tracé_4506" data-name="Tracé 4506" d="M135.172,111.695c.573.028,6.015.692,6.588.15s1.749-1.31,1.821-1.112-.715,1.173-.715,1.173,1.755-.556,2.019-.278-.42,1.5-.834,1.86c-.111.1-1.268.336-1.947.534-3.059.882-7.18.873-8.342.064-1.6-1.112-6.118-3.27-6.379-3.651s.517-2.864,2.447-1.8C129.83,108.625,134.6,111.67,135.172,111.695Z" transform="translate(-112.547 -86.986)" fill="#f2f1f7"/>
      <path id="Tracé_4507" data-name="Tracé 4507" d="M136.778,114.428a6.954,6.954,0,0,1-3.456-.628c-.815-.556-2.391-1.407-3.779-2.15a13.952,13.952,0,0,1-2.636-1.538c-.2-.278.014-1.182.514-1.741a1.583,1.583,0,0,1,2.113-.259,43.672,43.672,0,0,0,5.283,3.059c.106,0,.373.033.742.067,1.315.131,5.317.52,5.739.122s1.585-1.254,1.916-1.176a.178.178,0,0,1,.133.117c.056.147-.1.47-.47.962.628-.175,1.51-.364,1.744-.128a.392.392,0,0,1,.1.306,3.385,3.385,0,0,1-.932,1.755,3.84,3.84,0,0,1-1.079.325c-.328.081-.665.164-.934.239A18.909,18.909,0,0,1,136.778,114.428Zm-8.214-6.318a1.237,1.237,0,0,0-.934.448,1.778,1.778,0,0,0-.495,1.39,22.266,22.266,0,0,0,2.539,1.452c1.39.745,2.978,1.591,3.807,2.166,1.043.731,5.042.834,8.217-.083.278-.078.617-.161.945-.242a8.032,8.032,0,0,0,.968-.278,3.122,3.122,0,0,0,.834-1.552.173.173,0,0,0-.017-.1,4.347,4.347,0,0,0-1.88.325.142.142,0,0,1-.156-.056.133.133,0,0,1,0-.164,6.473,6.473,0,0,0,.656-.951,6.629,6.629,0,0,0-1.56,1.076c-.453.428-3.131.231-5.959-.044-.364-.036-.628-.061-.729-.067-.592-.028-4.919-2.781-5.411-3.092A1.73,1.73,0,0,0,128.564,108.11Z" transform="translate(-112.185 -86.596)" fill="#1f4076"/>
      <path id="Tracé_4532" data-name="Tracé 4532" d="M228.629,85.2s-7.269,4.908-8.3,4.852-2.533-.815-2.572-.278,1.49,1,1.49,1-2.127.256-2.061.879a1.582,1.582,0,0,0,1.713,1.237c.893-.1,1.521-.556,2.316-.7s9.11-4.21,9.11-4.21Z" transform="translate(-177.413 -70.257)" fill="#f2f1f7"/>
      <path id="Tracé_4533" data-name="Tracé 4533" d="M218.37,92.685a1.727,1.727,0,0,1-1.087-.395,1.513,1.513,0,0,1-.59-.976c-.058-.534.948-.818,1.632-.948-.484-.2-1.1-.537-1.065-.959a.32.32,0,0,1,.133-.245c.234-.167.709-.036,1.315.128a6.89,6.89,0,0,0,1.271.261h0c.77,0,5.314-2.878,8.2-4.827a.136.136,0,0,1,.108-.022.139.139,0,0,1,.089.064l1.693,2.781a.131.131,0,0,1,.017.111.142.142,0,0,1-.072.083c-.342.167-8.342,4.088-9.149,4.221a5.066,5.066,0,0,0-1,.317,4.972,4.972,0,0,1-1.318.384A.526.526,0,0,1,218.37,92.685Zm-.681-3.337a.239.239,0,0,0-.133.028s-.014,0-.017.042c-.022.295.818.684,1.39.856a.139.139,0,1,1-.022.278c-.834.1-1.972.409-1.947.726a1.243,1.243,0,0,0,.487.79,1.438,1.438,0,0,0,1.073.323,4.75,4.75,0,0,0,1.246-.364,5.226,5.226,0,0,1,1.06-.331c.6-.1,6.029-2.706,8.934-4.129l-1.538-2.536c-1.16.779-7.272,4.852-8.267,4.794a7.058,7.058,0,0,1-1.329-.278,4.835,4.835,0,0,0-.937-.186Z" transform="translate(-177.057 -69.895)" fill="#1f4076"/>
    </g>
  </g>
</svg>
