<svg id="_396_day_dreaming_flatline" data-name="#396_day_dreaming_flatline" xmlns="http://www.w3.org/2000/svg" width="61.885" height="45.445" viewBox="0 0 61.885 45.445">
  <rect id="Rectangle_1385" data-name="Rectangle 1385" width="27.526" height="34.88" transform="translate(17.163 4.049)" fill="#f2f1f7"/>
  <path id="Tracé_2183" data-name="Tracé 2183" d="M163.489,98.29H135.965a.1.1,0,0,1-.1-.1V63.315a.1.1,0,0,1,.1-.1h27.524a.1.1,0,0,1,.1.1V98.2A.1.1,0,0,1,163.489,98.29Zm-27.431-.19H163.4V63.408H136.058Z" transform="translate(-118.802 -59.266)" fill="#1f4076"/>
  <path id="Tracé_2184" data-name="Tracé 2184" d="M158.863,159.06a6.071,6.071,0,0,0-3.029,1.257c-1.467,1.151-1.884,5.236-1.884,5.236l2.774,1.1-1.413,9.58h14.928l.785-10,3.4-3.462s.262-3.351-4.295-3.509C164.832,159.086,158.863,159.06,158.863,159.06Z" transform="translate(-132.971 -134.371)" fill="#fce15c" stroke="#5c6f99" stroke-width="1"/>
  <path id="Tracé_2185" data-name="Tracé 2185" d="M180.763,94.433a2.023,2.023,0,0,0,.911-.937,1.932,1.932,0,0,0-.1-.948c-.883-3.278-.459-6.936-2.1-9.907a2.737,2.737,0,0,0-.865-1.023,1.207,1.207,0,0,0-1.276-.063c-1.45-2.813-5.508-1.1-6.757,1.028a65.235,65.235,0,0,0-3.193,7.287,5.188,5.188,0,0,0-.6,2.326,1.842,1.842,0,0,0,1.367,1.774l.467-.718a.584.584,0,0,0,.022.79,1.649,1.649,0,0,0,.77.407c2.793.881,5.8,1.627,8.617.813.433-.128.954-.469.809-.9C179.041,95.129,180.021,94.9,180.763,94.433Z" transform="translate(-143.021 -72.481)" fill="#f2f1f7"/>
  <path id="Tracé_2186" data-name="Tracé 2186" d="M175.118,95.358a20.554,20.554,0,0,1-6.058-1.164,1.711,1.711,0,0,1-.811-.433.785.785,0,0,1-.175-.34l-.164.255a.1.1,0,0,1-.1.043,1.931,1.931,0,0,1-1.447-1.861,5.453,5.453,0,0,1,.606-2.369c.305-.714.6-1.463.883-2.185a36.8,36.8,0,0,1,2.315-5.112,5.587,5.587,0,0,1,4.494-2.549,2.668,2.668,0,0,1,2.38,1.437,1.346,1.346,0,0,1,1.3.115,2.875,2.875,0,0,1,.894,1.058,15.844,15.844,0,0,1,1.48,6.034,25.942,25.942,0,0,0,.63,3.894l.013.043a1.921,1.921,0,0,1,.091.95,2.109,2.109,0,0,1-.952,1h0a2.035,2.035,0,0,1-1.642.381.677.677,0,0,1-.257-.177.405.405,0,0,1-.026.054,1.4,1.4,0,0,1-.835.582A9.348,9.348,0,0,1,175.118,95.358Zm-6.86-2.224a.447.447,0,0,0-.015.089.573.573,0,0,0,.145.409,1.553,1.553,0,0,0,.727.379c2.826.891,5.818,1.607,8.563.813a1.242,1.242,0,0,0,.72-.487.351.351,0,0,0,.035-.253l-.013-.043a.1.1,0,0,1,.182-.056.064.064,0,0,0,.013.048.517.517,0,0,0,.305.34A1.841,1.841,0,0,0,180.39,94h0a1.947,1.947,0,0,0,.865-.878,1.75,1.75,0,0,0-.091-.855v-.043a26.229,26.229,0,0,1-.636-3.922,15.528,15.528,0,0,0-1.456-5.965,2.683,2.683,0,0,0-.831-.989,1.114,1.114,0,0,0-1.175-.065.1.1,0,0,1-.136-.035,2.5,2.5,0,0,0-2.265-1.424,5.4,5.4,0,0,0-4.327,2.458,36.2,36.2,0,0,0-2.3,5.084c-.286.725-.58,1.473-.885,2.189a5.277,5.277,0,0,0-.591,2.285,1.773,1.773,0,0,0,1.229,1.675l.3-.467a.508.508,0,0,1,.147-.216.1.1,0,0,1,.143.121Z" transform="translate(-142.698 -72.136)" fill="#1f4076"/>
  <path id="Tracé_2187" data-name="Tracé 2187" d="M187.914,141.42a7.593,7.593,0,0,1-5.811,2.2c-3.929-.052-5.443-2.408-5.443-2.408a9,9,0,0,0,2.326-1.378,1.081,1.081,0,0,0,.186-.193c.627-.889.42-3.3.42-3.3l4.45-.052s-.067,1.093-.069,2.109a5.756,5.756,0,0,0,.138,1.627C184.373,140.6,187.914,141.42,187.914,141.42Z" transform="translate(-150.767 -116.527)" fill="#f2f1f7"/>
  <path id="Tracé_2188" data-name="Tracé 2188" d="M181.913,143.359h-.132c-3.933-.054-5.508-2.427-5.523-2.453a.1.1,0,0,1,0-.08.1.1,0,0,1,.056-.058,9.039,9.039,0,0,0,2.3-1.361.954.954,0,0,0,.169-.175c.6-.852.407-3.213.4-3.245a.1.1,0,0,1,.024-.071.1.1,0,0,1,.069-.032l4.448-.052a.071.071,0,0,1,.071.03.093.093,0,0,1,.024.071s-.065,1.1-.067,2.105a4.954,4.954,0,0,0,.13,1.586c.175.387,2.38,1.028,3.739,1.341a.093.093,0,0,1,.069.061.1.1,0,0,1-.017.091A7.751,7.751,0,0,1,181.913,143.359Zm-5.428-2.462a6.629,6.629,0,0,0,5.3,2.272,7.717,7.717,0,0,0,5.625-2.051c-.753-.18-3.462-.865-3.71-1.408a5.41,5.41,0,0,1-.147-1.666c0-.829.048-1.718.065-2.014l-4.249.05c.032.476.13,2.449-.444,3.26a1.21,1.21,0,0,1-.2.216A9.2,9.2,0,0,1,176.485,140.9Z" transform="translate(-150.445 -116.167)" fill="#1f4076"/>
  <path id="Tracé_2189" data-name="Tracé 2189" d="M192.466,136.31s-.067,1.093-.069,2.109a8.139,8.139,0,0,1-4.987,1.434,1.082,1.082,0,0,0,.186-.193c.627-.889.42-3.3.42-3.3Z" transform="translate(-159.192 -116.543)" fill="#1f4076"/>
  <path id="Tracé_2190" data-name="Tracé 2190" d="M187,139.55a.117.117,0,0,1-.108-.076.115.115,0,0,1,.035-.125,1.082,1.082,0,0,0,.167-.171c.6-.846.4-3.2.4-3.226a.1.1,0,0,1,.028-.084.115.115,0,0,1,.084-.039l4.448-.052a.089.089,0,0,1,.084.037.121.121,0,0,1,.032.084S192.1,137,192.1,138a.11.11,0,0,1-.043.089A8.293,8.293,0,0,1,187,139.55Zm.729-3.494c.035.513.119,2.447-.45,3.245v.011a7.881,7.881,0,0,0,4.6-1.372c0-.8.045-1.631.063-1.947Z" transform="translate(-158.777 -116.125)" fill="#1f4076"/>
  <path id="Tracé_2191" data-name="Tracé 2191" d="M178.686,115.254a1.848,1.848,0,0,0-.134-.759c-.156-.42-.459-.835-.837-.809a.847.847,0,0,0-.649.673,2.341,2.341,0,0,0,.032,1.082,1.981,1.981,0,0,0,1.062,1.543" transform="translate(-151.047 -98.813)" fill="#f2f1f7"/>
  <path id="Tracé_2192" data-name="Tracé 2192" d="M177.864,116.741h-.028c-.742-.229-1.034-1.205-1.127-1.614a2.35,2.35,0,0,1-.03-1.116.914.914,0,0,1,.723-.744c.433-.026.768.433.932.865a1.947,1.947,0,0,1,.141.8.1.1,0,0,1-.1.087.091.091,0,0,1-.087-.1,1.757,1.757,0,0,0-.13-.72c-.134-.359-.409-.775-.742-.749a.744.744,0,0,0-.554.6,2.218,2.218,0,0,0,.032,1.03,1.867,1.867,0,0,0,1,1.473.1.1,0,0,1-.026.186Z" transform="translate(-150.74 -98.484)" fill="#1f4076"/>
  <path id="Tracé_2193" data-name="Tracé 2193" d="M186.059,105.91l-.452-.022a3.894,3.894,0,0,1-3.713-4.076,31.241,31.241,0,0,1,.545-3.55s1.835-.541,3.273-.993a5.418,5.418,0,0,0,3.124-2,9.623,9.623,0,0,0,.411,2.52,11.262,11.262,0,0,0,.963,1.683s-.043,1.923-.08,2.726A3.894,3.894,0,0,1,186.059,105.91Z" transform="translate(-154.865 -84.382)" fill="#f2f1f7"/>
  <path id="Tracé_2194" data-name="Tracé 2194" d="M185.889,105.725h-.19l-.452-.019a4,4,0,0,1-3.8-4.176,31.286,31.286,0,0,1,.545-3.565.1.1,0,0,1,.065-.071c.019,0,1.852-.545,3.273-.991a5.515,5.515,0,0,0,3.076-1.947.1.1,0,0,1,.106-.045.093.093,0,0,1,.069.091,9.651,9.651,0,0,0,.407,2.488,11.251,11.251,0,0,0,.952,1.664.093.093,0,0,1,.015.054c0,.019-.041,1.934-.08,2.728a4,4,0,0,1-3.985,3.79Zm-3.721-7.674a30.326,30.326,0,0,0-.53,3.481,3.808,3.808,0,0,0,3.622,3.979l.452.019h0a3.81,3.81,0,0,0,3.979-3.62c.035-.738.074-2.445.08-2.694a10.746,10.746,0,0,1-.956-1.679,9.519,9.519,0,0,1-.407-2.274,6.189,6.189,0,0,1-3.018,1.811C184.1,97.478,182.483,97.956,182.167,98.051Z" transform="translate(-154.514 -84.097)" fill="#1f4076"/>
  <path id="Tracé_2195" data-name="Tracé 2195" d="M197.66,114.639a5.032,5.032,0,0,1-.826-.065.264.264,0,0,1-.19-.141c-.268-.5.591-2.51.764-2.908a.119.119,0,1,1,.216.1c-.385.881-.937,2.393-.772,2.7.011.017.017.019.024.019a5.176,5.176,0,0,0,1.1.052.117.117,0,0,1,.128.108.119.119,0,0,1-.108.128S197.853,114.639,197.66,114.639Z" transform="translate(-166.387 -97.055)" fill="#1f4076"/>
  <path id="Tracé_2196" data-name="Tracé 2196" d="M121.26,224.88h27.349l4.39,4.9H116.87Z" transform="translate(-103.913 -185.951)" fill="#1f4076"/>
  <path id="Tracé_2197" data-name="Tracé 2197" d="M152.648,229.553h-36.13a.1.1,0,0,1-.087-.056.1.1,0,0,1,.015-.1l4.39-4.9a.1.1,0,0,1,.071-.032h27.351a.1.1,0,0,1,.071.032l4.39,4.9a.1.1,0,0,1,.015.1A.1.1,0,0,1,152.648,229.553Zm-35.914-.188h35.7l-4.219-4.714h-27.26Z" transform="translate(-103.563 -185.622)" fill="#1f4076"/>
  <rect id="Rectangle_1386" data-name="Rectangle 1386" width="36.087" height="1.523" transform="translate(12.998 43.832)" fill="#1f4076"/>
  <path id="Tracé_2198" data-name="Tracé 2198" d="M152.8,248.833H116.715a.1.1,0,0,1-.1-.1v-1.514a.1.1,0,0,1,.1-.093H152.8a.1.1,0,0,1,.1.093v1.514A.1.1,0,0,1,152.8,248.833Zm-35.992-.19h35.9v-1.324h-35.9Z" transform="translate(-103.717 -203.387)" fill="#1f4076"/>
  <path id="Tracé_2199" data-name="Tracé 2199" d="M189.658,113.77a.965.965,0,0,1-.694-.316.118.118,0,1,1,.182-.149.736.736,0,0,0,1.045.03.119.119,0,0,1,.138.193A1.153,1.153,0,0,1,189.658,113.77Z" transform="translate(-160.388 -98.481)" fill="#1f4076"/>
  <path id="Tracé_2200" data-name="Tracé 2200" d="M207.121,113.282a1.183,1.183,0,0,1-.768-.249.119.119,0,1,1,.158-.175c.024.019.537.454,1.486-.069a.121.121,0,0,1,.162.048.119.119,0,0,1-.048.16A2.047,2.047,0,0,1,207.121,113.282Z" transform="translate(-173.996 -98.1)" fill="#1f4076"/>
  <path id="Tracé_2201" data-name="Tracé 2201" d="M193.145,129.243a7.043,7.043,0,0,1-2.678-.565.119.119,0,1,1,.1-.216,6.183,6.183,0,0,0,4.327.216.117.117,0,0,1,.154.063.119.119,0,0,1-.063.156A4.691,4.691,0,0,1,193.145,129.243Z" transform="translate(-161.532 -110.385)" fill="#1f4076"/>
  <path id="Tracé_2202" data-name="Tracé 2202" d="M218.34,119.153a.939.939,0,0,1,1.828.415,1.514,1.514,0,0,1-.253.563,3.245,3.245,0,0,1-1.5,1.192" transform="translate(-183.43 -102.566)" fill="#f2f1f7"/>
  <path id="Tracé_2203" data-name="Tracé 2203" d="M218.072,121a.1.1,0,0,1-.035-.184,3.135,3.135,0,0,0,1.456-1.155,1.315,1.315,0,0,0,.238-.526.844.844,0,0,0-1.642-.374.094.094,0,1,1-.182-.05,1.032,1.032,0,0,1,2.012.454,1.6,1.6,0,0,1-.268.6,3.349,3.349,0,0,1-1.545,1.227A.1.1,0,0,1,218.072,121Z" transform="translate(-183.088 -102.149)" fill="#1f4076"/>
  <path id="Tracé_2204" data-name="Tracé 2204" d="M151.787,183s-2.321,10.688.158,11.412c3.433,1,13.035-.472,13.035-.472s-.087.865,1.514.733,1.605-.865,2.514-.314,2.215.4,1.947-.368a5.025,5.025,0,0,0-4.5-2.826c-2.583.071-10.367-.733-10.367-.733l.891-6.387" transform="translate(-130.502 -153.132)" fill="#f2f1f7"/>
  <path id="Tracé_2205" data-name="Tracé 2205" d="M155.177,194.537a13.94,13.94,0,0,1-3.6-.357c-2.533-.742-.318-11.084-.216-11.525a.1.1,0,0,1,.112-.071.1.1,0,0,1,.074.113,54.507,54.507,0,0,0-.85,5.426c-.348,3.563-.024,5.595.941,5.876,3.373.987,12.9-.459,13-.474a.087.087,0,0,1,.078.026.093.093,0,0,1,.03.078.489.489,0,0,0,.158.37,1.615,1.615,0,0,0,1.257.26,3.894,3.894,0,0,0,1.361-.357,1.052,1.052,0,0,1,1.212.056,1.739,1.739,0,0,0,1.709.158.338.338,0,0,0,.089-.413,4.944,4.944,0,0,0-4.411-2.765c-2.538.076-10.3-.725-10.385-.733a.093.093,0,0,1-.065-.035.106.106,0,0,1-.019-.071l.891-6.389a.094.094,0,1,1,.186.028l-.876,6.291c.907.093,7.866.79,10.257.723a5.15,5.15,0,0,1,4.593,2.89.521.521,0,0,1-.147.623,1.885,1.885,0,0,1-1.928-.145.864.864,0,0,0-1.036-.043,4.111,4.111,0,0,1-1.419.372,1.751,1.751,0,0,1-1.413-.318.714.714,0,0,1-.2-.4A74.534,74.534,0,0,1,155.177,194.537Z" transform="translate(-130.163 -152.804)" fill="#1f4076"/>
  <path id="Tracé_2206" data-name="Tracé 2206" d="M210.206,135.646s-.052,10.21-5.6,10.785c-4.814.5-4.922-4.344-4.976-8.533a28.4,28.4,0,0,1,1.1-8.955c.21-.517,2.042-1.447,2.46-2.04a7.02,7.02,0,0,0,.575-2.27c.052-.193.664-.42.558.279,0,0,.037-.433.262-.262a.376.376,0,0,1,.089.454s.193-.524.366-.331.089.7.089.7.242-.627.366-.279a5.575,5.575,0,0,1-.627,3.159,11,11,0,0,1-2.148,1.72l1.99,9.868.733-3.821" transform="translate(-168.764 -107.24)" fill="#f2f1f7"/>
  <path id="Tracé_2207" data-name="Tracé 2207" d="M203.576,146.183a3.807,3.807,0,0,1-2.6-.878c-1.752-1.562-1.8-5.013-1.83-7.789a28.735,28.735,0,0,1,1.106-8.989,4.041,4.041,0,0,1,1.274-1.1,5.891,5.891,0,0,0,1.2-.963,5.4,5.4,0,0,0,.513-1.947c.022-.151.035-.251.048-.3a.452.452,0,0,1,.491-.257.307.307,0,0,1,.216.19h.022a.216.216,0,0,1,.231.045.4.4,0,0,1,.13.158.281.281,0,0,1,.149-.1.2.2,0,0,1,.186.069.628.628,0,0,1,.13.37.216.216,0,0,1,.164-.087c.056,0,.132.03.18.169a5.583,5.583,0,0,1-.649,3.245,10.862,10.862,0,0,1-2.116,1.707l1.882,9.333.649-3.349a.095.095,0,1,1,.186.035l-.733,3.823a.1.1,0,0,1-.093.076h0a.1.1,0,0,1-.093-.076l-1.988-9.87a.091.091,0,0,1,.041-.1,10.6,10.6,0,0,0,2.122-1.7,5.487,5.487,0,0,0,.614-3.068.248.248,0,0,1-.013-.032,1.034,1.034,0,0,0-.177.314.093.093,0,0,1-.113.056.1.1,0,0,1-.069-.106.93.93,0,0,0-.063-.619c-.05,0-.13.115-.186.247a.617.617,0,0,1-.026.063.1.1,0,0,1-.121.045.093.093,0,0,1-.052-.119.209.209,0,0,1,.022-.056.255.255,0,0,0-.078-.29c-.028-.022-.041-.022-.041-.022h0a.309.309,0,0,0-.063.162v.061a.1.1,0,0,1-.106.078.091.091,0,0,1-.082-.1v-.067c.011-.121,0-.279-.113-.3a.286.286,0,0,0-.27.123c0,.035-.024.145-.041.275a5.568,5.568,0,0,1-.547,2.023,5.682,5.682,0,0,1-1.244,1.008,4.124,4.124,0,0,0-1.207,1.015,28,28,0,0,0-1.082,8.916c.035,2.735.078,6.14,1.768,7.644a3.835,3.835,0,0,0,3.1.8c5.409-.56,5.517-10.59,5.517-10.692a.1.1,0,0,1,.1-.1h0a.1.1,0,0,1,.1.1c0,.1-.119,10.3-5.688,10.878A6.36,6.36,0,0,1,203.576,146.183Z" transform="translate(-168.388 -106.863)" fill="#1f4076"/>
  <path id="Tracé_2208" data-name="Tracé 2208" d="M222.622,195.545a.1.1,0,0,1-.093-.076c-.138-.736-.839-4.416-.839-4.574a.1.1,0,0,1,.19,0c0,.145.5,2.793.835,4.543a.1.1,0,0,1-.076.113Zm-.742-4.649Z" transform="translate(-186.055 -159.244)" fill="#1f4076"/>
  <path id="Tracé_2209" data-name="Tracé 2209" d="M279.317,88.261,263.69,84.317V49.366l15.627-3.946Z" transform="translate(-218.968 -45.317)" fill="#f2f1f7"/>
  <path id="Tracé_2210" data-name="Tracé 2210" d="M278.98,88.014h-.024l-15.625-3.946a.093.093,0,0,1-.071-.091V49.024a.091.091,0,0,1,.071-.091l15.625-3.946a.089.089,0,0,1,.082.017.093.093,0,0,1,.035.074V87.915a.1.1,0,0,1-.035.074A.1.1,0,0,1,278.98,88.014ZM263.448,83.9,278.885,87.8V45.2L263.448,49.1Z" transform="translate(-218.631 -44.975)" fill="#1f4076"/>
  <path id="Tracé_2211" data-name="Tracé 2211" d="M282.646,96.226a.085.085,0,0,1-.032,0L271.22,93.7a.138.138,0,0,1-.11-.138v-9a.141.141,0,0,1,.154-.141l11.393.969a.141.141,0,0,1,.13.141V96.088a.149.149,0,0,1-.052.113.147.147,0,0,1-.089.026ZM271.4,93.444l11.11,2.462V85.657l-11.11-.943Zm11.25-9.377h-.011L271.242,83.3a.143.143,0,0,1-.132-.143V72.521a.143.143,0,0,1,.132-.143l11.393-.764a.141.141,0,0,1,.151.143V83.924a.141.141,0,0,1-.141.143ZM271.4,83.029l11.11.744V71.906l-11.11.744Zm-.143-11.772a.141.141,0,0,1-.143-.141V62.123a.138.138,0,0,1,.11-.138l11.393-2.525a.151.151,0,0,1,.121.028.149.149,0,0,1,.052.113V70.154a.141.141,0,0,1-.13.141l-11.393.963Zm.141-9.026v8.73l11.11-.943V59.775Z" transform="translate(-224.783 -56.317)" fill="#5c6f99"/>
  <path id="Tracé_2212" data-name="Tracé 2212" d="M335.92,45.42l1.441.69V87.567l-1.441.69Z" transform="translate(-275.572 -45.317)" fill="#f2f1f7"/>
  <path id="Tracé_2213" data-name="Tracé 2213" d="M335.575,88.018a.119.119,0,0,1-.052-.015.1.1,0,0,1-.043-.08V45.086a.1.1,0,0,1,.043-.08.1.1,0,0,1,.093,0l1.441.69a.093.093,0,0,1,.054.084V87.233a.093.093,0,0,1-.054.084l-1.441.69A.1.1,0,0,1,335.575,88.018Zm.093-42.783V87.774l1.255-.6V45.837Z" transform="translate(-275.227 -44.983)" fill="#1f4076"/>
  <path id="Tracé_2214" data-name="Tracé 2214" d="M64.08,88.261l15.627-3.944V49.366L64.08,45.42Z" transform="translate(-62.544 -45.317)" fill="#f2f1f7"/>
  <path id="Tracé_2215" data-name="Tracé 2215" d="M63.743,88.038a.1.1,0,0,1-.058-.019.1.1,0,0,1-.035-.074V45.108a.093.093,0,0,1,.035-.074.089.089,0,0,1,.082-.017l15.625,3.946a.091.091,0,0,1,.071.091V84a.093.093,0,0,1-.071.091L63.767,88.036Zm.1-42.811v42.6l15.437-3.894V49.121Z" transform="translate(-62.207 -44.998)" fill="#1f4076"/>
  <path id="Tracé_2216" data-name="Tracé 2216" d="M75.061,96.226a.147.147,0,0,1-.089-.03.149.149,0,0,1-.052-.113V85.536a.141.141,0,0,1,.13-.141l11.393-.969a.141.141,0,0,1,.154.141v9a.138.138,0,0,1-.11.138L75.093,96.222a.084.084,0,0,1-.032,0ZM75.2,85.657V95.906l11.11-2.462v-8.73Zm-.143-1.59a.141.141,0,0,1-.141-.143V71.757a.143.143,0,0,1,.043-.1.147.147,0,0,1,.108-.039l11.393.764a.143.143,0,0,1,.132.143V83.156a.143.143,0,0,1-.132.143l-11.393.764ZM75.2,71.908V83.773l11.11-.744V72.644Zm11.25-.649h0L75.061,70.29a.141.141,0,0,1-.13-.141V59.6a.149.149,0,0,1,.052-.113.151.151,0,0,1,.121-.028L86.5,61.984a.138.138,0,0,1,.11.138v9a.141.141,0,0,1-.143.141ZM75.2,70.02l11.11.943V62.238L75.2,59.775Z" transform="translate(-71.039 -56.317)" fill="#5c6f99"/>
  <path id="Tracé_2217" data-name="Tracé 2217" d="M58.861,45.42l-1.441.69V87.567l1.441.69Z" transform="translate(-57.325 -45.317)" fill="#f2f1f7"/>
  <path id="Tracé_2218" data-name="Tracé 2218" d="M58.516,87.979a.1.1,0,0,1-.041-.011l-1.441-.69a.093.093,0,0,1-.054-.084V45.737a.093.093,0,0,1,.054-.084l1.441-.7a.1.1,0,0,1,.093,0,.1.1,0,0,1,.043.08V87.873a.1.1,0,0,1-.043.08.119.119,0,0,1-.052.026Zm-1.348-.835,1.255.6V45.2l-1.255.6Z" transform="translate(-56.98 -44.944)" fill="#1f4076"/>
  <path id="Tracé_2305" data-name="Tracé 2305" d="M76.28,61.058V71.233l11.1.963V63.465Z" transform="translate(-72.104 -57.571)" fill="#fce15c"/>
  <path id="Tracé_2306" data-name="Tracé 2306" d="M76.28,117.077v11.84l11.122-.733v-10.4Z" transform="translate(-72.104 -101.471)" fill="#fce15c"/>
  <path id="Tracé_2307" data-name="Tracé 2307" d="M76.28,177.084v10.18l11.128-2.448v-8.733Z" transform="translate(-72.104 -147.712)" fill="#fce15c"/>
  <path id="Tracé_2308" data-name="Tracé 2308" d="M272.477,176.208v8.762l11.1,2.395V177.127Z" transform="translate(-225.854 -147.81)" fill="#fce15c"/>
  <path id="Tracé_2309" data-name="Tracé 2309" d="M272.477,117.663V128.07l11.128.665V116.909Z" transform="translate(-225.854 -101.34)" fill="#fce15c"/>
  <path id="Tracé_2310" data-name="Tracé 2310" d="M272.362,63.285l.009,8.754,11.1-.954V60.828Z" transform="translate(-225.764 -57.392)" fill="#fce15c"/>
</svg>
