<svg xmlns="http://www.w3.org/2000/svg" width="45.633" height="45.012" viewBox="0 0 45.633 45.012">
  <g id="_573_team_building_outline" data-name="#573_team_building_outline" transform="translate(-108.15 -59.4)">
    <path id="Tracé_2926" data-name="Tracé 2926" d="M141.077,60.4V83.388H130.54V60.4" transform="translate(-16.828 -0.752)" fill="#f2f1f7"/>
    <path id="Tracé_2927" data-name="Tracé 2927" d="M140.336,82.885H129.788a.248.248,0,0,1-.248-.248V59.648a.248.248,0,1,1,.5,0V82.388h10.051V59.648a.248.248,0,1,1,.5,0V82.636A.248.248,0,0,1,140.336,82.885Z" transform="translate(-16.077)" fill="#1f4076"/>
    <circle id="Ellipse_271" data-name="Ellipse 271" cx="0.641" cy="0.641" r="0.641" transform="translate(115.461 79.248)" fill="#1f4076"/>
    <path id="Tracé_2928" data-name="Tracé 2928" d="M134.85,85.824s-2.675.2-3.87.4-2.981,2.79-5.512,3.055-4.583.33-5.313-.333a2.382,2.382,0,0,1-.465-1.987h-3.011a1.33,1.33,0,0,1-.745-2.519s-1.987-.273-2.159-1.669c-.2-1.582,1.714-1.682,1.714-1.682a2.278,2.278,0,0,1-.442-1.505c.089-.842,1.639-1.416,1.639-1.416a1.2,1.2,0,0,1-.266-1.684c.621-1.108,1.018-.929,3.277-.929s4.516-.176,5.713.266,4.871,2.037,5.89,2.082,3.56-.089,3.56-.089Z" transform="translate(-4.217 -12.116)" fill="#f2f1f7"/>
    <path id="Tracé_2929" data-name="Tracé 2929" d="M121.739,88.947a3.949,3.949,0,0,1-2.566-.589,2.361,2.361,0,0,1-.581-1.925h-2.732a1.574,1.574,0,0,1-1.322-2.643,2.339,2.339,0,0,1-1.838-1.761,1.538,1.538,0,0,1,.325-1.242,2.193,2.193,0,0,1,1.222-.661,2.387,2.387,0,0,1-.278-1.341c.075-.718.934-1.242,1.443-1.473a1.48,1.48,0,0,1-.042-1.721c.611-1.088,1.133-1.083,2.685-1.063h.81c.512,0,1.023,0,1.525-.017a13.846,13.846,0,0,1,4.273.3c.293.109.733.286,1.242.5a26.423,26.423,0,0,0,4.568,1.575c.994.042,3.51-.087,3.535-.089a.251.251,0,0,1,.263.248v8.014a.248.248,0,0,1-.231.248c-.027,0-2.675.2-3.845.4a4.678,4.678,0,0,0-1.6,1.018,7.851,7.851,0,0,1-3.93,2.037,29.315,29.315,0,0,1-2.926.194Zm-4.223-13.928c-1.063,0-1.3.092-1.7.812A.941.941,0,0,0,116,77.185a.258.258,0,0,1-.05.452c-.365.137-1.421.651-1.49,1.212a2.017,2.017,0,0,0,.39,1.324.248.248,0,0,1-.181.4,2.055,2.055,0,0,0-1.272.549,1.061,1.061,0,0,0-.211.855c.152,1.192,1.928,1.451,1.945,1.453a.24.24,0,0,1,.077.455,1.118,1.118,0,0,0-.579,1.242,1.141,1.141,0,0,0,1.222.807h3.011a.248.248,0,0,1,.248.3s-.229,1.2.388,1.759c.705.641,3.108.482,5.12.268a7.475,7.475,0,0,0,3.671-1.93,4.845,4.845,0,0,1,1.828-1.123c.994-.166,2.981-.33,3.662-.383V77.3c-.678.032-2.484.112-3.321.077a24.506,24.506,0,0,1-4.735-1.612c-.5-.2-.944-.378-1.242-.5A13.655,13.655,0,0,0,120.393,75c-.5,0-1.018.017-1.533.017h-.817Zm16.519,10.033Z" transform="translate(-3.402 -11.344)" fill="#1f4076"/>
    <path id="Tracé_2930" data-name="Tracé 2930" d="M140.421,121.057h-3.542a.248.248,0,1,1,0-.5h3.542a.248.248,0,1,1,0,.5Z" transform="translate(-21.405 -45.967)" fill="#1f4076"/>
    <path id="Tracé_2931" data-name="Tracé 2931" d="M126.975,110.917h-5.217a.248.248,0,0,1,0-.5h5.217a.248.248,0,0,1,0,.5Z" transform="translate(-10.041 -38.346)" fill="#1f4076"/>
    <path id="Tracé_2932" data-name="Tracé 2932" d="M125.729,97.427h-5.79a.248.248,0,1,1,0-.5h5.79a.248.248,0,0,1,0,.5Z" transform="translate(-8.673 -28.207)" fill="#1f4076"/>
    <path id="Tracé_2933" data-name="Tracé 2933" d="M128.964,85.667h-4.206a.248.248,0,1,1,0-.5h4.206a.248.248,0,1,1,0,.5Z" transform="translate(-12.296 -19.369)" fill="#1f4076"/>
    <rect id="Rectangle_1504" data-name="Rectangle 1504" width="9.298" height="2.275" transform="translate(130.549 64.925) rotate(90)" fill="#f2f1f7"/>
    <path id="Tracé_2934" data-name="Tracé 2934" d="M190.684,90.425h-2.275a.248.248,0,0,1-.248-.248v-9.3a.248.248,0,0,1,.248-.248h2.275a.248.248,0,0,1,.248.248v9.3A.248.248,0,0,1,190.684,90.425Zm-2.027-.5h1.779v-8.8h-1.779Z" transform="translate(-60.135 -15.956)" fill="#1f4076"/>
    <path id="Tracé_2935" data-name="Tracé 2935" d="M221.305,89.677H198.32V79.14h22.985" transform="translate(-67.771 -14.836)" fill="#fce15c"/>
    <path id="Tracé_2936" data-name="Tracé 2936" d="M220.554,89.174H197.568a.248.248,0,0,1-.248-.248V78.388a.248.248,0,0,1,.248-.248h22.985a.248.248,0,1,1,0,.5H197.817V88.677h22.737a.248.248,0,1,1,0,.5Z" transform="translate(-67.019 -14.085)" fill="#1f4076"/>
    <circle id="Ellipse_272" data-name="Ellipse 272" cx="0.641" cy="0.641" r="0.641" transform="translate(132.653 66.05)" fill="#1f4076"/>
    <path id="Tracé_2937" data-name="Tracé 2937" d="M236.254,83.59s.2-2.673.4-3.87,2.79-2.981,3.055-5.512.33-4.583-.333-5.313a2.382,2.382,0,0,0-1.987-.465V65.419a1.33,1.33,0,0,0-2.519-.745s-.273-1.987-1.669-2.159c-1.582-.2-1.682,1.716-1.682,1.716a2.263,2.263,0,0,0-1.505-.442c-.842.087-1.416,1.637-1.416,1.637a1.2,1.2,0,0,0-1.684-.266c-1.108.619-.929,1.018-.929,3.277s-.176,4.516.266,5.713,2.037,4.869,2.082,5.887-.089,3.56-.089,3.56Z" transform="translate(-88.538 -2.33)" fill="#f2f1f7"/>
    <path id="Tracé_2938" data-name="Tracé 2938" d="M235.472,83.047h-8.014a.25.25,0,0,1-.248-.261c0-.025.132-2.541.089-3.535a26.284,26.284,0,0,0-1.577-4.573c-.2-.5-.38-.949-.5-1.242a13.769,13.769,0,0,1-.3-4.273c0-.5.017-1.014.017-1.525v-.81c-.02-1.553-.025-2.074,1.061-2.683a1.468,1.468,0,0,1,1.724.04c.248-.5.745-1.369,1.473-1.443a2.387,2.387,0,0,1,1.341.278,2.2,2.2,0,0,1,.666-1.227,1.548,1.548,0,0,1,1.242-.323,2.337,2.337,0,0,1,1.761,1.836,1.574,1.574,0,0,1,2.643,1.322V67.36a2.369,2.369,0,0,1,1.925.581c.725.8.683,2.777.395,5.507a7.871,7.871,0,0,1-2.037,3.93,4.688,4.688,0,0,0-1.021,1.6c-.194,1.17-.392,3.821-.395,3.845A.248.248,0,0,1,235.472,83.047Zm-7.753-.5h7.524c.052-.678.216-2.66.383-3.662a4.846,4.846,0,0,1,1.123-1.828,7.488,7.488,0,0,0,1.93-3.669c.214-2.015.373-4.414-.268-5.12-.561-.619-1.739-.392-1.759-.39a.248.248,0,0,1-.3-.248V64.627a1.131,1.131,0,0,0-.807-1.22,1.115,1.115,0,0,0-1.242.579.248.248,0,0,1-.467-.077c0-.017-.266-1.8-1.456-1.948a1.058,1.058,0,0,0-.852.211,2.025,2.025,0,0,0-.549,1.272.244.244,0,0,1-.395.181,2.037,2.037,0,0,0-1.324-.39c-.561.06-1.076,1.113-1.212,1.478a.248.248,0,0,1-.44.05.957.957,0,0,0-1.354-.186c-.83.465-.827.7-.807,2.236v.815c0,.517,0,1.031-.017,1.535a13.655,13.655,0,0,0,.268,4.091c.1.286.281.723.484,1.227a25.274,25.274,0,0,1,1.612,4.737C227.836,80.034,227.751,81.872,227.719,82.55Z" transform="translate(-87.755 -1.538)" fill="#1f4076"/>
    <path id="Tracé_2939" data-name="Tracé 2939" d="M271.248,89.409a.248.248,0,0,1-.248-.248V85.618a.248.248,0,0,1,.5,0v3.542A.248.248,0,0,1,271.248,89.409Z" transform="translate(-122.397 -19.519)" fill="#1f4076"/>
    <path id="Tracé_2940" data-name="Tracé 2940" d="M261.1,75.963a.248.248,0,0,1-.248-.248V70.5a.248.248,0,1,1,.5,0v5.217A.248.248,0,0,1,261.1,75.963Z" transform="translate(-114.768 -8.155)" fill="#1f4076"/>
    <path id="Tracé_2941" data-name="Tracé 2941" d="M247.608,74.737a.248.248,0,0,1-.248-.248v-5.8a.248.248,0,1,1,.5,0v5.8A.248.248,0,0,1,247.608,74.737Z" transform="translate(-104.629 -6.794)" fill="#1f4076"/>
    <path id="Tracé_2942" data-name="Tracé 2942" d="M235.848,77.952a.248.248,0,0,1-.248-.248V73.5a.248.248,0,0,1,.5,0V77.7A.248.248,0,0,1,235.848,77.952Z" transform="translate(-95.79 -10.41)" fill="#1f4076"/>
    <rect id="Rectangle_1505" data-name="Rectangle 1505" width="9.298" height="2.275" transform="translate(138.93 78.903)" fill="#5c6f99"/>
    <path id="Tracé_2943" data-name="Tracé 2943" d="M240.606,139.68h-9.3a.248.248,0,0,1-.248-.248v-2.273a.248.248,0,0,1,.248-.248h9.3a.248.248,0,0,1,.248.248v2.273A.248.248,0,0,1,240.606,139.68Zm-9.05-.5h8.8v-1.776h-8.8Z" transform="translate(-92.378 -58.256)" fill="#5c6f99"/>
    <path id="Tracé_2944" data-name="Tracé 2944" d="M240.107,170.048V147.06H229.57v22.988" transform="translate(-91.258 -65.885)" fill="#f2f1f7"/>
    <path id="Tracé_2945" data-name="Tracé 2945" d="M239.358,169.545a.248.248,0,0,1-.248-.248V146.557H229.067V169.3a.248.248,0,0,1-.5,0V146.308a.248.248,0,0,1,.248-.248h10.54a.248.248,0,0,1,.248.248V169.3A.248.248,0,0,1,239.358,169.545Z" transform="translate(-90.507 -65.133)" fill="#1f4076"/>
    <circle id="Ellipse_273" data-name="Ellipse 273" cx="0.641" cy="0.641" r="0.641" transform="translate(140.058 83.282)" fill="#1f4076"/>
    <path id="Tracé_2946" data-name="Tracé 2946" d="M201.31,184.974s2.675.2,3.87.4,2.981,2.79,5.512,3.055,4.583.33,5.313-.333a2.382,2.382,0,0,0,.465-1.987h3.011a1.33,1.33,0,0,0,.745-2.519s1.987-.273,2.159-1.669c.2-1.582-1.714-1.682-1.714-1.682a2.278,2.278,0,0,0,.442-1.505c-.089-.842-1.639-1.418-1.639-1.418a1.2,1.2,0,0,0,.266-1.682c-.621-1.108-1.018-.929-3.276-.929s-4.516-.176-5.713.266-4.871,2.037-5.89,2.082-3.56-.089-3.56-.089Z" transform="translate(-70.011 -86.636)" fill="#f2f1f7"/>
    <path id="Tracé_2947" data-name="Tracé 2947" d="M212.885,188.094a29.358,29.358,0,0,1-2.939-.194,7.87,7.87,0,0,1-3.93-2.037,4.693,4.693,0,0,0-1.6-1.021c-1.17-.194-3.818-.392-3.845-.395a.248.248,0,0,1-.231-.248v-8.014a.246.246,0,0,1,.261-.248c.027,0,2.541.132,3.537.089a26.421,26.421,0,0,0,4.568-1.575c.512-.206.951-.383,1.242-.5a13.777,13.777,0,0,1,4.273-.3c.5,0,1.014.017,1.525.017h.81c1.553-.017,2.074-.022,2.683,1.063a1.467,1.467,0,0,1-.04,1.724c.509.248,1.369.745,1.443,1.471a2.377,2.377,0,0,1-.278,1.341,2.236,2.236,0,0,1,1.23.666,1.545,1.545,0,0,1,.325,1.242,2.343,2.343,0,0,1-1.838,1.761,1.574,1.574,0,0,1-1.322,2.643h-2.733a2.361,2.361,0,0,1-.581,1.925A3.974,3.974,0,0,1,212.885,188.094Zm-12.048-4.124c.678.052,2.66.216,3.662.383a4.845,4.845,0,0,1,1.828,1.123,7.5,7.5,0,0,0,3.671,1.93c2.012.211,4.414.373,5.12-.268.616-.561.39-1.739.388-1.759a.248.248,0,0,1,.248-.3h3.011a1.134,1.134,0,0,0,1.222-.807,1.118,1.118,0,0,0-.579-1.242.248.248,0,0,1,.077-.467c.017,0,1.794-.266,1.945-1.456a1.056,1.056,0,0,0-.211-.852,2.02,2.02,0,0,0-1.272-.549.248.248,0,0,1-.179-.4,2.044,2.044,0,0,0,.388-1.324c-.057-.559-1.113-1.073-1.478-1.21a.248.248,0,0,1-.047-.44.958.958,0,0,0,.184-1.354c-.465-.83-.7-.827-2.236-.81h-.817c-.514,0-1.031,0-1.533-.017a13.574,13.574,0,0,0-4.091.268c-.288.1-.725.281-1.242.484a24.976,24.976,0,0,1-4.735,1.61c-.815.035-2.641-.042-3.321-.075Z" transform="translate(-69.289 -85.861)" fill="#1f4076"/>
    <path id="Tracé_2948" data-name="Tracé 2948" d="M250.9,220.207h-3.542a.248.248,0,1,1,0-.5H250.9a.248.248,0,0,1,0,.5Z" transform="translate(-104.441 -120.488)" fill="#1f4076"/>
    <path id="Tracé_2949" data-name="Tracé 2949" d="M260.985,210.067h-5.217a.248.248,0,1,1,0-.5h5.217a.248.248,0,0,1,0,.5Z" transform="translate(-110.762 -112.867)" fill="#1f4076"/>
    <path id="Tracé_2950" data-name="Tracé 2950" d="M261.039,196.577h-5.79a.248.248,0,1,1,0-.5h5.8a.248.248,0,0,1,0,.5Z" transform="translate(-110.371 -102.728)" fill="#1f4076"/>
    <path id="Tracé_2951" data-name="Tracé 2951" d="M261.014,184.807h-4.206a.248.248,0,1,1,0-.5h4.206a.248.248,0,1,1,0,.5Z" transform="translate(-111.544 -93.881)" fill="#1f4076"/>
    <rect id="Rectangle_1506" data-name="Rectangle 1506" width="9.298" height="2.275" transform="translate(133.659 89.552) rotate(90)" fill="#f2f1f7"/>
    <path id="Tracé_2952" data-name="Tracé 2952" d="M203.2,189.575h-2.275a.248.248,0,0,1-.248-.248v-9.3a.248.248,0,0,1,.248-.248H203.2a.248.248,0,0,1,.248.248v9.3A.248.248,0,0,1,203.2,189.575Zm-2.027-.5h1.779v-8.8h-1.779Z" transform="translate(-69.545 -90.477)" fill="#1f4076"/>
    <path id="Tracé_2953" data-name="Tracé 2953" d="M109.15,188.827h22.985V178.29H109.15" transform="translate(-0.752 -89.357)" fill="#fce15c"/>
    <path id="Tracé_2954" data-name="Tracé 2954" d="M131.384,188.324H108.4a.248.248,0,1,1,0-.5h22.737V177.787H108.4a.248.248,0,1,1,0-.5h22.985a.248.248,0,0,1,.248.248v10.537A.248.248,0,0,1,131.384,188.324Z" transform="translate(0 -88.605)" fill="#1f4076"/>
    <circle id="Ellipse_274" data-name="Ellipse 274" cx="0.641" cy="0.641" r="0.641" transform="translate(127.998 90.68)" fill="#1f4076"/>
    <path id="Tracé_2955" data-name="Tracé 2955" d="M137.238,155.427s.2,1.965.4,3.162,2.79,2.981,3.055,5.512.333,4.583-.33,5.313a2.382,2.382,0,0,1-1.987.465v3.011a1.33,1.33,0,0,1-2.519.745s-.273,1.987-1.667,2.159c-1.582.2-1.682-1.717-1.682-1.717a2.27,2.27,0,0,1-1.505.442c-.842-.087-1.418-1.637-1.418-1.637a1.2,1.2,0,0,1-1.682.266c-1.105-.619-.929-1.018-.929-3.277s-.179-4.516.263-5.713,2.037-4.869,2.082-5.887-.087-2.852-.087-2.852Z" transform="translate(-14.119 -72.168)" fill="#f2f1f7"/>
    <path id="Tracé_2956" data-name="Tracé 2956" d="M133.164,175.344a1.49,1.49,0,0,1-.976-.34,2.236,2.236,0,0,1-.668-1.227,2.41,2.41,0,0,1-1.341.278c-.718-.075-1.23-.934-1.471-1.443a1.484,1.484,0,0,1-1.724.04c-1.088-.609-1.081-1.13-1.063-2.683v-.81c0-.512,0-1.026-.02-1.525a13.758,13.758,0,0,1,.3-4.273c.109-.3.286-.745.5-1.242a26.011,26.011,0,0,0,1.575-4.571c.045-.994-.087-2.8-.087-2.822a.247.247,0,0,1,.248-.266h8.014a.248.248,0,0,1,.248.224c0,.02.2,1.972.4,3.145a4.673,4.673,0,0,0,1.018,1.6,7.874,7.874,0,0,1,2.039,3.93c.286,2.732.328,4.72-.4,5.507a2.356,2.356,0,0,1-1.925.581v2.732a1.574,1.574,0,0,1-2.643,1.322,2.333,2.333,0,0,1-1.761,1.836,1.832,1.832,0,0,1-.261.01Zm-1.456-2.236a.263.263,0,0,1,.1.022.248.248,0,0,1,.144.214,2.048,2.048,0,0,0,.551,1.272,1.053,1.053,0,0,0,.852.211c1.19-.152,1.451-1.93,1.453-1.948a.248.248,0,0,1,.469-.077,1.115,1.115,0,0,0,1.242.579,1.137,1.137,0,0,0,.8-1.22v-3a.251.251,0,0,1,.3-.243s1.2.226,1.759-.39c.641-.705.479-3.105.268-5.12a7.51,7.51,0,0,0-1.933-3.671,4.81,4.81,0,0,1-1.12-1.826c-.159-.951-.32-2.4-.378-2.954H128.7c.035.549.1,1.813.07,2.613a25.025,25.025,0,0,1-1.615,4.727c-.2.5-.38.944-.5,1.242a13.656,13.656,0,0,0-.268,4.091c0,.5.02,1.018.02,1.535v.815c-.017,1.543-.02,1.781.81,2.236a.942.942,0,0,0,1.354-.186.249.249,0,0,1,.44.05c.137.365.651,1.418,1.21,1.478a2.017,2.017,0,0,0,1.324-.39.248.248,0,0,1,.161-.05Z" transform="translate(-13.328 -71.446)" fill="#1f4076"/>
    <path id="Tracé_2957" data-name="Tracé 2957" d="M172.248,202.409a.248.248,0,0,1-.248-.248v-3.542a.248.248,0,0,1,.5,0v3.542A.248.248,0,0,1,172.248,202.409Z" transform="translate(-47.989 -104.449)" fill="#1f4076"/>
    <path id="Tracé_2958" data-name="Tracé 2958" d="M162.068,212.493a.248.248,0,0,1-.248-.248v-5.217a.248.248,0,1,1,.5,0v5.217A.248.248,0,0,1,162.068,212.493Z" transform="translate(-40.338 -110.77)" fill="#1f4076"/>
    <path id="Tracé_2959" data-name="Tracé 2959" d="M148.588,212.507a.248.248,0,0,1-.248-.248v-5.8a.248.248,0,1,1,.5,0v5.8A.248.248,0,0,1,148.588,212.507Z" transform="translate(-30.206 -110.341)" fill="#1f4076"/>
    <path id="Tracé_2960" data-name="Tracé 2960" d="M136.818,212.522a.248.248,0,0,1-.248-.248v-4.206a.248.248,0,1,1,.5,0v4.206A.248.248,0,0,1,136.818,212.522Z" transform="translate(-21.36 -111.551)" fill="#1f4076"/>
    <rect id="Rectangle_1507" data-name="Rectangle 1507" width="9.298" height="2.275" transform="translate(114.333 82.636)" fill="#5c6f99"/>
    <path id="Tracé_2961" data-name="Tracé 2961" d="M141.556,154.71h-9.308a.248.248,0,0,1-.248-.248v-2.273a.248.248,0,0,1,.248-.248h9.3a.248.248,0,0,1,.248.248v2.273A.248.248,0,0,1,141.556,154.71Zm-9.05-.5h8.8v-1.776H132.5Z" transform="translate(-17.925 -69.552)" fill="#5c6f99"/>
  </g>
</svg>
