<svg id="_331_shopping_cart_flatline" data-name="#331_shopping_cart_flatline" xmlns="http://www.w3.org/2000/svg" width="69.236" height="58.959" viewBox="0 0 69.236 58.959">
  <path id="Tracé_2505" data-name="Tracé 2505" d="M135.846,229.5H66.87a.13.13,0,1,1,0-.26h68.976a.13.13,0,0,1,0,.26Z" transform="translate(-66.74 -179.064)" fill="#5c6f99"/>
  <path id="Tracé_2506" data-name="Tracé 2506" d="M130.07,245.236l-.26,2.148a14.2,14.2,0,0,0,2.05,0c.034-.1.694-2.785.694-2.785Z" transform="translate(-113.426 -190.434)" fill="#f2f1f7"/>
  <path id="Tracé_2507" data-name="Tracé 2507" d="M130.87,247.194c-.317,0-.779-.013-1.457-.047a.13.13,0,0,1-.094-.047.132.132,0,0,1-.031-.1l.26-2.148a.138.138,0,0,1,.1-.112l2.478-.634a.125.125,0,0,1,.122.034.127.127,0,0,1,.036.122c-.068.275-.665,2.694-.7,2.8S131.551,247.194,130.87,247.194Zm-1.3-.3c.779.034,1.577.049,1.8.021.075-.291.387-1.559.623-2.5l-2.185.561Z" transform="translate(-113.039 -190.067)" fill="#1f4076"/>
  <path id="Tracé_2508" data-name="Tracé 2508" d="M85.558,234.47,84.41,236.3a14.162,14.162,0,0,0,1.857.868c.073-.075,1.818-2.229,1.818-2.229Z" transform="translate(-79.82 -182.936)" fill="#f2f1f7"/>
  <path id="Tracé_2509" data-name="Tracé 2509" d="M85.9,236.935a7.7,7.7,0,0,1-1.917-.886.119.119,0,0,1-.065-.081.117.117,0,0,1,.016-.1l1.148-1.837a.132.132,0,0,1,.135-.057l2.515.473a.13.13,0,0,1,.078.21c-.179.221-1.743,2.159-1.818,2.234A.1.1,0,0,1,85.9,236.935ZM84.224,235.9a17.538,17.538,0,0,0,1.618.779c.192-.234,1.005-1.239,1.624-2.005l-2.213-.431Z" transform="translate(-79.449 -182.566)" fill="#1f4076"/>
  <path id="Tracé_2510" data-name="Tracé 2510" d="M109.69,138.866c.5.3,4.884,10.511,5.455,11.456s-.538,16.249-.538,16.249h3.216s3.569-12.282,3.569-15.431-4.156-13.441-4.156-13.441l-7.534.26" transform="translate(-98.533 -111.304)" fill="#1f4076"/>
  <path id="Tracé_2511" data-name="Tracé 2511" d="M117.452,166.338h-3.206a.13.13,0,0,1-.13-.14c.449-6.136.969-15.506.559-16.171-.236-.382-1.06-2.2-2.016-4.312-1.314-2.9-3.117-6.871-3.411-7.1a.13.13,0,0,1-.042-.177.132.132,0,0,1,.179-.042c.283.171,1.3,2.364,3.51,7.214.951,2.1,1.772,3.915,2,4.281.574.93-.356,14.082-.52,16.189h2.967c.33-1.143,3.538-12.35,3.538-15.3s-3.715-12.324-4.11-13.308l-7.445.26a.13.13,0,0,1,0-.26l7.534-.26a.127.127,0,0,1,.125.081c.171.421,4.175,10.35,4.175,13.488s-3.445,14.966-3.582,15.472A.132.132,0,0,1,117.452,166.338Z" transform="translate(-98.161 -110.941)" fill="#1f4076"/>
  <path id="Tracé_2512" data-name="Tracé 2512" d="M90.443,143l.465,10.739L85.26,166.292,88.071,168c.143.369,7.375-10.035,8.183-13.2.559-2.18.068-12.617.068-12.617Z" transform="translate(-80.449 -114.621)" fill="#1f4076"/>
  <path id="Tracé_2513" data-name="Tracé 2513" d="M87.717,167.78a.14.14,0,0,1-.083-.029h0l-2.813-1.7a.13.13,0,0,1-.052-.164l5.624-12.529-.452-10.708a.132.132,0,0,1,.112-.132l5.879-.818a.13.13,0,0,1,.148.122c.021.426.483,10.482-.073,12.656-.779,3.037-7.731,13.275-8.284,13.306Zm-2.665-1.894,2.663,1.605c.779-.668,7.274-10.077,8.053-13.09.52-2,.125-11.17.07-12.438l-5.622.779.447,10.62a.117.117,0,0,1,0,.06Z" transform="translate(-80.077 -114.262)" fill="#1f4076"/>
  <path id="Tracé_2514" data-name="Tracé 2514" d="M128.946,255.32l-.3,1.652s5.32.33,5.157,0A17.537,17.537,0,0,0,131,255.32Z" transform="translate(-112.567 -198.369)" fill="#1f4076"/>
  <path id="Tracé_2515" data-name="Tracé 2515" d="M131.983,256.88c-1.039,0-2.447-.07-3.71-.148a.13.13,0,0,1-.12-.153l.3-1.652a.13.13,0,0,1,.127-.107h2.05a.112.112,0,0,1,.057.016,13.843,13.843,0,0,1,2.858,1.709.161.161,0,0,1,0,.161A3.393,3.393,0,0,1,131.983,256.88Zm-3.549-.4a37.816,37.816,0,0,0,4.8.091,21.4,21.4,0,0,0-2.642-1.494h-1.909Z" transform="translate(-112.198 -197.999)" fill="#1f4076"/>
  <path id="Tracé_2516" data-name="Tracé 2516" d="M81.948,241.53l-.156.184c-.281.338-.831,1.039-.683,1.218a49.309,49.309,0,0,0,4.5,2.678c-.107-.166-1.818-3.213-1.818-3.213" transform="translate(-77.358 -188.162)" fill="#5c6f99"/>
  <path id="Tracé_2517" data-name="Tracé 2517" d="M85.227,245.39a11.468,11.468,0,0,1-2.291-1.252c-.52-.3-2.182-1.3-2.338-1.473-.073-.083-.239-.278.681-1.387.094-.114.158-.187.158-.187a.127.127,0,0,1,.182,0,.125.125,0,0,1,0,.182s-.062.07-.153.179c-.572.691-.691,1-.675,1.065.158.166,3.06,1.909,4.084,2.465-.468-.821-1.559-2.764-1.608-2.858a.127.127,0,0,1,.052-.174.125.125,0,0,1,.174.049c.59,1.052,1.722,3.078,1.818,3.206a.14.14,0,0,1-.031.182A.1.1,0,0,1,85.227,245.39Z" transform="translate(-76.954 -187.809)" fill="#5c6f99"/>
  <rect id="Rectangle_1406" data-name="Rectangle 1406" width="8.677" height="13.612" transform="translate(55.009 30.184) rotate(-0.35)" fill="#f2f1f7"/>
  <path id="Tracé_2518" data-name="Tracé 2518" d="M278.213,165.512a.125.125,0,0,1-.119-.119L278,151.783a.117.117,0,0,1,.119-.119l8.674-.055a.106.106,0,0,1,.086.034.127.127,0,0,1,.034.086l.083,13.61a.117.117,0,0,1-.117.119l-8.677.055Zm.036-13.612.081,13.373,8.44-.052-.083-13.373Z" transform="translate(-223.119 -121.6)" fill="#1f4076"/>
  <rect id="Rectangle_1407" data-name="Rectangle 1407" width="12.261" height="10.529" transform="translate(40.977 34.69) rotate(-8.37)" fill="#fce15c"/>
  <path id="Tracé_2519" data-name="Tracé 2519" d="M225.685,174.715a.117.117,0,0,1-.117-.1L224.036,164.2a.112.112,0,0,1,.021-.086.109.109,0,0,1,.078-.047l12.129-1.787a.119.119,0,0,1,.135.1l1.535,10.417a.135.135,0,0,1-.023.088.127.127,0,0,1-.078.047L225.7,174.715Zm-1.4-10.433,1.5,10.183,11.893-1.751-1.5-10.183Z" transform="translate(-183.173 -129.496)" fill="#1f4076"/>
  <rect id="Rectangle_1408" data-name="Rectangle 1408" width="9.614" height="6.528" transform="matrix(0.979, -0.205, 0.205, 0.979, 39.903, 28.031)" fill="#f2f1f7"/>
  <path id="Tracé_2520" data-name="Tracé 2520" d="M221.341,144.553a.122.122,0,0,1-.117-.1l-1.34-6.388a.117.117,0,0,1,.018-.088.114.114,0,0,1,.073-.052l9.409-1.974a.127.127,0,0,1,.091.018.109.109,0,0,1,.049.075l1.34,6.388a.117.117,0,0,1-.091.14l-9.409,1.974Zm-1.2-6.416,1.3,6.157,9.175-1.925-1.3-6.157Z" transform="translate(-180.099 -110.011)" fill="#1f4076"/>
  <rect id="Rectangle_1409" data-name="Rectangle 1409" width="7.17" height="5.222" transform="translate(50.586 24.668) rotate(-8.61)" fill="#5c6f99"/>
  <path id="Tracé_2521" data-name="Tracé 2521" d="M261.914,132.926a.109.109,0,0,1-.07-.023.12.12,0,0,1-.049-.078l-.779-5.162a.117.117,0,0,1,.1-.135l7.087-1.073a.117.117,0,0,1,.135.1l.779,5.162a.117.117,0,0,1-.021.088.109.109,0,0,1-.078.047l-7.089,1.075Zm-.644-5.18.746,4.936,6.853-1.039-.746-4.936Z" transform="translate(-210.546 -102.98)" fill="#5c6f99"/>
  <rect id="Rectangle_1410" data-name="Rectangle 1410" width="7.222" height="3.325" transform="matrix(0.895, -0.445, 0.445, 0.895, 43.743, 23.787)" fill="#fce15c"/>
  <path id="Tracé_2522" data-name="Tracé 2522" d="M236.28,121.281a.119.119,0,0,1-.107-.065l-1.478-2.98a.117.117,0,0,1,0-.088.132.132,0,0,1,.06-.07l6.468-3.213a.122.122,0,0,1,.091,0,.117.117,0,0,1,.068.06l1.481,2.977a.122.122,0,0,1,0,.091.117.117,0,0,1-.06.068l-6.476,3.208a.14.14,0,0,1-.047.013Zm-1.32-3.042L236.327,121l6.253-3.117-1.374-2.767Z" transform="translate(-191.058 -94.395)" fill="#1f4076"/>
  <rect id="Rectangle_1411" data-name="Rectangle 1411" width="3.559" height="4.078" transform="translate(59.078 25.719) rotate(-20.36)" fill="#f2f1f7"/>
  <path id="Tracé_2523" data-name="Tracé 2523" d="M295.239,135.218a.107.107,0,0,1-.049,0,.117.117,0,0,1-.062-.065l-1.418-3.824a.119.119,0,0,1,.07-.153l3.336-1.237a.12.12,0,0,1,.153.07l1.418,3.821a.117.117,0,0,1-.07.153l-3.336,1.239Zm-1.268-3.871,1.338,3.6,3.117-1.156-1.335-3.6Z" transform="translate(-234.742 -105.554)" fill="#1f4076"/>
  <rect id="Rectangle_1412" data-name="Rectangle 1412" width="3.845" height="3.845" transform="matrix(0.992, -0.128, 0.128, 0.992, 49.477, 29.347)" fill="#f2f1f7"/>
  <path id="Tracé_2524" data-name="Tracé 2524" d="M257.357,151.241a.12.12,0,0,1-.117-.1l-.494-3.811a.119.119,0,0,1,.023-.088.1.1,0,0,1,.078-.044l3.814-.5a.12.12,0,0,1,.133.1l.494,3.814a.117.117,0,0,1-.1.132l-3.814.494ZM257,147.412l.465,3.577,3.577-.462-.465-3.577Z" transform="translate(-207.387 -117.964)" fill="#1f4076"/>
  <ellipse id="Ellipse_223" data-name="Ellipse 223" cx="1.982" cy="1.982" rx="1.982" ry="1.982" transform="translate(41.034 54.865)" fill="#1f4076"/>
  <path id="Tracé_2525" data-name="Tracé 2525" d="M226.312,251.014a2.112,2.112,0,1,1,2.112-2.112A2.112,2.112,0,0,1,226.312,251.014Zm0-3.964a1.852,1.852,0,1,0,1.852,1.852,1.852,1.852,0,0,0-1.852-1.852Z" transform="translate(-183.296 -192.055)" fill="#1f4076"/>
  <path id="Tracé_2526" data-name="Tracé 2526" d="M230.64,243.458v2.559c0,.662.759.7,1.1,0s1.083-2.647,1.083-2.647Z" transform="translate(-188.063 -189.524)" fill="#e6e7e8"/>
  <path id="Tracé_2527" data-name="Tracé 2527" d="M230.727,246.369a.482.482,0,0,1-.125,0,.579.579,0,0,1-.421-.616v-2.559a.119.119,0,0,1,.112-.12l2.19-.086a.12.12,0,0,1,.1.047.114.114,0,0,1,.013.112c-.029.081-.746,1.961-1.088,2.66A.92.92,0,0,1,230.727,246.369Zm-.309-3.073v2.444c0,.21.086.348.239.384a.666.666,0,0,0,.639-.436c.278-.566.829-1.982,1.016-2.468Z" transform="translate(-187.721 -189.242)" fill="#1f4076"/>
  <ellipse id="Ellipse_224" data-name="Ellipse 224" cx="1.982" cy="1.982" rx="1.982" ry="1.982" transform="translate(57.683 54.865)" fill="#1f4076"/>
  <path id="Tracé_2528" data-name="Tracé 2528" d="M290.409,251.014a2.112,2.112,0,1,1,2.115-2.112A2.112,2.112,0,0,1,290.409,251.014Zm0-3.964a1.852,1.852,0,1,0,1.855,1.852A1.852,1.852,0,0,0,290.409,247.05Z" transform="translate(-230.744 -192.055)" fill="#1f4076"/>
  <path id="Tracé_2529" data-name="Tracé 2529" d="M294.74,243.458v2.559c0,.662.759.7,1.1,0s1.086-2.647,1.086-2.647Z" transform="translate(-235.511 -189.524)" fill="#e6e7e8"/>
  <path id="Tracé_2530" data-name="Tracé 2530" d="M294.817,246.369a.475.475,0,0,1-.122,0,.579.579,0,0,1-.423-.616v-2.559a.122.122,0,0,1,.114-.12l2.187-.086a.117.117,0,0,1,.1.047.122.122,0,0,1,.016.112c-.031.081-.748,1.961-1.091,2.66a.914.914,0,0,1-.782.561Zm-.307-3.073v2.445c0,.21.086.348.236.384a.666.666,0,0,0,.639-.436c.281-.566.829-1.982,1.018-2.468Z" transform="translate(-235.162 -189.242)" fill="#1f4076"/>
  <path id="Tracé_2531" data-name="Tracé 2531" d="M234.109,157.64h0l-30.685-1.621a.132.132,0,0,1-.125-.138.13.13,0,0,1,.138-.122l30.677,1.621a.132.132,0,0,1,.125.138A.13.13,0,0,1,234.109,157.64Z" transform="translate(-167.825 -124.672)" fill="#1f4076"/>
  <path id="Tracé_2532" data-name="Tracé 2532" d="M211.49,176.028a.127.127,0,0,1-.13-.127.132.132,0,0,1,.127-.132l28.339-.278h0a.13.13,0,1,1,0,.26l-28.339.278Z" transform="translate(-173.791 -139.277)" fill="#1f4076"/>
  <path id="Tracé_2533" data-name="Tracé 2533" d="M222.56,195.077a.13.13,0,0,1,0-.26L247.511,193a.13.13,0,1,1,.018.26l-24.939,1.818Z" transform="translate(-181.985 -152.238)" fill="#1f4076"/>
  <path id="Tracé_2534" data-name="Tracé 2534" d="M194.759,159.491a2.078,2.078,0,0,1-1.933-1.32c-3.824-9.848-6.406-16.293-6.772-16.885a18.414,18.414,0,0,0-3.681-.995.39.39,0,1,1,.151-.764c1.075.21,3.637.753,4.1,1.221.112.112.452.449,6.933,17.145a1.3,1.3,0,0,0,1.3.821l20.782-1.766a1.234,1.234,0,0,0,1.117-1.081l1.234-10.42a.39.39,0,0,1,.431-.343.4.4,0,0,1,.343.434l-1.234,10.42a2.018,2.018,0,0,1-1.818,1.766l-20.782,1.764Zm-8.69-18.2Z" transform="translate(-152.088 -112.649)" fill="#1f4076"/>
  <path id="Tracé_2535" data-name="Tracé 2535" d="M172.036,135.709l-.5,1.761-4.055-1.1a.751.751,0,0,1-.52-.933h0a.748.748,0,0,1,.862-.52Z" transform="translate(-140.907 -109.235)" fill="#f2f1f7"/>
  <path id="Tracé_2536" data-name="Tracé 2536" d="M171.152,137.247h-.034l-4.055-1.1a.878.878,0,0,1-.538-.418.865.865,0,0,1-.078-.675.875.875,0,0,1,1.011-.621l4.214.8a.127.127,0,0,1,.086.06.145.145,0,0,1,.016.1l-.5,1.772A.127.127,0,0,1,171.152,137.247Zm-3.86-2.577a.623.623,0,0,0-.161,1.224l3.93,1.065.423-1.5-4.076-.779A.6.6,0,0,0,167.292,134.67Z" transform="translate(-140.519 -108.874)" fill="#1f4076"/>
  <path id="Tracé_2537" data-name="Tracé 2537" d="M224.95,171.571a.127.127,0,0,1-.122-.091l-4.736-14.6a.13.13,0,0,1,.083-.164.127.127,0,0,1,.164.083l4.736,14.6a.13.13,0,0,1-.083.164A.117.117,0,0,1,224.95,171.571Z" transform="translate(-180.25 -125.378)" fill="#1f4076"/>
  <path id="Tracé_2538" data-name="Tracé 2538" d="M235.111,171.835a.13.13,0,0,1-.125-.1l-4-14.35a.13.13,0,0,1,.091-.161.132.132,0,0,1,.161.091l4.011,14.35a.13.13,0,0,1-.091.161Z" transform="translate(-188.315 -125.756)" fill="#1f4076"/>
  <path id="Tracé_2539" data-name="Tracé 2539" d="M244.407,172.081a.13.13,0,0,1-.127-.1l-3.473-14.028a.125.125,0,0,1,.094-.156.13.13,0,0,1,.158.094l3.473,14.028a.127.127,0,0,1-.094.156Z" transform="translate(-195.585 -126.178)" fill="#1f4076"/>
  <path id="Tracé_2540" data-name="Tracé 2540" d="M253.953,172.255a.127.127,0,0,1-.127-.107l-2.663-13.706a.132.132,0,1,1,.26-.049l2.66,13.706a.132.132,0,0,1-.1.153Z" transform="translate(-203.253 -126.543)" fill="#1f4076"/>
  <path id="Tracé_2541" data-name="Tracé 2541" d="M262.93,172.506a.13.13,0,0,1-.127-.109l-2.278-13.314a.13.13,0,0,1,.107-.151.127.127,0,0,1,.151.107l2.276,13.314a.132.132,0,0,1-.107.151Z" transform="translate(-210.182 -127.02)" fill="#1f4076"/>
  <path id="Tracé_2542" data-name="Tracé 2542" d="M272.344,172.537a.13.13,0,0,1-.13-.112l-1.759-12.971a.13.13,0,0,1,.109-.148.132.132,0,0,1,.148.112l1.759,12.971a.13.13,0,0,1-.112.148Z" transform="translate(-217.534 -127.297)" fill="#1f4076"/>
  <path id="Tracé_2543" data-name="Tracé 2543" d="M281.806,172.683a.135.135,0,0,1-.13-.119l-1.127-12.578a.13.13,0,0,1,.26-.023l1.127,12.578a.133.133,0,0,1-.117.143Z" transform="translate(-225.006 -127.695)" fill="#1f4076"/>
  <path id="Tracé_2544" data-name="Tracé 2544" d="M290.929,172.765a.133.133,0,0,1-.13-.122L290,160.48a.13.13,0,0,1,.122-.14.135.135,0,0,1,.138.122l.8,12.163a.127.127,0,0,1-.12.138Z" transform="translate(-232.001 -128.063)" fill="#1f4076"/>
  <path id="Tracé_2545" data-name="Tracé 2545" d="M300.163,173.436a.13.13,0,0,1-.13-.127l-.294-12.316a.13.13,0,0,1,.127-.132.132.132,0,0,1,.133.127l.294,12.316a.135.135,0,0,1-.127.132Z" transform="translate(-239.212 -128.448)" fill="#1f4076"/>
  <path id="Tracé_2546" data-name="Tracé 2546" d="M309.57,173.455a.13.13,0,0,1-.13-.13V161.5a.13.13,0,1,1,.26,0v11.825A.13.13,0,0,1,309.57,173.455Z" transform="translate(-246.392 -128.825)" fill="#1f4076"/>
  <path id="Tracé_2547" data-name="Tracé 2547" d="M242.305,222.123H221a1.07,1.07,0,0,1-.961-1.546l3.2-6.476a.39.39,0,0,1,.7.345l-3.2,6.481a.291.291,0,0,0,.26.421h21.3a.39.39,0,1,1,0,.779Z" transform="translate(-180.136 -167.698)" fill="#1f4076"/>
  <path id="Tracé_2548" data-name="Tracé 2548" d="M120.118,45.073a.751.751,0,0,1-.977-.364.52.52,0,0,1-.073-.47.283.283,0,0,1,.4-.148,5.79,5.79,0,0,1-.891-1.494,1.982,1.982,0,0,1,.107-1.686,2.308,2.308,0,0,1-1.086-.907,1.372,1.372,0,0,1,.384-1.577,2.016,2.016,0,0,1,1.644-.392,1.039,1.039,0,0,0-.543-.642,3.68,3.68,0,0,1,2.439-.839,5.575,5.575,0,0,1,4.053,1.322,3.572,3.572,0,0,1,1.1,3.013c-.216,1.47-1.265.8-2.257,1.351a7.714,7.714,0,0,0-1.247,1.125c-.709.608-1.621.779-2.338,1.3A3.024,3.024,0,0,1,120.118,45.073Z" transform="translate(-104.31 -36.431)" fill="#f2f1f7"/>
  <path id="Tracé_2549" data-name="Tracé 2549" d="M119.4,44.923a.886.886,0,0,1-.764-.486.662.662,0,0,1-.083-.587.452.452,0,0,1,.26-.242,5.2,5.2,0,0,1-.746-1.3,2.122,2.122,0,0,1,.052-1.676,2.268,2.268,0,0,1-1.039-.9A1.5,1.5,0,0,1,117.494,38a2.078,2.078,0,0,1,1.522-.449.912.912,0,0,0-.392-.369.132.132,0,0,1-.073-.1.127.127,0,0,1,.039-.114,3.744,3.744,0,0,1,2.522-.875,5.685,5.685,0,0,1,4.156,1.359,3.71,3.71,0,0,1,1.135,3.117c-.153,1.039-.725,1.114-1.333,1.187a2.575,2.575,0,0,0-.99.26,3.406,3.406,0,0,0-.779.67,5.975,5.975,0,0,1-.449.439,5.274,5.274,0,0,1-1.33.764,5.957,5.957,0,0,0-1.005.535,3.117,3.117,0,0,1-.759.431h0A1.132,1.132,0,0,1,119.4,44.923Zm.325-.19Zm-.779-.891a.083.083,0,0,0-.036,0,.182.182,0,0,0-.12.1.41.41,0,0,0,.062.353.623.623,0,0,0,.823.309h0a2.9,2.9,0,0,0,.691-.4,6.12,6.12,0,0,1,1.039-.561,5.144,5.144,0,0,0,1.283-.72,5.946,5.946,0,0,0,.431-.421,3.637,3.637,0,0,1,.842-.725,2.774,2.774,0,0,1,1.083-.291c.592-.07.982-.117,1.107-.966a3.439,3.439,0,0,0-1.057-2.9,5.6,5.6,0,0,0-3.956-1.3,3.583,3.583,0,0,0-2.224.688,1.172,1.172,0,0,1,.447.626.13.13,0,0,1-.145.164,1.886,1.886,0,0,0-1.538.364,1.234,1.234,0,0,0-.353,1.421,2.168,2.168,0,0,0,1.039.849.135.135,0,0,1,.065.081.145.145,0,0,1-.016.1,1.844,1.844,0,0,0-.1,1.559,5.79,5.79,0,0,0,.873,1.46.13.13,0,0,1-.182.182.083.083,0,0,0-.057.018Z" transform="translate(-103.913 -36.091)" fill="#1f4076"/>
  <path id="Tracé_2550" data-name="Tracé 2550" d="M146.51,59.23s.7,1.559.46,1.818-.849-.039-.849-.039" transform="translate(-125.499 -53.219)" fill="#f2f1f7"/>
  <path id="Tracé_2551" data-name="Tracé 2551" d="M146.3,60.893a1.558,1.558,0,0,1-.61-.158.13.13,0,1,1,.114-.234c.169.086.564.21.7.068a3.851,3.851,0,0,0-.481-1.681.13.13,0,1,1,.236-.107c.221.494.7,1.673.434,1.964a.5.5,0,0,1-.39.148Z" transform="translate(-125.128 -52.824)" fill="#1f4076"/>
  <path id="Tracé_2552" data-name="Tracé 2552" d="M132.144,49.623c.52.582.171,1.574.057,2.239q-.242,1.4-.548,2.79c-.13.587-1.668.348-1.909.125l-.182,1.985a1.076,1.076,0,0,1-1.683.26,2.8,2.8,0,0,1-1.3-1.618l.548-2.689a1.965,1.965,0,0,0,1.818-.933,8.074,8.074,0,0,0,1.083-2.972A4.653,4.653,0,0,1,132.144,49.623Z" transform="translate(-111.035 -45.506)" fill="#f2f1f7"/>
  <path id="Tracé_2553" data-name="Tracé 2553" d="M128.341,57.035a1.6,1.6,0,0,1-.881-.314,3,3,0,0,1-1.359-1.7.107.107,0,0,1,0-.049l.548-2.689a.127.127,0,0,1,.148-.1,1.837,1.837,0,0,0,1.686-.883,7.912,7.912,0,0,0,1.057-2.912.13.13,0,0,1,.052-.086.127.127,0,0,1,.1-.023,4.584,4.584,0,0,1,2.206.868h0c.468.52.3,1.34.158,1.99-.026.127-.052.247-.073.358-.161.93-.346,1.87-.548,2.8a.561.561,0,0,1-.423.41,2.686,2.686,0,0,1-1.5-.1l-.164,1.787a.155.155,0,0,1-.016.049,1.237,1.237,0,0,1-.733.577A1.057,1.057,0,0,1,128.341,57.035Zm-1.977-2.042a2.844,2.844,0,0,0,1.242,1.512,1.166,1.166,0,0,0,.927.26.959.959,0,0,0,.556-.426l.179-1.954a.132.132,0,0,1,.218-.086,2.291,2.291,0,0,0,1.442.153.349.349,0,0,0,.26-.21c.2-.92.387-1.855.548-2.785.018-.112.047-.236.073-.366.127-.592.283-1.33-.1-1.764a4.286,4.286,0,0,0-1.922-.761,7.921,7.921,0,0,1-1.083,2.9,2.1,2.1,0,0,1-1.818,1Z" transform="translate(-110.679 -45.109)" fill="#1f4076"/>
  <path id="Tracé_2554" data-name="Tracé 2554" d="M143.48,67.216a.769.769,0,0,1-1.06-.486" transform="translate(-122.76 -58.771)" fill="#f2f1f7"/>
  <path id="Tracé_2555" data-name="Tracé 2555" d="M142.751,67.019a.842.842,0,0,1-.369-.078.883.883,0,0,1-.46-.564.136.136,0,0,1,.26-.081.631.631,0,0,0,.317.408.821.821,0,0,0,.572,0,.13.13,0,0,1,.1.242A1.231,1.231,0,0,1,142.751,67.019Z" transform="translate(-122.387 -58.379)" fill="#1f4076"/>
  <path id="Tracé_2556" data-name="Tracé 2556" d="M134.593,55.613a1.268,1.268,0,0,0-.156-.686,1.852,1.852,0,0,0-.26-.481.626.626,0,0,0-.478-.236.577.577,0,0,0-.416.231,1.088,1.088,0,0,0-.195.444,2.042,2.042,0,0,0,.634,1.933l-.044-.065" transform="translate(-115.821 -49.503)" fill="#f2f1f7"/>
  <path id="Tracé_2557" data-name="Tracé 2557" d="M133.3,56.578a.119.119,0,0,1-.086-.034,2.172,2.172,0,0,1-.673-2.057,1.177,1.177,0,0,1,.218-.5.7.7,0,0,1,.52-.278.74.74,0,0,1,.582.283,2.021,2.021,0,0,1,.288.52,1.4,1.4,0,0,1,.166.756.127.127,0,0,1-.148.109.13.13,0,0,1-.109-.145,1.211,1.211,0,0,0-.145-.616,1.738,1.738,0,0,0-.26-.447.5.5,0,0,0-.374-.192.449.449,0,0,0-.32.182.966.966,0,0,0-.169.392,1.907,1.907,0,0,0,.494,1.712.122.122,0,0,1,.078.057l.044.062a.135.135,0,0,1-.023.169A.125.125,0,0,1,133.3,56.578Z" transform="translate(-115.412 -49.133)" fill="#1f4076"/>
  <path id="Tracé_2558" data-name="Tracé 2558" d="M135.809,68.975a2.535,2.535,0,0,1-1.039-.985,2.117,2.117,0,0,0,.972,2.047Z" transform="translate(-117.09 -59.703)" fill="#1f4076"/>
  <path id="Tracé_2559" data-name="Tracé 2559" d="M135.386,69.794a.138.138,0,0,1-.062-.016,2.274,2.274,0,0,1-1.039-2.177.132.132,0,0,1,.109-.114.135.135,0,0,1,.138.075,2.416,2.416,0,0,0,.972.922.132.132,0,0,1,.073.125l-.065,1.062a.127.127,0,0,1-.068.1.109.109,0,0,1-.057.018Zm-.844-1.746a1.831,1.831,0,0,0,.727,1.39l.047-.764A3,3,0,0,1,134.542,68.048Z" transform="translate(-116.731 -59.33)" fill="#1f4076"/>
  <ellipse id="Ellipse_225" data-name="Ellipse 225" cx="0.338" cy="0.132" rx="0.338" ry="0.132" transform="matrix(0.325, -0.946, 0.946, 0.325, 20.351, 5.55)" fill="#1f4076"/>
  <path id="Tracé_2560" data-name="Tracé 2560" d="M107.218,73.551s4.05.681,4.829,3.019-.52,9.872,0,10.57a34.083,34.083,0,0,1,1.818,5.393c0,1.265-10.911,1.673-10.911,1.673s-.275-5.494-.364-8.832S104.253,72.782,107.218,73.551Z" transform="translate(-93.275 -63.786)" fill="#fce15c"/>
  <path id="Tracé_2561" data-name="Tracé 2561" d="M139.48,98.632a.117.117,0,0,1-.042,0,.13.13,0,0,1-.088-.122c-.026-.122-.317-.808-.572-1.416-.366-.865-.746-1.761-.805-2.029s.052-2.382.218-5.068c.073-1.177.135-2.193.145-2.577a14.287,14.287,0,0,0-.247-2.447.132.132,0,0,1,.26-.049,14.051,14.051,0,0,1,.26,2.5c0,.39-.073,1.408-.145,2.6-.125,1.985-.294,4.7-.226,5,.057.244.447,1.169.779,1.985.618,1.468.613,1.483.587,1.559a.135.135,0,0,1-.125.07Z" transform="translate(-119.457 -72.158)" fill="#1f4076"/>
  <path id="Tracé_2562" data-name="Tracé 2562" d="M101.7,65.231a2.858,2.858,0,0,0-1.062-.429,3.424,3.424,0,0,0-2.476.7,5.02,5.02,0,0,0-2.356,2.754,2.616,2.616,0,0,0,1.5,2.858,1.109,1.109,0,0,0,.61.107c.4-.062.662-.423.935-.72a3.1,3.1,0,0,1,2.338-1.018,13.182,13.182,0,0,1,1.839-.094,32.744,32.744,0,0,1,3.733.6c.779.119.452-.7.138-.99-.52-.486-1.062-.946-1.621-1.385a31.112,31.112,0,0,0-3.577-2.39Z" transform="translate(-88.224 -57.329)" fill="#fce15c"/>
  <path id="Tracé_2563" data-name="Tracé 2563" d="M133.033,103.683c-.016.07-.088.1-.153.132a3.524,3.524,0,0,1-2.465.184c-.935-.33-1.431-1.166-2.369-1.455-.34-.1-.678-.2-1.018-.294-.488-.135-.979-.26-1.47-.392a18.938,18.938,0,0,1-4.351-1.3c-1.039-.595-3.982-5.715-4.8-7.869s1.707-3.413,1.707-3.413c1.359-1.138,4.936,8.269,4.936,8.269l5.138,2.419,1.065.5a3.749,3.749,0,0,0,.67.3,4.192,4.192,0,0,0,1.728-.229.6.6,0,0,1,.223-.021.615.615,0,0,1,.153.047,2.662,2.662,0,0,1,.621.338.891.891,0,0,1,.351.592l-.733-.018a.712.712,0,0,0-.52,1.125c.278.452.979.5,1.25.964A.221.221,0,0,1,133.033,103.683Z" transform="translate(-103.385 -75.39)" fill="#f2f1f7"/>
  <path id="Tracé_2564" data-name="Tracé 2564" d="M130.945,103.835a2.873,2.873,0,0,1-.953-.156,4.115,4.115,0,0,1-1.195-.743,3.538,3.538,0,0,0-1.169-.712c-.338-.1-.673-.2-1.013-.291-.455-.125-.914-.244-1.372-.366l-.1-.023c-.366-.1-.748-.184-1.153-.275a12.743,12.743,0,0,1-3.229-1.039c-1.062-.616-4.029-5.767-4.855-7.944s1.559-3.46,1.759-3.569a.52.52,0,0,1,.475-.1c.678.177,1.67,1.655,2.948,4.4.86,1.842,1.559,3.665,1.694,3.985l5.089,2.393,1.065.5.174.086a2.213,2.213,0,0,0,.473.2,2.878,2.878,0,0,0,1.3-.138c.127-.034.26-.065.366-.091a.759.759,0,0,1,.273-.023.832.832,0,0,1,.182.057,2.621,2.621,0,0,1,.652.356,1.008,1.008,0,0,1,.4.683.125.125,0,0,1-.034.1.13.13,0,0,1-.1.039l-.733-.018a.447.447,0,0,0-.418.236.691.691,0,0,0,0,.691,1.33,1.33,0,0,0,.572.431,1.509,1.509,0,0,1,.678.535.33.33,0,0,1,.049.218h0a.34.34,0,0,1-.226.223A4.346,4.346,0,0,1,130.945,103.835ZM117.99,88.859a.26.26,0,0,0-.169.065l-.026.018c-.1.049-2.411,1.234-1.644,3.252.795,2.094,3.741,7.227,4.741,7.793a11.451,11.451,0,0,0,3.156,1.024c.408.091.779.177,1.164.275l.1.026c.46.119.92.239,1.377.366.34.094.681.19,1.018.294a3.769,3.769,0,0,1,1.257.756,3.762,3.762,0,0,0,1.13.7,3.4,3.4,0,0,0,2.372-.179.259.259,0,0,0,.073-.042.425.425,0,0,0-.021-.044,1.3,1.3,0,0,0-.579-.436,1.559,1.559,0,0,1-.675-.52.966.966,0,0,1,0-.956.709.709,0,0,1,.652-.366l.564.016a.831.831,0,0,0-.26-.358,2.353,2.353,0,0,0-.59-.32.581.581,0,0,0-.119-.039.5.5,0,0,0-.179.021c-.112.023-.231.055-.356.086a2.972,2.972,0,0,1-1.429.143,2.754,2.754,0,0,1-.52-.226l-.166-.083-1.1-.5-5.138-2.416a.143.143,0,0,1-.068-.073c-.834-2.193-3.268-7.954-4.484-8.269A.325.325,0,0,0,117.99,88.859Zm14.664,14.392Zm0,0Z" transform="translate(-103.006 -74.958)" fill="#1f4076"/>
  <path id="Tracé_2565" data-name="Tracé 2565" d="M127.086,97.756l-1.169,2.3c-.488-.135-.979-.26-1.47-.392a18.939,18.939,0,0,1-4.351-1.3c-1.039-.595-3.689-3.9-4.962-6.552-1.559-3.278,2.078-5.494,2.078-5.494,1.359-1.14,4.738,9.032,4.738,9.032Z" transform="translate(-102.275 -73.203)" fill="#5c6f99"/>
  <path id="Tracé_2566" data-name="Tracé 2566" d="M125.551,99.9h-.034c-.455-.125-.914-.26-1.372-.366l-.1-.026c-.369-.1-.751-.182-1.156-.26a12.743,12.743,0,0,1-3.229-1.039c-1.091-.623-3.769-4-5.014-6.609a3.808,3.808,0,0,1,.465-4.107,6.494,6.494,0,0,1,1.66-1.559.481.481,0,0,1,.447-.086c.26.07,1.005.286,2.858,4.79.823,2.011,1.5,4,1.618,4.349l5.086,2.39a.138.138,0,0,1,.068.075.125.125,0,0,1,0,.1l-1.169,2.3A.132.132,0,0,1,125.551,99.9Zm-8.477-13.851a.223.223,0,0,0-.148.06,6.38,6.38,0,0,0-1.608,1.5,3.517,3.517,0,0,0-.434,3.837c1.317,2.756,3.951,5.949,4.91,6.494a11.451,11.451,0,0,0,3.156,1.024c.408.091.779.177,1.164.275l.1.026c.426.112.852.223,1.273.338l1.062-2.078-5.019-2.359a.132.132,0,0,1-.068-.078c-.8-2.4-3.117-8.687-4.307-9.022a.3.3,0,0,0-.078-.018Z" transform="translate(-101.909 -72.906)" fill="#5c6f99"/>
  <path id="Tracé_2567" data-name="Tracé 2567" d="M113.539,163.166a.127.127,0,0,1-.1-.042,66.817,66.817,0,0,1-4.232-6.209.127.127,0,0,1,.042-.179.13.13,0,0,1,.177.042,68.877,68.877,0,0,0,4.206,6.172.13.13,0,0,1-.1.216Z" transform="translate(-98.162 -125.382)" fill="#f2f1f7"/>
  <path id="Tracé_2568" data-name="Tracé 2568" d="M109.324,80.748a.13.13,0,0,1-.065-.242c.145-.086,3.616-2.078,5.811-1.218a.132.132,0,0,1,.073.169.13.13,0,0,1-.169.073c-2.078-.818-5.551,1.179-5.585,1.2A.117.117,0,0,1,109.324,80.748Z" transform="translate(-98.166 -67.907)" fill="#1f4076"/>
</svg>
