<svg xmlns="http://www.w3.org/2000/svg" width="19.5" height="32.25" viewBox="0 0 19.5 32.25">
  <path id="Icon_material-directions-walk" data-name="Icon material-directions-walk" d="M20.25,8.25a3,3,0,1,0-3-3A3.009,3.009,0,0,0,20.25,8.25Zm-5.55,5.1L10.5,34.5h3.15l2.7-12,3.15,3v9h3V23.25l-3.15-3,.9-4.5A10.984,10.984,0,0,0,28.5,19.5v-3a7.379,7.379,0,0,1-6.45-3.6l-1.5-2.4A3.094,3.094,0,0,0,18,9c-.45,0-.75.15-1.2.15L9,12.45V19.5h3V14.4l2.7-1.05" transform="translate(-9 -2.25)" fill="#4973d2"/>
</svg>
