<svg xmlns="http://www.w3.org/2000/svg" width="61.869" height="65.035" viewBox="0 0 61.869 65.035">
  <g id="_335_watering_plant_flatline" data-name="#335_watering_plant_flatline" transform="translate(-81.56 -25.082)">
    <path id="Tracé_3364" data-name="Tracé 3364" d="M142.713,256.013a2.129,2.129,0,0,1-.491-.06c-.123-.029-.243-.063-.366-.1a3.372,3.372,0,0,0-.661-.146,3.676,3.676,0,0,0-.585.018,2.133,2.133,0,0,1-1.045-.081c-.078-.034-.151-.076-.227-.117a1.919,1.919,0,0,0-.191-.1,2.9,2.9,0,0,0-1.617,0,4.128,4.128,0,0,1-1.457.094l-.12-.023a18.689,18.689,0,0,0-3.288-.415q-2.306-.016-4.612-.05c-3.236-.05-6.163-.12-8.945-.219l-3.881-.136a30.659,30.659,0,0,0-4.487.06,125.182,125.182,0,0,1-19.814.232c-1.852-.081-3.716-.013-5.518.055-1.217.044-2.473.089-3.719.089a.131.131,0,0,1,0-.261c1.241,0,2.494-.044,3.708-.089,1.807-.068,3.677-.136,5.539-.055a125.578,125.578,0,0,0,19.772-.23,30.889,30.889,0,0,1,4.528-.063l3.878.136c2.781.1,5.706.17,8.939.219q2.309.031,4.612.05a19.187,19.187,0,0,1,3.327.428l.123.023a3.881,3.881,0,0,0,1.361-.1,3.178,3.178,0,0,1,1.768,0c.073.034.146.073.217.115a2.037,2.037,0,0,0,.2.1,1.909,1.909,0,0,0,.925.063,4.2,4.2,0,0,1,.629-.018,3.55,3.55,0,0,1,.71.157c.118.034.235.068.353.1a1.23,1.23,0,0,0,.943-.078.131.131,0,1,1,.141.219A1.193,1.193,0,0,1,142.713,256.013Z" transform="translate(0 -169.4)" fill="#5c6f99"/>
    <path id="Tracé_3365" data-name="Tracé 3365" d="M228.971,131.906c.073-.052.136-.1.188-.141.24-.193.723-.551.642-.872s-.465-.546-.705-.666a1.444,1.444,0,0,0-1.126-.118.909.909,0,0,0-.5,1.321,2.334,2.334,0,0,0,.726.713C228.42,132.238,228.736,132.068,228.971,131.906Z" transform="translate(-107.712 -77.551)" fill="#f2f1f7"/>
    <path id="Tracé_3366" data-name="Tracé 3366" d="M227.935,131.934a.522.522,0,0,1-.193-.037,2.4,2.4,0,0,1-.783-.763.943.943,0,0,1-.1-.828,1.1,1.1,0,0,1,.671-.687,1.585,1.585,0,0,1,1.227.123c.157.078.679.366.783.752s-.368.752-.645.969l-.044.037c-.052.042-.12.094-.2.146h0A1.324,1.324,0,0,1,227.935,131.934Zm.029-2.128a1.016,1.016,0,0,0-.35.06.844.844,0,0,0-.522.522.684.684,0,0,0,.076.6,2.147,2.147,0,0,0,.666.663c.131.057.363-.023.65-.222h0c.07-.05.133-.1.183-.138l.044-.034c.2-.157.609-.481.551-.7s-.355-.441-.637-.58A1.492,1.492,0,0,0,227.964,129.805Zm.606,1.734Z" transform="translate(-107.311 -77.184)" fill="#1f4076"/>
    <path id="Tracé_3367" data-name="Tracé 3367" d="M217.505,130.641a.345.345,0,0,1,.047-.478l1.366-1.277a1.711,1.711,0,0,0-.146-2.382,1.689,1.689,0,0,0-2.35-.321l-1.366,1.288a.323.323,0,1,1-.428-.478l1.366-1.277a2.344,2.344,0,0,1,3.306.3,2.379,2.379,0,0,1,.052,3.338l-1.366,1.277a.339.339,0,0,1-.481.016Z" transform="translate(-98.223 -73.943)" fill="#1f4076"/>
    <path id="Tracé_3368" data-name="Tracé 3368" d="M217.39,130.5h-.018a.42.42,0,0,1-.3-.133.475.475,0,0,1,.055-.661l1.366-1.277a1.586,1.586,0,0,0-.154-2.2,1.873,1.873,0,0,0-1.28-.624,1.212,1.212,0,0,0-.888.311l-1.355,1.274a.522.522,0,0,1-.363.141.428.428,0,0,1-.3-.133.473.473,0,0,1,.055-.663l1.366-1.274a2.212,2.212,0,0,1,1.614-.588,2.734,2.734,0,0,1,1.878.888,2.51,2.51,0,0,1,.044,3.52l-1.366,1.277A.522.522,0,0,1,217.39,130.5Zm-.381-5.158h.06a2.136,2.136,0,0,1,1.463.71,1.842,1.842,0,0,1,.141,2.567l-1.366,1.277a.212.212,0,0,0-.039.292h0a.175.175,0,0,0,.115.052.261.261,0,0,0,.178-.071l1.366-1.277a2.252,2.252,0,0,0-.057-3.157,2.465,2.465,0,0,0-1.7-.8,1.946,1.946,0,0,0-1.429.522l-1.363,1.277a.212.212,0,0,0-.042.3.159.159,0,0,0,.115.05.243.243,0,0,0,.178-.071L216,125.733a1.465,1.465,0,0,1,1.013-.392Z" transform="translate(-97.886 -73.579)" fill="#1f4076"/>
    <path id="Tracé_3369" data-name="Tracé 3369" d="M190.931,123.85s.635-4.372-.966-4.792-3.291,2.089-3.419,3.795a13.272,13.272,0,0,0,.695,4.058l.71-.663a6.472,6.472,0,0,1-.752-3.382c.17-1.914,2.074-3.656,2.656-2.873.447.588.358,4.539.358,4.539Z" transform="translate(-77.559 -69.398)" fill="#1f4076"/>
    <path id="Tracé_3370" data-name="Tracé 3370" d="M186.87,126.716h-.031a.128.128,0,0,1-.091-.084,13.193,13.193,0,0,1-.7-4.108A5.32,5.32,0,0,1,188.022,119a1.914,1.914,0,0,1,1.606-.389c1.692.444,1.086,4.753,1.06,4.936a.133.133,0,0,1-.039.076l-.708.666a.131.131,0,0,1-.219-.1c.037-1.567-.023-4.053-.329-4.458a.4.4,0,0,0-.467-.107,3.672,3.672,0,0,0-1.959,2.922,6.38,6.38,0,0,0,.739,3.306.131.131,0,0,1-.026.159l-.71.663A.125.125,0,0,1,186.87,126.716Zm2.369-7.9a1.849,1.849,0,0,0-1.066.389,5.111,5.111,0,0,0-1.867,3.33,12.344,12.344,0,0,0,.627,3.813l.486-.457a6.487,6.487,0,0,1-.721-3.366,3.915,3.915,0,0,1,2.147-3.15.648.648,0,0,1,.744.2c.4.522.4,3.325.389,4.312l.46-.428c.17-1.217.329-4.288-.875-4.6A1.224,1.224,0,0,0,189.239,118.819Zm1.321,4.7Z" transform="translate(-77.188 -69.073)" fill="#1f4076"/>
    <path id="Tracé_3371" data-name="Tracé 3371" d="M200.452,142.219c-.34.59-.705,1.045-1.115,1.136a.658.658,0,0,1-.428-.057h0a1.062,1.062,0,0,1-.507-1.133l-4.372-.972-.763.7c-.679.637-2.554-.277-4.179-2.042s-2.4-3.714-1.724-4.348l4.549-4.252,5.913,6.391-1.53,1.426,2.627,1.94a1.535,1.535,0,0,1,1.5-.608.847.847,0,0,1,.136.05.58.58,0,0,1,.308.319A2.023,2.023,0,0,1,200.452,142.219Z" transform="translate(-77.992 -78.441)" fill="#f2f1f7"/>
    <path id="Tracé_3372" data-name="Tracé 3372" d="M198.821,143.12a.844.844,0,0,1-.358-.084,1.162,1.162,0,0,1-.6-1.154l-4.194-.93-.705.656a.984.984,0,0,1-.736.235,6.407,6.407,0,0,1-3.633-2.285c-1.708-1.846-2.463-3.836-1.718-4.534l4.549-4.252a.112.112,0,0,1,.094-.034.125.125,0,0,1,.091.042l5.91,6.391a.131.131,0,0,1,0,.185l-1.415,1.306,2.408,1.776a1.609,1.609,0,0,1,1.551-.559.81.81,0,0,1,.157.06.7.7,0,0,1,.373.387c.133.347,0,.846-.415,1.567h0c-.434.75-.8,1.12-1.2,1.2A.753.753,0,0,1,198.821,143.12Zm-5.187-2.442h.029l4.372.972a.131.131,0,0,1,.1.141.932.932,0,0,0,.431,1,.546.546,0,0,0,.355.052c.316-.06.642-.4,1.029-1.073h0c.371-.64.5-1.079.4-1.342a.447.447,0,0,0-.245-.261.6.6,0,0,0-.115-.042,1.425,1.425,0,0,0-1.363.567.128.128,0,0,1-.175.021l-2.627-1.938a.128.128,0,0,1-.013-.2l1.434-1.337-5.746-6.2-4.44,4.16c-.616.577.175,2.486,1.729,4.179a6.282,6.282,0,0,0,3.453,2.2.742.742,0,0,0,.548-.167l.755-.7a.128.128,0,0,1,.089-.034Z" transform="translate(-77.604 -78.062)" fill="#1f4076"/>
    <path id="Tracé_3373" data-name="Tracé 3373" d="M210.7,137.515c-.679.637-2.554-.279-4.179-2.045s-2.4-3.711-1.724-4.348c0,0,3.265-.381,4.9,1.384S210.7,137.515,210.7,137.515Z" transform="translate(-90.87 -78.321)" fill="#f2f1f7"/>
    <path id="Tracé_3374" data-name="Tracé 3374" d="M209.719,137.5h-.057c-.956-.034-2.382-.932-3.635-2.288-1.705-1.844-2.46-3.836-1.716-4.531a.136.136,0,0,1,.073-.034c.136-.016,3.348-.371,5.006,1.423s1.073,4.988,1.045,5.121a.133.133,0,0,1-.039.073A.961.961,0,0,1,209.719,137.5Zm-5.26-6.607c-.561.611.232,2.484,1.76,4.134a6.265,6.265,0,0,0,3.453,2.2.783.783,0,0,0,.522-.138c.065-.389.478-3.267-.99-4.852S204.854,130.862,204.459,130.9Zm5.85,6.268Z" transform="translate(-90.481 -77.97)" fill="#1f4076"/>
    <path id="Tracé_3375" data-name="Tracé 3375" d="M235.122,169.225a2.008,2.008,0,0,1-1.23,1.024,2.948,2.948,0,0,1,.447-1.567c.514-.945,1.076-1.032,1.076-1.032A2.08,2.08,0,0,1,235.122,169.225Z" transform="translate(-112.547 -105.335)" fill="#1f4076"/>
    <path id="Tracé_3376" data-name="Tracé 3376" d="M233.53,170.036a.136.136,0,0,1-.076-.023.133.133,0,0,1-.052-.091,3.052,3.052,0,0,1,.46-1.637c.528-.961,1.146-1.094,1.173-1.1a.133.133,0,0,1,.141.081,2.2,2.2,0,0,1-.3,1.679,2.16,2.16,0,0,1-1.306,1.086Zm1.434-2.554a2,2,0,0,0-.875.927,3.275,3.275,0,0,0-.428,1.34,2.05,2.05,0,0,0,.987-.919h0A2.11,2.11,0,0,0,234.964,167.482Z" transform="translate(-112.185 -104.991)" fill="#1f4076"/>
    <path id="Tracé_3377" data-name="Tracé 3377" d="M179.343,97.31s5.86,3.873,6.171,4.824a2.621,2.621,0,0,1-.627,2.559,1.544,1.544,0,0,1-1.776-.627,2.839,2.839,0,0,1-.17-1.264s-3.9-.661-4.829-.783S179.343,97.31,179.343,97.31Z" transform="translate(-71.165 -53.365)" fill="#f2f1f7"/>
    <path id="Tracé_3378" data-name="Tracé 3378" d="M184.152,104.588a1.716,1.716,0,0,1-.5-.081,1.567,1.567,0,0,1-.966-.721,2.805,2.805,0,0,1-.191-1.209c-.655-.112-3.881-.656-4.7-.76a.339.339,0,0,1-.261-.185c-.428-.783,1.209-4.312,1.4-4.7a.133.133,0,0,1,.084-.071.141.141,0,0,1,.107.018c.6.4,5.91,3.917,6.223,4.892a2.761,2.761,0,0,1-.682,2.713A.964.964,0,0,1,184.152,104.588Zm-5.069-7.433c-.684,1.481-1.606,3.857-1.342,4.34a.089.089,0,0,0,.076.052c.922.118,4.795.783,4.834.783a.136.136,0,0,1,.11.144,2.719,2.719,0,0,0,.157,1.2,1.355,1.355,0,0,0,.807.582,1.045,1.045,0,0,0,.783,0,2.538,2.538,0,0,0,.567-2.408C184.862,101.185,181.423,98.722,179.083,97.155Z" transform="translate(-70.853 -53.029)" fill="#1f4076"/>
    <path id="Tracé_3379" data-name="Tracé 3379" d="M147.225,258.316s-.783,2.9,0,3.215,8.835-.867,7.574-1.964a9.8,9.8,0,0,0-5.349-1.755C148.685,258.021,147.225,258.316,147.225,258.316Z" transform="translate(-48.259 -171.927)" fill="#1f4076"/>
    <path id="Tracé_3380" data-name="Tracé 3380" d="M147.392,261.346a1.89,1.89,0,0,1-.588-.06c-.841-.339-.212-2.873-.076-3.369a.123.123,0,0,1,.1-.094c.016,0,1.476-.3,2.228-.5.844-.23,4.215.684,5.469,1.784a.394.394,0,0,1,.112.543C154.112,260.51,149.2,261.346,147.392,261.346Zm-.434-3.285c-.3,1.157-.507,2.8-.057,2.982.7.282,6.986-.674,7.514-1.533.031-.05.055-.112-.063-.212a9.68,9.68,0,0,0-5.223-1.729C148.466,257.75,147.278,257.993,146.959,258.061Z" transform="translate(-47.888 -171.56)" fill="#1f4076"/>
    <path id="Tracé_3381" data-name="Tracé 3381" d="M106.325,258s-1.389,2.572-.867,2.92,8.446-.418,7.994-.94-3.233-1.355-4.2-1.528S106.325,258,106.325,258Z" transform="translate(-17.57 -172.089)" fill="#1f4076"/>
    <path id="Tracé_3382" data-name="Tracé 3382" d="M106.117,260.733a2.653,2.653,0,0,1-1.032-.118c-.12-.081-.522-.606.828-3.089a.136.136,0,0,1,.131-.068c.021,0,1.961.282,2.925.454.888.157,3.779.992,4.283,1.567a.191.191,0,0,1,0,.261C112.882,260.174,108.256,260.733,106.117,260.733Zm-.018-3c-.624,1.173-1.115,2.5-.87,2.669.522.324,7.124-.36,7.783-.784a14.1,14.1,0,0,0-4.087-1.442c-.838-.149-2.431-.379-2.826-.436Z" transform="translate(-17.271 -171.688)" fill="#1f4076"/>
    <path id="Tracé_3383" data-name="Tracé 3383" d="M110.358,249.87c-.07.1-1.288,2.121-1.288,2.121s.6,1.606,2.99,1.045l1.635-2.364Z" transform="translate(-20.325 -166.082)" fill="#f2f1f7"/>
    <path id="Tracé_3384" data-name="Tracé 3384" d="M110.777,252.91a2.217,2.217,0,0,1-2.165-1.248.123.123,0,0,1,0-.112c.05-.084,1.217-2.021,1.288-2.126a.131.131,0,0,1,.141-.055l3.335.8a.133.133,0,0,1,.094.081.138.138,0,0,1-.016.12l-1.635,2.35a.123.123,0,0,1-.076.055A4.39,4.39,0,0,1,110.777,252.91Zm-1.9-1.29c.128.261.783,1.366,2.763.919l1.5-2.165-3.061-.734C109.9,249.943,109.257,251,108.881,251.62Z" transform="translate(-19.977 -165.709)" fill="#1f4076"/>
    <path id="Tracé_3385" data-name="Tracé 3385" d="M148.442,247.853l-.232,2.549a3.368,3.368,0,0,0,3.2-.232l.974-3.8Z" transform="translate(-49.244 -163.496)" fill="#f2f1f7"/>
    <path id="Tracé_3386" data-name="Tracé 3386" d="M149.352,250.474a4.066,4.066,0,0,1-1.567-.326.133.133,0,0,1-.076-.131l.232-2.549a.128.128,0,0,1,.084-.11l3.938-1.483a.131.131,0,0,1,.133.024.144.144,0,0,1,.039.131l-.972,3.789a.138.138,0,0,1-.047.073A2.844,2.844,0,0,1,149.352,250.474Zm-1.374-.522a3.209,3.209,0,0,0,2.943-.227l.9-3.513-3.627,1.366Z" transform="translate(-48.873 -163.124)" fill="#1f4076"/>
    <path id="Tracé_3387" data-name="Tracé 3387" d="M116.144,152.53s1.021,12.873.65,13.52-4.625,11.752-4.625,11.752-.381,1.029,2.371,1.632a2.917,2.917,0,0,0,1.771.024s4.7-7.033,4.915-10.412,1.209-11.718,1.209-11.718Z" transform="translate(-22.602 -94.163)" fill="#1f4076"/>
    <path id="Tracé_3388" data-name="Tracé 3388" d="M115.239,179.32a5.133,5.133,0,0,1-1.094-.131c-1.306-.285-2.089-.7-2.384-1.23a.723.723,0,0,1-.084-.575c.175-.457,4.262-11.133,4.636-11.781.261-.478-.261-8.3-.666-13.447a.128.128,0,0,1,.065-.125.136.136,0,0,1,.144,0l6.289,4.808a.133.133,0,0,1,.052.12c0,.081-1.011,8.378-1.209,11.71-.2,3.374-4.745,10.185-4.939,10.478a.136.136,0,0,1-.05.044A1.872,1.872,0,0,1,115.239,179.32Zm.689-26.9c.172,2.22.969,12.677.608,13.319s-4.573,11.632-4.615,11.752a.481.481,0,0,0,.073.371c.18.316.708.76,2.2,1.086a3.163,3.163,0,0,0,1.656.047c.347-.522,4.68-7.127,4.871-10.313s1.1-10.82,1.2-11.656Z" transform="translate(-22.232 -93.78)" fill="#1f4076"/>
    <path id="Tracé_3389" data-name="Tracé 3389" d="M120.91,140.826s6.529,15.442,6.712,16.435,0,12.118,0,12.118,3.058.836,5.1-.462c0,0,2.371-12.329,1.974-14.648s-3.549-14.917-3.549-14.917Z" transform="translate(-29.073 -84.426)" fill="#1f4076"/>
    <path id="Tracé_3390" data-name="Tracé 3390" d="M129.467,169.467a9.055,9.055,0,0,1-2.212-.261.131.131,0,0,1-.1-.128c0-.11.183-11.12,0-12.092s-6.639-16.252-6.7-16.406a.136.136,0,0,1,0-.115.128.128,0,0,1,.094-.065l10.237-1.476a.125.125,0,0,1,.144.1c.031.125,3.157,12.632,3.552,14.928s-1.878,14.189-1.974,14.693a.123.123,0,0,1-.057.086A5.6,5.6,0,0,1,129.467,169.467Zm-2.061-.491c.522.125,3.087.645,4.852-.441.17-.9,2.335-12.355,1.961-14.544s-3.2-13.528-3.518-14.795l-9.953,1.434c.721,1.713,6.477,15.354,6.654,16.307S127.427,167.77,127.406,168.976Z" transform="translate(-28.727 -84.11)" fill="#1f4076"/>
    <path id="Tracé_3391" data-name="Tracé 3391" d="M170.39,124.941s1.16,3.2,2.089,3.523,13.468-2.612,13.468-2.612,1.337-.7,1.6-.4c.334.384,1.483-1.716.225-2.674-1.107-.846-1.512-.191-2.51.146-.854.287-10.23.457-10.23.457Z" transform="translate(-65.631 -71.874)" fill="#f2f1f7"/>
    <path id="Tracé_3392" data-name="Tracé 3392" d="M172.345,128.257a.945.945,0,0,1-.261-.026c-.956-.337-2.042-3.27-2.165-3.6a.133.133,0,0,1,.081-.17l4.636-1.567h.039c3.236-.057,9.53-.227,10.185-.449a5.018,5.018,0,0,0,.637-.277,1.566,1.566,0,0,1,2,.149,1.721,1.721,0,0,1,.58,1.773c-.115.572-.434,1.1-.713,1.173a.261.261,0,0,1-.261-.081c-.1-.118-.783.091-1.439.434h-.029C184.408,125.894,174.3,128.257,172.345,128.257Zm-2.149-3.594c.358.951,1.28,3.082,1.959,3.319s8.357-1.442,13.382-2.612c.436-.227,1.449-.7,1.739-.366h0c.055,0,.261-.191.431-.629a1.61,1.61,0,0,0-.387-1.857,1.311,1.311,0,0,0-1.721-.12,5.517,5.517,0,0,1-.669.287c-.851.287-9.642.454-10.248.465Z" transform="translate(-65.277 -71.515)" fill="#1f4076"/>
    <path id="Tracé_3393" data-name="Tracé 3393" d="M162.71,42.284a1.415,1.415,0,0,1-.619-.413.8.8,0,0,1-.081-.755.34.34,0,0,1-.441-.227.783.783,0,0,1,.068-.546,2.426,2.426,0,0,1,.415-.671c-.151-.065-.381.091-.473-.047a.225.225,0,0,1,0-.17,2.674,2.674,0,0,1,.58-.964c.679-.859,1.444-2.685,2.766-2.612.261,0,.509.1.768.1a3.945,3.945,0,0,0,1.358-.522,2.225,2.225,0,0,1,2.175.34,11.573,11.573,0,0,1,1.442,1.285,3.656,3.656,0,0,1,.783,1.306,1.807,1.807,0,0,1-.144,1.489.261.261,0,0,1-.3.146,1.369,1.369,0,0,1-.3-.3,1.238,1.238,0,0,1-.337,1.288c-.486.439-.951.261-1.5.146-1-.2-1.622.436-2.489.833a4.8,4.8,0,0,1-3.105.473A4.635,4.635,0,0,1,162.71,42.284Z" transform="translate(-59.098 -7.561)" fill="#f2f1f7"/>
    <path id="Tracé_3394" data-name="Tracé 3394" d="M163.717,42.385a3.175,3.175,0,0,1-.841-.107,5.141,5.141,0,0,1-.585-.191h0a1.52,1.52,0,0,1-.676-.46.945.945,0,0,1-.151-.679.421.421,0,0,1-.094-.026.522.522,0,0,1-.292-.311.911.911,0,0,1,.068-.64,2.7,2.7,0,0,1,.261-.473.285.285,0,0,1-.306-.115.329.329,0,0,1-.029-.261,2.442,2.442,0,0,1,.543-.935l.06-.078c.154-.193.316-.444.486-.708.58-.9,1.306-2.014,2.39-1.959a3.2,3.2,0,0,1,.363.052,1.791,1.791,0,0,0,.394.05,2,2,0,0,0,.864-.3,4.441,4.441,0,0,1,.449-.214,2.35,2.35,0,0,1,2.306.36l.206.167a9.736,9.736,0,0,1,1.248,1.133,3.737,3.737,0,0,1,.838,1.35,1.935,1.935,0,0,1-.159,1.6.373.373,0,0,1-.447.2.327.327,0,0,1-.073-.044,1.313,1.313,0,0,1-1.841,1.227l-.209-.044a2.388,2.388,0,0,0-1.755.475c-.206.118-.423.24-.656.35A5.9,5.9,0,0,1,163.717,42.385Zm-1.327-.541a4.439,4.439,0,0,0,.554.183,4.736,4.736,0,0,0,3.016-.465c.225-.1.434-.225.637-.34a2.623,2.623,0,0,1,1.933-.5l.214.044a1.139,1.139,0,0,0,1.173-.162,1.113,1.113,0,0,0,.3-1.146h0a.126.126,0,0,1,0-.039.133.133,0,0,1,.261-.05,1.805,1.805,0,0,0,.24.232h0c.013,0,.06,0,.123-.1a1.671,1.671,0,0,0,.128-1.379,3.468,3.468,0,0,0-.77-1.259,9.579,9.579,0,0,0-1.217-1.1l-.206-.17a2.115,2.115,0,0,0-2.045-.319,3.963,3.963,0,0,0-.426.2,2.246,2.246,0,0,1-.982.326,2.045,2.045,0,0,1-.444-.055,2.558,2.558,0,0,0-.329-.047c-.945-.052-1.588.953-2.157,1.828-.175.261-.34.522-.5.729l-.063.078a2.28,2.28,0,0,0-.494.833c-.013.055,0,.071,0,.071a.582.582,0,0,0,.115-.013.507.507,0,0,1,.3,0,.128.128,0,0,1,.076.091.133.133,0,0,1-.029.115,2.27,2.27,0,0,0-.394.627.658.658,0,0,0-.065.454.261.261,0,0,0,.146.151.133.133,0,0,0,.115,0,.128.128,0,0,1,.178.167.669.669,0,0,0,.068.627,1.288,1.288,0,0,0,.562.368Z" transform="translate(-58.728 -7.238)" fill="#1f4076"/>
    <path id="Tracé_3395" data-name="Tracé 3395" d="M187.151,59.66s.261,1.859-.065,2.061-.885-.3-.885-.3" transform="translate(-77.312 -25.547)" fill="#f2f1f7"/>
    <path id="Tracé_3396" data-name="Tracé 3396" d="M186.535,61.535a1.418,1.418,0,0,1-.783-.379.131.131,0,1,1,.175-.193c.123.112.522.4.729.282a4.059,4.059,0,0,0,0-1.933.131.131,0,0,1,.112-.146.128.128,0,0,1,.146.11c.086.585.24,1.969-.125,2.191A.459.459,0,0,1,186.535,61.535Z" transform="translate(-76.945 -25.181)" fill="#1f4076"/>
    <path id="Tracé_3397" data-name="Tracé 3397" d="M170.925,47.882c.366.768-.293,1.716-.614,2.382q-.679,1.408-1.421,2.781c-.313.58-1.862-.136-2.053-.444l-.783,2.04a1.171,1.171,0,0,1-1.849-.245,3.142,3.142,0,0,1-.891-2.089l1.389-2.674a2.145,2.145,0,0,0,2.194-.439,8.949,8.949,0,0,0,2.034-2.813S170.567,47.132,170.925,47.882Z" transform="translate(-60.403 -15.736)" fill="#f2f1f7"/>
    <path id="Tracé_3398" data-name="Tracé 3398" d="M164.864,54.716h-.039a1.533,1.533,0,0,1-1.107-.637,3.253,3.253,0,0,1-.917-2.2.1.1,0,0,1,.013-.047l1.387-2.674a.136.136,0,0,1,.172-.057,2.006,2.006,0,0,0,2.058-.426,8.83,8.83,0,0,0,2-2.76.117.117,0,0,1,.073-.068.12.12,0,0,1,.1,0c.07.031,1.687.783,2.061,1.567.334.7-.091,1.5-.431,2.139-.065.125-.128.245-.183.358-.452.935-.93,1.873-1.421,2.787a.606.606,0,0,1-.562.287,2.917,2.917,0,0,1-1.567-.559l-.718,1.852a.125.125,0,0,1-.026.044,1.35,1.35,0,0,1-.891.392Zm-1.8-2.787a3.19,3.19,0,0,0,.859,1.982,1.285,1.285,0,0,0,.914.543,1.084,1.084,0,0,0,.726-.287l.783-2.014a.131.131,0,0,1,.232-.021,2.554,2.554,0,0,0,1.46.6h.029a.348.348,0,0,0,.337-.151c.491-.909.969-1.844,1.418-2.776.055-.112.12-.235.188-.363.313-.59.7-1.327.426-1.906h0a4.7,4.7,0,0,0-1.828-1.392,8.69,8.69,0,0,1-2.016,2.74,2.28,2.28,0,0,1-2.212.5Z" transform="translate(-60.022 -15.336)" fill="#1f4076"/>
    <path id="Tracé_3399" data-name="Tracé 3399" d="M183.1,66.813a.846.846,0,0,1-.974-.833" transform="translate(-74.305 -30.217)" fill="#f2f1f7"/>
    <path id="Tracé_3400" data-name="Tracé 3400" d="M182.651,66.576a1.11,1.11,0,0,1-.713-.238.958.958,0,0,1-.308-.723.131.131,0,0,1,.125-.136.125.125,0,0,1,.136.125.7.7,0,0,0,.217.535.9.9,0,0,0,.611.172.131.131,0,0,1,.029.261Z" transform="translate(-73.935 -29.846)" fill="#1f4076"/>
    <path id="Tracé_3401" data-name="Tracé 3401" d="M177.213,53.718a1.424,1.424,0,0,0,.042-.783,2.073,2.073,0,0,0-.141-.59.679.679,0,0,0-.434-.379.632.632,0,0,0-.507.118,1.2,1.2,0,0,0-.339.41,2.238,2.238,0,0,0,.086,2.23l-.023-.081" transform="translate(-69.464 -19.854)" fill="#f2f1f7"/>
    <path id="Tracé_3402" data-name="Tracé 3402" d="M175.566,54.452a.133.133,0,0,1-.11-.06,2.379,2.379,0,0,1-.091-2.35,1.342,1.342,0,0,1,.379-.478.763.763,0,0,1,.614-.138.8.8,0,0,1,.522.465,2.162,2.162,0,0,1,.149.627,1.509,1.509,0,0,1-.052.841.128.128,0,0,1-.172.065.131.131,0,0,1-.065-.172,1.327,1.327,0,0,0,.031-.7,1.865,1.865,0,0,0-.128-.551.556.556,0,0,0-.347-.321.5.5,0,0,0-.4.1,1.1,1.1,0,0,0-.3.379,2.115,2.115,0,0,0,0,1.972.128.128,0,0,1,.063.078l.026.078a.133.133,0,0,1-.068.159.141.141,0,0,1-.05.01Z" transform="translate(-69.11 -19.452)" fill="#1f4076"/>
    <path id="Tracé_3403" data-name="Tracé 3403" d="M174.031,66.38a2.788,2.788,0,0,1-.8-1.35,2.324,2.324,0,0,0,.41,2.452Z" transform="translate(-67.596 -29.515)" fill="#1f4076"/>
    <path id="Tracé_3404" data-name="Tracé 3404" d="M173.286,67.2a.131.131,0,0,1-.091-.037,2.5,2.5,0,0,1-.439-2.612.131.131,0,0,1,.138-.078.133.133,0,0,1,.112.11,2.65,2.65,0,0,0,.755,1.274A.136.136,0,0,1,173.8,66l-.389,1.1a.133.133,0,0,1-.094.084Zm-.41-2.128a2.032,2.032,0,0,0,.358,1.75l.29-.817a3.219,3.219,0,0,1-.648-.932Z" transform="translate(-67.237 -29.105)" fill="#1f4076"/>
    <ellipse id="Ellipse_354" data-name="Ellipse 354" cx="0.37" cy="0.146" rx="0.37" ry="0.146" transform="matrix(0.571, -0.821, 0.821, 0.571, 109.178, 33.416)" fill="#1f4076"/>
    <path id="Tracé_3405" data-name="Tracé 3405" d="M136.583,68.061c-.87-1.353-4.179-4.677-7.023-4.027s-9.417,12.536-8.775,21.089c0,0,8.511.9,11.112.347,0,0,2.578-10.29,3.805-12.235C135.7,73.235,137.453,69.414,136.583,68.061Z" transform="translate(-28.949 -28.718)" fill="#fce15c"/>
    <path id="Tracé_3406" data-name="Tracé 3406" d="M163.651,83.53a83.44,83.44,0,0,0,2.332,10.775l-5.633,2.928s-2.711-2.99-3.267-5.484S163.651,83.53,163.651,83.53Z" transform="translate(-55.776 -43.184)" fill="#fce15c"/>
    <path id="Tracé_3407" data-name="Tracé 3407" d="M134.607,180.628a.123.123,0,0,1-.042,0,.131.131,0,0,1-.081-.165,3.51,3.51,0,0,0-.078-1.974c-.363-1.16-4.092-10.185-4.129-10.282a.131.131,0,1,1,.24-.1c.154.373,3.771,9.141,4.139,10.3a3.711,3.711,0,0,1,.076,2.134.133.133,0,0,1-.125.084Z" transform="translate(-35.983 -105.605)" fill="#fff"/>
    <path id="Tracé_3408" data-name="Tracé 3408" d="M157.5,110.868s-2.669-5.257-3.789-8.268" transform="translate(-53.307 -57.273)" fill="#231f20"/>
    <path id="Tracé_3409" data-name="Tracé 3409" d="M157.126,110.62a.128.128,0,0,1-.115-.071c-.029-.052-2.7-5.3-3.8-8.284a.131.131,0,1,1,.245-.089c1.1,2.969,3.755,8.2,3.782,8.255a.128.128,0,0,1-.057.175A.154.154,0,0,1,157.126,110.62Z" transform="translate(-52.934 -56.894)" fill="#5c6f99"/>
    <path id="Tracé_3410" data-name="Tracé 3410" d="M170.822,29.918,162.5,31.344a4.119,4.119,0,0,1-.057-.891,4.226,4.226,0,0,1,8.143-1.395,4.439,4.439,0,0,1,.24.859Z" transform="translate(-59.753 -0.979)" fill="#fce15c"/>
    <path id="Tracé_3411" data-name="Tracé 3411" d="M162.011,30.5a.128.128,0,0,1-.128-.11,4.354,4.354,0,1,1,8.571-1.468.141.141,0,0,1-.021.1.131.131,0,0,1-.086.052l-8.315,1.426Zm4.155-4.936a4.024,4.024,0,0,0-.682.057,4.1,4.1,0,0,0-3.366,4.6l8.075-1.382a4.193,4.193,0,0,0-.209-.7A4.113,4.113,0,0,0,166.166,25.56Z" transform="translate(-59.268 0)" fill="#5c6f99"/>
    <path id="Tracé_3412" data-name="Tracé 3412" d="M154.566,41.251c-.076-.444,2.7-1.29,6.2-1.888s6.4-.726,6.479-.282-2.8.705-6.3,1.306S154.641,41.7,154.566,41.251Z" transform="translate(-53.938 -10.147)" fill="#fce15c"/>
    <path id="Tracé_3413" data-name="Tracé 3413" d="M154.625,41.152a.817.817,0,0,1-.449-.089.238.238,0,0,1-.1-.159h0c-.159-.919,6.244-2.027,6.31-2.04s6.472-1.1,6.628-.175a.238.238,0,0,1-.044.185c-.222.308-1.342.491-3.656.841-.817.125-1.745.261-2.713.431s-1.891.342-2.7.5A23.552,23.552,0,0,1,154.625,41.152Zm-.293-.306a13.635,13.635,0,0,0,3.515-.467c.815-.154,1.737-.332,2.708-.5s1.9-.308,2.719-.434a13.7,13.7,0,0,0,3.479-.739c-.159-.238-2.5-.261-6.328.4C156.662,39.768,154.453,40.549,154.333,40.847Z" transform="translate(-53.572 -9.779)" fill="#5c6f99"/>
    <path id="Tracé_3414" data-name="Tracé 3414" d="M170.822,37.419,162.5,38.845a4.119,4.119,0,0,1-.057-.891l8.143-1.395a4.439,4.439,0,0,1,.24.859Z" transform="translate(-59.753 -8.48)" fill="#5c6f99"/>
    <path id="Tracé_3415" data-name="Tracé 3415" d="M162.128,38.608A.128.128,0,0,1,162,38.5a4.342,4.342,0,0,1-.06-.917.131.131,0,0,1,.107-.123l8.143-1.395a.131.131,0,0,1,.144.081,4.31,4.31,0,0,1,.248.885.141.141,0,0,1-.021.1.131.131,0,0,1-.086.052l-8.326,1.426Zm.068-.909a4.227,4.227,0,0,0,.039.627l8.075-1.382a4.2,4.2,0,0,0-.17-.6Z" transform="translate(-59.385 -8.113)" fill="#5c6f99"/>
    <path id="Tracé_3416" data-name="Tracé 3416" d="M241.381,172.937a.1.1,0,0,1-.047,0l-.24-.091a.128.128,0,0,1-.078-.167.133.133,0,0,1,.167-.078l.246.094a.133.133,0,0,1-.047.261Z" transform="translate(-117.806 -108.987)" fill="#5c6f99"/>
    <path id="Tracé_3417" data-name="Tracé 3417" d="M249.367,176.922a.133.133,0,0,1-.081-.029c-.144-.112-.29-.225-.439-.332a.133.133,0,0,1-.029-.183.131.131,0,0,1,.183-.029q.227.165.447.337a.132.132,0,0,1-.081.235Zm-.9-.656a.125.125,0,0,1-.073-.021c-.151-.1-.306-.2-.462-.3a.13.13,0,1,1,.141-.219c.157.1.313.2.467.306a.128.128,0,0,1,.034.18A.123.123,0,0,1,248.469,176.266Zm-.938-.593a.125.125,0,0,1-.068-.018l-.475-.261a.132.132,0,1,1,.128-.23l.483.279a.133.133,0,0,1,.044.18A.128.128,0,0,1,247.531,175.673Zm-.966-.543a.139.139,0,0,1-.063-.016c-.164-.089-.329-.172-.488-.261a.131.131,0,1,1,.118-.232c.162.081.326.167.494.261a.131.131,0,0,1,.055.178.133.133,0,0,1-.12.071Zm-.99-.5a.141.141,0,0,1-.057-.013q-.261-.125-.5-.235a.128.128,0,0,1-.063-.172.131.131,0,0,1,.172-.065l.5.238a.133.133,0,0,1-.055.261Zm-1.011-.462a.206.206,0,0,1-.052,0l-.507-.217a.128.128,0,0,1-.057-.183.131.131,0,0,1,.17-.073l.522.219a.133.133,0,0,1-.076.253Z" transform="translate(-119.965 -109.793)" fill="#5c6f99"/>
    <path id="Tracé_3418" data-name="Tracé 3418" d="M266.213,186.883a.133.133,0,0,1-.089-.037l-.191-.17a.133.133,0,0,1-.013-.185.128.128,0,0,1,.183,0l.2.178a.131.131,0,0,1-.089.227Z" transform="translate(-136.19 -119.227)" fill="#5c6f99"/>
    <path id="Tracé_3419" data-name="Tracé 3419" d="M242.565,182.344a.138.138,0,0,1-.128-.094c-.047-.165-.1-.329-.157-.491a.13.13,0,1,1,.245-.086c.06.165.115.334.165.5a.133.133,0,0,1-.091.162Zm-.355-.985a.133.133,0,0,1-.12-.078c-.068-.157-.138-.313-.217-.467a.131.131,0,0,1,.235-.115c.078.157.154.319.222.481a.131.131,0,0,1-.068.17A.117.117,0,0,1,242.21,181.359Zm-.473-.935a.131.131,0,0,1-.115-.065c-.084-.151-.172-.3-.261-.447a.128.128,0,0,1,.044-.178.125.125,0,0,1,.178.042c.094.149.183.3.261.454a.131.131,0,0,1-.05.178.138.138,0,0,1-.057.016Zm-.551-.888a.133.133,0,0,1-.11-.055q-.146-.217-.3-.423a.131.131,0,1,1,.209-.154c.1.138.206.282.306.428a.131.131,0,0,1-.034.183.125.125,0,0,1-.063.021Zm-.622-.841a.125.125,0,0,1-.1-.05q-.165-.2-.329-.4a.128.128,0,0,1,0-.183.131.131,0,0,1,.185.013c.112.133.225.261.334.407a.133.133,0,0,1-.021.185.131.131,0,0,1-.057.026Zm-.656-.8a.128.128,0,0,1-.1-.042c-.118-.133-.238-.261-.355-.381a.131.131,0,0,1,.191-.18c.118.123.238.261.358.387a.128.128,0,0,1,0,.183A.131.131,0,0,1,239.909,177.9Zm-.723-.755a.128.128,0,0,1-.091-.039l-.373-.36a.125.125,0,0,1,0-.183.131.131,0,0,1,.185,0c.123.118.261.238.379.366a.131.131,0,0,1-.091.225Zm-.773-.723a.12.12,0,0,1-.086-.034c-.141-.123-.261-.238-.394-.339a.133.133,0,0,1-.016-.185.136.136,0,0,1,.185-.016c.123.1.261.219.4.345a.131.131,0,0,1-.086.23Zm-.8-.674a.138.138,0,0,1-.081-.029c-.261-.2-.41-.313-.41-.316a.131.131,0,1,1,.149-.212s.159.112.423.321a.133.133,0,0,1,.023.185.138.138,0,0,1-.1.057Z" transform="translate(-114.881 -110.88)" fill="#5c6f99"/>
    <path id="Tracé_3420" data-name="Tracé 3420" d="M237.107,185.86a.133.133,0,0,1-.131-.112c-.021-.159-.052-.329-.091-.507a.133.133,0,1,1,.261-.055c.042.183.073.358.1.522a.131.131,0,0,1-.11.149Zm-.222-1.021a.131.131,0,0,1-.125-.1c-.047-.162-.1-.326-.154-.494a.133.133,0,0,1,.084-.165.131.131,0,0,1,.164.081c.057.17.11.339.157.507a.133.133,0,0,1-.091.162Zm-.329-1a.133.133,0,0,1-.123-.084c-.06-.162-.123-.321-.188-.483a.128.128,0,0,1,.07-.17.131.131,0,0,1,.17.071c.068.165.131.326.193.491a.131.131,0,0,1-.078.167A.123.123,0,0,1,236.556,183.844Zm-.4-.966a.128.128,0,0,1-.118-.078c-.07-.159-.144-.319-.217-.473a.131.131,0,0,1,.063-.175.133.133,0,0,1,.175.063c.073.159.146.319.217.481a.133.133,0,0,1-.065.172.2.2,0,0,1-.055.01Zm-.444-.948a.125.125,0,0,1-.115-.073l-.238-.465a.131.131,0,0,1,.057-.175.133.133,0,0,1,.175.055c.078.154.159.308.238.47a.131.131,0,0,1-.057.175A.167.167,0,0,1,235.715,181.93Zm-.481-.93a.128.128,0,0,1-.115-.068q-.128-.24-.261-.454a.131.131,0,0,1,.227-.128c.081.144.167.3.261.46a.128.128,0,0,1-.052.175A.138.138,0,0,1,235.235,181Zm-.522-.911a.133.133,0,0,1-.115-.065c-.1-.172-.191-.321-.261-.447a.131.131,0,0,1,.225-.136c.076.125.167.277.261.452a.128.128,0,0,1-.047.178.122.122,0,0,1-.052.018Z" transform="translate(-112.863 -113.999)" fill="#5c6f99"/>
    <path id="Tracé_3421" data-name="Tracé 3421" d="M260.228,226.8a.117.117,0,0,1-.12-.115c-.094-2.63.1-7.592,2.434-11.269a.117.117,0,0,1,.165-.037.12.12,0,0,1,.037.165c-2.3,3.622-2.489,8.529-2.395,11.133a.123.123,0,0,1-.117.123Z" transform="translate(-131.905 -140.582)" fill="#5c6f99"/>
    <path id="Tracé_3422" data-name="Tracé 3422" d="M248.606,229.922a.12.12,0,0,1-.115-.086,8.14,8.14,0,0,0-4.043-5.017.12.12,0,0,1,.1-.219,8.415,8.415,0,0,1,4.179,5.168.12.12,0,0,1-.081.149Z" transform="translate(-120.301 -147.406)" fill="#5c6f99"/>
    <path id="Tracé_3423" data-name="Tracé 3423" d="M246.166,235.92a2.741,2.741,0,0,0-3.656,1.9C242.5,237.816,244.49,238.62,246.166,235.92Z" transform="translate(-118.916 -155.653)" fill="#f2f1f7"/>
    <path id="Tracé_3424" data-name="Tracé 3424" d="M242.869,237.709a2.209,2.209,0,0,1-.755-.12.12.12,0,0,1-.068-.144,2.849,2.849,0,0,1,1.384-1.854,3.371,3.371,0,0,1,2.429-.123.112.112,0,0,1,.073.073.117.117,0,0,1,0,.1,3.949,3.949,0,0,1-2.538,2.016A2.684,2.684,0,0,1,242.869,237.709Zm-.561-.308c.41.115,1.946.368,3.327-1.75a3.1,3.1,0,0,0-2.089.151A2.572,2.572,0,0,0,242.308,237.4Z" transform="translate(-118.571 -155.313)" fill="#5c6f99"/>
    <path id="Tracé_3425" data-name="Tracé 3425" d="M236.46,221.805a2.275,2.275,0,0,0-3.33-.75S233.958,222.623,236.46,221.805Z" transform="translate(-111.986 -144.447)" fill="#f2f1f7"/>
    <path id="Tracé_3426" data-name="Tracé 3426" d="M234.784,221.851a2.4,2.4,0,0,1-2.1-1.045.123.123,0,0,1,.039-.157,2.384,2.384,0,0,1,1.883-.439,2.836,2.836,0,0,1,1.619,1.227.117.117,0,0,1,0,.1.123.123,0,0,1-.076.073A4.474,4.474,0,0,1,234.784,221.851Zm-1.828-1.068c.217.306,1.045,1.22,2.98.648a2.528,2.528,0,0,0-1.382-.99,2.107,2.107,0,0,0-1.6.342Z" transform="translate(-111.645 -144.137)" fill="#5c6f99"/>
    <path id="Tracé_3427" data-name="Tracé 3427" d="M251.3,216.14a2.274,2.274,0,0,0-1.653,2.988S251.385,218.773,251.3,216.14Z" transform="translate(-124.083 -141.161)" fill="#f2f1f7"/>
    <path id="Tracé_3428" data-name="Tracé 3428" d="M249.3,218.872a.12.12,0,0,1-.115-.084,2.374,2.374,0,0,1,.11-1.933,2.807,2.807,0,0,1,1.63-1.207.118.118,0,0,1,.1.021.115.115,0,0,1,.047.091c.084,2.7-1.732,3.1-1.75,3.108Zm1.551-2.935a2.523,2.523,0,0,0-1.337,1.045,2.089,2.089,0,0,0-.12,1.63C249.73,218.5,250.848,217.955,250.848,215.936Z" transform="translate(-123.731 -140.796)" fill="#5c6f99"/>
    <path id="Tracé_3429" data-name="Tracé 3429" d="M262.36,234.721a2.279,2.279,0,0,0,3.27,1.008S265.16,233.767,262.36,234.721Z" transform="translate(-133.582 -154.696)" fill="#f2f1f7"/>
    <path id="Tracé_3430" data-name="Tracé 3430" d="M264.04,235.882a2.018,2.018,0,0,1-.6-.092,2.8,2.8,0,0,1-1.519-1.353.12.12,0,0,1,0-.1.115.115,0,0,1,.073-.065,3.113,3.113,0,0,1,2.541,0,1.86,1.86,0,0,1,.883,1.1.115.115,0,0,1-.057.131A2.68,2.68,0,0,1,264.04,235.882Zm-1.828-1.429a2.541,2.541,0,0,0,1.306,1.11,2.107,2.107,0,0,0,1.64-.227,1.645,1.645,0,0,0-.742-.862,2.859,2.859,0,0,0-2.222-.021Z" transform="translate(-133.249 -154.361)" fill="#5c6f99"/>
    <path id="Tracé_3431" data-name="Tracé 3431" d="M264.78,224.674a2.261,2.261,0,0,0,3.4.217C268.186,224.891,267.274,223.1,264.78,224.674Z" transform="translate(-135.37 -146.987)" fill="#f2f1f7"/>
    <path id="Tracé_3432" data-name="Tracé 3432" d="M266.268,225.394a1.141,1.141,0,0,1-.133,0,2.81,2.81,0,0,1-1.792-.956.12.12,0,0,1,.029-.178,3.154,3.154,0,0,1,2.465-.6,1.828,1.828,0,0,1,1.113.859.115.115,0,0,1-.024.141A2.434,2.434,0,0,1,266.268,225.394Zm-1.645-1.011a2.52,2.52,0,0,0,1.53.768,2.089,2.089,0,0,0,1.538-.6,1.659,1.659,0,0,0-.922-.663A2.8,2.8,0,0,0,264.622,224.383Z" transform="translate(-135.027 -146.67)" fill="#5c6f99"/>
    <path id="Tracé_3433" data-name="Tracé 3433" d="M258.588,212.85a2.116,2.116,0,0,0,1.846,2.471S261.05,213.618,258.588,212.85Z" transform="translate(-130.784 -138.73)" fill="#f2f1f7"/>
    <path id="Tracé_3434" data-name="Tracé 3434" d="M260.086,215.115h-.013a2.089,2.089,0,0,1-1.494-.76,2.7,2.7,0,0,1-.46-1.844.12.12,0,0,1,.154-.1,2.839,2.839,0,0,1,1.812,1.306,1.8,1.8,0,0,1,.112,1.306A.12.12,0,0,1,260.086,215.115Zm-1.739-2.429a2.4,2.4,0,0,0,.42,1.52,1.849,1.849,0,0,0,1.23.658,1.59,1.59,0,0,0-.125-1.045,2.5,2.5,0,0,0-1.536-1.133Z" transform="translate(-130.436 -138.405)" fill="#5c6f99"/>
    <path id="Tracé_3435" data-name="Tracé 3435" d="M271.333,205.35a2.276,2.276,0,0,0-1.93,2.818C269.39,208.168,271.4,208.3,271.333,205.35Z" transform="translate(-138.732 -133.189)" fill="#f2f1f7"/>
    <path id="Tracé_3436" data-name="Tracé 3436" d="M269.035,207.96h-.05a.123.123,0,0,1-.107-.1,2.382,2.382,0,0,1,.287-1.912,2.821,2.821,0,0,1,1.739-1.045.126.126,0,0,1,.094.026.128.128,0,0,1,.044.089,3.135,3.135,0,0,1-.75,2.424A1.867,1.867,0,0,1,269.035,207.96Zm1.771-2.792a2.533,2.533,0,0,0-1.444.922,2.1,2.1,0,0,0-.261,1.63,1.638,1.638,0,0,0,1.045-.454A2.853,2.853,0,0,0,270.806,205.168Z" transform="translate(-138.335 -132.861)" fill="#5c6f99"/>
    <path id="Tracé_3437" data-name="Tracé 3437" d="M240.984,254.745c-.225-1.332-1.363-1.883-2.35-2.64a2.739,2.739,0,0,0-2.515-.6c-.4.154-.713.462-1.154.491a2.456,2.456,0,0,1-.922-.217,4.037,4.037,0,0,0-2.854.151,5.26,5.26,0,0,1-1.483.635,6.82,6.82,0,0,1-1.2-.055c-1.551-.073-3.134,1.019-4.466,1.695-.24.12-1,.556-1.026.823-.042.389.922.334,1.306.4a9.088,9.088,0,0,0,2.243.11,5.955,5.955,0,0,1,1.776-.013,6.238,6.238,0,0,0,1.551.4,5.2,5.2,0,0,0,.953-.206,7.511,7.511,0,0,1,.862-.144c.783-.091,1.627-.1,2.395-.144q1.852-.1,3.711-.1A10.276,10.276,0,0,0,240.984,254.745Z" transform="translate(-104.513 -167.205)" fill="#fce15c"/>
    <path id="Tracé_3438" data-name="Tracé 3438" d="M229.483,255.742a2.831,2.831,0,0,1-.974-.232,4.9,4.9,0,0,0-.556-.178,4.421,4.421,0,0,0-1.389-.013l-.353.031a9.326,9.326,0,0,1-2.272-.112,3.329,3.329,0,0,0-.347-.034c-.384-.029-.817-.06-.987-.261a.311.311,0,0,1-.071-.238c.042-.384,1.045-.9,1.089-.917.261-.133.543-.285.825-.441a7.529,7.529,0,0,1,3.7-1.267c.136,0,.261.021.4.034a3.192,3.192,0,0,0,.77.021,2.9,2.9,0,0,0,1.016-.4c.141-.078.285-.157.431-.225a4.179,4.179,0,0,1,2.943-.154l.172.06a1.768,1.768,0,0,0,.705.151,1.643,1.643,0,0,0,.695-.261,3.054,3.054,0,0,1,.423-.214,2.877,2.877,0,0,1,2.632.611c.178.136.36.261.541.392a3.682,3.682,0,0,1,1.862,2.324.115.115,0,0,1-.081.133,10.259,10.259,0,0,1-3.215.6H237.4c-1.22,0-2.452.034-3.656.1l-.716.034c-.554.021-1.123.044-1.671.107a8.1,8.1,0,0,0-.849.141c-.1.024-.2.052-.3.081a2.672,2.672,0,0,1-.663.136Zm-2.147-.71a3.025,3.025,0,0,1,.669.068,4.361,4.361,0,0,1,.585.188,2.47,2.47,0,0,0,.935.217,2.576,2.576,0,0,0,.609-.125c.1-.031.209-.063.316-.086a8.465,8.465,0,0,1,.875-.146c.556-.063,1.131-.086,1.687-.11.243,0,.48-.018.713-.031,1.217-.068,2.455-.1,3.68-.1h.044a9.864,9.864,0,0,0,3.043-.554,3.548,3.548,0,0,0-1.747-2.066c-.183-.131-.368-.261-.546-.4a2.647,2.647,0,0,0-2.4-.58,2.932,2.932,0,0,0-.394.2,1.829,1.829,0,0,1-.8.3,2.011,2.011,0,0,1-.8-.165l-.167-.057a3.918,3.918,0,0,0-2.766.144c-.144.065-.282.141-.418.217a3.172,3.172,0,0,1-1.1.428,3.505,3.505,0,0,1-.828-.021c-.128,0-.261-.026-.389-.034a7.317,7.317,0,0,0-3.575,1.241c-.285.154-.564.308-.83.444-.441.222-.945.58-.961.729a.076.076,0,0,0,.016.057c.1.125.535.157.823.175a2.184,2.184,0,0,1,.371.039,8.963,8.963,0,0,0,2.212.11l.35-.031C226.8,255.058,227.07,255.032,227.336,255.032Z" transform="translate(-104.155 -166.893)" fill="#5c6f99"/>
    <path id="Tracé_3439" data-name="Tracé 3439" d="M244.781,238a.12.12,0,0,1-.084-.206,6.856,6.856,0,0,1,2.8-1.457.12.12,0,1,1,.055.232,6.7,6.7,0,0,0-2.693,1.4A.125.125,0,0,1,244.781,238Z" transform="translate(-120.505 -156.081)" fill="#5c6f99"/>
    <path id="Tracé_3440" data-name="Tracé 3440" d="M237.92,222.892a.112.112,0,0,1-.05,0,10.676,10.676,0,0,0-2.661-.76.119.119,0,0,1,.031-.235,10.547,10.547,0,0,1,2.729.783.118.118,0,0,1,.06.157A.123.123,0,0,1,237.92,222.892Z" transform="translate(-113.446 -145.414)" fill="#5c6f99"/>
    <path id="Tracé_3441" data-name="Tracé 3441" d="M249.723,220.3a.151.151,0,0,1-.047,0,.12.12,0,0,1-.063-.157,21,21,0,0,1,1.233-2.512.123.123,0,0,1,.167-.034.118.118,0,0,1,.034.165,21.25,21.25,0,0,0-1.214,2.476A.12.12,0,0,1,249.723,220.3Z" transform="translate(-124.158 -142.222)" fill="#5c6f99"/>
    <path id="Tracé_3442" data-name="Tracé 3442" d="M261.216,216.815a.12.12,0,0,1-.11-.073,11.939,11.939,0,0,0-1.439-1.828.117.117,0,0,1,0-.17.12.12,0,0,1,.167,0,11.541,11.541,0,0,1,1.483,1.891.117.117,0,0,1-.06.157A.151.151,0,0,1,261.216,216.815Z" transform="translate(-131.566 -140.105)" fill="#5c6f99"/>
    <path id="Tracé_3443" data-name="Tracé 3443" d="M269.223,210.056a.12.12,0,0,1-.1-.178c.319-.593,1.387-2.016,1.434-2.076a.12.12,0,1,1,.191.144,24.5,24.5,0,0,0-1.415,2.048A.12.12,0,0,1,269.223,210.056Z" transform="translate(-138.565 -134.957)" fill="#5c6f99"/>
    <path id="Tracé_3444" data-name="Tracé 3444" d="M266.545,226.587a9.123,9.123,0,0,1-2.142-.3.123.123,0,0,1-.084-.146.12.12,0,0,1,.149-.084,8.453,8.453,0,0,0,2.471.274.12.12,0,0,1,.128.11.115.115,0,0,1-.107.128C266.822,226.582,266.684,226.587,266.545,226.587Z" transform="translate(-135.028 -148.485)" fill="#5c6f99"/>
    <path id="Tracé_3445" data-name="Tracé 3445" d="M262.36,235.46a19.408,19.408,0,0,1,2.593.76" transform="translate(-133.582 -155.436)" fill="#fff"/>
    <path id="Tracé_3446" data-name="Tracé 3446" d="M264.614,236.03a.1.1,0,0,1-.047,0,19.354,19.354,0,0,0-2.572-.752.123.123,0,0,1-.091-.144.12.12,0,0,1,.141-.091,19.288,19.288,0,0,1,2.612.768.12.12,0,0,1,.065.157A.125.125,0,0,1,264.614,236.03Z" transform="translate(-133.243 -155.126)" fill="#5c6f99"/>
    <path id="Tracé_3447" data-name="Tracé 3447" d="M267.649,255.609a.125.125,0,0,1-.1-.07,1.64,1.64,0,0,0-1.214-.953,2.473,2.473,0,0,0-1.6.282.123.123,0,0,1-.162-.052.118.118,0,0,1,.052-.159,2.713,2.713,0,0,1,1.752-.306,1.867,1.867,0,0,1,1.395,1.1.12.12,0,0,1-.068.154A.133.133,0,0,1,267.649,255.609Z" transform="translate(-135.208 -169.366)" fill="#5c6f99"/>
    <path id="Tracé_3448" data-name="Tracé 3448" d="M236.485,258.553a.12.12,0,0,1-.057-.225,6.79,6.79,0,0,1,2-.723.12.12,0,0,1,.138.1.117.117,0,0,1-.094.138,6.568,6.568,0,0,0-1.925.7A.12.12,0,0,1,236.485,258.553Z" transform="translate(-114.378 -171.796)" fill="#5c6f99"/>
    <path id="Tracé_3449" data-name="Tracé 3449" d="M210.43,264.695H210.4c-.016,0-.387-.1-1.6-.46a7.442,7.442,0,0,0-3.264.23.12.12,0,0,1-.149-.084.118.118,0,0,1,.084-.146,7.7,7.7,0,0,1,3.4-.23c1.207.363,1.585.457,1.588.46a.12.12,0,0,1-.029.235Z" transform="translate(-91.485 -176.433)" fill="#5c6f99"/>
    <path id="Tracé_3450" data-name="Tracé 3450" d="M294.615,263.343h-.031c-.013,0-1.306-.342-1.828-.413a2.631,2.631,0,0,0-1.2.261.12.12,0,0,1-.1-.214,2.916,2.916,0,0,1,1.34-.29c.556.078,1.8.4,1.854.421a.117.117,0,0,1,.084.146A.12.12,0,0,1,294.615,263.343Z" transform="translate(-155.033 -175.544)" fill="#5c6f99"/>
    <path id="Tracé_3451" data-name="Tracé 3451" d="M196.366,261.242a.141.141,0,0,1-.055,0,2.128,2.128,0,0,0-1.392-.133.13.13,0,1,1-.063-.253,2.392,2.392,0,0,1,1.567.149.131.131,0,0,1,.063.175A.128.128,0,0,1,196.366,261.242Z" transform="translate(-83.634 -174.148)" fill="#5c6f99"/>
    <path id="Tracé_3452" data-name="Tracé 3452" d="M186.579,268.661H185.5a.131.131,0,1,1,0-.261h1.079a.131.131,0,0,1,0,.261Z" transform="translate(-76.699 -179.773)" fill="#5c6f99"/>
    <path id="Tracé_3453" data-name="Tracé 3453" d="M87.739,263.913a2.576,2.576,0,0,1-.522-.05.133.133,0,1,1,.052-.261,2.323,2.323,0,0,0,.9,0,.133.133,0,0,1,.154.1.131.131,0,0,1-.1.152A2.573,2.573,0,0,1,87.739,263.913Z" transform="translate(-4.101 -176.227)" fill="#5c6f99"/>
    <path id="Tracé_3454" data-name="Tracé 3454" d="M108.087,272.918a.132.132,0,0,1-.042-.261,3.176,3.176,0,0,1,.99-.157.136.136,0,0,1,.138.131.133.133,0,0,1-.131.131h0a2.981,2.981,0,0,0-.909.144Z" transform="translate(-19.486 -182.802)" fill="#5c6f99"/>
    <path id="Tracé_3455" data-name="Tracé 3455" d="M137.469,272.25h-.337a.131.131,0,1,1,.016-.261,5.746,5.746,0,0,0,1.079-.042.132.132,0,0,1,.034.261,5.728,5.728,0,0,1-.791.042Z" transform="translate(-40.968 -182.393)" fill="#5c6f99"/>
    <path id="Tracé_3456" data-name="Tracé 3456" d="M295.135,268.869a2.675,2.675,0,0,1-.434-.034.132.132,0,0,1,.039-.261,2.58,2.58,0,0,0,.838,0,.133.133,0,0,1,.047.261A2.844,2.844,0,0,1,295.135,268.869Z" transform="translate(-157.395 -179.9)" fill="#5c6f99"/>
    <path id="Tracé_3457" data-name="Tracé 3457" d="M311.751,262.351h-.013l-.883-.091a.131.131,0,0,1-.118-.144.133.133,0,0,1,.144-.118l.883.091a.131.131,0,0,1-.013.261Z" transform="translate(-169.325 -175.043)" fill="#5c6f99"/>
    <path id="Tracé_3458" data-name="Tracé 3458" d="M243.331,272.151h-1.52a.131.131,0,0,1,0-.261h1.52a.133.133,0,0,1,.131.133.128.128,0,0,1-.131.128Z" transform="translate(-118.303 -182.352)" fill="#5c6f99"/>
    <path id="Tracé_3459" data-name="Tracé 3459" d="M214.374,270.181a.132.132,0,0,1-.031-.261,3.6,3.6,0,0,1,1.52-.052.131.131,0,0,1,.1.152.128.128,0,0,1-.151.1,3.324,3.324,0,0,0-1.408.05Z" transform="translate(-98.019 -180.815)" fill="#5c6f99"/>
  </g>
</svg>
