<svg xmlns="http://www.w3.org/2000/svg" width="60.873" height="59.922" viewBox="0 0 60.873 59.922">
  <g id="_462_painting_an_egg_flatline" data-name="#462_painting_an_egg_flatline" transform="translate(-79.233 -31.11)">
    <ellipse id="Ellipse_385" data-name="Ellipse 385" cx="14.05" cy="0.957" rx="14.05" ry="0.957" transform="translate(79.499 87.646)" fill="#e6e7e8"/>
    <rect id="Rectangle_2387" data-name="Rectangle 2387" width="2.419" height="8.033" transform="translate(134.783 78.875)" fill="#f2f1f7"/>
    <path id="Tracé_4226" data-name="Tracé 4226" d="M301.772,228.487h-2.416a.116.116,0,0,1-.116-.116v-8.028a.116.116,0,0,1,.116-.113h2.416a.113.113,0,0,1,.116.113v8.033A.113.113,0,0,1,301.772,228.487Zm-2.3-.229h2.187v-7.811h-2.187Z" transform="translate(-164.573 -141.468)" fill="#1f4076"/>
    <rect id="Rectangle_2388" data-name="Rectangle 2388" width="2.419" height="8.033" transform="translate(116.087 78.875)" fill="#f2f1f7"/>
    <path id="Tracé_4227" data-name="Tracé 4227" d="M227.582,228.487h-2.419a.113.113,0,0,1-.113-.116v-8.028a.113.113,0,0,1,.113-.113h2.419a.116.116,0,0,1,.116.113v8.033a.116.116,0,0,1-.116.111Zm-2.3-.229h2.187v-7.811h-2.177Z" transform="translate(-109.076 -141.468)" fill="#1f4076"/>
    <path id="Tracé_4228" data-name="Tracé 4228" d="M241.16,196.987H214.51l1.25-4.487h24.153Z" transform="translate(-101.192 -120.725)" fill="#f2f1f7"/>
    <path id="Tracé_4229" data-name="Tracé 4229" d="M240.82,196.767H214.17a.111.111,0,0,1-.091-.045.118.118,0,0,1-.02-.1l1.26-4.487a.113.113,0,0,1,.111-.083h24.153a.116.116,0,0,1,.111.083l1.26,4.487a.118.118,0,0,1-.018.1A.113.113,0,0,1,240.82,196.767Zm-26.5-.229h26.345l-1.179-4.248H215.508Z" transform="translate(-100.852 -120.389)" fill="#1f4076"/>
    <ellipse id="Ellipse_386" data-name="Ellipse 386" cx="7.184" cy="0.766" rx="7.184" ry="0.766" transform="translate(119.09 73.843)" fill="#5c6f99"/>
    <rect id="Rectangle_2389" data-name="Rectangle 2389" width="26.65" height="2.613" transform="translate(113.318 76.265)" fill="#f2f1f7"/>
    <path id="Tracé_4230" data-name="Tracé 4230" d="M240.824,212.7h-26.65a.116.116,0,0,1-.113-.116v-2.61a.113.113,0,0,1,.113-.116h26.65a.113.113,0,0,1,.116.116v2.61a.116.116,0,0,1-.116.116Zm-26.527-.229H240.71v-2.384H214.3Z" transform="translate(-100.855 -133.711)" fill="#1f4076"/>
    <path id="Tracé_4231" data-name="Tracé 4231" d="M243.394,106.466a15.118,15.118,0,0,1-.418,3.651,12.167,12.167,0,0,1-.5,1.562,11.19,11.19,0,0,1-.988,1.938,10.3,10.3,0,0,1-1.723,2.036,12.183,12.183,0,0,1-8.33,2.948,12.959,12.959,0,0,1-6.5-1.628,10.217,10.217,0,0,1-3.646-3.528,11.059,11.059,0,0,1-.693-1.318,13.815,13.815,0,0,1-1.1-5.667,20.255,20.255,0,0,1,.789-5.485c.1-.363.212-.721.33-1.076a21.787,21.787,0,0,1,.864-2.159c2.142-4.611,5.808-8.133,9.97-8.131a8.2,8.2,0,0,1,4.359,1.323c2.91,1.809,5.261,5.291,6.536,9.187.113.348.219.7.315,1.056A20.184,20.184,0,0,1,243.394,106.466Z" transform="translate(-104.918 -43.76)" fill="#f2f1f7"/>
    <path id="Tracé_4232" data-name="Tracé 4232" d="M230.721,88.832h0a8.2,8.2,0,0,1,4.359,1.323c2.91,1.809,5.261,5.291,6.536,9.187.113.348.219.7.315,1.056a20.184,20.184,0,0,1,.728,5.291,15.117,15.117,0,0,1-.423,3.659,12.17,12.17,0,0,1-.5,1.562,11.19,11.19,0,0,1-.988,1.938,10.3,10.3,0,0,1-1.723,2.036,12.177,12.177,0,0,1-8.315,2.948h-.013a12.959,12.959,0,0,1-6.5-1.628,10.217,10.217,0,0,1-3.646-3.527,11.061,11.061,0,0,1-.693-1.318,13.815,13.815,0,0,1-1.1-5.667,20.255,20.255,0,0,1,.789-5.485c.1-.363.212-.721.33-1.076a21.788,21.788,0,0,1,.864-2.159c2.139-4.608,5.8-8.131,9.965-8.131m0-.252h0a9.155,9.155,0,0,0-5.9,2.4,17.227,17.227,0,0,0-4.283,5.878,21.563,21.563,0,0,0-.882,2.177c-.139.418-.252.756-.333,1.088a20.36,20.36,0,0,0-.8,5.543,14.092,14.092,0,0,0,1.124,5.77,10.935,10.935,0,0,0,.708,1.348,10.51,10.51,0,0,0,3.742,3.611,13.278,13.278,0,0,0,6.624,1.66h.02a12.3,12.3,0,0,0,8.486-3.024,10.525,10.525,0,0,0,1.764-2.086,11.355,11.355,0,0,0,1.008-1.98,12.385,12.385,0,0,0,.5-1.6,15.39,15.39,0,0,0,.426-3.7,20.313,20.313,0,0,0-.738-5.364c-.1-.358-.2-.718-.315-1.068-1.356-4.142-3.779-7.539-6.644-9.323a8.428,8.428,0,0,0-4.49-1.34Z" transform="translate(-104.178 -42.99)" fill="#1f4076"/>
    <path id="Tracé_4233" data-name="Tracé 4233" d="M245.022,131.695a3.527,3.527,0,0,0-2.134,2.217,4.748,4.748,0,0,1-.8,2.016,1.726,1.726,0,0,1-1.96.358,2.593,2.593,0,0,1-1.371-1.456,6.3,6.3,0,0,1-.343-1.232,2.993,2.993,0,0,0-.287-1.1c-.456-.62-1.048.5-1.139.842a8.66,8.66,0,0,1-.567,2.059,2.181,2.181,0,0,1-3.3.527c-1.328-.965-1.411-2.585-2.051-3.968-.066-.144-.141-.37-.31-.385s-.33.154-.428.252a2.739,2.739,0,0,0-.534.756,8.938,8.938,0,0,0-.617,2.048c-.27,1.144-.731,3.172-2.328,2.87-1.484-.282-2.053-1.991-2.351-3.26a4.924,4.924,0,0,0-.854-2.207,1.56,1.56,0,0,0-1.008-.534c.1-.36.212-.718.33-1.071a3.27,3.27,0,0,1,2.119,1.935c.34.824.438,1.713.723,2.555.161.469.882,1.955,1.56,1.4.5-.408.607-1.393.756-1.978a11.809,11.809,0,0,1,.607-2.048,3.369,3.369,0,0,1,1.288-1.6,1.308,1.308,0,0,1,1.791.348c.854,1.209.668,3.127,1.98,4.031.5.35,1.217.5,1.615-.093a8.852,8.852,0,0,0,.592-2.139,2.195,2.195,0,0,1,1.22-1.434,1.471,1.471,0,0,1,1.741.38,5.963,5.963,0,0,1,.665,2.21c.156.572.59,1.489,1.345,1.376.632-.1.693-1.124.826-1.6a4.586,4.586,0,0,1,.95-1.764,4.7,4.7,0,0,1,1.963-1.348C244.82,130.987,244.926,131.34,245.022,131.695Z" transform="translate(-107.274 -74.287)" fill="#1f4076"/>
    <path id="Tracé_4234" data-name="Tracé 4234" d="M246.252,171a12.246,12.246,0,0,1-.5,1.567,23.318,23.318,0,0,1-5.112,2.1,24.931,24.931,0,0,1-8.091.756,42.189,42.189,0,0,1-7.982-1.1,10.524,10.524,0,0,1-.693-1.318q1.194.34,2.411.582a42.174,42.174,0,0,0,8.035.794,22.234,22.234,0,0,0,7.229-1.144A21.807,21.807,0,0,0,246.252,171Z" transform="translate(-108.194 -104.643)" fill="#5c6f99"/>
    <path id="Tracé_4235" data-name="Tracé 4235" d="M251.982,184.85a10.212,10.212,0,0,1-1.723,2.036,23.029,23.029,0,0,1-2.678.925,25.232,25.232,0,0,1-8.093.756c-1.353-.071-2.709-.184-4.057-.365a10.391,10.391,0,0,1-1.92-1.419,42.106,42.106,0,0,0,7.75.741A22.233,22.233,0,0,0,248.5,186.4a21.868,21.868,0,0,0,3.482-1.55Z" transform="translate(-115.405 -115.003)" fill="#1f4076"/>
    <circle id="Ellipse_387" data-name="Ellipse 387" cx="1.25" cy="1.25" r="1.25" transform="translate(123.218 63.382)" fill="#fce15c"/>
    <circle id="Ellipse_388" data-name="Ellipse 388" cx="1.25" cy="1.25" r="1.25" transform="translate(119.176 65.879)" fill="#fce15c"/>
    <circle id="Ellipse_389" data-name="Ellipse 389" cx="1.25" cy="1.25" r="1.25" transform="translate(127.272 66.556)" fill="#fce15c"/>
    <circle id="Ellipse_390" data-name="Ellipse 390" cx="1.25" cy="1.25" r="1.25" transform="translate(126.029 53.157)" fill="#5c6f99"/>
    <circle id="Ellipse_391" data-name="Ellipse 391" cx="1.25" cy="1.25" r="1.25" transform="translate(130.532 63.384)" fill="#fce15c"/>
    <circle id="Ellipse_392" data-name="Ellipse 392" cx="1.25" cy="1.25" r="1.25" transform="translate(130.54 48.947)" fill="#5c6f99"/>
    <circle id="Ellipse_393" data-name="Ellipse 393" cx="1.25" cy="1.25" r="1.25" transform="translate(134.758 63.387)" fill="#fce15c"/>
    <circle id="Ellipse_394" data-name="Ellipse 394" cx="1.25" cy="1.25" r="1.25" transform="translate(131.787 53.159)" fill="#5c6f99"/>
    <path id="Tracé_4236" data-name="Tracé 4236" d="M241.739,90.9c-.068.171-.136.343-.209.5-.438,1.028-1.134,2.152-2.242,2.268-.595.066-1.2-.184-1.784-.068a2.369,2.369,0,0,0-1.557,1.512,10.5,10.5,0,0,1-.92,2.048,1.083,1.083,0,0,1-.454.406c-.471.189-.98-.2-1.489-.176-.879.038-1.227,1.141-1.313,2.016s-.335,1.98-1.2,2.129a1.564,1.564,0,0,1-1.524-1.071,18.308,18.308,0,0,0-.69-1.885,2.268,2.268,0,0,0-.947-.877c2.142-4.611,5.808-8.133,9.97-8.131A8.2,8.2,0,0,1,241.739,90.9Z" transform="translate(-110.842 -43.73)" fill="#fce15c"/>
    <path id="Tracé_4237" data-name="Tracé 4237" d="M145.36,180.848l1.512,14.947s5.2-.335,5.158-.587-1.721-16.378-1.721-16.378Z" transform="translate(-49.465 -110.5)" fill="#f2f1f7"/>
    <path id="Tracé_4238" data-name="Tracé 4238" d="M146.516,195.56a.118.118,0,0,1-.116-.106l-1.512-14.947a.118.118,0,0,1,.071-.118l4.946-2.016a.113.113,0,0,1,.1,0,.106.106,0,0,1,.055.086c.58,5.568,1.683,16.151,1.721,16.365a.166.166,0,0,1-.03.108c-.2.252-3.364.5-5.233.612Zm-1.386-14.989,1.489,14.75a41.2,41.2,0,0,0,4.931-.5c-.126-1.073-1.512-14.475-1.7-16.164Zm6.428,14.3Z" transform="translate(-49.113 -110.149)" fill="#1f4076"/>
    <path id="Tracé_4239" data-name="Tracé 4239" d="M102.314,183.51l-.474,15.347,5.07.144,1.136-14.989Z" transform="translate(-16.911 -114.001)" fill="#f2f1f7"/>
    <path id="Tracé_4240" data-name="Tracé 4240" d="M106.62,198.771h0l-5.07-.146a.113.113,0,0,1-.081-.035.126.126,0,0,1-.03-.083l.476-15.347a.111.111,0,0,1,.038-.081.106.106,0,0,1,.086-.03l5.73.5a.116.116,0,0,1,.106.123l-1.151,14.982a.116.116,0,0,1-.1.113Zm-4.961-.365,4.843.139,1.119-14.765-5.5-.491Z" transform="translate(-16.612 -113.655)" fill="#1f4076"/>
    <path id="Tracé_4241" data-name="Tracé 4241" d="M173.193,97.119a7.638,7.638,0,0,1,.607-.811.831.831,0,0,0,.756-.129,4.188,4.188,0,0,0,.922-.839c.323-.34.678-.234,1.081-.436.978-.484-2-2.016-2.394-2.147a2.016,2.016,0,0,0-1.512.068,3.023,3.023,0,0,0-.731.61c-.965,1-1.917,2-2.948,2.92-.665.6-3.888,2.885-3.888,2.885a13.694,13.694,0,0,1-.862-2.091c-.093-.391.06-.328,0-.7a21.91,21.91,0,0,0-4.185,1.655c.166.194.5,7.559,2.016,8.086,1.731.612,3.412-.537,4.608-1.618a45.978,45.978,0,0,0,4.157-4.193c.569-.668,1.094-1.373,1.608-2.084C172.7,97.913,172.933,97.52,173.193,97.119Z" transform="translate(-60.447 -46.028)" fill="#f2f1f7"/>
    <path id="Tracé_4242" data-name="Tracé 4242" d="M162.7,106.136a3.112,3.112,0,0,1-1.038-.179c-1.214-.431-1.676-4.694-1.922-6.987-.06-.549-.116-1.071-.149-1.146a.1.1,0,0,1-.02-.1.113.113,0,0,1,.073-.071c.406-.164.816-.358,1.26-.564a11.959,11.959,0,0,1,2.961-1.1.113.113,0,0,1,.131.093.756.756,0,0,1,0,.375.547.547,0,0,0,0,.312,12.3,12.3,0,0,0,.794,1.945c.569-.406,3.185-2.268,3.779-2.8.922-.826,1.794-1.728,2.641-2.6l.3-.312a3.066,3.066,0,0,1,.756-.63,2.091,2.091,0,0,1,1.592-.078c.252.076,2.605,1.212,2.668,1.968a.388.388,0,0,1-.252.393,1.888,1.888,0,0,1-.484.151.942.942,0,0,0-.564.252l-.149.161a3.475,3.475,0,0,1-.8.7.988.988,0,0,1-.768.166,7.483,7.483,0,0,0-.547.741h0l-.265.411c-.161.252-.33.519-.5.776-.461.637-1.008,1.386-1.613,2.089a45.769,45.769,0,0,1-4.167,4.205A5.932,5.932,0,0,1,162.7,106.136Zm-2.87-8.315c.03.146.066.446.136,1.116.209,1.917.7,6.41,1.764,6.8,1.323.469,2.792-.053,4.5-1.592a45.27,45.27,0,0,0,4.145-4.183c.595-.7,1.144-1.441,1.6-2.076.181-.252.348-.5.5-.756.088-.139.176-.277.267-.413h0a7.594,7.594,0,0,1,.617-.824.111.111,0,0,1,.134-.028.716.716,0,0,0,.64-.126,3.251,3.251,0,0,0,.756-.655l.151-.164a1.172,1.172,0,0,1,.685-.328,1.63,1.63,0,0,0,.428-.131c.139-.068.134-.139.131-.166-.045-.547-2.154-1.66-2.507-1.764a1.885,1.885,0,0,0-1.419.063,2.819,2.819,0,0,0-.7.585l-.3.315c-.847.877-1.723,1.781-2.651,2.613-.663.595-3.764,2.8-3.9,2.893a.111.111,0,0,1-.093.018.113.113,0,0,1-.076-.06,13.589,13.589,0,0,1-.872-2.116.771.771,0,0,1,0-.418.469.469,0,0,0,.018-.166,12.085,12.085,0,0,0-2.772,1.056c-.433.176-.816.363-1.194.517Z" transform="translate(-60.089 -45.682)" fill="#1f4076"/>
    <path id="Tracé_4243" data-name="Tracé 4243" d="M98.907,80.159S97.572,79.151,93.656,80c-5.337,1.149-8.186,6.46-8.186,6.46L88.972,92l1.411-1.849s-.154,4.752.116,7.886l14.758-1.091-.287-7.2,4.571-.519a38.477,38.477,0,0,0-2.3-6.271C106.295,81.471,101.951,79.7,98.907,80.159Z" transform="translate(-4.666 -36.317)" fill="#fce15c"/>
    <path id="Tracé_4244" data-name="Tracé 4244" d="M129.285,55.272l.267,2.074s-.081.6-2.149.018-2.3-1.547-2.3-1.547L124.85,51.7c0-.252.113-2.678.073-4.835,2.52-.04,6.929-.391,7.32-.252a47.353,47.353,0,0,1-.028,6.753C131.875,54.969,129.285,55.272,129.285,55.272Z" transform="translate(-34.123 -11.574)" fill="#f2f1f7"/>
    <path id="Tracé_4245" data-name="Tracé 4245" d="M128.532,57.44a5.868,5.868,0,0,1-1.489-.252c-2.109-.59-2.371-1.59-2.381-1.63-.252-4.14-.252-4.14-.252-4.147v-.033c.033-.816.106-2.918.071-4.787a.121.121,0,0,1,.033-.081.113.113,0,0,1,.081-.035c1.081-.018,2.542-.093,3.83-.161a24.368,24.368,0,0,1,3.527-.086.118.118,0,0,1,.076.1,47.758,47.758,0,0,1-.028,6.8c-.315,1.454-2.4,1.865-2.905,1.948l.252,1.96v.033a.343.343,0,0,1-.171.227A1.157,1.157,0,0,1,128.532,57.44Zm-3.643-1.925s.267.9,2.215,1.444c1.671.469,1.963.144,2.016.081l-.277-2.048a.106.106,0,0,1,.023-.086.121.121,0,0,1,.078-.043c.025,0,2.52-.31,2.822-1.812a46.673,46.673,0,0,0,.033-6.637c-.378-.043-1.9.035-3.371.111-1.245.066-2.651.139-3.724.159.033,1.857-.04,3.9-.073,4.7v.033c0,.033.252,4.092.252,4.1Z" transform="translate(-33.794 -11.281)" fill="#1f4076"/>
    <path id="Tracé_4246" data-name="Tracé 4246" d="M140.032,63.84c.27.479.539,1.046.4,1.2-.252.282-.988.1-.988.1" transform="translate(-45.037 -24.483)" fill="#f2f1f7"/>
    <path id="Tracé_4247" data-name="Tracé 4247" d="M139.562,64.932a2.195,2.195,0,0,1-.5-.066.13.13,0,1,1,.063-.252c.171.045.693.129.864-.058,0,0,.093-.159-.413-1.053a.126.126,0,0,1,.048-.171.128.128,0,0,1,.174.048c.544.965.486,1.227.375,1.348A.8.8,0,0,1,139.562,64.932Z" transform="translate(-44.678 -24.091)" fill="#1f4076"/>
    <path id="Tracé_4248" data-name="Tracé 4248" d="M135.583,79.417a4.43,4.43,0,0,1-2.313-.557,6.27,6.27,0,0,0,2.379,2.2Z" transform="translate(-40.422 -35.719)" fill="#1f4076"/>
    <path id="Tracé_4249" data-name="Tracé 4249" d="M135.273,80.769a.149.149,0,0,1-.066-.018,6.171,6.171,0,0,1-2.424-2.268.123.123,0,0,1,.194-.149,4.377,4.377,0,0,0,2.227.524.121.121,0,0,1,.129.121l.063,1.645a.126.126,0,0,1-.05.118A.149.149,0,0,1,135.273,80.769Zm-1.965-1.943a7.141,7.141,0,0,0,1.829,1.587l-.05-1.293A5.642,5.642,0,0,1,133.307,78.827Z" transform="translate(-40.046 -35.3)" fill="#1f4076"/>
    <ellipse id="Ellipse_395" data-name="Ellipse 395" cx="0.247" cy="0.582" rx="0.247" ry="0.582" transform="translate(95.98 37.696)" fill="#1f4076"/>
    <ellipse id="Ellipse_396" data-name="Ellipse 396" cx="0.247" cy="0.582" rx="0.247" ry="0.582" transform="translate(93.36 37.696)" fill="#1f4076"/>
    <path id="Tracé_4250" data-name="Tracé 4250" d="M119.619,39.264a5.78,5.78,0,0,0,2.3-3.024c.02-.053,4.243,1.366,4.578,1.424,1.008.171,1.537-.184,1.887-1.288a4.338,4.338,0,0,0-.179-2.9,2.411,2.411,0,0,1-1.6,1.174,1.618,1.618,0,0,0,.234-2.772,2.1,2.1,0,0,1-1.111,1.212,4.838,4.838,0,0,1-1.633.411,1.436,1.436,0,0,0,.363-1.852,2.557,2.557,0,0,1-1.66.947c-.665.086-1.34-.093-2.016-.05-1.917.123-2.7,2.613-2.688,4.2,0,.363.842,3.313.756,3.4Z" transform="translate(-29.073 -0.404)" fill="#fce15c"/>
    <path id="Tracé_4251" data-name="Tracé 4251" d="M118.546,39.838a.121.121,0,0,1-.076-.028.113.113,0,0,1-.033-.123c0-.144-.209-.957-.373-1.615a14.867,14.867,0,0,1-.4-1.764c-.018-1.713.839-4.183,2.794-4.311a6.09,6.09,0,0,1,.937.035,4.88,4.88,0,0,0,1.066.018,2.419,2.419,0,0,0,1.585-.894.126.126,0,0,1,.1-.045.113.113,0,0,1,.091.055,1.552,1.552,0,0,1-.129,1.764,4.213,4.213,0,0,0,1.26-.355,1.983,1.983,0,0,0,1.051-1.141.111.111,0,0,1,.073-.076.116.116,0,0,1,.1.013,1.723,1.723,0,0,1,.335,2.52,2.52,2.52,0,0,0,.864-.874.128.128,0,0,1,.088-.055.123.123,0,0,1,.1.04c.481.554.416,2.331.2,3.008-.368,1.157-.95,1.552-2.016,1.368-.159-.028-1.008-.3-2.3-.718-.852-.275-1.892-.61-2.187-.69a5.911,5.911,0,0,1-2.3,3l-.736.847h0A.111.111,0,0,1,118.546,39.838ZM118.46,39.647Zm2.232-7.415h-.214c-1.8.116-2.6,2.454-2.58,4.077,0,.164.207.98.388,1.7.194.771.3,1.194.345,1.436l.577-.665.035-.028a5.786,5.786,0,0,0,2.25-2.976c.05-.126.05-.126,2.434.643.993.32,2.117.683,2.268.711.952.164,1.429-.164,1.764-1.209a4.792,4.792,0,0,0-.068-2.656,2.487,2.487,0,0,1-1.572,1.1.113.113,0,0,1-.131-.076.116.116,0,0,1,.06-.141,1.512,1.512,0,0,0,.323-2.5,2.268,2.268,0,0,1-1.114,1.126,4.956,4.956,0,0,1-1.658.421.108.108,0,0,1-.118-.073.113.113,0,0,1,.038-.134,1.333,1.333,0,0,0,.408-1.555,2.656,2.656,0,0,1-1.623.857,5,5,0,0,1-1.116-.015C121.154,32.251,120.922,32.231,120.693,32.231Z" transform="translate(-28.752 0)" fill="#5c6f99"/>
    <path id="Tracé_4252" data-name="Tracé 4252" d="M121.114,57.8s-.937-1.474-1.985-.386-.038,2.6,1.424,2.89" transform="translate(-29.52 -19.374)" fill="#f2f1f7"/>
    <path id="Tracé_4253" data-name="Tracé 4253" d="M120.235,60.084h-.015a2.456,2.456,0,0,1-1.877-1.542A1.512,1.512,0,0,1,118.736,57a1.207,1.207,0,0,1,.98-.433,1.878,1.878,0,0,1,1.174.834.116.116,0,0,1-.035.159.111.111,0,0,1-.159-.035,1.693,1.693,0,0,0-1.008-.728.978.978,0,0,0-.8.36,1.26,1.26,0,0,0-.34,1.313,2.223,2.223,0,0,0,1.7,1.388.113.113,0,0,1,.091.134A.118.118,0,0,1,120.235,60.084Z" transform="translate(-29.204 -19.042)" fill="#1f4076"/>
    <path id="Tracé_4254" data-name="Tracé 4254" d="M99.09,131.033l-1.93,20.449,8.894.7,1.338-10.749.658,10.887,7.985-1.451-2.041-20.585Z" transform="translate(-13.41 -74.183)" fill="#1f4076"/>
    <path id="Tracé_4255" data-name="Tracé 4255" d="M107.7,152.068a.129.129,0,0,1-.078-.028.126.126,0,0,1-.048-.091L107,142.418l-1.159,9.4a.129.129,0,0,1-.136.108l-8.894-.693a.126.126,0,0,1-.086-.045.123.123,0,0,1-.03-.093l1.933-20.447a.123.123,0,0,1,.118-.113l14.9-.756a.126.126,0,0,1,.131.113l2.043,20.586a.126.126,0,0,1-.1.136l-7.985,1.451Zm-.658-11.147h0a.126.126,0,0,1,.121.118l.648,10.746,7.733-1.4-2.016-20.354-14.674.743L96.95,151l8.642.668,1.323-10.63a.123.123,0,0,1,.131-.116Z" transform="translate(-13.064 -73.808)" fill="#1f4076"/>
    <path id="Tracé_4256" data-name="Tracé 4256" d="M135.234,69.461a1.512,1.512,0,0,1-.479-.076,2.029,2.029,0,0,1-1.172-1.245.128.128,0,0,1,.081-.159.126.126,0,0,1,.159.081,1.829,1.829,0,0,0,1.008,1.083,2.252,2.252,0,0,0,1.968-.59.126.126,0,1,1,.149.2A2.952,2.952,0,0,1,135.234,69.461Z" transform="translate(-40.652 -27.577)" fill="#1f4076"/>
    <path id="Tracé_4257" data-name="Tracé 4257" d="M110.857,101.213c.166-.252-2.207-19.784-2.207-19.784L110.318,81l2.819,20.2Z" transform="translate(-22.005 -37.32)" fill="#1f4076"/>
    <path id="Tracé_4258" data-name="Tracé 4258" d="M112.82,100.994h-2.268a.128.128,0,0,1-.111-.066.118.118,0,0,1,0-.1c.076-.62-1.57-14.438-2.215-19.729a.126.126,0,0,1,.1-.139l1.668-.418a.134.134,0,0,1,.1.018.128.128,0,0,1,.055.088l2.812,20.2a.131.131,0,0,1-.03.1.123.123,0,0,1-.106.043Zm-2.164-.252h2.016L109.9,80.821l-1.426.355c.829,6.851,2.152,17.95,2.182,19.565Z" transform="translate(-21.688 -36.975)" fill="#1f4076"/>
    <path id="Tracé_4259" data-name="Tracé 4259" d="M146.68,96.115,148.136,82.7l1.545.416-1.3,13.168Z" transform="translate(-50.453 -38.591)" fill="#1f4076"/>
    <path id="Tracé_4260" data-name="Tracé 4260" d="M148.048,96.035h0l-1.706-.166a.121.121,0,0,1-.086-.045.141.141,0,0,1-.028-.093l1.454-13.42a.126.126,0,0,1,.053-.088.116.116,0,0,1,.1-.018l1.547.416a.126.126,0,0,1,.091.134l-1.29,13.168A.128.128,0,0,1,148.048,96.035Zm-1.567-.406,1.456.141,1.26-12.936-1.3-.35Z" transform="translate(-50.115 -38.217)" fill="#1f4076"/>
    <path id="Tracé_4261" data-name="Tracé 4261" d="M162.648,106.395h0a.123.123,0,0,1-.118-.131l.3-5.835a.129.129,0,0,1,.134-.118.126.126,0,0,1,.118.131l-.31,5.838A.126.126,0,0,1,162.648,106.395Z" transform="translate(-62.309 -51.764)" fill="#1f4076"/>
    <path id="Tracé_4262" data-name="Tracé 4262" d="M104.626,102.319a.126.126,0,0,1-.126-.123V95.9a.126.126,0,1,1,.252,0v6.3a.123.123,0,0,1-.126.123Z" transform="translate(-18.901 -48.368)" fill="#1f4076"/>
    <path id="Tracé_4263" data-name="Tracé 4263" d="M197.265,92.293s-1.625-.524-3.606-1.187c-2.981-1.008-6.76-2.318-7.015-2.643-.423-.542-.433-.988.466-.942a66.087,66.087,0,0,1,6.937,2.686c1.721.731,3.082,1.323,3.082,1.323Z" transform="translate(-80.14 -42.195)" fill="#f2f1f7"/>
    <path id="Tracé_4264" data-name="Tracé 4264" d="M196.9,92.094h-.038c-.018,0-1.65-.532-3.608-1.189-6.748-2.268-6.992-2.583-7.073-2.686-.282-.36-.37-.653-.252-.864s.38-.3.829-.277a55.048,55.048,0,0,1,6.979,2.7c1.723.731,3.084,1.32,3.084,1.32a.126.126,0,0,1,.073.093l.136.756a.131.131,0,0,1-.131.151Zm-10.273-4.787c-.252,0-.433.05-.484.146s.03.333.234.595c.088.111.942.582,6.957,2.6,1.56.522,2.913.963,3.407,1.124l-.088-.5c-.285-.123-1.512-.655-3.024-1.3-5.453-2.285-6.652-2.648-6.889-2.668Z" transform="translate(-79.773 -41.863)" fill="#1f4076"/>
    <path id="Tracé_4265" data-name="Tracé 4265" d="M218.916,100.284s-1.625-.524-3.606-1.187h0a3.882,3.882,0,0,1,.388-.9c1.721.731,3.082,1.323,3.082,1.323Z" transform="translate(-101.791 -50.186)" fill="#f2f1f7"/>
    <path id="Tracé_4266" data-name="Tracé 4266" d="M218.541,100.078H218.5c-.018,0-1.65-.532-3.608-1.189a.123.123,0,0,1-.083-.1.139.139,0,0,1,0-.055,4.057,4.057,0,0,1,.4-.925.121.121,0,0,1,.154-.048c1.723.731,3.084,1.32,3.084,1.32a.126.126,0,0,1,.073.093l.136.756a.132.132,0,0,1-.121.151Zm-3.449-1.393c1.512.5,2.809.93,3.291,1.086l-.088-.5c-.277-.121-1.459-.632-2.918-1.26a3.922,3.922,0,0,0-.285.67Z" transform="translate(-101.416 -49.847)" fill="#1f4076"/>
    <path id="Tracé_4267" data-name="Tracé 4267" d="M230.439,104.263a5.838,5.838,0,0,1-1.88-.295c-.595-.252-.973-.776-.854-1.857a2.52,2.52,0,0,1,1.283-.774c.547-.088,1.184.129,1.741,1.177a1.867,1.867,0,0,0,1.93,1.008A2.9,2.9,0,0,1,230.439,104.263Z" transform="translate(-111.047 -52.519)" fill="#f2f1f7"/>
    <path id="Tracé_4268" data-name="Tracé 4268" d="M230.281,104.1h-.333a5.578,5.578,0,0,1-1.809-.3,1.7,1.7,0,0,1-.927-1.985.126.126,0,0,1,.028-.068,2.59,2.59,0,0,1,1.358-.816c.738-.121,1.371.3,1.872,1.24a1.734,1.734,0,0,0,1.8.945.128.128,0,0,1,.134.066.126.126,0,0,1-.02.146A2.971,2.971,0,0,1,230.281,104.1Zm-.2-.252a2.973,2.973,0,0,0,1.839-.476,1.958,1.958,0,0,1-1.668-1.091c-.446-.839-.988-1.212-1.61-1.111a2.343,2.343,0,0,0-1.182.7c-.116,1.157.391,1.512.784,1.688a5.106,5.106,0,0,0,1.723.28Z" transform="translate(-110.676 -52.212)" fill="#1f4076"/>
    <path id="Tracé_4269" data-name="Tracé 4269" d="M233.04,104.24a5.837,5.837,0,0,1-1.88-.295,3.223,3.223,0,0,1,1.245-.375c.086-.02.186-.055.212-.141.058-.189-.252-.229-.4-.36a.28.28,0,0,1,.111-.454.635.635,0,0,0,.186-.048c.179-.134-.539-.685-.922-1.26.547-.088,1.184.128,1.741,1.177a1.867,1.867,0,0,0,1.93,1.008A2.9,2.9,0,0,1,233.04,104.24Z" transform="translate(-113.647 -52.497)" fill="#fce15c"/>
    <path id="Tracé_4270" data-name="Tracé 4270" d="M232.875,104.032h-.333a5.578,5.578,0,0,1-1.809-.3.125.125,0,0,1-.025-.217,2.353,2.353,0,0,1,.993-.34c.1-.018.2-.035.3-.058s.116-.045.118-.053a.634.634,0,0,0-.149-.1.9.9,0,0,1-.219-.134.408.408,0,0,1,.164-.67l.088-.035h.025a3.191,3.191,0,0,0-.35-.416,5.842,5.842,0,0,1-.562-.673.123.123,0,0,1,0-.121.129.129,0,0,1,.1-.076c.741-.118,1.371.3,1.872,1.242a1.734,1.734,0,0,0,1.8.945.126.126,0,0,1,.113.212A2.971,2.971,0,0,1,232.875,104.032Zm-.2-.252a2.933,2.933,0,0,0,1.837-.474,1.958,1.958,0,0,1-1.665-1.091c-.393-.738-.862-1.119-1.393-1.126.128.161.275.32.408.464.3.325.446.489.431.643a.192.192,0,0,1-.078.139.363.363,0,0,1-.179.058h-.05a.156.156,0,0,0-.058.252.66.66,0,0,0,.159.1c.131.063.348.169.28.4a.363.363,0,0,1-.3.224l-.31.063a3.565,3.565,0,0,0-.66.166,7,7,0,0,0,1.471.189h.113Z" transform="translate(-113.27 -52.147)" fill="#1f4076"/>
    <path id="Tracé_4271" data-name="Tracé 4271" d="M204.83,234.27v5.568c0,.67,1.965,1.214,4.389,1.214s4.392-.544,4.392-1.214V234.27Z" transform="translate(-93.951 -151.971)" fill="#f2f1f7"/>
    <path id="Tracé_4272" data-name="Tracé 4272" d="M208.845,240.812c-2.187,0-4.515-.469-4.515-1.34V233.9a.126.126,0,0,1,.126-.123h8.781a.126.126,0,0,1,.126.123v5.568C213.363,240.344,211.035,240.812,208.845,240.812Zm-4.263-6.783v5.442c0,.517,1.751,1.089,4.263,1.089s4.266-.572,4.266-1.089v-5.442Z" transform="translate(-93.577 -151.604)" fill="#1f4076"/>
    <ellipse id="Ellipse_397" data-name="Ellipse 397" cx="4.389" cy="1.214" rx="4.389" ry="1.214" transform="translate(110.879 81.085)" fill="#f2f1f7"/>
    <path id="Tracé_4273" data-name="Tracé 4273" d="M208.845,231.638c-2.187,0-4.515-.469-4.515-1.34s2.328-1.338,4.515-1.338,4.518.469,4.518,1.338S211.035,231.638,208.845,231.638Zm0-2.429c-2.52,0-4.263.574-4.263,1.088s1.751,1.091,4.263,1.091,4.266-.574,4.266-1.091-1.751-1.076-4.266-1.076Z" transform="translate(-93.577 -147.999)" fill="#1f4076"/>
    <path id="Tracé_4274" data-name="Tracé 4274" d="M215.511,232.026c0,.106-.1.212-.292.3a2.305,2.305,0,0,1-.265.106,12.276,12.276,0,0,1-5.74,0,2.612,2.612,0,0,1-.265-.106c-.184-.093-.29-.2-.29-.3,0-.411,1.532-.756,3.424-.756S215.511,231.615,215.511,232.026Z" transform="translate(-96.816 -149.727)" fill="#f2f1f7"/>
    <path id="Tracé_4275" data-name="Tracé 4275" d="M211.718,232.549a10.28,10.28,0,0,1-2.91-.345,2.444,2.444,0,0,1-.282-.116c-.237-.118-.355-.252-.355-.413,0-.64,2.122-.874,3.548-.874s3.553.234,3.553.874c0,.159-.123.3-.363.413a2.326,2.326,0,0,1-.28.116,10.28,10.28,0,0,1-2.91.345Zm0-1.5c-2.134,0-3.3.411-3.3.622,0,.03.045.1.219.189a2.091,2.091,0,0,0,.252.1,12.2,12.2,0,0,0,5.659,0,1.842,1.842,0,0,0,.252-.1c.176-.086.222-.159.222-.189C215.018,231.463,213.854,231.052,211.718,231.052Z" transform="translate(-96.45 -149.375)" fill="#1f4076"/>
    <path id="Tracé_4276" data-name="Tracé 4276" d="M216.6,234.888a12.276,12.276,0,0,1-5.74,0,12.367,12.367,0,0,1,5.74,0Z" transform="translate(-98.462 -152.18)" fill="#5c6f99"/>
    <path id="Tracé_4277" data-name="Tracé 4277" d="M213.236,234.942a10.189,10.189,0,0,1-2.91-.345.126.126,0,0,1,0-.252,12.439,12.439,0,0,1,5.82,0,.126.126,0,0,1,0,.252A10.189,10.189,0,0,1,213.236,234.942Zm-2.386-.466a13.4,13.4,0,0,0,4.772,0A13.556,13.556,0,0,0,210.85,234.476Z" transform="translate(-97.968 -151.769)" fill="#1f4076"/>
    <path id="Tracé_4278" data-name="Tracé 4278" d="M222.26,237.233c0,.071,0,.164.083.181s.134-.088.144-.174.03-.194.116-.207v1.182a7.969,7.969,0,0,0,.055,1.177.539.539,0,0,0,.093.252.2.2,0,0,0,.252.063.214.214,0,0,0,.076-.088,1.489,1.489,0,0,0,.121-.816,14.163,14.163,0,0,1,.048-1.6.285.285,0,0,1,.093-.227.2.2,0,0,1,.229.028.771.771,0,0,1,.151.2,1.5,1.5,0,0,0,.237.282.2.2,0,0,0,.179.073c.108-.035.083-.191.053-.3-.156-.574.217-1.184.1-1.764a.191.191,0,0,0-.252-.189c-.479.086-.983.1-1.469.146a.368.368,0,0,0-.156.04.282.282,0,0,0-.108.239c0,.252,0,.481-.015.731Z" transform="translate(-106.989 -152.735)" fill="#5c6f99"/>
    <path id="Tracé_4279" data-name="Tracé 4279" d="M212.612,257.877a.549.549,0,0,1,.411-.4.312.312,0,0,1,.2.015c.217.108.146.469.335.617a.521.521,0,0,0,.34.068,7.511,7.511,0,0,1,1.837.191c-.04.176-.252.252-.431.272a9.138,9.138,0,0,1-1.595.118.207.207,0,0,0-.151.035c-.091.088.045.239.174.252s.267-.038.37.035c0,.189-.252.252-.441.252h-1.8a.28.28,0,0,1-.169-.038c-.093-.066-.078-.209-.03-.312a.8.8,0,0,1,.5-.413,1.114,1.114,0,0,0-.325-.136C212.166,258.225,212.5,258.305,212.612,257.877Z" transform="translate(-99.037 -169.324)" fill="#5c6f99"/>
    <path id="Tracé_4280" data-name="Tracé 4280" d="M250.88,241.51v5.568c0,.673,1.965,1.214,4.392,1.214s4.389-.542,4.389-1.214V241.51Z" transform="translate(-128.398 -157.387)" fill="#f2f1f7"/>
    <path id="Tracé_4281" data-name="Tracé 4281" d="M254.9,248.052c-2.19,0-4.518-.469-4.518-1.34v-5.568a.126.126,0,0,1,.126-.123h8.781a.126.126,0,0,1,.126.123v5.568C259.413,247.584,257.087,248.052,254.9,248.052Zm-4.266-6.785v5.442c0,.517,1.751,1.091,4.266,1.091s4.263-.574,4.263-1.091v-5.442Z" transform="translate(-128.024 -157.02)" fill="#1f4076"/>
    <ellipse id="Ellipse_398" data-name="Ellipse 398" cx="4.389" cy="1.214" rx="4.389" ry="1.214" transform="translate(122.484 82.909)" fill="#f2f1f7"/>
    <path id="Tracé_4282" data-name="Tracé 4282" d="M254.9,238.878c-2.19,0-4.518-.469-4.518-1.34s2.328-1.338,4.518-1.338,4.515.469,4.515,1.338S257.087,238.878,254.9,238.878Zm0-2.429c-2.52,0-4.266.574-4.266,1.088s1.751,1.091,4.266,1.091,4.263-.574,4.263-1.091S257.41,236.449,254.9,236.449Z" transform="translate(-128.024 -153.415)" fill="#1f4076"/>
    <path id="Tracé_4283" data-name="Tracé 4283" d="M261.561,239.276c0,.106-.1.209-.292.3a2.31,2.31,0,0,1-.265.106,12.276,12.276,0,0,1-5.74,0,2.62,2.62,0,0,1-.265-.106c-.184-.093-.29-.194-.29-.3,0-.413,1.532-.756,3.424-.756S261.561,238.863,261.561,239.276Z" transform="translate(-131.263 -155.15)" fill="#f2f1f7"/>
    <path id="Tracé_4284" data-name="Tracé 4284" d="M257.768,239.809a10.189,10.189,0,0,1-2.91-.345,2.441,2.441,0,0,1-.282-.116c-.237-.118-.355-.252-.355-.411,0-.643,2.122-.877,3.548-.877s3.553.234,3.553.877c0,.156-.123.3-.363.413a2.816,2.816,0,0,1-.28.113A10.19,10.19,0,0,1,257.768,239.809Zm0-1.5c-2.134,0-3.3.411-3.3.625,0,.035.058.106.219.186a2.548,2.548,0,0,0,.252.1,10.011,10.011,0,0,0,2.827.33,9.9,9.9,0,0,0,2.83-.333,1.719,1.719,0,0,0,.252-.1c.176-.083.222-.159.222-.186,0-.219-1.167-.64-3.3-.64Z" transform="translate(-130.897 -154.806)" fill="#1f4076"/>
    <path id="Tracé_4285" data-name="Tracé 4285" d="M262.65,242.128a12.275,12.275,0,0,1-5.74,0,12.367,12.367,0,0,1,5.74,0Z" transform="translate(-132.909 -157.596)" fill="#fce15c"/>
    <path id="Tracé_4286" data-name="Tracé 4286" d="M259.286,242.2a10.189,10.189,0,0,1-2.91-.345.126.126,0,0,1,0-.252,12.439,12.439,0,0,1,5.82,0,.126.126,0,0,1,0,.252A10.189,10.189,0,0,1,259.286,242.2Zm-2.386-.466a13.4,13.4,0,0,0,4.772,0,13.555,13.555,0,0,0-4.772,0Z" transform="translate(-132.415 -157.2)" fill="#1f4076"/>
    <path id="Tracé_4287" data-name="Tracé 4287" d="M263.465,244.312a.228.228,0,0,0,.277.1.537.537,0,0,0,.373-.388c0-.038.023-.086.06-.091a.063.063,0,0,1,.043,0,.874.874,0,0,1,.252.252c.078.091.209.166.312.108a.275.275,0,0,0,.118-.191c.048-.2.028-.413.063-.617s.5-.864.234-.975a.252.252,0,0,0-.141,0c-.479.086-.983.1-1.469.146-.393.038-.252.756-.252,1.053a1.053,1.053,0,0,0,.121.577A.108.108,0,0,0,263.465,244.312Z" transform="translate(-137.698 -158.127)" fill="#fce15c"/>
    <path id="Tracé_4288" data-name="Tracé 4288" d="M94.7,244.6a23.106,23.106,0,0,1-.5,3.276c-1.844.307-8.368.572-8.663.013-.426-.8,4.1-3.422,4.1-3.422Z" transform="translate(-4.694 -159.601)" fill="#1f4076"/>
    <path id="Tracé_4289" data-name="Tracé 4289" d="M88.019,247.924c-1.55,0-2.83-.1-2.986-.4-.448-.842,3.059-2.961,4.145-3.59a.116.116,0,0,1,.066-.018l5.07.146a.116.116,0,0,1,.091.043.118.118,0,0,1,.03.1c-.348,3.331-.5,3.356-.607,3.374a49.384,49.384,0,0,1-5.808.345Zm1.26-3.752c-2.124,1.23-4.253,2.812-4.031,3.238.227.31,5.644.391,8.481-.071a26.172,26.172,0,0,0,.433-3.024Z" transform="translate(-4.309 -159.189)" fill="#1f4076"/>
    <path id="Tracé_4290" data-name="Tracé 4290" d="M151.35,244.395l.128,2.772s9.539.592,9.323-.234-4.283-3.132-4.283-3.132Z" transform="translate(-53.946 -159.1)" fill="#1f4076"/>
    <path id="Tracé_4291" data-name="Tracé 4291" d="M156.965,247.186c-2.311,0-5.039-.156-5.868-.209a.126.126,0,0,1-.118-.118l-.129-2.772a.126.126,0,0,1,.111-.131l5.158-.587a.133.133,0,0,1,.076.018c.421.237,4.117,2.356,4.346,3.208a.227.227,0,0,1-.048.209C160.248,247.093,158.729,247.186,156.965,247.186Zm-5.742-.454c4.3.252,8.846.3,9.071-.1-.156-.549-2.58-2.1-4.2-3.024l-5,.569Z" transform="translate(-53.572 -158.777)" fill="#1f4076"/>
    <path id="Tracé_4292" data-name="Tracé 4292" d="M81.923,111.35s-2.772,4.354-2.086,8.416,6.171,2.721,10.227-.38c0,0,4.687-3.437,4.009-3.933s-4.954.96-4.954.96a29.3,29.3,0,0,1-3.979.756c-.451-.1.8-1.32.8-1.32" transform="translate(-0.37 -60.022)" fill="#f2f1f7"/>
    <path id="Tracé_4293" data-name="Tracé 4293" d="M82.654,122.049a4.14,4.14,0,0,1-1.512-.252,2.872,2.872,0,0,1-1.8-2.374c-.7-4.059,2.074-8.456,2.1-8.5a.121.121,0,0,1,.161-.035.113.113,0,0,1,.033.159c-.028.043-2.751,4.367-2.069,8.335a2.673,2.673,0,0,0,1.655,2.2c1.915.756,5.364-.338,8.388-2.651,1.56-1.144,4.031-3.157,4.031-3.7a.048.048,0,0,0-.02-.045c-.461-.335-3.215.421-4.843.978a26.619,26.619,0,0,1-4.031.756.222.222,0,0,1-.179-.159c-.091-.325.612-1.056.92-1.356a.116.116,0,1,1,.161.164c-.5.481-.894,1.008-.859,1.129a26.719,26.719,0,0,0,3.933-.756c.433-.149,4.334-1.456,5.039-.942a.277.277,0,0,1,.116.232c0,.842-3.7,3.578-4.122,3.888A12.416,12.416,0,0,1,82.654,122.049Z" transform="translate(0 -59.665)" fill="#1f4076"/>
    <path id="Tracé_4294" data-name="Tracé 4294" d="M89.019,134.047a.116.116,0,0,1-.033-.227l5.08-1.454a.114.114,0,1,1,.063.219l-5.077,1.449Z" transform="translate(-7.234 -75.74)" fill="#1f4076"/>
    <ellipse id="Ellipse_399" data-name="Ellipse 399" cx="7.42" cy="3.732" rx="7.42" ry="3.732" transform="translate(83.712 51.902)" fill="#f2f1f7"/>
    <path id="Tracé_4295" data-name="Tracé 4295" d="M104.094,120.862c-4.152,0-7.534-1.726-7.534-3.845s3.381-3.847,7.534-3.847,7.536,1.726,7.536,3.847S108.261,120.862,104.094,120.862Zm0-7.461c-4.031,0-7.307,1.62-7.307,3.616s3.276,3.616,7.307,3.616,7.307-1.623,7.307-3.616S108.123,113.4,104.094,113.4Z" transform="translate(-12.961 -61.384)" fill="#1f4076"/>
    <ellipse id="Ellipse_400" data-name="Ellipse 400" cx="1.872" cy="0.811" rx="1.872" ry="0.811" transform="translate(87.781 52.666)" fill="#1f4076"/>
    <path id="Tracé_4296" data-name="Tracé 4296" d="M114.658,118.032c-1.121,0-2-.411-2-.935s.877-.937,2-.937,2,.411,2,.937S115.769,118.032,114.658,118.032Zm0-1.62c-1.031,0-1.749.36-1.749.685s.718.685,1.749.685,1.746-.363,1.746-.685S115.686,116.412,114.658,116.412Z" transform="translate(-25.005 -63.62)" fill="#1f4076"/>
    <path id="Tracé_4297" data-name="Tracé 4297" d="M119.92,117.458s.028-1.63,1.008-1.572,2.683.363,2.179.67a4.562,4.562,0,0,1-1.676.335l-.083.418" transform="translate(-30.435 -63.414)" fill="#f2f1f7"/>
    <path id="Tracé_4298" data-name="Tracé 4298" d="M119.583,117.224h0a.116.116,0,0,1-.113-.116,2.408,2.408,0,0,1,.5-1.464.809.809,0,0,1,.622-.222c.023,0,2.255.156,2.374.625a.24.24,0,0,1-.141.252,4.266,4.266,0,0,1-1.64.348l-.068.33a.113.113,0,0,1-.134.091.116.116,0,0,1-.091-.136l.083-.418a.118.118,0,0,1,.111-.093,4.527,4.527,0,0,0,1.62-.317l.025-.02a5.8,5.8,0,0,0-2.152-.438.592.592,0,0,0-.454.159,2.2,2.2,0,0,0-.431,1.3.113.113,0,0,1-.116.118Z" transform="translate(-30.099 -63.067)" fill="#1f4076"/>
    <path id="Tracé_4299" data-name="Tracé 4299" d="M102.67,124.281a.6.6,0,0,0,.436.572l.428.1a.6.6,0,0,0,.209.118.552.552,0,0,0,.3,0,1.655,1.655,0,0,0,.94-.028.67.67,0,0,0,.31-.212.585.585,0,0,0,.118-.282.6.6,0,0,0-.285-.595,6.74,6.74,0,0,0-1.333-.547.592.592,0,0,0-.678.295h0A.61.61,0,0,0,102.67,124.281Z" transform="translate(-17.532 -69.028)" fill="#1f4076"/>
    <path id="Tracé_4300" data-name="Tracé 4300" d="M113.323,131.184a.706.706,0,0,1,.5-.335.544.544,0,0,1,.345-.265,7.627,7.627,0,0,1,1.459-.287,1.429,1.429,0,0,1,1.3.728.6.6,0,0,1,.03.529.625.625,0,0,1-.386.345,3.074,3.074,0,0,1-1.194.2,2.473,2.473,0,0,1-.275-.023l-.191-.028a1.008,1.008,0,0,1-.181.159,1.043,1.043,0,0,1-1.406-.217A.756.756,0,0,1,113.323,131.184Z" transform="translate(-25.416 -74.194)" fill="#5c6f99"/>
    <path id="Tracé_4301" data-name="Tracé 4301" d="M128.754,128.83a7.779,7.779,0,0,1,.985.265.775.775,0,0,0,.05.126,1.1,1.1,0,0,0,.68.5,2.1,2.1,0,0,0,.756.1.738.738,0,0,0,.741-.738,2.614,2.614,0,0,0-.073-.416c-.023-.1-.04-.2-.063-.3a.907.907,0,0,0-.658-.7,5,5,0,0,0-.756-.106c-.237-.023-.474-.033-.711-.033a.587.587,0,0,0-.441.2l-.2-.045a.612.612,0,0,0-.733.418A.6.6,0,0,0,128.754,128.83Z" transform="translate(-36.717 -72.126)" fill="#fce15c"/>
    <path id="Tracé_4302" data-name="Tracé 4302" d="M138.877,122.036a.6.6,0,0,1,.5-.365.431.431,0,0,1,.252-.063.872.872,0,0,1,.348.093.756.756,0,0,1,.194.174,2.877,2.877,0,0,0,.607,0,.779.779,0,0,1,.615.04.716.716,0,0,1,.31.756.741.741,0,0,1-.517.537,1.26,1.26,0,0,1-.5,0,5.646,5.646,0,0,1-1.383-.375h-.03l-.144-.055a.6.6,0,0,1-.272-.358A.615.615,0,0,1,138.877,122.036Z" transform="translate(-44.585 -67.695)" fill="#fce15c"/>
    <path id="Tracé_4303" data-name="Tracé 4303" d="M202,98.372a4.12,4.12,0,0,1,2.048-1.721c1.28-.388,3.5-.6,2.905,0a7.3,7.3,0,0,1-2.54,1.031,7.9,7.9,0,0,1-1.083,1.348" transform="translate(-91.834 -48.748)" fill="#f2f1f7"/>
    <path id="Tracé_4304" data-name="Tracé 4304" d="M202.967,98.808a.118.118,0,0,1-.083-.035.113.113,0,0,1,0-.164,7.952,7.952,0,0,0,1.066-1.325.1.1,0,0,1,.071-.05,7.062,7.062,0,0,0,2.484-1.008c.06-.063.066-.093.066-.093a5.925,5.925,0,0,0-2.857.285,3.96,3.96,0,0,0-1.983,1.668.116.116,0,0,1-.2-.116,4.166,4.166,0,0,1,2.117-1.764c.814-.252,2.862-.607,3.119-.179.045.076.066.2-.1.368a6.936,6.936,0,0,1-2.55,1.051,7.871,7.871,0,0,1-1.078,1.33A.106.106,0,0,1,202.967,98.808Z" transform="translate(-91.476 -48.41)" fill="#1f4076"/>
  </g>
</svg>
