<svg xmlns="http://www.w3.org/2000/svg" xmlns:xlink="http://www.w3.org/1999/xlink" width="90.213" height="53.427" viewBox="0 0 90.213 53.427">
  <defs>
    <linearGradient id="linear-gradient" x1="-105.554" y1="0.261" x2="-105.469" y2="0.836" gradientUnits="objectBoundingBox">
      <stop offset="0.01"/>
      <stop offset="0.13" stop-opacity="0.69"/>
      <stop offset="1" stop-opacity="0"/>
    </linearGradient>
    <linearGradient id="linear-gradient-2" x1="31.403" y1="92.825" x2="31.412" y2="98.269" xlink:href="#linear-gradient"/>
    <linearGradient id="linear-gradient-3" x1="0.493" y1="-3.925" x2="0.502" y2="1.481" xlink:href="#linear-gradient"/>
    <linearGradient id="linear-gradient-4" x1="-0.205" y1="1.085" x2="0.405" y2="0.612" xlink:href="#linear-gradient"/>
    <linearGradient id="linear-gradient-5" x1="-0.19" y1="1.76" x2="0.744" y2="-0.007" xlink:href="#linear-gradient"/>
    <linearGradient id="linear-gradient-6" x1="0.493" y1="-3.923" x2="0.502" y2="1.477" xlink:href="#linear-gradient"/>
    <linearGradient id="linear-gradient-8" x1="-0.206" y1="1.085" x2="0.404" y2="0.614" xlink:href="#linear-gradient"/>
    <linearGradient id="linear-gradient-9" x1="0.654" y1="2.061" x2="0.454" y2="-0.195" xlink:href="#linear-gradient"/>
    <linearGradient id="linear-gradient-11" x1="-98.969" y1="0.169" x2="-98.884" y2="0.744" xlink:href="#linear-gradient"/>
    <linearGradient id="linear-gradient-12" x1="0.501" y1="3.132" x2="0.501" y2="0.224" xlink:href="#linear-gradient"/>
    <linearGradient id="linear-gradient-13" x1="1.091" y1="2.853" x2="0.387" y2="0.117" xlink:href="#linear-gradient"/>
    <linearGradient id="linear-gradient-14" x1="-0.876" y1="-0.544" x2="0.746" y2="0.47" xlink:href="#linear-gradient"/>
    <linearGradient id="linear-gradient-15" x1="0.454" y1="-5.689" x2="0.507" y2="1.43" xlink:href="#linear-gradient"/>
  </defs>
  <g id="Easter_meal_Monochromatic" data-name="Easter meal_Monochromatic" transform="translate(-43.117 -40.949)">
    <path id="Tracé_3125" data-name="Tracé 3125" d="M155.894,228.24a1.174,1.174,0,0,0,.546.76,1.226,1.226,0,0,0,.363.09c.918.127,1.841.208,2.764.245a1.272,1.272,0,0,0,.712-.115.808.808,0,0,0,.265-.951,1.492,1.492,0,0,0-.732-.743,10,10,0,0,0-.985-.414,7.478,7.478,0,0,0-1.655-.7c-.386-.062-1.174-.093-1.407.281S155.781,227.866,155.894,228.24Z" transform="translate(-88.139 -138.646)" fill="#282b2d"/>
    <path id="Tracé_3126" data-name="Tracé 3126" d="M162.492,183.849a7.088,7.088,0,0,1-3.186.357,26.528,26.528,0,0,0-3.763-9.266c-.45,2.913,1.312,5.947.422,8.756a1.019,1.019,0,0,1-.281.487,1.047,1.047,0,0,1-.6.18,8.289,8.289,0,0,1-3.161-.386,51.911,51.911,0,0,1-.341-15.593c.1-.757,5.534-.49,6.147-.4,2.029.31,1.737,2.218,2.218,3.991C161.006,175.872,162.492,179.75,162.492,183.849Z" transform="translate(-84.892 -96.605)" fill="#5c6f99"/>
    <path id="Tracé_3127" data-name="Tracé 3127" d="M181.746,99.937a4.739,4.739,0,0,0,.673-.692,4.639,4.639,0,0,0,.726-1.483,14.734,14.734,0,0,1,.346-1.866.408.408,0,0,1,.166-.2.18.18,0,0,1,.236.048.234.234,0,0,1,.02.158c-.014.135-.051.262-.073.394a.749.749,0,0,0,.025.394c.1.234.281-.194.335-.281.135-.208.256-.422.4-.625a1.689,1.689,0,0,1,.87-.69c.127.1.048.3-.037.433l-.526.844.766-.811a.386.386,0,0,1,.18-.127.132.132,0,0,1,.166.1.188.188,0,0,1-.045.113l-.588.844a2.342,2.342,0,0,1,.844-.732.121.121,0,0,1,.082-.017c.079.02.045.138,0,.2l-.782,1.027.625-.411a.166.166,0,0,1,.093-.037c.113,0,.09.186.017.281-.194.242-.462.417-.667.653-.346.4-.518.991-1,1.219a1.935,1.935,0,0,0-.329.149,12.719,12.719,0,0,0-.974,1.624q-.735.977-1.557,1.883a8.421,8.421,0,0,1-1.649,1.483,3.547,3.547,0,0,1-2.1.619.383.383,0,0,1-.445-.383c-.138-1.174.749-1.39,1.568-1.987Q180.476,101.066,181.746,99.937Z" transform="translate(-103.847 -44.313)" fill="#f2f1f7" stroke="#1f4076" stroke-width="0.2"/>
    <path id="Tracé_3128" data-name="Tracé 3128" d="M153.6,113.716l.056,2.032a1.168,1.168,0,0,0,.056.383,7.091,7.091,0,0,0,1.723,1.393c.214.008.521-.518.692-.645a.439.439,0,0,0,.138-.166.53.53,0,0,0,.025-.22v-1a1.889,1.889,0,0,0-.172-.929,4.1,4.1,0,0,0-.5-.563c-.158-.186-.211-.4-.388-.58" transform="translate(-86.653 -57.484)" fill="#f2f1f7" stroke="#1f4076" stroke-width="0.2"/>
    <path id="Tracé_3129" data-name="Tracé 3129" d="M155.668,117.739a.329.329,0,0,0,.189.121c.149.014.239-.158.262-.3a2.3,2.3,0,0,0-.068-.816,1.01,1.01,0,0,0-.158-.422,1.025,1.025,0,0,0-.267-.222,3.231,3.231,0,0,0-.383-.222c-.1-.045-.543-.281-.636-.16s.155.6.2.712A4.222,4.222,0,0,0,155.668,117.739Z" transform="translate(-87.362 -59.107)" fill="#5c6f99" opacity="0.244"/>
    <path id="Tracé_3130" data-name="Tracé 3130" d="M157.009,104.519a1.236,1.236,0,0,1-1.421.563,3.625,3.625,0,0,1-2.091-1.3,3.293,3.293,0,0,1-.664-2.359,4.163,4.163,0,0,1,1.25-2.477,1.534,1.534,0,0,1,1.126-.374,4.168,4.168,0,0,1,1.188.281,2.676,2.676,0,0,1,.844.431,2.474,2.474,0,0,1,.563,2.252c-.056.456.023.923-.068,1.357A3.994,3.994,0,0,1,157.009,104.519Z" transform="translate(-86.088 -46.809)" fill="#f2f1f7" stroke="#1f4076" stroke-width="0.2"/>
    <path id="Tracé_3131" data-name="Tracé 3131" d="M154.19,94.464a1.1,1.1,0,0,1-.369,1.036,2.919,2.919,0,0,0-.481-.979.67.67,0,0,0-.38-.281.8.8,0,0,0-.448.113,3.794,3.794,0,0,1-1.6.324.994.994,0,0,0-.678.129.845.845,0,0,0-.2.281l-.664,1.331a2.189,2.189,0,0,0-.172.4c-.1.349-.034.771-.281,1.027a2.21,2.21,0,0,0-.678-.937,3.487,3.487,0,0,1-.507-.419,1.815,1.815,0,0,1-.329-1.084,2.731,2.731,0,0,1,.281-1.689,1.135,1.135,0,0,1,1.489-.464c.251-.543.563-1.143,1.126-1.317.816-.253,1.925.411,2.657.723A2.21,2.21,0,0,1,154.19,94.464Z" transform="translate(-82.188 -42.006)" fill="#f2f1f7" stroke="#1f4076" stroke-width="0.2"/>
    <path id="Tracé_3132" data-name="Tracé 3132" d="M149.066,109.584a.481.481,0,0,0-.414.129c-.141.172-.045.428.084.605a1.863,1.863,0,0,0,1.354.74.124.124,0,0,0,.107-.028.121.121,0,0,0,.014-.1C150.108,110.217,149.891,109.64,149.066,109.584Z" transform="translate(-83.048 -54.722)" fill="#f2f1f7" stroke="#1f4076" stroke-width="0.2"/>
    <path id="Tracé_3133" data-name="Tracé 3133" d="M150.217,123.844a.507.507,0,0,1-.042.242.49.49,0,0,1-.231.186,4.523,4.523,0,0,1-.76.3,1.711,1.711,0,0,0-.937.453,1.429,1.429,0,0,0-.073,1.213c.63,2.5,1.579,5,1.435,7.577a1.3,1.3,0,0,1-.281.867,1.354,1.354,0,0,1-1,.281,1.188,1.188,0,0,1-.391.673,1.765,1.765,0,0,1-1,.281l-.3.02a27.368,27.368,0,0,1-4.019-.028,1.419,1.419,0,0,1-1.022-.372,1.466,1.466,0,0,1-.251-.636l-.16-.735c-.1-.47-.2-.943-.281-1.407a33.558,33.558,0,0,1-.726-5.393c-.031-.808-.056-1.258-.768-1.748-.335-.228-.676-.445-1.027-.647a.58.58,0,0,1-.217-.177.484.484,0,0,1-.062-.217,5.325,5.325,0,0,1,.563-2.7c.363-.85.875-.985,1.689-.521a4.819,4.819,0,0,0,1.526.611,2.781,2.781,0,0,1,.228-.18.737.737,0,0,1,.47-.189c.343.023.445.563.9.881a1.013,1.013,0,0,0,1.179.045c.186-.149.281-.38.49-.509a1.249,1.249,0,0,1,.4-.138h.017l3.465-.763a.459.459,0,0,1,.3,0,.425.425,0,0,1,.163.174A4.929,4.929,0,0,1,150.217,123.844Z" transform="translate(-75.49 -62.987)" fill="#1f4076"/>
    <path id="Tracé_3135" data-name="Tracé 3135" d="M148.346,164a1.631,1.631,0,0,1-.127-.363,6.666,6.666,0,0,1-.169-1.053C148.143,163.053,148.244,163.526,148.346,164Z" transform="translate(-82.665 -92.807)" fill="#68e1fd"/>
    <path id="Tracé_3136" data-name="Tracé 3136" d="M140.237,127.264a1.09,1.09,0,0,1-.025.2,1.48,1.48,0,0,1-.248.656.7.7,0,0,1-.605.3.923.923,0,0,1-.659-.614,2.685,2.685,0,0,1-.214-1.295.242.242,0,0,1,.141-.239,5.274,5.274,0,0,0,.9-.6C140.313,125.007,140.313,126.58,140.237,127.264Z" transform="translate(-75.787 -66.172)" fill="#0c2650"/>
    <path id="Tracé_3137" data-name="Tracé 3137" d="M116.5,100.035a4.99,4.99,0,0,1-.7-.721,4.864,4.864,0,0,1-.757-1.548,15.033,15.033,0,0,0-.36-1.942.4.4,0,0,0-.172-.211.189.189,0,0,0-.245.051.239.239,0,0,0-.023.166c.014.138.053.281.076.408a.78.78,0,0,1-.025.411c-.1.242-.281-.2-.349-.281-.141-.217-.281-.442-.419-.65a1.739,1.739,0,0,0-.906-.718c-.129.1-.051.31.037.453l.563.875-.8-.844a.386.386,0,0,0-.189-.135.138.138,0,0,0-.172.107.183.183,0,0,0,.048.115l.614.889a2.435,2.435,0,0,0-.878-.76.121.121,0,0,0-.087-.02c-.082.02-.045.144,0,.211l.813,1.07-.65-.428a.155.155,0,0,0-.1-.037c-.118,0-.093.191-.02.281.205.253.484.433.7.678.36.419.54,1.033,1.041,1.269a2.363,2.363,0,0,1,.343.155,12.592,12.592,0,0,1,1.013,1.689q.768,1.019,1.621,1.97a8.979,8.979,0,0,0,1.72,1.548,3.7,3.7,0,0,0,2.187.642.394.394,0,0,0,.464-.4c.144-1.222-.78-1.444-1.633-2.066Q117.822,101.212,116.5,100.035Z" transform="translate(-56.552 -44.248)" fill="#f2f1f7" stroke="#5c6f99" stroke-width="0.2"/>
    <path id="Tracé_3138" data-name="Tracé 3138" d="M164.111,114.492a.132.132,0,0,0-.076.017.116.116,0,0,0-.042.076.746.746,0,0,0,.118.546.532.532,0,0,0,.217.222.419.419,0,0,0,.428-.07c.155-.121.459-.588.3-.774S164.31,114.477,164.111,114.492Z" transform="translate(-94.113 -58.201)" fill="#5c6f99"/>
    <path id="Tracé_3140" data-name="Tracé 3140" d="M281.926,214.367a3.289,3.289,0,0,1-1.424,1.269,1.126,1.126,0,0,0-.408.338.391.391,0,0,0,.028.49.563.563,0,0,0,.383.1,10.377,10.377,0,0,0,2.995-.45.315.315,0,0,0,.281-.324,12.444,12.444,0,0,0-.3-4.9c-.2-.754-1.354.417-1.452.844C281.833,212.611,282.329,213.5,281.926,214.367Z" transform="translate(-177.491 -127.34)" fill="#f2f1f7" stroke="#1f4076" stroke-width="0.2"/>
    <path id="Tracé_3141" data-name="Tracé 3141" d="M299.587,214.367a3.289,3.289,0,0,1-1.424,1.269,1.126,1.126,0,0,0-.408.338.388.388,0,0,0,.031.49.563.563,0,0,0,.38.1,10.4,10.4,0,0,0,3-.45.31.31,0,0,0,.282-.324,12.445,12.445,0,0,0-.3-4.9c-.2-.754-1.351.417-1.45.844C299.495,212.611,299.993,213.5,299.587,214.367Z" transform="translate(-190.181 -127.34)" fill="#f2f1f7" stroke="#1f4076" stroke-width="0.2"/>
    <path id="Tracé_3142" data-name="Tracé 3142" d="M281.612,154s-2.356,6.192-1.331,10.262a53.768,53.768,0,0,1,1.331,7.234l2.266-.538s-.155-8.3,0-8.658,3.054-7.915,3.054-7.915Z" transform="translate(-177.492 -86.642)" fill="#1f4076"/>
    <path id="Tracé_3143" data-name="Tracé 3143" d="M297.2,150.326s-.706,9.412,0,11.912,1.641,6.192,1.641,6.192h2.252s-.616-7.093,0-9.052,2.252-8.52,1.858-9.7S297.2,150.326,297.2,150.326Z" transform="translate(-189.608 -83.249)" fill="#1f4076"/>
    <path id="Tracé_3144" data-name="Tracé 3144" d="M243.48,100.269a18.6,18.6,0,0,1-1.813,1.759.628.628,0,0,1-.3.166.636.636,0,0,1-.377-.118,34.539,34.539,0,0,0-5.629-1.317,7.652,7.652,0,0,1-1.523-.369,9.5,9.5,0,0,0-1.177-.563,1.571,1.571,0,0,0,.428.906,6.806,6.806,0,0,1-2.59.172c-.115.222.149.442.374.546a12.187,12.187,0,0,0,2.066.735,2.252,2.252,0,0,0,1.148.07,2.066,2.066,0,0,1,.4-.1,1.126,1.126,0,0,1,.563.152,29.491,29.491,0,0,0,4.36,1.669,4.667,4.667,0,0,0,2.612.194,5.151,5.151,0,0,0,1.182-.588,11.411,11.411,0,0,0,2.063-1.475,5.759,5.759,0,0,0,1.357-2.029,2.01,2.01,0,0,0,.1-1.523c-.563-1.23-1.526-.321-2.091.377C244.231,99.4,243.863,99.847,243.48,100.269Z" transform="translate(-141.887 -46.365)" fill="#f2f1f7" stroke="#1f4076" stroke-width="0.2"/>
    <path id="Tracé_3145" data-name="Tracé 3145" d="M289.426,95.9a3.047,3.047,0,0,1,.749,2.108,44.242,44.242,0,0,0,.132,5.117,13.114,13.114,0,0,0,.563,1.97q.766,2.207,1.737,4.34a1.3,1.3,0,0,1,.172.844,1.126,1.126,0,0,1-.45.563,4.34,4.34,0,0,1-3.262.791c-.281-.045-.563-.121-.844-.158a9.988,9.988,0,0,0-1.641.02,17.27,17.27,0,0,1-3.7-.4,11.267,11.267,0,0,1,.659-3.251,4.511,4.511,0,0,0-.084-3.254c-.394-.743-1.126-1.281-1.407-2.072a6.25,6.25,0,0,1-.062-2.336c.042-1.388-.411-2.8-.065-4.14a2.167,2.167,0,0,1,.844-1.3,3.813,3.813,0,0,1,3.392-.107C287.174,95.069,288.607,95.13,289.426,95.9Z" transform="translate(-178.765 -43.743)" fill="#fce15c"/>
    <path id="Tracé_3147" data-name="Tracé 3147" d="M289.356,91.237c-.022.315-.017.7.251.867a.822.822,0,0,0,.687,0,1.568,1.568,0,0,0,.538-.25,1.712,1.712,0,0,0,.405-.512,3.544,3.544,0,0,0,.54-1.441,1.63,1.63,0,0,0-.523-1.407.766.766,0,0,0-.681-.18,1.022,1.022,0,0,0-.31.175c-.391.281-.954.529-.965,1.07S289.356,90.68,289.356,91.237Z" transform="translate(-184.155 -39.43)" fill="#f2f1f7" stroke="#1f4076" stroke-width="0.2"/>
    <path id="Tracé_3148" data-name="Tracé 3148" d="M290.538,91.8a1,1,0,0,1-.442.431.49.49,0,0,1-.563-.118.721.721,0,0,1-.113-.349l-.186-1.219a.35.35,0,0,1,0-.194.419.419,0,0,1,.082-.1,5.572,5.572,0,0,1,.912-.729,1.629,1.629,0,0,1,.509-.281c.211-.017.166.1.177.315A3.965,3.965,0,0,1,290.538,91.8Z" transform="translate(-184.101 -40.106)" fill="#5c6f99" opacity="0.26"/>
    <path id="Tracé_3149" data-name="Tracé 3149" d="M275.133,77.3a1.331,1.331,0,0,0,.1.965c.152.225.439.349.546.6a1.646,1.646,0,0,1,.023.7,1.39,1.39,0,0,0,1.52,1.354,2.49,2.49,0,0,0,1.464-1.041q.422-.54.844-1.109a.909.909,0,0,0,.189-.414.862.862,0,0,0-.1-.405,7.484,7.484,0,0,0-2.857-3.335c-.586-.366-1.126-.642-1.334.163A24.622,24.622,0,0,0,275.133,77.3Z" transform="translate(-173.943 -29.336)" fill="#f2f1f7" stroke="#1f4076" stroke-width="0.2"/>
    <path id="Tracé_3150" data-name="Tracé 3150" d="M276.52,76.868a3.561,3.561,0,0,0,.681,1.261,3.139,3.139,0,0,0,1.008.659,2.516,2.516,0,0,0,2.6-.025,4.47,4.47,0,0,0,1.278-2.5,3.144,3.144,0,0,0-1.157-2.252,3.553,3.553,0,0,0-2.941-.844c-.9.053-1.779.349-2.015,1.326A4.867,4.867,0,0,0,276.52,76.868Z" transform="translate(-174.559 -28.551)" fill="#f2f1f7" stroke="#1f4076" stroke-width="0.2"/>
    <path id="Tracé_3151" data-name="Tracé 3151" d="M275.2,63.589a.42.42,0,0,1-.1.127.66.66,0,0,0,.236.94,2.474,2.474,0,0,0,1.106.189,5.3,5.3,0,0,0,1.216-.138,2.392,2.392,0,0,0,.563.732.822.822,0,0,0,.867.132c.059-.034.127-.079.191-.051a.186.186,0,0,1,.068.056,4,4,0,0,1,.664,1.126.183.183,0,0,0,.037.065c.079.065.172-.062.2-.16.084-.245.327-.481.563-.4a.481.481,0,0,1,.281.346.718.718,0,0,1-.507.9,3.659,3.659,0,0,1,.149,1.6c-.031.3-.115.923.211,1.106a.394.394,0,0,0,.473-.082.428.428,0,0,0,.808.2A1.168,1.168,0,0,0,284,70.232a.411.411,0,0,0,.521-.493c-.062-.169-.228-.386-.079-.487.053-.034.127-.028.18-.062a.262.262,0,0,0,.1-.2,2.086,2.086,0,0,0-.225-1.32.672.672,0,0,1-.11-.281.892.892,0,0,1,.127-.386.844.844,0,0,0-.141-.83c-.068-.079-.155-.155-.16-.256s.062-.177.087-.267a.563.563,0,0,0-.194-.507,1.489,1.489,0,0,1-.363-.436c-.107-.265.22-.583.228-.9a1.534,1.534,0,0,0-.341-1.013,3.422,3.422,0,0,0-1.126-.653c-.563-.3-1.022-.766-1.59-1.05a5.793,5.793,0,0,0-1.264-.4,4.155,4.155,0,0,0-1.472-.155,2.468,2.468,0,0,0-1.9,1.81.366.366,0,0,1-.107.2.332.332,0,0,1-.217.042,1.3,1.3,0,0,0-.65.093.456.456,0,0,0-.248.563C275.114,63.35,275.252,63.476,275.2,63.589Z" transform="translate(-173.876 -19.48)" fill="#f2f1f7" stroke="#1f4076" stroke-width="0.2"/>
    <path id="Tracé_3152" data-name="Tracé 3152" d="M272.855,104.293a18.381,18.381,0,0,1-.965,2.333.611.611,0,0,1-.211.281.645.645,0,0,1-.394.039,34.276,34.276,0,0,0-5.694,1.027,7.369,7.369,0,0,1-1.542.262,9.329,9.329,0,0,0-1.3-.042,1.571,1.571,0,0,0,.754.661,6.91,6.91,0,0,1-2.311,1.188c-.017.248.312.346.563.352a12.4,12.4,0,0,0,2.19-.146,2.252,2.252,0,0,0,1.081-.391,2.034,2.034,0,0,1,.329-.256,1.148,1.148,0,0,1,.563-.076,30.02,30.02,0,0,0,4.664-.2,4.627,4.627,0,0,0,2.474-.858,5.167,5.167,0,0,0,.844-1.01,11.427,11.427,0,0,0,1.306-2.17,5.763,5.763,0,0,0,.439-2.4,1.994,1.994,0,0,0-.515-1.435c-1-.909-1.528.312-1.77,1.177C273.2,103.2,273.038,103.755,272.855,104.293Z" transform="translate(-163.959 -48.652)" fill="#f2f1f7" stroke="#1f4076" stroke-width="0.2"/>
    <path id="Tracé_3153" data-name="Tracé 3153" d="M280.573,227.79a.529.529,0,0,1-.166.093c-.169.062-.324.149-.5.2a3.852,3.852,0,0,1-.67.127,4,4,0,0,1-1.357-.087,1.71,1.71,0,0,0-.591-.087,1.455,1.455,0,0,0-.639.3c-.141.1-.281.2-.414.3a1.592,1.592,0,0,0-.346.355.13.13,0,0,0-.028.1.113.113,0,0,0,.042.053,1.1,1.1,0,0,0,.726.208,4.974,4.974,0,0,0,.788-.09c1.126-.191,2.252-.436,3.378-.726a.234.234,0,0,0,.228-.29l-.025-.521c0-.084-.034-.191-.118-.189a.175.175,0,0,0-.1.059C280.7,227.669,280.644,227.734,280.573,227.79Z" transform="translate(-174.505 -139.483)" fill="#1f4076"/>
    <path id="Tracé_3154" data-name="Tracé 3154" d="M298.523,227.172a.585.585,0,0,1-.169.1c-.166.059-.321.146-.493.2a4.192,4.192,0,0,1-.67.127,4.07,4.07,0,0,1-1.348-.082,1.729,1.729,0,0,0-.594-.087,1.444,1.444,0,0,0-.636.3c-.141.1-.281.194-.417.3a1.591,1.591,0,0,0-.343.357.113.113,0,0,0-.028.1.1.1,0,0,0,.042.056,1.084,1.084,0,0,0,.723.205,4.656,4.656,0,0,0,.791-.087q1.689-.281,3.364-.729a.3.3,0,0,0,.2-.113.282.282,0,0,0,.025-.175l-.023-.523c0-.082-.037-.189-.118-.186a.161.161,0,0,0-.1.056A2.088,2.088,0,0,1,298.523,227.172Z" transform="translate(-187.409 -139.044)" fill="#1f4076"/>
    <rect id="Rectangle_1949" data-name="Rectangle 1949" width="2.173" height="6.8" transform="translate(89.101 82.847)" fill="#68e1fd"/>
    <rect id="Rectangle_1950" data-name="Rectangle 1950" width="2.173" height="6.8" transform="translate(89.101 82.847)" fill="#1f4076"/>
    <path id="Tracé_3155" data-name="Tracé 3155" d="M333.22,162.436l-.538,3.659-1.072,7.318a5.738,5.738,0,0,0,1.455.115l.844-7c.138-1.151.18-2.364.417-3.5.225-1.064,2.167-1.2,2.685-.318a2.39,2.39,0,0,1,.259.937,36.013,36.013,0,0,1-.692,10.158,13.789,13.789,0,0,0,2.285-.115l-.281-3.611c-.115-1.461-.231-2.924-.234-4.391a5.42,5.42,0,0,1,.456-2.57,1.952,1.952,0,0,1,2.347-1.053,28.948,28.948,0,0,0,3.834.113c1.092.053.873.681.9,1.652q.042,1.689.113,3.378t.163,3.378c.02.36-.037,3.121.206,3.231.422.191,1.053.312,1.241-.115a.844.844,0,0,0,.048-.366c-.034-3.659-.408-7.253-.563-10.887a51.8,51.8,0,0,1,.439-5.925,67.434,67.434,0,0,0,.327-8.188c-.177-3.659-2.691-2.9-2.691-2.9l-7.442,8.725-2.384,2.792A7.819,7.819,0,0,0,333.718,159a16.8,16.8,0,0,0-.442,3.175Zm7.2-3.116,2.024-3.451h4.135l-.225,3.766Z" transform="translate(-214.559 -80.442)" fill="#5c6f99"/>
    <path id="Tracé_3156" data-name="Tracé 3156" d="M326.486,174.776a8.654,8.654,0,0,1,.1,2.623,2.928,2.928,0,0,1-1.374,2.142,4.334,4.334,0,0,1-1.858.372q-3.155.16-6.308.363c-1.63.1-2.792,1.48-4.368,1.911a68.116,68.116,0,0,0,1.216,10.1l-3.482.025a28.552,28.552,0,0,1-2.032-8.725,4.045,4.045,0,0,1,1.928-4.943l5.629-4.039a4.192,4.192,0,0,1,4.067-1.016C322.036,173.907,324.417,174.456,326.486,174.776Z" transform="translate(-197.785 -100.624)" fill="#fce15c"/>
    <path id="Tracé_3157" data-name="Tracé 3157" d="M326.47,177.734a6.336,6.336,0,0,1-1.784,1.663l-3.859,2.747a3.908,3.908,0,0,0-1.407,1.427,2.342,2.342,0,0,0-.183.991c.031,1.571,1.222,2.668,1.79,4.025q.98,2.339,2.159,4.588a.445.445,0,0,0,.453.307,4.247,4.247,0,0,0,3.378-.991,1.494,1.494,0,0,1-.3-.425,17.293,17.293,0,0,1-1.359-2.556,10.5,10.5,0,0,1-.5-3.1,2.893,2.893,0,0,1,.1-.934c.349-1.126,1.638-1.573,2.73-1.97a19.485,19.485,0,0,0,5.007-2.77,5.444,5.444,0,0,0,1.725-1.911,5.71,5.71,0,0,0,.414-1.945,1.024,1.024,0,0,0-.045-.507,1.066,1.066,0,0,0-.811-.476q-1.866-.419-3.746-.785a4.784,4.784,0,0,0-1.582-.124C327.25,175.178,327.106,176.712,326.47,177.734Z" transform="translate(-205.667 -101.712)" fill="#fce15c"/>
    <path id="Tracé_3158" data-name="Tracé 3158" d="M370.525,147.392a1.619,1.619,0,0,1,2.291,1.281c.355,2.021-.146,8.064-.146,8.064h-5.21l2.967-9.077" transform="translate(-240.319 -81.799)" fill="#1f4076" stroke="#f2f1f7" stroke-width="0.1"/>
    <path id="Tracé_3159" data-name="Tracé 3159" d="M291.394,136.6a1.177,1.177,0,0,0,.906.9,2.406,2.406,0,0,0-1.044.357.828.828,0,0,0-.318.977,1.185,1.185,0,0,0,1.016.481c3.921.377,7.839-.563,11.63-1.635.729-.2,1.821-.774,1.188-1.689-.49-.706-1.424-.245-2.086-.068a28.58,28.58,0,0,1-7.158.957A28.248,28.248,0,0,1,291.394,136.6Z" transform="translate(-185.298 -73.428)" fill="#f2f1f7" stroke="#1f4076" stroke-width="0.2"/>
    <path id="Tracé_3160" data-name="Tracé 3160" d="M338.116,138.134a1.534,1.534,0,0,0,.366.979,1.756,1.756,0,0,0,.9.386,30.961,30.961,0,0,0,8.492.616c-.031-1.343.929-2.491,1.267-3.789a10.827,10.827,0,0,0,.2-2.339,18.58,18.58,0,0,1,.456-3.479,6.463,6.463,0,0,0,.281-2.995,3.62,3.62,0,0,0-1.447-1.97c-2.5-1.818-5.629-.909-7.6,1.233-1.559,1.689-.965,4.3-1.666,6.375C338.826,134.762,337.967,136.372,338.116,138.134Z" transform="translate(-219.222 -65.495)" fill="#1f4076" stroke="#f2f1f7" stroke-width="0.1"/>
    <path id="Tracé_3162" data-name="Tracé 3162" d="M335.831,128.695a.532.532,0,0,0-.281.149.5.5,0,0,0-.084.239,7.944,7.944,0,0,0-.076,1.714.923.923,0,0,0,.31.749.949.949,0,0,0,.678.059,23.686,23.686,0,0,0,2.615-.58,6.728,6.728,0,0,0,1.689-.664,1.568,1.568,0,0,0,.5-.436,1.928,1.928,0,0,0,.211-.473,3.53,3.53,0,0,0,.265-1.227c0-.394-.225-1.053-.687-1.126s-1.146.363-1.568.512C338.212,128.028,337.024,128.388,335.831,128.695Z" transform="translate(-217.263 -67.307)" fill="#1f4076"/>
    <path id="Tracé_3163" data-name="Tracé 3163" d="M353.431,104.182c-.3,1-1.953,1.672-2.843,1.649a.324.324,0,0,1-.211-.056c-.087-.079-.07-.214-.051-.329a6.245,6.245,0,0,0,.062-1.652.312.312,0,0,0-.113-.248.3.3,0,0,0-.186-.023,4.214,4.214,0,0,1-1.835.031,1.512,1.512,0,0,1-.909-.92,2.814,2.814,0,0,1-.082-1.106,24.3,24.3,0,0,1,.366-2.922,5.567,5.567,0,0,1,.473-1.537,2.232,2.232,0,0,1,1.14-1.092,3.445,3.445,0,0,1,1.177-.155,6.67,6.67,0,0,1,2.7.366,2.117,2.117,0,0,1,1.23,1.34,2.866,2.866,0,0,1-.1,1.385c-.425,1.647-1.081,3.048-.791,4.785A1.1,1.1,0,0,1,353.431,104.182Z" transform="translate(-225.792 -44.837)" fill="#f2f1f7" stroke="#1f4076" stroke-width="0.2"/>
    <path id="Tracé_3164" data-name="Tracé 3164" d="M348.089,93.045a1.168,1.168,0,0,0,.183.844c.281.363.822.374,1.286.394a7.675,7.675,0,0,1,1.16.141.352.352,0,0,1,.228.11c.045.062.048.146.1.2a.315.315,0,0,0,.211.084l1.34.189a4.807,4.807,0,0,1-.391,2.131.6.6,0,0,1,.808-.239.715.715,0,0,1,.3.819.87.87,0,0,1-.692.563c.206,0,.343.208.47.374s.332.332.521.239a.489.489,0,0,0,.186-.205c.355-.594.687-1.2.991-1.824a5.216,5.216,0,0,0,.712-2.815,1.126,1.126,0,0,0-.228-.622.529.529,0,0,0-.605-.183,1.43,1.43,0,0,0-.844-1.272,3.4,3.4,0,0,0-1.582-.267,7.737,7.737,0,0,1-1.616-.059,10.051,10.051,0,0,0-1.126-.259C348.506,91.32,348.162,92.223,348.089,93.045Z" transform="translate(-226.389 -41.652)" fill="#f2f1f7" stroke="#1f4076" stroke-width="0.2"/>
    <ellipse id="Ellipse_321" data-name="Ellipse 321" cx="0.183" cy="1.72" rx="0.183" ry="1.72" transform="translate(73.433 59.945) rotate(-78.93)" fill="url(#linear-gradient)"/>
    <path id="Tracé_3165" data-name="Tracé 3165" d="M180.124,116.863h0a2.359,2.359,0,0,1-.084.31,1.536,1.536,0,0,1-.281.478l-.017.02a1.174,1.174,0,0,1-.231.2,1.618,1.618,0,0,1-1.23.205,1.492,1.492,0,0,1-.946-.563,1.09,1.09,0,0,1-.141-.242,1.407,1.407,0,0,1-.11-.5,2.018,2.018,0,0,1,.039-.507.109.109,0,0,1,.014-.065c.014-.023.028-.121.048-.183a3.653,3.653,0,0,1,.138-.38,3.034,3.034,0,0,1,1.182-1.441.9.9,0,0,1,.6-.113C179.935,114.265,180.324,115.833,180.124,116.863Z" transform="translate(-103.525 -57.949)" fill="#68e1fd"/>
    <path id="Tracé_3166" data-name="Tracé 3166" d="M180.124,116.863h0a2.359,2.359,0,0,1-.084.31,1.536,1.536,0,0,1-.281.478l-.017.02a1.174,1.174,0,0,1-.231.2,1.618,1.618,0,0,1-1.23.205,1.492,1.492,0,0,1-.946-.563,1.09,1.09,0,0,1-.141-.242,1.407,1.407,0,0,1-.11-.5,2.018,2.018,0,0,1,.039-.507.109.109,0,0,1,.014-.065c.014-.023.028-.121.048-.183a3.653,3.653,0,0,1,.138-.38,3.034,3.034,0,0,1,1.182-1.441.9.9,0,0,1,.6-.113C179.935,114.265,180.324,115.833,180.124,116.863Z" transform="translate(-103.525 -57.949)" fill="#1f4076"/>
    <path id="Tracé_3167" data-name="Tracé 3167" d="M181.162,116.9a1.643,1.643,0,0,1-.383.808,1.725,1.725,0,0,1-1.053.1,1.387,1.387,0,0,1-1.157-1.8,3.574,3.574,0,0,1,.974-1.77.9.9,0,0,1,.6-.113C180.973,114.3,181.364,115.877,181.162,116.9Z" transform="translate(-104.563 -57.985)" fill="#68e1fd"/>
    <path id="Tracé_3168" data-name="Tracé 3168" d="M181.162,116.9a1.643,1.643,0,0,1-.383.808,1.725,1.725,0,0,1-1.053.1,1.387,1.387,0,0,1-1.157-1.8,3.574,3.574,0,0,1,.974-1.77.9.9,0,0,1,.6-.113C180.973,114.3,181.364,115.877,181.162,116.9Z" transform="translate(-104.563 -57.985)" fill="#5c6f99"/>
    <path id="Tracé_3169" data-name="Tracé 3169" d="M152.7,98.47l.3.172.476-.1.332.262.414-.115.3.3.4-.158.321.18.034.281-.349-.228-.54.127-.27-.287-.405.175-.335-.355-.529.248-.287-.251Z" transform="translate(-78.638 -41.259)" fill="#68e1fd"/>
    <path id="Tracé_3170" data-name="Tracé 3170" d="M152.7,98.47l.3.172.476-.1.332.262.414-.115.3.3.4-.158.321.18.034.281-.349-.228-.54.127-.27-.287-.405.175-.335-.355-.529.248-.287-.251Z" transform="translate(-78.638 -41.259)" fill="#fff"/>
    <path id="Tracé_3171" data-name="Tracé 3171" d="M180.124,122.143h0a2.357,2.357,0,0,1-.084.31,1.178,1.178,0,0,1-.163-.211.332.332,0,0,0-.124-.146.222.222,0,0,0-.208.031c-.062.037-.118.087-.183.118a.36.36,0,0,1-.3,0,1.033,1.033,0,0,1-.231-.183.386.386,0,0,0-.259-.121c-.141,0-.245.135-.374.2a.408.408,0,0,1-.473-.11c-.065-.079-.11-.191-.208-.217a.281.281,0,0,0-.251.107.509.509,0,0,1-.186.138,2.019,2.019,0,0,1,.039-.507.109.109,0,0,1,.014-.065h0a.338.338,0,0,1,.408,0c.062.056.1.132.16.191a.419.419,0,0,0,.349.115.723.723,0,0,0,.372-.214c.076-.068.2-.025.281.02a.667.667,0,0,1,.22.205c.073.1.144.211.262.234a.352.352,0,0,0,.326-.177.231.231,0,0,1,.11-.11.206.206,0,0,1,.1,0,.358.358,0,0,1,.267.1c.065.079.053.2.115.281Z" transform="translate(-103.525 -63.229)" fill="#fff" opacity="0.74"/>
    <path id="Tracé_3172" data-name="Tracé 3172" d="M180.066,125.595l-.017.02a1.175,1.175,0,0,1-.231.2.766.766,0,0,1-.234-.068c-.118-.056-.217-.149-.338-.2-.265-.1-.563.031-.844-.034a2.531,2.531,0,0,1-.281-.1.453.453,0,0,0-.3-.023c-.059.023-.11.062-.166.082a1.09,1.09,0,0,1-.141-.242.8.8,0,0,0,.332-.042.563.563,0,0,1,.369-.07.709.709,0,0,1,.166.11.636.636,0,0,0,.3.129.414.414,0,0,0,.186,0c.045,0,.084-.037.127-.051a.645.645,0,0,1,.281-.017.361.361,0,0,1,.135.025.746.746,0,0,1,.177.149A.7.7,0,0,0,180.066,125.595Z" transform="translate(-103.833 -65.881)" fill="#fff"/>
    <circle id="Ellipse_322" data-name="Ellipse 322" cx="0.203" cy="0.203" r="0.203" transform="translate(74.333 57.859)" fill="#fff"/>
    <circle id="Ellipse_323" data-name="Ellipse 323" cx="0.203" cy="0.203" r="0.203" transform="translate(75.222 57.966)" fill="#fff"/>
    <circle id="Ellipse_324" data-name="Ellipse 324" cx="0.203" cy="0.203" r="0.203" transform="translate(75.971 58.019)" fill="#fff"/>
    <path id="Tracé_3173" data-name="Tracé 3173" d="M177.731,119.954a.2.2,0,0,1-.239.16l-.042-.014a3.653,3.653,0,0,1,.138-.38A.2.2,0,0,1,177.731,119.954Z" transform="translate(-103.79 -62.01)" fill="#fff"/>
    <path id="Tracé_3174" data-name="Tracé 3174" d="M177.71,123.966h-.023a.046.046,0,0,0,0,.02v.034a.062.062,0,0,0,0,.023c0,.02.025.031.045.034a.3.3,0,0,0,.1,0,.954.954,0,0,1,.281.025.056.056,0,0,0,.056,0c.042-.051-.11-.113-.146-.124A.673.673,0,0,0,177.71,123.966Z" transform="translate(-103.96 -65.052)" fill="#fff"/>
    <path id="Tracé_3175" data-name="Tracé 3175" d="M181.248,124.448a.175.175,0,0,0-.11.045.059.059,0,0,0,0,.02c0,.017.02.023.037.023l.422.07c.042,0,.087-.017.084-.065s-.039-.056-.076-.068A.845.845,0,0,0,181.248,124.448Z" transform="translate(-106.439 -65.402)" fill="#fff"/>
    <path id="Tracé_3176" data-name="Tracé 3176" d="M184.6,124.822a.692.692,0,0,0-.2-.023c-.017,0-.039,0-.045.023a.039.039,0,0,0,0,.045.177.177,0,0,0,.1.065l.121.028c.087.023.175.079.262.059h.014c.014,0-.025-.124-.062-.144A.709.709,0,0,0,184.6,124.822Z" transform="translate(-108.744 -65.66)" fill="#fff"/>
    <ellipse id="Ellipse_325" data-name="Ellipse 325" cx="1.438" cy="0.152" rx="1.438" ry="0.152" transform="matrix(0.892, -0.452, 0.452, 0.892, 78.483, 60.442)" fill="url(#linear-gradient-2)"/>
    <path id="Tracé_3177" data-name="Tracé 3177" d="M194.041,118.671h0a1.8,1.8,0,0,1,.1.248,1.292,1.292,0,0,1,.062.462v.023a1.017,1.017,0,0,1-.048.248,1.357,1.357,0,0,1-.709.771,1.261,1.261,0,0,1-.906.127,1.126,1.126,0,0,1-.22-.09,1.224,1.224,0,0,1-.329-.281,1.8,1.8,0,0,1-.234-.355l-.025-.053c-.023-.045-.042-.093-.062-.144a2.674,2.674,0,0,1-.1-.321,2.533,2.533,0,0,1,.037-1.562.794.794,0,0,1,.341-.386C192.577,117.053,193.641,117.889,194.041,118.671Z" transform="translate(-113.86 -60.266)" fill="#68e1fd"/>
    <path id="Tracé_3178" data-name="Tracé 3178" d="M194.041,118.671h0a1.8,1.8,0,0,1,.1.248,1.292,1.292,0,0,1,.062.462v.023a1.017,1.017,0,0,1-.048.248,1.357,1.357,0,0,1-.709.771,1.261,1.261,0,0,1-.906.127,1.126,1.126,0,0,1-.22-.09,1.224,1.224,0,0,1-.329-.281,1.8,1.8,0,0,1-.234-.355l-.025-.053c-.023-.045-.042-.093-.062-.144a2.674,2.674,0,0,1-.1-.321,2.533,2.533,0,0,1,.037-1.562.794.794,0,0,1,.341-.386C192.577,117.053,193.641,117.889,194.041,118.671Z" transform="translate(-113.86 -60.266)" fill="#1f4076"/>
    <path id="Tracé_3179" data-name="Tracé 3179" d="M194.324,118.7a1.36,1.36,0,0,1,.163.732,1.407,1.407,0,0,1-.642.611,1.16,1.16,0,0,1-1.689-.591,3.006,3.006,0,0,1-.281-1.672.794.794,0,0,1,.341-.386C192.858,117.075,193.928,117.914,194.324,118.7Z" transform="translate(-114.14 -60.289)" fill="#68e1fd"/>
    <path id="Tracé_3180" data-name="Tracé 3180" d="M194.324,118.7a1.36,1.36,0,0,1,.163.732,1.407,1.407,0,0,1-.642.611,1.16,1.16,0,0,1-1.689-.591,3.006,3.006,0,0,1-.281-1.672.794.794,0,0,1,.341-.386C192.858,117.075,193.928,117.914,194.324,118.7Z" transform="translate(-114.14 -60.289)" fill="#5c6f99"/>
    <path id="Tracé_3181" data-name="Tracé 3181" d="M165.72,100.917l.284-.039.259-.312h.355l.214-.29.355.039.183-.312.3-.042.169.166-.349.028-.29.363-.327-.048-.177.324-.405-.065-.22.436-.321-.017Z" transform="translate(-88.094 -42.329)" fill="#68e1fd"/>
    <path id="Tracé_3182" data-name="Tracé 3182" d="M165.72,100.917l.284-.039.259-.312h.355l.214-.29.355.039.183-.312.3-.042.169.166-.349.028-.29.363-.327-.048-.177.324-.405-.065-.22.436-.321-.017Z" transform="translate(-88.094 -42.329)" fill="#fff"/>
    <path id="Tracé_3183" data-name="Tracé 3183" d="M194.728,121.87h0a1.8,1.8,0,0,1,.1.248.976.976,0,0,1-.217-.053.281.281,0,0,0-.155-.034.191.191,0,0,0-.124.127,1.591,1.591,0,0,1-.059.175.281.281,0,0,1-.194.155.793.793,0,0,1-.245,0,.338.338,0,0,0-.234.053c-.09.076-.09.217-.146.324a.338.338,0,0,1-.369.172c-.084-.02-.172-.07-.251-.037s-.1.121-.107.2a.42.42,0,0,1-.053.189,1.8,1.8,0,0,1-.234-.355l-.025-.053h0a.281.281,0,0,1,.281-.205,1.774,1.774,0,0,1,.205.042.343.343,0,0,0,.281-.1.636.636,0,0,0,.138-.335c.014-.082.118-.118.2-.135a.563.563,0,0,1,.248.023.417.417,0,0,0,.3.02.281.281,0,0,0,.121-.281.222.222,0,0,1,.017-.129.188.188,0,0,1,.062-.059.312.312,0,0,1,.228-.07c.082.02.138.1.22.124Z" transform="translate(-114.547 -63.466)" fill="#fff" opacity="0.74"/>
    <path id="Tracé_3184" data-name="Tracé 3184" d="M196.442,124.73v.023a1.015,1.015,0,0,1-.048.248.6.6,0,0,1-.191.079,1.787,1.787,0,0,0-.324.042c-.228.068-.36.312-.563.414a2.537,2.537,0,0,1-.248.079.4.4,0,0,0-.211.144c-.028.042-.039.1-.068.141a1.125,1.125,0,0,1-.22-.09.667.667,0,0,0,.2-.2c.056-.093.1-.2.205-.236a.561.561,0,0,1,.169,0,.563.563,0,0,0,.262-.068.341.341,0,0,0,.121-.1c.023-.031.037-.068.056-.1a.608.608,0,0,1,.18-.158.349.349,0,0,1,.1-.053.748.748,0,0,1,.194,0A.594.594,0,0,0,196.442,124.73Z" transform="translate(-116.091 -65.61)" fill="#fff"/>
    <circle id="Ellipse_326" data-name="Ellipse 326" cx="0.169" cy="0.169" r="0.169" transform="translate(78.208 58.734)" fill="#fff"/>
    <circle id="Ellipse_327" data-name="Ellipse 327" cx="0.169" cy="0.169" r="0.169" transform="translate(78.853 58.348)" fill="#fff"/>
    <circle id="Ellipse_328" data-name="Ellipse 328" cx="0.169" cy="0.169" r="0.169" transform="translate(79.374 57.997)" fill="#fff"/>
    <path id="Tracé_3185" data-name="Tracé 3185" d="M192.057,124.512a.172.172,0,0,1-.076.231h-.037a2.678,2.678,0,0,1-.1-.321.172.172,0,0,1,.217.09Z" transform="translate(-114.13 -65.381)" fill="#fff"/>
    <path id="Tracé_3186" data-name="Tracé 3186" d="M193.994,127v.017a.022.022,0,0,0,0,.02v.045a.042.042,0,0,0,.048,0,.222.222,0,0,0,.062-.053.712.712,0,0,1,.2-.132.045.045,0,0,0,.034-.034c0-.059-.132-.02-.16,0A.58.58,0,0,0,193.994,127Z" transform="translate(-115.676 -67.119)" fill="#fff"/>
    <path id="Tracé_3187" data-name="Tracé 3187" d="M196.531,125.346a.146.146,0,0,0-.051.087v.017a.025.025,0,0,0,.034,0l.315-.172a.056.056,0,0,0,.022-.087c-.022-.025-.053,0-.082,0A.65.65,0,0,0,196.531,125.346Z" transform="translate(-117.464 -65.934)" fill="#fff"/>
    <path id="Tracé_3188" data-name="Tracé 3188" d="M198.9,124a.564.564,0,0,0-.141.09.042.042,0,0,0-.02.037.037.037,0,0,0,.031.025.158.158,0,0,0,.1,0c.031,0,.062-.031.093-.042a.473.473,0,0,0,.206-.1c0-.048-.082-.07-.115-.065a.91.91,0,0,0-.155.051Z" transform="translate(-119.088 -65.048)" fill="#fff"/>
    <ellipse id="Ellipse_329" data-name="Ellipse 329" cx="1.402" cy="0.149" rx="1.402" ry="0.149" transform="translate(73.308 61.507)" fill="url(#linear-gradient-3)"/>
    <path id="Tracé_3189" data-name="Tracé 3189" d="M178.29,124.366h0a1.512,1.512,0,0,1-.02.259,1.222,1.222,0,0,1-.149.428v.02a1.286,1.286,0,0,1-.152.194,1.328,1.328,0,0,1-.954.357,1.213,1.213,0,0,1-.844-.281.99.99,0,0,1-.152-.172,1.185,1.185,0,0,1-.166-.383,1.689,1.689,0,0,1-.048-.411v-.056a1.372,1.372,0,0,1,0-.152,1.671,1.671,0,0,1,.051-.327,2.485,2.485,0,0,1,.721-1.34.746.746,0,0,1,.464-.183C177.73,122.314,178.287,123.508,178.29,124.366Z" transform="translate(-102.606 -63.879)" fill="#68e1fd"/>
    <path id="Tracé_3190" data-name="Tracé 3190" d="M178.333,124.366h0a1.511,1.511,0,0,1-.02.259v.076a1.334,1.334,0,0,1-.048.16.989.989,0,0,1-.087.191v.02l-.017.025a1.105,1.105,0,0,1-.084.115l-.051.053a1.1,1.1,0,0,1-.242.183,1.277,1.277,0,0,1-.341.132,1.6,1.6,0,0,1-.372.042H177a1.037,1.037,0,0,1-.186-.017,1.126,1.126,0,0,1-.585-.281.991.991,0,0,1-.152-.172,1.185,1.185,0,0,1-.166-.383,1.689,1.689,0,0,1-.048-.411V124.3a1.372,1.372,0,0,1,0-.152,1.672,1.672,0,0,1,.051-.327,3.193,3.193,0,0,1,.225-.659,1.93,1.93,0,0,1,.5-.681h.02a.791.791,0,0,1,.377-.166h.068a.6.6,0,0,1,.222.042.7.7,0,0,1,.138.068.966.966,0,0,1,.152.113c.045.042.087.084.13.132a1.834,1.834,0,0,1,.146.2,1.381,1.381,0,0,1,.079.127c.039.068.073.135.107.208a3.017,3.017,0,0,1,.256.906h0v.073C178.33,124.245,178.333,124.307,178.333,124.366Z" transform="translate(-102.65 -63.879)" fill="url(#linear-gradient-4)"/>
    <path id="Tracé_3191" data-name="Tracé 3191" d="M178.992,124.358a1.345,1.345,0,0,1-.18.706,1.407,1.407,0,0,1-.828.248,1.13,1.13,0,0,1-1.2-1.258,2.941,2.941,0,0,1,.5-1.571.746.746,0,0,1,.464-.183C178.435,122.3,178.992,123.5,178.992,124.358Z" transform="translate(-103.309 -63.864)" fill="#68e1fd"/>
    <path id="Tracé_3192" data-name="Tracé 3192" d="M178.992,124.358a1.345,1.345,0,0,1-.18.706,1.407,1.407,0,0,1-.828.248,1.13,1.13,0,0,1-1.2-1.258,2.941,2.941,0,0,1,.5-1.571.746.746,0,0,1,.464-.183C178.435,122.3,178.992,123.5,178.992,124.358Z" transform="translate(-103.309 -63.864)" fill="#dce7f9"/>
    <circle id="Ellipse_330" data-name="Ellipse 330" cx="0.166" cy="0.166" r="0.166" transform="translate(73.73 59.958)" fill="#fff"/>
    <path id="Tracé_3193" data-name="Tracé 3193" d="M176.023,127.883a.163.163,0,0,1-.166.163h-.037a1.672,1.672,0,0,1,.051-.327A.166.166,0,0,1,176.023,127.883Z" transform="translate(-102.619 -67.759)" fill="#fff"/>
    <path id="Tracé_3194" data-name="Tracé 3194" d="M176.5,131.056h-.017v.065c0,.014.025.02.042.02a.387.387,0,0,0,.076-.023.8.8,0,0,1,.231-.025.045.045,0,0,0,.042-.017c.028-.048-.1-.073-.135-.076A.518.518,0,0,0,176.5,131.056Z" transform="translate(-103.093 -70.116)" fill="#fff"/>
    <g id="Groupe_438" data-name="Groupe 438" transform="translate(73.463 58.439)" opacity="0.52">
      <path id="Tracé_3195" data-name="Tracé 3195" d="M181.293,125.334a1.1,1.1,0,0,1-.084.115,2.668,2.668,0,0,0-.214-.616,7.537,7.537,0,0,0-.5-.844,1.349,1.349,0,0,1-.234-.5.845.845,0,0,1,.087-.493,1.222,1.222,0,0,1,.225-.321l.028-.031a.966.966,0,0,1,.152.113,1.23,1.23,0,0,0-.265.509,1.039,1.039,0,0,0,.087.6,5.926,5.926,0,0,0,.281.54,7.223,7.223,0,0,1,.394.844Z" transform="translate(-179.269 -122.547)" fill="#fff"/>
      <path id="Tracé_3196" data-name="Tracé 3196" d="M182.472,125.6a1.346,1.346,0,0,1-.048.16l-.588-1.041a.914.914,0,0,1-.166-.473.928.928,0,0,1,.09-.329,1.718,1.718,0,0,1,.141-.355,1.827,1.827,0,0,1,.146.2c-.02.045-.048.09-.07.135a.8.8,0,0,0-.082.436,1.937,1.937,0,0,0,.3.7,5.16,5.16,0,0,1,.256.515C182.458,125.561,182.464,125.581,182.472,125.6Z" transform="translate(-180.285 -123.208)" fill="#fff"/>
      <path id="Tracé_3197" data-name="Tracé 3197" d="M183.495,125.908a4.642,4.642,0,0,1-.363-.509.509.509,0,0,1-.068-.149.41.41,0,0,1,0-.144,2.236,2.236,0,0,1,.062-.386c.039.068.073.135.107.208a.188.188,0,0,0-.025.059.346.346,0,0,0,0,.152,1.241,1.241,0,0,0,.107.374,2.458,2.458,0,0,0,.141.251l.042.07h0Z" transform="translate(-181.282 -124.042)" fill="#fff"/>
      <path id="Tracé_3198" data-name="Tracé 3198" d="M179.467,125.448a1.279,1.279,0,0,1-.341.132,2.952,2.952,0,0,0-.31-.96c-.118-.234-.267-.448-.386-.681a1.464,1.464,0,0,1-.191-.749,1.256,1.256,0,0,1,.281-.676,1.409,1.409,0,0,1,.205-.205h.068a.6.6,0,0,1,.222.042c-.037.1-.2.231-.239.281a.907.907,0,0,0-.205.478,1.334,1.334,0,0,0,.194.788c.132.242.3.464.431.706a2.559,2.559,0,0,1,.251.684A.811.811,0,0,1,179.467,125.448Z" transform="translate(-177.82 -122.31)" fill="#fff"/>
      <path id="Tracé_3199" data-name="Tracé 3199" d="M177.614,126.073a1.038,1.038,0,0,1-.186-.017,3.359,3.359,0,0,0-.453-1.126,2.516,2.516,0,0,1-.211-1.309,1.931,1.931,0,0,1,.5-.681h.02a4.1,4.1,0,0,1-.115.4,2.68,2.68,0,0,0-.127.864,3.361,3.361,0,0,0,.487,1.236,1.249,1.249,0,0,1,.124.366A.532.532,0,0,1,177.614,126.073Z" transform="translate(-176.749 -122.763)" fill="#fff"/>
    </g>
    <path id="Tracé_3200" data-name="Tracé 3200" d="M177.181,120l.281.647a.428.428,0,0,1,.281.025.281.281,0,0,0-.256.281.74.74,0,0,0,.082.391,4.3,4.3,0,0,0,.507.884,2.364,2.364,0,0,0,.36-.889.282.282,0,0,0,0-.138.251.251,0,0,0-.051-.093,2.708,2.708,0,0,0-.307-.366.585.585,0,0,0,.177-.144l.484.242a2.251,2.251,0,0,1-.183.611,3.034,3.034,0,0,0-.152,1.478l-.949-.11a3.256,3.256,0,0,0-.281-.988,6.128,6.128,0,0,1-.281-.605,2.989,2.989,0,0,1-.107-.5c-.025-.152.048-.214.124-.329C176.964,120.355,177.2,120.053,177.181,120Z" transform="translate(-103.31 -62.212)" fill="url(#linear-gradient-5)"/>
    <ellipse id="Ellipse_331" data-name="Ellipse 331" cx="1.72" cy="0.183" rx="1.72" ry="0.183" transform="translate(71.374 61.613)" fill="url(#linear-gradient-6)"/>
    <path id="Tracé_3201" data-name="Tracé 3201" d="M171.862,122.745h0a1.892,1.892,0,0,1-.025.318,1.477,1.477,0,0,1-.183.524.115.115,0,0,1-.014.025,1.293,1.293,0,0,1-.186.239,1.618,1.618,0,0,1-1.168.436,1.5,1.5,0,0,1-1.036-.355,1.336,1.336,0,0,1-.183-.214,1.377,1.377,0,0,1-.211-.45,2.124,2.124,0,0,1-.056-.5v-.256a3.451,3.451,0,0,1,.062-.4,3.034,3.034,0,0,1,.884-1.641.909.909,0,0,1,.563-.228C171.175,120.229,171.859,121.7,171.862,122.745Z" transform="translate(-97.575 -62.384)" fill="#68e1fd"/>
    <path id="Tracé_3202" data-name="Tracé 3202" d="M171.862,122.745h0a1.892,1.892,0,0,1-.025.318,1.477,1.477,0,0,1-.183.524.115.115,0,0,1-.014.025,1.293,1.293,0,0,1-.186.239,1.618,1.618,0,0,1-1.168.436,1.5,1.5,0,0,1-1.036-.355,1.336,1.336,0,0,1-.183-.214,1.377,1.377,0,0,1-.211-.45,2.124,2.124,0,0,1-.056-.5v-.256a3.451,3.451,0,0,1,.062-.4,3.034,3.034,0,0,1,.884-1.641.909.909,0,0,1,.563-.228C171.175,120.229,171.859,121.7,171.862,122.745Z" transform="translate(-97.575 -62.384)" fill="#1f4076"/>
    <path id="Tracé_3203" data-name="Tracé 3203" d="M172.746,122.725a1.63,1.63,0,0,1-.222.867,1.689,1.689,0,0,1-1.013.3,1.388,1.388,0,0,1-1.481-1.542,3.58,3.58,0,0,1,.616-1.925.909.909,0,0,1,.563-.228C172.062,120.2,172.746,121.672,172.746,122.725Z" transform="translate(-98.459 -62.355)" fill="#68e1fd"/>
    <path id="Tracé_3204" data-name="Tracé 3204" d="M172.746,122.725a1.63,1.63,0,0,1-.222.867,1.689,1.689,0,0,1-1.013.3,1.388,1.388,0,0,1-1.481-1.542,3.58,3.58,0,0,1,.616-1.925.909.909,0,0,1,.563-.228C172.062,120.2,172.746,121.672,172.746,122.725Z" transform="translate(-98.459 -62.355)" fill="#5c6f99"/>
    <path id="Tracé_3205" data-name="Tracé 3205" d="M143.61,105.239l.324.113.445-.191.374.191.386-.191.355.231.366-.231.349.115.087.267-.386-.155-.507.228-.321-.228-.363.248-.4-.284-.47.343-.332-.191Z" transform="translate(-72.143 -46.066)" fill="#68e1fd"/>
    <path id="Tracé_3206" data-name="Tracé 3206" d="M143.61,105.239l.324.113.445-.191.374.191.386-.191.355.231.366-.231.349.115.087.267-.386-.155-.507.228-.321-.228-.363.248-.4-.284-.47.343-.332-.191Z" transform="translate(-72.143 -46.066)" fill="#fff"/>
    <path id="Tracé_3207" data-name="Tracé 3207" d="M171.891,128.323h0a1.893,1.893,0,0,1-.025.318.978.978,0,0,1-.2-.174.338.338,0,0,0-.149-.118.236.236,0,0,0-.2.068,2,2,0,0,1-.155.155.355.355,0,0,1-.281.059.98.98,0,0,1-.259-.132.388.388,0,0,0-.281-.07c-.141.031-.214.18-.329.265a.405.405,0,0,1-.487-.017c-.079-.065-.144-.169-.248-.174s-.169.079-.222.158a.507.507,0,0,1-.158.169,2.123,2.123,0,0,1-.056-.5v-.068h0a.335.335,0,0,1,.4-.073c.073.042.127.11.194.155a.417.417,0,0,0,.363.048.732.732,0,0,0,.327-.281c.059-.082.191-.062.281-.034a.638.638,0,0,1,.256.158.512.512,0,0,0,.3.18.352.352,0,0,0,.281-.239.281.281,0,0,1,.087-.129.23.23,0,0,1,.1-.025.369.369,0,0,1,.281.045c.079.068.09.189.169.253Z" transform="translate(-97.603 -67.962)" fill="#fff" opacity="0.74"/>
    <path id="Tracé_3208" data-name="Tracé 3208" d="M172.315,131.766a.116.116,0,0,1-.014.025,1.294,1.294,0,0,1-.186.239.9.9,0,0,1-.245-.023c-.124-.031-.239-.1-.369-.127-.281-.053-.563.138-.844.127a2.835,2.835,0,0,1-.3-.048.478.478,0,0,0-.3.037c-.053.034-.1.082-.149.115a1.334,1.334,0,0,1-.183-.214.746.746,0,0,0,.315-.1.563.563,0,0,1,.349-.141.622.622,0,0,1,.183.079.689.689,0,0,0,.318.068.377.377,0,0,0,.183-.039c.039-.02.073-.051.113-.073a.667.667,0,0,1,.281-.07.455.455,0,0,1,.138,0,.844.844,0,0,1,.2.115A.7.7,0,0,0,172.315,131.766Z" transform="translate(-98.236 -70.555)" fill="#fff"/>
    <circle id="Ellipse_332" data-name="Ellipse 332" cx="0.203" cy="0.203" r="0.203" transform="translate(71.892 59.714)" fill="#fff"/>
    <circle id="Ellipse_333" data-name="Ellipse 333" cx="0.203" cy="0.203" r="0.203" transform="translate(72.787 59.652)" fill="#fff"/>
    <circle id="Ellipse_334" data-name="Ellipse 334" cx="0.203" cy="0.203" r="0.203" transform="translate(73.533 59.559)" fill="#fff"/>
    <path id="Tracé_3209" data-name="Tracé 3209" d="M169.111,127.057a.205.205,0,0,1-.205.2.123.123,0,0,1-.045,0,3.441,3.441,0,0,1,.062-.4A.205.205,0,0,1,169.111,127.057Z" transform="translate(-97.618 -67.141)" fill="#fff"/>
    <path id="Tracé_3210" data-name="Tracé 3210" d="M169.687,130.948a.042.042,0,0,0-.02,0V131a.062.062,0,0,0,0,.023c0,.02.031.025.051.025a.456.456,0,0,0,.1-.028,1.027,1.027,0,0,1,.281-.031c.017,0,.042,0,.051-.02s-.129-.09-.166-.093A.676.676,0,0,0,169.687,130.948Z" transform="translate(-98.197 -70.029)" fill="#fff"/>
    <path id="Tracé_3211" data-name="Tracé 3211" d="M173.264,130.7a.186.186,0,0,0-.1.065.034.034,0,0,0,0,.023.088.088,0,0,0,.037.017l.428-.014a.066.066,0,0,0,.07-.079c-.011-.045-.048-.048-.084-.051A.861.861,0,0,0,173.264,130.7Z" transform="translate(-100.71 -69.868)" fill="#fff"/>
    <path id="Tracé_3212" data-name="Tracé 3212" d="M176.622,130.487a.787.787,0,0,0-.2.017.049.049,0,0,0-.042.031.051.051,0,0,0,.02.042.186.186,0,0,0,.113.042h.124a.563.563,0,0,0,.281,0h0s-.048-.118-.087-.13A.844.844,0,0,0,176.622,130.487Z" transform="translate(-103.021 -69.743)" fill="#fff"/>
    <ellipse id="Ellipse_335" data-name="Ellipse 335" cx="1.402" cy="0.149" rx="1.402" ry="0.149" transform="translate(77.046 61.447)" fill="url(#linear-gradient-3)"/>
    <path id="Tracé_3213" data-name="Tracé 3213" d="M191.577,124.149h0a1.487,1.487,0,0,1-.02.259,1.168,1.168,0,0,1-.149.428v.02a1.056,1.056,0,0,1-.152.194,1.317,1.317,0,0,1-.954.357,1.224,1.224,0,0,1-.844-.281,1.01,1.01,0,0,1-.152-.174,1.16,1.16,0,0,1-.166-.383,1.689,1.689,0,0,1-.045-.411V124.1a1.38,1.38,0,0,1,0-.152,1.672,1.672,0,0,1,.051-.326,2.466,2.466,0,0,1,.721-1.337.735.735,0,0,1,.464-.186C191.017,122.1,191.574,123.291,191.577,124.149Z" transform="translate(-112.156 -63.721)" fill="#68e1fd"/>
    <path id="Tracé_3214" data-name="Tracé 3214" d="M191.62,124.113h0a1.516,1.516,0,0,1-.02.259v.076a1.546,1.546,0,0,1-.045.163,1.3,1.3,0,0,1-.09.189v.02l-.017.025a1.1,1.1,0,0,1-.084.115l-.051.053a1.033,1.033,0,0,1-.242.183,1.244,1.244,0,0,1-.341.132,1.6,1.6,0,0,1-.372.042h-.07l-.186-.017a1.126,1.126,0,0,1-.585-.281,1.01,1.01,0,0,1-.152-.175,1.185,1.185,0,0,1-.166-.383,1.689,1.689,0,0,1-.045-.411v-.056a1.38,1.38,0,0,1,0-.152,1.671,1.671,0,0,1,.051-.326,3.191,3.191,0,0,1,.225-.659,1.894,1.894,0,0,1,.5-.678l.02-.017a.791.791,0,0,1,.377-.166h.068a.6.6,0,0,1,.222.042.7.7,0,0,1,.138.068.844.844,0,0,1,.152.115,1.4,1.4,0,0,1,.129.129,2.3,2.3,0,0,1,.149.2l.076.127c.039.068.073.135.107.208a3.124,3.124,0,0,1,.259.909h0v.07C191.623,123.941,191.62,124.054,191.62,124.113Z" transform="translate(-112.199 -63.685)" fill="url(#linear-gradient-8)"/>
    <path id="Tracé_3215" data-name="Tracé 3215" d="M192.272,124.148a1.32,1.32,0,0,1-.18.706,1.39,1.39,0,0,1-.828.248,1.13,1.13,0,0,1-1.2-1.258,2.925,2.925,0,0,1,.5-1.568.735.735,0,0,1,.464-.186C191.715,122.09,192.272,123.289,192.272,124.148Z" transform="translate(-112.851 -63.713)" fill="#68e1fd"/>
    <path id="Tracé_3216" data-name="Tracé 3216" d="M192.272,124.148a1.32,1.32,0,0,1-.18.706,1.39,1.39,0,0,1-.828.248,1.13,1.13,0,0,1-1.2-1.258,2.925,2.925,0,0,1,.5-1.568.735.735,0,0,1,.464-.186C191.715,122.09,192.272,123.289,192.272,124.148Z" transform="translate(-112.851 -63.713)" fill="#f2f1f7"/>
    <circle id="Ellipse_336" data-name="Ellipse 336" cx="0.166" cy="0.166" r="0.166" transform="translate(77.468 59.899)" fill="#fff"/>
    <path id="Tracé_3217" data-name="Tracé 3217" d="M189.3,127.68a.166.166,0,0,1-.163.166H189.1a1.671,1.671,0,0,1,.051-.326A.166.166,0,0,1,189.3,127.68Z" transform="translate(-112.161 -67.615)" fill="#fff"/>
    <path id="Tracé_3218" data-name="Tracé 3218" d="M189.815,130.893a.02.02,0,0,0,0,.017v.048c0,.014.025.02.042.02a.282.282,0,0,0,.079-.023.887.887,0,0,1,.228-.025.051.051,0,0,0,.042,0c.028-.051-.1-.076-.135-.076A.515.515,0,0,0,189.815,130.893Z" transform="translate(-112.674 -70.008)" fill="#fff"/>
    <g id="Groupe_439" data-name="Groupe 439" transform="translate(77.2 58.379)" opacity="0.52">
      <path id="Tracé_3219" data-name="Tracé 3219" d="M194.573,125.124a1.094,1.094,0,0,1-.084.115,2.532,2.532,0,0,0-.214-.616,7.54,7.54,0,0,0-.5-.844,1.407,1.407,0,0,1-.234-.5.845.845,0,0,1,.087-.493,1.269,1.269,0,0,1,.225-.321l.028-.031a.844.844,0,0,1,.152.115,1.2,1.2,0,0,0-.265.507,1.061,1.061,0,0,0,.087.6,5.578,5.578,0,0,0,.281.54,7.232,7.232,0,0,1,.394.844Z" transform="translate(-192.549 -122.337)" fill="#fff"/>
      <path id="Tracé_3220" data-name="Tracé 3220" d="M195.752,125.388a1.542,1.542,0,0,1-.045.163l-.591-1.041a.96.96,0,0,1-.166-.473.926.926,0,0,1,.09-.332,1.72,1.72,0,0,1,.141-.355,2.3,2.3,0,0,1,.149.2c-.023.045-.051.09-.073.135a.808.808,0,0,0-.082.436,1.917,1.917,0,0,0,.3.7,5.207,5.207,0,0,1,.256.518Z" transform="translate(-193.565 -122.998)" fill="#fff"/>
      <path id="Tracé_3221" data-name="Tracé 3221" d="M196.777,125.7a4.64,4.64,0,0,1-.363-.509.51.51,0,0,1-.068-.149.49.49,0,0,1,0-.144,2.279,2.279,0,0,1,.062-.386c.039.068.073.135.107.208a.22.22,0,0,0-.025.059.346.346,0,0,0,0,.152,1.159,1.159,0,0,0,.1.374,2.188,2.188,0,0,0,.141.251l.045.073h0A.2.2,0,0,0,196.777,125.7Z" transform="translate(-194.565 -123.832)" fill="#fff"/>
      <path id="Tracé_3222" data-name="Tracé 3222" d="M192.754,125.238a1.244,1.244,0,0,1-.341.132,2.953,2.953,0,0,0-.31-.96c-.118-.231-.267-.448-.386-.681a1.461,1.461,0,0,1-.189-.749,1.238,1.238,0,0,1,.281-.676,1.406,1.406,0,0,1,.205-.205h.068a.6.6,0,0,1,.222.042c-.037.1-.2.231-.239.281a.915.915,0,0,0-.205.478,1.354,1.354,0,0,0,.194.788c.132.242.3.464.431.706a2.592,2.592,0,0,1,.251.684A.847.847,0,0,1,192.754,125.238Z" transform="translate(-191.107 -122.1)" fill="#fff"/>
      <path id="Tracé_3223" data-name="Tracé 3223" d="M190.894,125.827l-.186-.017a3.359,3.359,0,0,0-.453-1.126,2.516,2.516,0,0,1-.211-1.309,1.894,1.894,0,0,1,.5-.678l.02-.017a4.09,4.09,0,0,1-.115.4,2.685,2.685,0,0,0-.127.867,3.347,3.347,0,0,0,.487,1.233,1.251,1.251,0,0,1,.124.366.5.5,0,0,1-.034.284Z" transform="translate(-190.029 -122.517)" fill="#fff"/>
    </g>
    <path id="Tracé_3224" data-name="Tracé 3224" d="M192.163,123.2a.172.172,0,0,0,.07.065c.09.039.169-.068.208-.158.1-.231.194-.464.281-.7l.1.141a1.16,1.16,0,0,0-.239-.366,1.388,1.388,0,0,0-.459-.36,1.1,1.1,0,0,0-.844.037v-.191a1.782,1.782,0,0,1,1.078,0,2.008,2.008,0,0,1,.391.259l.318.253a.175.175,0,0,1,.037.281,2.851,2.851,0,0,0-.222,1.537,5.8,5.8,0,0,1-1.326-.062,4.167,4.167,0,0,1-.073-.844,1.672,1.672,0,0,0-.163-.749c-.048-.09-.135-.172-.087-.281a.7.7,0,0,1,.3-.214A5.5,5.5,0,0,0,192.163,123.2Z" transform="translate(-113.685 -63.349)" fill="url(#linear-gradient-9)"/>
    <ellipse id="Ellipse_337" data-name="Ellipse 337" cx="1.72" cy="0.183" rx="1.72" ry="0.183" transform="translate(75.112 61.554)" fill="url(#linear-gradient-6)"/>
    <path id="Tracé_3225" data-name="Tracé 3225" d="M185.2,122.492h0a1.953,1.953,0,0,1-.025.321,1.478,1.478,0,0,1-.183.524l-.014.023a1.207,1.207,0,0,1-.186.239,1.618,1.618,0,0,1-1.168.436,1.5,1.5,0,0,1-1.036-.355,1.223,1.223,0,0,1-.183-.214,1.377,1.377,0,0,1-.205-.47,2.122,2.122,0,0,1-.056-.5v-.253a3.38,3.38,0,0,1,.065-.4,3.012,3.012,0,0,1,.881-1.644.906.906,0,0,1,.563-.225C184.5,119.978,185.2,121.442,185.2,122.492Z" transform="translate(-107.16 -62.19)" fill="#68e1fd"/>
    <path id="Tracé_3226" data-name="Tracé 3226" d="M185.2,122.492h0a1.953,1.953,0,0,1-.025.321,1.478,1.478,0,0,1-.183.524l-.014.023a1.207,1.207,0,0,1-.186.239,1.618,1.618,0,0,1-1.168.436,1.5,1.5,0,0,1-1.036-.355,1.223,1.223,0,0,1-.183-.214,1.377,1.377,0,0,1-.205-.47,2.122,2.122,0,0,1-.056-.5v-.253a3.38,3.38,0,0,1,.065-.4,3.012,3.012,0,0,1,.881-1.644.906.906,0,0,1,.563-.225C184.5,119.978,185.2,121.442,185.2,122.492Z" transform="translate(-107.16 -62.19)" fill="#f2f1f7"/>
    <path id="Tracé_3227" data-name="Tracé 3227" d="M186.066,122.562a1.621,1.621,0,0,1-.222.867,1.689,1.689,0,0,1-1.013.3,1.387,1.387,0,0,1-1.481-1.542,3.58,3.58,0,0,1,.616-1.925.906.906,0,0,1,.563-.225C185.371,120.029,186.066,121.5,186.066,122.562Z" transform="translate(-108.03 -62.24)" fill="#68e1fd"/>
    <path id="Tracé_3228" data-name="Tracé 3228" d="M186.066,122.562a1.621,1.621,0,0,1-.222.867,1.689,1.689,0,0,1-1.013.3,1.387,1.387,0,0,1-1.481-1.542,3.58,3.58,0,0,1,.616-1.925.906.906,0,0,1,.563-.225C185.371,120.029,186.066,121.5,186.066,122.562Z" transform="translate(-108.03 -62.24)" fill="#f2f1f7"/>
    <path id="Tracé_3229" data-name="Tracé 3229" d="M156.89,105.032l.324.11.445-.191.377.191.383-.191.355.234.366-.234.349.115.087.27-.386-.158-.507.228-.321-.228-.363.248-.4-.284-.47.346-.332-.194Z" transform="translate(-81.685 -45.915)" fill="#68e1fd"/>
    <path id="Tracé_3230" data-name="Tracé 3230" d="M156.89,105.032l.324.11.445-.191.377.191.383-.191.355.234.366-.234.349.115.087.27-.386-.158-.507.228-.321-.228-.363.248-.4-.284-.47.346-.332-.194Z" transform="translate(-81.685 -45.915)" fill="#fff"/>
    <path id="Tracé_3231" data-name="Tracé 3231" d="M185.211,128.172h0a1.948,1.948,0,0,1-.025.321,1.305,1.305,0,0,1-.2-.174.327.327,0,0,0-.149-.121.231.231,0,0,0-.2.07,1.967,1.967,0,0,1-.155.152.346.346,0,0,1-.281.059.941.941,0,0,1-.259-.132.388.388,0,0,0-.281-.07c-.141.031-.214.18-.329.265a.405.405,0,0,1-.487-.017c-.079-.065-.144-.166-.245-.172a.281.281,0,0,0-.225.155.482.482,0,0,1-.158.169,2.123,2.123,0,0,1-.056-.5V128.1h0a.329.329,0,0,1,.4-.07,2.036,2.036,0,0,1,.194.155.414.414,0,0,0,.363.045.732.732,0,0,0,.327-.281c.059-.082.191-.062.281-.034a.673.673,0,0,1,.256.158.487.487,0,0,0,.3.18.352.352,0,0,0,.281-.239.181.181,0,0,1,.18-.132.369.369,0,0,1,.281.048c.079.065.09.186.169.25Z" transform="translate(-107.174 -67.871)" fill="#fff" opacity="0.74"/>
    <path id="Tracé_3232" data-name="Tracé 3232" d="M185.6,131.6l-.014.023a1.208,1.208,0,0,1-.186.239.777.777,0,0,1-.242-.023c-.127-.031-.242-.1-.372-.127-.281-.051-.563.138-.844.127a2.273,2.273,0,0,1-.3-.048.462.462,0,0,0-.3.039c-.054.031-.1.079-.149.113a1.221,1.221,0,0,1-.183-.214.771.771,0,0,0,.318-.1.54.54,0,0,1,.346-.138.589.589,0,0,1,.186.076.709.709,0,0,0,.315.07.414.414,0,0,0,.183-.042c.039-.02.073-.051.113-.073a.726.726,0,0,1,.281-.07.377.377,0,0,1,.138,0,.758.758,0,0,1,.2.113A.718.718,0,0,0,185.6,131.6Z" transform="translate(-107.778 -70.43)" fill="#fff"/>
    <circle id="Ellipse_338" data-name="Ellipse 338" cx="0.203" cy="0.203" r="0.203" transform="translate(75.63 59.654)" fill="#fff"/>
    <circle id="Ellipse_339" data-name="Ellipse 339" cx="0.203" cy="0.203" r="0.203" transform="translate(76.525 59.593)" fill="#fff"/>
    <circle id="Ellipse_340" data-name="Ellipse 340" cx="0.203" cy="0.203" r="0.203" transform="translate(77.271 59.5)" fill="#fff"/>
    <path id="Tracé_3233" data-name="Tracé 3233" d="M182.361,126.847a.2.2,0,0,1-.2.2h-.048a3.383,3.383,0,0,1,.065-.4A.2.2,0,0,1,182.361,126.847Z" transform="translate(-107.139 -66.99)" fill="#fff"/>
    <path id="Tracé_3234" data-name="Tracé 3234" d="M182.947,130.772s-.017,0-.02.014,0,0,0,.023v.034a.053.053,0,0,0,0,.023c0,.02.031.025.051.025a.369.369,0,0,0,.1-.025.94.94,0,0,1,.281-.034c.02,0,.042,0,.051-.02.034-.059-.129-.09-.166-.093A.655.655,0,0,0,182.947,130.772Z" transform="translate(-107.725 -69.912)" fill="#fff"/>
    <path id="Tracé_3235" data-name="Tracé 3235" d="M186.543,130.489a.186.186,0,0,0-.1.065.04.04,0,0,0,0,.025c0,.014.023.014.037.014l.428-.014a.068.068,0,0,0,.07-.079c0-.042-.048-.048-.084-.051A.861.861,0,0,0,186.543,130.489Z" transform="translate(-110.252 -69.718)" fill="#fff"/>
    <path id="Tracé_3236" data-name="Tracé 3236" d="M189.9,130.259a.678.678,0,0,0-.2,0,.049.049,0,0,0-.042.031.056.056,0,0,0,.02.045.228.228,0,0,0,.115.042h.121a.591.591,0,0,0,.281,0h0c.037-.048-.048-.118-.087-.132a.735.735,0,0,0-.208.014Z" transform="translate(-112.563 -69.571)" fill="#fff"/>
    <ellipse id="Ellipse_341" data-name="Ellipse 341" cx="0.182" cy="1.714" rx="0.182" ry="1.714" transform="matrix(0.181, -0.984, 0.984, 0.181, 78.755, 61.83)" fill="url(#linear-gradient-11)"/>
    <path id="Tracé_3237" data-name="Tracé 3237" d="M199.487,122.829h0a1.874,1.874,0,0,1-.073.321,1.52,1.52,0,0,1-.281.484l-.02.02a1.276,1.276,0,0,1-.225.2,1.63,1.63,0,0,1-1.23.22,1.514,1.514,0,0,1-.954-.538,1.09,1.09,0,0,1-.141-.242,1.38,1.38,0,0,1-.118-.5,2.148,2.148,0,0,1,.037-.507v-.068a1.493,1.493,0,0,1,.045-.18,3.452,3.452,0,0,1,.135-.383,3.032,3.032,0,0,1,1.162-1.458.92.92,0,0,1,.6-.118C199.264,120.231,199.675,121.793,199.487,122.829Z" transform="translate(-117.436 -62.266)" fill="#68e1fd"/>
    <path id="Tracé_3238" data-name="Tracé 3238" d="M199.487,122.829h0a1.874,1.874,0,0,1-.073.321,1.52,1.52,0,0,1-.281.484l-.02.02a1.276,1.276,0,0,1-.225.2,1.63,1.63,0,0,1-1.23.22,1.514,1.514,0,0,1-.954-.538,1.09,1.09,0,0,1-.141-.242,1.38,1.38,0,0,1-.118-.5,2.148,2.148,0,0,1,.037-.507v-.068a1.493,1.493,0,0,1,.045-.18,3.452,3.452,0,0,1,.135-.383,3.032,3.032,0,0,1,1.162-1.458.92.92,0,0,1,.6-.118C199.264,120.231,199.675,121.793,199.487,122.829Z" transform="translate(-117.436 -62.266)" fill="#1f4076"/>
    <path id="Tracé_3239" data-name="Tracé 3239" d="M200.517,122.821a1.633,1.633,0,0,1-.374.813,1.689,1.689,0,0,1-1.05.115,1.388,1.388,0,0,1-1.179-1.785,3.606,3.606,0,0,1,.951-1.782.92.92,0,0,1,.6-.118C200.3,120.217,200.706,121.788,200.517,122.821Z" transform="translate(-118.467 -62.251)" fill="#68e1fd"/>
    <path id="Tracé_3240" data-name="Tracé 3240" d="M200.517,122.821a1.633,1.633,0,0,1-.374.813,1.689,1.689,0,0,1-1.05.115,1.388,1.388,0,0,1-1.179-1.785,3.606,3.606,0,0,1,.951-1.782.92.92,0,0,1,.6-.118C200.3,120.217,200.706,121.788,200.517,122.821Z" transform="translate(-118.467 -62.251)" fill="#5c6f99"/>
    <path id="Tracé_3241" data-name="Tracé 3241" d="M172.005,104.42l.3.169.473-.11.335.256.414-.118.307.293.4-.163.324.177.037.279-.352-.222-.538.132-.276-.281-.4.177-.338-.349-.526.253-.29-.248Z" transform="translate(-92.513 -45.534)" fill="#68e1fd"/>
    <path id="Tracé_3242" data-name="Tracé 3242" d="M172.005,104.42l.3.169.473-.11.335.256.414-.118.307.293.4-.163.324.177.037.279-.352-.222-.538.132-.276-.281-.4.177-.338-.349-.526.253-.29-.248Z" transform="translate(-92.513 -45.534)" fill="#fff"/>
    <path id="Tracé_3243" data-name="Tracé 3243" d="M199.508,128.117h0a1.874,1.874,0,0,1-.073.321,1.126,1.126,0,0,1-.163-.205.357.357,0,0,0-.127-.146.231.231,0,0,0-.208.034c-.062.037-.118.09-.183.121a.36.36,0,0,1-.3,0,1,1,0,0,1-.231-.18.383.383,0,0,0-.262-.118c-.141,0-.242.141-.372.2a.405.405,0,0,1-.476-.1c-.065-.079-.11-.191-.211-.217a.281.281,0,0,0-.248.113.473.473,0,0,1-.186.141,2.148,2.148,0,0,1,.037-.507V127.5h0a.335.335,0,0,1,.408,0c.065.053.1.129.163.189a.419.419,0,0,0,.349.11.749.749,0,0,0,.372-.217c.073-.07.2-.028.281.017a.687.687,0,0,1,.222.2c.073.1.146.211.265.234a.352.352,0,0,0,.321-.183.282.282,0,0,1,.11-.113.259.259,0,0,1,.1,0,.36.36,0,0,1,.281.1c.065.079.053.2.118.281Z" transform="translate(-117.458 -67.553)" fill="#fff" opacity="0.74"/>
    <path id="Tracé_3244" data-name="Tracé 3244" d="M199.469,131.515l-.02.02a1.277,1.277,0,0,1-.225.2.845.845,0,0,1-.236-.065c-.118-.056-.217-.149-.341-.194-.265-.1-.563.037-.844-.023a2.783,2.783,0,0,1-.281-.1.445.445,0,0,0-.3-.017c-.059.023-.11.062-.169.084a1.089,1.089,0,0,1-.141-.242.749.749,0,0,0,.329-.045.563.563,0,0,1,.369-.076.71.71,0,0,1,.166.11.738.738,0,0,0,.3.127.427.427,0,0,0,.189,0c.042,0,.082-.037.124-.053a.741.741,0,0,1,.281-.02.458.458,0,0,1,.138.025.8.8,0,0,1,.177.149A.709.709,0,0,0,199.469,131.515Z" transform="translate(-117.773 -70.152)" fill="#fff"/>
    <circle id="Ellipse_342" data-name="Ellipse 342" cx="0.203" cy="0.203" r="0.203" transform="translate(79.773 59.528)" fill="#fff"/>
    <circle id="Ellipse_343" data-name="Ellipse 343" cx="0.203" cy="0.203" r="0.203" transform="translate(80.663 59.626)" fill="#fff"/>
    <circle id="Ellipse_344" data-name="Ellipse 344" cx="0.203" cy="0.203" r="0.203" transform="translate(81.414 59.669)" fill="#fff"/>
    <path id="Tracé_3245" data-name="Tracé 3245" d="M197.061,125.95a.2.2,0,0,1-.236.163h-.045a3.452,3.452,0,0,1,.135-.383A.2.2,0,0,1,197.061,125.95Z" transform="translate(-117.679 -66.329)" fill="#fff"/>
    <path id="Tracé_3246" data-name="Tracé 3246" d="M197.077,129.961h-.022a.025.025,0,0,0,0,.02v.056c0,.023.025.031.045.034a.282.282,0,0,0,.1,0,.88.88,0,0,1,.281.02h.053a.492.492,0,0,0-.146-.121.63.63,0,0,0-.31-.008Z" transform="translate(-117.876 -69.358)" fill="#fff"/>
    <path id="Tracé_3247" data-name="Tracé 3247" d="M200.625,130.366a.169.169,0,0,0-.11.045.037.037,0,0,0,0,.023c0,.014.02.02.034.023l.425.065a.068.068,0,0,0,.084-.068c0-.042-.039-.053-.076-.065A.858.858,0,0,0,200.625,130.366Z" transform="translate(-120.362 -69.654)" fill="#fff"/>
    <path id="Tracé_3248" data-name="Tracé 3248" d="M203.988,130.708a.69.69,0,0,0-.2-.02c-.017,0-.039,0-.045.023a.119.119,0,0,0,0,.045.189.189,0,0,0,.1.062.215.215,0,0,1,.121.025.563.563,0,0,0,.262.059h0c.042-.039-.028-.127-.065-.144A.706.706,0,0,0,203.988,130.708Z" transform="translate(-122.681 -69.891)" fill="#fff"/>
    <path id="Tracé_3249" data-name="Tracé 3249" d="M83.552,160.824a16.994,16.994,0,0,0-.442-3.172,8.087,8.087,0,0,0-1.618-2.046L79.1,152.813,71.665,144.1s-2.514-.757-2.691,2.9a66.827,66.827,0,0,0,.324,8.185,51.157,51.157,0,0,1,.439,5.925c-.16,3.637-.535,7.242-.563,10.887a.887.887,0,0,0,.048.366c.189.428.819.307,1.244.115.239-.11.183-2.871.205-3.231q.093-1.689.163-3.378t.11-3.378c.025-.971-.2-1.6.9-1.649,1.568-.076,3.136-.045,4.7-.02.512,0,1.374-.186,1.689.262.281.405.141,1.582.146,2.069.037,3.04-.515,6.108.039,9.131a9.224,9.224,0,0,0,1.931,0s-.926-8.81-1.008-9.609c-.059-.54-.386-1.551.076-1.8a3.8,3.8,0,0,1,1.224,0c.949,0,1.633-.234,1.849.8.239,1.126.281,2.345.417,3.5l.844,7a5.744,5.744,0,0,0,1.455-.113l-1.075-7.335-.538-3.659A1.443,1.443,0,0,1,83.552,160.824Zm-13.091-2.533-.236-3.78h4.135l2.024,3.451Z" transform="translate(-25.82 -79.485)" fill="#5c6f99"/>
    <path id="Tracé_3250" data-name="Tracé 3250" d="M73.825,145.992a1.619,1.619,0,0,0-2.291,1.281c-.357,2.021.149,8.064.149,8.064H76.89L73.9,146.262" transform="translate(-27.594 -80.793)" fill="#1f4076"/>
    <path id="Tracé_3251" data-name="Tracé 3251" d="M154.135,228.408a1.292,1.292,0,0,0,.3.442,1.469,1.469,0,0,0,.982.228,9.363,9.363,0,0,0,2.646-.281c-.391-.509-1.1-.678-1.54-1.146a3.169,3.169,0,0,1-.58-1.126A.932.932,0,0,0,155.6,226a.875.875,0,0,0-.4-.09c-.448-.025-1.407-.231-1.5.386A4.392,4.392,0,0,0,154.135,228.408Z" transform="translate(-86.712 -138.277)" fill="#f2f1f7" stroke="#1f4076" stroke-width="0.2"/>
    <path id="Tracé_3252" data-name="Tracé 3252" d="M158.132,233.307a1.261,1.261,0,0,0-.515-.107,1.584,1.584,0,0,0-.3.059,5.823,5.823,0,0,1-2.333.113.242.242,0,0,0-.155,0c-.082.042-.087.158-.082.253a7.353,7.353,0,0,0,.242,1.329.222.222,0,0,0,.231.2l.7.1a.124.124,0,0,0,.09,0,.118.118,0,0,0,.034-.073c.031-.146.059-.281.082-.439.22.051.208.394.394.518a.487.487,0,0,0,.281.059,14.144,14.144,0,0,0,2.93-.118.253.253,0,0,0,.175-.084.259.259,0,0,0,.028-.09,1.038,1.038,0,0,0-.138-.67A3.063,3.063,0,0,0,158.132,233.307Z" transform="translate(-87.475 -143.55)" fill="#1f4076"/>
    <path id="Tracé_3253" data-name="Tracé 3253" d="M143.854,230.678a1.235,1.235,0,0,0,.3.442,1.466,1.466,0,0,0,.982.228,9.244,9.244,0,0,0,2.643-.281c-.391-.509-1.1-.676-1.54-1.146a3.147,3.147,0,0,1-.58-1.126.917.917,0,0,0-.341-.521.875.875,0,0,0-.4-.09c-.445-.025-1.407-.231-1.5.386A4.456,4.456,0,0,0,143.854,230.678Z" transform="translate(-79.328 -139.908)" fill="#f2f1f7" stroke="#1f4076" stroke-width="0.2"/>
    <path id="Tracé_3254" data-name="Tracé 3254" d="M147.859,235.577a1.377,1.377,0,0,0-.518-.107,1.629,1.629,0,0,0-.3.059,5.821,5.821,0,0,1-2.333.113.234.234,0,0,0-.152,0c-.084.042-.09.158-.082.253a6.926,6.926,0,0,0,.242,1.331.22.22,0,0,0,.228.194l.7.1a.132.132,0,0,0,.087,0,.113.113,0,0,0,.034-.073c.031-.144.059-.281.082-.436.22.048.208.394.4.518a.5.5,0,0,0,.267.056,14.162,14.162,0,0,0,2.93-.118.236.236,0,0,0,.172-.084.228.228,0,0,0,.028-.087,1.025,1.025,0,0,0-.138-.673A2.984,2.984,0,0,0,147.859,235.577Z" transform="translate(-80.093 -145.181)" fill="#1f4076"/>
    <path id="Tracé_3255" data-name="Tracé 3255" d="M108.305,185.416l-1.495-5.655a13.136,13.136,0,0,0-.844-2.533,6.356,6.356,0,0,0-4.1-3.333,10.02,10.02,0,0,0-2.01-.234c-.94-.034-1.883-.028-2.815-.023a8.952,8.952,0,0,0-1.554.1,11.862,11.862,0,0,0-1.506.453,17.521,17.521,0,0,1-7.107.788,15.059,15.059,0,0,0,.431,1.782,3.746,3.746,0,0,0,.63,1.475,3.941,3.941,0,0,0,.639.563,3.535,3.535,0,0,0,.7.431,3.271,3.271,0,0,0,.906.191,29.732,29.732,0,0,0,4.56.146,11.285,11.285,0,0,1,1.438.152,2.917,2.917,0,0,1,1.689.515,3.791,3.791,0,0,1,.844,1.534c.281.645.642,1.241.949,1.869a18.788,18.788,0,0,1,1.5,5.46.622.622,0,0,0,.124.332.563.563,0,0,0,.25.141,9.326,9.326,0,0,0,2.86.149c1.075,0,2.252.2,3.155-.366a2.533,2.533,0,0,0,1.126-1.846A5.411,5.411,0,0,0,108.305,185.416Z" transform="translate(-38.713 -100.75)" fill="#68e1fd"/>
    <path id="Tracé_3256" data-name="Tracé 3256" d="M108.637,187.357v.177a2.533,2.533,0,0,1-1.126,1.849c-.915.563-2.083.372-3.158.366a9.07,9.07,0,0,1-2.86-.152.608.608,0,0,1-.251-.138.661.661,0,0,1-.121-.335,19.257,19.257,0,0,0-1.5-5.458c-.31-.628-.681-1.224-.949-1.872a3.9,3.9,0,0,0-.844-1.531,2.965,2.965,0,0,0-1.689-.515A10.393,10.393,0,0,0,94.7,179.6a29.763,29.763,0,0,1-4.563-.149,3.316,3.316,0,0,1-.906-.191,3.455,3.455,0,0,1-.712-.419,3.613,3.613,0,0,1-.639-.563,3.777,3.777,0,0,1-.659-1.464,15.536,15.536,0,0,1-.431-1.785,18.7,18.7,0,0,0,3.048.023,16.771,16.771,0,0,0,4.062-.811,11.166,11.166,0,0,1,1.506-.45,8.653,8.653,0,0,1,1.551-.1c.943,0,1.886-.014,2.829.023a10.018,10.018,0,0,1,2.007.234,6.35,6.35,0,0,1,4.1,3.333,13.229,13.229,0,0,1,.844,2.516q.743,2.815,1.492,5.655A6.345,6.345,0,0,1,108.637,187.357Z" transform="translate(-38.648 -100.783)" fill="#1f4076"/>
    <path id="Tracé_3257" data-name="Tracé 3257" d="M116.462,187.371c-.611.051-1.258-.014-1.875-.02a9.066,9.066,0,0,1-2.86-.149.563.563,0,0,1-.25-.141.622.622,0,0,1-.124-.332,19.157,19.157,0,0,0-1.5-5.46c-.307-.628-.678-1.224-.949-1.869a3.874,3.874,0,0,0-.844-1.534,2.978,2.978,0,0,0-1.689-.515,11.338,11.338,0,0,0-1.438-.152,29.714,29.714,0,0,1-4.56-.146,3.271,3.271,0,0,1-.906-.191,3.409,3.409,0,0,1-.7-.431,3.829,3.829,0,0,1-.639-.546,2.516,2.516,0,0,1-.45-.816,16.768,16.768,0,0,0,4.062-.811,11.162,11.162,0,0,1,1.506-.45,8.653,8.653,0,0,1,1.551-.1c.943,0,1.886-.014,2.829.023a10.023,10.023,0,0,1,2.007.234,6.35,6.35,0,0,1,4.1,3.333,13.228,13.228,0,0,1,.844,2.516q.743,2.815,1.492,5.655A6.786,6.786,0,0,1,116.462,187.371Z" transform="translate(-46.473 -100.797)" fill="#1f4076"/>
    <path id="Tracé_3258" data-name="Tracé 3258" d="M135.6,194.736a.281.281,0,0,1-.256-.169c-.318-.726-7.749-17.769-8.05-18.909a2.046,2.046,0,0,0-2.252-1.576.563.563,0,0,0-.433.239,2.094,2.094,0,0,0-.039,1.43.281.281,0,0,1-.54.158,2.6,2.6,0,0,1,.113-1.9,1.126,1.126,0,0,1,.844-.487,2.618,2.618,0,0,1,2.86,1.993c.234.878,5.348,12.7,8.022,18.827a.281.281,0,0,1-.146.369A.262.262,0,0,1,135.6,194.736Z" transform="translate(-65.309 -100.655)" fill="#fce15c"/>
    <path id="Tracé_3259" data-name="Tracé 3259" d="M130.98,135.2a1.174,1.174,0,0,1-.9.9,2.406,2.406,0,0,1,1.044.357.844.844,0,0,1,.318.977c-.175.352-.628.445-1.019.481-3.921.377-7.839-.563-11.63-1.635-.726-.2-1.818-.774-1.185-1.689.487-.706,1.407-.245,2.086-.068a28.523,28.523,0,0,0,11.29.681Z" transform="translate(-60.653 -72.422)" fill="#f2f1f7" stroke="#1f4076" stroke-width="0.2"/>
    <rect id="Rectangle_1951" data-name="Rectangle 1951" width="60.53" height="1.16" transform="translate(61.008 65.47)" fill="#68e1fd"/>
    <rect id="Rectangle_1952" data-name="Rectangle 1952" width="60.53" height="1.16" transform="translate(61.008 65.47)" fill="#1f4076"/>
    <path id="Tracé_3260" data-name="Tracé 3260" d="M157.2,160.538c4.633,2.97,10.133,4.253,15.537,5.275a5.046,5.046,0,0,0,4.107-.614l9.592-4.627a16.161,16.161,0,0,0,3.71-2.224c1.88-1.647,2.708-3.941,3.918-6.046.985-1.72,1.618-3.811,3.223-5.086.431-.343.906-.63,1.354-.949a.321.321,0,0,0-.211-.58c-9.981.718-53.254.335-53.693.281-2.908-.281,2.908,5.03,4.72,7.29A32.63,32.63,0,0,0,157.2,160.538Z" transform="translate(-79.71 -80.669)" fill="#f2f1f7" stroke="#1f4076" stroke-width="0.2"/>
    <path id="Tracé_3262" data-name="Tracé 3262" d="M89.355,136.736a1.537,1.537,0,0,1-.369.98,1.756,1.756,0,0,1-.9.386,30.962,30.962,0,0,1-8.492.616c.034-1.343-.929-2.491-1.264-3.789a10.814,10.814,0,0,1-.205-2.339,18.579,18.579,0,0,0-.453-3.479,6.39,6.39,0,0,1-.281-2.995,3.659,3.659,0,0,1,1.45-1.97c2.5-1.818,5.629-.906,7.6,1.233,1.562,1.7.968,4.3,1.669,6.375C88.645,133.364,89.5,134.974,89.355,136.736Z" transform="translate(-31.823 -64.491)" fill="#fce15c"/>
    <path id="Tracé_3263" data-name="Tracé 3263" d="M92.111,149.514a3.192,3.192,0,0,1-1.652-.881L85.8,144.794a.875.875,0,0,1-.439.321.312.312,0,0,0-.281-.172q.538,2.491,1.289,4.931a1.52,1.52,0,0,1-1.506-.625,4.2,4.2,0,0,1-.628-1.593,10.24,10.24,0,0,1-.326-1.97,10.076,10.076,0,0,0-.065-1.368,7.6,7.6,0,0,0-.659-1.689,9.7,9.7,0,0,1-.808-3.071.416.416,0,0,1,.034-.281c.115-.189.4-.113.594,0,1.863,1.064,2.871,3.147,4.4,4.653,1.61,1.582,3.791,2.519,5.286,4.222a1.233,1.233,0,0,1,.369.712.74.74,0,0,1-.687.726.892.892,0,0,1-.844-.583" transform="translate(-35.466 -75.981)" fill="#5c6f99" opacity="0.215"/>
    <path id="Tracé_3264" data-name="Tracé 3264" d="M96.173,150.916a10.315,10.315,0,0,1,2.162,1.548,3.4,3.4,0,0,0,.456.445,2.6,2.6,0,0,0,1.388.352c.563.031,1.337-.087,1.407-.653a1.171,1.171,0,0,0-.169-.628,3.24,3.24,0,0,0-1.213-1.565,12.677,12.677,0,0,0-1.23-.428,4.422,4.422,0,0,1-.782-.467l-3.98-2.77a21.012,21.012,0,0,1-4.107-3.409c-.118-.138-.659.723-.692.808a1.559,1.559,0,0,0,0,1.165,8.364,8.364,0,0,0,1.79,1.8,30.912,30.912,0,0,0,4.971,3.8Z" transform="translate(-40.451 -78.973)" fill="#f2f1f7" stroke="#1f4076" stroke-width="0.2"/>
    <path id="Tracé_3265" data-name="Tracé 3265" d="M106.468,127.3a.532.532,0,0,1,.3.149.478.478,0,0,1,.082.239,7.788,7.788,0,0,1,.076,1.717.918.918,0,0,1-.307.746.951.951,0,0,1-.678.062,24.4,24.4,0,0,1-2.618-.583,6.756,6.756,0,0,1-1.689-.664,1.568,1.568,0,0,1-.5-.436,1.927,1.927,0,0,1-.211-.473,3.659,3.659,0,0,1-.265-1.227c0-.394.225-1.053.687-1.126s1.146.366,1.568.512Q104.669,126.833,106.468,127.3Z" transform="translate(-48.607 -66.301)" fill="#fce15c"/>
    <path id="Tracé_3266" data-name="Tracé 3266" d="M82.311,138.964a.735.735,0,0,0,.515.228.681.681,0,0,0,.3-.144,4.475,4.475,0,0,0,1.427-1.728.464.464,0,0,0,.039-.414.532.532,0,0,0-.22-.172,5.067,5.067,0,0,1-1.72-2.356c-.45-.881-1.143-1.8-2.128-1.858-1.585-.093-2.063,1.689-1.464,2.837A11.8,11.8,0,0,0,82.311,138.964Z" transform="translate(-32.917 -71.206)" fill="#fce15c"/>
    <path id="Tracé_3267" data-name="Tracé 3267" d="M86.661,102.8c.281,1,1.951,1.672,2.843,1.652a.335.335,0,0,0,.208-.059c.087-.076.07-.214.051-.329a6.242,6.242,0,0,1-.059-1.652.234.234,0,0,1,.281-.281,4.215,4.215,0,0,0,1.835.031,1.509,1.509,0,0,0,.912-.92,2.814,2.814,0,0,0,.079-1.106,24.294,24.294,0,0,0-.366-2.922,5.474,5.474,0,0,0-.459-1.526A2.232,2.232,0,0,0,90.86,94.6a3.378,3.378,0,0,0-1.177-.152,6.441,6.441,0,0,0-2.7.363,2.131,2.131,0,0,0-1.23,1.34,2.832,2.832,0,0,0,.1,1.385c.422,1.647,1.078,3.048.788,4.785A1.1,1.1,0,0,0,86.661,102.8Z" transform="translate(-37.874 -43.85)" fill="#f2f1f7" stroke="#1f4076" stroke-width="0.2"/>
    <path id="Tracé_3268" data-name="Tracé 3268" d="M79.72,96.732c-.121.563,0,1.126-.132,1.689a2.564,2.564,0,0,1-.546,1.078c-.169.2-.374.428-.341.69.045.346.459.493.8.563a.563.563,0,0,0,.94.47l.144.386a.844.844,0,0,0,.729-.155.822.822,0,0,0,.166.374,1.525,1.525,0,0,0,.363-.408.743.743,0,0,0,.813-.149l-.431-.661a.909.909,0,0,0-.16-.2,1.036,1.036,0,0,0-.281-.152,1.084,1.084,0,0,1-.7-.808c-.039-.372.346-.766.692-.625a.794.794,0,0,1,.3.281,3.893,3.893,0,0,1,.521.87l.231-.017c-.16-.307.259-.636.217-.977a.9.9,0,0,0-.152-.335,2.252,2.252,0,0,1-.3-.965.844.844,0,0,1-1.033-.357,1.625,1.625,0,0,1-.146-1.376,5.645,5.645,0,0,1,.94-.912C81.574,94.638,79.855,96.122,79.72,96.732Z" transform="translate(-32.833 -44.227)" fill="#f2f1f7" stroke="#1f4076" stroke-width="0.2"/>
    <path id="Tracé_3269" data-name="Tracé 3269" d="M104.9,112.082a1.354,1.354,0,0,0-.442.281.774.774,0,0,0-.329.69l2-.4a.124.124,0,0,0,.07-.031.11.11,0,0,0,.017-.073V112.3a.366.366,0,0,0-.065-.256c-.127-.135-.4-.11-.563-.084A3.786,3.786,0,0,0,104.9,112.082Z" transform="translate(-51.102 -56.419)" fill="#f2f1f7" stroke="#1f4076" stroke-width="0.2"/>
    <path id="Tracé_3270" data-name="Tracé 3270" d="M328.137,147.507a6.8,6.8,0,0,1-3.321-2.567,1.821,1.821,0,0,0-.405-.484,1.558,1.558,0,0,0-.591-.217c-.433-.093-.844-.222-1.284-.324s-.923-.07-1.379-.2a1.331,1.331,0,0,1-.7-.394.563.563,0,0,1,0-.743.843.843,0,0,1,.281-.144,5.067,5.067,0,0,1,3.068,0,.884.884,0,0,1,.143-.605,3.222,3.222,0,0,1,.875.58,4.037,4.037,0,0,1,.8.808,3.627,3.627,0,0,0,.22.324,1.859,1.859,0,0,0,.341.281,10.417,10.417,0,0,0,1.824,1.109,2.793,2.793,0,0,0,2.815-.07q.951-.771,1.866-1.579c.31-.281.478-.605.819-.386a1.519,1.519,0,0,1,.38.563c.318.819-.462,2.153-.9,2.843a3.338,3.338,0,0,1-1.844,1.481,3.6,3.6,0,0,1-1.191.1A6.563,6.563,0,0,1,328.137,147.507Z" transform="translate(-206.442 -77.897)" fill="#f2f1f7" stroke="#1f4076" stroke-width="0.2"/>
    <path id="Tracé_3271" data-name="Tracé 3271" d="M361.156,140.375a.732.732,0,0,1-.515.231.678.678,0,0,1-.3-.146,4.464,4.464,0,0,1-1.424-1.72.456.456,0,0,1-.042-.414.532.532,0,0,1,.22-.172,5.048,5.048,0,0,0,1.72-2.356c.448-.881,1.143-1.8,2.131-1.858,1.582-.093,2.06,1.689,1.464,2.837A11.84,11.84,0,0,1,361.156,140.375Z" transform="translate(-234.124 -72.226)" fill="#1f4076" stroke="#f2f1f7" stroke-width="0.1"/>
    <rect id="Rectangle_1953" data-name="Rectangle 1953" width="19.283" height="0.448" rx="0.224" transform="translate(80.559 89.614)" fill="#1f4076"/>
    <path id="Tracé_3272" data-name="Tracé 3272" d="M312.217,240.05a.723.723,0,0,1-.245.563.774.774,0,0,1-.4.09q-2.6.093-5.187.158a.365.365,0,0,1-.135-.017.228.228,0,0,1-.11-.152.706.706,0,0,1,.242-.692,1.987,1.987,0,0,1,.681-.352q1.044-.372,2.111-.661a5.786,5.786,0,0,1,2.471-.262C312.361,238.837,312.282,239.464,312.217,240.05Z" transform="translate(-196.247 -147.483)" fill="#1f4076"/>
    <path id="Tracé_3273" data-name="Tracé 3273" d="M329.087,238.577a3.736,3.736,0,0,0-.585.549.709.709,0,0,0-.1.752c.183.31.616.327.974.3a7.085,7.085,0,0,0,4.222-1.348,1.728,1.728,0,0,0,.63-.965,1.523,1.523,0,0,0-.357-1.154.949.949,0,0,0-.417-.335,1.185,1.185,0,0,0-.7.053,10.758,10.758,0,0,0-2.573.749C329.695,237.493,329.61,238.219,329.087,238.577Z" transform="translate(-212.207 -145.811)" fill="#1f4076"/>
    <ellipse id="Ellipse_345" data-name="Ellipse 345" cx="6.716" cy="2.049" rx="6.716" ry="2.049" transform="translate(84.308 51.171)" fill="#5c6f99"/>
    <ellipse id="Ellipse_346" data-name="Ellipse 346" cx="6.716" cy="2.049" rx="6.716" ry="2.049" transform="translate(84.308 50.929)" fill="#dce7f9"/>
    <ellipse id="Ellipse_347" data-name="Ellipse 347" cx="6.716" cy="2.049" rx="6.716" ry="2.049" transform="translate(92.569 58.827)" fill="#1f4076"/>
    <ellipse id="Ellipse_348" data-name="Ellipse 348" cx="6.716" cy="2.049" rx="6.716" ry="2.049" transform="translate(92.569 58.585)" fill="#f2f1f7"/>
    <path id="Tracé_3274" data-name="Tracé 3274" d="M221.893,100.168a6.4,6.4,0,0,0,3.338.341c.262-.042.521-.1.782-.135a8.6,8.6,0,0,1,1.174-.031q1.216.017,2.429-.062a2.514,2.514,0,0,0,1.345-.355.98.98,0,0,1,.183-.121.721.721,0,0,1,.205-.042,3.445,3.445,0,0,0,1.407-.312l-1.238-.366a.242.242,0,0,1-.124-.068.352.352,0,0,1-.042-.172c-.039-.281-.394-.422-.687-.484a.338.338,0,0,0-.214-.386.983.983,0,0,0-.479-.039l-5.629.467a6.009,6.009,0,0,0-2.128.563C221.71,99.208,221.079,99.85,221.893,100.168Z" transform="translate(-135.443 -46.348)" fill="#5c6f99"/>
    <path id="Tracé_3275" data-name="Tracé 3275" d="M221.232,96.262a.36.36,0,0,0-.124.09.219.219,0,0,0-.025.169c.045.22.25.363.391.538a1.337,1.337,0,0,1,.228.462c.025.09.062.2.155.222a.172.172,0,0,0,.177-.1.5.5,0,0,0,.039-.214,2.814,2.814,0,0,0-.239-1.495C221.586,95.871,221.434,96.155,221.232,96.262Z" transform="translate(-135.137 -44.914)" fill="#68e1fd"/>
    <path id="Tracé_3276" data-name="Tracé 3276" d="M221.232,96.262a.36.36,0,0,0-.124.09.219.219,0,0,0-.025.169c.045.22.25.363.391.538a1.337,1.337,0,0,1,.228.462c.025.09.062.2.155.222a.172.172,0,0,0,.177-.1.5.5,0,0,0,.039-.214,2.814,2.814,0,0,0-.239-1.495C221.586,95.871,221.434,96.155,221.232,96.262Z" transform="translate(-135.137 -44.914)" fill="#fce15c"/>
    <path id="Tracé_3277" data-name="Tracé 3277" d="M223.374,86.611a2.218,2.218,0,0,1,1.025-.563,17.453,17.453,0,0,1,1.818-.439l2-.405A18.394,18.394,0,0,1,231,84.779a1.382,1.382,0,0,1,.726.1.54.54,0,0,1,.29.605,5.235,5.235,0,0,1,1.689-.954.341.341,0,0,1,.217-.023c.124.042.158.2.155.335a2.707,2.707,0,0,1-1.267,2.01,2.94,2.94,0,0,0-1.053.98c-.281.583-.076,1.371-.524,1.841a1.731,1.731,0,0,1-1.233.372l-2.944.1a18.32,18.32,0,0,1-3.113.1c-.9-.132-.6-.67-.732-1.379C223.068,88.114,222.783,87.275,223.374,86.611Z" transform="translate(-136.531 -36.704)" fill="#fce15c"/>
    <path id="Tracé_3278" data-name="Tracé 3278" d="M230.818,89.582a14.841,14.841,0,0,0-.715,1.379c.448.158,1.008.281,1.343-.042.2-.2.253-.512.464-.7a1.478,1.478,0,0,1,.715-.256,3.048,3.048,0,0,0,1.708-1.061,1.086,1.086,0,0,1-.563.757,4.675,4.675,0,0,0-.844.529,3.094,3.094,0,0,0-.636,1.407,1.732,1.732,0,0,1-.892,1.222,1.951,1.951,0,0,1-.7.068,25.681,25.681,0,0,0-4.222.281,5.4,5.4,0,0,1-1.106.093,1.531,1.531,0,0,1-1-.414.343.343,0,0,1-.076-.1.385.385,0,0,1,0-.16l.09-1.078a.25.25,0,0,1,.031-.121c.073-.107.251-.037.324.073s.113.251.228.312l.02-.355a.222.222,0,0,1,.031-.121.228.228,0,0,1,.149-.07,3.9,3.9,0,0,0,1.787-.889c-.318-.158-.281-.673-.017-.9a1.078,1.078,0,0,1,1.016-.084c.335.118.633.318.968.442a5.4,5.4,0,0,0-1.83-.318.214.214,0,0,0-.253.279,2.722,2.722,0,0,0,.659,1.568,1.158,1.158,0,0,1,.217.281,2.2,2.2,0,0,1,.079.383.743.743,0,0,0,.563.585.58.58,0,0,0,.659-.428c.065-.357-.248-.653-.487-.926a3,3,0,0,1-.583-1.03,3.057,3.057,0,0,1,.844.183,1.039,1.039,0,0,1,.6.594c.2,0,.318-.211.408-.388.588-1.126,1.689-1.481,2.7-2.105A3.487,3.487,0,0,0,230.818,89.582Z" transform="translate(-137.439 -39.556)" fill="url(#linear-gradient-12)"/>
    <path id="Tracé_3279" data-name="Tracé 3279" d="M258.992,80.871a.178.178,0,0,0,.065-.065.217.217,0,0,0,0-.127,1.722,1.722,0,0,1-.031-.417.5.5,0,0,1,.177-.36.377.377,0,0,1,.335-.056.369.369,0,0,1,.236.245.357.357,0,0,1,.38.141.253.253,0,0,1-.1.36.791.791,0,0,1,.3.253.355.355,0,0,1,0,.372.484.484,0,0,1-.47.141.455.455,0,0,0-.163,0,.52.52,0,0,0-.11.042,1.519,1.519,0,0,0-.357.281,4.585,4.585,0,0,1-.346.355.518.518,0,0,1-.464.115c-.2-.068-.521-.439-.315-.616C258.409,81.285,258.713,81.088,258.992,80.871Z" transform="translate(-161.708 -33.348)" fill="#fff"/>
    <path id="Tracé_3280" data-name="Tracé 3280" d="M246.81,88.5a.36.36,0,0,1,.113-.242,7.147,7.147,0,0,1,.5-.8,1.52,1.52,0,0,1,1.064-.281c.16,0,.563-.045.546.2s-.467.326-.625.4A12.813,12.813,0,0,0,246.81,88.5Z" transform="translate(-153.627 -38.621)" fill="url(#linear-gradient-13)"/>
    <path id="Tracé_3281" data-name="Tracé 3281" d="M237.339,93.892a.079.079,0,0,0-.051,0c-.028.023,0,.07,0,.1l.191.388a2.135,2.135,0,0,0,.191.329,6,6,0,0,1,.464.538,1.63,1.63,0,0,1-.152-.737.155.155,0,0,1,.028-.107.194.194,0,0,1,.1-.053.583.583,0,0,0,.442-.45.166.166,0,0,0-.177-.191c-.082.014-.1.1-.174.144a.828.828,0,0,1-.4.037Z" transform="translate(-146.777 -43.32)" fill="url(#linear-gradient-14)"/>
    <path id="Tracé_3282" data-name="Tracé 3282" d="M167.425,134.385a5.6,5.6,0,0,0,3.271.563q.937-.025,1.875-.062a4.593,4.593,0,0,0,2.072-.428,4.751,4.751,0,0,0,.982-.813,5.438,5.438,0,0,0,1.562-2.156c.208-.6.262-1.329-.563-1.329l-6.474.017h-3.763c-.433,0-1.253-.073-1.526.363s.281,1.222.5,1.627a6.367,6.367,0,0,0,2.063,2.2Z" transform="translate(-94.691 -69.512)" fill="#68e1fd"/>
    <path id="Tracé_3283" data-name="Tracé 3283" d="M177.185,131.357l-.042.132a5.382,5.382,0,0,1-1.562,2.153,4.692,4.692,0,0,1-.982.816,4.621,4.621,0,0,1-2.072.425c-.625.025-1.25.045-1.872.065a5.518,5.518,0,0,1-3.273-.563h-.02a6.4,6.4,0,0,1-2.063-2.207c-.107-.2-.3-.49-.439-.785a.9.9,0,0,1-.059-.844c.281-.439,1.095-.363,1.528-.363h3.76l6.474-.017C177.346,130.158,177.351,130.789,177.185,131.357Z" transform="translate(-94.645 -69.519)" fill="#5c6f99"/>
    <path id="Tracé_3284" data-name="Tracé 3284" d="M177.535,133.7l-.042.132a5.382,5.382,0,0,1-1.562,2.153,4.692,4.692,0,0,1-.982.816,4.621,4.621,0,0,1-2.072.425c-.625.025-1.25.045-1.872.065h-.428a4.921,4.921,0,0,1-2.846-.563h-.02a6.4,6.4,0,0,1-2.063-2.207c-.107-.2-.3-.49-.439-.785.321-.352,1.064-.281,1.469-.281h3.76l6.474-.017A.639.639,0,0,1,177.535,133.7Z" transform="translate(-94.995 -71.863)" fill="#dce7f9"/>
    <path id="Tracé_3286" data-name="Tracé 3286" d="M251.578,121.915a2.66,2.66,0,0,1,.8-.442,5.812,5.812,0,0,1,1.565-.462,2.052,2.052,0,0,1,1.537.411,1.633,1.633,0,0,1,1.461-.335,7.061,7.061,0,0,0,1.537.251,6.931,6.931,0,0,1,.8-.053.709.709,0,0,1,.636.411c.045.129.031.281.065.4.135.563.971.7,1.182,1.25.189.5-.281,1.03-.78,1.177a6.42,6.42,0,0,1-1.582.062c-.844.025-1.647.349-2.485.445a9.4,9.4,0,0,1-4.827-1.2,1.774,1.774,0,0,1-.577-.357.6.6,0,0,1-.16-.625c.1-.242.355-.166.49-.315S251.381,122.089,251.578,121.915Z" transform="translate(-156.434 -62.924)" fill="#5c6f99"/>
    <path id="Tracé_3287" data-name="Tracé 3287" d="M258.881,124.123a1.308,1.308,0,0,1-1.168.386,2.2,2.2,0,0,0-1.258.144.794.794,0,0,1-.2.113.563.563,0,0,1-.208,0,3.658,3.658,0,0,1-1.055-.245,2.534,2.534,0,0,0-.67-.22h-.487a2.649,2.649,0,0,1-1.556-.766,1.537,1.537,0,0,1-.7.746c-.124.062-.281.138-.281.281a.281.281,0,0,0,.042.132c.2.352.65.45,1.03.583s.673.281,1.013.422a8.842,8.842,0,0,0,3.7.4c1.16-.056,2.319-.16,3.468-.315a.7.7,0,0,0,.338-.1.68.68,0,0,0,.18-.236c.149-.267.3-.591.155-.844-.113-.214-.372-.3-.549-.467a2.382,2.382,0,0,1-.417-.715.763.763,0,0,0-.622-.487.245.245,0,0,0-.191.084c-.059.079-.034.186-.045.281-.02.16-.144.236-.239.352S258.985,123.974,258.881,124.123Z" transform="translate(-156.847 -64.317)" fill="url(#linear-gradient-15)"/>
    <path id="Tracé_3288" data-name="Tracé 3288" d="M182.338,227.07a1.176,1.176,0,0,0,.546.763,1.316,1.316,0,0,0,.363.087q1.376.191,2.764.245a1.216,1.216,0,0,0,.709-.115.8.8,0,0,0,.267-.949,1.5,1.5,0,0,0-.732-.746,9.982,9.982,0,0,0-.985-.411,7.379,7.379,0,0,0-1.658-.7c-.383-.062-1.174-.093-1.407.281S182.225,226.707,182.338,227.07Z" transform="translate(-107.138 -137.806)" fill="#282b2d"/>
  </g>
</svg>
