<svg xmlns="http://www.w3.org/2000/svg" width="83.755" height="46.485" viewBox="0 0 83.755 46.485">
  <g id="_386_colosseum_flatline" data-name="#386_colosseum_flatline" transform="translate(0 -7.902)">
    <path id="Tracé_2713" data-name="Tracé 2713" d="M0,52.958Z" transform="translate(0.13 0.13)" fill="#68e1fd"/>
    <path id="Tracé_2313" data-name="Tracé 2313" d="M53.232,193.545a.6.6,0,0,0-.829-.291,1.653,1.653,0,0,0-1.818-.538,11.773,11.773,0,0,0-1.844.844,3.041,3.041,0,0,0-1.237.748,4.9,4.9,0,0,0-.408.808,4.5,4.5,0,0,1-1.624,1.559c-.216-.4-.8-.356-1.221-.187-.735.291-1.852-.187-2.338.32-.881-1.257-1.652-.925-2.094-.117v7.653l12.134-1.366q.805-4.208,1.359-8.461A1.733,1.733,0,0,0,53.232,193.545Z" transform="translate(-39.581 -154.375)" fill="#f2f1f7"/>
    <path id="Tracé_2314" data-name="Tracé 2314" d="M39.4,204.124a.127.127,0,0,1-.13-.13v-7.653a.119.119,0,0,1,.016-.06,1.27,1.27,0,0,1,1-.779,1.593,1.593,0,0,1,1.229.779,2,2,0,0,1,1.221-.174,2.582,2.582,0,0,0,1.055-.078,1.157,1.157,0,0,1,1.3.13,4.3,4.3,0,0,0,1.478-1.452c.044-.088.083-.182.122-.26a2.424,2.424,0,0,1,.3-.579,2.473,2.473,0,0,1,1.06-.688l.229-.1c.205-.094.41-.205.61-.309a5.778,5.778,0,0,1,1.252-.543,1.848,1.848,0,0,1,1.894.494.592.592,0,0,1,.369-.023.816.816,0,0,1,.538.426,1.883,1.883,0,0,1,.081,1.06c-.369,2.821-.836,5.671-1.356,8.469a.13.13,0,0,1-.112.1l-12.134,1.366Zm.13-7.749v7.476l11.9-1.343c.52-2.761.977-5.575,1.338-8.36a1.579,1.579,0,0,0-.055-.912.558.558,0,0,0-.364-.288.319.319,0,0,0-.26.044.138.138,0,0,1-.1.026.135.135,0,0,1-.086-.06,1.537,1.537,0,0,0-1.678-.483,5.607,5.607,0,0,0-1.195.52c-.2.107-.413.218-.626.317l-.231.1a2.3,2.3,0,0,0-.959.608,2.25,2.25,0,0,0-.26.5c-.042.1-.083.195-.13.288a4.716,4.716,0,0,1-1.668,1.621.125.125,0,0,1-.1.021.117.117,0,0,1-.083-.065c-.169-.312-.668-.286-1.06-.13a2.787,2.787,0,0,1-1.164.1c-.465-.023-.9-.047-1.138.195a.138.138,0,0,1-.1.036.125.125,0,0,1-.1-.055c-.371-.52-.74-.779-1.083-.779A1.071,1.071,0,0,0,39.53,196.374Zm12,6.253Z" transform="translate(-39.174 -154.013)" fill="#1f4076"/>
    <path id="Tracé_2315" data-name="Tracé 2315" d="M315.117,208.185a1.644,1.644,0,0,1,1.359,1.081,2.7,2.7,0,0,1,1.192.946.634.634,0,0,0,.158.174.535.535,0,0,0,.286.052,1.559,1.559,0,0,1,.883.21.613.613,0,0,1,.208.805,1.849,1.849,0,0,1,1.317.125,2.886,2.886,0,0,1,.39-1.818c.218-.358.657-.7,1.023-.491a.494.494,0,0,1,.972-.062c.361.088.59-.353.829-.636a2.53,2.53,0,0,1,1.008-.623c.086-.036.213-.06.26.026a.18.18,0,0,1,0,.091c-.055.746-.078,1.491-.133,2.237v5.224H313.106v.21a27.274,27.274,0,0,0-.533-4.089,6.683,6.683,0,0,1,.288-3.764C313.337,206.891,314.763,207.231,315.117,208.185Z" transform="translate(-241.382 -165.21)" fill="#f2f1f7"/>
    <path id="Tracé_2316" data-name="Tracé 2316" d="M312.79,215.47a.13.13,0,0,1-.13-.125v-.21a.127.127,0,0,1,0-.031,17.035,17.035,0,0,0-.325-2.6c-.073-.405-.148-.823-.208-1.239a6.9,6.9,0,0,1,.3-3.837,1.13,1.13,0,0,1,1.112-.668,1.559,1.559,0,0,1,1.338.912,1.764,1.764,0,0,1,1.372,1.1,2.858,2.858,0,0,1,1.195.969.52.52,0,0,0,.12.138.421.421,0,0,0,.216.034,1.662,1.662,0,0,1,.961.236.816.816,0,0,1,.338.733,2.008,2.008,0,0,1,.972.094,2.964,2.964,0,0,1,.426-1.678,1.052,1.052,0,0,1,1.039-.6.621.621,0,0,1,1.161,0c.161,0,.3-.171.486-.416.049-.065.1-.13.145-.184a2.6,2.6,0,0,1,1.057-.66c.192-.081.356-.044.418.091a.294.294,0,0,1,.021.156c-.029.371-.047.743-.068,1.117s-.039.746-.065,1.117v5.211a.125.125,0,0,1-.039.094.14.14,0,0,1-.094.036H312.923v.083a.127.127,0,0,1-.127.127Zm.127-.47H324.41v-5.086c.029-.382.047-.753.068-1.122s.039-.751.065-1.125h0a.192.192,0,0,0-.081.021,2.447,2.447,0,0,0-.961.587l-.135.174c-.2.26-.452.595-.823.52a.132.132,0,0,1-.1-.1.377.377,0,0,0-.377-.283.382.382,0,0,0-.34.33.127.127,0,0,1-.068.1.14.14,0,0,1-.125,0c-.3-.169-.673.158-.847.444a2.735,2.735,0,0,0-.371,1.733.135.135,0,0,1-.055.122.127.127,0,0,1-.132,0,1.72,1.72,0,0,0-1.224-.117.13.13,0,0,1-.143-.049.133.133,0,0,1,0-.151.483.483,0,0,0-.177-.623,1.408,1.408,0,0,0-.808-.187.652.652,0,0,1-.353-.073.621.621,0,0,1-.184-.195,2.621,2.621,0,0,0-1.148-.914.122.122,0,0,1-.073-.078,1.512,1.512,0,0,0-1.25-.992.13.13,0,0,1-.109-.083,1.3,1.3,0,0,0-1.135-.818.883.883,0,0,0-.868.52,6.675,6.675,0,0,0-.278,3.691c.06.41.132.826.205,1.231a17.44,17.44,0,0,1,.33,2.52Z" transform="translate(-241.053 -164.821)" fill="#1f4076"/>
    <path id="Tracé_2317" data-name="Tracé 2317" d="M39.4,233.271l10.555-1.231H122.84v5.751H39.4Z" transform="translate(-39.27 -183.535)" fill="#fce15c"/>
    <path id="Tracé_2318" data-name="Tracé 2318" d="M122.47,237.551H39.03a.13.13,0,0,1-.13-.13V232.9a.13.13,0,0,1,.114-.13l10.563-1.231H122.47a.13.13,0,0,1,.13.13v5.751A.13.13,0,0,1,122.47,237.551Zm-83.31-.26h83.18V231.8H49.577L39.16,233.016Z" transform="translate(-38.9 -183.164)" fill="#1f4076"/>
    <rect id="Rectangle_1400" data-name="Rectangle 1400" width="2.92" height="2.096" transform="translate(41.85 27.926)" fill="#f2f1f7"/>
    <path id="Tracé_2320" data-name="Tracé 2320" d="M202.55,154.679h-2.92a.13.13,0,0,1-.13-.13v-2.1a.13.13,0,0,1,.13-.13h2.92a.13.13,0,0,1,.13.13v2.1A.13.13,0,0,1,202.55,154.679Zm-2.79-.26h2.66V152.58h-2.66Z" transform="translate(-157.78 -124.524)" fill="#1f4076"/>
    <path id="Tracé_2321" data-name="Tracé 2321" d="M218.28,153.293v-3.8a78.825,78.825,0,0,1,14.41,1.473c7.949,1.728,11.155,4.964,11.155,4.964l.34,3.839-15.652.405-9.352-5.77Z" transform="translate(-171.681 -122.429)" fill="#f2f1f7"/>
    <path id="Tracé_2322" data-name="Tracé 2322" d="M228.18,159.932a.125.125,0,0,1-.068-.018l-9.352-5.77a.1.1,0,0,1-.034-.031L217.849,153a.122.122,0,0,1-.029-.081v-3.8a.13.13,0,0,1,.13-.13,79.738,79.738,0,0,1,14.436,1.476,30.359,30.359,0,0,1,8.6,3.146,13.01,13.01,0,0,1,2.624,1.855.13.13,0,0,1,.036.081l.32,3.837a.133.133,0,0,1-.125.14l-15.654.405Zm-9.274-6,9.308,5.736,15.477-.4-.314-3.647c-.358-.338-3.663-3.289-11.056-4.9a78.792,78.792,0,0,0-14.251-1.468v3.637Z" transform="translate(-171.341 -122.059)" fill="#1f4076"/>
    <path id="Tracé_2323" data-name="Tracé 2323" d="M249.189,167.932v-1.678l-.951-.488v1.818c-.436-.156-.925-.32-1.473-.488v-1.779l-.992-.481V166.8q-.849-.236-1.85-.483V164.3l-1.172-.475v2.224c-.32-.073-.647-.143-.987-.21-.416-.086-.831-.164-1.242-.236V163.24l-1.39-.244v2.372c-.9-.135-1.777-.242-2.621-.327v-2.465l-1.39-.244v2.582c-.969-.075-1.878-.125-2.7-.156,0-1.024-.016-2.92-.016-2.92l-1.343-.057-.036,2.941c-2.008-.029-3.265.047-3.265.047a38.781,38.781,0,0,0,.317,6.983c.5,2.265,7.656,8.271,7.656,8.271h15.446v-11.17A12.77,12.77,0,0,0,249.189,167.932Z" transform="translate(-178.673 -131.526)" fill="#f2f1f7"/>
    <path id="Tracé_2324" data-name="Tracé 2324" d="M250.8,179.8H235.349a.143.143,0,0,1-.083-.031c-.294-.247-7.2-6.071-7.7-8.352a37.565,37.565,0,0,1-.32-7.014.13.13,0,0,1,.122-.122c.013,0,1.231-.075,3.146-.052l.034-2.811a.125.125,0,0,1,.042-.094.122.122,0,0,1,.094-.034l1.343.057a.13.13,0,0,1,.125.127c0,.018.018,1.764.016,2.8.811.031,1.629.078,2.445.14V161.97a.13.13,0,0,1,.151-.127l1.39.244a.13.13,0,0,1,.109.127v2.338c.792.083,1.585.182,2.361.3v-2.221a.135.135,0,0,1,.044-.1.145.145,0,0,1,.107-.029l1.39.244a.132.132,0,0,1,.109.13v2.239q.564.1,1.138.218c.286.057.561.117.831.174v-2.06a.13.13,0,0,1,.179-.119l1.172.475a.132.132,0,0,1,.081.12v1.915c.548.135,1.083.273,1.59.416v-1.787a.13.13,0,0,1,.062-.112.133.133,0,0,1,.125,0l.992.483a.13.13,0,0,1,.073.117v1.683c.423.132.829.26,1.213.4v-1.621a.127.127,0,0,1,.062-.109.125.125,0,0,1,.127,0l.951.486a.13.13,0,0,1,.07.117v1.587a12.553,12.553,0,0,1,1.915.912.125.125,0,0,1,.06.109v11.17A.13.13,0,0,1,250.8,179.8Zm-15.384-.26h15.254V168.573a14.488,14.488,0,0,0-1.894-.886.127.127,0,0,1-.081-.119v-1.6l-.7-.343v1.592a.133.133,0,0,1-.055.107.13.13,0,0,1-.119.016c-.457-.164-.951-.327-1.468-.486a.13.13,0,0,1-.091-.125v-1.7l-.733-.356v1.761a.125.125,0,0,1-.052.1.13.13,0,0,1-.114.023c-.582-.166-1.2-.327-1.844-.483a.13.13,0,0,1-.1-.127V164.03l-.912-.369v2.029a.138.138,0,0,1-.047.1.132.132,0,0,1-.112.023c-.317-.07-.644-.14-.985-.208-.416-.086-.829-.164-1.239-.236a.127.127,0,0,1-.107-.127V163l-1.13-.2v2.218a.138.138,0,0,1-.047.1.125.125,0,0,1-.1.029c-.857-.127-1.738-.236-2.613-.327a.127.127,0,0,1-.117-.127v-2.356l-1.13-.2v2.429a.132.132,0,0,1-.042.1.127.127,0,0,1-.1.034c-.9-.07-1.818-.122-2.7-.156a.13.13,0,0,1-.125-.13c0-.86,0-2.359,0-2.8l-1.088-.047-.034,2.808a.122.122,0,0,1-.039.091.112.112,0,0,1-.091.036c-1.637-.023-2.782.023-3.138.042a37.271,37.271,0,0,0,.317,6.83c.455,2.1,7.014,7.7,7.565,8.167Z" transform="translate(-178.292 -131.163)" fill="#1f4076"/>
    <path id="Tracé_2325" data-name="Tracé 2325" d="M246.91,185.277v-3.832c0-1.06.665-1.33,1.476-1.335.888,0,1.125.7,1.164,1.263s0,3.967,0,3.967Z" transform="translate(-192.874 -145.095)" fill="#1f4076"/>
    <path id="Tracé_2326" data-name="Tracé 2326" d="M249.164,185.085h0l-2.642-.055a.135.135,0,0,1-.132-.138v-3.84c0-.985.52-1.468,1.613-1.473h0c.779,0,1.229.494,1.3,1.39.039.566,0,3.84,0,3.98a.137.137,0,0,1-.138.135Zm-2.5-.327,2.364.049c0-.644.034-3.328,0-3.816-.052-.753-.395-1.135-1.016-1.135h0c-.927,0-1.34.374-1.34,1.2Z" transform="translate(-192.489 -144.702)" fill="#1f4076"/>
    <path id="Tracé_2327" data-name="Tracé 2327" d="M231.09,184.935V181.1c0-1.062.665-1.33,1.478-1.335.886,0,1.122.694,1.161,1.263s0,3.967,0,3.967Z" transform="translate(-181.164 -144.836)" fill="#1f4076"/>
    <path id="Tracé_2328" data-name="Tracé 2328" d="M233.344,184.735h0l-2.639-.055a.138.138,0,0,1-.135-.138V180.7c0-.985.52-1.468,1.616-1.473.779,0,1.237.488,1.3,1.39.039.566,0,3.839,0,3.98a.135.135,0,0,1-.042.1A.133.133,0,0,1,233.344,184.735Zm-2.5-.327,2.367.049c0-.644.034-3.328,0-3.819-.052-.751-.392-1.133-1.016-1.133h0c-.927,0-1.34.374-1.34,1.2Z" transform="translate(-180.779 -144.443)" fill="#1f4076"/>
    <path id="Tracé_2329" data-name="Tracé 2329" d="M265.451,207.5a.078.078,0,0,1-.034,0c-5.933-1.631-18.148-1.151-18.27-1.146a.13.13,0,0,1-.138-.127.132.132,0,0,1,.127-.138c.122,0,12.378-.488,18.351,1.156a.132.132,0,0,1-.036.26Z" transform="translate(-192.948 -164.273)" fill="#1f4076"/>
    <path id="Tracé_2330" data-name="Tracé 2330" d="M184.388,157.848s8.053-.39,10.531-.34v1.218a1.59,1.59,0,0,1,.244.779,11.618,11.618,0,0,0,0,1.268c0,.049,2.434,7.315,2.434,7.315l1.857,8.767H188.386s-6-10.778-5.411-14.028A21.519,21.519,0,0,1,184.388,157.848Z" transform="translate(-145.518 -128.361)" fill="#f2f1f7"/>
    <path id="Tracé_2331" data-name="Tracé 2331" d="M199.081,176.627H188.012a.133.133,0,0,1-.114-.068c-.244-.442-6.014-10.853-5.427-14.106a21.791,21.791,0,0,1,1.426-5.029.13.13,0,0,1,.109-.075c.081,0,8.082-.387,10.542-.34a.127.127,0,0,1,.127.13v1.185a1.543,1.543,0,0,1,.242.834,8.9,8.9,0,0,0,0,1.052v.179c.083.3,1.774,5.346,2.426,7.289l1.86,8.791a.138.138,0,0,1-.026.109A.132.132,0,0,1,199.081,176.627Zm-10.991-.26h10.83l-1.818-8.622c-2.445-7.274-2.439-7.318-2.434-7.354s0-.081,0-.171a7.239,7.239,0,0,1,0-1.1,1.426,1.426,0,0,0-.229-.691.153.153,0,0,1-.018-.068v-1.094c-2.45-.034-9.487.3-10.316.34a22.884,22.884,0,0,0-1.372,4.894C182.18,165.53,187.586,175.448,188.09,176.367Z" transform="translate(-145.143 -127.992)" fill="#1f4076"/>
    <path id="Tracé_2332" data-name="Tracé 2332" d="M217.087,199.273l1.694,6.536h.683v1.026H205.885l-.135-8.845h11.337" transform="translate(-162.406 -158.33)" fill="#f2f1f7"/>
    <path id="Tracé_2333" data-name="Tracé 2333" d="M219.094,206.625H205.515a.13.13,0,0,1-.13-.13l-.135-8.832a.14.14,0,0,1,.036-.094.132.132,0,0,1,.094-.039h11.337a.13.13,0,0,1,0,.26h-11.2l.13,8.573h13.311V205.6H218.4a.13.13,0,0,1-.127-.1l-1.694-6.536a.134.134,0,0,1,.26-.065l1.668,6.437h.582a.13.13,0,0,1,.13.13v1.018a.13.13,0,0,1-.127.14Z" transform="translate(-162.036 -157.989)" fill="#1f4076"/>
    <path id="Tracé_2334" data-name="Tracé 2334" d="M211.1,208.5h0a1.743,1.743,0,0,1,1.743,1.743V214.6H209.36v-4.362A1.743,1.743,0,0,1,211.1,208.5Z" transform="translate(-165.078 -166.11)" fill="#1f4076"/>
    <path id="Tracé_2335" data-name="Tracé 2335" d="M212.479,214.566H208.99a.132.132,0,0,1-.13-.13v-4.372a1.876,1.876,0,0,1,3.749,0v4.362a.132.132,0,0,1-.13.14Zm-3.359-.26h3.229v-4.242a1.616,1.616,0,0,0-3.229,0Z" transform="translate(-164.708 -165.931)" fill="#1f4076"/>
    <path id="Tracé_2336" data-name="Tracé 2336" d="M215.712,195.209H203.57V192.5h12.142l-.239,1.426Z" transform="translate(-160.793 -154.266)" fill="#f2f1f7"/>
    <path id="Tracé_2337" data-name="Tracé 2337" d="M215.342,194.969H203.2a.13.13,0,0,1-.13-.13V192.13a.13.13,0,0,1,.13-.13h12.142a.138.138,0,0,1,.1.047.127.127,0,0,1,.029.1l-.234,1.405.234,1.26a.13.13,0,0,1-.127.153Zm-12.012-.26h11.856l-.21-1.13a.125.125,0,0,1,0-.044l.213-1.276H203.33Z" transform="translate(-160.422 -153.896)" fill="#1f4076"/>
    <path id="Tracé_2338" data-name="Tracé 2338" d="M193.013,176.914V173.44a1.442,1.442,0,0,0-1.792-1.3c-.987.2-1.559.52-1.665,1.005s0,3.767,0,3.767Z" transform="translate(-150.383 -139.171)" fill="#1f4076"/>
    <path id="Tracé_2339" data-name="Tracé 2339" d="M192.647,176.669h-3.455a.13.13,0,0,1-.13-.125c0-.135-.109-3.315,0-3.8.122-.52.7-.886,1.766-1.1a1.668,1.668,0,0,1,1.4.33,1.421,1.421,0,0,1,.546,1.1v3.473A.13.13,0,0,1,192.647,176.669Zm-3.33-.26h3.2v-3.343a1.166,1.166,0,0,0-.449-.9,1.421,1.421,0,0,0-1.187-.275c-.943.192-1.47.5-1.559.907-.086.361-.034,2.616,0,3.608Z" transform="translate(-150.017 -138.796)" fill="#1f4076"/>
    <path id="Tracé_2340" data-name="Tracé 2340" d="M188.909,162.1a.132.132,0,0,1-.13-.122.13.13,0,0,1,.122-.138c.075,0,7.575-.52,10.355-.294a.13.13,0,1,1-.021.26c-2.761-.216-10.243.288-10.318.291Z" transform="translate(-149.844 -131.312)" fill="#1f4076"/>
    <path id="Tracé_2341" data-name="Tracé 2341" d="M188.907,167.19a.132.132,0,0,1-.13-.112.13.13,0,0,1,.114-.145c2.247-.291,10.495-.343,10.578-.343h0a.13.13,0,0,1,0,.26c-.083,0-8.313.052-10.547.34Z" transform="translate(-149.842 -135.087)" fill="#1f4076"/>
    <path id="Tracé_2342" data-name="Tracé 2342" d="M177.366,148.51l2.387,2.341.439,8.874-4.242-.294Z" transform="translate(-140.348 -121.704)" fill="#1f4076"/>
    <path id="Tracé_2343" data-name="Tracé 2343" d="M179.848,159.482h0l-4.242-.294a.122.122,0,0,1-.091-.047.125.125,0,0,1-.029-.1l1.413-10.924a.13.13,0,0,1,.086-.107.138.138,0,0,1,.135.031l2.387,2.338a.125.125,0,0,1,.039.086l.439,8.877a.13.13,0,0,1-.13.135Zm-4.094-.543,3.959.26-.431-8.677-2.167-2.122Z" transform="translate(-140.003 -121.331)" fill="#1f4076"/>
    <path id="Tracé_2344" data-name="Tracé 2344" d="M156.478,109.49l.888.823v5.021l2.341,5.411H154.93v-9.264Z" transform="translate(-124.788 -92.82)" fill="#1f4076"/>
    <path id="Tracé_2345" data-name="Tracé 2345" d="M159.337,120.5H154.56a.13.13,0,0,1-.13-.13v-9.264a.148.148,0,0,1,.026-.081l1.559-1.992a.132.132,0,0,1,.192-.016l.888.823a.122.122,0,0,1,.042.1v5l2.338,5.388a.127.127,0,0,1-.119.179Zm-4.647-.26h4.45l-2.26-5.229a.127.127,0,0,1-.013-.052V110l-.73-.686-1.434,1.844Z" transform="translate(-124.418 -92.449)" fill="#1f4076"/>
    <path id="Tracé_2346" data-name="Tracé 2346" d="M135.933,76.24s1.366,1.146,1.439,1.255a4.587,4.587,0,0,1,.208.7l1.039.878,2.437,6.619-5.133.694-.462-7.715Z" transform="translate(-110.376 -68.208)" fill="#1f4076"/>
    <path id="Tracé_2347" data-name="Tracé 2347" d="M135.59,86.141a.132.132,0,0,1-.081-.029.122.122,0,0,1-.047-.094L135,78.3a.162.162,0,0,1,0-.034l.462-2.424a.132.132,0,0,1,.086-.1.127.127,0,0,1,.127.023c.413.348,1.387,1.169,1.463,1.283a3.528,3.528,0,0,1,.216.694l1,.852a.112.112,0,0,1,.039.052l2.45,6.619a.135.135,0,0,1,0,.114.127.127,0,0,1-.094.06l-5.133.7Zm-.333-7.837.455,7.562,4.834-.655-2.382-6.437-1.011-.855a.122.122,0,0,1-.042-.07,4.212,4.212,0,0,0-.19-.652c-.057-.073-.657-.59-1.244-1.086Z" transform="translate(-110.033 -67.838)" fill="#1f4076"/>
    <path id="Tracé_2348" data-name="Tracé 2348" d="M79.569,116.7v-5.4a.75.75,0,0,1,0-.878l.294-.829.039-4.975.618-2.143.13-12.529c.029-.171-.616-1.231-.613-.977,0,.551.761-4.242,3.98-7.118s9.8-5.076,9.8-5.076l.634-.535.294.977.538,1.512.779,1.122.878,5.8s2.338-.579,3.637-.779l-.135,2.338-.023,1.185-.416.231V95.4s4.829-.34,5.9-.387l.242,10.287s4.975.049,5.9-.1v1.987s.681-.231.681.109.125-.158-.109.805c-.018.083.426,3.608.426,3.608a33,33,0,0,1,2,4,1.431,1.431,0,0,1,0,1Z" transform="translate(-68.892 -68.208)" fill="#f2f1f7"/>
    <path id="Tracé_2349" data-name="Tracé 2349" d="M114.691,116.472H79.208a.132.132,0,0,1-.13-.13v-5.375a.852.852,0,0,1,.016-.982l.278-.779.039-4.951a.171.171,0,0,1,0-.036l.618-2.128.13-12.516a2.9,2.9,0,0,0-.431-.808.148.148,0,0,1-.068,0c-.055,0-.119-.042-.119-.171a.161.161,0,0,1,.068-.145c.016-.049.034-.109.049-.169a14.845,14.845,0,0,1,3.9-6.9c3.117-2.774,9.383-4.936,9.822-5.089l.616-.52a.13.13,0,0,1,.122-.026.122.122,0,0,1,.086.088l.294.974.52,1.489.779,1.107a.156.156,0,0,1,.021.055l.857,5.663c.52-.127,2.4-.574,3.52-.74a.125.125,0,0,1,.107.031.13.13,0,0,1,.042.1l-.135,2.338-.023,1.179a.13.13,0,0,1-.068.109l-.348.195V94.9c.8-.055,4.806-.335,5.764-.377a.12.12,0,0,1,.1.034.135.135,0,0,1,.042.094l.239,10.162c.779,0,4.936.031,5.754-.1a.135.135,0,0,1,.151.13v1.818a.759.759,0,0,1,.561.036.283.283,0,0,1,.12.244.377.377,0,0,0,0,.083c.049.057.049.057-.117.751,0,.122.26,2.174.426,3.536a31.819,31.819,0,0,1,2,4.006,1.559,1.559,0,0,1,0,1.094A.132.132,0,0,1,114.691,116.472Zm-35.345-.26H114.6a1.5,1.5,0,0,0-.034-.834,32.016,32.016,0,0,0-1.987-3.969.156.156,0,0,1-.016-.049c-.449-3.549-.431-3.637-.423-3.655.075-.309.122-.52.135-.582a.436.436,0,0,1-.031-.192c0-.026,0-.031,0-.034a.823.823,0,0,0-.5.047.125.125,0,0,1-.117-.018.12.12,0,0,1-.055-.1V104.98c-1.205.125-5.577.083-5.772.081a.132.132,0,0,1-.13-.127l-.249-10.162c-1.276.068-5.715.379-5.764.382a.13.13,0,0,1-.14-.13V88.255a.132.132,0,0,1,.068-.114l.348-.195.023-1.109.125-2.177c-1.314.213-3.452.74-3.473.746a.132.132,0,0,1-.161-.107l-.873-5.772-.764-1.1-.016-.026-.535-1.512-.236-.779-.483.41a.145.145,0,0,1-.044.023c-.065.021-6.593,2.218-9.755,5.045a14.57,14.57,0,0,0-3.829,6.762c-.018.068-.034.122-.049.171a2.59,2.59,0,0,1,.556,1.065L80.3,102.1a.172.172,0,0,1,0,.036l-.618,2.125-.036,4.957a.122.122,0,0,1,0,.044l-.3.831a.224.224,0,0,1-.026.042.651.651,0,0,0,0,.717.135.135,0,0,1,.023.075Z" transform="translate(-68.531 -67.837)" fill="#1f4076"/>
    <path id="Tracé_2350" data-name="Tracé 2350" d="M79.419,196.994a36.495,36.495,0,0,1,10.7-2.218c7-.584,21.481-.182,21.481-.182s.779-.7.681.109a9.874,9.874,0,0,0-.109,1.146s-17.405-.195-22.538.39c-7.487.852-10.518,2.463-10.518,2.463S78.25,197.9,79.419,196.994Z" transform="translate(-68.441 -155.609)" fill="#f2f1f7"/>
    <path id="Tracé_2351" data-name="Tracé 2351" d="M78.734,198.489a.119.119,0,0,1-.086-.034,1.187,1.187,0,0,1-.358-.855,1.437,1.437,0,0,1,.66-1.039l.026-.018a37.155,37.155,0,0,1,10.744-2.229c6.72-.561,20.5-.21,21.445-.184.145-.12.483-.366.709-.244s.161.405.148.5a10.088,10.088,0,0,0-.109,1.127.132.132,0,0,1-.039.094.112.112,0,0,1-.091.036c-.174,0-17.46-.187-22.525.39-7.365.839-10.433,2.432-10.461,2.447A.138.138,0,0,1,78.734,198.489Zm.361-1.722a1.187,1.187,0,0,0-.546.844.9.9,0,0,0,.216.59c.559-.26,3.736-1.665,10.464-2.434,4.85-.551,20.837-.408,22.429-.392a9.913,9.913,0,0,1,.107-1.039c.026-.2-.013-.239-.016-.239-.047-.026-.26.081-.452.244a.133.133,0,0,1-.091.034c-.143,0-14.547-.395-21.465.182A37.175,37.175,0,0,0,79.1,196.767Z" transform="translate(-68.057 -155.267)" fill="#1f4076"/>
    <path id="Tracé_2352" data-name="Tracé 2352" d="M80.5,163.036a1.933,1.933,0,0,1,.016-2.078c.358-.675,1.946-2.561,5.455-3.377a91.893,91.893,0,0,1,20.574-2.421s.039.218.088.46a5.905,5.905,0,0,1-.047,1.039s-13.069.34-18.556,1.8C81.1,160.3,80.5,163.036,80.5,163.036Z" transform="translate(-69.487 -126.626)" fill="#f2f1f7"/>
    <path id="Tracé_2353" data-name="Tracé 2353" d="M80.118,162.809a.132.132,0,0,1-.1-.049,2.038,2.038,0,0,1,0-2.211c.457-.857,2.2-2.676,5.533-3.455a92.819,92.819,0,0,1,20.608-2.424.125.125,0,0,1,.125.107s.039.216.088.46a5.83,5.83,0,0,1-.044,1.065.132.132,0,0,1-.127.114c-.13,0-13.116.356-18.527,1.8-6.736,1.8-7.419,4.46-7.427,4.486a.127.127,0,0,1-.1.1Zm25.622-7.874a94.2,94.2,0,0,0-20.13,2.419c-3.25.764-4.936,2.5-5.359,3.317a1.915,1.915,0,0,0-.156,1.7c.348-.759,1.818-2.878,7.513-4.4,5.17-1.379,17.176-1.766,18.473-1.818a4.559,4.559,0,0,0,.036-.873c-.029-.14-.055-.26-.07-.358Z" transform="translate(-69.103 -126.263)" fill="#1f4076"/>
    <path id="Tracé_2354" data-name="Tracé 2354" d="M81.722,130.1a1.747,1.747,0,0,1-.626-1.855c.39-1.075.717-3.021,4.936-5.913,3.536-2.429,15.6-3.9,15.6-3.9l-.023,1.185s-8.817,1.608-12.558,3.058C84.959,124.275,82.346,126.42,81.722,130.1Z" transform="translate(-70.069 -99.445)" fill="#f2f1f7"/>
    <path id="Tracé_2355" data-name="Tracé 2355" d="M81.356,129.928a.13.13,0,0,1-.078-.029,1.9,1.9,0,0,1-.67-2c.034-.1.07-.2.107-.309.374-1.127,1.005-3.013,4.866-5.666,3.525-2.419,15.168-3.85,15.662-3.9a.135.135,0,0,1,.1.031.122.122,0,0,1,.042.1l-.023,1.185a.135.135,0,0,1-.107.125c-.088.016-8.845,1.621-12.534,3.052-4.442,1.725-6.674,3.98-7.237,7.313a.13.13,0,0,1-.081.1.151.151,0,0,1-.049,0Zm19.769-11.638c-1.392.179-12.137,1.611-15.4,3.85-3.79,2.6-4.416,4.437-4.767,5.533-.039.112-.073.218-.109.314a1.5,1.5,0,0,0,.418,1.559c.644-3.307,2.925-5.559,7.359-7.274,3.491-1.356,11.469-2.858,12.469-3.047Z" transform="translate(-69.702 -99.139)" fill="#1f4076"/>
    <path id="Tracé_2356" data-name="Tracé 2356" d="M83.745,104.728H83.7a.132.132,0,0,1-.073-.169,14.678,14.678,0,0,1,5.245-6.318,31.7,31.7,0,0,1,10.321-4.014.131.131,0,0,1,.029.26,31.549,31.549,0,0,0-10.212,3.967,14.315,14.315,0,0,0-5.141,6.19A.132.132,0,0,1,83.745,104.728Z" transform="translate(-72.001 -81.522)" fill="#1f4076"/>
    <rect id="Rectangle_1401" data-name="Rectangle 1401" width="1.018" height="8.282" transform="translate(41.85 40.224)" fill="#f2f1f7"/>
    <path id="Tracé_2357" data-name="Tracé 2357" d="M200.648,208.2H199.63a.13.13,0,0,1-.13-.13V199.79a.13.13,0,0,1,.13-.13h1.018a.13.13,0,0,1,.13.13v8.271a.13.13,0,0,1-.13.14Zm-.888-.26h.759V199.92h-.759Z" transform="translate(-157.78 -159.566)" fill="#1f4076"/>
    <path id="Tracé_2358" data-name="Tracé 2358" d="M186.451,212.3v-5.268a1.9,1.9,0,0,0-2.2-1.637,1.831,1.831,0,0,0-1.818,1.964c-.042.818,0,4.951,0,4.951Z" transform="translate(-145.136 -163.802)" fill="#1f4076"/>
    <path id="Tracé_2359" data-name="Tracé 2359" d="M186.054,212.09h-4.024a.13.13,0,0,1-.13-.13c0-.169-.039-4.156,0-4.957a1.962,1.962,0,0,1,1.948-2.078,2.3,2.3,0,0,1,1.761.566,1.668,1.668,0,0,1,.574,1.2v5.258a.132.132,0,0,1-.13.14Zm-3.9-.26h3.764v-5.149a1.405,1.405,0,0,0-.488-1.008,2.055,2.055,0,0,0-1.559-.5,1.725,1.725,0,0,0-1.709,1.844c-.042.722-.013,4.107.008,4.814Z" transform="translate(-144.74 -163.454)" fill="#1f4076"/>
    <path id="Tracé_2360" data-name="Tracé 2360" d="M162.42,213.327v-5.079c0-.9-.933-1.509-2.141-1.473a1.727,1.727,0,0,0-1.572,1.818c.018.577,0,4.733,0,4.733Z" transform="translate(-127.584 -164.832)" fill="#1f4076"/>
    <path id="Tracé_2361" data-name="Tracé 2361" d="M162.03,213.085h-3.723a.122.122,0,0,1-.091-.039.125.125,0,0,1-.036-.091c0-.042.018-4.156,0-4.728a2.169,2.169,0,0,1,.551-1.457,1.582,1.582,0,0,1,1.146-.5,2.528,2.528,0,0,1,1.837.6,1.382,1.382,0,0,1,.434,1v5.079a.127.127,0,0,1-.117.138Zm-3.585-.26H161.9v-4.957a1.127,1.127,0,0,0-.356-.818,2.278,2.278,0,0,0-1.652-.52,1.33,1.33,0,0,0-.982.416,1.925,1.925,0,0,0-.483,1.273c.023.53.01,3.894.005,4.608Z" transform="translate(-127.194 -164.452)" fill="#1f4076"/>
    <path id="Tracé_2362" data-name="Tracé 2362" d="M140.671,213.893v-4.611c0-1.039-.418-1.818-1.559-1.738s-1.372.823-1.444,1.818,0,4.549,0,4.549Z" transform="translate(-111.986 -165.398)" fill="#1f4076"/>
    <path id="Tracé_2363" data-name="Tracé 2363" d="M140.264,213.64h-3.016a.132.132,0,0,1-.13-.127c0-.145-.073-3.577,0-4.559.065-.881.247-1.818,1.559-1.93a1.5,1.5,0,0,1,1.195.343,2,2,0,0,1,.52,1.522V213.5a.13.13,0,0,1-.127.14Zm-2.889-.26h2.759v-4.492a1.767,1.767,0,0,0-.434-1.33,1.276,1.276,0,0,0-1-.278c-1.016.081-1.25.657-1.325,1.691C137.323,209.837,137.362,212.736,137.375,213.38Z" transform="translate(-111.579 -165.005)" fill="#1f4076"/>
    <path id="Tracé_2364" data-name="Tracé 2364" d="M120.864,214.273v-4.884c0-.779-.52-1.465-1.242-1.317s-1.117.779-1.135,1.774,0,4.437,0,4.437Z" transform="translate(-97.806 -165.778)" fill="#1f4076"/>
    <path id="Tracé_2365" data-name="Tracé 2365" d="M120.494,214.043h-2.377a.132.132,0,0,1-.13-.13c0-.034-.018-3.463,0-4.44.021-1.039.47-1.743,1.239-1.9a1.008,1.008,0,0,1,.865.216,1.6,1.6,0,0,1,.52,1.229V213.9A.13.13,0,0,1,120.494,214.043Zm-2.247-.26h2.117v-4.764a1.34,1.34,0,0,0-.436-1.039.759.759,0,0,0-.649-.161c-.647.132-1.013.717-1.039,1.647.005.878.005,3.681.005,4.317Z" transform="translate(-97.436 -165.408)" fill="#1f4076"/>
    <path id="Tracé_2366" data-name="Tracé 2366" d="M101.094,216.248c.073,0,0-3.725,0-4.621a.962.962,0,0,0-1.463-.792c-.535.262-.631.821-.631,1.481v3.933Z" transform="translate(-83.387 -167.752)" fill="#1f4076"/>
    <path id="Tracé_2367" data-name="Tracé 2367" d="M100.672,216.011H98.578a.148.148,0,0,1-.148-.148V211.92c0-.652.086-1.3.717-1.605a1.322,1.322,0,0,1,1.221.044.972.972,0,0,1,.455.883c0,.26,0,.714.013,1.26.042,3.377.018,3.393-.055,3.465A.148.148,0,0,1,100.672,216.011Zm-1.946-.3h1.818c.023-.455,0-2.151,0-3.208v-1.263a.688.688,0,0,0-.314-.629,1.024,1.024,0,0,0-.933-.029c-.455.223-.548.694-.548,1.335Z" transform="translate(-82.965 -167.358)" fill="#1f4076"/>
    <path id="Tracé_2368" data-name="Tracé 2368" d="M85.772,215.521a.582.582,0,0,0-1.024-.377c-.288.312-.192,4.237-.192,4.237h1.216Z" transform="translate(-72.684 -170.886)" fill="#1f4076"/>
    <path id="Tracé_2369" data-name="Tracé 2369" d="M85.308,219.1H84.092a.161.161,0,0,1-.158-.156c-.031-1.2-.065-4.032.234-4.356a.829.829,0,0,1,.873-.192.683.683,0,0,1,.426.675v3.86a.158.158,0,0,1-.158.169Zm-1.06-.32h.9v-3.71a.371.371,0,0,0-.223-.379.52.52,0,0,0-.52.112A18.861,18.861,0,0,0,84.248,218.78Z" transform="translate(-72.22 -170.435)" fill="#1f4076"/>
    <rect id="Rectangle_1402" data-name="Rectangle 1402" width="1" height="7.388" transform="translate(35.602 41.117)" fill="#f2f1f7"/>
    <path id="Tracé_2370" data-name="Tracé 2370" d="M176.617,210.748h-.987a.132.132,0,0,1-.13-.13V203.23a.13.13,0,0,1,.13-.13h1a.13.13,0,0,1,.13.13v7.378a.13.13,0,0,1-.143.14Zm-.87-.26h.74V203.36h-.74Z" transform="translate(-140.015 -162.112)" fill="#1f4076"/>
    <rect id="Rectangle_1403" data-name="Rectangle 1403" width="1" height="7.559" transform="translate(29.464 40.943)" fill="#f2f1f7"/>
    <path id="Tracé_2371" data-name="Tracé 2371" d="M152.95,210.252h-1a.13.13,0,0,1-.13-.13V202.56a.13.13,0,0,1,.13-.13h1a.13.13,0,0,1,.132.13v7.552a.13.13,0,0,1-.132.14Zm-.868-.26h.738v-7.3h-.738Z" transform="translate(-122.486 -161.616)" fill="#1f4076"/>
    <path id="Tracé_2372" data-name="Tracé 2372" d="M111.905,212.04H111.1a.112.112,0,0,1-.1-.122v-6.694a.113.113,0,1,1,.226,0v6.591h.579v-6.83a.114.114,0,1,1,.229,0v6.933a.114.114,0,0,1-.127.122Z" transform="translate(-92.269 -163.423)" fill="#1f4076"/>
    <path id="Tracé_2373" data-name="Tracé 2373" d="M132.052,210.774h-.808a.114.114,0,0,1-.114-.112V203.42a.114.114,0,1,1,.229,0v7.128h.579v-7.274a.113.113,0,1,1,.226,0v7.378a.112.112,0,0,1-.112.122Z" transform="translate(-107.171 -162.157)" fill="#1f4076"/>
    <path id="Tracé_2374" data-name="Tracé 2374" d="M92.63,214.475h-.808a.112.112,0,0,1-.112-.112V208.5a.113.113,0,1,1,.226,0v5.754h.579v-5.975a.114.114,0,1,1,.229,0v6.079a.114.114,0,0,1-.114.122Z" transform="translate(-77.991 -165.858)" fill="#1f4076"/>
    <path id="Tracé_2375" data-name="Tracé 2375" d="M80.374,205.587a.13.13,0,0,1-.065-.242c2.294-1.335,6.565-2.255,12.7-2.735,4.936-.387,18.119,0,18.252,0a.13.13,0,0,1,.125.132.127.127,0,0,1-.132.127c-.132,0-13.311-.387-18.223,0-6.089.478-10.326,1.385-12.584,2.7A.148.148,0,0,1,80.374,205.587Z" transform="translate(-69.505 -161.622)" fill="#1f4076"/>
    <path id="Tracé_2376" data-name="Tracé 2376" d="M82.413,89.953s.753-5.58,4.975-8.9c3.255-2.564,9.118-3.829,9.118-3.829l-.294-.974a26.092,26.092,0,0,0-9.386,3.873C82.41,83.277,81.8,88.974,81.8,88.974Z" transform="translate(-70.656 -68.215)" fill="#f2f1f7"/>
    <path id="Tracé_2377" data-name="Tracé 2377" d="M82.041,89.712a.127.127,0,0,1-.109-.062l-.616-.974a.135.135,0,0,1-.018-.083c0-.057.681-5.793,5.081-8.942a26.194,26.194,0,0,1,9.44-3.9.127.127,0,0,1,.145.091l.294.974a.132.132,0,0,1,0,.1.13.13,0,0,1-.083.06c-.06,0-5.874,1.3-9.066,3.8-4.13,3.25-4.918,8.76-4.936,8.814a.127.127,0,0,1-.1.109Zm-.478-1.135.408.649c.26-1.265,1.348-5.8,4.964-8.645,2.964-2.338,8.128-3.611,9.035-3.821l-.218-.73a26.117,26.117,0,0,0-9.222,3.832C82.431,82.8,81.633,88.039,81.563,88.577Z" transform="translate(-70.283 -67.846)" fill="#1f4076"/>
    <path id="Tracé_2378" data-name="Tracé 2378" d="M163.5,172.379l-3.777.244s.073-2.925.169-4.156a1.906,1.906,0,0,1,2.122-1.707,1.548,1.548,0,0,1,1.486,1.634Z" transform="translate(-128.334 -135.213)" fill="#1f4076"/>
    <path id="Tracé_2379" data-name="Tracé 2379" d="M159.35,172.427a.13.13,0,0,1-.13-.132c0-.029.075-2.943.171-4.156a2.051,2.051,0,0,1,2.25-1.818,1.68,1.68,0,0,1,1.616,1.761v3.972a.133.133,0,0,1-.122.13l-3.777.242Zm2.291-5.853a1.792,1.792,0,0,0-2,1.59c-.083,1.039-.151,3.4-.166,4l3.52-.229v-3.852a1.425,1.425,0,0,0-1.359-1.507Zm1.486,5.479Z" transform="translate(-127.964 -134.887)" fill="#1f4076"/>
    <path id="Tracé_2380" data-name="Tracé 2380" d="M142.5,173.68v-4.292a1.382,1.382,0,0,0-2.052-1.192,2.122,2.122,0,0,0-1.3,1.925c-.1.805-.1,3.8-.1,3.8Z" transform="translate(-113.033 -136.147)" fill="#1f4076"/>
    <path id="Tracé_2381" data-name="Tracé 2381" d="M138.707,173.67a.122.122,0,0,1-.088-.034.125.125,0,0,1-.039-.094c0-.122,0-3.016.1-3.819a2.237,2.237,0,0,1,1.361-2.024,1.476,1.476,0,0,1,1.486.016,1.543,1.543,0,0,1,.756,1.3V173.3a.127.127,0,0,1-.12.127l-3.445.244Zm2.078-5.907a1.322,1.322,0,0,0-.623.164,1.96,1.96,0,0,0-1.226,1.818c-.083.691-.094,3.055-.1,3.65l3.187-.226v-4.162a1.3,1.3,0,0,0-.631-1.073,1.187,1.187,0,0,0-.616-.171Zm1.369,5.536Z" transform="translate(-112.685 -135.766)" fill="#1f4076"/>
    <path id="Tracé_2382" data-name="Tracé 2382" d="M121.858,175.262s.143-4.827-.32-5.437-2.821-.439-2.982,1.195a38.581,38.581,0,0,0,0,4.486Z" transform="translate(-97.81 -137.241)" fill="#1f4076"/>
    <path id="Tracé_2383" data-name="Tracé 2383" d="M118.193,175.268a.13.13,0,0,1-.086-.031.119.119,0,0,1-.042-.088,39.115,39.115,0,0,1,0-4.507,1.78,1.78,0,0,1,1.408-1.533,1.871,1.871,0,0,1,1.8.26c.478.629.361,5.019.346,5.518a.125.125,0,0,1-.117.125l-3.3.244Zm2.013-6a2.465,2.465,0,0,0-.662.094,1.573,1.573,0,0,0-1.224,1.312,36.7,36.7,0,0,0,0,4.336l3.058-.226c.052-1.925.018-4.827-.3-5.24A1.148,1.148,0,0,0,120.207,169.264Zm1.3,5.635Z" transform="translate(-97.448 -136.875)" fill="#1f4076"/>
    <path id="Tracé_2384" data-name="Tracé 2384" d="M105.825,179.568c.023-.073-.156-3.143-.226-3.951-.1-1.211-2.078-1.218-2.338-.049a27.689,27.689,0,0,0-.127,4.416Z" transform="translate(-86.422 -141.09)" fill="#1f4076"/>
    <path id="Tracé_2385" data-name="Tracé 2385" d="M102.75,179.725a.135.135,0,0,1-.083-.029.13.13,0,0,1-.047-.094,26.817,26.817,0,0,1,.132-4.45,1.325,1.325,0,0,1,1.447-.964,1.14,1.14,0,0,1,1.146,1.039c.036.431.26,3.873.218,4a.132.132,0,0,1-.1.086l-2.694.413Zm1.34-5.284a1.057,1.057,0,0,0-1.088.779,24.827,24.827,0,0,0-.13,4.237l2.444-.39c0-.535-.161-3.076-.226-3.832a.907.907,0,0,0-.909-.8Zm1.353,4.741Zm0,0Z" transform="translate(-86.041 -140.704)" fill="#1f4076"/>
    <path id="Tracé_2386" data-name="Tracé 2386" d="M94.975,183.191s.023-3.608,0-4.193-.951-.145-1.1.683-.1,3.9-.1,3.9Z" transform="translate(-79.518 -144.073)" fill="#1f4076"/>
    <path id="Tracé_2387" data-name="Tracé 2387" d="M93.417,183.345a.122.122,0,0,1-.073-.023.13.13,0,0,1-.055-.1c0-.125-.047-3.094.1-3.925.112-.623.634-1.078,1.013-1.055a.364.364,0,0,1,.338.39c.026.582,0,4.053,0,4.2a.125.125,0,0,1-.088.119l-1.195.39Zm.953-4.853a1.009,1.009,0,0,0-.73.844,35.532,35.532,0,0,0-.1,3.7l.94-.309c0-.566.021-3.572,0-4.094,0-.138-.07-.143-.1-.145Zm.242,4.333Z" transform="translate(-79.155 -143.708)" fill="#1f4076"/>
    <path id="Tracé_2388" data-name="Tracé 2388" d="M86.11,187.672s.1-3.146,0-3.585-.909-.205-.982.423,0,3.673,0,3.673Z" transform="translate(-73.095 -147.872)" fill="#1f4076"/>
    <path id="Tracé_2389" data-name="Tracé 2389" d="M84.715,187.952a.14.14,0,0,1-.065-.016.127.127,0,0,1-.062-.109c0-.125-.073-3.063,0-3.691a.855.855,0,0,1,.766-.759.418.418,0,0,1,.468.322c.107.449,0,3.489,0,3.619a.127.127,0,0,1-.068.109l-.982.52a.119.119,0,0,1-.057.005Zm.675-4.32H85.37a.605.605,0,0,0-.52.52c-.06.52-.018,2.759,0,3.452l.733-.382c.029-.922.081-3.141,0-3.476a.164.164,0,0,0-.192-.117Zm.32,3.678Z" transform="translate(-72.695 -147.51)" fill="#1f4076"/>
    <path id="Tracé_2390" data-name="Tracé 2390" d="M143.832,136.134s.26-3.829-.169-4.759a1.472,1.472,0,0,0-2.541.26c-.657,1.26-.488,4.85-.488,4.85Z" transform="translate(-114.192 -108.566)" fill="#1f4076"/>
    <path id="Tracé_2391" data-name="Tracé 2391" d="M140.247,136.262a.127.127,0,0,1-.083-.031.138.138,0,0,1-.044-.091c0-.148-.164-3.637.5-4.918a1.66,1.66,0,0,1,1.559-.946,1.364,1.364,0,0,1,1.224.683c.436.951.19,4.676.179,4.821a.127.127,0,0,1-.112.119l-3.2.358Zm1.878-5.731a1.411,1.411,0,0,0-1.276.811c-.564,1.083-.5,3.985-.478,4.65l2.954-.333c.036-.621.205-3.782-.164-4.59a1.127,1.127,0,0,0-1-.535Zm1.327,5.242Z" transform="translate(-113.812 -108.206)" fill="#1f4076"/>
    <path id="Tracé_2392" data-name="Tracé 2392" d="M126.46,139.8s.127-3.4,0-4.206a1.085,1.085,0,0,0-1.977-.33,3.411,3.411,0,0,0-.73,2.45c-.036.785-.073,2.694-.073,2.694Z" transform="translate(-101.656 -111.536)" fill="#1f4076"/>
    <path id="Tracé_2393" data-name="Tracé 2393" d="M123.31,140.215a.135.135,0,0,1-.083-.029.14.14,0,0,1-.047-.1c0-.018.039-1.917.075-2.7v-.239a3.26,3.26,0,0,1,.753-2.289,1.351,1.351,0,0,1,1.392-.5,1.1,1.1,0,0,1,.805.888c.13.808,0,4.091,0,4.232a.13.13,0,0,1-.1.119l-2.769.613Zm1.779-5.64a1.174,1.174,0,0,0-.878.449,2.993,2.993,0,0,0-.691,2.13v.244c-.031.642-.06,2.05-.07,2.528l2.525-.553c.018-.564.109-3.377,0-4.081a.849.849,0,0,0-.621-.683.935.935,0,0,0-.265-.039Zm1,4.9Z" transform="translate(-101.286 -111.204)" fill="#1f4076"/>
    <path id="Tracé_2394" data-name="Tracé 2394" d="M113.264,144.223s-.174-2.7-.174-3.429-.366-1.5-1.114-1.169a1.462,1.462,0,0,0-.987,1.444c-.073.714-.088,3.559-.088,3.559Z" transform="translate(-92.196 -115.069)" fill="#1f4076"/>
    <path id="Tracé_2395" data-name="Tracé 2395" d="M110.51,144.356a.135.135,0,0,1-.083-.029.138.138,0,0,1-.047-.1c0-.117.018-2.858.091-3.572a1.6,1.6,0,0,1,1.062-1.559.779.779,0,0,1,.779.026,1.53,1.53,0,0,1,.52,1.26c0,.72.174,3.4.174,3.421a.127.127,0,0,1-.107.135l-2.359.416Zm1.413-5.092a.725.725,0,0,0-.286.068,1.34,1.34,0,0,0-.912,1.34c-.062.605-.083,2.8-.088,3.4l2.1-.361c-.034-.52-.166-2.671-.166-3.323a1.241,1.241,0,0,0-.4-1.039A.447.447,0,0,0,111.923,139.264Z" transform="translate(-91.811 -114.669)" fill="#1f4076"/>
    <path id="Tracé_2396" data-name="Tracé 2396" d="M101.812,147.9s.036-1.559.091-2.561-.366-2.125-.987-1.411a2.212,2.212,0,0,0-.6,1.717c-.036.6-.073,2.751-.073,2.751Z" transform="translate(-84.305 -118.144)" fill="#1f4076"/>
    <path id="Tracé_2397" data-name="Tracé 2397" d="M99.87,148.153a.122.122,0,0,1-.078-.026.125.125,0,0,1-.052-.1c0-.088.039-2.156.075-2.756v-.192a2.185,2.185,0,0,1,.626-1.6c.26-.3.491-.3.634-.239.426.174.616,1.039.577,1.743-.052.995-.091,2.543-.091,2.559a.122.122,0,0,1-.088.117l-1.574.5Zm1.055-4.694a.421.421,0,0,0-.283.182,1.925,1.925,0,0,0-.561,1.447v.195c-.031.494-.06,2.039-.07,2.567l1.317-.413c0-.348.042-1.616.088-2.476.036-.688-.158-1.385-.418-1.489A.179.179,0,0,0,100.924,143.459Zm.52,4.071Z" transform="translate(-83.935 -117.775)" fill="#1f4076"/>
    <path id="Tracé_2398" data-name="Tracé 2398" d="M93.905,152.314c.036-.073,0-2.177,0-2.964s-.585-1.011-.842-.358a2.6,2.6,0,0,0-.26,1.32c-.021.668,0,2.393,0,2.393Z" transform="translate(-78.794 -121.777)" fill="#1f4076"/>
    <path id="Tracé_2399" data-name="Tracé 2399" d="M92.457,152.471a.135.135,0,0,1-.075-.023.127.127,0,0,1-.055-.1c0-.016-.018-1.733,0-2.4v-.132a2.509,2.509,0,0,1,.26-1.231c.153-.39.413-.491.6-.455.242.044.486.33.486.86V150a13.277,13.277,0,0,1-.021,2.016.132.132,0,0,1-.073.062l-1.086.39A.117.117,0,0,1,92.457,152.471Zm.662-4.094c-.107,0-.216.112-.288.3a2.32,2.32,0,0,0-.244,1.146v.132c-.016.52,0,1.748,0,2.206l.852-.3V148.99c0-.366-.14-.584-.278-.61Zm.434,3.577Zm0,0Z" transform="translate(-78.442 -121.418)" fill="#1f4076"/>
    <path id="Tracé_2400" data-name="Tracé 2400" d="M87.57,157.414v-2.486c0-.605-.694-.294-.9.52a10.823,10.823,0,0,0,0,2.632Z" transform="translate(-74.196 -126.22)" fill="#1f4076"/>
    <path id="Tracé_2401" data-name="Tracé 2401" d="M86.314,157.884a.168.168,0,0,1-.049,0,.125.125,0,0,1-.078-.1,11.428,11.428,0,0,1,0-2.676c.153-.626.561-.972.849-.94.07,0,.3.065.3.442v2.486a.125.125,0,0,1-.049.1l-.9.675A.14.14,0,0,1,86.314,157.884ZM87,154.409c-.135,0-.436.26-.559.748a9.461,9.461,0,0,0-.018,2.359l.662-.5V154.6c0-.042,0-.179-.075-.187Zm.213,2.673Z" transform="translate(-73.837 -125.888)" fill="#1f4076"/>
    <path id="Tracé_2402" data-name="Tracé 2402" d="M109.737,105.45a.127.127,0,0,1-.127-.127V97.74a.13.13,0,0,1,.26,0v7.583a.127.127,0,0,1-.132.127Z" transform="translate(-91.241 -84.026)" fill="#1f4076"/>
    <path id="Tracé_2403" data-name="Tracé 2403" d="M99.87,111.6a.127.127,0,0,1-.13-.127V104.4a.13.13,0,1,1,.26,0v7.074A.127.127,0,0,1,99.87,111.6Z" transform="translate(-83.935 -88.956)" fill="#1f4076"/>
    <path id="Tracé_2404" data-name="Tracé 2404" d="M92.447,118.474a.127.127,0,0,1-.127-.127V111.91a.13.13,0,1,1,.26,0v6.437a.127.127,0,0,1-.132.127Z" transform="translate(-78.443 -94.515)" fill="#1f4076"/>
    <path id="Tracé_2405" data-name="Tracé 2405" d="M87.367,125.522a.127.127,0,0,1-.127-.13V120.08a.13.13,0,1,1,.26,0v5.312a.127.127,0,0,1-.132.13Z" transform="translate(-74.682 -100.563)" fill="#1f4076"/>
    <path id="Tracé_2406" data-name="Tracé 2406" d="M123.311,99.472a.109.109,0,0,1-.057,0,.122.122,0,0,1-.068-.145c.031-.26.016-4.811,0-7.819a.127.127,0,0,1,.127-.127h0a.125.125,0,0,1,.127.127c.049,7.793,0,7.874,0,7.908a.13.13,0,0,1-.13.057Z" transform="translate(-101.287 -79.415)" fill="#1f4076"/>
    <path id="Tracé_2407" data-name="Tracé 2407" d="M138.637,95.433a.127.127,0,0,1-.127-.13V87.04a.13.13,0,0,1,.26,0V95.3a.13.13,0,0,1-.132.13Z" transform="translate(-112.634 -76.106)" fill="#1f4076"/>
    <path id="Tracé_2408" data-name="Tracé 2408" d="M113.87,108.43v-2.024s1.024-.6,1.024-.561-.049,2.231-.049,2.231Z" transform="translate(-94.395 -90.121)" fill="#1f4076"/>
    <path id="Tracé_2409" data-name="Tracé 2409" d="M113.5,108.19a.13.13,0,0,1-.086-.031.138.138,0,0,1-.042-.114v-2.005a.132.132,0,0,1,.062-.112c1.057-.616,1.073-.608,1.151-.561a.125.125,0,0,1,.065.112c0,.036-.044,2.008-.047,2.234a.132.132,0,0,1-.086.117l-.985.353A.133.133,0,0,1,113.5,108.19Zm.127-2.078v1.766l.717-.26c0-.325.031-1.468.042-1.938C114.217,105.776,113.918,105.948,113.632,106.111Z" transform="translate(-94.03 -89.753)" fill="#1f4076"/>
    <path id="Tracé_2410" data-name="Tracé 2410" d="M94.96,121.186v-2.026l.449-.449v2.037Z" transform="translate(-80.397 -99.645)" fill="#1f4076"/>
    <path id="Tracé_2411" data-name="Tracé 2411" d="M94.63,120.975a.15.15,0,0,1-.049,0,.13.13,0,0,1-.081-.119v-2.021a.127.127,0,0,1,.039-.091l.452-.452a.127.127,0,0,1,.218.091v2.034a.132.132,0,0,1-.039.094l-.452.439A.127.127,0,0,1,94.63,120.975Zm.127-2.1v1.668l.195-.19v-1.673Z" transform="translate(-80.056 -99.307)" fill="#1f4076"/>
    <path id="Tracé_2412" data-name="Tracé 2412" d="M213.293,176.478V173a1.443,1.443,0,0,0-1.792-1.3c-.987.2-1.559.52-1.665,1.005s0,3.767,0,3.767Z" transform="translate(-165.395 -138.847)" fill="#1f4076"/>
    <path id="Tracé_2413" data-name="Tracé 2413" d="M212.942,176.239h-3.45a.133.133,0,0,1-.13-.127c0-.135-.109-3.312,0-3.8.12-.52.7-.888,1.764-1.1a1.676,1.676,0,0,1,1.4.327,1.429,1.429,0,0,1,.546,1.1v3.476A.133.133,0,0,1,212.942,176.239Zm-3.33-.26h3.2v-3.346a1.161,1.161,0,0,0-.449-.894,1.4,1.4,0,0,0-1.187-.275c-.943.192-1.468.5-1.559.907A35.449,35.449,0,0,0,209.611,175.979Z" transform="translate(-165.044 -138.478)" fill="#1f4076"/>
    <path id="Tracé_2414" data-name="Tracé 2414" d="M232.5,208.5h0a1.743,1.743,0,0,1,1.743,1.743V214.6H230.76v-4.362A1.743,1.743,0,0,1,232.5,208.5Z" transform="translate(-180.919 -166.11)" fill="#1f4076"/>
    <path id="Tracé_2415" data-name="Tracé 2415" d="M233.876,214.375H230.39a.133.133,0,0,1-.13-.13v-4.372a1.873,1.873,0,1,1,3.746,0v4.362a.13.13,0,0,1-.13.14Zm-3.356-.26h3.226v-4.242a1.613,1.613,0,1,0-3.226,0Z" transform="translate(-180.549 -165.74)" fill="#1f4076"/>
    <path id="Tracé_2416" data-name="Tracé 2416" d="M262.56,214.785v-3.842c0-1.06.616-1.33,1.369-1.333.823,0,1.039.694,1.081,1.26s0,3.969,0,3.969Z" transform="translate(-204.458 -166.931)" fill="#1f4076"/>
    <path id="Tracé_2417" data-name="Tracé 2417" d="M264.642,214.587h0l-2.452-.055a.135.135,0,0,1-.13-.132v-3.842c0-.979.494-1.46,1.5-1.468h0c.717,0,1.143.494,1.2,1.387.036.566,0,3.84,0,3.977a.125.125,0,0,1-.042.094A.122.122,0,0,1,264.642,214.587Zm-2.32-.325,2.185.047c0-.634.031-3.33,0-3.821s-.223-1.138-.938-1.138h0c-.857,0-1.239.374-1.239,1.2Z" transform="translate(-204.088 -166.546)" fill="#1f4076"/>
    <path id="Tracé_2418" data-name="Tracé 2418" d="M276.28,215.376v-4.169c0-1.06,2.05-1.19,2.078-.187.034,1.039-.031,4.356-.031,4.356Z" transform="translate(-214.614 -167.468)" fill="#1f4076"/>
    <path id="Tracé_2419" data-name="Tracé 2419" d="M277.952,215.127H275.9a.132.132,0,0,1-.133-.132v-4.169c0-.647.629-.995,1.252-1.005.52,0,1.075.242,1.094.816.034,1.039-.031,4.328-.031,4.362a.135.135,0,0,1-.133.13Zm-1.917-.26h1.785c0-.623.06-3.31.031-4.219,0-.395-.416-.564-.826-.556-.491,0-.99.26-.99.738Z" transform="translate(-214.237 -167.087)" fill="#1f4076"/>
    <path id="Tracé_2420" data-name="Tracé 2420" d="M276.28,186.8v-3.923c0-1,2.05-1.117,2.078-.174s-.031,4.1-.031,4.1Z" transform="translate(-214.614 -146.536)" fill="#1f4076"/>
    <path id="Tracé_2421" data-name="Tracé 2421" d="M277.967,186.568h-2.05a.127.127,0,0,1-.127-.13v-3.923c0-.608.623-.935,1.242-.946.533,0,1.075.223,1.1.779.034.972-.034,4.073-.034,4.1A.13.13,0,0,1,277.967,186.568Zm-1.92-.26h1.792c.013-.595.06-3.117.031-3.964-.013-.369-.429-.535-.834-.52-.491,0-.99.247-.99.688Z" transform="translate(-214.251 -146.175)" fill="#1f4076"/>
    <path id="Tracé_2422" data-name="Tracé 2422" d="M261.92,185.983v-4.169c0-1.06,2.356-1.166,2.4-.164.047,1.039.125,4.333.125,4.333Z" transform="translate(-203.985 -145.72)" fill="#1f4076"/>
    <path id="Tracé_2423" data-name="Tracé 2423" d="M264.008,185.7h-2.525a.153.153,0,0,1-.153-.156v-4.169c0-.644.707-1,1.405-1.013.631-.018,1.275.242,1.3.844.047,1.039.125,4.3.125,4.336a.164.164,0,0,1-.044.112A.156.156,0,0,1,264.008,185.7Zm-2.369-.309h2.2c-.016-.67-.081-3.276-.12-4.172-.018-.392-.533-.564-.987-.548-.551,0-1.1.26-1.1.7Z" transform="translate(-203.548 -145.277)" fill="#1f4076"/>
    <path id="Tracé_2424" data-name="Tracé 2424" d="M289.09,215.815v-3.829a.939.939,0,0,1,.933-1.057,1.026,1.026,0,0,1,.951,1.057c.055.66,0,3.827,0,3.827Z" transform="translate(-224.096 -167.907)" fill="#1f4076"/>
    <path id="Tracé_2425" data-name="Tracé 2425" d="M290.6,215.569h-1.883a.133.133,0,0,1-.132-.132v-3.829a1.074,1.074,0,0,1,1.06-1.19,1.152,1.152,0,0,1,1.088,1.179c.049.694,0,3.71,0,3.84A.132.132,0,0,1,290.6,215.569Zm-1.751-.26h1.621c0-.6.047-3.117,0-3.681-.052-.629-.457-.951-.813-.938-.242,0-.805.12-.805.925Z" transform="translate(-223.719 -167.528)" fill="#1f4076"/>
    <path id="Tracé_2426" data-name="Tracé 2426" d="M289.09,188.563v-3.229a.863.863,0,0,1,.933-.894.946.946,0,0,1,.951.894c.055.559,0,3.6,0,3.6Z" transform="translate(-224.096 -148.3)" fill="#1f4076"/>
    <path id="Tracé_2427" data-name="Tracé 2427" d="M290.625,188.7H290.6l-1.883-.369a.119.119,0,0,1-.1-.12v-3.229a.988.988,0,0,1,1.052-1.016,1.062,1.062,0,0,1,1.075,1c.055.561,0,3.486,0,3.611a.119.119,0,0,1-.044.094A.122.122,0,0,1,290.625,188.7Zm-1.761-.587,1.642.317c0-.61.047-2.959,0-3.434a.831.831,0,0,0-.826-.779.753.753,0,0,0-.816.779Z" transform="translate(-223.749 -147.952)" fill="#1f4076"/>
    <path id="Tracé_2428" data-name="Tracé 2428" d="M301,216.333v-3.915c0-.621.714-1.151,1.06-.475s.2,4.39.2,4.39Z" transform="translate(-232.913 -168.425)" fill="#1f4076"/>
    <path id="Tracé_2429" data-name="Tracé 2429" d="M301.89,216.1h-1.268a.132.132,0,0,1-.132-.132v-3.915a.946.946,0,0,1,.636-.907.6.6,0,0,1,.675.371c.353.688.231,4.071.216,4.455a.135.135,0,0,1-.127.127Zm-1.13-.26h1a17.9,17.9,0,0,0-.192-4.2c-.068-.132-.187-.281-.377-.236a.681.681,0,0,0-.434.649Z" transform="translate(-232.535 -168.059)" fill="#1f4076"/>
    <path id="Tracé_2430" data-name="Tracé 2430" d="M301,191.088v-3.421c0-.475.714-.881,1.06-.364s.2,4.156.2,4.156Z" transform="translate(-232.913 -150.241)" fill="#1f4076"/>
    <path id="Tracé_2431" data-name="Tracé 2431" d="M301.957,191.232h-.034l-1.26-.366a.114.114,0,0,1-.083-.109V187.33a.779.779,0,0,1,.548-.691.621.621,0,0,1,.722.26c.358.52.236,3.842.221,4.219a.114.114,0,0,1-.047.091A.13.13,0,0,1,301.957,191.232Zm-1.146-.569,1.039.3a14.7,14.7,0,0,0-.187-3.933.387.387,0,0,0-.462-.169.533.533,0,0,0-.384.468Z" transform="translate(-232.602 -149.904)" fill="#1f4076"/>
    <path id="Tracé_2432" data-name="Tracé 2432" d="M309,193.615v-3.421c0-.473.712-.878,1.06-.361s.2,4.156.2,4.156Z" transform="translate(-238.834 -152.113)" fill="#1f4076"/>
    <path id="Tracé_2433" data-name="Tracé 2433" d="M309.959,193.761h-.034l-1.263-.366a.114.114,0,0,1-.083-.112v-3.426a.779.779,0,0,1,.551-.688.618.618,0,0,1,.722.26c.358.52.236,3.842.221,4.219a.109.109,0,0,1-.047.088A.112.112,0,0,1,309.959,193.761Zm-1.146-.569,1.039.3a14.8,14.8,0,0,0-.187-3.93.384.384,0,0,0-.462-.169.533.533,0,0,0-.384.465Z" transform="translate(-238.523 -151.776)" fill="#1f4076"/>
    <path id="Tracé_2434" data-name="Tracé 2434" d="M309.86,217.3v-3.712c0-.52.52-.914.933-.439s.291,4.156.291,4.156Z" transform="translate(-239.471 -169.395)" fill="#1f4076"/>
    <path id="Tracé_2435" data-name="Tracé 2435" d="M310.7,217.057H309.48a.133.133,0,0,1-.133-.132v-3.712a.779.779,0,0,1,.47-.753.613.613,0,0,1,.7.229c.413.488.34,3.619.322,4.24a.132.132,0,0,1-.133.13Zm-1.091-.26h.964c.034-1.413,0-3.624-.26-3.933a.359.359,0,0,0-.4-.151.52.52,0,0,0-.3.5Z" transform="translate(-239.091 -169.017)" fill="#1f4076"/>
    <path id="Tracé_2436" data-name="Tracé 2436" d="M249.789,154.967l-1.169-.127v1.86s.9-.036,1.237,0Z" transform="translate(-194.14 -126.389)" fill="#1f4076"/>
    <path id="Tracé_2437" data-name="Tracé 2437" d="M248.228,156.445a.132.132,0,0,1-.1-.039.143.143,0,0,1-.042-.1v-1.86a.135.135,0,0,1,.044-.1.156.156,0,0,1,.109-.036l1.169.13a.138.138,0,0,1,.122.13l.068,1.725a.138.138,0,0,1-.042.107.151.151,0,0,1-.109.036c-.325-.029-1.211,0-1.218,0Zm.138-1.844v1.559c.223,0,.662-.021.956,0l-.057-1.455Z" transform="translate(-193.747 -125.996)" fill="#1f4076"/>
    <path id="Tracé_2438" data-name="Tracé 2438" d="M280.72,162.272V160.68a5.394,5.394,0,0,0,.938.286v1.452Z" transform="translate(-217.901 -130.712)" fill="#1f4076"/>
    <path id="Tracé_2439" data-name="Tracé 2439" d="M281.265,162.167h-.021l-.94-.148a.138.138,0,0,1-.114-.135v-1.592a.13.13,0,0,1,.06-.112.138.138,0,0,1,.127-.016,4.935,4.935,0,0,0,.9.275.138.138,0,0,1,.125.138v1.452a.132.132,0,0,1-.049.1.125.125,0,0,1-.088.034Zm-.8-.4.662.1v-1.174a5.667,5.667,0,0,1-.662-.2Z" transform="translate(-217.508 -130.324)" fill="#1f4076"/>
    <path id="Tracé_2440" data-name="Tracé 2440" d="M303,170.224V168.78s.572.221.779.33v1.481Z" transform="translate(-234.393 -136.708)" fill="#1f4076"/>
    <path id="Tracé_2441" data-name="Tracé 2441" d="M303.387,170.335a.153.153,0,0,1-.06-.013l-.779-.366a.143.143,0,0,1-.078-.125v-1.444a.14.14,0,0,1,.06-.114.132.132,0,0,1,.127-.013,7,7,0,0,1,.779.338.138.138,0,0,1,.073.12V170.2a.143.143,0,0,1-.065.117A.156.156,0,0,1,303.387,170.335Zm-.634-.592.5.236V168.8c-.135-.065-.345-.153-.5-.213Z" transform="translate(-234.001 -136.315)" fill="#1f4076"/>
    <path id="Tracé_2442" data-name="Tracé 2442" d="M39.4,237.455l11.726-.535H78.042L66.193,241.4H39.4Z" transform="translate(-39.27 -187.147)" fill="#f2f1f7"/>
    <path id="Tracé_2443" data-name="Tracé 2443" d="M65.823,241.178H39.03a.13.13,0,0,1-.13-.13V237.1a.13.13,0,0,1,.125-.13l11.726-.535H77.672a.13.13,0,0,1,.13.107.127.127,0,0,1-.083.143L65.87,241.173A.1.1,0,0,1,65.823,241.178Zm-26.663-.26H65.8l11.17-4.224H50.756l-11.6.52Z" transform="translate(-38.9 -186.791)" fill="#1f4076"/>
    <path id="Tracé_2444" data-name="Tracé 2444" d="M232.872,239.343l-4.512-4.793,34.353-.19v5.149Z" transform="translate(-179.143 -185.252)" fill="#f2f1f7"/>
    <path id="Tracé_2445" data-name="Tracé 2445" d="M262.342,239.269h0l-29.841-.177a.125.125,0,0,1-.094-.042l-4.512-4.78a.127.127,0,0,1-.026-.14.132.132,0,0,1,.12-.081l34.353-.19a.153.153,0,0,1,.091.036.127.127,0,0,1,.039.094v5.149a.122.122,0,0,1-.039.091A.132.132,0,0,1,262.342,239.269Zm-29.77-.436,29.654.164V234.12l-33.924.19Z" transform="translate(-178.772 -184.882)" fill="#1f4076"/>
    <path id="Tracé_2446" data-name="Tracé 2446" d="M311.264,238.373a.117.117,0,0,1-.065-.018,17.723,17.723,0,0,0-5.936-1.691c-3.284-.442-8.744-1.642-10.537-2.034l-.655-.143h0a.122.122,0,0,1-.122-.127.132.132,0,0,1,.14-.13,6.644,6.644,0,0,1,.691.145c1.792.395,7.245,1.592,10.516,2.031a17.245,17.245,0,0,1,6.035,1.725.131.131,0,0,1-.068.242Z" transform="translate(-227.694 -185.155)" fill="#1f4076"/>
    <path id="Tracé_2447" data-name="Tracé 2447" d="M47.773,211.751a.133.133,0,0,1-.081-.029.13.13,0,0,1-.018-.184,1.85,1.85,0,0,1,1.915-.59c.086.023.164.047.2.026a.3.3,0,0,0,.078-.13,2.385,2.385,0,0,1,3.117-1.19.127.127,0,0,1,.06.171.13.13,0,0,1-.174.062,2.128,2.128,0,0,0-2.767,1.039.475.475,0,0,1-.195.26.488.488,0,0,1-.387,0,1.6,1.6,0,0,0-1.657.5A.13.13,0,0,1,47.773,211.751Z" transform="translate(-45.372 -166.818)" fill="#1f4076"/>
    <path id="Tracé_2448" data-name="Tracé 2448" d="M329.186,223.886a.138.138,0,0,1-.088-.034,2.281,2.281,0,0,0-.655-.478.686.686,0,0,0-.683.057.135.135,0,0,1-.135.021.125.125,0,0,1-.078-.107.759.759,0,0,0-.4-.566.748.748,0,0,0-.691-.044.132.132,0,0,1-.174-.06.13.13,0,0,1,.06-.174,1,1,0,0,1,.933.052,1.039,1.039,0,0,1,.488.574,1,1,0,0,1,.779,0,2.556,2.556,0,0,1,.735.52.13.13,0,0,1-.088.226Z" transform="translate(-251.617 -176.407)" fill="#1f4076"/>
    <path id="Tracé_2449" data-name="Tracé 2449" d="M342.363,222.085h-.016a.823.823,0,0,1-.668-.553.127.127,0,0,1,.026-.127,6.933,6.933,0,0,1,2.53-1.782.13.13,0,1,1,.1.242,6.627,6.627,0,0,0-2.38,1.652.566.566,0,0,0,.426.3.13.13,0,0,1-.018.26Z" transform="translate(-263.02 -174.335)" fill="#1f4076"/>
    <path id="Tracé_2450" data-name="Tracé 2450" d="M48.366,224.88a.127.127,0,0,1-.125-.094.746.746,0,0,0-.886-.491,1.794,1.794,0,0,0-.195.078,1.088,1.088,0,0,1-.416.12,1.114,1.114,0,0,1-.623-.26l-.13-.086a1.717,1.717,0,0,0-1.974.171.132.132,0,0,1-.12.029.125.125,0,0,1-.088-.083,1.637,1.637,0,0,0-2.216-.842.13.13,0,0,1-.177-.052.132.132,0,0,1,.052-.177,1.89,1.89,0,0,1,2.515.842,2,2,0,0,1,2.143-.086l.14.091a.935.935,0,0,0,.473.208.873.873,0,0,0,.317-.1,2.337,2.337,0,0,1,.223-.088.987.987,0,0,1,.738.091.974.974,0,0,1,.473.572.132.132,0,0,1-.088.161Z" transform="translate(-40.752 -176.84)" fill="#1f4076"/>
  </g>
</svg>
