<svg id="Volleyball_Flatline" xmlns="http://www.w3.org/2000/svg" width="55.468" height="53.327" viewBox="0 0 55.468 53.327">
  <path id="Tracé_2257" data-name="Tracé 2257" d="M251.965,235.48l15.19,7.641a.234.234,0,0,1-.087.433l-.24.019a4.273,4.273,0,0,1-2.293-.456l-13.894-7.051a.2.2,0,0,1,.058-.383Z" transform="translate(-211.802 -190.261)" fill="#5c6f99" opacity="0.5"/>
  <line id="Ligne_78" data-name="Ligne 78" y1="4.446" x2="14.863" transform="translate(39.616 9.866)" fill="#fff"/>
  <path id="Tracé_2258" data-name="Tracé 2258" d="M253.456,75.678a.325.325,0,0,1-.093-.636L268.227,70.6a.325.325,0,0,1,.186.621L253.55,75.665A.357.357,0,0,1,253.456,75.678Z" transform="translate(-213.841 -61.042)" fill="#1f4076"/>
  <line id="Ligne_79" data-name="Ligne 79" x2="14.418" y2="1.664" transform="translate(39.858 28.79)" fill="#fff"/>
  <path id="Tracé_2259" data-name="Tracé 2259" d="M268.994,160.314h-.037l-14.418-1.672a.327.327,0,1,1,.074-.649l14.418,1.664a.325.325,0,0,1-.037.649Z" transform="translate(-214.719 -129.536)" fill="#1f4076"/>
  <line id="Ligne_80" data-name="Ligne 80" x2="14.66" y2="1.218" transform="translate(39.616 25.053)" fill="#fff"/>
  <path id="Tracé_2260" data-name="Tracé 2260" d="M268.938,143.2h0l-14.662-1.218a.108.108,0,0,1-.1-.117.106.106,0,0,1,.117-.1l14.66,1.218a.108.108,0,1,1,0,.216Z" transform="translate(-214.662 -116.823)" fill="#1f4076"/>
  <path id="Tracé_2261" data-name="Tracé 2261" d="M269.786,128.1H255.368a.11.11,0,0,1-.108-.108.108.108,0,0,1,.108-.108h14.418a.108.108,0,0,1,.108.108A.11.11,0,0,1,269.786,128.1Z" transform="translate(-215.51 -105.94)" fill="#1f4076"/>
  <line id="Ligne_81" data-name="Ligne 81" y1="1.664" x2="14.621" transform="translate(39.858 17.622)" fill="#fff"/>
  <path id="Tracé_2262" data-name="Tracé 2262" d="M255.368,109.29a.108.108,0,0,1,0-.216l14.619-1.666a.109.109,0,1,1,.024.216l-14.619,1.664Z" transform="translate(-215.51 -89.896)" fill="#1f4076"/>
  <path id="Tracé_2263" data-name="Tracé 2263" d="M254.64,92.458c.121.041,14.863-3.128,14.863-3.128" transform="translate(-215.024 -75.73)" fill="#fff"/>
  <path id="Tracé_2264" data-name="Tracé 2264" d="M254.223,92.185h-.013a.108.108,0,0,1-.069-.136.106.106,0,0,1,.108-.074c.385-.032,9.859-2.055,14.835-3.124a.111.111,0,0,1,.045.216C255.4,92.01,254.333,92.185,254.223,92.185Z" transform="translate(-214.629 -75.353)" fill="#1f4076"/>
  <path id="Tracé_2265" data-name="Tracé 2265" d="M265.228,104.481a.108.108,0,0,1-.108-.108V88.938a.108.108,0,0,1,.108-.108.11.11,0,0,1,.108.108v15.434A.108.108,0,0,1,265.228,104.481Z" transform="translate(-223.237 -75.338)" fill="#1f4076"/>
  <path id="Tracé_2266" data-name="Tracé 2266" d="M275.988,102.228a.11.11,0,0,1-.108-.108v-16.4a.11.11,0,0,1,.108-.108.108.108,0,0,1,.108.108v16.4A.108.108,0,0,1,275.988,102.228Z" transform="translate(-231.669 -72.815)" fill="#1f4076"/>
  <path id="Tracé_2267" data-name="Tracé 2267" d="M286.878,99.954a.108.108,0,0,1-.108-.108V82.468a.108.108,0,1,1,.216,0V99.845a.11.11,0,0,1-.108.108Z" transform="translate(-240.203 -70.268)" fill="#1f4076"/>
  <path id="Tracé_2268" data-name="Tracé 2268" d="M297.508,97.5a.108.108,0,0,1-.108-.108V79.288a.108.108,0,1,1,.216,0V97.4A.108.108,0,0,1,297.508,97.5Z" transform="translate(-248.533 -67.776)" fill="#1f4076"/>
  <path id="Tracé_2269" data-name="Tracé 2269" d="M309.338,95.141a.108.108,0,0,1-.108-.108V75.778a.108.108,0,1,1,.216,0V95.033A.11.11,0,0,1,309.338,95.141Z" transform="translate(-257.804 -65.026)" fill="#1f4076"/>
  <path id="Tracé_2270" data-name="Tracé 2270" d="M251.944,81.45h0a.731.731,0,0,1,.727.731v32.593a.519.519,0,0,1-.519.519h-.433a.519.519,0,0,1-.519-.519V82.181a.731.731,0,0,1,.744-.731Z" transform="translate(-212.328 -69.555)" fill="#1f4076"/>
  <path id="Tracé_2271" data-name="Tracé 2271" d="M251.766,114.858h-.433a.63.63,0,0,1-.627-.63V81.635a.839.839,0,1,1,1.677,0v32.593a.63.63,0,0,1-.617.63Zm-.21-33.835a.623.623,0,0,0-.623.623v32.582a.413.413,0,0,0,.411.413h.433a.413.413,0,0,0,.411-.413V81.635A.623.623,0,0,0,251.556,81.023Z" transform="translate(-211.94 -69.009)" fill="#1f4076"/>
  <path id="Tracé_2272" data-name="Tracé 2272" d="M320.66,55.732h0a.731.731,0,0,1,.731.731v45.466a.519.519,0,0,1-.519.519h-.433a.519.519,0,0,1-.519-.519V56.461a.731.731,0,0,1,.731-.731Z" transform="translate(-266.181 -49.4)" fill="#1f4076"/>
  <path id="Tracé_2273" data-name="Tracé 2273" d="M320.509,102.165h-.422a.627.627,0,0,1-.627-.627V56.069a.839.839,0,1,1,1.679,0v45.468A.63.63,0,0,1,320.509,102.165Zm-.216-46.716a.623.623,0,0,0-.623.621v45.468a.411.411,0,0,0,.411.411h.422a.413.413,0,0,0,.413-.411V56.069a.625.625,0,0,0-.617-.621Z" transform="translate(-265.82 -49.008)" fill="#1f4076"/>
  <ellipse id="Ellipse_217" data-name="Ellipse 217" cx="7.525" cy="1.781" rx="7.525" ry="1.781" transform="translate(7.633 48.402)" fill="#5c6f99" opacity="0.5"/>
  <path id="Tracé_2274" data-name="Tracé 2274" d="M146.34,64.7a52,52,0,0,0,5.218-.1,61.706,61.706,0,0,0,5.513-3.046c.366-.344,1.1-1.331,1.584-1.514s1.731-.409,1.7-.143-1,.669-1.188.848-.573.666-.573.666,1.127-.433,1.1-.132-.824.865-1.127.9a10.249,10.249,0,0,0-1.281.433s-3.715,3.894-4.6,3.992-4.2.394-4.2.394Z" transform="translate(-130.155 -52.57)" fill="#f2f1f7"/>
  <path id="Tracé_2275" data-name="Tracé 2275" d="M148.109,66.687a.113.113,0,0,1-.08-.035l-2.135-2.3a.108.108,0,0,1-.019-.119.1.1,0,0,1,.1-.063,47.481,47.481,0,0,0,5.179-.1,60.633,60.633,0,0,0,5.474-3.029c.1-.1.231-.247.381-.415a4.444,4.444,0,0,1,1.24-1.121c.374-.138,1.514-.407,1.781-.2a.184.184,0,0,1,.071.164c-.024.216-.34.4-.82.669a2.669,2.669,0,0,0-.4.242c-.082.082-.216.234-.329.372.307-.1.666-.171.807-.067a.184.184,0,0,1,.071.175c-.037.381-.9.952-1.218,1a9.176,9.176,0,0,0-1.233.433c-.452.476-3.764,3.92-4.649,4.009s-4.171.392-4.206.394Zm-1.889-2.3,1.932,2.077c.433-.039,3.336-.307,4.15-.387.69-.071,3.5-2.882,4.53-3.959a.078.078,0,0,1,.039-.026,9.554,9.554,0,0,1,1.3-.446,1.974,1.974,0,0,0,1.032-.792,2.709,2.709,0,0,0-.948.229.106.106,0,0,1-.128-.037.108.108,0,0,1,0-.13c.015-.022.4-.506.586-.688a2.486,2.486,0,0,1,.446-.279,2.575,2.575,0,0,0,.705-.485,3.914,3.914,0,0,0-1.553.238,4.4,4.4,0,0,0-1.155,1.062c-.154.173-.286.322-.392.433a58.075,58.075,0,0,1-5.554,3.083A43.89,43.89,0,0,1,146.221,64.389Z" transform="translate(-129.782 -52.144)" fill="#1f4076"/>
  <path id="Tracé_2276" data-name="Tracé 2276" d="M130.446,139.444v6.3s-1.006.123-2.345,1.98-2.436,3.808-2.893,4.327a9.233,9.233,0,0,1-1.281,1.341c-.305.184-.792.517-.852.731s.58.762.58,1.127a10.592,10.592,0,0,0-.063,2.252c.154.578.7,1.281.915,1.1s.922-4.327,1.452-5a67.347,67.347,0,0,1,4.944-5.117,8.832,8.832,0,0,0,1.768-1.584c.305-.426,2.3-7.557,2.3-7.557Z" transform="translate(-111.92 -114.929)" fill="#f2f1f7"/>
  <path id="Tracé_2277" data-name="Tracé 2277" d="M124.034,158.691a.255.255,0,0,1-.089-.015,1.95,1.95,0,0,1-.848-1.192,6.343,6.343,0,0,1,.017-1.772c.022-.216.041-.407.041-.508a1.393,1.393,0,0,0-.316-.591c-.169-.231-.3-.415-.26-.567.078-.277.649-.649.9-.794a5.7,5.7,0,0,0,.98-1l.275-.316a16.891,16.891,0,0,0,1.025-1.514c.513-.809,1.153-1.815,1.861-2.8a4.728,4.728,0,0,1,2.326-2v-6.229a.108.108,0,0,1,.1-.108l4.538.126c.035,0,.044.065.065.093s-1.981,6.986-2.289,7.414a8.271,8.271,0,0,1-1.789,1.61,66.439,66.439,0,0,0-4.924,5.1,14.929,14.929,0,0,0-.976,3.284,6.277,6.277,0,0,1-.491,1.731.229.229,0,0,1-.151.058Zm6.129-19.192v6.2a.108.108,0,0,1-.1.108s-.982.149-2.27,1.947c-.705.976-1.344,1.98-1.856,2.787a17.09,17.09,0,0,1-1.045,1.547c-.089.1-.182.206-.273.312a6.213,6.213,0,0,1-1.032,1.049,2.254,2.254,0,0,0-.8.669,1.486,1.486,0,0,0,.227.379,1.459,1.459,0,0,1,.357.718c0,.11-.019.3-.041.53a6.237,6.237,0,0,0-.024,1.7,1.819,1.819,0,0,0,.7,1.041h.037a13.021,13.021,0,0,0,.433-1.61,14.215,14.215,0,0,1,1.015-3.369,65.127,65.127,0,0,1,4.965-5.138,8.4,8.4,0,0,0,1.744-1.56c.216-.3,1.5-4.574,2.347-7.468Zm-.108,6.2Z" transform="translate(-111.529 -114.874)" fill="#1f4076"/>
  <path id="Tracé_2278" data-name="Tracé 2278" d="M86.772,134.84c0,.162-3.007,5.361-3.007,5.361a2.162,2.162,0,0,0-2.192-1.421c-1.787,0-4.223-.913-4.327-1.259a3.462,3.462,0,0,0-.433-.974c-.143-.162-1.082.325-1.514.264s-1.514-.753-2.133-.649-1.136,1.082-1.136,1.082,3.959,1.177,4.427,1.441,6.233,4.569,7.737,4.61,6.335-7.14,6.335-7.14" transform="translate(-71.922 -111.394)" fill="#f2f1f7"/>
  <path id="Tracé_2279" data-name="Tracé 2279" d="M83.811,142.972H83.8c-1.233-.035-5.1-2.745-6.949-4.048-.433-.305-.749-.526-.837-.575-.361-.216-3.029-1.028-4.4-1.432a.11.11,0,0,1-.067-.154c.024-.043.541-1.025,1.216-1.134a3.079,3.079,0,0,1,1.491.4,3.183,3.183,0,0,0,.675.251,2.468,2.468,0,0,0,.82-.162c.392-.121.649-.2.768-.065a3.543,3.543,0,0,1,.45,1.015,8.418,8.418,0,0,0,4.221,1.181,2.306,2.306,0,0,1,2.209,1.285c1.166-2.019,2.823-4.926,2.882-5.134a.1.1,0,0,1,.108-.1.117.117,0,0,1,.108.117c0,.16-1.642,3.029-3.029,5.409a.117.117,0,0,1-.108.054.115.115,0,0,1-.091-.078,2.043,2.043,0,0,0-2.088-1.344c-1.774,0-4.3-.906-4.429-1.337a3.418,3.418,0,0,0-.4-.932,2.283,2.283,0,0,0-.543.128,2.467,2.467,0,0,1-.913.171,3.3,3.3,0,0,1-.733-.266,3.151,3.151,0,0,0-1.367-.383c-.446.071-.839.649-.993.9.7.216,3.894,1.17,4.327,1.413.1.054.4.266.865.586,1.7,1.19,5.664,3.977,6.832,4.009h.011c1.2,0,4.9-5.121,6.231-7.1a.108.108,0,0,1,.151-.028.106.106,0,0,1,.028.149c-.011.017-1.227,1.82-2.607,3.6C85.754,141.761,84.476,142.972,83.811,142.972Z" transform="translate(-71.529 -110.97)" fill="#1f4076"/>
  <path id="Tracé_2280" data-name="Tracé 2280" d="M115.891,58.222a4.1,4.1,0,0,1-.552.569,9.623,9.623,0,0,1-1.534,1.235,3.531,3.531,0,0,1-2.7.379,1.06,1.06,0,0,1-.459-.195,1.264,1.264,0,0,1-.286-1.054l-.346.379a.24.24,0,0,1-.087.069.227.227,0,0,1-.154-.019,3.816,3.816,0,0,1-1.434-1.229,1.3,1.3,0,0,0,.547-.733,8.1,8.1,0,0,0,.569-2.635c.017-.366-.108-.865.089-1.17a1.121,1.121,0,0,1,.987-.467,1.631,1.631,0,0,1,.744-.85,2.92,2.92,0,0,1,2.531-.307,4.58,4.58,0,0,1,1.731,1.276,3.494,3.494,0,0,1,.634.924.433.433,0,0,1,.03.383c-.065.115-.279.128-.307,0a5.207,5.207,0,0,1,.4,1.98,3.245,3.245,0,0,1-.238,1.16,1.688,1.688,0,0,1-.164.307Z" transform="translate(-100.376 -46.498)" fill="#f2f1f7"/>
  <path id="Tracé_2281" data-name="Tracé 2281" d="M111.641,60.165a4.188,4.188,0,0,1-.954-.112,1.181,1.181,0,0,1-.5-.216,1.1,1.1,0,0,1-.327-.865l-.156.171a.275.275,0,0,1-.359.078,3.955,3.955,0,0,1-1.48-1.261.117.117,0,0,1-.022-.093.11.11,0,0,1,.058-.074,1.212,1.212,0,0,0,.493-.675,7.975,7.975,0,0,0,.563-2.6,3.232,3.232,0,0,0,0-.346,1.461,1.461,0,0,1,.117-.878,1.235,1.235,0,0,1,.989-.521h.015a1.763,1.763,0,0,1,.762-.831,3.017,3.017,0,0,1,2.624-.316,4.6,4.6,0,0,1,1.783,1.3,3.566,3.566,0,0,1,.649.952.56.56,0,0,1,.026.478.294.294,0,0,1-.216.143,5.06,5.06,0,0,1,.318,1.785,3.336,3.336,0,0,1-.251,1.212,1.744,1.744,0,0,1-.18.327h0a2.6,2.6,0,0,1-.407.433l-.16.149a9.53,9.53,0,0,1-1.549,1.238A3.4,3.4,0,0,1,111.641,60.165Zm-1.672-1.575a.136.136,0,0,1,.041,0,.108.108,0,0,1,.067.1,1.209,1.209,0,0,0,.247.969,1.019,1.019,0,0,0,.413.173,3.427,3.427,0,0,0,2.62-.368,9.3,9.3,0,0,0,1.514-1.209l.164-.154a2.406,2.406,0,0,0,.374-.4,1.515,1.515,0,0,0,.158-.288,3.133,3.133,0,0,0,.234-1.132,5.024,5.024,0,0,0-.376-1.9.184.184,0,0,1-.019-.052.108.108,0,0,1,.206-.063v.017a.063.063,0,0,0,.041,0,.087.087,0,0,0,.065-.035.342.342,0,0,0-.032-.288,3.462,3.462,0,0,0-.61-.878,4.377,4.377,0,0,0-1.7-1.248,2.824,2.824,0,0,0-2.438.3,1.514,1.514,0,0,0-.7.79.11.11,0,0,1-.115.071,1.013,1.013,0,0,0-.883.42,1.31,1.31,0,0,0-.082.746,3.142,3.142,0,0,1,0,.372A8.221,8.221,0,0,1,108.6,57.2a1.547,1.547,0,0,1-.485.718,3.494,3.494,0,0,0,1.311,1.1.156.156,0,0,0,.078.017.216.216,0,0,0,.043-.039l.346-.381A.106.106,0,0,1,109.969,58.59Zm5.53-.816Z" transform="translate(-99.984 -46.05)" fill="#1f4076"/>
  <path id="Tracé_2282" data-name="Tracé 2282" d="M99.916,61.621a39.322,39.322,0,0,0-6.529,2.125,42.957,42.957,0,0,1-.742-4.63c.03-.87.469-1.3.6-1.969.141-.731-.485-1.514-.606-1.354s.177.565.087.831a2.125,2.125,0,0,1-.273.508s.043-1.54-.383-1.856-1.144-.1-1.235.2a5.7,5.7,0,0,0,0,2.492c.1.325.138,8.87.718,9.147s6.8-2.2,7.226-2.138a7.229,7.229,0,0,1,3.395,3.159,3.706,3.706,0,0,1,0,2.741L105.9,71.9l2.466-2.254s-1.315-4.915-1.558-5.409a4.515,4.515,0,0,1-.255-1.584c-.017-.286-1.755-.433-1.755-.433a2.767,2.767,0,0,0-1.627-1.028A5.865,5.865,0,0,0,99.916,61.621Z" transform="translate(-86.547 -48.922)" fill="#f2f1f7"/>
  <path id="Tracé_2283" data-name="Tracé 2283" d="M105.491,71.625h-.028l-3.721-1.017a.11.11,0,0,1-.071-.061.1.1,0,0,1,0-.091,3.633,3.633,0,0,0,0-2.657,7.227,7.227,0,0,0-3.308-3.092c-.154,0-1.348.4-2.5.8-2.559.887-4.4,1.514-4.76,1.333-.4-.188-.55-2.72-.692-7.323-.03-.963-.056-1.794-.082-1.889a5.945,5.945,0,0,1,.011-2.555.649.649,0,0,1,.446-.374,1.082,1.082,0,0,1,.956.117c.331.242.409,1.056.433,1.556.024-.05.045-.1.065-.156a.753.753,0,0,0-.058-.4c-.054-.18-.108-.348,0-.467a.171.171,0,0,1,.216-.039,1.582,1.582,0,0,1,.578,1.48,3.533,3.533,0,0,1-.273.768,2.97,2.97,0,0,0-.327,1.186,39.48,39.48,0,0,0,.712,4.463A39.559,39.559,0,0,1,99.5,61.143a5.938,5.938,0,0,1,3.3-.433,2.9,2.9,0,0,1,1.662,1.03c1.181.106,1.787.281,1.8.521v.16a3.814,3.814,0,0,0,.238,1.382c.244.491,1.514,5.223,1.566,5.424a.11.11,0,0,1-.032.108l-2.475,2.252A.119.119,0,0,1,105.491,71.625Zm-3.574-1.2,3.546.971,2.38-2.163c-.459-1.716-1.348-4.948-1.534-5.32a4.022,4.022,0,0,1-.26-1.471V62.29a5.117,5.117,0,0,0-1.657-.327.1.1,0,0,1-.08-.048,2.672,2.672,0,0,0-1.56-.982,5.689,5.689,0,0,0-3.17.409.045.045,0,0,1-.024,0,37.691,37.691,0,0,0-6.5,2.116.11.11,0,0,1-.1,0,.112.112,0,0,1-.061-.076,42.2,42.2,0,0,1-.744-4.656,3.126,3.126,0,0,1,.346-1.266,3.321,3.321,0,0,0,.244-.716,1.441,1.441,0,0,0-.433-1.225,1.361,1.361,0,0,0,.056.229.876.876,0,0,1,.054.528,2.207,2.207,0,0,1-.288.539.108.108,0,0,1-.195-.067c.015-.575-.063-1.562-.34-1.768a.865.865,0,0,0-.759-.084.469.469,0,0,0-.307.231,5.569,5.569,0,0,0,0,2.427c.03.1.048.584.091,1.947.063,2.057.216,6.876.571,7.14.307.145,2.886-.751,4.593-1.341a14.62,14.62,0,0,1,2.6-.807,7.246,7.246,0,0,1,3.481,3.23A3.873,3.873,0,0,1,101.917,70.427ZM99.522,61.24Z" transform="translate(-86.154 -48.541)" fill="#1f4076"/>
  <path id="Tracé_2284" data-name="Tracé 2284" d="M126.414,66.219l-1.96-2.813s.723-1.731-.024-2.813c0,0,1.731.322,2.412-.664a5.573,5.573,0,0,1,1.5,2.131,1.642,1.642,0,0,1-.476,1.731l.969,1.731" transform="translate(-112.985 -52.691)" fill="#f2f1f7"/>
  <path id="Tracé_2285" data-name="Tracé 2285" d="M126.062,65.867a.106.106,0,0,1-.089-.048l-1.962-2.813a.106.106,0,0,1,0-.1c0-.017.69-1.692-.013-2.713a.108.108,0,0,1,.108-.169c.017,0,1.672.3,2.3-.619a.115.115,0,0,1,.076-.045.11.11,0,0,1,.084.026,5.606,5.606,0,0,1,1.536,2.183,1.765,1.765,0,0,1-.433,1.787l.926,1.657a.108.108,0,1,1-.188.1l-.969-1.731a.108.108,0,0,1,.028-.136,1.514,1.514,0,0,0,.433-1.62,5.25,5.25,0,0,0-1.385-2,2.641,2.641,0,0,1-2.22.649,3.628,3.628,0,0,1-.063,2.665l1.91,2.756a.106.106,0,0,1-.026.149A.1.1,0,0,1,126.062,65.867Z" transform="translate(-112.631 -52.242)" fill="#1f4076"/>
  <path id="Tracé_2286" data-name="Tracé 2286" d="M121.679,70.734s-1.209-.9-1.387.193,1.166,1.434,1.659,1.064" transform="translate(-109.73 -60.884)" fill="#f2f1f7"/>
  <path id="Tracé_2287" data-name="Tracé 2287" d="M121.037,71.879a1.48,1.48,0,0,1-.742-.2,1.062,1.062,0,0,1-.511-1.129.692.692,0,0,1,.389-.591c.467-.188,1.14.307,1.168.329a.108.108,0,1,1-.13.173c-.167-.123-.664-.42-.958-.3a.506.506,0,0,0-.257.433.846.846,0,0,0,.411.909,1.062,1.062,0,0,0,1.082.05.112.112,0,0,1,.151.022.11.11,0,0,1-.022.154A.978.978,0,0,1,121.037,71.879Z" transform="translate(-109.328 -60.514)" fill="#1f4076"/>
  <path id="Tracé_2288" data-name="Tracé 2288" d="M134.109,65.972a.1.1,0,0,1-.1-.058.108.108,0,0,1,.045-.145,1.06,1.06,0,0,0,.409-.353,3.156,3.156,0,0,0-1.069-.342.108.108,0,1,1,.041-.212c.253.048,1.082.216,1.222.459a.184.184,0,0,1,.015.154,1.181,1.181,0,0,1-.519.487A.1.1,0,0,1,134.109,65.972Zm.366-.545Z" transform="translate(-119.944 -56.554)" fill="#1f4076"/>
  <path id="Tracé_2289" data-name="Tracé 2289" d="M134.688,77.78a6.239,6.239,0,0,1-1.558.736,2,2,0,0,0,2.163.357Z" transform="translate(-119.803 -66.679)" fill="#1f4076"/>
  <path id="Tracé_2290" data-name="Tracé 2290" d="M134.12,78.776a2.339,2.339,0,0,1-1.458-.575.11.11,0,0,1-.03-.1.106.106,0,0,1,.074-.08,6.157,6.157,0,0,0,1.519-.72.113.113,0,0,1,.087-.017.11.11,0,0,1,.071.052L135,78.428a.108.108,0,0,1-.048.149A1.9,1.9,0,0,1,134.12,78.776Zm-1.162-.612a1.845,1.845,0,0,0,1.8.266l-.5-.889A6.707,6.707,0,0,1,132.958,78.164Z" transform="translate(-119.41 -66.287)" fill="#1f4076"/>
  <ellipse id="Ellipse_218" data-name="Ellipse 218" cx="0.156" cy="0.273" rx="0.156" ry="0.273" transform="matrix(0.845, -0.535, 0.535, 0.845, 12.619, 8.522)" fill="#1f4076"/>
  <ellipse id="Ellipse_219" data-name="Ellipse 219" cx="0.156" cy="0.273" rx="0.156" ry="0.273" transform="matrix(0.845, -0.535, 0.535, 0.845, 13.765, 7.797)" fill="#1f4076"/>
  <path id="Tracé_2291" data-name="Tracé 2291" d="M132.05,71.092h-.061c-.543-.058-1.138-.9-1.162-.937a.108.108,0,1,1,.177-.123c.154.216.649.8,1.008.844a.281.281,0,0,0,.24-.082,1.125,1.125,0,0,0,.325-1.056.108.108,0,0,1,.078-.132.112.112,0,0,1,.138.082,1.354,1.354,0,0,1-.383,1.266.5.5,0,0,1-.361.138Z" transform="translate(-117.981 -60.271)" fill="#1f4076"/>
  <path id="Tracé_2292" data-name="Tracé 2292" d="M123.45,83s2.38,1.054,2.758,2.332-.342,1.633-.342,1.633,1.789,1.279,1.967,1.9c0,0,1.188-2.466,2.527-2.938a5.264,5.264,0,0,1,2.38-.3,3.84,3.84,0,0,0-.3-2.639c-.27-.489-.844-.361-1.376-.485s-1.653-.839-2.3-.932l-.5.132s1.82.649,1.791,1.082a3.255,3.255,0,0,1-2.5,1.807c-1.021-.108-3.345-1.982-3.345-1.982Z" transform="translate(-112.217 -69.649)" fill="#fce15c"/>
  <path id="Tracé_2293" data-name="Tracé 2293" d="M127.473,88.513h0a.106.106,0,0,1-.1-.078c-.138-.48-1.437-1.493-1.926-1.843a.106.106,0,0,1,.015-.184c.024-.013.63-.338.286-1.514-.355-1.216-2.674-2.252-2.7-2.263a.108.108,0,0,1-.006-.195l.746-.4a.112.112,0,0,1,.119,0c.024.019,2.313,1.858,3.289,1.96a2.382,2.382,0,0,0,1.562-.694,2.484,2.484,0,0,0,.816-1.013c.013-.216-.878-.673-1.72-.967a.11.11,0,0,1-.071-.108.108.108,0,0,1,.08-.1l.5-.134a.145.145,0,0,1,.043,0,5.526,5.526,0,0,1,1.38.541,5.639,5.639,0,0,0,.932.4,3.76,3.76,0,0,0,.433.061c.385.037.785.074,1.008.476a3.916,3.916,0,0,1,.314,2.72.11.11,0,0,1-.123.078,5.192,5.192,0,0,0-2.321.3c-1.283.452-2.456,2.86-2.466,2.884A.1.1,0,0,1,127.473,88.513Zm-1.783-2.008a8.427,8.427,0,0,1,1.785,1.655c.318-.606,1.335-2.38,2.49-2.8a5.519,5.519,0,0,1,2.33-.32,3.719,3.719,0,0,0-.316-2.464c-.167-.3-.463-.331-.839-.368a3.2,3.2,0,0,1-.465-.065,5.669,5.669,0,0,1-.978-.411,5.842,5.842,0,0,0-1.3-.517l-.151.039c.595.231,1.569.671,1.543,1.067a2.547,2.547,0,0,1-.894,1.166,2.7,2.7,0,0,1-1.731.742c-.963-.1-2.977-1.668-3.347-1.96l-.493.262c.591.288,2.3,1.2,2.62,2.306C126.248,85.848,125.9,86.321,125.69,86.505Z" transform="translate(-111.856 -69.189)" fill="#5c6f99"/>
  <path id="Tracé_2294" data-name="Tracé 2294" d="M132.307,123.525a13.15,13.15,0,0,1-3.148,2.276s-.041.974.772,1.177a2.564,2.564,0,0,0,1.575,1.339s1.216,1.3,2.337.649c0,0,1.993,1.082,2.839.182,0,0,.742-.238,1.947-.5.366-.082,1.3.2,1.7-.61L138.5,122.29S133.83,123.8,132.307,123.525Z" transform="translate(-116.69 -101.559)" fill="#fce15c"/>
  <path id="Tracé_2295" data-name="Tracé 2295" d="M135.323,129.159a4.616,4.616,0,0,1-1.869-.53c-1.1.578-2.224-.5-2.4-.675a2.663,2.663,0,0,1-1.594-1.346c-.835-.249-.8-1.263-.8-1.272a.106.106,0,0,1,.074-.1,13.7,13.7,0,0,0,3.118-2.254.106.106,0,0,1,.1-.03c1.48.277,6.088-1.216,6.136-1.231a.108.108,0,0,1,.082,0,.1.1,0,0,1,.054.063l1.832,5.744a.1.1,0,0,1,0,.08,1.372,1.372,0,0,1-1.447.649,1.656,1.656,0,0,0-.331.013c-1.058.236-1.765.45-1.906.5A1.387,1.387,0,0,1,135.323,129.159Zm-1.871-.762a.117.117,0,0,1,.054.013c.017.011,1.926,1.041,2.7.2a.106.106,0,0,1,.045-.03s.762-.242,1.947-.506a1.711,1.711,0,0,1,.383-.019c.433,0,.948.017,1.229-.5l-1.778-5.6c-.705.216-4.613,1.441-6.082,1.216a14.112,14.112,0,0,1-3.076,2.226.994.994,0,0,0,.69,1,.112.112,0,0,1,.074.063,2.471,2.471,0,0,0,1.514,1.279.171.171,0,0,1,.05.03c.011.013,1.17,1.225,2.2.63A.1.1,0,0,1,133.452,128.4Z" transform="translate(-116.299 -101.107)" fill="#5c6f99"/>
  <path id="Tracé_2296" data-name="Tracé 2296" d="M95.7,64.718H95.68a.108.108,0,0,1-.087-.125.883.883,0,0,1,.679-.66.11.11,0,1,1,.043.216.664.664,0,0,0-.511.485A.106.106,0,0,1,95.7,64.718Z" transform="translate(-90.386 -55.826)" fill="#1f4076"/>
  <ellipse id="Ellipse_220" data-name="Ellipse 220" cx="2.484" cy="2.484" rx="2.484" ry="2.484" transform="translate(19.143 0.117)" fill="#fce15c"/>
  <path id="Tracé_2297" data-name="Tracé 2297" d="M162.086,31.662a2.6,2.6,0,1,1,2.6-2.6A2.6,2.6,0,0,1,162.086,31.662Zm0-4.976a2.377,2.377,0,1,1,0,.006Z" transform="translate(-140.46 -26.47)" fill="#5c6f99"/>
  <path id="Tracé_2298" data-name="Tracé 2298" d="M164.614,33.743a.108.108,0,0,1-.108-.1,2.438,2.438,0,0,1,.948-2.248c-.087-1.32-1.579-1.9-1.785-1.936a.128.128,0,0,1-.089-.039.108.108,0,0,1,.013-.151c.035-.03.078-.067.452.1a2.516,2.516,0,0,1,1.627,2.086.11.11,0,0,1-.056.1,2.155,2.155,0,0,0-.894,2.083.108.108,0,0,1-.1.113Z" transform="translate(-143.645 -28.64)" fill="#5c6f99"/>
  <path id="Tracé_2299" data-name="Tracé 2299" d="M173.008,37.253a3.209,3.209,0,0,1-.58-.05.11.11,0,0,1-.084-.128.106.106,0,0,1,.128-.084,2.493,2.493,0,0,0,2.068-.515.109.109,0,0,1,.158.149A2.308,2.308,0,0,1,173.008,37.253Z" transform="translate(-150.531 -34.285)" fill="#5c6f99"/>
  <path id="Tracé_2300" data-name="Tracé 2300" d="M170.349,44.035a2.652,2.652,0,0,1-1.445-.454.108.108,0,0,1,.128-.173,2.174,2.174,0,0,0,2.533,0,.11.11,0,0,1,.151.024.106.106,0,0,1-.024.151A2.237,2.237,0,0,1,170.349,44.035Z" transform="translate(-147.809 -39.727)" fill="#5c6f99"/>
  <path id="Tracé_2301" data-name="Tracé 2301" d="M163.675,36.636a.108.108,0,0,1-.108-.1,3.029,3.029,0,0,1,1.348-2.906.108.108,0,0,1,.108.186,2.763,2.763,0,0,0-1.24,2.7.108.108,0,0,1-.1.119Z" transform="translate(-143.637 -32.077)" fill="#5c6f99"/>
  <path id="Tracé_2302" data-name="Tracé 2302" d="M159.764,32.748h-.015a.108.108,0,0,1-.093-.123,2.454,2.454,0,0,1,1.577-2.107.108.108,0,1,1,.063.206,2.258,2.258,0,0,0-1.426,1.934A.108.108,0,0,1,159.764,32.748Z" transform="translate(-140.589 -29.634)" fill="#5c6f99"/>
  <path id="Tracé_2303" data-name="Tracé 2303" d="M171.172,29.851a.108.108,0,0,1-.108-.1.154.154,0,0,1,0-.032c.019-.262-.158-2.086-1.378-2.488a.108.108,0,1,1,.067-.206c1.4.463,1.553,2.507,1.525,2.726a.115.115,0,0,1-.1.1Z" transform="translate(-148.388 -26.9)" fill="#5c6f99"/>
  <path id="Tracé_2304" data-name="Tracé 2304" d="M177.815,30.51h0a.106.106,0,0,1-.108-.106v-.05a2.493,2.493,0,0,0-.6-1.947.108.108,0,1,1,.156-.149,2.632,2.632,0,0,1,.649,2.1V30.4a.106.106,0,0,1-.1.113Z" transform="translate(-154.24 -27.84)" fill="#5c6f99"/>
</svg>
