<svg xmlns="http://www.w3.org/2000/svg" width="20.955" height="27.94" viewBox="0 0 20.955 27.94">
  <path id="Icon_awesome-child" data-name="Icon awesome-child" d="M6.548,3.929a3.929,3.929,0,1,1,3.929,3.929A3.929,3.929,0,0,1,6.548,3.929ZM20.443,4a1.746,1.746,0,0,0-2.47,0L13.247,8.731H7.708L2.981,4a1.746,1.746,0,1,0-2.47,2.47l5.164,5.164V26.194A1.746,1.746,0,0,0,7.422,27.94h.873a1.746,1.746,0,0,0,1.746-1.746V20.082h.873v6.112A1.746,1.746,0,0,0,12.66,27.94h.873a1.746,1.746,0,0,0,1.746-1.746V11.637l5.164-5.164a1.746,1.746,0,0,0,0-2.47Z" fill="#4973d2"/>
</svg>
