<svg xmlns="http://www.w3.org/2000/svg" width="34" height="27.94" viewBox="0 0 34 27.94">
  <g id="Groupe_382" data-name="Groupe 382" transform="translate(-1036 -430.288)">
    <path id="account-heart" d="M15,14c-2.7,0-8,1.3-8,4v8.228H23V18c0-2.7-5.3-4-8-4m0-2a4,4,0,1,0-4-4,4,4,0,0,0,4,4M6.3,5.588l-.6-.5c-2-1.9-3.4-3.1-3.4-4.6a2.22,2.22,0,0,1,2.2-2.2,2.342,2.342,0,0,1,1.8.8,2.342,2.342,0,0,1,1.8-.8,2.156,2.156,0,0,1,2.2,2.2c0,1.5-1.4,2.7-3.4,4.6Z" transform="translate(1047 432)" fill="#4973d2"/>
    <path id="account-heart-2" data-name="account-heart" d="M15,14c-2.7,0-8,1.3-8,4v8.19H23V18c0-2.7-5.3-4-8-4m0-2a4,4,0,1,0-4-4,4,4,0,0,0,4,4" transform="translate(1029 432)" fill="#4973d2"/>
  </g>
</svg>
