<svg xmlns="http://www.w3.org/2000/svg" width="33" height="21" viewBox="0 0 33 21">
  <path id="Icon_material-people" data-name="Icon material-people" d="M24,16.5A4.5,4.5,0,1,0,19.5,12,4.481,4.481,0,0,0,24,16.5Zm-12,0A4.5,4.5,0,1,0,7.5,12,4.481,4.481,0,0,0,12,16.5Zm0,3c-3.495,0-10.5,1.755-10.5,5.25V28.5h21V24.75C22.5,21.255,15.495,19.5,12,19.5Zm12,0c-.435,0-.93.03-1.455.075A6.33,6.33,0,0,1,25.5,24.75V28.5h9V24.75C34.5,21.255,27.495,19.5,24,19.5Z" transform="translate(-1.5 -7.5)" fill="#4973d2"/>
</svg>
