<svg xmlns="http://www.w3.org/2000/svg" width="33.458" height="25.094" viewBox="0 0 33.458 25.094">
  <path id="card-account-details" d="M2.788,3H30.67a2.892,2.892,0,0,1,2.788,2.788V25.306a2.892,2.892,0,0,1-2.788,2.788H2.788A2.892,2.892,0,0,1,0,25.306V5.788A2.892,2.892,0,0,1,2.788,3M19.517,7.182V8.576H30.67V7.182H19.517m0,2.788v1.394H30.67V9.97H19.517m0,2.788v1.394h9.759V12.759H19.517M11.153,18.21c-2.788,0-8.365,1.52-8.365,4.308v1.394H19.517V22.517c0-2.788-5.576-4.308-8.365-4.308m0-11.027a4.182,4.182,0,1,0,4.182,4.182,4.182,4.182,0,0,0-4.182-4.182Z" transform="translate(0 -3)" fill="#4973d2"/>
</svg>
