<svg xmlns="http://www.w3.org/2000/svg" width="28.496" height="27.94" viewBox="0 0 28.496 27.94">
  <path id="human-male-female-child" d="M21.461,4.78a2.78,2.78,0,1,1,2.78,2.78,2.788,2.788,0,0,1-2.78-2.78M27.021,29.8v-8.34H30.5L27.021,10.9A2.842,2.842,0,0,0,24.38,8.95h-.139A2.842,2.842,0,0,0,21.6,10.9L20.348,14.51a4.75,4.75,0,0,1,2.5,4.309V29.94h4.17M16.6,15.205A2.085,2.085,0,1,0,14.51,13.12,2.138,2.138,0,0,0,16.6,15.205M6.865,7.56a2.78,2.78,0,1,0-2.78-2.78,2.788,2.788,0,0,0,2.78,2.78M9.645,29.8V20.07H11.73V11.73A2.788,2.788,0,0,0,8.95,8.95H4.78A2.788,2.788,0,0,0,2,11.73v8.34H4.085V29.8h5.56m9.035,0v-5.56h1.39V18.68A2.138,2.138,0,0,0,17.985,16.6h-2.78A2.138,2.138,0,0,0,13.12,18.68v5.56h1.39V29.8Z" transform="translate(-2 -2)" fill="#4973d2"/>
</svg>
