<?xml version="1.0" encoding="utf-8"?>
<!-- Generator: Adobe Illustrator 19.0.0, SVG Export Plug-In . SVG Version: 6.00 Build 0)  -->
<svg version="1.1" id="Calque_1" xmlns="http://www.w3.org/2000/svg" xmlns:xlink="http://www.w3.org/1999/xlink" x="0px" y="0px"
	 viewBox="0 0 566.9 566.9" style="enable-background:new 0 0 566.9 566.9;" xml:space="preserve">
<style type="text/css">
	.st0{fill:#CFD1D2;}
	.st1{fill:#FBC8C0;}
	.st2{fill:#4A4B4C;}
	.st3{fill:#E8EDE6;}
	.st4{fill:#FFFFFF;}
	.st5{fill:#62493E;}
	.st6{fill:#312017;}
	.st7{fill:#674238;}
	.st8{fill:#F7A8B0;}
</style>
<g id="XMLID_31_">
	<g id="XMLID_83_">
		<g id="XMLID_92_">
			<g id="XMLID_93_">
				<g id="XMLID_94_">
					<path id="XMLID_29_" class="st0" d="M241.4,169.1c0,0-62.7-95-142.6-126.3C38.1,19.1,22,214.9,76.4,279.2L241.4,169.1z"/>
				</g>
			</g>
		</g>
		<g id="XMLID_88_">
			<g id="XMLID_89_">
				<g id="XMLID_90_">
					<path id="XMLID_28_" class="st1" d="M217.5,177.4c0,0-50.5-76.5-114.8-101.7c-49-19.1-61.9,138.5-18.1,190.3L217.5,177.4z"/>
				</g>
			</g>
		</g>
		<g id="XMLID_84_">
			<g id="XMLID_85_">
				<g id="XMLID_86_">
					<path id="XMLID_27_" class="st0" d="M206.2,124.4c-16.6,4-33,8.9-48.9,15.2c-10.6,4.2-21,9-31,14.5c-5.1,2.8-10.1,5.8-15.1,8.9
						c-2.6,1.7-5.2,3.4-7.7,5.1c-2.4,1.7-5,3.3-7.2,5.1c-2.2,1.9-4.2,4.1-6.2,6.3c-2.7,2.9-5.4,5.8-8.2,8.6
						c-5.8,6-11.8,12-18.8,16.6c-4.4,2.9-10.1,5.7-15.3,3.7c5.1,28.3,14.4,54,28.6,70.7l165-110.1
						C241.4,169.1,228.2,149.1,206.2,124.4z"/>
				</g>
			</g>
		</g>
	</g>
	<g id="XMLID_69_">
		<g id="XMLID_79_">
			<g id="XMLID_80_">
				<g id="XMLID_81_">
					<path id="XMLID_26_" class="st2" d="M294.7,169.1c0,0,62.7-95,142.6-126.3c60.8-23.8,76.8,172,22.4,236.3L294.7,169.1z"/>
				</g>
			</g>
		</g>
		<g id="XMLID_74_">
			<g id="XMLID_76_">
				<g id="XMLID_77_">
					<path id="XMLID_25_" class="st1" d="M318.6,177.4c0,0,50.5-76.5,114.8-101.7c49-19.1,61.9,138.5,18.1,190.3L318.6,177.4z"/>
				</g>
			</g>
		</g>
		<g id="XMLID_70_">
			<g id="XMLID_71_">
				<g id="XMLID_72_">
					<path id="XMLID_24_" class="st0" d="M329.9,124.4c16.6,4,33,8.9,48.9,15.2c10.6,4.2,21,9,31,14.5c5.1,2.8,10.1,5.8,15.1,8.9
						c2.6,1.7,5.2,3.4,7.7,5.1c2.4,1.7,5,3.3,7.2,5.1c2.2,1.9,4.2,4.1,6.2,6.3c2.7,2.9,5.4,5.8,8.2,8.6c5.8,6,11.8,12,18.8,16.6
						c4.4,2.9,10.1,5.7,15.3,3.7c-5.1,28.3-14.4,54-28.6,70.7l-165-110.1C294.7,169.1,307.9,149.1,329.9,124.4z"/>
				</g>
			</g>
		</g>
	</g>
	<path id="XMLID_23_" class="st3" d="M489.4,310.9c0,101.6-97.6,205.6-218,205.6c-120.4,0-218-104-218-205.6
		c0-101.6,97.6-183.9,218-183.9C391.8,126.9,489.4,209.3,489.4,310.9z"/>
	<path id="XMLID_22_" class="st2" d="M73.1,361.2c16.2,5.8,34,6.1,50.9,3.6c16.8-2.6,33.4-7.9,48.3-16.1
		c19.3-10.5,33.9-26.9,42.8-46.9c9.3-21,12.8-44.1,17.6-66.4c0.3-1.5,2.3-1,2.5,0.3c1,9.5,0.2,19.1,1.6,28.6
		c4.5-8.7,6.5-18.6,11.7-27c0.5-0.8,2.1-0.8,2.3,0.3c0.9,5.7,1.2,11.5,2.5,17.1c4.3-8.2,6.7-17.6,13.2-24.3c0.6-0.7,1.9-0.4,2.1,0.6
		c1.9,9.3,0.2,19.1,2.8,28.2c9-8,12.9-20.9,19.4-30.8c0.6-0.9,2-0.8,2.3,0.3c5.1,15.7,6.3,32.2,9.2,48.3c1.5,8.2,3.5,16.4,6.7,24.2
		c3.2,7.9,7.8,14.9,13.1,21.5c8.8,11,19.3,20.7,31,28.6c5.9,3.9,11.9,7.3,18.5,9.8c6.7,2.5,13.6,4.3,20.6,5.7
		c13.4,2.7,27.6,4.2,41.4,3.6c8-0.4,16-1.1,24-2c7.6-0.9,15.3-2,22.9-3.4c5.8-17.7,8.9-35.9,8.9-54.1c0-101.6-97.6-183.9-218-183.9
		c-120.4,0-218,82.4-218,183.9c0,14.4,2,28.9,5.7,43.1C63.3,356.9,68,359.3,73.1,361.2z"/>
	<g id="XMLID_48_">
		<g id="XMLID_58_">
			<g id="XMLID_59_">
				<circle id="XMLID_21_" class="st4" cx="188" cy="331.1" r="42.1"/>
				<g id="XMLID_60_">
					<circle id="XMLID_20_" class="st5" cx="188" cy="331.1" r="31.4"/>
					<g id="XMLID_61_">
						<circle id="XMLID_19_" class="st6" cx="188" cy="331" r="26.1"/>
						<circle id="XMLID_18_" class="st4" cx="178.3" cy="318.3" r="4.8"/>
						<circle id="XMLID_17_" class="st4" cx="169.6" cy="330" r="3"/>
					</g>
				</g>
			</g>
		</g>
		<g id="XMLID_49_">
			<g id="XMLID_50_">
				<circle id="XMLID_16_" class="st4" cx="354.7" cy="331.1" r="42.1"/>
				<g id="XMLID_51_">
					<circle id="XMLID_15_" class="st5" cx="354.7" cy="331.1" r="31.4"/>
					<g id="XMLID_52_">
						<circle id="XMLID_14_" class="st6" cx="354.7" cy="331" r="26.1"/>
						<circle id="XMLID_13_" class="st4" cx="345" cy="318.3" r="4.8"/>
						<circle id="XMLID_12_" class="st4" cx="336.3" cy="330" r="3"/>
					</g>
				</g>
			</g>
		</g>
	</g>
	<path id="XMLID_11_" class="st0" d="M349.5,378.3c-0.9,0-1.8-0.2-2.7-0.7c-78.7-40.9-153.6-0.5-154.4-0.1c-2.8,1.5-6.3,0.5-7.8-2.3
		c-1.5-2.8-0.5-6.3,2.2-7.8c3.3-1.8,81-43.9,165.3-0.1c2.8,1.5,3.9,4.9,2.5,7.8C353.6,377.2,351.6,378.3,349.5,378.3z"/>
	<g id="XMLID_41_">
		<g id="XMLID_43_">
			<path id="XMLID_10_" class="st7" d="M271.4,445.5c-1.3,0-2.3-0.5-2.3-1.2v-23.6c0-0.6,1-1.2,2.3-1.2c1.3,0,2.3,0.5,2.3,1.2v23.6
				C273.7,445,272.7,445.5,271.4,445.5z"/>
			<path id="XMLID_9_" class="st7" d="M239.4,476c-1.1,0-2-0.7-2.3-1.8c-0.3-1.2,0.5-2.5,1.8-2.7c9.1-1.9,30.1-8.8,30.1-31.1
				c0-1.3,1-2.3,2.3-2.3c1.3,0,2.3,1,2.3,2.3c0,17.8-12.6,31.1-33.8,35.6C239.8,476,239.6,476,239.4,476z"/>
			<path id="XMLID_8_" class="st7" d="M303.3,476c-0.2,0-0.3,0-0.5,0c-21.1-4.5-33.8-17.8-33.8-35.6c0-1.3,1-2.3,2.3-2.3
				c1.3,0,2.3,1,2.3,2.3c0,22.3,21.1,29.2,30.1,31.1c1.2,0.3,2,1.5,1.8,2.7C305.4,475.3,304.4,476,303.3,476z"/>
		</g>
		<path id="XMLID_7_" class="st8" d="M302.2,415.6c-0.3-4.8-12.1-5.1-15.3-5.4c-9.6-0.8-19.3-0.8-29-0.2c-3.4,0.2-17,0.3-17.4,5.5
			c-0.5,7.2,11.1,16.6,27.1,18.8c0.9,0.1,1.9,0.3,3,0.3l0,0.1c0,0,0.1,0,0.1,0c0.1,0,0.4,0,0.6,0c0.3,0,0.5,0,0.6,0c0,0,0.1,0,0.1,0
			l0-0.1c1.1-0.1,2-0.2,3-0.3C291.1,432.2,302.6,422.8,302.2,415.6z"/>
	</g>
	<g id="XMLID_32_">
		<g id="XMLID_37_">
			<path id="XMLID_6_" class="st7" d="M318,439.2c-0.5,0-0.9-0.3-1.1-0.8c-0.2-0.6,0.1-1.3,0.7-1.5c0.7-0.3,18-6.2,31.8-3.9
				c0.6,0.1,1.1,0.7,1,1.3c-0.1,0.6-0.7,1.1-1.3,1c-13.3-2.2-30.5,3.7-30.7,3.8C318.3,439.2,318.1,439.2,318,439.2z"/>
			<path id="XMLID_5_" class="st7" d="M347.5,449.1c-0.2,0-0.3,0-0.5-0.1c-13.4-6.5-28.7-4.3-28.8-4.3c-0.6,0.1-1.2-0.3-1.3-1
				c-0.1-0.6,0.3-1.2,1-1.3c0.7-0.1,16.1-2.4,30.2,4.5c0.6,0.3,0.8,1,0.5,1.5C348.3,448.9,347.9,449.1,347.5,449.1z"/>
			<path id="XMLID_4_" class="st7" d="M342.3,460.6c-0.2,0-0.4-0.1-0.6-0.2c-11.7-7.7-23.5-7.8-23.7-7.8c-0.6,0-1.2-0.5-1.2-1.2
				c0-0.6,0.5-1.2,1.2-1.2c0.5,0,12.6,0.1,24.9,8.2c0.5,0.3,0.7,1.1,0.3,1.6C343,460.4,342.7,460.6,342.3,460.6z"/>
		</g>
		<g id="XMLID_33_">
			<path id="XMLID_3_" class="st7" d="M224.8,439.2c-0.1,0-0.3,0-0.4-0.1c-0.2-0.1-17.4-6-30.7-3.8c-0.6,0.1-1.2-0.3-1.3-1
				c-0.1-0.6,0.3-1.2,1-1.3c13.9-2.3,31.1,3.6,31.8,3.9c0.6,0.2,0.9,0.9,0.7,1.5C225.7,438.9,225.3,439.2,224.8,439.2z"/>
			<path id="XMLID_2_" class="st7" d="M195.3,449.1c-0.4,0-0.8-0.2-1-0.6c-0.3-0.6,0-1.3,0.5-1.5c14-6.9,29.5-4.6,30.2-4.5
				c0.6,0.1,1.1,0.7,1,1.3c-0.1,0.6-0.7,1.1-1.3,1c-0.2,0-15.4-2.3-28.8,4.3C195.6,449.1,195.4,449.1,195.3,449.1z"/>
			<path id="XMLID_1_" class="st7" d="M200.5,460.6c-0.4,0-0.7-0.2-1-0.5c-0.3-0.5-0.2-1.2,0.3-1.6c12.3-8.1,24.4-8.2,24.9-8.2
				c0.6,0,1.2,0.5,1.2,1.2c0,0.6-0.5,1.2-1.2,1.2c-0.1,0-12,0.1-23.7,7.8C200.9,460.5,200.7,460.6,200.5,460.6z"/>
		</g>
	</g>
</g>
</svg>
