<?xml version="1.0" encoding="utf-8"?>
<!-- Generator: Adobe Illustrator 19.0.0, SVG Export Plug-In . SVG Version: 6.00 Build 0)  -->
<svg version="1.1" id="Calque_1" xmlns="http://www.w3.org/2000/svg" xmlns:xlink="http://www.w3.org/1999/xlink" x="0px" y="0px"
	 viewBox="0 0 566.9 566.9" style="enable-background:new 0 0 566.9 566.9;" xml:space="preserve">
<style type="text/css">
	.st0{fill:#947243;}
	.st1{fill:#CFCDB9;}
	.st2{fill:#7B5F36;}
	.st3{fill:#D0CCA8;}
	.st4{fill:#91989C;}
	.st5{fill:#FFFFFF;}
	.st6{fill:#544121;}
	.st7{fill:#542F00;}
	.st8{fill:#B97029;}
	.st9{fill:#312017;}
	.st10{fill:#2A2A2A;}
	.st11{fill:#595756;}
	.st12{fill:#624C29;}
	.st13{fill:#AD844F;}
</style>
<g id="XMLID_76_">
	<g id="XMLID_133_">
		<path id="XMLID_74_" class="st0" d="M446.2,187.5c-16.6-31.6-48.8-50.9-81.6-62.4c-70.9-24.8-165.8-20.3-224.5,32.9
			c-9.3,8.4-17.3,18.3-23.2,29.5C77.1,263.3,31.2,270,52.1,348.9c21.8,82.2,126.2,110.5,199.8,117.7c30.6,3,61.6,0.9,91.8-4.4
			c22.5-3.9,44.7-9.7,66-18c35.9-14,71.9-36,91.2-70.5c4.4-7.8,7.8-16.2,10.1-24.8C531.9,270,486,263.3,446.2,187.5z"/>
		<path id="XMLID_73_" class="st1" d="M484.3,244.2c2.8,11.8,4.9,23.8,4.9,35.9c0,9.1-1.2,18.3-4.5,26.8
			c-3.5,9.1-9.1,17.1-16.1,23.8c-0.8,0.8-2.5,0.5-2.7-0.7c-2-11.3-0.6-22.8-2.3-34c-3.8,8.1-6.3,16.7-9.4,25.1
			c-3.4,9.1-7.7,18.4-15.5,24.6c-1.1,0.9-2.6,0.3-2.8-1.1c-0.9-10.9,4.5-21.3,4.7-32.1c-0.9,1.5-1.8,2.9-2.8,4.4
			c-14.6,21.9-35.9,37.8-60.1,47.7c-24.5,10.1-51.2,14.4-77.5,16.5c-24.3,1.9-48.8,2.7-73.1,0c-22.8-2.6-45.8-8.3-65.6-20.4
			c-19.1-11.6-33.4-28.7-42.9-48.7c-0.9,7.2-2.4,14.3-5.9,20.7c-0.4,0.7-1.5,1-2.2,0.6c-4.4-2.7-7.7-6.8-9.9-11.5
			c-4.6-9.5-5.6-20.6-5.6-31c-0.1-7.5,0.4-14.9,1.1-22.4c-3.9,8.5-6.4,17.5-8.9,26.5c-0.3,1.3-2.3,1.7-2.9,0.4
			c-3.4-7.1-5.1-14.8-5.7-22.7c-0.7-10.7,0.8-21.6,3.3-32.1c-26.1,33.3-44.5,53.1-29.8,108.6c21.8,82.2,126.2,110.5,199.8,117.7
			c30.6,3,61.6,0.9,91.8-4.4c22.5-3.9,44.7-9.7,66-18c35.9-14,71.9-36,91.2-70.5c4.4-7.8,7.8-16.2,10.1-24.8
			C525.2,295.6,508.7,275.2,484.3,244.2z"/>
		<path id="XMLID_72_" class="st2" d="M206.4,240.4c7.1,10.9,13.7,22.2,21.3,32.8c9.2,12.9,20.5,27.1,36.3,31.8
			c15,4.5,30.9-0.2,43.7-8.5c21.4-13.9,31.1-38.5,45.1-59c-10,3.9-20.2,9.4-28.7,16.6c3.3-5.1,7-9.9,8.2-16.1
			c0.3-1.6-27,10.3-35.3,21c2-7.7,3.6-25.5,2.3-25.1c-10.2,3.5-15.9,16.8-19.2,26c-0.2,0.7-0.5,1.4-0.7,2.1
			c-0.6-1.4-1.2-2.8-1.9-4.2c-3.6-7.7-9.4-18.1-18.8-19.5c-1.9-0.3,3,16.2,5.3,22.9c-3.2-4.5-6.8-8.7-10.6-12.7
			c-7.9-8.1-33.6-16.4-32.8-14.4c1.8,4.4,5,7.8,8.2,11.2c-5.4-5-23.4-7.1-22.5-5.2C206.3,240.2,206.3,240.3,206.4,240.4z"/>
		<path id="XMLID_71_" class="st3" d="M232.6,279.4c4.6,7,8.8,14.2,13.7,21c5.9,8.3,13.2,17.4,23.3,20.4c9.6,2.9,19.8-0.1,28-5.5
			c13.7-8.9,20-24.7,29-37.9c-6.4,2.5-13,6-18.4,10.7c2.1-3.3,4.5-6.4,5.3-10.3c0.2-1-17.3,6.6-22.7,13.5c1.3-5,2.3-16.4,1.5-16.1
			c-6.5,2.2-10.2,10.8-12.3,16.7c-0.2,0.4-0.3,0.9-0.5,1.4c-0.4-0.9-0.8-1.8-1.2-2.7c-2.3-5-6-11.6-12.1-12.5
			c-1.2-0.2,1.9,10.4,3.4,14.7c-2.1-2.9-4.3-5.6-6.8-8.1c-5.1-5.2-21.6-10.5-21.1-9.2c1.1,2.8,3.2,5,5.3,7.2
			c-3.5-3.2-15-4.5-14.4-3.4C232.5,279.3,232.6,279.3,232.6,279.4z"/>
		<g id="XMLID_134_">
			<g id="XMLID_165_">
				<path id="XMLID_70_" class="st4" d="M272.8,297.3c-1.1-11.3-4.8-20.2-14-27.3c-9.3-7.1-19.3-12.6-27.4-21.2
					c-8.4-8.9-14.7-19.4-23-28.3c-6.9-7.4-15.6-12-25.1-8.1c-3.7-2.1-8.3-3.5-11.6-4.3c-7.3-1.7-14.9-2.2-22.4-1.7
					c-7.8,0.5-15.4,1.9-22.9,3.9c-6.5,1.8-13.7,3.8-19.3,7.6c-1.4,0.9-1.2,2.9,0.7,2.7c5-0.6,10.1-2.1,15-3.3c0.1,0,0.2,0.1,0.4,0.1
					c0.8,0,1.6,0.1,2.4,0.1c-1.2,0.4-2.5,0.7-3.7,1.1c-10.9,3.4-21.7,9.4-31,16c-0.8,0.6-0.9,2.1,0.5,1.8c4.5-1,8.8-3,13-5
					c-9.7,6.3-18.6,14-26.8,22.6c-2.2,2.3,0.2,4.7,2.7,3.5c-3.6,3.8-6.6,8.3-7,13.4c-0.2,2.2,2.2,2.2,3.7,1.5
					c-1.4,3.6-2.4,7.4-3.1,10.8c-1,4.9-1.6,9.7-1.9,14.5c-0.7,4.6-0.8,9.4,0,13.9c0.4,6.4,1.2,12.9,2.3,19.4
					c0.5,2.9,4.6,0.8,5.5-0.6c2.1-3.2,4-6.5,5.9-9.7c-0.1,2.7,0,5.4,0.3,8.1c1.3,11.6,5.9,24.3,14.4,32.7c1.6,1.5,3.8,0.5,5-1.1
					c1.2-1.7,2.1-3.4,3.1-5.2c0.3,0.8,0.6,1.6,0.9,2.3c4.5,11.3,11.4,22.2,20.7,30.2c4.1,3.5,8.9,6.4,14.4,6.8
					c1.6,0.1,4-1.6,3.9-3.3c-0.1-3.3-0.1-6.7-0.1-10c2.9,5.5,6.4,10.8,9.3,15.6c1.3,2.1,4.9-0.3,4.9-2.2c0-2.4-0.1-4.8-0.4-7.3
					c0.6,0.6,1.2,1.3,1.8,1.9c7.4,7.5,16.4,13.1,25.9,17.5c2.2,1,4.7-1.8,4.5-3.8c-0.2-2.6-0.6-5.1-1-7.6c0.6,0.6,1.2,1.2,1.7,1.8
					c7,6.9,15.5,12.1,23.5,17.6c1.8,1.2,4.6-0.7,4.8-2.7c0.2-2.1-0.1-4.2-0.6-6.3c5.6,3.7,12.1,6.6,18.9,5.8
					c1.4-0.2,3.2-1.8,3.1-3.2c-0.1-3-0.9-5.6-2.1-8.1c0.3,0.1,0.5,0.2,0.7,0.3c9.2,2.2,14.7-5.1,17.2-12.9c5.4-17,10-35.3,10.7-53.4
					c0.1-0.4,0.1-0.9,0.2-1.3C273,321.3,274,309.2,272.8,297.3z"/>
				<path id="XMLID_171_" class="st5" d="M238.9,241.8c-6.5-10.7-15.2-20.9-26.8-26.2c-9.9-4.6-21.1-4.9-31.3-1.5
					c-13.9-1.8-28.5,2.3-41.2,7.7c-9.2,3.9-17.7,9.1-24.7,16.3c-5.6,5.8-12.4,13.2-12.9,21.6c-0.1,2,2.1,2.3,3.6,1.7
					c1.2-0.5,2.4-1.1,3.5-1.8c-4,7.5-6.4,15.9-6.9,24.2c-0.2,2.5,2.9,2.3,4.3,1.3c1.7-1.2,3-2.8,4.1-4.5
					c-2.6,13.7,1.2,28.4,10.7,39.4c15.1,17.5,41.8,23.2,64,20.9c11.8-1.2,23.3-4.9,33.7-10.6c10.2-5.7,20.5-13.5,26.1-24.1
					C256,285.9,250.4,260.6,238.9,241.8z"/>
				<path id="XMLID_68_" class="st6" d="M180.9,214.1c-0.1,0-0.2,0-0.3,0c-12,4-22.6,12.1-30.7,21.7c-10.5,12.5-18.3,30.1-14.6,46.6
					c4.5,19.8,25.6,29.7,44.2,31.7c10.4,1.1,21-0.5,30.3-5.4c8.9-4.7,16.1-11.9,21.3-20.4c7.8-12.8,10.9-27.8,9.9-42.7
					c-0.7-1.3-1.5-2.6-2.2-3.9c-6.5-10.7-15.2-20.9-26.8-26.2C202.2,211,191.1,210.6,180.9,214.1z"/>
				<path id="XMLID_67_" class="st4" d="M290.3,297.3c1.1-11.3,4.8-20.2,14-27.3c9.3-7.1,19.3-12.6,27.4-21.2
					c8.4-8.9,14.7-19.4,23-28.3c6.9-7.4,15.6-12,25.1-8.1c3.7-2.1,8.3-3.5,11.6-4.3c7.3-1.7,14.9-2.2,22.4-1.7
					c7.8,0.5,15.4,1.9,22.9,3.9c6.5,1.8,13.7,3.8,19.3,7.6c1.4,0.9,1.2,2.9-0.7,2.7c-5-0.6-10.1-2.1-15-3.3c-0.1,0-0.2,0.1-0.4,0.1
					c-0.8,0-1.6,0.1-2.4,0.1c1.2,0.4,2.5,0.7,3.7,1.1c10.9,3.4,21.7,9.4,31,16c0.8,0.6,0.9,2.1-0.5,1.8c-4.5-1-8.8-3-13-5
					c9.7,6.3,18.6,14,26.8,22.6c2.2,2.3-0.2,4.7-2.7,3.5c3.6,3.8,6.6,8.3,7,13.4c0.2,2.2-2.2,2.2-3.7,1.5c1.4,3.6,2.4,7.4,3.1,10.8
					c1,4.9,1.6,9.7,1.8,14.5c0.7,4.6,0.8,9.4,0,13.9c-0.4,6.4-1.2,12.9-2.3,19.4c-0.5,2.9-4.6,0.8-5.5-0.6c-2.1-3.2-4-6.5-5.9-9.7
					c0.1,2.7,0,5.4-0.3,8.1c-1.3,11.6-5.9,24.3-14.4,32.7c-1.6,1.5-3.8,0.5-5-1.1c-1.2-1.7-2.1-3.4-3.1-5.2
					c-0.3,0.8-0.6,1.6-0.9,2.3c-4.5,11.3-11.4,22.2-20.7,30.2c-4.1,3.5-8.9,6.4-14.4,6.8c-1.6,0.1-4-1.6-3.9-3.3
					c0.1-3.3,0.1-6.7,0.1-10c-2.9,5.5-6.4,10.8-9.3,15.6c-1.3,2.1-4.9-0.3-4.9-2.2c0-2.4,0.1-4.8,0.4-7.3c-0.6,0.6-1.2,1.3-1.8,1.9
					c-7.4,7.5-16.4,13.1-25.9,17.5c-2.2,1-4.7-1.8-4.5-3.8c0.2-2.6,0.6-5.1,1-7.6c-0.6,0.6-1.2,1.2-1.7,1.8
					c-7,6.9-15.5,12.1-23.5,17.6c-1.8,1.2-4.6-0.7-4.8-2.7c-0.2-2.1,0.1-4.2,0.6-6.3c-5.6,3.7-12.1,6.6-18.9,5.8
					c-1.4-0.2-3.2-1.8-3.1-3.2c0.1-3,0.9-5.6,2.1-8.1c-0.3,0.1-0.5,0.2-0.7,0.3c-9.2,2.2-14.7-5.1-17.2-12.9
					c-5.4-17-10-35.3-10.7-53.4c-0.1-0.4-0.1-0.9-0.2-1.3C290.2,321.3,289.1,309.2,290.3,297.3z"/>
				<path id="XMLID_167_" class="st5" d="M318,306.3c5.6,10.5,15.8,18.3,26.1,24.1c10.4,5.8,21.9,9.4,33.7,10.6
					c22.2,2.3,48.9-3.3,64-20.9c9.5-11,13.3-25.7,10.7-39.4c1.1,1.7,2.3,3.3,4.1,4.5c1.4,1,4.5,1.2,4.3-1.3
					c-0.6-8.3-2.9-16.7-6.9-24.2c1.1,0.7,2.3,1.3,3.5,1.8c1.4,0.6,3.7,0.3,3.6-1.7c-0.5-8.4-7.3-15.8-12.9-21.6
					c-7-7.3-15.4-12.4-24.7-16.3c-12.7-5.4-27.4-9.4-41.2-7.7c-10.2-3.4-21.4-3.1-31.3,1.5c-11.6,5.4-20.3,15.5-26.8,26.2
					C312.7,260.6,307.1,285.9,318,306.3z"/>
				<path id="XMLID_65_" class="st6" d="M330.3,280.9c1.8,7.6,5.5,14.7,11.2,20.1c6.5,6.1,14.9,9.5,23.6,10.9
					c12.3,2,25.5,0.1,37-4.3c12.2-4.7,23-13.2,28.6-25.2c7.4-15.8,4.6-33.4-4.7-47.7c-5.6-8.7-15-13.3-23.1-19.4
					c-6.9-1.4-13.9-2-20.8-1.1c-9.5-3.2-19.8-3.1-29.2,0.7c-5.7,4.9-10.6,10.9-14.4,17.5C330.4,246.6,326.3,264.6,330.3,280.9z"/>
			</g>
			<g id="XMLID_142_">
				<g id="XMLID_154_">
					<g id="XMLID_160_">
						<circle id="XMLID_64_" class="st7" cx="184" cy="260.2" r="38.4"/>
						<path id="XMLID_161_" class="st5" d="M184,300.2c-22,0-40-17.9-40-40c0-22,17.9-40,40-40c22,0,40,17.9,40,40
							C224,282.3,206,300.2,184,300.2z M184,223.5c-20.3,0-36.8,16.5-36.8,36.8c0,20.3,16.5,36.8,36.8,36.8
							c20.3,0,36.8-16.5,36.8-36.8C220.8,240,204.3,223.5,184,223.5z"/>
					</g>
					<g id="XMLID_155_">
						<circle id="XMLID_61_" class="st8" cx="184" cy="260.2" r="28.7"/>
						<g id="XMLID_156_">
							<circle id="XMLID_60_" class="st9" cx="184" cy="260.2" r="18.5"/>
							<circle id="XMLID_59_" class="st5" cx="172.3" cy="248.5" r="6.7"/>
						</g>
					</g>
				</g>
				<g id="XMLID_143_">
					<g id="XMLID_149_">
						<circle id="XMLID_58_" class="st7" cx="379.1" cy="260.2" r="38.4"/>
						<path id="XMLID_150_" class="st5" d="M379.1,300.2c-22,0-40-17.9-40-40c0-22,17.9-40,40-40c22,0,40,17.9,40,40
							C419.1,282.3,401.2,300.2,379.1,300.2z M379.1,223.5c-20.3,0-36.8,16.5-36.8,36.8c0,20.3,16.5,36.8,36.8,36.8
							c20.3,0,36.8-16.5,36.8-36.8C415.9,240,399.4,223.5,379.1,223.5z"/>
					</g>
					<g id="XMLID_144_">
						<circle id="XMLID_55_" class="st8" cx="379.1" cy="260.2" r="28.7"/>
						<g id="XMLID_145_">
							<circle id="XMLID_54_" class="st9" cx="379.1" cy="260.2" r="18.5"/>
							<circle id="XMLID_53_" class="st5" cx="367.4" cy="248.5" r="6.7"/>
						</g>
					</g>
				</g>
			</g>
			<g id="XMLID_139_">
				<path id="XMLID_52_" class="st6" d="M387.8,216.8c0.7-0.9,1.4-1.8,2.1-2.7c14-18.2,27.5-36.8,42-54.7
					c12.8-15.8,26.5-30.7,41.2-44.7c11.1-10.5,22.7-20.6,35.5-29.1c-18.8,5-37.3,11.1-54.7,19.9c-12.5,6.3-24.4,13.9-35.7,22.2
					c-11,8-22.5,16.4-32,26.2c-7.8,8.1-14.1,17.5-21.2,26.1c1.4-7.8,3.5-15.7,7.3-22.6c2-3.7-2.6-4.2-4.7-2.2
					c-11.7,10.9-19.8,25.7-25.8,41c0.3-6.8,1.2-13.7,2.6-20.3c0.5-2.5-1.2-3-2.9-2.5c-2.8,4.6-5.3,9.5-7.4,14.6
					c-8.4,20.1-12.1,42.5-23.5,61.3c-5,8.2-11.4,16.1-19.6,21.3c-5.9,3.7-12.5,5.3-19,4.7c34.4,15.3,73-15.6,96.7-38.3
					C375.3,230.6,381.6,223.8,387.8,216.8z"/>
				<path id="XMLID_51_" class="st6" d="M175.3,216.8c-0.7-0.9-1.4-1.8-2.1-2.7c-14-18.2-27.5-36.8-42-54.7
					c-12.8-15.8-26.5-30.7-41.2-44.7c-11.1-10.5-22.7-20.6-35.5-29.1c18.8,5,37.3,11.1,54.7,19.9c12.5,6.3,24.4,13.9,35.7,22.2
					c11,8,22.5,16.4,32,26.2c7.8,8.1,14.1,17.5,21.2,26.1c-1.4-7.8-3.5-15.7-7.3-22.6c-2-3.7,2.6-4.2,4.7-2.2
					c11.7,10.9,19.8,25.7,25.8,41c-0.3-6.8-1.2-13.7-2.6-20.3c-0.5-2.5,1.2-3,2.9-2.5c2.8,4.6,5.3,9.5,7.4,14.6
					c8.4,20.1,12.1,42.5,23.5,61.3c5,8.2,11.4,16.1,19.6,21.3c5.9,3.7,12.5,5.3,19,4.7c-34.4,15.3-73-15.6-96.7-38.3
					C187.9,230.6,181.5,223.8,175.3,216.8z"/>
			</g>
			<g id="XMLID_137_">
				<path id="XMLID_50_" class="st10" d="M311.2,326.6c-1.7-10.1-12.3-14.5-21.7-16.4c-2.8-0.6-5.5-0.9-7.9-1.1
					c-2.4,0.2-5.1,0.6-7.9,1.1c-9.5,1.9-20,6.3-21.7,16.4c-1.9,11.3,10.6,42.6,21.7,66.1c2.8,5.9,5.5,11.4,7.9,15.9
					c2.4-4.5,5.1-9.9,7.9-15.9C300.6,369.2,313.1,337.9,311.2,326.6z"/>
			</g>
			<g id="XMLID_135_">
				<path id="XMLID_49_" class="st11" d="M303.8,334.1c-1.3-6.1-9.2-8.8-16.3-10c-2.1-0.3-4.2-0.6-5.9-0.7c-1.8,0.1-3.8,0.3-5.9,0.7
					c-7.1,1.2-15,3.8-16.3,10c-1.4,6.8,8,25.8,16.3,40c2.1,3.6,4.2,6.9,5.9,9.6c1.8-2.7,3.8-6,5.9-9.6
					C295.9,359.9,305.3,340.9,303.8,334.1z"/>
			</g>
		</g>
	</g>
	<g id="XMLID_123_">
		<path id="XMLID_48_" class="st12" d="M257.7,210.6c-0.2-1.8-0.7-3.6-1.3-5.4c-1.1-3.4-2.7-7.3-5.7-9.5c-1.2-0.9-3-0.4-4.2,0.2
			c-1.3,0.8-2.5,2.1-2.6,3.6c-0.2,1.6,0.1,3.3,0.5,5c0,0.1,0,0.2,0,0.3c0.2,1.9,0.4,3.8,1,5.7c1.1,3.5,3,7.3,6.7,8.6
			c2.1,0.7,4.6-1.1,5.3-3C258.1,214.5,257.9,212.4,257.7,210.6z"/>
		<path id="XMLID_47_" class="st12" d="M244.2,176.7c-0.1-0.2-0.1-0.4-0.2-0.6c-0.2-0.4-0.4-0.8-0.6-1.2c-0.4-0.6-0.9-1.1-1.4-1.6
			c-0.5-0.3-1-0.5-1.6-0.5c-0.5,0-1,0.1-1.4,0.2c-0.5,0.1-1,0.4-1.4,0.7c-0.6,0.4-1.1,0.9-1.4,1.5c-0.1,0.1-0.1,0.2-0.2,0.3
			c-0.2,0.3-0.4,0.7-0.5,1c-0.1,0.2-0.1,0.4-0.1,0.5c0,0.1-0.1,0.3-0.1,0.5c0,0.1,0,0.7,0.1,0.9c0,0,0,0,0,0.1c0,0,0.3,0.7,0.4,0.8
			c0,0,0,0,0,0c0.1,0.1,0.5,0.5,0.6,0.6c0,0,0,0,0,0c0.2,0.1,0.3,0.1,0.5,0.2c0.3,0.9,0.7,1.8,1.2,2.6c0.5,0.8,1.7,0.9,2.6,0.8
			c1.1-0.2,2.2-1,2.8-1.9c0.1-0.1,0.1-0.2,0.2-0.3c-0.1,0.1-0.1,0.2-0.2,0.3c0.2-0.2,0.3-0.4,0.4-0.7c0.1-0.2,0.2-0.3,0.2-0.5
			c0-0.1,0.1-0.2,0.1-0.3c0.1-0.4,0.2-0.9,0.2-1.3c0-0.2,0-0.4,0-0.6C244.3,177.6,244.3,177.1,244.2,176.7z"/>
		<path id="XMLID_46_" class="st12" d="M273.4,194.8c-0.2-0.4-0.9-0.8-1.4-0.9c-0.8-0.2-1.6-0.1-2.4,0.1c-1.4,0.5-2.9,1.6-3.4,3.1
			c-0.7,2.2-0.8,4.5-0.6,6.8c0.1,0.9,0.3,1.8,0.9,2.6c0,0,0.1,0.1,0.1,0.1c0.3,1.3,0.6,2.7,1,4c0.4,1.4,1.9,1.9,3.2,1.6
			c1.6-0.4,2.9-1.5,3.5-3C276.3,204.5,275.7,199.2,273.4,194.8z"/>
		<path id="XMLID_45_" class="st12" d="M269.9,165.9c-0.3-2-0.9-3.9-1.7-5.8c-0.3-0.7-0.6-1.2-1.3-1.5c-0.7-0.3-1.5-0.4-2.3-0.2
			c-1.7,0.4-3.4,1.7-4,3.4c-1.1,3.1-0.7,7,1.4,9.7c0,0,0,0,0,0c0.1,1,0.3,1.9,0.5,2.9c0.1,0.4,0.5,0.9,0.8,1.2
			c0.5,0.4,1.2,0.4,1.9,0.4c1.4-0.1,2.6-1,3.5-2.2c0.8-1.1,1.1-2.7,1.3-4.1C270.2,168.3,270.1,167.1,269.9,165.9z"/>
		<path id="XMLID_44_" class="st12" d="M247.1,145.9c-1.3-3.6-3.1-7-6-9.5c-1-0.9-2.8-0.5-3.8-0.1c-1.2,0.5-2.7,1.8-3.1,3.2
			c-0.9,3.8-0.2,7.9,1.4,11.6c0.1,0.5,0.3,0.9,0.4,1.4c1.2,3.3,3,6.4,6.4,7.8c2,0.8,5.1-1.2,5.6-3.2
			C248.9,153.3,248.3,149.5,247.1,145.9z"/>
		<path id="XMLID_43_" class="st12" d="M223.9,147.5c-0.3-0.8-0.7-1.6-1.2-2.4c-0.4-0.5-0.7-1.1-1.1-1.6c-0.3-0.5-0.7-0.9-1-1.5
			c0,0,0,0,0,0.1c-0.3-0.6-0.6-1-1.2-1.3c-0.8-0.4-1.6-0.4-2.4-0.2c-0.2,0-0.3,0.1-0.5,0.1c-0.1-0.1-0.2-0.1-0.3-0.2
			c-0.7-0.2-1.6,0-2.2,0.5c-0.8,0.6-1.2,1.3-1.4,2.2c0,0.2,0,0.4,0,0.6c0,0.5,0,1.1,0.1,1.6c0,0.5,0.1,0.9,0.4,1.3c0,0,0,0,0,0
			c0.3,0.7,0.6,1.5,1,2.2c0.5,0.9,1.1,1.7,1.7,2.5c0.7,0.8,1.5,1.6,2.5,2.1c0.5,0.2,1,0.4,1.5,0.4c0.8,0,1.6-0.3,2.3-0.6
			c0.6-0.3,1.1-0.8,1.5-1.3c0.4-0.5,0.9-1.3,0.8-2C224.4,149.2,224.3,148.3,223.9,147.5z"/>
		<path id="XMLID_42_" class="st12" d="M197.2,140.3c-0.2-0.2-0.5-0.5-0.7-0.7c0,0-0.1-0.1-0.1-0.1c0,0,0,0-0.1,0
			c-0.1-0.1-0.6-0.3-0.7-0.3c-0.2-0.1-0.5-0.1-0.7-0.1c-0.4-0.1-0.8-0.2-1.1-0.3c-0.2-0.1-0.4-0.1-0.6-0.2c-0.2,0-0.3,0-0.4-0.1
			c-0.3,0-0.5,0.1-0.8,0.1c-0.3,0.1-0.5,0.2-0.8,0.3l-0.8,0.4c-0.4,0.2-0.7,0.5-0.9,0.9c-0.2,0.2-0.3,0.4-0.4,0.7
			c-0.1,0.2-0.2,0.4-0.2,0.7c-0.1,0.2-0.1,0.5,0,0.7c0,0.3,0.1,0.6,0.3,0.9c0.1,0.2,0.3,0.3,0.5,0.5c0.2,0.2,0.3,0.3,0.5,0.5
			c0.2,0.1,0.4,0.3,0.6,0.4c0.2,0.1,0.4,0.2,0.5,0.4c0,0,0,0,0.1,0c0.1,0.1,0.6,0.3,0.7,0.3c0.1,0,0.1,0,0.2,0
			c0.1,0,0.3,0.1,0.4,0.1c0.3,0,0.5,0.1,0.8,0.1c0.4,0,0.9-0.1,1.3-0.2c0.3-0.1,0.6-0.2,0.9-0.4c0.4-0.2,0.8-0.5,1.2-0.9
			c0.2-0.2,0.4-0.5,0.6-0.7c0.1-0.3,0.2-0.5,0.4-0.8c0.2-0.4,0.2-0.7,0.1-1.1C197.5,140.9,197.4,140.6,197.2,140.3z"/>
		<path id="XMLID_41_" class="st12" d="M262.9,135.6c-0.1-1.2-0.3-2.3-0.6-3.5c-0.6-2.1-1.5-4.3-2.9-6c-1-1.1-2.4-1.3-3.8-0.8
			c-1.4,0.5-3,1.7-3.5,3.2c-0.8,2.9-0.1,6.2,1.3,8.8c0.2,0.4,0.5,0.9,0.8,1.2c0.3,0.4,0.6,0.6,1,0.9c0.3,0.7,0.7,1.5,1.3,2
			c0.4,0.4,0.7,0.7,1.2,0.8c0.7,0.2,1.4,0.1,2-0.1c1.2-0.4,2.6-1.4,2.9-2.7c0.2-0.7,0.4-1.4,0.4-2.1
			C263,136.8,262.9,136.2,262.9,135.6z"/>
		<path id="XMLID_40_" class="st12" d="M228.3,124.7c-3.1,0-5.9,5.5-1.9,5.5C229.5,130.1,232.4,124.7,228.3,124.7z"/>
	</g>
	<g id="XMLID_113_">
		<path id="XMLID_39_" class="st12" d="M301.2,216.2c0.7,1.9,3.2,3.7,5.3,3c3.7-1.2,5.6-5.1,6.7-8.6c0.6-1.9,0.8-3.7,1-5.7
			c0-0.1,0-0.2,0-0.3c0.4-1.6,0.7-3.4,0.5-5c-0.2-1.6-1.3-2.9-2.6-3.6c-1.2-0.7-3-1.1-4.2-0.2c-3,2.2-4.6,6.1-5.7,9.5
			c-0.6,1.7-1,3.5-1.3,5.4C300.7,212.4,300.6,214.5,301.2,216.2z"/>
		<path id="XMLID_38_" class="st12" d="M314.3,178c0,0.2,0,0.4,0,0.6c0,0.5,0.1,0.9,0.2,1.3c0,0.1,0.1,0.2,0.1,0.3
			c0.1,0.2,0.1,0.3,0.2,0.5c0.1,0.3,0.2,0.5,0.4,0.7c-0.1-0.1-0.1-0.2-0.2-0.3c0.1,0.1,0.1,0.2,0.2,0.3c0.5,1,1.7,1.7,2.8,1.9
			c0.9,0.2,2,0.1,2.6-0.8c0.5-0.8,0.9-1.7,1.2-2.6c0.2-0.1,0.3-0.1,0.5-0.2c0,0,0,0,0,0c0.1,0,0.6-0.5,0.6-0.6c0,0,0,0,0,0
			c0,0,0.3-0.7,0.4-0.8c0,0,0,0,0-0.1c0-0.1,0.1-0.7,0.1-0.9c0-0.2-0.1-0.4-0.1-0.5c0-0.1-0.1-0.3-0.1-0.5c-0.1-0.3-0.3-0.7-0.5-1
			c0-0.1-0.1-0.2-0.2-0.3c-0.4-0.6-0.9-1.1-1.4-1.5c-0.4-0.3-0.9-0.6-1.4-0.7c-0.5-0.2-0.9-0.3-1.4-0.2c-0.6,0-1.1,0.2-1.6,0.5
			c-0.5,0.5-1,1-1.4,1.6c-0.2,0.4-0.4,0.8-0.6,1.2c-0.1,0.2-0.2,0.4-0.2,0.6C314.4,177.1,314.3,177.6,314.3,178z"/>
		<path id="XMLID_37_" class="st12" d="M285.2,194.8c0.2-0.4,0.9-0.8,1.4-0.9c0.8-0.2,1.6-0.1,2.4,0.1c1.4,0.5,2.9,1.6,3.4,3.1
			c0.7,2.2,0.8,4.5,0.6,6.8c-0.1,0.9-0.3,1.8-0.9,2.6c0,0-0.1,0.1-0.1,0.1c-0.3,1.3-0.6,2.7-1,4c-0.4,1.4-1.9,1.9-3.2,1.6
			c-1.6-0.4-2.9-1.5-3.5-3C282.3,204.5,283,199.2,285.2,194.8z"/>
		<path id="XMLID_36_" class="st12" d="M288.7,165.9c0.3-2,0.9-3.9,1.7-5.8c0.3-0.7,0.6-1.2,1.3-1.5c0.7-0.3,1.5-0.4,2.3-0.2
			c1.7,0.4,3.4,1.7,4,3.4c1.1,3.1,0.7,7-1.4,9.7c0,0,0,0,0,0c-0.1,1-0.3,1.9-0.5,2.9c-0.1,0.4-0.5,0.9-0.8,1.2
			c-0.5,0.4-1.2,0.4-1.9,0.4c-1.4-0.1-2.6-1-3.5-2.2c-0.8-1.1-1.1-2.7-1.3-4.1C288.5,168.3,288.6,167.1,288.7,165.9z"/>
		<path id="XMLID_35_" class="st12" d="M310.6,157.1c0.5,2,3.6,4,5.6,3.2c3.4-1.4,5.2-4.5,6.4-7.8c0.2-0.4,0.3-0.9,0.4-1.4
			c1.6-3.7,2.3-7.8,1.4-11.6c-0.3-1.4-1.8-2.6-3.1-3.2c-1.1-0.5-2.9-0.8-3.8,0.1c-2.9,2.5-4.7,5.9-6,9.5
			C310.3,149.5,309.8,153.3,310.6,157.1z"/>
		<path id="XMLID_34_" class="st12" d="M334.7,147.5c0.3-0.8,0.7-1.6,1.2-2.4c0.4-0.5,0.7-1.1,1.1-1.6c0.3-0.5,0.7-0.9,1-1.5
			c0,0,0,0,0,0.1c0.3-0.6,0.6-1,1.2-1.3c0.8-0.4,1.6-0.4,2.4-0.2c0.2,0,0.3,0.1,0.5,0.1c0.1-0.1,0.2-0.1,0.3-0.2
			c0.7-0.2,1.6,0,2.2,0.5c0.8,0.6,1.2,1.3,1.4,2.2c0,0.2,0,0.4,0,0.6c0,0.5,0,1.1-0.1,1.6c0,0.5-0.1,0.9-0.4,1.3c0,0,0,0,0,0
			c-0.3,0.7-0.6,1.5-1,2.2c-0.5,0.9-1.1,1.7-1.7,2.5c-0.7,0.8-1.5,1.6-2.5,2.1c-0.5,0.2-1,0.4-1.5,0.4c-0.8,0-1.6-0.3-2.3-0.6
			c-0.6-0.3-1.1-0.8-1.5-1.3c-0.4-0.5-0.9-1.3-0.9-2C334.3,149.2,334.4,148.3,334.7,147.5z"/>
		<path id="XMLID_33_" class="st12" d="M361.4,140.3c0.2-0.2,0.5-0.5,0.7-0.7c0,0,0.1-0.1,0.1-0.1c0,0,0,0,0.1,0
			c0.1-0.1,0.6-0.3,0.7-0.3c0.2-0.1,0.5-0.1,0.7-0.1c0.4-0.1,0.8-0.2,1.1-0.3c0.2-0.1,0.4-0.1,0.6-0.2c0.2,0,0.3,0,0.4-0.1
			c0.3,0,0.5,0.1,0.8,0.1c0.3,0.1,0.5,0.2,0.8,0.3l0.8,0.4c0.4,0.2,0.7,0.5,0.9,0.9c0.2,0.2,0.3,0.4,0.4,0.7
			c0.1,0.2,0.2,0.4,0.2,0.7c0.1,0.2,0.1,0.5,0,0.7c0,0.3-0.1,0.6-0.3,0.9c-0.1,0.2-0.3,0.3-0.5,0.5c-0.2,0.2-0.3,0.3-0.5,0.5
			c-0.2,0.1-0.4,0.3-0.6,0.4c-0.2,0.1-0.4,0.2-0.5,0.4c0,0,0,0-0.1,0c-0.1,0.1-0.6,0.3-0.7,0.3c-0.1,0-0.1,0-0.2,0
			c-0.1,0-0.3,0.1-0.4,0.1c-0.3,0-0.5,0.1-0.8,0.1c-0.4,0-0.9-0.1-1.3-0.2c-0.3-0.1-0.6-0.2-0.9-0.4c-0.4-0.2-0.8-0.5-1.2-0.9
			c-0.2-0.2-0.4-0.5-0.6-0.7c-0.1-0.3-0.2-0.5-0.4-0.8c-0.2-0.4-0.2-0.7-0.1-1.1C361.1,140.9,361.2,140.6,361.4,140.3z"/>
		<path id="XMLID_32_" class="st12" d="M295.8,135.6c0.1-1.2,0.3-2.3,0.6-3.5c0.6-2.1,1.5-4.3,3-6c1-1.1,2.4-1.3,3.8-0.8
			c1.4,0.5,3,1.7,3.5,3.2c0.8,2.9,0.1,6.2-1.3,8.8c-0.2,0.4-0.5,0.9-0.8,1.2c-0.3,0.4-0.6,0.6-1,0.9c-0.3,0.7-0.7,1.5-1.3,2
			c-0.4,0.4-0.7,0.7-1.2,0.8c-0.7,0.2-1.4,0.1-2-0.1c-1.2-0.4-2.6-1.4-2.9-2.7c-0.2-0.7-0.4-1.4-0.4-2.1
			C295.7,136.8,295.7,136.2,295.8,135.6z"/>
		<path id="XMLID_31_" class="st12" d="M330.3,124.7c3.1,0,5.9,5.5,1.9,5.5C329.1,130.1,326.3,124.7,330.3,124.7z"/>
	</g>
	<path id="XMLID_30_" class="st12" d="M284.5,138c-0.5-1.4-1.2-3.2-2.6-3.9c-2.2-1.2-4.9,0.4-5.8,2.6c-1,2.7-1.4,5.7-1.4,8.6
		c0,1.6,0.1,3.3,0.4,4.8c0,0.1,0.1,0.3,0.1,0.4c0.2,2,0.5,4,1.2,5.8c0.6,1.6,2.4,1.8,3.8,1.2c3.6-1.6,4.7-5.6,5-9.2
		C285.7,144.9,285.6,141.2,284.5,138z"/>
	<path id="XMLID_29_" class="st12" d="M283.1,174.5c0-0.1,0-0.3-0.1-0.4c-0.1-0.3-0.3-0.7-0.5-1c-0.2-0.3-0.5-0.5-0.8-0.6
		c-0.3-0.2-0.7-0.3-1.1-0.3c-0.3,0-0.5,0.1-0.8,0.1c-0.4,0.1-0.9,0.2-1.2,0.5c-0.3,0.1-0.5,0.3-0.8,0.5c-0.4,0.3-0.7,0.6-0.9,1
		c-0.1,0.2-0.2,0.5-0.3,0.7c-0.2,0.5-0.2,0.9-0.1,1.4c0,0.1,0,0.2,0.1,0.4c0,0.1,0.1,0.2,0.1,0.4c0.1,0.2,0.1,0.4,0.2,0.7
		c0.1,0.5,0.2,0.9,0.2,1.4c0-0.2,0-0.4-0.1-0.6c0,0.5,0,0.9,0.3,1.3c0.2,0.3,0.3,0.4,0.5,0.5c0.4,0.2,0.8,0.3,1.2,0.3
		c0.4,0,0.7,0,1-0.2c0.4-0.1,0.7-0.3,1.1-0.5c0.7-0.5,1.4-1.2,1.6-2c0.1-0.4,0.2-0.7,0.2-1.1c0.1-0.3,0.1-0.6,0.1-0.9
		C283.2,175.5,283.1,175,283.1,174.5z"/>
	<path id="XMLID_28_" class="st12" d="M272,121.6c0-0.3,0-0.7-0.2-0.9c-0.1-0.3-0.3-0.6-0.6-0.7c-0.2-0.1-0.4-0.2-0.6-0.3
		c-0.5-0.1-1-0.1-1.4,0c-0.3,0.1-0.5,0.2-0.8,0.2c-0.5,0.2-1,0.6-1.4,1c-0.5,0.6-1,1.3-1,2.1c-0.1,0.8,0.4,1.5,1.1,1.8l0,0
		c0,0,0,0,0.1,0c0,0,0,0,0,0c0.1,0.1,0.2,0.1,0.3,0.1l0.1,0c0.2,0.1,0.5,0.2,0.8,0.2c0.2,0,0.5,0,0.7-0.1c0.2-0.1,0.5-0.2,0.7-0.3
		c0.1-0.1,0.1-0.2,0.2-0.2c0.1-0.1,0.2-0.2,0.3-0.3c0,0,0.1,0,0.1-0.1c0.4-0.3,0.9-0.7,1.2-1.2c0,0,0-0.1,0-0.1
		c-0.2,0.2-0.3,0.4-0.5,0.6c0.3-0.3,0.5-0.6,0.6-1C271.9,122.3,272,121.9,272,121.6z"/>
	<path id="XMLID_27_" class="st12" d="M292.4,121C292.4,121,292.4,121,292.4,121c0,0,0,0.1,0,0.1C292.4,121,292.4,121,292.4,121
		c-0.1-0.3-0.1-0.4-0.2-0.6c0.1-0.2,0.1-0.5,0-0.7c-0.1-0.3-0.2-0.5-0.4-0.6c-0.2-0.2-0.4-0.3-0.6-0.4c-0.2,0-0.3-0.1-0.5-0.1
		c-0.4,0-0.8,0.1-1.2,0.2c-0.2,0.1-0.4,0.2-0.6,0.3c-0.4,0.2-0.6,0.6-0.9,0.9c0,0.1-0.1,0.1-0.1,0.2c-0.1,0-0.1,0.1-0.2,0.1
		c-0.1,0.1-0.2,0.2-0.2,0.2c-0.2,0.2-0.4,0.5-0.5,0.7c0,0.1-0.1,0.1-0.1,0.2c0,0.1-0.1,0.1-0.1,0.2c0,0,0,0.1,0,0.1
		c-0.1,0.2-0.2,0.5-0.3,0.7c-0.1,0.3-0.2,0.7-0.1,1c0,0.4,0.1,0.7,0.4,1.1c0.1,0.1,0.4,0.4,0.5,0.5c0.2,0.1,0.4,0.2,0.6,0.3
		c0.2,0.1,0.5,0.1,0.7,0.1c0.3,0,0.5-0.1,0.8-0.1c0.3-0.1,0.5-0.1,0.8-0.3c0.1,0,0.7-0.4,0.8-0.4c0.3-0.2,0.5-0.4,0.7-0.6
		c0.1-0.1,0.2-0.2,0.3-0.4c0.1-0.1,0.2-0.2,0.3-0.3c0.3-0.4,0.4-0.9,0.5-1.4C292.6,121.5,292.5,121.2,292.4,121z"/>
	<g id="XMLID_99_">
		<path id="XMLID_26_" class="st12" d="M64.7,310.2c-0.6-1.1-2.2-1.2-3.2-1c-1.5,0.3-2.6,1.2-3.5,2.4c-0.1,0.1-0.1,0.3-0.2,0.4
			c-2.8,4.1-3.9,9.8-4.3,14.5c-0.3,2.8-0.3,5.8,0.3,8.6c0.5,2.1,1.5,4.6,3.6,5.6c1.6,0.8,3.8,0.4,5-1.1c3.4-4.2,4.5-9.6,4.8-14.8
			C67.5,320,67.2,314.5,64.7,310.2z"/>
		<path id="XMLID_25_" class="st12" d="M71.3,346.5c-0.2-0.7-0.7-1.3-1.5-1.5c-0.7-0.2-1.4-0.1-2.1,0.1c-1.5,0.5-3.1,1.9-3.1,3.5
			c0,0.7,0,1.4,0.2,2c-0.1,0.6-0.2,1.2-0.2,1.8c0,1.5,0.3,3,0.7,4.5c0.2,0.9,1.1,1.4,2,1.4c1.1,0,2.1-0.6,2.9-1.3
			c1.6-1.4,2.3-3.5,2.2-5.5C72.3,349.8,71.9,348.1,71.3,346.5z"/>
		<g id="XMLID_104_">
			<path id="XMLID_24_" class="st12" d="M83.2,370.6c-0.1-0.6-0.5-1.1-0.9-1.4c-0.4-0.3-0.9-0.3-1.4-0.4c0-0.3-0.1-0.6-0.1-0.8
				c0-0.1,0-0.2,0-0.3c0-0.5-0.1-0.9-0.6-1.2c-0.4-0.2-0.8-0.3-1.2-0.2c-1,0.1-2.1,0.8-2.4,1.9c-0.4,1.1-0.5,2.3-0.5,3.4
				c0,0.6,0.1,1.3,0.3,1.9c0.2,0.6,0.4,1.1,0.7,1.6c0,0,0,0,0,0c0,0,0,0,0,0c0,0,0,0.1,0,0.1c0.1,0.1,0.1,0.3,0.2,0.4
				c0.1,0.1,0.3,0.3,0.4,0.4c0.3,0.2,0.6,0.3,0.9,0.3c0.6,0.1,1.2,0,1.8-0.3c1.2-0.6,2.1-1.5,2.2-2.8c0-0.1,0-0.2,0-0.3
				c0,0,0.1-0.1,0.1-0.1C83.2,372.1,83.4,371.3,83.2,370.6z"/>
			<path id="XMLID_23_" class="st12" d="M77.2,375.2C77.2,375.2,77.2,375.1,77.2,375.2c-0.1-0.2-0.2-0.4-0.2-0.5
				C77.1,374.8,77.2,375,77.2,375.2z"/>
		</g>
		<path id="XMLID_22_" class="st12" d="M106.6,388.6c-0.9-2.6-1.9-5.1-3.1-7.5c-0.7-1.4-1.7-3.4-3.2-4.2c-2.4-1.3-5.8,0.4-6.6,2.9
			c-0.4,1.3-0.5,2.6-0.6,3.9c0,0.1,0,0.1,0,0.2c-0.4,2.2-0.1,4.5,0.3,6.8c0.7,4.4,2.2,9.3,4.7,13c1,1.5,2.4,2.9,4.4,2.9
			c2.1,0,4.1-1.3,5.2-3c0.5-0.6,0.8-1.2,0.9-2c0.1-0.3,0.1-0.6,0-0.9C109.2,396.7,107.8,392.3,106.6,388.6z"/>
		<path id="XMLID_21_" class="st12" d="M126.8,406.8c-0.1-0.1-0.1-0.3-0.2-0.4c-0.1-0.2-0.2-0.4-0.3-0.6c0-0.1-0.1-0.1-0.2-0.2
			c-0.1-0.1-0.2-0.2-0.3-0.4c0-0.1-0.1-0.2-0.1-0.3c-0.1-0.1-0.1-0.1-0.2-0.2l-0.1,0c-0.1-0.2-0.2-0.4-0.4-0.5
			c-0.2-0.1-0.4-0.2-0.6-0.3c-0.4-0.1-0.8-0.1-1.2-0.1c-0.3,0-0.6,0.1-0.8,0.2c-0.5,0.1-0.9,0.3-1.2,0.6c-0.2,0.2-0.5,0.4-0.7,0.6
			c-0.4,0.4-0.7,0.9-0.9,1.4c0,0.1-0.1,0.2-0.1,0.3c0,0.2-0.1,0.3-0.1,0.5c-0.1,0.5-0.1,0.5,0,1.2c0,0.1,0.1,0.3,0.1,0.4
			c0.1,0.3,0.3,0.7,0.5,1c0,0.1,0.1,0.1,0.1,0.2c0.1,0.1,0.2,0.2,0.3,0.3c-0.1-0.1-0.1-0.1-0.2-0.2c0.1,0.1,0.2,0.2,0.2,0.2
			c0.1,0.1,0.2,0.2,0.3,0.3c0.2,0.2,0.5,0.4,0.8,0.5c0,0,0,0,0,0c0,0,0,0,0.1,0c0,0,0.1,0.1,0.1,0.1c0,0,0.1,0,0.1,0
			c0.2,0.1,0.4,0.2,0.6,0.2c0.2,0.1,0.4,0.1,0.6,0c0.4,0,0.7-0.1,1-0.3c0.3-0.1,0.5-0.3,0.7-0.5c0.1-0.1,0.2-0.1,0.3-0.2
			c0.2-0.2,0.5-0.4,0.7-0.6c0,0,0,0,0.1-0.1c0.2-0.2,0.4-0.5,0.6-0.7c0.1-0.1,0.1-0.3,0.2-0.4c0.2-0.2,0.2-0.5,0.3-0.8
			c0.1-0.3,0.1-0.5,0-0.8C126.8,407,126.9,407,126.8,406.8z"/>
		<path id="XMLID_20_" class="st12" d="M162.2,424.6c-0.2,0-0.5,0-0.7,0c-0.6-1.8-1.4-3.6-2.3-5.1c-0.8-1.3-1.7-2.6-2.7-3.7
			c-1-1.2-2.2-2.3-3.6-3.1c-1.8-1-3.9-1.5-6-1c-2,0.5-4.8,2.7-4.1,5.1c0.4,1.4,1.3,2.8,2.1,4c0,0,0,0,0,0c0.2,0.7,0.5,1.5,0.9,2.2
			c1.4,3,3.7,5.8,6.5,7.7c1.4,1,3.2,1.8,5,1.7c0,0,0.1,0,0.1,0c1.2,0.2,2.4,0.1,3.4-0.4c1.8-0.8,3.8-2.6,3.7-4.8
			C164.3,425.8,163.6,424.8,162.2,424.6z"/>
		<path id="XMLID_19_" class="st12" d="M205.1,441.6c-0.1-0.3-0.2-0.5-0.3-0.7c-0.2-0.2-0.4-0.3-0.5-0.5c-0.2-0.1-0.5-0.2-0.7-0.3
			c-0.7-0.2-1.4-0.1-2.1,0.1c-0.3-0.2-0.6-0.4-0.9-0.6c-0.1-0.1-0.3-0.3-0.4-0.4c-0.1-0.1-0.2-0.3-0.3-0.4c-0.2-0.3-0.4-0.4-0.6-0.6
			c0,0,0,0,0,0c0.1,0.1,0.2,0.2,0.3,0.3c-0.1-0.1-0.2-0.2-0.3-0.3l0,0c0,0,0,0,0,0c-0.1-0.1-0.2-0.2-0.3-0.3c0,0,0,0,0,0
			c-0.1,0-0.1-0.1-0.2-0.1c-0.4-0.2-0.8-0.2-1.3-0.1c-1,0.2-1.8,0.9-2.2,1.8c-0.1,0.3-0.1,0.6-0.2,0.9c-0.1,0.3-0.1,0.6,0,0.9
			c0,0.3,0.1,0.5,0.2,0.8c0.2,0.7,0.5,1.4,0.9,2c0.4,0.6,0.9,1.1,1.4,1.6c0.5,0.5,1.2,0.8,1.9,1.1c0.3,0,0.5,0.1,0.8,0.1
			c0.5,0,0.9-0.1,1.3-0.2c0.3-0.1,0.6-0.2,0.9-0.4c0.5-0.2,0.9-0.5,1.2-0.9c0.1-0.1,0.1-0.1,0.2-0.2c0.2-0.2,0.5-0.6,0.6-0.8
			c0.2-0.3,0.4-0.6,0.5-1C205.1,442.7,205.2,442.2,205.1,441.6z"/>
	</g>
	<g id="XMLID_89_">
		<path id="XMLID_18_" class="st12" d="M493.2,310.2c0.6-1.1,2.2-1.2,3.2-1c1.5,0.3,2.6,1.2,3.5,2.4c0.1,0.1,0.1,0.3,0.2,0.4
			c2.8,4.1,3.9,9.8,4.3,14.5c0.3,2.8,0.3,5.8-0.3,8.6c-0.5,2.1-1.5,4.6-3.6,5.6c-1.6,0.8-3.8,0.4-5-1.1c-3.4-4.2-4.5-9.6-4.8-14.8
			C490.5,320,490.7,314.5,493.2,310.2z"/>
		<path id="XMLID_17_" class="st12" d="M486.6,346.5c0.2-0.7,0.7-1.3,1.5-1.5c0.7-0.2,1.4-0.1,2.1,0.1c1.5,0.5,3.1,1.9,3.1,3.5
			c0,0.7,0,1.4-0.2,2c0.1,0.6,0.2,1.2,0.2,1.8c0,1.5-0.3,3-0.7,4.5c-0.2,0.9-1.1,1.4-2,1.4c-1.1,0-2.1-0.6-2.9-1.3
			c-1.6-1.4-2.3-3.5-2.2-5.5C485.7,349.8,486.1,348.1,486.6,346.5z"/>
		<g id="XMLID_94_">
			<path id="XMLID_16_" class="st12" d="M474.7,370.6c0.1-0.6,0.5-1.1,0.9-1.4c0.4-0.3,0.9-0.3,1.4-0.4c0-0.3,0.1-0.6,0.1-0.8
				c0-0.1,0-0.2,0-0.3c0-0.5,0.1-0.9,0.6-1.2c0.4-0.2,0.8-0.3,1.2-0.2c1,0.1,2.1,0.8,2.4,1.9c0.4,1.1,0.5,2.3,0.5,3.4
				c0,0.6-0.1,1.3-0.3,1.9c-0.2,0.6-0.4,1.1-0.7,1.6c0,0,0,0,0,0c0,0,0,0,0,0c0,0,0,0.1,0,0.1c-0.1,0.1-0.1,0.3-0.2,0.4
				c-0.1,0.1-0.3,0.3-0.4,0.4c-0.3,0.2-0.6,0.3-0.9,0.3c-0.6,0.1-1.2,0-1.8-0.3c-1.2-0.6-2.1-1.5-2.2-2.8c0-0.1,0-0.2,0-0.3
				c0,0-0.1-0.1-0.1-0.1C474.7,372.1,474.6,371.3,474.7,370.6z"/>
			<path id="XMLID_15_" class="st12" d="M480.7,375.2C480.7,375.2,480.7,375.1,480.7,375.2c0.1-0.2,0.2-0.4,0.2-0.5
				C480.9,374.8,480.8,375,480.7,375.2z"/>
		</g>
		<path id="XMLID_14_" class="st12" d="M451.4,388.6c0.9-2.6,1.9-5.1,3.1-7.5c0.7-1.4,1.7-3.4,3.2-4.2c2.4-1.3,5.8,0.4,6.6,2.9
			c0.4,1.3,0.5,2.6,0.6,3.9c0,0.1,0,0.1,0,0.2c0.4,2.2,0.1,4.5-0.3,6.8c-0.7,4.4-2.2,9.3-4.7,13c-1,1.5-2.4,2.9-4.4,2.9
			c-2.1,0-4.1-1.3-5.2-3c-0.5-0.6-0.8-1.2-0.9-2c-0.1-0.3-0.1-0.6,0-0.9C448.7,396.7,450.1,392.3,451.4,388.6z"/>
		<path id="XMLID_13_" class="st12" d="M431.2,406.8c0.1-0.1,0.1-0.3,0.2-0.4c0.1-0.2,0.2-0.4,0.3-0.6c0-0.1,0.1-0.1,0.2-0.2
			c0.1-0.1,0.2-0.2,0.3-0.4c0-0.1,0.1-0.2,0.1-0.3c0.1-0.1,0.1-0.1,0.2-0.2l0.1,0c0.1-0.2,0.2-0.4,0.4-0.5c0.2-0.1,0.4-0.2,0.6-0.3
			c0.4-0.1,0.8-0.1,1.2-0.1c0.3,0,0.6,0.1,0.8,0.2c0.5,0.1,0.9,0.3,1.2,0.6c0.2,0.2,0.5,0.4,0.7,0.6c0.4,0.4,0.7,0.9,0.9,1.4
			c0,0.1,0.1,0.2,0.1,0.3c0,0.2,0.1,0.3,0.1,0.5c0.1,0.5,0.1,0.5,0,1.2c0,0.1-0.1,0.3-0.1,0.4c-0.1,0.3-0.3,0.7-0.5,1
			c0,0.1-0.1,0.1-0.1,0.2c-0.1,0.1-0.2,0.2-0.3,0.3c0.1-0.1,0.1-0.1,0.2-0.2c-0.1,0.1-0.2,0.2-0.2,0.2c-0.1,0.1-0.2,0.2-0.3,0.3
			c-0.2,0.2-0.5,0.4-0.8,0.5c0,0,0,0,0,0c0,0,0,0-0.1,0c0,0-0.1,0.1-0.1,0.1c0,0-0.1,0-0.1,0c-0.2,0.1-0.4,0.2-0.6,0.2
			c-0.2,0.1-0.4,0.1-0.6,0c-0.4,0-0.7-0.1-1-0.3c-0.3-0.1-0.5-0.3-0.7-0.5c-0.1-0.1-0.2-0.1-0.3-0.2c-0.2-0.2-0.5-0.4-0.7-0.6
			c0,0,0,0-0.1-0.1c-0.2-0.2-0.4-0.5-0.6-0.7c-0.1-0.1-0.1-0.3-0.2-0.4c-0.2-0.2-0.2-0.5-0.3-0.8c-0.1-0.3-0.1-0.5,0-0.8
			C431.1,407,431.1,407,431.2,406.8z"/>
		<path id="XMLID_12_" class="st12" d="M395.8,424.6c0.2,0,0.5,0,0.7,0c0.6-1.8,1.4-3.6,2.3-5.1c0.8-1.3,1.7-2.6,2.7-3.7
			c1-1.2,2.2-2.3,3.6-3.1c1.8-1,3.9-1.5,6-1c2,0.5,4.8,2.7,4.1,5.1c-0.4,1.4-1.3,2.8-2.1,4c0,0,0,0,0,0c-0.2,0.7-0.5,1.5-0.9,2.2
			c-1.4,3-3.7,5.8-6.5,7.7c-1.4,1-3.2,1.8-5,1.7c0,0-0.1,0-0.1,0c-1.2,0.2-2.4,0.1-3.4-0.4c-1.8-0.8-3.8-2.6-3.7-4.8
			C393.6,425.8,394.3,424.8,395.8,424.6z"/>
		<path id="XMLID_11_" class="st12" d="M353,443.3c0.1,0.3,0.3,0.7,0.5,1c0.2,0.3,0.4,0.6,0.6,0.8c0.1,0.1,0.1,0.1,0.2,0.2
			c0.3,0.4,0.7,0.7,1.2,0.9c0.3,0.2,0.6,0.3,0.9,0.4c0.4,0.2,0.9,0.2,1.3,0.2c0.3,0,0.5-0.1,0.8-0.1c0.7-0.3,1.3-0.6,1.9-1.1
			c0.5-0.5,1-1,1.4-1.6c0.4-0.6,0.7-1.3,0.9-2c0.1-0.3,0.1-0.5,0.2-0.8c0.1-0.4,0-0.6,0-0.9c0-0.3-0.1-0.6-0.2-0.9
			c-0.3-0.9-1.2-1.6-2.2-1.8c-0.4-0.1-0.9-0.1-1.3,0.1c-0.1,0-0.1,0.1-0.2,0.1c0,0,0,0,0,0c-0.1,0.1-0.2,0.2-0.3,0.3c0,0,0,0,0,0
			l0,0c-0.1,0.1-0.2,0.2-0.3,0.3c0.1-0.1,0.2-0.2,0.3-0.3c0,0,0,0,0,0c-0.2,0.2-0.4,0.4-0.6,0.6c-0.1,0.1-0.2,0.3-0.3,0.4
			c-0.1,0.2-0.2,0.3-0.4,0.4c-0.3,0.2-0.6,0.4-0.9,0.6c-0.7-0.2-1.4-0.3-2.1-0.1c-0.2,0.1-0.5,0.2-0.7,0.3c-0.2,0.2-0.4,0.3-0.5,0.5
			c-0.2,0.2-0.3,0.5-0.3,0.7C352.7,442.2,352.8,442.7,353,443.3z"/>
	</g>
	<g id="XMLID_83_">
		<path id="XMLID_10_" class="st13" d="M342.7,171.5c-0.4-0.7-1.4-0.5-2.1,0c0,0,0,0,0,0c0,0,0,0.1-0.1,0.1
			c-0.2,0.1-0.3,0.3-0.5,0.4c-2.8,2.4-5,6.3-7,9.3c-2.7,4.1-4.6,8.4-6.3,12.9c-3.6,9.2-6.9,18.6-10.3,27.8
			c-3.2,8.8-6.5,17.6-11,25.8c-4.7,8.4-10.6,16-17.3,22.9c-1.1,1.1,0.3,1.9,1.3,1.3c17.3-10.1,27.3-28.5,34.2-46.6
			c3.7-9.8,7.3-19.7,10.8-29.6c1.7-4.7,3.6-9.3,5.7-13.8C341.6,179.2,344.4,174.7,342.7,171.5z"/>
		<path id="XMLID_9_" class="st13" d="M349,200.6c-3.9,3.9-5.4,8.8-7.6,13.7c-2.4,5.5-6.2,10.5-9.2,15.6
			c-5.9,10-11.5,20.1-17.8,29.8c-0.6,0.9,0.6,1.3,1.2,0.8c10.2-6.7,17.6-17.2,23.6-27.6c3.1-5.3,6.6-10.4,8.8-16.1
			c2.1-5.1,1.7-10.5,3.1-15.8C351.4,199.8,349.7,199.9,349,200.6z"/>
		<path id="XMLID_8_" class="st13" d="M398.8,151.1c-12.1,4.2-20.8,16.2-27.7,26.4c-4,6-7.7,12.2-10.6,18.8
			c-1.5,3.4-2.8,6.8-3.8,10.3c-0.9,3.3-2.1,7-2,10.4c0,1.7,2.2,0.9,2.8,0c3.9-5.7,6.8-12.5,10.1-18.6c3.3-6.1,6.8-12.1,10.5-18
			c6.4-10,13.3-19.6,21.6-28C400.7,151.7,399.8,150.8,398.8,151.1z"/>
		<path id="XMLID_7_" class="st13" d="M379.1,196.5c-0.6-0.4-1.3,0-1.7,0.4c-2,1.7-3.9,3.4-5.3,5.6c-0.7,1-1.3,2-1.8,3.1
			c-0.3,0.7-0.6,1.3-0.8,2c-0.2,0.7-0.2,1.4-0.3,2.1c0,1,0.8,1.5,1.7,1.4c1.1-0.1,1.9-0.9,2.4-1.8c-0.1,0.2,0,0.1,0-0.1
			c0.1-0.1,0.1-0.2,0.2-0.4c0.2-0.4,0.4-0.8,0.6-1.2c0.2-0.5,0.4-1,0.6-1.5c0.2-0.5,0.4-1,0.6-1.6c0.1-0.1,0.1-0.2,0.2-0.4
			c0,0,0-0.1,0-0.1c0.1-0.3,0.2-0.5,0.4-0.7c1-1.8,1.9-3.8,3.2-5.4C379.4,197.6,379.7,196.9,379.1,196.5z"/>
		<path id="XMLID_6_" class="st13" d="M464.2,108c-7.4,0.3-14.2,4.2-20.2,8.5c-6.6,4.7-12.7,10.5-18.8,16
			c-6.4,5.8-12.2,12.2-17.4,19.2c-5,6.8-9.9,14.4-12.9,22.3c-0.8,2.1,2.3,2.2,3.3,1c5-6.2,9.3-13,14.2-19.3
			c5-6.4,10.4-12.5,16.3-18.1c10.7-10,21.6-21.3,35.2-27.2C465,109.9,465.9,107.9,464.2,108z"/>
	</g>
	<g id="XMLID_77_">
		<path id="XMLID_5_" class="st13" d="M217.7,171.5c0.4-0.7,1.4-0.5,2.1,0c0,0,0,0,0,0c0,0,0,0.1,0.1,0.1c0.2,0.1,0.3,0.3,0.5,0.4
			c2.8,2.4,5,6.3,7,9.3c2.7,4.1,4.6,8.4,6.3,12.9c3.6,9.2,6.9,18.6,10.3,27.8c3.2,8.8,6.5,17.6,11,25.8c4.7,8.4,10.6,16,17.3,22.9
			c1.1,1.1-0.3,1.9-1.3,1.3c-17.3-10.1-27.3-28.5-34.2-46.6c-3.7-9.8-7.3-19.7-10.8-29.6c-1.7-4.7-3.6-9.3-5.7-13.8
			C218.8,179.2,216,174.7,217.7,171.5z"/>
		<path id="XMLID_4_" class="st13" d="M211.4,200.6c3.9,3.9,5.4,8.8,7.6,13.7c2.4,5.5,6.2,10.5,9.2,15.6c5.9,10,11.5,20.1,17.8,29.8
			c0.6,0.9-0.6,1.3-1.2,0.8c-10.2-6.7-17.6-17.2-23.6-27.6c-3.1-5.3-6.6-10.4-8.8-16.1c-2.1-5.1-1.7-10.5-3.1-15.8
			C209,199.8,210.7,199.9,211.4,200.6z"/>
		<path id="XMLID_3_" class="st13" d="M161.6,151.1c12.1,4.2,20.8,16.2,27.7,26.4c4,6,7.7,12.2,10.6,18.8c1.5,3.4,2.8,6.8,3.8,10.3
			c0.9,3.3,2.1,7,2,10.4c0,1.7-2.2,0.9-2.8,0c-3.9-5.7-6.8-12.5-10.1-18.6c-3.3-6.1-6.8-12.1-10.5-18c-6.4-10-13.3-19.6-21.6-28
			C159.8,151.7,160.6,150.8,161.6,151.1z"/>
		<path id="XMLID_2_" class="st13" d="M181.3,196.5c0.6-0.4,1.3,0,1.7,0.4c2,1.7,3.9,3.4,5.3,5.6c0.7,1,1.3,2,1.8,3.1
			c0.3,0.7,0.6,1.3,0.8,2c0.2,0.7,0.2,1.4,0.3,2.1c0,1-0.8,1.5-1.7,1.4c-1.1-0.1-1.9-0.9-2.4-1.8c0.1,0.2,0,0.1,0-0.1
			c-0.1-0.1-0.1-0.2-0.2-0.4c-0.2-0.4-0.4-0.8-0.6-1.2c-0.2-0.5-0.4-1-0.6-1.5c-0.2-0.5-0.4-1-0.6-1.6c-0.1-0.1-0.1-0.2-0.2-0.4
			c0,0,0-0.1,0-0.1c-0.1-0.3-0.2-0.5-0.4-0.7c-1-1.8-1.9-3.8-3.2-5.4C181,197.6,180.8,196.9,181.3,196.5z"/>
		<path id="XMLID_1_" class="st13" d="M96.2,108c7.4,0.3,14.2,4.2,20.2,8.5c6.6,4.7,12.7,10.5,18.8,16c6.4,5.8,12.2,12.2,17.4,19.2
			c5,6.8,9.9,14.4,12.9,22.3c0.8,2.1-2.3,2.2-3.3,1c-5-6.2-9.3-13-14.2-19.3c-5-6.4-10.4-12.5-16.3-18.1
			c-10.7-10-21.6-21.3-35.2-27.2C95.4,109.9,94.5,107.9,96.2,108z"/>
	</g>
</g>
</svg>
