<?xml version="1.0" encoding="utf-8"?>
<!-- Generator: Adobe Illustrator 19.0.0, SVG Export Plug-In . SVG Version: 6.00 Build 0)  -->
<svg version="1.1" id="Calque_1" xmlns="http://www.w3.org/2000/svg" xmlns:xlink="http://www.w3.org/1999/xlink" x="0px" y="0px"
	 viewBox="0 0 566.9 566.9" style="enable-background:new 0 0 566.9 566.9;" xml:space="preserve">
<style type="text/css">
	.st0{fill:#57595C;}
	.st1{fill:#E9E9EA;}
	.st2{opacity:0.56;}
	.st3{fill:#9C9DA0;}
	.st4{fill:#393C3D;}
	.st5{fill:#231F20;}
	.st6{fill:#443E3F;}
	.st7{fill:#BDBEC0;}
	.st8{fill:#1A1C1D;}
	.st9{fill:#FFFFFF;}
	.st10{fill:#86888A;}
	.st11{fill:#62493E;}
	.st12{fill:#312017;}
</style>
<g id="XMLID_56_">
	<g id="XMLID_58_">
		<g id="XMLID_131_">
			<g id="XMLID_138_">
				<path id="XMLID_139_" class="st0" d="M239.1,225.6c2.2-7.1,3-14.6,3.4-19.4c1.2-16.6,4.7-32.9,4.5-49.6
					c-0.5-42-27.8-77.9-56.8-105.7c-1.8-1.8-3.8-3.5-6.1-4.6c-6.4-2.9-11.7,2.3-15.2,7.2c-19.8,27.9-27.6,67.3-15.9,99.9
					c5.6,15.5,37.3,62.1,58.9,78.8c4,3.1,3,10.3,8.8,10.9C230.6,244.4,236.1,235.4,239.1,225.6z"/>
			</g>
			<g id="XMLID_136_">
				<path id="XMLID_53_" class="st1" d="M190.2,50.9c-1.8-1.8-3.8-3.5-6.1-4.6c-1.3-0.6-2.5-0.8-3.7-0.8c4.5,6.5,8.9,13,12.8,19.9
					c5.5,9.7,9.6,19.9,12.8,30.6c3.2,10.6,5.3,21.5,7.8,32.2c4.9,21.1,10,43.2,6.4,64.9c-0.1,0.7-1,0.8-1.5,0.4
					c-3.2-2.9-4.7-6.9-7-10.5c1.3,6.2,3.3,12.5,1.3,18.8c-0.2,0.5-0.6,0.7-1.1,0.6c-4.9-0.8-9-4.3-12.4-7.7c-1.8-1.8-3.4-3.8-5-5.8
					c0.7,1.9,1.3,3.8,1.5,5.9c0.1,0.7-0.8,1.1-1.3,0.8c-8.2-4.8-14.6-12.2-19.9-20c-4.8-7.1-8.7-14.7-12.1-22.4
					c-3.8-8.5-6.8-17.3-9-26.3c-2.3-9.2-3.7-18.8-3.9-28.4c-3.6,18.4-2.9,37.7,3.3,55c5.6,15.5,37.3,62.1,58.9,78.8
					c4,3.1,3,10.3,8.8,10.9c9.9,1.1,15.4-7.8,18.4-17.7c2.2-7.1,3-14.6,3.4-19.4c1.2-16.6,4.7-32.9,4.5-49.6
					C246.5,114.6,219.2,78.7,190.2,50.9z"/>
			</g>
			<g id="XMLID_134_">
				<path id="XMLID_52_" class="st1" d="M190.2,50.9c-1.8-1.8-3.8-3.5-6.1-4.6c-1.3-0.6-2.5-0.8-3.7-0.8c4.5,6.5,8.9,13,12.8,19.9
					c5.5,9.7,9.6,19.9,12.8,30.6c3.2,10.6,5.3,21.5,7.8,32.2c4.9,21.1,10,43.2,6.4,64.9c-0.1,0.7-1,0.8-1.5,0.4
					c-3.2-2.9-4.7-6.9-7-10.5c1.3,6.2,3.3,12.5,1.3,18.8c-0.2,0.5-0.6,0.7-1.1,0.6c-4.9-0.8-9-4.3-12.4-7.7c-1.8-1.8-3.4-3.8-5-5.8
					c0.7,1.9,1.3,3.8,1.5,5.9c0.1,0.7-0.8,1.1-1.3,0.8c-8.2-4.8-14.6-12.2-19.9-20c-4.8-7.1-8.7-14.7-12.1-22.4
					c-3.8-8.5-6.8-17.3-9-26.3c-2.3-9.2-3.7-18.8-3.9-28.4c-3.6,18.4-2.9,37.7,3.3,55c5.6,15.5,37.3,62.1,58.9,78.8
					c4,3.1,3,10.3,8.8,10.9c9.9,1.1,15.4-7.8,18.4-17.7c2.2-7.1,3-14.6,3.4-19.4c1.2-16.6,4.7-32.9,4.5-49.6
					C246.5,114.6,219.2,78.7,190.2,50.9z"/>
			</g>
			<g id="XMLID_132_" class="st2">
				<path id="XMLID_51_" class="st3" d="M214.4,183.2c-10.1,6.5-19.4,14.2-27.6,22.9c8.6,10.7,17.4,20.3,25.1,26.3
					c4,3.1,3,10.3,8.8,10.9c9.9,1.1,15.4-7.8,18.4-17.7c2.2-7.1,3-14.6,3.4-19.4c1-13,3.3-25.8,4.2-38.8
					C235.3,171.4,224.5,176.7,214.4,183.2z"/>
			</g>
		</g>
		<g id="XMLID_123_">
			<g id="XMLID_128_">
				<path id="XMLID_129_" class="st0" d="M349.5,243.3c5.8-0.6,4.8-7.8,8.8-10.9c21.6-16.8,53.3-63.4,58.9-78.8
					c11.7-32.6,4-72.1-15.9-99.9c-3.5-4.9-8.8-10.2-15.2-7.2c-2.3,1.1-4.3,2.8-6.1,4.6c-29,27.8-56.3,63.8-56.8,105.7
					c-0.2,16.7,3.3,33,4.5,49.6c0.3,4.7,1.2,12.3,3.4,19.4C334.1,235.4,339.6,244.4,349.5,243.3z"/>
			</g>
			<g id="XMLID_126_">
				<path id="XMLID_49_" class="st1" d="M379.9,50.9c1.8-1.8,3.8-3.5,6.1-4.6c1.3-0.6,2.5-0.8,3.7-0.8c-4.5,6.5-8.9,13-12.8,19.9
					c-5.5,9.7-9.6,19.9-12.8,30.6c-3.2,10.6-5.3,21.5-7.8,32.2c-4.9,21.1-10,43.2-6.4,64.9c0.1,0.7,1,0.8,1.5,0.4
					c3.2-2.9,4.7-6.9,7-10.5c-1.3,6.2-3.3,12.5-1.3,18.8c0.2,0.5,0.6,0.7,1.1,0.6c4.9-0.8,9-4.3,12.4-7.7c1.8-1.8,3.4-3.8,5-5.8
					c-0.7,1.9-1.3,3.8-1.5,5.9c-0.1,0.7,0.8,1.1,1.3,0.8c8.2-4.8,14.6-12.2,19.9-20c4.8-7.1,8.7-14.7,12.1-22.4
					c3.8-8.5,6.8-17.3,9-26.3c2.3-9.2,3.7-18.8,3.9-28.4c3.6,18.4,2.9,37.7-3.3,55c-5.6,15.5-37.3,62.1-58.9,78.8
					c-4,3.1-3,10.3-8.8,10.9c-9.9,1.1-15.4-7.8-18.4-17.7c-2.2-7.1-3-14.6-3.4-19.4c-1.2-16.6-4.7-32.9-4.5-49.6
					C323.6,114.6,351,78.7,379.9,50.9z"/>
			</g>
			<g id="XMLID_124_" class="st2">
				<path id="XMLID_48_" class="st3" d="M371.1,177c-14.4-9.4-30.9-15.2-47.9-17.7c0.2,15.7,3.3,31.2,4.5,46.9
					c0.3,4.7,1.2,12.3,3.4,19.4c3,9.9,8.5,18.8,18.4,17.7c5.8-0.6,4.8-7.8,8.8-10.9c10.3-8,22.9-22.7,33.8-37.7
					C385.8,188,378.8,182,371.1,177z"/>
			</g>
		</g>
		<path id="XMLID_47_" class="st1" d="M385,230.4c-23.1-54.6-78.2-56.1-94.6-55.3c-16.4-0.8-71.5,0.6-94.6,55.3
			c-10.8,25.5-9.5,60.3,0.8,93.4c0.9,3.4,1.9,6.8,2.9,10.1c5.9,19.7,15.5,37.6,24.5,56c6.6,13.6,14.4,27.7,15,43.1
			c0.5,14.2-9.3,24.5-12,37.8c-6.7,32.8,31,50.9,60.9,53.5v0.3c0.8,0,1.7-0.1,2.5-0.1c0.9,0,1.7,0.1,2.5,0.1v-0.3
			c29.9-2.6,67.6-20.7,60.9-53.5c-2.7-13.4-12.5-23.6-12-37.8c0.5-15.4,8.3-29.5,15-43.1c9-18.4,18.6-36.4,24.5-56
			c1-3.4,2-6.7,2.9-10.1C394.5,290.7,395.8,255.9,385,230.4z"/>
		<path id="XMLID_46_" class="st1" d="M386,311.3c-4.8,13-11.1,25.5-19.2,36.7c-7.9,11-17.6,21.2-28.9,28.7
			c-12.2,8.1-26.8,11.7-41.4,11.9c-14.8,0.1-29.6-3.2-43-9.5c-12.5-5.8-23.3-14.5-32.2-25.1c-8.9-10.6-15.9-22.7-21.5-35.4
			c-4.3-9.8-7.7-19.9-10.5-30.2c1.3,11.7,3.7,23.6,7.4,35.4c0.9,3.4,1.9,6.8,2.9,10.1c5.9,19.7,15.5,37.6,24.5,56
			c6.6,13.6,14.4,27.7,15,43.1c0.5,14.2-9.3,24.5-12,37.8c-6.7,32.8,31,50.9,60.9,53.5v0.3c0.8,0,1.7-0.1,2.5-0.1
			c0.9,0,1.7,0.1,2.5,0.1v-0.3c29.9-2.6,67.6-20.7,60.9-53.5c-2.7-13.4-12.5-23.6-12-37.8c0.5-15.4,8.3-29.5,15-43.1
			c9-18.4,18.6-36.4,24.5-56c1-3.4,2-6.7,2.9-10.1c2.7-8.7,4.8-17.6,6.2-26.4C389.1,302.1,387.6,306.7,386,311.3z"/>
		<path id="XMLID_45_" class="st4" d="M341.9,434.6c-3-3.9-6.4-7.5-10.3-10.7c-8.1-6.7-17.7-11.3-28-13.5c-10-2.2-20.5-2-30.4,0.5
			c-10.3,2.5-20,7.5-28,14.4c-2.2,1.9-4.3,3.9-6.3,6.1c0,0.5,0.1,1.1,0.1,1.6c0.5,14.2-9.3,24.5-12,37.8c-4.5,22,12.4,38.1,31,46.1
			c5.7,2.4,11.6,4.3,17.6,5.6c7.4,1.6,14.2,2.4,21.8,1.3c5.3-0.8,10.5-1.8,15.7-3.4c10.2-3.1,20.2-7.8,28.2-14.9
			c10-8.9,15.2-21.3,12.5-34.7C351.2,458,342.1,448,341.9,434.6z"/>
		<path id="XMLID_44_" class="st4" d="M243.6,460.7c-2.9,0.2-5.3,1.9-7.1,4.2c0.1,0,0.1-0.1,0.2-0.1c3.1-1.2,6.9-1.3,9.9,0
			c4.6,1.9,7.6,6.1,10.5,10.2c-0.4-1.4-0.9-2.8-1.5-4.2C253.6,466,249.5,460.4,243.6,460.7z"/>
		<path id="XMLID_43_" class="st4" d="M319.7,481.3c3.7-5.9,7.9-12.9,13.7-16.8c-3.7,1-7.3,2.6-10,5.3
			C320.3,473,319.3,477.1,319.7,481.3z"/>
		<path id="XMLID_42_" class="st5" d="M256.9,484.4c-2.5-4.7-5.9-9.1-9.9-12.7c-1.9-1.6-4.2-3.7-6.7-4.3c-2.5-0.6-4.7,1.7-5.5,3.9
			c-1,3-0.4,6.4,0.7,9.4c0.4,0.9,0.9,1.7,1.4,2.4c2.2,3.1,5.6,4.7,9,6c3.5,1.3,7.2,2.2,10.6,3.8c1.6,0.7,3,1.7,4.3,2.8
			C260.4,491.8,258.8,487.8,256.9,484.4z"/>
		<path id="XMLID_41_" class="st5" d="M324.7,484.4c2.5-4.7,5.9-9.1,9.9-12.7c1.9-1.6,4.2-3.7,6.7-4.3c2.5-0.6,4.7,1.7,5.5,3.9
			c1,3,0.4,6.4-0.7,9.4c-0.4,0.9-0.9,1.7-1.4,2.4c-2.2,3.1-5.6,4.7-9.1,6c-3.5,1.3-7.2,2.2-10.6,3.8c-1.6,0.7-3,1.7-4.3,2.8
			C321.2,491.8,322.8,487.8,324.7,484.4z"/>
		<g id="XMLID_113_">
			<path id="XMLID_40_" class="st5" d="M328.6,501.2C328.6,501.2,328.7,501.2,328.6,501.2C328.7,501.2,328.6,501.2,328.6,501.2
				C328.6,501.2,328.6,501.2,328.6,501.2z"/>
			<path id="XMLID_39_" class="st5" d="M332.7,501.3c-0.1-0.3-0.2-0.6-0.3-0.9c-0.3-0.6-0.6-1.2-1.3-1.4c-0.8-0.2-1.9,0.1-2.6,0.5
				c-0.8,0.4-1.4,1-2,1.6c-0.3,0.3-0.6,0.6-0.8,0.8c-0.1,0.1-0.2,0.3-0.3,0.4c0,0.1,0-0.1,0,0.1c-0.1,0.1-0.1,0.2-0.1,0.3
				c0,0.6,1,0.2,1.3,0.1c0.4-0.2,0.8-0.4,1.1-0.7c0.4-0.3,0.7-0.5,1.1-0.8c0,0,0,0,0,0c0,0,0,0,0,0c0,0,0,0,0,0c0.1,0,0.1,0,0.1,0
				c0.1,0,0.1-0.1,0.1-0.1c0,0,0,0,0.1,0c0,0,0,0,0.1,0c0.1,0,0.3-0.1,0.4-0.1c0,0,0,0,0.1,0c-9.1,11.2-23,17.8-37.4,18.3
				c-7.2,0.3-14.5-0.8-21.4-3c-6.1-1.9-12.1-4.6-17.1-8.8c-2.3-1.9-8.7-7.1-10.3-1.7c-0.1,0.4,0.4,0.3,0.5,0.1
				c0.5-0.9,1.1-1.6,2.2-1.4c1,0.2,1.8,0.7,2.6,1.3c1.7,1.2,3.2,2.6,4.8,3.9c2.3,2,5.2,3.5,7.9,4.9c3.3,1.6,6.7,2.8,10.2,3.8
				c13.5,3.9,28.4,3.5,41.3-2.6c6.6-3.2,13.3-7.8,17.6-13.8c0.2,0.6,0.4,1.3,1.1,1.6c0.5,0.2,1.2-0.3,1.4-0.8
				C333,502.2,332.8,501.8,332.7,501.3z"/>
		</g>
		<path id="XMLID_38_" class="st5" d="M339.4,494.6c-0.6-1.2-1.9-1.8-3.2-2c-1.7-0.2-3.4,0.3-4.9,1c-0.8,0.4-1.5,0.9-2.2,1.4
			c-0.7,0.5-1.3,1.2-2,1.7c-0.2,0.1,0,0.4,0.2,0.2c0.6-0.4,1.3-0.8,1.9-1.1c0.6-0.4,1.3-0.7,2-1c1.3-0.6,2.7-1,4.1-0.8
			c1,0.2,1.9,0.7,2.4,1.6c0.5,0.9,0.4,2.1,0.2,3.1c-0.1,0.4,0.4,0.6,0.7,0.6c0.4,0,0.8-0.3,0.9-0.7
			C340.1,497.3,340.1,495.8,339.4,494.6z"/>
		<g id="XMLID_92_">
			<g id="XMLID_103_">
				<path id="XMLID_37_" class="st6" d="M288.4,340.2c-0.5-8.6-1-17.2-1.5-25.8c-0.9-16.9-2.6-33.7-1.6-50.7c0.3-4.7,0.6-9.5,1-14.2
					c0.1-2.2,0.2-4.4,0.3-6.5c0-2.4-0.4-4.8,0-7.2c0.2-1.4-2.1-0.6-2.3,0.5c-0.4,2.2-1.4,4.2-2,6.3c-0.6,2.1-1.2,4.3-1.6,6.5
					c-0.8,4.2-1.6,8.5-2.2,12.8c-1.1,8.4-1.9,16.9-2,25.5c-0.3,17.2,1.4,34.8,4.8,51.7c1.9,9.5,3.6,19.2,6.5,28.4
					c0.4,1.2,2.4,0.3,2.4-0.8C289.8,357.8,288.9,349,288.4,340.2z"/>
				<path id="XMLID_36_" class="st6" d="M280.1,362.4c-1.1-9.4-3.7-18.7-6.4-27.8c-0.5-2-1-4-1.7-5.9c-0.4-1.2-0.9-2.3-1.3-3.5
					c-2.3-6.5-4.8-12.8-7.5-19.1c-3.5-8.3-6.8-17-6.3-26.2c0.5-9.7,4.4-19.3,7.9-28.3c1.9-4.8,3.6-9.7,5.3-14.5
					c0.8-2.3,1.6-4.7,2.4-7c0.4-1.2,0.9-2.4,1.2-3.6c0.3-1.5,0.3-2.7,1.1-4.1c0.4-0.7-0.6-0.7-0.9-0.3c-1.5,2-3.6,3.2-5,5.3
					c-1.5,2.1-3,4.3-4.3,6.6c-2.4,4.4-4.5,8.9-6.6,13.5c-4.4,9.5-8.6,19.4-9.9,29.8c-1.2,9.4,1.6,18.8,5.5,27.2
					c2.6,5.7,6,11,9.1,16.5c1.1,3.4,2.5,6.8,3.4,10.3c2.2,7.8,3.4,15.8,5.5,23.7c2,7.5,4.1,15.1,6,22.6c1.9,7.6,3.3,15.3,5.4,22.9
					c0.2,0.6,1.1,0.1,1.2-0.4c0.6-12.2-1.8-24.5-4.4-36.6C280,363.2,280.2,362.8,280.1,362.4z"/>
				<path id="XMLID_35_" class="st6" d="M266.2,208.9c-5.6,6.2-10.6,13-15.2,20c-4.6,7.1-9.2,14.1-13.7,21.2
					c-1.9,2.9-3.7,5.7-5.8,8.5c-2.1,2.8-4.6,5.2-7.2,7.5c-6.5,5.9-14.1,11.2-19.8,18c-1.3,1.5,0.3,3,1.9,1.8
					c6.4-4.9,12.1-10.6,18.9-15c3.2-2.1,6.8-3.8,9.7-6.2c2.9-2.4,5.1-5.4,7.2-8.6c9-13.6,17-28,26.4-41.3c2.6-3.7,5.4-7.3,8.1-10.8
					c2.8-3.6,5.3-7.6,8.3-11c0.9-1-0.5-1.8-1.3-0.9c-2.8,3-6.3,5.5-9.3,8.4C271.6,203.2,268.8,205.9,266.2,208.9z"/>
				<path id="XMLID_34_" class="st6" d="M207.2,262.2c3.5-1.1,6.8-2.7,9.9-4.8c6.1-4.2,10.6-10,14.8-15.9
					c9.2-12.7,18.2-25.9,29.1-37.2c6.1-6.3,12.4-12.8,19.5-17.9c0.9-0.7,0.5-2.1-0.7-1.5c-6.9,3.5-13.5,7.1-19.6,12
					c-6.4,5-12.1,10.8-17.2,17.1c-5.1,6.3-9.8,13-14.7,19.5c-4,5.4-7.7,11.2-12.4,16.1c-2.6,2.8-5.3,5.4-8.6,7.5
					c-3.5,2.2-7.7,3.4-10.8,6.3c-0.4,0.4-0.3,1.1,0.3,1.1C200.2,264.5,203.9,263.2,207.2,262.2z"/>
				<path id="XMLID_33_" class="st6" d="M249,379.6c-3.2-8.1-6.4-16.2-9.5-24.4c-3-8-5.8-15.9-9.5-23.6c-1.7-3.5-3.6-6.8-5.4-10.2
					c-1.5-3.1-3-6.2-5-9.1c-2.5-3.5-5.4-6.2-9.8-6.8c-3.9-0.5-8.3,0.3-11.6,2.4c-0.4,0.3-1,1.1-0.5,1.6c1.9,2,5.1,1.9,7.7,2.6
					c2.9,0.8,4.9,3.3,6.5,5.7c1.8,2.8,3.3,5.8,4.9,8.7c1.7,3.1,3.7,6,5.6,9c8.5,13.9,14.1,29.5,20.6,44.4c1.9,4.3,3.8,8.7,5.4,13.1
					c1.6,4.3,2.9,8.7,5.3,12.6c0.7,1.2,2.9-0.2,2.9-1.3c-0.2-4.5-1.5-8.5-3-12.7C252.1,387.7,250.6,383.6,249,379.6z"/>
				<path id="XMLID_32_" class="st6" d="M263.6,369.5c-1.7-6.1-3.7-12.2-6.1-18.1c-1.2-2.9-2.5-5.8-3.9-8.6
					c-0.7-1.4-1.5-2.6-2.4-3.9c-0.4-0.6-0.9-1.5-1.4-2c-0.6-0.6-1.4-0.8-1.8-1.7c-0.5-0.9-1.9,0.3-1.8,1c0.1,1-0.3,1.6-0.5,2.5
					c-0.1,0.7,0,1.5,0.1,2.2c0.1,1.5,0.2,3.1,0.4,4.7c0.4,3.2,1.4,6.3,2.3,9.4c1.9,6.1,4.1,12,6.2,18c4,11.4,7.1,23.1,12,34.2
					c0.9,2,3.9,0.5,4.1-1.3c0.4-6-1.7-11.7-3-17.5C266.4,382,265.3,375.7,263.6,369.5z"/>
				<path id="XMLID_31_" class="st6" d="M242.2,398.3c-2-5.7-4.2-11.4-6.5-17c-1.1-3.2-2.3-6.3-3.3-9.6c-1.6-5.3-3.6-10.3-5.9-15.3
					c-2-4.2-4.5-8.2-8-11.2c-3.2-2.7-6.9-2.7-10.9-2.1c-0.8,0.1-1.8,1.1-1.6,2c0.3,1.2,1.1,2.1,2.1,2.9c0.9,0.9,2,1.7,2.6,2.5
					c1.8,2.2,3.5,4.5,5,6.9c3.1,5.2,5.2,10.9,7.5,16.4c3.3,7.9,6.1,16.1,9.6,23.9c1.7,3.8,3.5,7.5,5.5,11.2c1.8,3.3,3.2,7.6,6,10.2
					c0.7,0.7,2.2-0.3,2.3-1c0.8-3.3-0.3-6.7-1.2-9.9C244.4,404.9,243.4,401.5,242.2,398.3z"/>
				<path id="XMLID_30_" class="st6" d="M203.2,241.1c3-5.1,5.5-10.3,9-15c3.3-4.4,6.8-8.7,10.6-12.7c7.6-8.1,16.3-14.8,25.7-21
					c2.6-1.7,5.2-3.4,7.8-5c1.4-0.9,2.8-1.7,4.1-2.7c1.3-1,2.4-2.3,3.8-3.1c0.4-0.2,0.3-0.9-0.2-0.7c-1.2,0.3-2.6,0.2-3.8,0.4
					c-1.5,0.2-2.9,0.7-4.3,1.2c-2.8,1-5.5,2.1-8.2,3.4c-5.5,2.7-11,5.7-16,9.4c-9.9,7.2-19.2,16-25,27c-3,5.7-6,12.5-6.5,18.9
					C200,243,202.6,242.1,203.2,241.1z"/>
			</g>
			<g id="XMLID_94_">
				<path id="XMLID_29_" class="st6" d="M289.6,340.2c0.5-8.6,1-17.2,1.5-25.8c0.9-16.9,2.6-33.7,1.6-50.7c-0.3-4.7-0.6-9.5-1-14.2
					c-0.1-2.2-0.2-4.4-0.3-6.5c0-2.4,0.4-4.8,0-7.2c-0.2-1.4,2.1-0.6,2.3,0.5c0.4,2.2,1.4,4.2,2,6.3c0.6,2.1,1.2,4.3,1.6,6.5
					c0.8,4.2,1.6,8.5,2.1,12.8c1.1,8.4,1.9,16.9,2,25.5c0.3,17.2-1.4,34.8-4.8,51.7c-1.9,9.5-3.6,19.2-6.5,28.4
					c-0.4,1.2-2.4,0.3-2.4-0.8C288.1,357.8,289.1,349,289.6,340.2z"/>
				<path id="XMLID_28_" class="st6" d="M297.8,362.4c1.1-9.4,3.7-18.7,6.4-27.8c0.5-2,1-4,1.7-5.9c0.4-1.2,0.9-2.3,1.3-3.5
					c2.3-6.5,4.8-12.8,7.5-19.1c3.5-8.3,6.8-17,6.3-26.2c-0.5-9.7-4.4-19.3-7.9-28.3c-1.9-4.8-3.6-9.7-5.3-14.5
					c-0.8-2.3-1.6-4.7-2.4-7c-0.4-1.2-0.9-2.4-1.2-3.6c-0.3-1.5-0.3-2.7-1.1-4.1c-0.4-0.7,0.6-0.7,0.9-0.3c1.5,2,3.6,3.2,5,5.3
					c1.5,2.1,3,4.3,4.3,6.6c2.4,4.4,4.5,8.9,6.6,13.5c4.4,9.5,8.6,19.4,9.9,29.8c1.2,9.4-1.6,18.8-5.5,27.2c-2.6,5.7-6,11-9.1,16.5
					c-1.1,3.4-2.5,6.8-3.4,10.3c-2.2,7.8-3.4,15.8-5.5,23.7c-2,7.5-4.1,15.1-6,22.6c-1.9,7.6-3.3,15.3-5.4,22.9
					c-0.2,0.6-1.1,0.1-1.2-0.4c-0.6-12.2,1.8-24.5,4.4-36.6C298,363.2,297.8,362.8,297.8,362.4z"/>
				<path id="XMLID_27_" class="st6" d="M311.8,208.9c5.6,6.2,10.6,13,15.2,20c4.6,7.1,9.2,14.1,13.7,21.2c1.9,2.9,3.7,5.7,5.8,8.5
					c2.1,2.8,4.6,5.2,7.2,7.5c6.5,5.9,14.1,11.2,19.8,18c1.3,1.5-0.3,3-1.9,1.8c-6.4-4.9-12.1-10.6-18.9-15
					c-3.2-2.1-6.8-3.8-9.7-6.2c-2.9-2.4-5.1-5.4-7.2-8.6c-9-13.6-17-28-26.4-41.3c-2.6-3.7-5.4-7.3-8.1-10.8
					c-2.8-3.6-5.3-7.6-8.3-11c-0.9-1,0.5-1.8,1.3-0.9c2.8,3,6.3,5.5,9.3,8.4C306.3,203.2,309.2,205.9,311.8,208.9z"/>
				<path id="XMLID_26_" class="st6" d="M370.8,262.2c-3.5-1.1-6.8-2.7-9.9-4.8c-6.1-4.2-10.6-10-14.8-15.9
					c-9.2-12.7-18.2-25.9-29.1-37.2c-6.1-6.3-12.4-12.8-19.5-17.9c-0.9-0.7-0.5-2.1,0.7-1.5c6.9,3.5,13.5,7.1,19.6,12
					c6.4,5,12.1,10.8,17.2,17.1c5.1,6.3,9.8,13,14.7,19.5c4,5.4,7.7,11.2,12.4,16.1c2.6,2.8,5.3,5.4,8.6,7.5
					c3.5,2.2,7.7,3.4,10.8,6.3c0.4,0.4,0.3,1.1-0.3,1.1C377.7,264.5,374,263.2,370.8,262.2z"/>
				<path id="XMLID_25_" class="st6" d="M329,379.6c3.2-8.1,6.4-16.2,9.5-24.4c3-8,5.8-15.9,9.5-23.6c1.7-3.5,3.6-6.8,5.4-10.2
					c1.5-3.1,3-6.2,5-9.1c2.5-3.5,5.4-6.2,9.8-6.8c3.9-0.5,8.3,0.3,11.6,2.4c0.4,0.3,1,1.1,0.5,1.6c-1.9,2-5.1,1.9-7.7,2.6
					c-2.9,0.8-4.9,3.3-6.5,5.7c-1.8,2.8-3.3,5.8-4.9,8.7c-1.7,3.1-3.7,6-5.6,9c-8.5,13.9-14.1,29.5-20.6,44.4
					c-1.9,4.3-3.8,8.7-5.4,13.1c-1.6,4.3-2.9,8.7-5.3,12.6c-0.7,1.2-2.9-0.2-2.9-1.3c0.2-4.5,1.5-8.5,3-12.7
					C325.9,387.7,327.4,383.6,329,379.6z"/>
				<path id="XMLID_24_" class="st6" d="M314.3,369.5c1.7-6.1,3.7-12.2,6.1-18.1c1.2-2.9,2.5-5.8,3.9-8.6c0.7-1.4,1.5-2.6,2.4-3.9
					c0.4-0.6,0.9-1.5,1.4-2c0.6-0.6,1.4-0.8,1.8-1.7c0.5-0.9,1.9,0.3,1.8,1c-0.1,1,0.3,1.6,0.5,2.5c0.1,0.7,0,1.5-0.1,2.2
					c-0.1,1.5-0.2,3.1-0.4,4.7c-0.4,3.2-1.4,6.3-2.3,9.4c-1.9,6.1-4.1,12-6.2,18c-4,11.4-7.1,23.1-12,34.2c-0.9,2-3.9,0.5-4.1-1.3
					c-0.4-6,1.7-11.7,3-17.5C311.6,382,312.6,375.7,314.3,369.5z"/>
				<path id="XMLID_23_" class="st6" d="M335.7,398.3c2-5.7,4.2-11.4,6.5-17c1.1-3.2,2.3-6.3,3.3-9.6c1.6-5.3,3.6-10.3,5.9-15.3
					c2-4.2,4.5-8.2,8-11.2c3.2-2.7,6.9-2.7,10.9-2.1c0.8,0.1,1.8,1.1,1.6,2c-0.3,1.2-1.1,2.1-2.1,2.9c-0.9,0.9-2,1.7-2.6,2.5
					c-1.8,2.2-3.5,4.5-5,6.9c-3.1,5.2-5.2,10.9-7.5,16.4c-3.3,7.9-6.1,16.1-9.6,23.9c-1.7,3.8-3.5,7.5-5.5,11.2
					c-1.8,3.3-3.2,7.6-6,10.2c-0.7,0.7-2.2-0.3-2.3-1c-0.8-3.3,0.3-6.7,1.2-9.9C333.6,404.9,334.6,401.5,335.7,398.3z"/>
				<path id="XMLID_22_" class="st6" d="M374.7,241.1c-3-5.1-5.5-10.3-9-15c-3.3-4.4-6.8-8.7-10.6-12.7c-7.6-8.1-16.3-14.8-25.7-21
					c-2.6-1.7-5.2-3.4-7.8-5c-1.4-0.9-2.8-1.7-4.1-2.7c-1.3-1-2.4-2.3-3.8-3.1c-0.4-0.2-0.3-0.9,0.2-0.7c1.2,0.3,2.6,0.2,3.8,0.4
					c1.5,0.2,2.9,0.7,4.3,1.2c2.8,1,5.5,2.1,8.2,3.4c5.5,2.7,11,5.7,16,9.4c9.9,7.2,19.2,16,25,27c3,5.7,6,12.5,6.5,18.9
					C378,243,375.3,242.1,374.7,241.1z"/>
			</g>
			<path id="XMLID_21_" class="st6" d="M292.5,194.2c-0.8-3.1-2.5-5.9-3.6-8.9c-0.3-0.8-1.5-0.2-1.5,0.5c0,3.6-1.1,7-1.6,10.6
				c-0.5,3.4-0.7,6.9-0.7,10.4c0,3.3,0.6,6.6,1,9.9c0.4,2.9,0,6.3,1.4,9c0.6,1.2,2.3-0.1,2.6-0.9c1.2-3.1,1.1-6.7,1.7-10
				c0.6-3.5,1.5-7,1.6-10.5C293.5,200.9,293.4,197.5,292.5,194.2z"/>
		</g>
		<path id="XMLID_20_" class="st5" d="M386.4,281.3c-0.2-1.3-0.8-2.4-1.3-3.6c-0.9-2-2.1-3.8-3.9-5.1c-1.9-1.4-4.4-2-6.7-1.5
			c-0.7,0.2-1.7,1-1.5,1.8c0.6,1.9,1.2,2.8,2.2,4.7c0.1,0.2,0.2,0.4,0.3,0.6c0.2,0.3,0.3,0.6,0.1,0.1c0.3,0.6,0.5,1.2,0.8,1.9
			c0.1,0.2,0.2,0.4,0.3,0.6c0,0.1,0,0.1,0.1,0.2c0.2,0.5,0.4,1,0.6,1.5c0.4,1,0.7,2,1.1,3c0.4,0.9,1,1.7,1.6,2.6
			c1,1.3,1.8,2.7,2.6,4.1c0.3,0.5,1,0.4,1.5,0.2c0.6-0.2,0.9-0.7,1.1-1.3c0.4-2,0.8-3.9,1.1-6C386.5,283.9,386.6,282.5,386.4,281.3z
			"/>
		<path id="XMLID_19_" class="st5" d="M193.5,281.3c0.2-1.3,0.8-2.4,1.3-3.6c0.9-2,2.1-3.8,3.9-5.1c1.9-1.4,4.4-2,6.7-1.5
			c0.7,0.2,1.7,1,1.5,1.8c-0.6,1.9-1.2,2.8-2.2,4.7c-0.1,0.2-0.2,0.4-0.3,0.6c-0.2,0.3-0.3,0.6-0.1,0.1c-0.3,0.6-0.5,1.2-0.8,1.9
			c-0.1,0.2-0.2,0.4-0.3,0.6c0,0.1,0,0.1-0.1,0.2c-0.2,0.5-0.4,1-0.6,1.5c-0.4,1-0.7,2-1.1,3c-0.4,0.9-1,1.7-1.6,2.6
			c-1,1.3-1.8,2.7-2.6,4.1c-0.3,0.5-1,0.4-1.5,0.2c-0.6-0.2-0.9-0.7-1.1-1.3c-0.4-2-0.8-3.9-1.1-6
			C193.3,283.9,193.3,282.5,193.5,281.3z"/>
		<path id="XMLID_18_" class="st7" d="M342.4,340.6c-0.8,0-1.6-0.2-2.3-0.6c-48.5-25.2-94.4-0.3-94.9-0.1c-2.4,1.3-5.5,0.5-6.8-2
			c-1.3-2.4-0.5-5.5,2-6.8c2.1-1.1,51.2-27.7,104.4-0.1c2.5,1.3,3.4,4.3,2.1,6.8C346,339.6,344.3,340.6,342.4,340.6z"/>
		<g id="XMLID_86_">
			<path id="XMLID_17_" class="st8" d="M264.7,279.8c-0.7,0-1.3-0.2-1.9-0.6c-18.4-12-32.5-0.7-33.1-0.2c-1.5,1.2-3.8,1-5-0.5
				c-1.2-1.5-1-3.8,0.5-5c0.2-0.2,18.7-15.2,41.6-0.2c1.7,1.1,2.1,3.3,1,4.9C267,279.2,265.8,279.8,264.7,279.8z"/>
			<path id="XMLID_16_" class="st8" d="M315.8,279.8c-1.2,0-2.3-0.6-3-1.6c-1.1-1.7-0.6-3.9,1-4.9c22.9-14.9,41.4,0.1,41.6,0.2
				c1.5,1.3,1.7,3.5,0.5,5c-1.3,1.5-3.5,1.7-5,0.5c-0.6-0.5-14.8-11.7-33.1,0.2C317.1,279.6,316.4,279.8,315.8,279.8z"/>
		</g>
		<g id="XMLID_59_">
			<g id="XMLID_73_">
				<g id="XMLID_74_">
					<g id="XMLID_81_">
						<circle id="XMLID_15_" class="st9" cx="243.7" cy="305.9" r="23.5"/>
						<path id="XMLID_82_" class="st10" d="M243.7,330.3c-13.5,0-24.4-10.9-24.4-24.4c0-13.5,10.9-24.4,24.4-24.4
							c13.4,0,24.4,10.9,24.4,24.4C268.1,319.3,257.1,330.3,243.7,330.3z M243.7,283.3c-12.5,0-22.6,10.1-22.6,22.6
							c0,12.5,10.1,22.6,22.6,22.6c12.5,0,22.6-10.1,22.6-22.6C266.3,293.4,256.2,283.3,243.7,283.3z"/>
					</g>
					<g id="XMLID_75_">
						<circle id="XMLID_12_" class="st11" cx="243.7" cy="305.9" r="17.6"/>
						<g id="XMLID_76_">
							<circle id="XMLID_11_" class="st12" cx="243.7" cy="305.9" r="14.5"/>
							<circle id="XMLID_10_" class="st9" cx="238.3" cy="298.8" r="2.7"/>
							<circle id="XMLID_9_" class="st9" cx="233.4" cy="305.3" r="1.7"/>
						</g>
					</g>
				</g>
			</g>
			<g id="XMLID_60_">
				<g id="XMLID_61_">
					<g id="XMLID_68_">
						<circle id="XMLID_8_" class="st9" cx="336.7" cy="305.9" r="23.5"/>
						<path id="XMLID_69_" class="st10" d="M336.7,330.3c-13.4,0-24.4-10.9-24.4-24.4c0-13.5,10.9-24.4,24.4-24.4
							c13.4,0,24.4,10.9,24.4,24.4C361.1,319.3,350.2,330.3,336.7,330.3z M336.7,283.3c-12.5,0-22.6,10.1-22.6,22.6
							c0,12.5,10.1,22.6,22.6,22.6c12.5,0,22.6-10.1,22.6-22.6C359.4,293.4,349.2,283.3,336.7,283.3z"/>
					</g>
					<g id="XMLID_62_">
						<circle id="XMLID_5_" class="st11" cx="336.7" cy="305.9" r="17.6"/>
						<g id="XMLID_63_">
							<circle id="XMLID_4_" class="st12" cx="336.7" cy="305.9" r="14.5"/>
							<circle id="XMLID_3_" class="st9" cx="331.3" cy="298.8" r="2.7"/>
							<circle id="XMLID_2_" class="st9" cx="326.4" cy="305.3" r="1.7"/>
						</g>
					</g>
				</g>
			</g>
		</g>
	</g>
	<path id="XMLID_1_" class="st5" d="M318.9,94.2c-4,4.1-5.7,10.1-7.5,15.4c-2.3,6.5-4.9,12.9-6.9,19.5c-0.7,2.2-1.3,4.5-1.9,6.7
		c0.1-3.6,0.2-7.3,0.4-10.9c0.7-16.7,1.8-33.4,4.6-49.9c0.1-0.7,0-1.4-0.3-2c-3.4,6.6-7.1,13.2-9.3,20.3c-1.7,5.6-2.8,11.4-3.8,17.1
		c-0.2,1.2-0.4,2.3-0.6,3.5c0.1-13.3-5-67.5-6.1-64c-0.3,0.9-7.2,35.8-6.6,52.5c0.1,1.7,0.1,3.3,0.1,5c-0.9-4.8-1.9-9.5-3.3-14.2
		c-2.2-7.2-5.8-13.7-9.2-20.3c-0.3,0.6-0.4,1.3-0.3,2c2.9,16.5,3.9,33.2,4.6,49.9c0.2,3.6,0.3,7.3,0.4,10.9
		c-0.6-2.3-1.3-4.5-1.9-6.7c-2-6.7-4.6-13-6.9-19.5c-1.8-5.3-3.5-11.3-7.5-15.4c-0.7-0.7-1.8-0.7-2.8-0.4c1.2,6.2,2.3,12.3,3.3,18.5
		c0.7,4.4,1.2,8.8,1.8,13.3c0.7,3.5,1.2,7,1.8,10.4c1.1,7,1.7,14.1,1.7,21.2c0,1.9-0.1,3.8-0.3,5.7c0.3,5.4,0.5,10.8,0.6,16.3
		c0.4,0.2,0.8,0.4,1.3,0.4c5.7,0.2,11.3,5.2,15,9.1c2.3,2.4,4.3,5,5.9,7.9c0.2,0.4,0.5,0.9,0.7,1.3c0.5,3,0.9,6.1,1.1,9.2
		c0.1,1,0.4,1.7,1,2.1c0-1.3,0-2.5,0-3.8c0,1.3,0.1,2.5,0,3.8c0.5-0.4,0.9-1.1,1-2.1c0.2-3.1,0.6-6.1,1.1-9.2
		c0.2-0.5,0.5-0.9,0.7-1.3c1.6-2.9,3.6-5.5,5.9-7.9c3.7-3.9,9.3-8.9,15-9.1c0.5,0,1-0.2,1.3-0.4c0.1-5.4,0.4-10.8,0.6-16.3
		c-0.1-1.9-0.3-3.8-0.3-5.7c0-7.1,0.6-14.2,1.7-21.2c0.5-3.5,1.1-7,1.8-10.4c0.5-4.4,1.1-8.9,1.8-13.3c0.9-6.2,2-12.4,3.3-18.5
		C320.7,93.4,319.6,93.5,318.9,94.2z"/>
</g>
</svg>
