<svg xmlns="http://www.w3.org/2000/svg" width="24" height="22.5" viewBox="0 0 24 22.5">
  <g id="Groupe_291" data-name="Groupe 291" transform="translate(-115 -367.5)">
    <path id="account-outline" d="M12,4A4,4,0,1,1,8,8a4,4,0,0,1,4-4m0,2a2,2,0,1,0,2,2,2,2,0,0,0-2-2m0,7c2.67,0,8,1.33,8,4v3H4V17c0-2.67,5.33-4,8-4m0,1.9c-2.97,0-6.1,1.46-6.1,2.1v1.1H18.1V17C18.1,16.36,14.97,14.9,12,14.9Z" transform="translate(119 370)" fill="#4973d2"/>
    <path id="Tracé_2006" data-name="Tracé 2006" d="M-5216.332-3975.135s-4.857-3.408-2.6-7.854a5.951,5.951,0,0,1,8.188-2.654" transform="translate(5341 4359)" fill="none" stroke="#4973d2" stroke-width="2"/>
    <line id="Ligne_69" data-name="Ligne 69" x1="3" y1="3" transform="translate(118.5 370.5)" fill="none" stroke="#4973d2" stroke-width="2"/>
    <path id="Tracé_2007" data-name="Tracé 2007" d="M0,3.451V0" transform="translate(128 367.5)" fill="#7b99de" stroke="#4973d2" stroke-width="2"/>
    <line id="Ligne_71" data-name="Ligne 71" y1="2" x2="2" transform="translate(133.5 370.5)" fill="none" stroke="#4973d2" stroke-width="2"/>
    <line id="Ligne_72" data-name="Ligne 72" x1="4" transform="translate(115 379)" fill="none" stroke="#4973d2" stroke-width="2"/>
    <line id="Ligne_73" data-name="Ligne 73" x1="2" y2="2" transform="translate(119 383.865)" fill="none" stroke="#4973d2" stroke-width="2"/>
  </g>
</svg>
