<svg xmlns="http://www.w3.org/2000/svg" width="30.548" height="60.104" viewBox="0 0 30.548 60.104">
  <g id="Groupe_440" data-name="Groupe 440" transform="translate(-445 -737.623)">
    <g id="_323_notifications_flatline" data-name="#323_notifications_flatline" transform="translate(445 737.623)">
      <path id="Tracé_3887" data-name="Tracé 3887" d="M138.844,140.786c-.068.088-.3,4.972-.547,5.223-.681.681-.594-.73-.594-.73s-1.306,2.849-2.065,2.632c-1.382-.394.054-3.693.406-4.362a23.154,23.154,0,0,0,.379-3.909" transform="translate(-134.928 -111.754)" fill="#f2f1f7"/>
      <path id="Tracé_3888" data-name="Tracé 3888" d="M135.344,147.664a.46.46,0,0,1-.114-.015.847.847,0,0,1-.562-.5c-.452-1.061.574-3.418.888-4.019a23.437,23.437,0,0,0,.372-3.868.124.124,0,0,1,.124-.119.119.119,0,0,1,.119.124,22.674,22.674,0,0,1-.384,3.936.087.087,0,0,1,0,.027c-.275.525-1.3,2.854-.885,3.824a.608.608,0,0,0,.406.365c.452.129,1.4-1.423,1.919-2.566a.122.122,0,0,1,.141-.068.127.127,0,0,1,.092.126c-.022.331.032.73.139.783.032.015.114-.015.243-.146a29.406,29.406,0,0,0,.394-3.761c.1-1.394.1-1.4.146-1.46a.121.121,0,0,1,.207.122c-.022.1-.066.705-.112,1.348-.178,2.52-.294,3.749-.462,3.917s-.372.263-.518.195a.628.628,0,0,1-.268-.511C136.815,146.214,135.993,147.664,135.344,147.664Z" transform="translate(-134.554 -111.375)" fill="#1f4076"/>
      <path id="Tracé_3889" data-name="Tracé 3889" d="M223.64,89.776l2.919-1.267s.584-1.4,1.165-1.576a15.1,15.1,0,0,1,2.085-.272,1.158,1.158,0,0,1,.445,1.233,3.947,3.947,0,0,1-2.878,2.566l-2.88,2.535" transform="translate(-201.969 -71.662)" fill="#f2f1f7"/>
      <path id="Tracé_3890" data-name="Tracé 3890" d="M224.086,92.737a.127.127,0,0,1-.092-.041.119.119,0,0,1,.012-.17l2.875-2.535a.124.124,0,0,1,.056-.029,3.824,3.824,0,0,0,2.783-2.472,1.048,1.048,0,0,0-.36-1.085,14.246,14.246,0,0,0-2.022.265c-.431.129-.929,1.131-1.085,1.506a.124.124,0,0,1-.066.066l-2.919,1.267a.122.122,0,1,1-.1-.224l2.866-1.248c.119-.275.645-1.43,1.216-1.6a14.947,14.947,0,0,1,2.114-.277.124.124,0,0,1,.073.017,1.27,1.27,0,0,1,.5,1.36A4.027,4.027,0,0,1,227,90.192l-2.854,2.515a.127.127,0,0,1-.063.029Z" transform="translate(-201.559 -71.282)" fill="#1f4076"/>
      <path id="Tracé_3891" data-name="Tracé 3891" d="M236.737,79.48l-3.617,4.612,2.112.251,3.355-4.486Z" transform="translate(-209.142 -66.229)" fill="#5c6f99"/>
      <path id="Tracé_3892" data-name="Tracé 3892" d="M234.853,84.116h-.015l-2.112-.243a.122.122,0,0,1-.1-.073.117.117,0,0,1,.017-.122l3.617-4.622a.119.119,0,0,1,.119-.044l1.851.377a.119.119,0,0,1,.088.075.114.114,0,0,1-.017.114L234.95,84.06A.126.126,0,0,1,234.853,84.116Zm-1.883-.467,1.827.217,3.2-4.277-1.589-.338Z" transform="translate(-208.763 -65.872)" fill="#5c6f99"/>
      <path id="Tracé_3893" data-name="Tracé 3893" d="M238.569,79.85,235.39,83.9l1.406.207,3.133-3.97Z" transform="translate(-210.86 -66.508)" fill="#1f4076"/>
      <path id="Tracé_3894" data-name="Tracé 3894" d="M206.316,99.663l-1.433-3.323L197.7,99.663l.73,5.734S204.888,101.543,206.316,99.663Z" transform="translate(-182.339 -78.987)" fill="#fce15c"/>
      <path id="Tracé_3895" data-name="Tracé 3895" d="M220.085,240.43s1.53,3.775,1.391,3.773-3.44.523-3.44.523-1.506-3.1-1.46-3.162S220.085,240.43,220.085,240.43Z" transform="translate(-196.623 -188.025)" fill="#f2f1f7"/>
      <path id="Tracé_3896" data-name="Tracé 3896" d="M217.657,244.469a.122.122,0,0,1-.109-.068c-1.533-3.162-1.5-3.206-1.46-3.277s.058-.112,3.588-1.19a.124.124,0,0,1,.148.071c1.5,3.712,1.43,3.819,1.384,3.892a.122.122,0,0,1-.107.056c-.129,0-2.116.314-3.418.521Zm-1.321-3.221c.153.387.893,1.946,1.391,2.965.63-.1,2.676-.428,3.238-.5-.119-.457-.842-2.3-1.333-3.515C218.469,240.555,216.737,241.1,216.336,241.249Z" transform="translate(-196.243 -187.647)" fill="#1f4076"/>
      <path id="Tracé_3897" data-name="Tracé 3897" d="M226.02,255.94s5.427.4,5.573,1.4-8.125,2.411-8.125,2.411l-.888-3.284Z" transform="translate(-201.166 -199.762)" fill="#1f4076"/>
      <path id="Tracé_3898" data-name="Tracé 3898" d="M223.089,259.488a.119.119,0,0,1-.117-.088l-.888-3.284a.114.114,0,0,1,.015-.1.119.119,0,0,1,.083-.054l3.44-.525h.029c.922.068,5.532.465,5.683,1.5s-6.257,2.209-8.222,2.547Zm-.73-3.3.817,3.041c3.892-.674,8-1.717,7.916-2.255-.049-.345-1.574-1-5.447-1.292Z" transform="translate(-200.788 -199.384)" fill="#1f4076"/>
      <path id="Tracé_3899" data-name="Tracé 3899" d="M172.677,226.4l-1.569,1.343L168.96,224.8l2.27-1.834Z" transform="translate(-160.59 -174.812)" fill="#f2f1f7"/>
      <path id="Tracé_3900" data-name="Tracé 3900" d="M170.768,227.495h0a.119.119,0,0,1-.085-.049l-2.148-2.939a.122.122,0,0,1,.022-.168l2.27-1.834a.112.112,0,0,1,.107-.022.119.119,0,0,1,.083.071l1.46,3.432a.124.124,0,0,1-.034.139l-1.593,1.345A.122.122,0,0,1,170.768,227.495Zm-1.98-3.041,2,2.742,1.4-1.2-1.35-3.2Z" transform="translate(-160.25 -174.44)" fill="#1f4076"/>
      <path id="Tracé_3901" data-name="Tracé 3901" d="M163.76,233.451s1.1,5.656.163,5.461-4.673-6.422-4.673-6.422l2.362-1.98Z" transform="translate(-153.242 -180.518)" fill="#1f4076"/>
      <path id="Tracé_3902" data-name="Tracé 3902" d="M163.6,238.651a.374.374,0,0,1-.073,0c-.956-.2-4.379-5.838-4.753-6.478a.124.124,0,0,1,.027-.156l2.362-1.978a.119.119,0,0,1,.088-.039.114.114,0,0,1,.083.049l2.15,2.939a.121.121,0,0,1,.019.049c0,.012.243,1.216.394,2.493.328,2.618.017,2.919-.085,3.024A.292.292,0,0,1,163.6,238.651Zm-4.564-6.522c1.5,2.486,3.892,6.145,4.542,6.279a.068.068,0,0,0,.068-.019c.4-.392-.015-3.43-.37-5.274l-2.058-2.812Z" transform="translate(-152.866 -180.132)" fill="#1f4076"/>
      <path id="Tracé_3903" data-name="Tracé 3903" d="M181.938,130.069s9.349,13.175,9.368,14.353c.044,2.292-14.18,12.178-14.18,12.178l-2.4-4.362,8.716-7.848-8.191-14.9Z" transform="translate(-164.957 -104.073)" fill="#1f4076"/>
      <path id="Tracé_3904" data-name="Tracé 3904" d="M176.747,156.381h-.027a.109.109,0,0,1-.078-.061l-2.4-4.357a.119.119,0,0,1,.027-.148l8.643-7.784-8.145-14.815a.119.119,0,0,1,.117-.178l6.682.569a.126.126,0,0,1,.088.051c.973,1.353,9.371,13.241,9.392,14.423.044,2.33-13.65,11.876-14.231,12.28A.127.127,0,0,1,176.747,156.381Zm-2.245-4.452,2.287,4.155c.628-.44,3.831-2.7,6.991-5.15,6.135-4.768,7.038-6.337,7.028-6.85-.017-.932-6.7-10.55-9.317-14.241l-6.4-.547,8.084,14.7a.122.122,0,0,1-.024.148Z" transform="translate(-164.577 -103.73)" fill="#1f4076"/>
      <path id="Tracé_3905" data-name="Tracé 3905" d="M166.14,133.191l12.548,28.041,4.8-1.992-9.825-27.54Z" transform="translate(-158.456 -105.745)" fill="#1f4076"/>
      <path id="Tracé_3906" data-name="Tracé 3906" d="M178.308,160.977a.119.119,0,0,1-.109-.073l-12.548-28.048a.119.119,0,0,1,0-.107.122.122,0,0,1,.083-.063l7.534-1.481a.124.124,0,0,1,.139.078l9.825,27.54a.122.122,0,0,1-.068.153l-4.8,1.992A.1.1,0,0,1,178.308,160.977ZM165.933,132.9,178.376,160.7l4.586-1.9-9.755-27.333Z" transform="translate(-158.076 -105.368)" fill="#1f4076"/>
      <path id="Tracé_3907" data-name="Tracé 3907" d="M207,155.908a.122.122,0,0,1-.114-.08l-5.629-15.245a.119.119,0,0,1,.017-.114l.973-1.316a.124.124,0,0,1,.17-.024.122.122,0,0,1,.027.17l-.934,1.26,5.6,15.185a.119.119,0,0,1-.071.156A.093.093,0,0,1,207,155.908Z" transform="translate(-185.024 -111.348)" fill="#fff"/>
      <path id="Tracé_3908" data-name="Tracé 3908" d="M179.458,33.446a.46.46,0,0,1-.55-.487l-.144-2.433a7.879,7.879,0,0,1,.078-2.206,1.89,1.89,0,0,1,1.294-1.547c.243-.044.487-.017.73-.078.445-.114.747-.513,1.124-.776a2.1,2.1,0,0,1,2.06-.175,3.7,3.7,0,0,0,.535.243c.589.168,1.18-.243,1.788-.292A2.293,2.293,0,0,1,188.48,27.2a2.546,2.546,0,0,1-.837,3.287,6.329,6.329,0,0,1-2.715.212c-.956.041-1.384.759-2.085,1.314a5.172,5.172,0,0,1-2.284,1.058,3.877,3.877,0,0,0-.691.282A1.486,1.486,0,0,1,179.458,33.446Z" transform="translate(-167.976 -25.42)" fill="#f2f1f7"/>
      <path id="Tracé_3909" data-name="Tracé 3909" d="M179.034,33.147a.574.574,0,0,1-.625-.586l-.146-2.447a7.967,7.967,0,0,1,.08-2.24,2.007,2.007,0,0,1,1.391-1.64,2.822,2.822,0,0,1,.343-.034,1.793,1.793,0,0,0,.37-.041,1.876,1.876,0,0,0,.73-.465c.117-.1.243-.2.362-.294a2.2,2.2,0,0,1,2.189-.185l.175.09a1.782,1.782,0,0,0,.343.156,1.8,1.8,0,0,0,1.024-.126,3.427,3.427,0,0,1,.718-.17,2.408,2.408,0,0,1,2.231,1.581,2.667,2.667,0,0,1-.9,3.445,3.7,3.7,0,0,1-1.946.243,7.655,7.655,0,0,0-.817-.019,2.251,2.251,0,0,0-1.5.822c-.163.156-.331.316-.521.465a5.294,5.294,0,0,1-2.352,1.09,1.1,1.1,0,0,0-.367.141,1.829,1.829,0,0,1-.3.136,1.552,1.552,0,0,1-.435.088Zm3.754-7.9a1.946,1.946,0,0,0-1.119.343,3.746,3.746,0,0,0-.341.285,2.09,2.09,0,0,1-.822.516,2.277,2.277,0,0,1-.418.049,3.029,3.029,0,0,0-.309.029,1.776,1.776,0,0,0-1.2,1.46A7.734,7.734,0,0,0,178.5,30.1l.148,2.445c.015.26.144.37.423.355h0a1.384,1.384,0,0,0,.372-.075,1.5,1.5,0,0,0,.265-.119,1.3,1.3,0,0,1,.44-.168,5.014,5.014,0,0,0,2.231-1.031c.182-.144.345-.3.506-.45a2.463,2.463,0,0,1,1.649-.89,8.117,8.117,0,0,1,.844.019,3.463,3.463,0,0,0,1.822-.219,2.421,2.421,0,0,0,.781-3.126A2.2,2.2,0,0,0,186,25.4a3.162,3.162,0,0,0-.667.161,2.009,2.009,0,0,1-1.163.127,1.975,1.975,0,0,1-.392-.175c-.056-.029-.109-.058-.165-.083A1.89,1.89,0,0,0,182.787,25.248Z" transform="translate(-167.596 -25.006)" fill="#1f4076"/>
      <path id="Tracé_3910" data-name="Tracé 3910" d="M203.462,48.55s.659,1.637.4,1.9-.861-.083-.861-.083" transform="translate(-186.349 -42.823)" fill="#f2f1f7"/>
      <path id="Tracé_3911" data-name="Tracé 3911" d="M203.174,50.291a1.552,1.552,0,0,1-.65-.187.124.124,0,0,1-.049-.165.119.119,0,0,1,.163-.049c.139.075.572.243.73.095a3.84,3.84,0,0,0-.426-1.764.122.122,0,0,1,.226-.09c.207.513.657,1.742.372,2.026A.5.5,0,0,1,203.174,50.291Z" transform="translate(-185.942 -42.448)" fill="#1f4076"/>
      <path id="Tracé_3912" data-name="Tracé 3912" d="M187.122,37.652c.506.62.114,1.63-.029,2.311q-.307,1.43-.676,2.851c-.158.6-1.73.289-1.97.051l-.265,2.036a1.1,1.1,0,0,1-1.744.187,2.952,2.952,0,0,1-1.277-1.717l.671-2.746a2.017,2.017,0,0,0,1.9-.89,8.4,8.4,0,0,0,1.231-3.014A4.947,4.947,0,0,1,187.122,37.652Z" transform="translate(-169.822 -33.87)" fill="#f2f1f7"/>
      <path id="Tracé_3913" data-name="Tracé 3913" d="M182.919,45.174a1.589,1.589,0,0,1-.932-.358,3.049,3.049,0,0,1-1.323-1.8.148.148,0,0,1,0-.046l.674-2.746a.119.119,0,0,1,.141-.09,1.91,1.91,0,0,0,1.783-.844,8.359,8.359,0,0,0,1.216-2.965.134.134,0,0,1,.054-.078.117.117,0,0,1,.09-.017,4.992,4.992,0,0,1,2.228.973h0c.457.562.243,1.384.083,2.046-.032.129-.063.243-.088.365-.2.954-.433,1.917-.679,2.858a.564.564,0,0,1-.445.387,2.751,2.751,0,0,1-1.545-.165l-.243,1.851a.134.134,0,0,1-.015.044,1.258,1.258,0,0,1-.771.56A1.078,1.078,0,0,1,182.919,45.174ZM180.908,43a3.03,3.03,0,0,0,1.216,1.618,1.216,1.216,0,0,0,.954.292,1,1,0,0,0,.6-.423l.263-2.009a.124.124,0,0,1,.083-.1.122.122,0,0,1,.124.029,2.379,2.379,0,0,0,1.491.216.353.353,0,0,0,.277-.214c.243-.937.472-1.9.674-2.846.024-.117.056-.243.09-.375.153-.608.345-1.365-.034-1.832a4.486,4.486,0,0,0-1.97-.866,8.144,8.144,0,0,1-1.228,2.946,2.158,2.158,0,0,1-1.907.951Z" transform="translate(-169.446 -33.499)" fill="#1f4076"/>
      <path id="Tracé_3914" data-name="Tracé 3914" d="M199.935,57.125a.8.8,0,0,1-1.075-.545" transform="translate(-183.217 -48.899)" fill="#f2f1f7"/>
      <path id="Tracé_3915" data-name="Tracé 3915" d="M199.225,56.909a.925.925,0,0,1-.416-.092.9.9,0,0,1-.443-.591.126.126,0,1,1,.243-.066.662.662,0,0,0,.319.44.851.851,0,0,0,.594.022.122.122,0,0,1,.085.229A1.294,1.294,0,0,1,199.225,56.909Z" transform="translate(-182.84 -48.511)" fill="#1f4076"/>
      <path id="Tracé_3916" data-name="Tracé 3916" d="M191.877,44.929a1.314,1.314,0,0,0-.134-.713,1.861,1.861,0,0,0-.258-.5A.63.63,0,0,0,191,43.45a.6.6,0,0,0-.438.219,1.121,1.121,0,0,0-.217.45,2.1,2.1,0,0,0,.574,2.017l-.041-.068" transform="translate(-176.725 -38.963)" fill="#f2f1f7"/>
      <path id="Tracé_3917" data-name="Tracé 3917" d="M190.566,45.919a.119.119,0,0,1-.083-.034,2.231,2.231,0,0,1-.608-2.136,1.255,1.255,0,0,1,.243-.487.713.713,0,0,1,.528-.263.781.781,0,0,1,.579.307,2.084,2.084,0,0,1,.275.538,1.442,1.442,0,0,1,.139.778.119.119,0,0,1-.141.1.122.122,0,0,1-.1-.141,1.233,1.233,0,0,0-.126-.645,1.742,1.742,0,0,0-.243-.474.552.552,0,0,0-.387-.217.469.469,0,0,0-.345.178.974.974,0,0,0-.19.4,1.985,1.985,0,0,0,.443,1.8.117.117,0,0,1,.075.056l.041.068a.124.124,0,0,1-.027.158A.131.131,0,0,1,190.566,45.919Z" transform="translate(-176.367 -38.623)" fill="#1f4076"/>
      <path id="Tracé_3918" data-name="Tracé 3918" d="M191.411,58.716a2.583,2.583,0,0,1-1.027-1.056,2.191,2.191,0,0,0,.917,2.148Z" transform="translate(-176.786 -49.717)" fill="#1f4076"/>
      <path id="Tracé_3919" data-name="Tracé 3919" d="M190.942,59.566a.127.127,0,0,1-.061-.017,2.331,2.331,0,0,1-.973-2.272.123.123,0,0,1,.234-.027,2.547,2.547,0,0,0,.973,1,.124.124,0,0,1,.063.119l-.112,1.09a.117.117,0,0,1-.066.095A.112.112,0,0,1,190.942,59.566Zm-.82-1.856a1.915,1.915,0,0,0,.73,1.52l.083-.813a3.009,3.009,0,0,1-.812-.715Z" transform="translate(-176.427 -49.351)" fill="#1f4076"/>
      <ellipse id="Ellipse_380" data-name="Ellipse 380" cx="0.35" cy="0.136" rx="0.35" ry="0.136" transform="translate(16.452 5.233) rotate(-68.81)" fill="#1f4076"/>
      <path id="Tracé_3920" data-name="Tracé 3920" d="M163.9,64.762s4.233.17,5.318,2.462.73,10.149,1.357,10.811a18.756,18.756,0,0,1,2.073,4.026c-.049.134-11.319,1.357-11.319,1.357s-.126-2.569-.65-5.97S160.775,64.358,163.9,64.762Z" transform="translate(-154.201 -55.082)" fill="#fce15c"/>
      <path id="Tracé_3921" data-name="Tracé 3921" d="M181.749,147.245a.109.109,0,0,1-.075-.027.122.122,0,0,1-.022-.17c1.53-1.932.744-2.958.71-3a.119.119,0,0,1,.017-.17.122.122,0,0,1,.17.017c.039.049.951,1.216-.705,3.306A.119.119,0,0,1,181.749,147.245Z" transform="translate(-170.175 -114.939)" fill="#fff"/>
      <path id="Tracé_3922" data-name="Tracé 3922" d="M145.055,64.75s-6.483,7.043-7.585,20.227l3.649-.075a55.319,55.319,0,0,1,6.142-14.219Z" transform="translate(-136.761 -55.082)" fill="#fce15c"/>
      <path id="Tracé_3923" data-name="Tracé 3923" d="M198.96,88.36h-.024a.126.126,0,0,1-.1-.107c-.041-.117-.428-.786-.769-1.374-.487-.839-.988-1.7-1.085-1.968-.109-.3-.243-2.433-.428-5.206-.078-1.216-.146-2.262-.185-2.656a14.487,14.487,0,0,0-.569-2.472.127.127,0,1,1,.243-.075,14.428,14.428,0,0,1,.579,2.523c.041.4.109,1.46.185,2.676.131,2.046.309,4.846.416,5.138.09.243.608,1.138,1.068,1.932.817,1.413.815,1.433.8,1.508A.122.122,0,0,1,198.96,88.36Z" transform="translate(-180.898 -62.393)" fill="#5c6f99"/>
      <path id="Tracé_3924" data-name="Tracé 3924" d="M154.3,97.381a.11.11,0,0,1-.039,0,.124.124,0,0,1-.075-.156c.032-.088,3.162-8.894,6.429-13.08a.121.121,0,1,1,.19.151c-3.25,4.157-6.359,12.915-6.388,13a.126.126,0,0,1-.117.08Z" transform="translate(-149.409 -69.723)" fill="#5c6f99"/>
      <path id="Tracé_3925" data-name="Tracé 3925" d="M243.91,88.822a4.043,4.043,0,0,1,.73-2.472c.141-.17.362-.336.562-.243a.487.487,0,0,1,.231.387,1.367,1.367,0,0,0,.095.455" transform="translate(-217.308 -71.224)" fill="#f2f1f7"/>
      <path id="Tracé_3926" data-name="Tracé 3926" d="M243.539,88.563h0a.122.122,0,0,1-.119-.124,4.043,4.043,0,0,1,.761-2.545c.224-.275.487-.379.708-.28a.574.574,0,0,1,.3.487,1.041,1.041,0,0,1,.015.122.843.843,0,0,0,.068.3.122.122,0,0,1-.217.112,1.085,1.085,0,0,1-.092-.382.3.3,0,0,0-.015-.112c-.012-.088-.051-.243-.158-.292s-.309.075-.418.212a3.8,3.8,0,0,0-.708,2.4A.124.124,0,0,1,243.539,88.563Z" transform="translate(-216.937 -70.843)" fill="#1f4076"/>
      <path id="Tracé_3927" data-name="Tracé 3927" d="M157.835,52.762a2.885,2.885,0,0,0-1.078-.487,2.476,2.476,0,0,0-1.506.367,3.878,3.878,0,0,0-1.545,1.37,2.09,2.09,0,0,0-.134,1.995,2.277,2.277,0,0,0,1.586,1.08,7.176,7.176,0,0,0,1.978.041,13.722,13.722,0,0,1,1.9-.022,33.8,33.8,0,0,1,3.819.769c.805.153.487-.7.182-1.014q-.774-.781-1.615-1.489a32.014,32.014,0,0,0-3.586-2.61Z" transform="translate(-148.801 -45.636)" fill="#fce15c"/>
    </g>
    <path id="Tracé_4133" data-name="Tracé 4133" d="M8091.184,1128.038c.455-1.089,2.688-3.825,2.656-4.345s-.183-1.038-.336-1.093a5.063,5.063,0,0,0-4.937-.2c-.3.407-.567.775-.625.867s-3.361,5.49-4.046,8.536-1.68-6.363-1.256-7.634a2.46,2.46,0,0,1,2.688-1.39c.724.123,1.27.307,1.417.208a11.118,11.118,0,0,1,3.112-1.442c1.057-.143,3.322.079,3.984.855a1.421,1.421,0,0,1,.288,1.769C8093.9,1124.558,8093.213,1126.927,8091.184,1128.038Z" transform="translate(-7636.435 -373.45)" fill="#5c6f99"/>
  </g>
</svg>
