<svg xmlns="http://www.w3.org/2000/svg" width="75.209" height="67.113" viewBox="0 0 75.209 67.113">
  <g id="_333_bicycle_flatline" data-name="#333_bicycle_flatline" transform="translate(-82.05 -43.556)">
    <rect id="Rectangle_1960" data-name="Rectangle 1960" width="3.158" height="8.601" transform="translate(135.869 69.599) rotate(-11.91)" fill="#5c6f99"/>
    <path id="Tracé_3617" data-name="Tracé 3617" d="M256.652,134.125a.14.14,0,0,1-.137-.115l-1.775-8.415a.127.127,0,0,1,.019-.106.143.143,0,0,1,.09-.062l3.09-.653a.14.14,0,0,1,.106.022.137.137,0,0,1,.062.087l1.775,8.418a.143.143,0,0,1-.109.168l-3.09.653Zm-1.607-8.449,1.719,8.138,2.8-.594-1.716-8.138Z" transform="translate(-119.007 -55.97)" fill="#1f4076"/>
    <path id="Tracé_3618" data-name="Tracé 3618" d="M257.123,121.2l-1.694.357a1.554,1.554,0,0,0-.426,1.436l-.053.127,3.09-.653.053-.124A1.576,1.576,0,0,0,257.123,121.2Z" transform="translate(-119.155 -53.509)" fill="#f2f1f7"/>
    <path id="Tracé_3619" data-name="Tracé 3619" d="M254.685,122.941a.143.143,0,0,1-.112-.053.146.146,0,0,1-.019-.146l.034-.087a1.722,1.722,0,0,1,.473-1.523.177.177,0,0,1,.071-.037l1.694-.357a.143.143,0,0,1,.081,0,1.716,1.716,0,0,1,1.06,1.243.168.168,0,0,1,0,.087l-.053.124a.14.14,0,0,1-.1.084l-3.09.653Zm.55-1.579a1.439,1.439,0,0,0-.364,1.243l2.8-.622a1.427,1.427,0,0,0-.836-.982Z" transform="translate(-118.874 -53.185)" fill="#1f4076"/>
    <rect id="Rectangle_1961" data-name="Rectangle 1961" width="1.787" height="1.147" transform="translate(135.979 66.94) rotate(-11.91)" fill="#f2f1f7"/>
    <path id="Tracé_3620" data-name="Tracé 3620" d="M255.47,118.905a.146.146,0,0,1-.14-.112l-.236-1.122a.14.14,0,0,1,.022-.106.121.121,0,0,1,.087-.062l1.75-.37a.143.143,0,0,1,.168.109l.236,1.122a.137.137,0,0,1-.109.168l-1.75.37Zm-.068-1.153.177.842,1.473-.311-.18-.842Z" transform="translate(-119.252 -50.704)" fill="#1f4076"/>
    <path id="Tracé_3621" data-name="Tracé 3621" d="M205.33,229.485s1.051,1.961,1.2,2.2,5.6-3.168,5.393-3.665-4.072.127-4.072.127Z" transform="translate(-84.959 -126.994)" fill="#5c6f99"/>
    <path id="Tracé_3622" data-name="Tracé 3622" d="M206.256,231.529a.152.152,0,0,1-.146-.078c-.149-.242-1.159-2.132-1.2-2.213a.146.146,0,0,1,0-.109.159.159,0,0,1,.072-.084l2.521-1.33a.106.106,0,0,1,.043-.016c1.486-.239,4.01-.563,4.224-.04.267.647-4.255,3.31-4.89,3.637A1.694,1.694,0,0,1,206.256,231.529Zm-1.032-2.3c.218.407.892,1.663,1.088,2.008.675-.186,4.974-2.934,5.172-3.478-.242-.211-2.176-.056-3.886.218Z" transform="translate(-84.66 -126.681)" fill="#5c6f99"/>
    <path id="Tracé_3623" data-name="Tracé 3623" d="M175.457,168.67l8.122,18.71-2.521,1.334L170.11,168.962Z" transform="translate(-60.687 -86.223)" fill="#f2f1f7"/>
    <path id="Tracé_3624" data-name="Tracé 3624" d="M180.746,188.536a.14.14,0,0,1-.124-.072l-10.948-19.751a.152.152,0,0,1,0-.137.146.146,0,0,1,.118-.075l5.347-.292a.143.143,0,0,1,.137.087l8.122,18.71a.137.137,0,0,1-.065.18l-2.521,1.334A.118.118,0,0,1,180.746,188.536Zm-10.712-19.77L180.8,188.2l2.282-1.206L175.049,168.5Z" transform="translate(-60.375 -85.905)" fill="#1f4076"/>
    <path id="Tracé_3625" data-name="Tracé 3625" d="M149,137.724c-.146.516,9.7,14.647,9.7,14.647l4.712-2.891S159.2,137,156.855,135.775,149.435,136.17,149,137.724Z" transform="translate(-46.135 -63.256)" fill="#1f4076"/>
    <path id="Tracé_3626" data-name="Tracé 3626" d="M158.369,152.219a.152.152,0,0,1-.127-.068c-2.975-4.265-9.876-14.246-9.726-14.775h0c.224-.79,1.374-1.389,2.039-1.679,1.837-.79,4.5-1.172,6.04-.367,2.372,1.243,6.463,13.283,6.633,13.792a.152.152,0,0,1-.065.183l-4.712,2.888A.155.155,0,0,1,158.369,152.219Zm-9.549-14.781c.162.709,5.776,8.94,9.593,14.414l4.482-2.745c-.438-1.271-4.3-12.381-6.444-13.5-1.452-.758-4-.382-5.772.379A3.287,3.287,0,0,0,148.819,137.438Zm-.155-.031Z" transform="translate(-45.803 -62.939)" fill="#1f4076"/>
    <path id="Tracé_3627" data-name="Tracé 3627" d="M97.058,192.915a15.008,15.008,0,1,1,15.008-15.008A15.008,15.008,0,0,1,97.058,192.915Zm0-27.839a12.832,12.832,0,1,0,12.832,12.832,12.832,12.832,0,0,0-12.832-12.832Z" transform="translate(0 -82.246)" fill="#1f4076"/>
    <path id="Tracé_3628" data-name="Tracé 3628" d="M113,172.38a.622.622,0,0,1-.6-.466,14.812,14.812,0,0,0-27.7-2.689.622.622,0,1,1-1.119-.538,16.052,16.052,0,0,1,30.022,2.919.622.622,0,0,1-.448.755A.665.665,0,0,1,113,172.38Z" transform="translate(-1.001 -79.948)" fill="#fce15c"/>
    <circle id="Ellipse_369" data-name="Ellipse 369" cx="2.014" cy="2.014" r="2.014" transform="translate(95.043 93.647)" fill="#1f4076"/>
    <path id="Tracé_3629" data-name="Tracé 3629" d="M242.432,192.915a15.008,15.008,0,1,1,15.023-15.008,15.008,15.008,0,0,1-15.023,15.008Zm0-27.839a12.832,12.832,0,1,0,12.847,12.832A12.832,12.832,0,0,0,242.432,165.076Z" transform="translate(-100.196 -82.246)" fill="#1f4076"/>
    <path id="Tracé_3630" data-name="Tracé 3630" d="M225.862,177.048a.622.622,0,0,1-.622-.622,15.692,15.692,0,0,1,15.676-15.676.622.622,0,1,1,0,1.243,14.448,14.448,0,0,0-14.433,14.433A.622.622,0,0,1,225.862,177.048Z" transform="translate(-98.68 -80.765)" fill="#fce15c"/>
    <circle id="Ellipse_370" data-name="Ellipse 370" cx="2.014" cy="2.014" r="2.014" transform="translate(140.222 93.647)" fill="#1f4076"/>
    <path id="Tracé_3631" data-name="Tracé 3631" d="M216.443,155.833a.621.621,0,0,1-.407-.152,21.65,21.65,0,0,1-4.43-5.6c-1.34-2.537-4.663-12.987-6.012-17.379-1.5,4.411-5.978,14.964-15.592,19.2a.622.622,0,1,1-.5-1.138c11.483-5.064,15.452-20.186,15.49-20.339a.622.622,0,0,1,1.2-.028c.05.162,4.905,16.037,6.528,19.1a20.717,20.717,0,0,0,4.144,5.247.622.622,0,0,1-.407,1.091Z" transform="translate(-73.793 -59.549)" fill="#fce15c"/>
    <path id="Tracé_3632" data-name="Tracé 3632" d="M181.1,174.36a.8.8,0,0,1-.118,0,.622.622,0,0,1-.469-.41l-6.086-18.029a.622.622,0,0,1,1.175-.4l5.744,16.991,16-18.34a.622.622,0,1,1,.933.818l-16.7,19.164A.622.622,0,0,1,181.1,174.36Z" transform="translate(-63.645 -76.062)" fill="#fce15c"/>
    <path id="Tracé_3633" data-name="Tracé 3633" d="M149.012,186.5h-.062l-20.569-2.014a.622.622,0,0,1-.311-1.119L144,171.656a.622.622,0,0,1,.737,1l-14.61,10.752,18.962,1.865a.622.622,0,0,1-.059,1.243Z" transform="translate(-31.541 -88.205)" fill="#fce15c"/>
    <path id="Tracé_3634" data-name="Tracé 3634" d="M231.031,123.227a.622.622,0,0,1-.575-.385l-1.175-2.863-2.7-.336a.626.626,0,0,1,.152-1.243l3.062.379a.622.622,0,0,1,.5.382l1.321,3.208a.622.622,0,0,1-.575.858Z" transform="translate(-99.224 -51.575)" fill="#1f4076"/>
    <path id="Tracé_3635" data-name="Tracé 3635" d="M166.007,151.421s-8.007-.587-8.007,0,1.051,2.568,2.453,2.683,4.784-.668,5.542-1.47S166.007,151.421,166.007,151.421Z" transform="translate(-52.341 -74.156)" fill="#fce15c"/>
    <path id="Tracé_3636" data-name="Tracé 3636" d="M160.441,153.956h-.311c-1.511-.127-2.58-2.195-2.58-2.826a.211.211,0,0,1,.075-.162c.541-.5,6.817-.071,8.082.019a.186.186,0,0,1,.059.019.827.827,0,0,1,.4.553,1.054,1.054,0,0,1-.367.88C165.038,153.238,161.958,153.956,160.441,153.956Zm-2.592-2.8c.04.538,1.013,2.4,2.319,2.509,1.4.115,4.716-.678,5.427-1.43a.8.8,0,0,0,.292-.622.525.525,0,0,0-.233-.336c-3.556-.28-7.4-.385-7.805-.124Z" transform="translate(-52.031 -73.858)" fill="#fce15c"/>
    <path id="Tracé_3637" data-name="Tracé 3637" d="M175.961,202.061a.311.311,0,0,1-.19-.068l-8.7-6.863a.311.311,0,1,1,.385-.488l8.7,6.864a.311.311,0,0,1-.193.556Z" transform="translate(-58.508 -104.074)" fill="#1f4076"/>
    <path id="Tracé_3638" data-name="Tracé 3638" d="M201.932,222.8a.311.311,0,0,1-.2-.072l-6.708-5.542a.311.311,0,1,1,.395-.479l6.711,5.542a.311.311,0,0,1-.2.55Z" transform="translate(-77.769 -119.268)" fill="#1f4076"/>
    <rect id="Rectangle_1962" data-name="Rectangle 1962" width="5.685" height="0.942" rx="0.471" transform="matrix(0.822, 0.57, -0.57, 0.822, 108.119, 88.887)" fill="#f2f1f7"/>
    <path id="Tracé_3639" data-name="Tracé 3639" d="M168.843,193.46a.622.622,0,0,1-.348-.109h0l-3.9-2.7a.622.622,0,0,1-.252-.395.591.591,0,0,1,.1-.46.611.611,0,0,1,.852-.155l3.907,2.7a.622.622,0,0,1-.351,1.119Zm-.186-.342a.331.331,0,1,0,.376-.544l-3.9-2.7a.329.329,0,0,0-.457.084.311.311,0,0,0-.056.246.326.326,0,0,0,.137.211Z" transform="translate(-56.706 -100.599)" fill="#1f4076"/>
    <rect id="Rectangle_1963" data-name="Rectangle 1963" width="6.058" height="0.942" rx="0.471" transform="matrix(0.85, -0.527, 0.527, 0.85, 121.188, 104.934)" fill="#f2f1f7"/>
    <path id="Tracé_3640" data-name="Tracé 3640" d="M208.7,234.842a.716.716,0,0,1-.14-.016.614.614,0,0,1-.183-1.119l4.352-2.7a.622.622,0,0,1,.65,1.044h0l-4.352,2.7A.6.6,0,0,1,208.7,234.842Zm4.352-3.643a.311.311,0,0,0-.171.05l-4.352,2.7a.327.327,0,0,0-.146.205.323.323,0,0,0,.494.354l4.352-2.7a.33.33,0,0,0-.174-.622Zm.249.73Z" transform="translate(-86.859 -129.146)" fill="#1f4076"/>
    <path id="Tracé_3641" data-name="Tracé 3641" d="M250.65,152.749h-1.013a.143.143,0,1,1,0-.283h1.029a.143.143,0,1,1,0,.283Z" transform="translate(-115.38 -75.055)" fill="#1f4076"/>
    <path id="Tracé_3642" data-name="Tracé 3642" d="M256.675,138.33h0l-6.938-.423a.14.14,0,0,1-.127-.112L248,130.574a.162.162,0,0,1,.028-.118.143.143,0,0,1,.109-.053l10.709-.205a.118.118,0,0,1,.115.056.146.146,0,0,1,.022.124l-2.176,7.849A.143.143,0,0,1,256.675,138.33Zm-6.814-.687,6.708.4,2.092-7.554-10.342.2Z" transform="translate(-114.361 -59.709)" fill="#1f4076"/>
    <path id="Tracé_3643" data-name="Tracé 3643" d="M257.656,138.361a.143.143,0,0,1-.143-.131l-.584-7.389a.14.14,0,0,1,.131-.152.143.143,0,0,1,.152.131l.584,7.389a.143.143,0,0,1-.131.152Z" transform="translate(-120.518 -60.048)" fill="#1f4076"/>
    <path id="Tracé_3644" data-name="Tracé 3644" d="M264.013,138.388h0a.14.14,0,0,1-.134-.149l.429-7.482a.143.143,0,1,1,.283,0l-.429,7.482a.14.14,0,0,1-.149.149Z" transform="translate(-125.308 -59.981)" fill="#1f4076"/>
    <path id="Tracé_3645" data-name="Tracé 3645" d="M269.494,138.334h-.028a.143.143,0,0,1-.112-.168l1.573-7.687a.141.141,0,0,1,.277.056l-1.573,7.687A.14.14,0,0,1,269.494,138.334Z" transform="translate(-129.079 -59.825)" fill="#1f4076"/>
    <path id="Tracé_3646" data-name="Tracé 3646" d="M259.183,138.033h0c-9.636-.14-9.655-.2-9.689-.348a.146.146,0,0,1,.109-.171.137.137,0,0,1,.087,0c.4.068,5.875.171,9.5.224a.146.146,0,0,1,.14.146.143.143,0,0,1-.143.149Z" transform="translate(-115.392 -64.747)" fill="#1f4076"/>
    <path id="Tracé_3647" data-name="Tracé 3647" d="M259.588,143.888h0l-8.642-.255a.137.137,0,0,1-.137-.146.14.14,0,0,1,.14-.137h0l8.642.252a.143.143,0,1,1,0,.286Z" transform="translate(-116.301 -68.773)" fill="#1f4076"/>
    <path id="Tracé_3648" data-name="Tracé 3648" d="M259.935,149.428h0l-7.771-.336a.14.14,0,0,1-.134-.146.137.137,0,0,1,.146-.137l7.771.333a.143.143,0,1,1,0,.286Z" transform="translate(-117.142 -72.535)" fill="#1f4076"/>
    <path id="Tracé_3649" data-name="Tracé 3649" d="M149.625,119.58s-2.692,4.165-2.869,6.932c-.379,5.838,16.674,5.113,16.674,5.113l1.75-5.113-7.016-2.875Z" transform="translate(-44.588 -52.392)" fill="#1f4076"/>
    <path id="Tracé_3650" data-name="Tracé 3650" d="M161.267,131.467c-3.621,0-11.439-.326-14.081-3.028a2.9,2.9,0,0,1-.889-2.285c.18-2.773,2.782-6.839,2.894-7a.152.152,0,0,1,.2-.056l8.542,4.057,7.006,2.869a.155.155,0,0,1,.087.2l-1.75,5.113a.149.149,0,0,1-.14.106C163.017,131.443,162.32,131.467,161.267,131.467Zm-11.89-12.033c-.429.687-2.614,4.3-2.77,6.742a2.6,2.6,0,0,0,.8,2.045c3.149,3.22,14.392,2.947,15.608,2.906l1.669-4.874-6.879-2.819Z" transform="translate(-44.271 -52.048)" fill="#1f4076"/>
    <path id="Tracé_3651" data-name="Tracé 3651" d="M182.5,141.88s7.591,1.5,6.366,3.73S173.9,156.524,173.9,156.524l-2.027-1.551,9.366-9.353Z" transform="translate(-61.9 -67.76)" fill="#f2f1f7"/>
    <path id="Tracé_3652" data-name="Tracé 3652" d="M173.586,156.333a.143.143,0,0,1-.084-.028l-2.027-1.526a.137.137,0,0,1-.056-.1.152.152,0,0,1,.04-.112l9.325-9.341,1.271-3.708a.137.137,0,0,1,.162-.093c.233.047,5.685,1.138,6.506,2.9a1.072,1.072,0,0,1-.044,1.02c-1.243,2.223-14.457,10.609-15.02,10.967A.171.171,0,0,1,173.586,156.333Zm-1.809-1.679,1.818,1.368c1.144-.731,13.7-8.741,14.84-10.814a.793.793,0,0,0,.034-.762c-.706-1.5-5.368-2.536-6.183-2.72l-1.243,3.621a.311.311,0,0,1-.034.053Zm9.148-9.353Z" transform="translate(-61.589 -67.442)" fill="#1f4076"/>
    <path id="Tracé_3653" data-name="Tracé 3653" d="M168.512,184s-1.679.914-1.5,1.526,5.25,4.29,5.309,3.646-1.781-3.646-1.781-3.646Z" transform="translate(-58.542 -96.787)" fill="#5c6f99"/>
    <path id="Tracé_3654" data-name="Tracé 3654" d="M171.907,189.1c-.886,0-5.182-3.245-5.347-3.823-.2-.69,1.274-1.529,1.573-1.691a.143.143,0,0,1,.152,0l2.027,1.526a.134.134,0,0,1,.034.037c.193.311,1.865,3.065,1.8,3.73a.221.221,0,0,1-.211.205Zm-3.73-5.219c-.647.364-1.452.982-1.355,1.318.159.556,4.352,3.556,5.03,3.618a16.217,16.217,0,0,0-1.744-3.485Z" transform="translate(-58.228 -96.484)" fill="#5c6f99"/>
    <circle id="Ellipse_371" data-name="Ellipse 371" cx="1.576" cy="1.576" r="1.576" transform="translate(115.702 96.293)" fill="#1f4076"/>
    <path id="Tracé_3655" data-name="Tracé 3655" d="M191.541,216.173a1.731,1.731,0,1,1,1.731-1.731,1.731,1.731,0,0,1-1.731,1.731Zm0-3.152a1.421,1.421,0,1,0,1.421,1.421A1.421,1.421,0,0,0,191.541,213.021Z" transform="translate(-74.263 -116.573)" fill="#1f4076"/>
    <path id="Tracé_3656" data-name="Tracé 3656" d="M187.262,213.777a3.659,3.659,0,1,1,3.656-3.656A3.659,3.659,0,0,1,187.262,213.777Zm0-7.028a3.366,3.366,0,1,1,0,.012Z" transform="translate(-69.983 -112.266)" fill="#1f4076"/>
    <path id="Tracé_3657" data-name="Tracé 3657" d="M229.159,166.933a.622.622,0,0,1-.463-.208l-2.048-2.285a.625.625,0,1,1,.933-.833l2.055,2.288a.624.624,0,0,1-.476,1.038Z" transform="translate(-99.54 -82.59)" fill="#fce15c"/>
    <path id="Tracé_3658" data-name="Tracé 3658" d="M146.268,44.708a5.359,5.359,0,0,0-2.083-.622,6.545,6.545,0,0,0-3.7.569c-1.125.712-1.265,2.291-2.226,3.18a4.142,4.142,0,0,1-3.948.622,5.471,5.471,0,0,0,8.3.329c.973-1.048,1.4-2,2.913-1.75.665.112,2.251,1.088,2.577,0C148.351,46.166,146.884,45.063,146.268,44.708Z" transform="translate(-36.015 -0.333)" fill="#f2f1f7"/>
    <path id="Tracé_3659" data-name="Tracé 3659" d="M138.248,50.352h-.214a5.685,5.685,0,0,1-4.187-2.129.155.155,0,0,1,.165-.246,3.924,3.924,0,0,0,3.8-.581,4.84,4.84,0,0,0,.933-1.436A3.994,3.994,0,0,1,140.06,44.2a6.654,6.654,0,0,1,3.8-.594,5.483,5.483,0,0,1,2.129.637h0c.622.361,2.191,1.514,1.9,2.5a.818.818,0,0,1-.413.525,2.382,2.382,0,0,1-1.735-.221,3.856,3.856,0,0,0-.6-.19c-1.153-.193-1.6.339-2.285,1.144-.152.177-.311.367-.491.556A5.707,5.707,0,0,1,138.248,50.352Zm-3.839-1.965a5.309,5.309,0,0,0,7.74-.04c.174-.187.333-.373.482-.547.7-.821,1.243-1.467,2.571-1.243a3.73,3.73,0,0,1,.659.205c.51.183,1.141.413,1.489.236a.516.516,0,0,0,.255-.339c.214-.724-1.116-1.775-1.756-2.145h0a5.213,5.213,0,0,0-2.03-.609,6.452,6.452,0,0,0-3.6.547,3.718,3.718,0,0,0-1.2,1.638,4.974,4.974,0,0,1-1,1.526A4.013,4.013,0,0,1,134.409,48.388Z" transform="translate(-35.673)" fill="#1f4076"/>
    <path id="Tracé_3660" data-name="Tracé 3660" d="M172.222,47.944a2.142,2.142,0,0,0-.957,1.029,1.632,1.632,0,0,0-.183.933,1.243,1.243,0,0,0,.662.9.7.7,0,0,0,.5.087.833.833,0,0,0,.354-.242C173.31,49.908,174.311,46.952,172.222,47.944Z" transform="translate(-61.351 -2.885)" fill="#5c6f99"/>
    <path id="Tracé_3661" data-name="Tracé 3661" d="M171.772,50.692a.97.97,0,0,1-.444-.127,1.408,1.408,0,0,1-.746-1.02,1.8,1.8,0,0,1,.2-1.013,2.3,2.3,0,0,1,1.029-1.1c.64-.311,1.082-.289,1.321.04.469.653-.227,2.35-.765,2.91a.979.979,0,0,1-.426.283A.591.591,0,0,1,171.772,50.692Zm.814-3.161a1.632,1.632,0,0,0-.643.19h0a1.958,1.958,0,0,0-.88.954,1.476,1.476,0,0,0-.174.833,1.11,1.11,0,0,0,.584.79.578.578,0,0,0,.385.075.674.674,0,0,0,.283-.2c.494-.51,1.066-2.048.734-2.512A.336.336,0,0,0,172.586,47.531Zm-.709.047Z" transform="translate(-61.006 -2.519)" fill="#5c6f99"/>
    <path id="Tracé_3662" data-name="Tracé 3662" d="M174.527,54.633a1.571,1.571,0,0,1-1.5-.395,3.73,3.73,0,0,1-1.069-1.48,6.407,6.407,0,0,1,1.066-6.665c1.607-1.806,4.88-2.549,6.562-.417a3.143,3.143,0,0,1,.594,2.592.933.933,0,0,1,.706.749,1.725,1.725,0,0,1-.908,1.974c-1.187.793-2.453,1.461-3.6,2.306A7.9,7.9,0,0,1,174.527,54.633Z" transform="translate(-61.62 -0.566)" fill="#f2f1f7"/>
    <path id="Tracé_3663" data-name="Tracé 3663" d="M173.774,54.491A1.98,1.98,0,0,1,172.568,54a3.889,3.889,0,0,1-1.116-1.539,6.528,6.528,0,0,1,1.091-6.839,5.44,5.44,0,0,1,4.041-1.766,3.556,3.556,0,0,1,2.763,1.365A3.3,3.3,0,0,1,180,47.8a1.15,1.15,0,0,1,.678.827,1.9,1.9,0,0,1-.976,2.142c-.488.311-1,.622-1.489.933-.706.429-1.433.87-2.1,1.365-.218.162-.426.339-.622.51a3.786,3.786,0,0,1-1.271.846,1.4,1.4,0,0,1-.438.071Zm2.667-10.314a5.1,5.1,0,0,0-3.665,1.663,6.3,6.3,0,0,0-1.038,6.5,3.544,3.544,0,0,0,1.023,1.417,1.433,1.433,0,0,0,1.355.37h0a3.7,3.7,0,0,0,1.163-.783c.2-.177.413-.361.643-.525.681-.5,1.414-.951,2.126-1.38.488-.311.995-.606,1.48-.933a1.571,1.571,0,0,0,.846-1.812.8.8,0,0,0-.578-.622.158.158,0,0,1-.106-.065.152.152,0,0,1-.025-.121,2.978,2.978,0,0,0-.563-2.462,3.264,3.264,0,0,0-2.54-1.243Z" transform="translate(-61.255 -0.209)" fill="#1f4076"/>
    <path id="Tracé_3664" data-name="Tracé 3664" d="M194.359,65.64s.622,1.94.289,2.216-1-.165-1-.165" transform="translate(-76.909 -15.219)" fill="#f2f1f7"/>
    <path id="Tracé_3665" data-name="Tracé 3665" d="M194.041,67.755a1.713,1.713,0,0,1-.805-.28.155.155,0,1,1,.168-.261c.19.121.637.326.814.177a4.613,4.613,0,0,0-.339-2.052.159.159,0,0,1,.1-.2.155.155,0,0,1,.2.1c.193.622.6,2.073.242,2.381A.572.572,0,0,1,194.041,67.755Z" transform="translate(-76.57 -14.872)" fill="#1f4076"/>
    <path id="Tracé_3666" data-name="Tracé 3666" d="M180.442,58.48c.525.758,0,1.887-.242,2.655q-.476,1.623-1.032,3.223c-.233.678-2.017.18-2.272-.115-.249,1.268-.252,4.451-1.75,4.933a1.271,1.271,0,0,1-.908-.109c-1.921-.873-1.334-2.62-.954-4.15.286-1.156.535-2.328.8-3.491a2.329,2.329,0,0,0,2.272-.852C177.458,59.375,178.832,59.953,180.442,58.48Z" transform="translate(-62.604 -10.285)" fill="#f2f1f7"/>
    <path id="Tracé_3667" data-name="Tracé 3667" d="M174.493,69.07a1.688,1.688,0,0,1-.69-.165c-1.924-.873-1.5-2.558-1.116-4.041l.071-.289c.193-.771.37-1.554.541-2.325l.261-1.163a.158.158,0,0,1,.075-.1.165.165,0,0,1,.121,0,2.172,2.172,0,0,0,2.114-.808,3.4,3.4,0,0,1,1.865-.97,4.818,4.818,0,0,0,2.238-1.135.165.165,0,0,1,.124-.037.146.146,0,0,1,.109.065,2.7,2.7,0,0,1-.087,2.375c-.047.146-.093.283-.134.413-.311,1.076-.665,2.176-1.035,3.227a.659.659,0,0,1-.56.417,3.164,3.164,0,0,1-1.747-.311c-.034.214-.062.463-.1.74-.18,1.554-.432,3.662-1.716,4.078A1.085,1.085,0,0,1,174.493,69.07Zm-.656-7.771c-.078.339-.152.675-.23,1.013-.171.765-.348,1.554-.541,2.331l-.072.289c-.367,1.433-.743,2.916.933,3.684a1.163,1.163,0,0,0,.8.1c1.094-.354,1.343-2.44,1.5-3.82.047-.392.087-.73.14-1a.149.149,0,0,1,.112-.121.171.171,0,0,1,.159.05,2.732,2.732,0,0,0,1.682.379c.18-.034.289-.106.326-.211.367-1.06.712-2.142,1.032-3.217.037-.131.087-.274.137-.423a2.9,2.9,0,0,0,.211-1.946,5.2,5.2,0,0,1-2.223,1.076,3.23,3.23,0,0,0-1.71.88,2.52,2.52,0,0,1-2.257.939Z" transform="translate(-62.238 -9.979)" fill="#1f4076"/>
    <path id="Tracé_3668" data-name="Tracé 3668" d="M191.107,73.164a.92.92,0,0,1-1.187-.724" transform="translate(-74.339 -19.905)" fill="#f2f1f7"/>
    <path id="Tracé_3669" data-name="Tracé 3669" d="M190.469,73.009a1.113,1.113,0,0,1-.578-.152,1.057,1.057,0,0,1-.466-.73.159.159,0,0,1,.124-.183.155.155,0,0,1,.183.121.755.755,0,0,0,.311.528.958.958,0,0,0,.675.075.161.161,0,1,1,.084.311A1.377,1.377,0,0,1,190.469,73.009Z" transform="translate(-73.996 -19.561)" fill="#1f4076"/>
    <path id="Tracé_3670" data-name="Tracé 3670" d="M183.166,74.643a1.986,1.986,0,0,1-1.15-1.063,1.966,1.966,0,0,0,1,1.989Z" transform="translate(-68.875 -20.691)" fill="#1f4076"/>
    <path id="Tracé_3671" data-name="Tracé 3671" d="M182.675,75.4a.162.162,0,0,1-.09-.028,2.1,2.1,0,0,1-1.063-2.154.155.155,0,0,1,.143-.118.152.152,0,0,1,.155.109,1.8,1.8,0,0,0,1.051.961.155.155,0,0,1,.1.171l-.146.933a.155.155,0,0,1-.09.118.149.149,0,0,1-.062.009Zm-.842-1.554a1.983,1.983,0,0,0,.727,1.128l.087-.55a2.365,2.365,0,0,1-.814-.587Z" transform="translate(-68.53 -20.36)" fill="#1f4076"/>
    <ellipse id="Ellipse_372" data-name="Ellipse 372" cx="0.404" cy="0.159" rx="0.404" ry="0.159" transform="matrix(0.34, -0.94, 0.94, 0.34, 116.793, 50.029)" fill="#1f4076"/>
    <path id="Tracé_3672" data-name="Tracé 3672" d="M184.273,61.424a1.554,1.554,0,0,0-.093-.833,2.293,2.293,0,0,0-.252-.6.746.746,0,0,0-.535-.348.7.7,0,0,0-.522.214,1.346,1.346,0,0,0-.289.5,2.418,2.418,0,0,0,.482,2.372l-.044-.081" transform="translate(-69.195 -11.084)" fill="#f2f1f7"/>
    <path id="Tracé_3673" data-name="Tracé 3673" d="M182.745,62.556a.149.149,0,0,1-.115-.053,2.589,2.589,0,0,1-.513-2.527,1.458,1.458,0,0,1,.326-.55.824.824,0,0,1,.643-.258.88.88,0,0,1,.65.413,2.31,2.31,0,0,1,.27.647,1.666,1.666,0,0,1,.093.933.159.159,0,0,1-.193.109.155.155,0,0,1-.109-.19,1.427,1.427,0,0,0-.087-.746,2.009,2.009,0,0,0-.233-.563.584.584,0,0,0-.413-.28.525.525,0,0,0-.4.171,1.15,1.15,0,0,0-.255.438,2.291,2.291,0,0,0,.345,2.1.146.146,0,0,1,.087.075l.04.081a.155.155,0,0,1-.137.227Z" transform="translate(-68.87 -10.758)" fill="#1f4076"/>
    <path id="Tracé_3674" data-name="Tracé 3674" d="M163.045,82.089c0-1.52-5.763-10.948-9.571-6.251-1.554,1.933-1.912,8.082-4.234,16.145l10.653.622S163.045,87.281,163.045,82.089Z" transform="translate(-46.304 -21.352)" fill="#fce15c"/>
    <path id="Tracé_3675" data-name="Tracé 3675" d="M165.236,81.216c-1.905-1.632-2.8,1.716-2.906,2.969a12.521,12.521,0,0,0,1.141,6.105,1.738,1.738,0,0,0,.538.746,1.243,1.243,0,0,0,1.442-.155,2.766,2.766,0,0,0,.8-1.33,12.435,12.435,0,0,0,.389-4.383C166.567,83.693,166.327,82.155,165.236,81.216Z" transform="translate(-55.306 -25.65)" fill="#1f4076"/>
    <path id="Tracé_3676" data-name="Tracé 3676" d="M164.227,91.012a1.141,1.141,0,0,1-.653-.2,1.881,1.881,0,0,1-.594-.808,12.621,12.621,0,0,1-1.153-6.18c.072-.933.572-3.018,1.657-3.469a1.421,1.421,0,0,1,1.5.392h0c1.141.979,1.368,2.6,1.442,4.066a12.81,12.81,0,0,1-.395,4.439,2.943,2.943,0,0,1-.833,1.4A1.576,1.576,0,0,1,164.227,91.012Zm-.311-10.426a.811.811,0,0,0-.311.062c-.889.367-1.393,2.266-1.464,3.2a12.291,12.291,0,0,0,1.125,6.027,1.641,1.641,0,0,0,.485.681,1.094,1.094,0,0,0,1.243-.146,2.611,2.611,0,0,0,.734-1.243,12.452,12.452,0,0,0,.382-4.33c-.068-1.4-.283-2.944-1.334-3.845h0a1.393,1.393,0,0,0-.867-.407Z" transform="translate(-54.959 -25.303)" fill="#1f4076"/>
    <path id="Tracé_3677" data-name="Tracé 3677" d="M171.14,88.468c-1.091-.964-4.868-8-6.6-7.681s-2.714,3.13-1.3,4.865,4.949,5.769,6.972,6.605,11.66,1.554,11.66,1.554h1.592s-.146.746.361.675,2.176-1.554,1.685-2.552-1.927-1.243-2.238-1.3a10.236,10.236,0,0,0-2.176,1.11S172.235,89.431,171.14,88.468Z" transform="translate(-55.485 -25.65)" fill="#f2f1f7"/>
    <path id="Tracé_3678" data-name="Tracé 3678" d="M183.426,94.305a.407.407,0,0,1-.311-.124.752.752,0,0,1-.149-.553h-1.43c-.4-.031-9.692-.718-11.716-1.554-2.359-.973-6.556-6.068-7.025-6.646a3.391,3.391,0,0,1-.485-3.311,2.615,2.615,0,0,1,1.865-1.784c1.265-.233,3.335,2.863,5,5.35a17.513,17.513,0,0,0,1.722,2.362h0c1.007.892,9.061,3.012,9.838,3.214a7.112,7.112,0,0,1,2.226-1.094l.081.019a3.2,3.2,0,0,1,2.254,1.358,1.334,1.334,0,0,1-.118,1.243,3.345,3.345,0,0,1-1.675,1.529A.393.393,0,0,1,183.426,94.305Zm-.3-.964a.14.14,0,0,1,.137.171.687.687,0,0,0,.056.472c.019.022.056.047.146.034a3.182,3.182,0,0,0,1.464-1.383,1.048,1.048,0,0,0,.115-.967c-.417-.855-1.651-1.119-2.058-1.206l-.087-.019a8.563,8.563,0,0,0-2.058,1.088.143.143,0,0,1-.112.019c-.364-.1-8.912-2.316-10.019-3.292h0a16.283,16.283,0,0,1-1.769-2.418c-1.445-2.176-3.628-5.427-4.716-5.228a2.328,2.328,0,0,0-1.651,1.6,3.13,3.13,0,0,0,.435,3.034c.466.572,4.622,5.617,6.916,6.565,1.98.818,11.52,1.523,11.616,1.532Z" transform="translate(-55.153 -25.336)" fill="#1f4076"/>
    <circle id="Ellipse_373" data-name="Ellipse 373" cx="0.821" cy="0.821" r="0.821" transform="translate(126.361 67.188)" fill="#1f4076"/>
    <path id="Tracé_3679" data-name="Tracé 3679" d="M201.658,152.868a.152.152,0,0,1-.146-.112.149.149,0,0,1,.1-.193,7.227,7.227,0,0,1,3.04-.311.152.152,0,0,1,.109.19.155.155,0,0,1-.19.112,7.115,7.115,0,0,0-2.869.311Z" transform="translate(-82.322 -74.854)" fill="#1f4076"/>
    <path id="Tracé_3680" data-name="Tracé 3680" d="M107.372,192.562a.152.152,0,0,1-.093-.031l-6.637-5.135a.155.155,0,0,1,.19-.246l6.637,5.145a.155.155,0,0,1-.1.277Z" transform="translate(-12.776 -98.94)" fill="#5c6f99"/>
    <path id="Tracé_3681" data-name="Tracé 3681" d="M125.064,228.872h-.034a.155.155,0,0,1-.118-.186l1.529-6.963a.159.159,0,0,1,.311.068l-1.529,6.941A.159.159,0,0,1,125.064,228.872Z" transform="translate(-29.535 -122.698)" fill="#5c6f99"/>
    <path id="Tracé_3682" data-name="Tracé 3682" d="M144.328,202.843a.158.158,0,1,1-.056-.311l5.633-2.176a.155.155,0,0,1,.2.09.152.152,0,0,1-.09.2l-5.633,2.176A.177.177,0,0,1,144.328,202.843Z" transform="translate(-42.791 -108.052)" fill="#5c6f99"/>
    <path id="Tracé_3683" data-name="Tracé 3683" d="M260.885,228.73a.136.136,0,0,1-.068-.016.155.155,0,0,1-.072-.208l3.454-6.944a.155.155,0,0,1,.208-.068.152.152,0,0,1,.068.208l-3.45,6.944a.159.159,0,0,1-.14.084Z" transform="translate(-123.137 -122.615)" fill="#5c6f99"/>
    <path id="Tracé_3684" data-name="Tracé 3684" d="M248.964,197.727a.14.14,0,0,1-.078-.022l-6.528-3.749a.155.155,0,0,1,.155-.267l6.528,3.749a.155.155,0,0,1-.078.289Z" transform="translate(-110.433 -103.455)" fill="#5c6f99"/>
    <path id="Tracé_3685" data-name="Tracé 3685" d="M284.893,197.092a.159.159,0,0,1-.128-.062.155.155,0,0,1,.037-.218l6.652-4.79a.155.155,0,0,1,.18.252l-6.652,4.79A.161.161,0,0,1,284.893,197.092Z" transform="translate(-139.682 -102.301)" fill="#5c6f99"/>
    <path id="Tracé_3686" data-name="Tracé 3686" d="M165.645,143.936H165.6l-14.986-4.14a.152.152,0,0,1-.109-.19.155.155,0,0,1,.193-.109l14.986,4.137a.159.159,0,0,1,.109.193A.152.152,0,0,1,165.645,143.936Z" transform="translate(-47.173 -66.114)" fill="#f2f1f7"/>
  </g>
</svg>
